%TF.GenerationSoftware,KiCad,Pcbnew,(5.99.0-12374-g2479e1d7b1)*%
%TF.CreationDate,2021-11-09T23:09:33+03:00*%
%TF.ProjectId,Brass,42726173-732e-46b6-9963-61645f706362,rev?*%
%TF.SameCoordinates,Original*%
%TF.FileFunction,Copper,L2,Bot*%
%TF.FilePolarity,Positive*%
%FSLAX46Y46*%
G04 Gerber Fmt 4.6, Leading zero omitted, Abs format (unit mm)*
G04 Created by KiCad (PCBNEW (5.99.0-12374-g2479e1d7b1)) date 2021-11-09 23:09:33*
%MOMM*%
%LPD*%
G01*
G04 APERTURE LIST*
G04 Aperture macros list*
%AMRoundRect*
0 Rectangle with rounded corners*
0 $1 Rounding radius*
0 $2 $3 $4 $5 $6 $7 $8 $9 X,Y pos of 4 corners*
0 Add a 4 corners polygon primitive as box body*
4,1,4,$2,$3,$4,$5,$6,$7,$8,$9,$2,$3,0*
0 Add four circle primitives for the rounded corners*
1,1,$1+$1,$2,$3*
1,1,$1+$1,$4,$5*
1,1,$1+$1,$6,$7*
1,1,$1+$1,$8,$9*
0 Add four rect primitives between the rounded corners*
20,1,$1+$1,$2,$3,$4,$5,0*
20,1,$1+$1,$4,$5,$6,$7,0*
20,1,$1+$1,$6,$7,$8,$9,0*
20,1,$1+$1,$8,$9,$2,$3,0*%
%AMFreePoly0*
4,1,22,0.550000,-0.750000,0.000000,-0.750000,0.000000,-0.745033,-0.079941,-0.743568,-0.215256,-0.701293,-0.333266,-0.622738,-0.424486,-0.514219,-0.481581,-0.384460,-0.499164,-0.250000,-0.500000,-0.250000,-0.500000,0.250000,-0.499164,0.250000,-0.499963,0.256109,-0.478152,0.396186,-0.417904,0.524511,-0.324060,0.630769,-0.204165,0.706417,-0.067858,0.745374,0.000000,0.744959,0.000000,0.750000,
0.550000,0.750000,0.550000,-0.750000,0.550000,-0.750000,$1*%
%AMFreePoly1*
4,1,20,0.000000,0.744959,0.073905,0.744508,0.209726,0.703889,0.328688,0.626782,0.421226,0.519385,0.479903,0.390333,0.500000,0.250000,0.500000,-0.250000,0.499851,-0.262216,0.476331,-0.402017,0.414519,-0.529596,0.319384,-0.634700,0.198574,-0.708877,0.061801,-0.746166,0.000000,-0.745033,0.000000,-0.750000,-0.550000,-0.750000,-0.550000,0.750000,0.000000,0.750000,0.000000,0.744959,
0.000000,0.744959,$1*%
G04 Aperture macros list end*
%TA.AperFunction,ComponentPad*%
%ADD10C,0.500000*%
%TD*%
%TA.AperFunction,ComponentPad*%
%ADD11C,3.000000*%
%TD*%
%TA.AperFunction,ComponentPad*%
%ADD12R,1.700000X1.700000*%
%TD*%
%TA.AperFunction,ComponentPad*%
%ADD13O,1.700000X1.700000*%
%TD*%
%TA.AperFunction,ComponentPad*%
%ADD14C,5.600000*%
%TD*%
%TA.AperFunction,SMDPad,CuDef*%
%ADD15RoundRect,0.237500X-0.044194X-0.380070X0.380070X0.044194X0.044194X0.380070X-0.380070X-0.044194X0*%
%TD*%
%TA.AperFunction,ComponentPad*%
%ADD16C,1.700000*%
%TD*%
%TA.AperFunction,SMDPad,CuDef*%
%ADD17RoundRect,0.237500X-0.237500X0.300000X-0.237500X-0.300000X0.237500X-0.300000X0.237500X0.300000X0*%
%TD*%
%TA.AperFunction,SMDPad,CuDef*%
%ADD18RoundRect,0.237500X0.300000X0.237500X-0.300000X0.237500X-0.300000X-0.237500X0.300000X-0.237500X0*%
%TD*%
%TA.AperFunction,SMDPad,CuDef*%
%ADD19R,0.900000X0.780000*%
%TD*%
%TA.AperFunction,SMDPad,CuDef*%
%ADD20RoundRect,0.237500X-0.300000X-0.237500X0.300000X-0.237500X0.300000X0.237500X-0.300000X0.237500X0*%
%TD*%
%TA.AperFunction,SMDPad,CuDef*%
%ADD21RoundRect,0.237500X0.237500X-0.250000X0.237500X0.250000X-0.237500X0.250000X-0.237500X-0.250000X0*%
%TD*%
%TA.AperFunction,SMDPad,CuDef*%
%ADD22RoundRect,0.237500X0.287500X0.237500X-0.287500X0.237500X-0.287500X-0.237500X0.287500X-0.237500X0*%
%TD*%
%TA.AperFunction,SMDPad,CuDef*%
%ADD23RoundRect,0.237500X0.237500X-0.300000X0.237500X0.300000X-0.237500X0.300000X-0.237500X-0.300000X0*%
%TD*%
%TA.AperFunction,SMDPad,CuDef*%
%ADD24RoundRect,0.237500X0.237500X-0.287500X0.237500X0.287500X-0.237500X0.287500X-0.237500X-0.287500X0*%
%TD*%
%TA.AperFunction,SMDPad,CuDef*%
%ADD25RoundRect,0.237500X-0.237500X0.287500X-0.237500X-0.287500X0.237500X-0.287500X0.237500X0.287500X0*%
%TD*%
%TA.AperFunction,SMDPad,CuDef*%
%ADD26FreePoly0,180.000000*%
%TD*%
%TA.AperFunction,SMDPad,CuDef*%
%ADD27R,1.000000X1.500000*%
%TD*%
%TA.AperFunction,SMDPad,CuDef*%
%ADD28FreePoly1,180.000000*%
%TD*%
%TA.AperFunction,ViaPad*%
%ADD29C,0.800000*%
%TD*%
%TA.AperFunction,Conductor*%
%ADD30C,0.250000*%
%TD*%
G04 APERTURE END LIST*
D10*
%TO.P,U1,65,EP*%
%TO.N,GND*%
X99255000Y-66370000D03*
X105255000Y-67870000D03*
X103755000Y-67870000D03*
X100755000Y-69370000D03*
X105255000Y-72370000D03*
X103755000Y-66370000D03*
X102255000Y-70870000D03*
X99255000Y-67870000D03*
X99255000Y-69370000D03*
X105255000Y-66370000D03*
X102255000Y-66370000D03*
D11*
X100255000Y-71370000D03*
D10*
X103755000Y-69370000D03*
X100755000Y-66370000D03*
X103755000Y-70870000D03*
X102255000Y-67870000D03*
X103755000Y-72370000D03*
X102255000Y-72370000D03*
X100755000Y-67870000D03*
X105255000Y-69370000D03*
X105255000Y-70870000D03*
X102255000Y-69370000D03*
%TD*%
D12*
%TO.P,J2,1,Pin_1*%
%TO.N,GND*%
X76200000Y-86365000D03*
D13*
%TO.P,J2,2,Pin_2*%
%TO.N,VPP*%
X76200000Y-83825000D03*
%TD*%
D12*
%TO.P,J1,1,Pin_1*%
%TO.N,GND*%
X114285000Y-83815000D03*
D13*
%TO.P,J1,2,Pin_2*%
%TO.N,/RESET*%
X114285000Y-86355000D03*
%TO.P,J1,3,Pin_3*%
%TO.N,/PGA*%
X111745000Y-83815000D03*
%TO.P,J1,4,Pin_4*%
%TO.N,/SEN*%
X111745000Y-86355000D03*
%TO.P,J1,5,Pin_5*%
%TO.N,/SCLK*%
X109205000Y-83815000D03*
%TO.P,J1,6,Pin_6*%
%TO.N,/SDO*%
X109205000Y-86355000D03*
%TO.P,J1,7,Pin_7*%
%TO.N,/SDIO*%
X106665000Y-83815000D03*
%TO.P,J1,8,Pin_8*%
%TO.N,/CLKOUT*%
X106665000Y-86355000D03*
%TO.P,J1,9,Pin_9*%
%TO.N,/RXCLK*%
X104125000Y-83815000D03*
%TO.P,J1,10,Pin_10*%
%TO.N,/TXCLK*%
X104125000Y-86355000D03*
%TO.P,J1,11,Pin_11*%
%TO.N,/TXEN*%
X101585000Y-83815000D03*
%TO.P,J1,12,Pin_12*%
%TO.N,/RXEN*%
X101585000Y-86355000D03*
%TO.P,J1,13,Pin_13*%
%TO.N,/ADIO0*%
X99045000Y-83815000D03*
%TO.P,J1,14,Pin_14*%
%TO.N,/ADIO1*%
X99045000Y-86355000D03*
%TO.P,J1,15,Pin_15*%
%TO.N,/ADIO2*%
X96505000Y-83815000D03*
%TO.P,J1,16,Pin_16*%
%TO.N,/ADIO3*%
X96505000Y-86355000D03*
%TO.P,J1,17,Pin_17*%
%TO.N,/ADIO4*%
X93965000Y-83815000D03*
%TO.P,J1,18,Pin_18*%
%TO.N,/ADIO5*%
X93965000Y-86355000D03*
%TO.P,J1,19,Pin_19*%
%TO.N,/ADIO6*%
X91425000Y-83815000D03*
%TO.P,J1,20,Pin_20*%
%TO.N,/ADIO7*%
X91425000Y-86355000D03*
%TO.P,J1,21,Pin_21*%
%TO.N,/ADIO8*%
X88885000Y-83815000D03*
%TO.P,J1,22,Pin_22*%
%TO.N,/ADIO9*%
X88885000Y-86355000D03*
%TO.P,J1,23,Pin_23*%
%TO.N,/ADIO10*%
X86345000Y-83815000D03*
%TO.P,J1,24,Pin_24*%
%TO.N,/ADIO11*%
X86345000Y-86355000D03*
%TO.P,J1,25,Pin_25*%
%TO.N,/MODE*%
X83805000Y-83815000D03*
%TO.P,J1,26,Pin_26*%
%TO.N,+3V3*%
X83805000Y-86355000D03*
%TD*%
D14*
%TO.P,H3,1,1*%
%TO.N,GND*%
X121000000Y-85000000D03*
%TD*%
%TO.P,H4,1,1*%
%TO.N,GND*%
X68000000Y-85000000D03*
%TD*%
%TO.P,H2,1,1*%
%TO.N,GND*%
X121000000Y-51000000D03*
%TD*%
D15*
%TO.P,C23,1*%
%TO.N,Net-(C1-Pad2)*%
X108610120Y-64109880D03*
%TO.P,C23,2*%
%TO.N,GND*%
X109829880Y-62890120D03*
%TD*%
D10*
%TO.P,U2,4,V-*%
%TO.N,GND*%
X78970000Y-67425000D03*
D16*
X75665000Y-67300000D03*
D10*
X77470000Y-67425000D03*
X78970000Y-65925000D03*
X75970000Y-65925000D03*
X77470000Y-65925000D03*
%TD*%
D14*
%TO.P,H1,1,1*%
%TO.N,GND*%
X68000000Y-51000000D03*
%TD*%
D15*
%TO.P,C22,1*%
%TO.N,Net-(C1-Pad1)*%
X107340120Y-62839880D03*
%TO.P,C22,2*%
%TO.N,GND*%
X108559880Y-61620120D03*
%TD*%
D17*
%TO.P,C28,1*%
%TO.N,Net-(C12-Pad1)*%
X87630000Y-70892500D03*
%TO.P,C28,2*%
%TO.N,GND*%
X87630000Y-72617500D03*
%TD*%
D18*
%TO.P,C42,1*%
%TO.N,GND*%
X79602500Y-60960000D03*
%TO.P,C42,2*%
%TO.N,VPP*%
X77877500Y-60960000D03*
%TD*%
D19*
%TO.P,X1,1,VC*%
%TO.N,Net-(JP1-Pad2)*%
X91375000Y-78335000D03*
%TO.P,X1,2,GND*%
%TO.N,GND*%
X91375000Y-75335000D03*
%TO.P,X1,3,OUT*%
%TO.N,Net-(C47-Pad1)*%
X92775000Y-75335000D03*
%TO.P,X1,4,VDD*%
%TO.N,Net-(C44-Pad2)*%
X92775000Y-78335000D03*
%TD*%
D20*
%TO.P,C25,1*%
%TO.N,Net-(C14-Pad1)*%
X102642500Y-54610000D03*
%TO.P,C25,2*%
%TO.N,GND*%
X104367500Y-54610000D03*
%TD*%
D18*
%TO.P,C10,1*%
%TO.N,Net-(C10-Pad1)*%
X99922500Y-60325000D03*
%TO.P,C10,2*%
%TO.N,GND*%
X98197500Y-60325000D03*
%TD*%
D17*
%TO.P,C35,1*%
%TO.N,Net-(C35-Pad1)*%
X80772000Y-68352500D03*
%TO.P,C35,2*%
%TO.N,GND*%
X80772000Y-70077500D03*
%TD*%
D21*
%TO.P,R7,1*%
%TO.N,GND*%
X82550000Y-70127500D03*
%TO.P,R7,2*%
%TO.N,Net-(C35-Pad1)*%
X82550000Y-68302500D03*
%TD*%
D17*
%TO.P,C44,1*%
%TO.N,GND*%
X89535000Y-75972500D03*
%TO.P,C44,2*%
%TO.N,Net-(C44-Pad2)*%
X89535000Y-77697500D03*
%TD*%
D22*
%TO.P,FB2,1*%
%TO.N,+3V3*%
X99935000Y-52705000D03*
%TO.P,FB2,2*%
%TO.N,Net-(C10-Pad1)*%
X98185000Y-52705000D03*
%TD*%
D20*
%TO.P,C5,1*%
%TO.N,Net-(C14-Pad1)*%
X102642500Y-62230000D03*
%TO.P,C5,2*%
%TO.N,GND*%
X104367500Y-62230000D03*
%TD*%
D23*
%TO.P,C16,1*%
%TO.N,Net-(C11-Pad1)*%
X91440000Y-68807500D03*
%TO.P,C16,2*%
%TO.N,GND*%
X91440000Y-67082500D03*
%TD*%
D18*
%TO.P,C19,1*%
%TO.N,Net-(C10-Pad1)*%
X99922500Y-56515000D03*
%TO.P,C19,2*%
%TO.N,GND*%
X98197500Y-56515000D03*
%TD*%
D17*
%TO.P,C17,1*%
%TO.N,Net-(C12-Pad1)*%
X91440000Y-70892500D03*
%TO.P,C17,2*%
%TO.N,GND*%
X91440000Y-72617500D03*
%TD*%
%TO.P,C21,1*%
%TO.N,Net-(C12-Pad1)*%
X89535000Y-70892500D03*
%TO.P,C21,2*%
%TO.N,GND*%
X89535000Y-72617500D03*
%TD*%
D23*
%TO.P,C27,1*%
%TO.N,Net-(C11-Pad1)*%
X87630000Y-68807500D03*
%TO.P,C27,2*%
%TO.N,GND*%
X87630000Y-67082500D03*
%TD*%
D20*
%TO.P,C18,1*%
%TO.N,Net-(C14-Pad1)*%
X102642500Y-56515000D03*
%TO.P,C18,2*%
%TO.N,GND*%
X104367500Y-56515000D03*
%TD*%
D18*
%TO.P,C15,1*%
%TO.N,Net-(C10-Pad1)*%
X99922500Y-58420000D03*
%TO.P,C15,2*%
%TO.N,GND*%
X98197500Y-58420000D03*
%TD*%
D23*
%TO.P,C11,1*%
%TO.N,Net-(C11-Pad1)*%
X93345000Y-68807500D03*
%TO.P,C11,2*%
%TO.N,GND*%
X93345000Y-67082500D03*
%TD*%
%TO.P,C20,1*%
%TO.N,Net-(C11-Pad1)*%
X89535000Y-68807500D03*
%TO.P,C20,2*%
%TO.N,GND*%
X89535000Y-67082500D03*
%TD*%
D24*
%TO.P,FB4,1*%
%TO.N,+3V3*%
X85725000Y-72630000D03*
%TO.P,FB4,2*%
%TO.N,Net-(C12-Pad1)*%
X85725000Y-70880000D03*
%TD*%
D23*
%TO.P,C41,1*%
%TO.N,Net-(C41-Pad1)*%
X73660000Y-64997500D03*
%TO.P,C41,2*%
%TO.N,Net-(C41-Pad2)*%
X73660000Y-63272500D03*
%TD*%
D18*
%TO.P,C26,1*%
%TO.N,Net-(C10-Pad1)*%
X99922500Y-54610000D03*
%TO.P,C26,2*%
%TO.N,GND*%
X98197500Y-54610000D03*
%TD*%
D25*
%TO.P,FB5,1*%
%TO.N,+3V3*%
X85725000Y-75960000D03*
%TO.P,FB5,2*%
%TO.N,Net-(C44-Pad2)*%
X85725000Y-77710000D03*
%TD*%
D20*
%TO.P,C9,1*%
%TO.N,Net-(C14-Pad1)*%
X102642500Y-60325000D03*
%TO.P,C9,2*%
%TO.N,GND*%
X104367500Y-60325000D03*
%TD*%
%TO.P,C14,1*%
%TO.N,Net-(C14-Pad1)*%
X102642500Y-58420000D03*
%TO.P,C14,2*%
%TO.N,GND*%
X104367500Y-58420000D03*
%TD*%
D18*
%TO.P,C6,1*%
%TO.N,Net-(C10-Pad1)*%
X99922500Y-62230000D03*
%TO.P,C6,2*%
%TO.N,GND*%
X98197500Y-62230000D03*
%TD*%
D17*
%TO.P,C8,1*%
%TO.N,Net-(C12-Pad1)*%
X95250000Y-70892500D03*
%TO.P,C8,2*%
%TO.N,GND*%
X95250000Y-72617500D03*
%TD*%
%TO.P,C48,1*%
%TO.N,GND*%
X87630000Y-75972500D03*
%TO.P,C48,2*%
%TO.N,Net-(C44-Pad2)*%
X87630000Y-77697500D03*
%TD*%
D21*
%TO.P,R11,1*%
%TO.N,Net-(R11-Pad1)*%
X73660000Y-69492500D03*
%TO.P,R11,2*%
%TO.N,Net-(C41-Pad1)*%
X73660000Y-67667500D03*
%TD*%
D17*
%TO.P,C12,1*%
%TO.N,Net-(C12-Pad1)*%
X93345000Y-70892500D03*
%TO.P,C12,2*%
%TO.N,GND*%
X93345000Y-72617500D03*
%TD*%
D20*
%TO.P,C47,1*%
%TO.N,Net-(C47-Pad1)*%
X95022500Y-75565000D03*
%TO.P,C47,2*%
%TO.N,/RF Frontend/REFCLK*%
X96747500Y-75565000D03*
%TD*%
D26*
%TO.P,JP1,1,A*%
%TO.N,GND*%
X97820000Y-78105000D03*
D27*
%TO.P,JP1,2,C*%
%TO.N,Net-(JP1-Pad2)*%
X96520000Y-78105000D03*
D28*
%TO.P,JP1,3,B*%
%TO.N,Net-(C44-Pad2)*%
X95220000Y-78105000D03*
%TD*%
D23*
%TO.P,C7,1*%
%TO.N,Net-(C11-Pad1)*%
X95250000Y-68807500D03*
%TO.P,C7,2*%
%TO.N,GND*%
X95250000Y-67082500D03*
%TD*%
D25*
%TO.P,FB3,1*%
%TO.N,+3V3*%
X85725000Y-67070000D03*
%TO.P,FB3,2*%
%TO.N,Net-(C11-Pad1)*%
X85725000Y-68820000D03*
%TD*%
D22*
%TO.P,FB1,1*%
%TO.N,Net-(C14-Pad1)*%
X104380000Y-52705000D03*
%TO.P,FB1,2*%
%TO.N,+3V3*%
X102630000Y-52705000D03*
%TD*%
D21*
%TO.P,R6,1*%
%TO.N,Net-(C35-Pad1)*%
X82550000Y-65682500D03*
%TO.P,R6,2*%
%TO.N,VPP*%
X82550000Y-63857500D03*
%TD*%
D29*
%TO.N,Net-(C1-Pad1)*%
X106680000Y-62230000D03*
%TO.N,Net-(C1-Pad2)*%
X109220000Y-64770000D03*
%TO.N,VPP*%
X75565000Y-62230000D03*
%TO.N,/RF Frontend/REFCLK*%
X96520000Y-69215000D03*
%TO.N,Net-(C14-Pad1)*%
X102780500Y-63500000D03*
X104775000Y-63500000D03*
%TO.N,Net-(C10-Pad1)*%
X100330000Y-63500000D03*
%TO.N,Net-(C11-Pad1)*%
X96520000Y-70485000D03*
%TO.N,Net-(C12-Pad1)*%
X96520000Y-71755000D03*
X107315000Y-74295000D03*
X97467950Y-73982452D03*
%TO.N,Net-(C35-Pad1)*%
X82550000Y-67056000D03*
%TO.N,Net-(C41-Pad2)*%
X78105000Y-62230000D03*
%TO.N,Net-(R11-Pad1)*%
X76835000Y-71120000D03*
%TD*%
D30*
%TO.N,Net-(C1-Pad2)*%
X109220000Y-64770000D02*
X108610120Y-64160120D01*
X108610120Y-64160120D02*
X108610120Y-64109880D01*
%TO.N,Net-(C1-Pad1)*%
X106680000Y-62230000D02*
X107289880Y-62839880D01*
X107289880Y-62839880D02*
X107340120Y-62839880D01*
%TO.N,Net-(C14-Pad1)*%
X102780500Y-63500000D02*
X104775000Y-63500000D01*
%TO.N,VPP*%
X82550000Y-63857500D02*
X83693000Y-65000500D01*
X83693000Y-65000500D02*
X83693000Y-76332000D01*
X83693000Y-76332000D02*
X76200000Y-83825000D01*
%TO.N,+3V3*%
X81280000Y-85090000D02*
X82545000Y-86355000D01*
X82545000Y-86355000D02*
X83805000Y-86355000D01*
X81280000Y-85090000D02*
X81280000Y-82169000D01*
X81280000Y-82169000D02*
X84455000Y-78994000D01*
X84455000Y-78994000D02*
X84455000Y-74803000D01*
%TO.N,VPP*%
X77877500Y-60960000D02*
X80775000Y-63857500D01*
X76835000Y-60960000D02*
X75565000Y-62230000D01*
X77877500Y-60960000D02*
X76835000Y-60960000D01*
X80775000Y-63857500D02*
X82550000Y-63857500D01*
%TO.N,/RF Frontend/REFCLK*%
X97244511Y-69939511D02*
X97244511Y-72055103D01*
X96520000Y-69215000D02*
X97244511Y-69939511D01*
X96520000Y-72779614D02*
X96520000Y-75337500D01*
X96520000Y-75337500D02*
X96747500Y-75565000D01*
X97244511Y-72055103D02*
X96520000Y-72779614D01*
%TO.N,+3V3*%
X84455000Y-62230000D02*
X95250000Y-51435000D01*
X85725000Y-75960000D02*
X85612000Y-75960000D01*
X85725000Y-72630000D02*
X85330000Y-72630000D01*
X99935000Y-52310000D02*
X99060000Y-51435000D01*
X84455000Y-66040000D02*
X84455000Y-62230000D01*
X85725000Y-67070000D02*
X85485000Y-67070000D01*
X85612000Y-75960000D02*
X84455000Y-74803000D01*
X84455000Y-74803000D02*
X84455000Y-71755000D01*
X99060000Y-51435000D02*
X101360000Y-51435000D01*
X95250000Y-51435000D02*
X99060000Y-51435000D01*
X85485000Y-67070000D02*
X84455000Y-66040000D01*
X99935000Y-52705000D02*
X99935000Y-52310000D01*
X84455000Y-71755000D02*
X84455000Y-66040000D01*
X99935000Y-52705000D02*
X99695000Y-52705000D01*
X101360000Y-51435000D02*
X102630000Y-52705000D01*
X85330000Y-72630000D02*
X84455000Y-71755000D01*
%TO.N,Net-(C14-Pad1)*%
X102642500Y-54442500D02*
X104380000Y-52705000D01*
X102642500Y-58420000D02*
X102642500Y-56515000D01*
X102642500Y-54610000D02*
X102642500Y-54442500D01*
X102642500Y-60325000D02*
X102642500Y-58420000D01*
X102642500Y-56515000D02*
X102642500Y-54610000D01*
X102642500Y-62230000D02*
X102642500Y-60325000D01*
X102780500Y-62368000D02*
X102642500Y-62230000D01*
X102780500Y-63500000D02*
X102780500Y-62368000D01*
%TO.N,Net-(C10-Pad1)*%
X100330000Y-62637500D02*
X99922500Y-62230000D01*
X99922500Y-62230000D02*
X99922500Y-60325000D01*
X99922500Y-54610000D02*
X98185000Y-52872500D01*
X99922500Y-60325000D02*
X99922500Y-58420000D01*
X100330000Y-63500000D02*
X100330000Y-62637500D01*
X98185000Y-52872500D02*
X98185000Y-52705000D01*
X99922500Y-58420000D02*
X99922500Y-56515000D01*
X99922500Y-56515000D02*
X99922500Y-54610000D01*
%TO.N,Net-(C11-Pad1)*%
X96520000Y-70485000D02*
X95250000Y-69215000D01*
X85737500Y-68807500D02*
X85725000Y-68820000D01*
X95250000Y-68807500D02*
X93345000Y-68807500D01*
X93345000Y-68807500D02*
X91440000Y-68807500D01*
X89535000Y-68807500D02*
X87630000Y-68807500D01*
X95250000Y-69215000D02*
X95250000Y-68807500D01*
X91440000Y-68807500D02*
X89535000Y-68807500D01*
X87630000Y-68807500D02*
X85737500Y-68807500D01*
%TO.N,Net-(C12-Pad1)*%
X96520000Y-71755000D02*
X96112500Y-71755000D01*
X87630000Y-70892500D02*
X85737500Y-70892500D01*
X97780498Y-74295000D02*
X97467950Y-73982452D01*
X107315000Y-74295000D02*
X97780498Y-74295000D01*
X95250000Y-70892500D02*
X87630000Y-70892500D01*
X96112500Y-71755000D02*
X95250000Y-70892500D01*
X85737500Y-70892500D02*
X85725000Y-70880000D01*
%TO.N,Net-(C35-Pad1)*%
X82550000Y-65682500D02*
X82550000Y-67056000D01*
X82500000Y-68352500D02*
X82550000Y-68302500D01*
X80772000Y-68352500D02*
X82500000Y-68352500D01*
X82550000Y-67056000D02*
X82550000Y-68302500D01*
%TO.N,Net-(C41-Pad1)*%
X73660000Y-64997500D02*
X73660000Y-67667500D01*
%TO.N,Net-(C41-Pad2)*%
X77062500Y-63272500D02*
X78105000Y-62230000D01*
X73660000Y-63272500D02*
X77062500Y-63272500D01*
%TO.N,Net-(C44-Pad2)*%
X95220000Y-78105000D02*
X93005000Y-78105000D01*
X93005000Y-78105000D02*
X92775000Y-78335000D01*
X89612011Y-77620489D02*
X92060489Y-77620489D01*
X87617500Y-77710000D02*
X87630000Y-77697500D01*
X92060489Y-77620489D02*
X92775000Y-78335000D01*
X85725000Y-77710000D02*
X87617500Y-77710000D01*
X87630000Y-77697500D02*
X89535000Y-77697500D01*
X89535000Y-77697500D02*
X89612011Y-77620489D01*
%TO.N,Net-(C47-Pad1)*%
X93005000Y-75565000D02*
X92775000Y-75335000D01*
X95022500Y-75565000D02*
X93005000Y-75565000D01*
%TO.N,Net-(JP1-Pad2)*%
X92415000Y-79375000D02*
X91375000Y-78335000D01*
X96250000Y-79375000D02*
X92415000Y-79375000D01*
X96520000Y-78105000D02*
X96520000Y-79105000D01*
X96520000Y-79105000D02*
X96250000Y-79375000D01*
%TO.N,Net-(R11-Pad1)*%
X75207500Y-69492500D02*
X76835000Y-71120000D01*
X73660000Y-69492500D02*
X75207500Y-69492500D01*
%TD*%
%TA.AperFunction,Conductor*%
%TO.N,GND*%
G36*
X120970057Y-47509500D02*
G01*
X120984858Y-47511805D01*
X120984861Y-47511805D01*
X120993730Y-47513186D01*
X121013054Y-47510659D01*
X121035570Y-47509747D01*
X121336100Y-47524512D01*
X121348394Y-47525722D01*
X121675139Y-47574191D01*
X121687249Y-47576599D01*
X121916014Y-47633902D01*
X122007665Y-47656859D01*
X122019498Y-47660448D01*
X122330502Y-47771727D01*
X122341926Y-47776459D01*
X122411414Y-47809324D01*
X122640527Y-47917686D01*
X122651428Y-47923513D01*
X122934744Y-48093327D01*
X122945025Y-48100197D01*
X123210328Y-48296960D01*
X123219886Y-48304804D01*
X123464629Y-48526625D01*
X123473373Y-48535369D01*
X123695194Y-48780112D01*
X123703038Y-48789670D01*
X123899801Y-49054973D01*
X123906671Y-49065254D01*
X124076485Y-49348570D01*
X124082314Y-49359475D01*
X124223539Y-49658072D01*
X124228271Y-49669496D01*
X124339550Y-49980500D01*
X124343138Y-49992330D01*
X124399277Y-50216447D01*
X124423397Y-50312741D01*
X124425807Y-50324859D01*
X124474275Y-50651599D01*
X124475487Y-50663905D01*
X124489888Y-50957060D01*
X124488541Y-50982622D01*
X124488193Y-50984855D01*
X124488193Y-50984859D01*
X124486812Y-50993728D01*
X124487976Y-51002630D01*
X124487976Y-51002633D01*
X124490934Y-51025249D01*
X124491998Y-51041587D01*
X124492001Y-72237249D01*
X124492002Y-84950674D01*
X124490502Y-84970058D01*
X124486816Y-84993732D01*
X124489011Y-85010516D01*
X124489343Y-85013052D01*
X124490255Y-85035572D01*
X124475491Y-85336094D01*
X124475491Y-85336096D01*
X124474280Y-85348396D01*
X124429236Y-85652054D01*
X124425813Y-85675130D01*
X124423401Y-85687258D01*
X124343141Y-86007670D01*
X124339552Y-86019502D01*
X124228274Y-86330504D01*
X124223542Y-86341928D01*
X124215768Y-86358365D01*
X124089724Y-86624865D01*
X124082317Y-86640525D01*
X124076491Y-86651425D01*
X124076489Y-86651429D01*
X124076488Y-86651430D01*
X123906673Y-86934747D01*
X123899803Y-86945028D01*
X123703046Y-87210325D01*
X123695202Y-87219884D01*
X123473370Y-87464637D01*
X123464626Y-87473380D01*
X123219888Y-87695197D01*
X123210330Y-87703041D01*
X122945027Y-87899803D01*
X122934746Y-87906673D01*
X122651429Y-88076487D01*
X122640528Y-88082314D01*
X122506276Y-88145810D01*
X122341927Y-88223541D01*
X122330503Y-88228273D01*
X122019501Y-88339551D01*
X122007669Y-88343140D01*
X121781216Y-88399864D01*
X121687254Y-88423401D01*
X121675132Y-88425811D01*
X121348392Y-88474278D01*
X121336100Y-88475488D01*
X121235776Y-88480417D01*
X121042938Y-88489890D01*
X121017376Y-88488543D01*
X121015143Y-88488195D01*
X121015139Y-88488195D01*
X121006270Y-88486814D01*
X120997368Y-88487978D01*
X120997365Y-88487978D01*
X120974749Y-88490936D01*
X120958411Y-88492000D01*
X96787990Y-88492001D01*
X68049326Y-88492002D01*
X68029941Y-88490502D01*
X68015140Y-88488197D01*
X68015137Y-88488197D01*
X68006268Y-88486816D01*
X67986944Y-88489343D01*
X67964428Y-88490255D01*
X67663898Y-88475490D01*
X67651604Y-88474280D01*
X67324867Y-88425812D01*
X67312745Y-88423402D01*
X67218783Y-88399865D01*
X66992330Y-88343141D01*
X66980498Y-88339552D01*
X66669496Y-88228274D01*
X66658072Y-88223542D01*
X66493723Y-88145811D01*
X66359471Y-88082315D01*
X66348575Y-88076491D01*
X66207630Y-87992011D01*
X66065253Y-87906673D01*
X66054972Y-87899803D01*
X65789675Y-87703046D01*
X65780116Y-87695202D01*
X65535363Y-87473370D01*
X65526620Y-87464626D01*
X65304803Y-87219888D01*
X65296959Y-87210330D01*
X65100197Y-86945027D01*
X65093327Y-86934746D01*
X64923513Y-86651429D01*
X64917684Y-86640524D01*
X64916462Y-86637939D01*
X64913912Y-86632548D01*
X74842001Y-86632548D01*
X74842001Y-87259669D01*
X74842371Y-87266490D01*
X74847895Y-87317352D01*
X74851521Y-87332604D01*
X74896676Y-87453054D01*
X74905214Y-87468649D01*
X74981715Y-87570724D01*
X74994276Y-87583285D01*
X75096351Y-87659786D01*
X75111946Y-87668324D01*
X75232394Y-87713478D01*
X75247649Y-87717105D01*
X75298514Y-87722631D01*
X75305328Y-87723000D01*
X75927885Y-87723000D01*
X75943124Y-87718525D01*
X75944329Y-87717135D01*
X75946000Y-87709452D01*
X75946000Y-86637115D01*
X75944659Y-86632548D01*
X76454000Y-86632548D01*
X76454000Y-87704884D01*
X76458475Y-87720123D01*
X76459865Y-87721328D01*
X76467548Y-87722999D01*
X77094669Y-87722999D01*
X77101490Y-87722629D01*
X77152352Y-87717105D01*
X77167604Y-87713479D01*
X77288054Y-87668324D01*
X77303649Y-87659786D01*
X77405724Y-87583285D01*
X77418285Y-87570724D01*
X77494786Y-87468649D01*
X77503324Y-87453054D01*
X77548478Y-87332606D01*
X77552105Y-87317351D01*
X77557631Y-87266486D01*
X77558000Y-87259672D01*
X77558000Y-86637115D01*
X77553525Y-86621876D01*
X77552135Y-86620671D01*
X77544452Y-86619000D01*
X76472115Y-86619000D01*
X76456876Y-86623475D01*
X76455671Y-86624865D01*
X76454000Y-86632548D01*
X75944659Y-86632548D01*
X75941525Y-86621876D01*
X75940135Y-86620671D01*
X75932452Y-86619000D01*
X74860116Y-86619000D01*
X74844877Y-86623475D01*
X74843672Y-86624865D01*
X74842001Y-86632548D01*
X64913912Y-86632548D01*
X64815706Y-86424908D01*
X64776459Y-86341927D01*
X64771727Y-86330503D01*
X64660449Y-86019501D01*
X64656860Y-86007669D01*
X64576600Y-85687257D01*
X64574188Y-85675129D01*
X64552307Y-85527617D01*
X64525722Y-85348392D01*
X64524511Y-85336094D01*
X64524489Y-85335635D01*
X64517913Y-85201784D01*
X64510110Y-85042938D01*
X64511457Y-85017376D01*
X64511805Y-85015143D01*
X64511805Y-85015139D01*
X64513186Y-85006270D01*
X64511830Y-84995896D01*
X64509064Y-84974749D01*
X64508000Y-84958411D01*
X64507999Y-62922928D01*
X72676500Y-62922928D01*
X72676500Y-63622072D01*
X72676837Y-63625318D01*
X72676837Y-63625322D01*
X72684990Y-63703895D01*
X72687293Y-63726093D01*
X72689474Y-63732629D01*
X72689474Y-63732631D01*
X72712809Y-63802573D01*
X72742346Y-63891107D01*
X72769283Y-63934637D01*
X72798592Y-63981999D01*
X72833884Y-64039031D01*
X72840788Y-64045923D01*
X72841589Y-64047387D01*
X72843611Y-64049938D01*
X72843174Y-64050284D01*
X72874866Y-64108204D01*
X72869863Y-64179024D01*
X72840944Y-64224110D01*
X72833071Y-64231997D01*
X72829231Y-64238227D01*
X72829230Y-64238228D01*
X72746364Y-64372662D01*
X72741791Y-64380080D01*
X72687026Y-64545191D01*
X72686326Y-64552027D01*
X72686325Y-64552030D01*
X72684709Y-64567802D01*
X72676500Y-64647928D01*
X72676500Y-65347072D01*
X72687293Y-65451093D01*
X72742346Y-65616107D01*
X72833884Y-65764031D01*
X72839066Y-65769204D01*
X72951816Y-65881758D01*
X72951821Y-65881762D01*
X72956997Y-65886929D01*
X72963227Y-65890769D01*
X72963228Y-65890770D01*
X72966614Y-65892857D01*
X72968441Y-65894886D01*
X72968973Y-65895307D01*
X72968901Y-65895398D01*
X73014108Y-65945628D01*
X73026500Y-66000118D01*
X73026500Y-66715036D01*
X73006498Y-66783157D01*
X72966804Y-66822179D01*
X72955969Y-66828884D01*
X72950796Y-66834066D01*
X72838242Y-66946816D01*
X72838238Y-66946821D01*
X72833071Y-66951997D01*
X72829231Y-66958227D01*
X72829230Y-66958228D01*
X72746364Y-67092662D01*
X72741791Y-67100080D01*
X72687026Y-67265191D01*
X72676500Y-67367928D01*
X72676500Y-67967072D01*
X72676837Y-67970318D01*
X72676837Y-67970322D01*
X72684921Y-68048231D01*
X72687293Y-68071093D01*
X72689474Y-68077629D01*
X72689474Y-68077631D01*
X72697748Y-68102430D01*
X72742346Y-68236107D01*
X72833884Y-68384031D01*
X72839066Y-68389204D01*
X72940786Y-68490747D01*
X72974865Y-68553030D01*
X72969862Y-68623850D01*
X72940941Y-68668937D01*
X72838246Y-68771812D01*
X72838242Y-68771817D01*
X72833071Y-68776997D01*
X72829231Y-68783227D01*
X72829230Y-68783228D01*
X72761093Y-68893767D01*
X72741791Y-68925080D01*
X72687026Y-69090191D01*
X72686326Y-69097027D01*
X72686325Y-69097030D01*
X72683541Y-69124203D01*
X72676500Y-69192928D01*
X72676500Y-69792072D01*
X72676837Y-69795318D01*
X72676837Y-69795322D01*
X72686019Y-69883812D01*
X72687293Y-69896093D01*
X72689474Y-69902629D01*
X72689474Y-69902631D01*
X72707661Y-69957144D01*
X72742346Y-70061107D01*
X72833884Y-70209031D01*
X72839066Y-70214204D01*
X72951816Y-70326758D01*
X72951821Y-70326762D01*
X72956997Y-70331929D01*
X72963227Y-70335769D01*
X72963228Y-70335770D01*
X73066804Y-70399615D01*
X73105080Y-70423209D01*
X73270191Y-70477974D01*
X73277027Y-70478674D01*
X73277030Y-70478675D01*
X73328526Y-70483951D01*
X73372928Y-70488500D01*
X73947072Y-70488500D01*
X73950318Y-70488163D01*
X73950322Y-70488163D01*
X74044235Y-70478419D01*
X74044239Y-70478418D01*
X74051093Y-70477707D01*
X74057629Y-70475526D01*
X74057631Y-70475526D01*
X74193243Y-70430282D01*
X74216107Y-70422654D01*
X74364031Y-70331116D01*
X74486929Y-70208003D01*
X74500564Y-70185884D01*
X74553336Y-70138391D01*
X74607824Y-70126000D01*
X74892906Y-70126000D01*
X74961027Y-70146002D01*
X74982001Y-70162905D01*
X75887878Y-71068782D01*
X75921904Y-71131094D01*
X75924092Y-71144703D01*
X75941458Y-71309928D01*
X76000473Y-71491556D01*
X76095960Y-71656944D01*
X76100378Y-71661851D01*
X76100379Y-71661852D01*
X76107895Y-71670199D01*
X76223747Y-71798866D01*
X76286515Y-71844470D01*
X76339447Y-71882927D01*
X76378248Y-71911118D01*
X76384276Y-71913802D01*
X76384278Y-71913803D01*
X76473900Y-71953705D01*
X76552712Y-71988794D01*
X76646112Y-72008647D01*
X76733056Y-72027128D01*
X76733061Y-72027128D01*
X76739513Y-72028500D01*
X76930487Y-72028500D01*
X76936939Y-72027128D01*
X76936944Y-72027128D01*
X77023888Y-72008647D01*
X77117288Y-71988794D01*
X77196100Y-71953705D01*
X77285722Y-71913803D01*
X77285724Y-71913802D01*
X77291752Y-71911118D01*
X77330554Y-71882927D01*
X77383485Y-71844470D01*
X77446253Y-71798866D01*
X77562105Y-71670199D01*
X77569621Y-71661852D01*
X77569622Y-71661851D01*
X77574040Y-71656944D01*
X77669527Y-71491556D01*
X77728542Y-71309928D01*
X77748504Y-71120000D01*
X77728542Y-70930072D01*
X77669527Y-70748444D01*
X77574040Y-70583056D01*
X77533047Y-70537528D01*
X77450675Y-70446045D01*
X77450674Y-70446044D01*
X77446253Y-70441134D01*
X77321816Y-70350725D01*
X77314002Y-70345048D01*
X79789000Y-70345048D01*
X79789000Y-70423766D01*
X79789337Y-70430282D01*
X79799075Y-70524132D01*
X79801968Y-70537528D01*
X79852488Y-70688953D01*
X79858653Y-70702115D01*
X79942426Y-70837492D01*
X79951460Y-70848890D01*
X80064129Y-70961363D01*
X80075540Y-70970375D01*
X80211063Y-71053912D01*
X80224241Y-71060056D01*
X80375766Y-71110315D01*
X80389132Y-71113181D01*
X80481770Y-71122672D01*
X80488185Y-71123000D01*
X80499885Y-71123000D01*
X80515124Y-71118525D01*
X80516329Y-71117135D01*
X80518000Y-71109452D01*
X80518000Y-70349615D01*
X80516659Y-70345048D01*
X81026000Y-70345048D01*
X81026000Y-71104885D01*
X81030475Y-71120124D01*
X81031865Y-71121329D01*
X81039548Y-71123000D01*
X81055766Y-71123000D01*
X81062282Y-71122663D01*
X81156132Y-71112925D01*
X81169528Y-71110032D01*
X81320953Y-71059512D01*
X81334115Y-71053347D01*
X81469492Y-70969574D01*
X81480890Y-70960540D01*
X81571766Y-70869506D01*
X81634049Y-70835427D01*
X81704869Y-70840430D01*
X81749957Y-70869351D01*
X81842129Y-70961363D01*
X81853540Y-70970375D01*
X81989063Y-71053912D01*
X82002241Y-71060056D01*
X82153766Y-71110315D01*
X82167132Y-71113181D01*
X82259770Y-71122672D01*
X82266185Y-71123000D01*
X82277885Y-71123000D01*
X82293124Y-71118525D01*
X82294329Y-71117135D01*
X82296000Y-71109452D01*
X82296000Y-70399615D01*
X82291525Y-70384376D01*
X82290135Y-70383171D01*
X82282452Y-70381500D01*
X81623905Y-70381500D01*
X81555784Y-70361498D01*
X81541393Y-70350725D01*
X81521135Y-70333171D01*
X81513452Y-70331500D01*
X81044115Y-70331500D01*
X81028876Y-70335975D01*
X81027671Y-70337365D01*
X81026000Y-70345048D01*
X80516659Y-70345048D01*
X80513525Y-70334376D01*
X80512135Y-70333171D01*
X80504452Y-70331500D01*
X79807115Y-70331500D01*
X79791876Y-70335975D01*
X79790671Y-70337365D01*
X79789000Y-70345048D01*
X77314002Y-70345048D01*
X77297094Y-70332763D01*
X77297093Y-70332762D01*
X77291752Y-70328882D01*
X77285724Y-70326198D01*
X77285722Y-70326197D01*
X77123319Y-70253891D01*
X77123318Y-70253891D01*
X77117288Y-70251206D01*
X77023888Y-70231353D01*
X76936944Y-70212872D01*
X76936939Y-70212872D01*
X76930487Y-70211500D01*
X76874594Y-70211500D01*
X76806473Y-70191498D01*
X76785499Y-70174595D01*
X76261634Y-69650729D01*
X75711152Y-69100247D01*
X75703612Y-69091961D01*
X75699500Y-69085482D01*
X75649848Y-69038856D01*
X75647007Y-69036102D01*
X75627270Y-69016365D01*
X75624073Y-69013885D01*
X75615051Y-69006180D01*
X75582821Y-68975914D01*
X75575875Y-68972095D01*
X75575872Y-68972093D01*
X75565066Y-68966152D01*
X75548547Y-68955301D01*
X75548083Y-68954941D01*
X75532541Y-68942886D01*
X75525272Y-68939741D01*
X75525268Y-68939738D01*
X75491963Y-68925326D01*
X75481313Y-68920109D01*
X75442560Y-68898805D01*
X75422937Y-68893767D01*
X75404234Y-68887363D01*
X75392920Y-68882467D01*
X75392919Y-68882467D01*
X75385645Y-68879319D01*
X75377822Y-68878080D01*
X75377812Y-68878077D01*
X75341976Y-68872401D01*
X75330356Y-68869995D01*
X75295211Y-68860972D01*
X75295210Y-68860972D01*
X75287530Y-68859000D01*
X75267276Y-68859000D01*
X75247565Y-68857449D01*
X75235386Y-68855520D01*
X75227557Y-68854280D01*
X75219665Y-68855026D01*
X75183539Y-68858441D01*
X75171681Y-68859000D01*
X74607699Y-68859000D01*
X74539578Y-68838998D01*
X74500554Y-68799301D01*
X74500513Y-68799235D01*
X74486116Y-68775969D01*
X74480934Y-68770796D01*
X74379214Y-68669253D01*
X74345135Y-68606970D01*
X74350138Y-68536150D01*
X74379059Y-68491063D01*
X74481754Y-68388188D01*
X74481758Y-68388183D01*
X74486929Y-68383003D01*
X74490770Y-68376772D01*
X74574369Y-68241150D01*
X74574370Y-68241148D01*
X74578209Y-68234920D01*
X74632974Y-68069809D01*
X74635292Y-68047190D01*
X74643172Y-67970271D01*
X74643500Y-67967072D01*
X74643500Y-67367928D01*
X74640538Y-67339376D01*
X74633419Y-67270765D01*
X74633418Y-67270761D01*
X74632707Y-67263907D01*
X74577654Y-67098893D01*
X74486116Y-66950969D01*
X74480934Y-66945796D01*
X74368184Y-66833242D01*
X74368179Y-66833238D01*
X74363003Y-66828071D01*
X74353386Y-66822143D01*
X74351559Y-66820114D01*
X74351027Y-66819693D01*
X74351099Y-66819602D01*
X74305892Y-66769372D01*
X74293500Y-66714882D01*
X74293500Y-65999964D01*
X74313502Y-65931843D01*
X74353196Y-65892821D01*
X74364031Y-65886116D01*
X74369204Y-65880934D01*
X74481758Y-65768184D01*
X74481762Y-65768179D01*
X74486929Y-65763003D01*
X74493596Y-65752187D01*
X74574369Y-65621150D01*
X74574370Y-65621148D01*
X74578209Y-65614920D01*
X74632974Y-65449809D01*
X74643500Y-65347072D01*
X74643500Y-64647928D01*
X74643163Y-64644678D01*
X74633419Y-64550765D01*
X74633418Y-64550761D01*
X74632707Y-64543907D01*
X74602434Y-64453166D01*
X74582267Y-64392721D01*
X74577654Y-64378893D01*
X74506877Y-64264518D01*
X74489969Y-64237195D01*
X74489968Y-64237194D01*
X74486116Y-64230969D01*
X74479212Y-64224077D01*
X74478411Y-64222613D01*
X74476389Y-64220062D01*
X74476826Y-64219716D01*
X74445134Y-64161796D01*
X74450137Y-64090976D01*
X74479056Y-64045890D01*
X74481757Y-64043184D01*
X74486929Y-64038003D01*
X74491107Y-64031226D01*
X74531384Y-63965884D01*
X74584156Y-63918391D01*
X74638644Y-63906000D01*
X76983733Y-63906000D01*
X76994916Y-63906527D01*
X77002409Y-63908202D01*
X77010335Y-63907953D01*
X77010336Y-63907953D01*
X77070486Y-63906062D01*
X77074445Y-63906000D01*
X77102356Y-63906000D01*
X77106291Y-63905503D01*
X77106356Y-63905495D01*
X77118193Y-63904562D01*
X77150451Y-63903548D01*
X77154470Y-63903422D01*
X77162389Y-63903173D01*
X77181843Y-63897521D01*
X77201200Y-63893513D01*
X77213430Y-63891968D01*
X77213431Y-63891968D01*
X77221297Y-63890974D01*
X77228668Y-63888055D01*
X77228670Y-63888055D01*
X77262412Y-63874696D01*
X77273642Y-63870851D01*
X77308483Y-63860729D01*
X77308484Y-63860729D01*
X77316093Y-63858518D01*
X77322912Y-63854485D01*
X77322917Y-63854483D01*
X77333528Y-63848207D01*
X77351276Y-63839512D01*
X77370117Y-63832052D01*
X77405887Y-63806064D01*
X77415807Y-63799548D01*
X77447035Y-63781080D01*
X77447038Y-63781078D01*
X77453862Y-63777042D01*
X77468183Y-63762721D01*
X77483217Y-63749880D01*
X77493194Y-63742631D01*
X77499607Y-63737972D01*
X77527798Y-63703895D01*
X77535788Y-63695116D01*
X78055499Y-63175405D01*
X78117811Y-63141379D01*
X78144594Y-63138500D01*
X78200487Y-63138500D01*
X78206939Y-63137128D01*
X78206944Y-63137128D01*
X78299001Y-63117560D01*
X78387288Y-63098794D01*
X78397420Y-63094283D01*
X78555722Y-63023803D01*
X78555724Y-63023802D01*
X78561752Y-63021118D01*
X78570004Y-63015123D01*
X78701301Y-62919729D01*
X78716253Y-62908866D01*
X78720668Y-62903962D01*
X78720672Y-62903959D01*
X78728900Y-62894821D01*
X78789345Y-62857581D01*
X78860329Y-62858933D01*
X78911631Y-62890036D01*
X80271348Y-64249753D01*
X80278888Y-64258039D01*
X80283000Y-64264518D01*
X80288777Y-64269943D01*
X80332651Y-64311143D01*
X80335493Y-64313898D01*
X80355230Y-64333635D01*
X80358427Y-64336115D01*
X80367447Y-64343818D01*
X80399679Y-64374086D01*
X80406625Y-64377905D01*
X80406628Y-64377907D01*
X80417434Y-64383848D01*
X80433953Y-64394699D01*
X80449959Y-64407114D01*
X80457228Y-64410259D01*
X80457232Y-64410262D01*
X80490537Y-64424674D01*
X80501187Y-64429891D01*
X80539940Y-64451195D01*
X80547615Y-64453166D01*
X80547616Y-64453166D01*
X80559562Y-64456233D01*
X80578267Y-64462637D01*
X80596855Y-64470681D01*
X80604678Y-64471920D01*
X80604688Y-64471923D01*
X80640524Y-64477599D01*
X80652144Y-64480005D01*
X80687289Y-64489028D01*
X80694970Y-64491000D01*
X80715224Y-64491000D01*
X80734934Y-64492551D01*
X80754943Y-64495720D01*
X80762835Y-64494974D01*
X80798961Y-64491559D01*
X80810819Y-64491000D01*
X81602301Y-64491000D01*
X81670422Y-64511002D01*
X81709445Y-64550698D01*
X81723884Y-64574031D01*
X81729066Y-64579204D01*
X81830786Y-64680747D01*
X81864865Y-64743030D01*
X81859862Y-64813850D01*
X81830941Y-64858937D01*
X81728246Y-64961812D01*
X81728242Y-64961817D01*
X81723071Y-64966997D01*
X81719231Y-64973227D01*
X81719230Y-64973228D01*
X81669091Y-65054569D01*
X81631791Y-65115080D01*
X81577026Y-65280191D01*
X81576326Y-65287027D01*
X81576325Y-65287030D01*
X81574285Y-65306944D01*
X81566500Y-65382928D01*
X81566500Y-65982072D01*
X81566837Y-65985318D01*
X81566837Y-65985322D01*
X81574079Y-66055115D01*
X81577293Y-66086093D01*
X81579474Y-66092629D01*
X81579474Y-66092631D01*
X81582530Y-66101791D01*
X81632346Y-66251107D01*
X81723884Y-66399031D01*
X81729066Y-66404204D01*
X81729070Y-66404209D01*
X81754597Y-66429692D01*
X81788676Y-66491974D01*
X81783673Y-66562795D01*
X81774699Y-66581861D01*
X81715473Y-66684444D01*
X81656458Y-66866072D01*
X81655768Y-66872633D01*
X81655768Y-66872635D01*
X81647535Y-66950969D01*
X81636496Y-67056000D01*
X81656458Y-67245928D01*
X81660597Y-67258665D01*
X81686123Y-67337227D01*
X81688151Y-67408194D01*
X81651488Y-67468992D01*
X81587776Y-67500318D01*
X81517242Y-67492225D01*
X81486764Y-67471722D01*
X81485929Y-67472780D01*
X81480183Y-67468242D01*
X81475003Y-67463071D01*
X81419430Y-67428815D01*
X81333150Y-67375631D01*
X81333148Y-67375630D01*
X81326920Y-67371791D01*
X81161809Y-67317026D01*
X81154973Y-67316326D01*
X81154970Y-67316325D01*
X81103474Y-67311049D01*
X81059072Y-67306500D01*
X80484928Y-67306500D01*
X80481682Y-67306837D01*
X80481678Y-67306837D01*
X80387765Y-67316581D01*
X80387761Y-67316582D01*
X80380907Y-67317293D01*
X80374371Y-67319474D01*
X80374369Y-67319474D01*
X80318328Y-67338171D01*
X80215893Y-67372346D01*
X80067969Y-67463884D01*
X80062796Y-67469066D01*
X79950242Y-67581816D01*
X79950238Y-67581821D01*
X79945071Y-67586997D01*
X79853791Y-67735080D01*
X79799026Y-67900191D01*
X79788500Y-68002928D01*
X79788500Y-68702072D01*
X79788837Y-68705318D01*
X79788837Y-68705322D01*
X79796921Y-68783228D01*
X79799293Y-68806093D01*
X79801474Y-68812629D01*
X79801474Y-68812631D01*
X79830224Y-68898805D01*
X79854346Y-68971107D01*
X79945884Y-69119031D01*
X79952965Y-69126099D01*
X79953139Y-69126273D01*
X79954105Y-69128038D01*
X79955613Y-69129941D01*
X79955287Y-69130199D01*
X79987219Y-69188554D01*
X79982218Y-69259375D01*
X79953292Y-69304470D01*
X79950636Y-69307131D01*
X79941625Y-69318540D01*
X79858088Y-69454063D01*
X79851944Y-69467241D01*
X79801685Y-69618766D01*
X79798819Y-69632132D01*
X79789328Y-69724770D01*
X79789000Y-69731185D01*
X79789000Y-69805385D01*
X79793475Y-69820624D01*
X79794865Y-69821829D01*
X79802548Y-69823500D01*
X81698095Y-69823500D01*
X81766216Y-69843502D01*
X81780607Y-69854275D01*
X81800865Y-69871829D01*
X81808548Y-69873500D01*
X82678000Y-69873500D01*
X82746121Y-69893502D01*
X82792614Y-69947158D01*
X82804000Y-69999500D01*
X82804000Y-71104885D01*
X82808475Y-71120124D01*
X82809865Y-71121329D01*
X82817548Y-71123000D01*
X82833766Y-71123000D01*
X82840282Y-71122663D01*
X82920496Y-71114340D01*
X82990318Y-71127205D01*
X83042100Y-71175776D01*
X83059500Y-71239667D01*
X83059500Y-76017405D01*
X83039498Y-76085526D01*
X83022595Y-76106500D01*
X76657345Y-82471750D01*
X76595033Y-82505776D01*
X76546154Y-82506702D01*
X76333373Y-82468800D01*
X76333367Y-82468799D01*
X76328284Y-82467894D01*
X76254452Y-82466992D01*
X76110081Y-82465228D01*
X76110079Y-82465228D01*
X76104911Y-82465165D01*
X75884091Y-82498955D01*
X75671756Y-82568357D01*
X75473607Y-82671507D01*
X75469474Y-82674610D01*
X75469471Y-82674612D01*
X75303305Y-82799373D01*
X75294965Y-82805635D01*
X75140629Y-82967138D01*
X75137715Y-82971410D01*
X75137714Y-82971411D01*
X75129620Y-82983277D01*
X75014743Y-83151680D01*
X74967715Y-83252993D01*
X74923013Y-83349297D01*
X74920688Y-83354305D01*
X74860989Y-83569570D01*
X74837251Y-83791695D01*
X74837548Y-83796848D01*
X74837548Y-83796851D01*
X74843011Y-83891590D01*
X74850110Y-84014715D01*
X74851247Y-84019761D01*
X74851248Y-84019767D01*
X74857836Y-84048998D01*
X74899222Y-84232639D01*
X74937461Y-84326811D01*
X74977262Y-84424829D01*
X74983266Y-84439616D01*
X75030734Y-84517077D01*
X75091163Y-84615688D01*
X75099987Y-84630088D01*
X75246250Y-84798938D01*
X75250225Y-84802238D01*
X75250231Y-84802244D01*
X75255425Y-84806556D01*
X75295059Y-84865460D01*
X75296555Y-84936441D01*
X75259439Y-84996962D01*
X75219168Y-85021480D01*
X75111946Y-85061676D01*
X75096351Y-85070214D01*
X74994276Y-85146715D01*
X74981715Y-85159276D01*
X74905214Y-85261351D01*
X74896676Y-85276946D01*
X74851522Y-85397394D01*
X74847895Y-85412649D01*
X74842369Y-85463514D01*
X74842000Y-85470328D01*
X74842000Y-86092885D01*
X74846475Y-86108124D01*
X74847865Y-86109329D01*
X74855548Y-86111000D01*
X77539884Y-86111000D01*
X77555123Y-86106525D01*
X77556328Y-86105135D01*
X77557999Y-86097452D01*
X77557999Y-85470331D01*
X77557629Y-85463510D01*
X77552105Y-85412648D01*
X77548479Y-85397396D01*
X77503324Y-85276946D01*
X77494786Y-85261351D01*
X77418285Y-85159276D01*
X77405724Y-85146715D01*
X77303649Y-85070214D01*
X77288054Y-85061676D01*
X77177813Y-85020348D01*
X77121049Y-84977706D01*
X77096349Y-84911145D01*
X77111557Y-84841796D01*
X77133104Y-84813115D01*
X77234430Y-84712144D01*
X77234440Y-84712132D01*
X77238096Y-84708489D01*
X77242661Y-84702137D01*
X77365435Y-84531277D01*
X77368453Y-84527077D01*
X77372926Y-84518028D01*
X77465136Y-84331453D01*
X77465137Y-84331451D01*
X77467430Y-84326811D01*
X77532370Y-84113069D01*
X77561529Y-83891590D01*
X77563156Y-83825000D01*
X77544852Y-83602361D01*
X77516821Y-83490765D01*
X77519625Y-83419823D01*
X77549930Y-83370974D01*
X83606405Y-77314499D01*
X83668717Y-77280473D01*
X83739532Y-77285538D01*
X83796368Y-77328085D01*
X83821179Y-77394605D01*
X83821500Y-77403594D01*
X83821500Y-78679406D01*
X83801498Y-78747527D01*
X83784595Y-78768501D01*
X80887747Y-81665348D01*
X80879461Y-81672888D01*
X80872982Y-81677000D01*
X80867557Y-81682777D01*
X80826357Y-81726651D01*
X80823602Y-81729493D01*
X80803865Y-81749230D01*
X80801385Y-81752427D01*
X80793682Y-81761447D01*
X80763414Y-81793679D01*
X80759595Y-81800625D01*
X80759593Y-81800628D01*
X80753652Y-81811434D01*
X80742801Y-81827953D01*
X80730386Y-81843959D01*
X80727241Y-81851228D01*
X80727238Y-81851232D01*
X80712826Y-81884537D01*
X80707609Y-81895187D01*
X80686305Y-81933940D01*
X80684334Y-81941615D01*
X80684334Y-81941616D01*
X80681267Y-81953562D01*
X80674863Y-81972266D01*
X80666819Y-81990855D01*
X80665580Y-81998678D01*
X80665577Y-81998688D01*
X80659901Y-82034524D01*
X80657495Y-82046144D01*
X80646500Y-82088970D01*
X80646500Y-82109224D01*
X80644949Y-82128934D01*
X80641780Y-82148943D01*
X80642526Y-82156835D01*
X80645941Y-82192961D01*
X80646500Y-82204819D01*
X80646500Y-85011233D01*
X80645973Y-85022416D01*
X80644298Y-85029909D01*
X80644547Y-85037835D01*
X80644547Y-85037836D01*
X80646438Y-85097986D01*
X80646500Y-85101945D01*
X80646500Y-85129856D01*
X80646997Y-85133790D01*
X80646997Y-85133791D01*
X80647005Y-85133856D01*
X80647938Y-85145693D01*
X80649327Y-85189889D01*
X80654978Y-85209339D01*
X80658987Y-85228700D01*
X80661526Y-85248797D01*
X80664445Y-85256168D01*
X80664445Y-85256170D01*
X80677804Y-85289912D01*
X80681649Y-85301142D01*
X80693982Y-85343593D01*
X80698015Y-85350412D01*
X80698017Y-85350417D01*
X80704293Y-85361028D01*
X80712988Y-85378776D01*
X80720448Y-85397617D01*
X80725110Y-85404033D01*
X80725110Y-85404034D01*
X80746436Y-85433387D01*
X80752952Y-85443307D01*
X80764903Y-85463514D01*
X80775458Y-85481362D01*
X80789779Y-85495683D01*
X80802619Y-85510716D01*
X80814528Y-85527107D01*
X80820634Y-85532158D01*
X80848605Y-85555298D01*
X80857384Y-85563288D01*
X82041343Y-86747247D01*
X82048887Y-86755537D01*
X82053000Y-86762018D01*
X82058777Y-86767443D01*
X82102667Y-86808658D01*
X82105509Y-86811413D01*
X82125230Y-86831134D01*
X82128425Y-86833612D01*
X82137447Y-86841318D01*
X82169679Y-86871586D01*
X82176628Y-86875406D01*
X82187432Y-86881346D01*
X82203956Y-86892199D01*
X82219959Y-86904613D01*
X82260543Y-86922176D01*
X82271173Y-86927383D01*
X82309940Y-86948695D01*
X82317617Y-86950666D01*
X82317622Y-86950668D01*
X82329558Y-86953732D01*
X82348266Y-86960137D01*
X82366855Y-86968181D01*
X82374683Y-86969421D01*
X82374690Y-86969423D01*
X82410524Y-86975099D01*
X82422144Y-86977505D01*
X82457289Y-86986528D01*
X82464970Y-86988500D01*
X82485224Y-86988500D01*
X82504934Y-86990051D01*
X82524943Y-86993220D01*
X82532832Y-86992474D01*
X82535686Y-86992564D01*
X82603144Y-87014697D01*
X82639159Y-87052667D01*
X82644875Y-87061994D01*
X82704987Y-87160088D01*
X82851250Y-87328938D01*
X83023126Y-87471632D01*
X83216000Y-87584338D01*
X83424692Y-87664030D01*
X83429760Y-87665061D01*
X83429763Y-87665062D01*
X83537017Y-87686883D01*
X83643597Y-87708567D01*
X83648772Y-87708757D01*
X83648774Y-87708757D01*
X83861673Y-87716564D01*
X83861677Y-87716564D01*
X83866837Y-87716753D01*
X83871957Y-87716097D01*
X83871959Y-87716097D01*
X84083288Y-87689025D01*
X84083289Y-87689025D01*
X84088416Y-87688368D01*
X84155226Y-87668324D01*
X84297429Y-87625661D01*
X84297434Y-87625659D01*
X84302384Y-87624174D01*
X84502994Y-87525896D01*
X84684860Y-87396173D01*
X84843096Y-87238489D01*
X84859758Y-87215302D01*
X84973453Y-87057077D01*
X84974776Y-87058028D01*
X85021645Y-87014857D01*
X85091580Y-87002625D01*
X85157026Y-87030144D01*
X85184875Y-87061994D01*
X85244987Y-87160088D01*
X85391250Y-87328938D01*
X85563126Y-87471632D01*
X85756000Y-87584338D01*
X85964692Y-87664030D01*
X85969760Y-87665061D01*
X85969763Y-87665062D01*
X86077017Y-87686883D01*
X86183597Y-87708567D01*
X86188772Y-87708757D01*
X86188774Y-87708757D01*
X86401673Y-87716564D01*
X86401677Y-87716564D01*
X86406837Y-87716753D01*
X86411957Y-87716097D01*
X86411959Y-87716097D01*
X86623288Y-87689025D01*
X86623289Y-87689025D01*
X86628416Y-87688368D01*
X86695226Y-87668324D01*
X86837429Y-87625661D01*
X86837434Y-87625659D01*
X86842384Y-87624174D01*
X87042994Y-87525896D01*
X87224860Y-87396173D01*
X87383096Y-87238489D01*
X87399758Y-87215302D01*
X87513453Y-87057077D01*
X87514776Y-87058028D01*
X87561645Y-87014857D01*
X87631580Y-87002625D01*
X87697026Y-87030144D01*
X87724875Y-87061994D01*
X87784987Y-87160088D01*
X87931250Y-87328938D01*
X88103126Y-87471632D01*
X88296000Y-87584338D01*
X88504692Y-87664030D01*
X88509760Y-87665061D01*
X88509763Y-87665062D01*
X88617017Y-87686883D01*
X88723597Y-87708567D01*
X88728772Y-87708757D01*
X88728774Y-87708757D01*
X88941673Y-87716564D01*
X88941677Y-87716564D01*
X88946837Y-87716753D01*
X88951957Y-87716097D01*
X88951959Y-87716097D01*
X89163288Y-87689025D01*
X89163289Y-87689025D01*
X89168416Y-87688368D01*
X89235226Y-87668324D01*
X89377429Y-87625661D01*
X89377434Y-87625659D01*
X89382384Y-87624174D01*
X89582994Y-87525896D01*
X89764860Y-87396173D01*
X89923096Y-87238489D01*
X89939758Y-87215302D01*
X90053453Y-87057077D01*
X90054776Y-87058028D01*
X90101645Y-87014857D01*
X90171580Y-87002625D01*
X90237026Y-87030144D01*
X90264875Y-87061994D01*
X90324987Y-87160088D01*
X90471250Y-87328938D01*
X90643126Y-87471632D01*
X90836000Y-87584338D01*
X91044692Y-87664030D01*
X91049760Y-87665061D01*
X91049763Y-87665062D01*
X91157017Y-87686883D01*
X91263597Y-87708567D01*
X91268772Y-87708757D01*
X91268774Y-87708757D01*
X91481673Y-87716564D01*
X91481677Y-87716564D01*
X91486837Y-87716753D01*
X91491957Y-87716097D01*
X91491959Y-87716097D01*
X91703288Y-87689025D01*
X91703289Y-87689025D01*
X91708416Y-87688368D01*
X91775226Y-87668324D01*
X91917429Y-87625661D01*
X91917434Y-87625659D01*
X91922384Y-87624174D01*
X92122994Y-87525896D01*
X92304860Y-87396173D01*
X92463096Y-87238489D01*
X92479758Y-87215302D01*
X92593453Y-87057077D01*
X92594776Y-87058028D01*
X92641645Y-87014857D01*
X92711580Y-87002625D01*
X92777026Y-87030144D01*
X92804875Y-87061994D01*
X92864987Y-87160088D01*
X93011250Y-87328938D01*
X93183126Y-87471632D01*
X93376000Y-87584338D01*
X93584692Y-87664030D01*
X93589760Y-87665061D01*
X93589763Y-87665062D01*
X93697017Y-87686883D01*
X93803597Y-87708567D01*
X93808772Y-87708757D01*
X93808774Y-87708757D01*
X94021673Y-87716564D01*
X94021677Y-87716564D01*
X94026837Y-87716753D01*
X94031957Y-87716097D01*
X94031959Y-87716097D01*
X94243288Y-87689025D01*
X94243289Y-87689025D01*
X94248416Y-87688368D01*
X94315226Y-87668324D01*
X94457429Y-87625661D01*
X94457434Y-87625659D01*
X94462384Y-87624174D01*
X94662994Y-87525896D01*
X94844860Y-87396173D01*
X95003096Y-87238489D01*
X95019758Y-87215302D01*
X95133453Y-87057077D01*
X95134776Y-87058028D01*
X95181645Y-87014857D01*
X95251580Y-87002625D01*
X95317026Y-87030144D01*
X95344875Y-87061994D01*
X95404987Y-87160088D01*
X95551250Y-87328938D01*
X95723126Y-87471632D01*
X95916000Y-87584338D01*
X96124692Y-87664030D01*
X96129760Y-87665061D01*
X96129763Y-87665062D01*
X96237017Y-87686883D01*
X96343597Y-87708567D01*
X96348772Y-87708757D01*
X96348774Y-87708757D01*
X96561673Y-87716564D01*
X96561677Y-87716564D01*
X96566837Y-87716753D01*
X96571957Y-87716097D01*
X96571959Y-87716097D01*
X96783288Y-87689025D01*
X96783289Y-87689025D01*
X96788416Y-87688368D01*
X96855226Y-87668324D01*
X96997429Y-87625661D01*
X96997434Y-87625659D01*
X97002384Y-87624174D01*
X97202994Y-87525896D01*
X97384860Y-87396173D01*
X97543096Y-87238489D01*
X97559758Y-87215302D01*
X97673453Y-87057077D01*
X97674776Y-87058028D01*
X97721645Y-87014857D01*
X97791580Y-87002625D01*
X97857026Y-87030144D01*
X97884875Y-87061994D01*
X97944987Y-87160088D01*
X98091250Y-87328938D01*
X98263126Y-87471632D01*
X98456000Y-87584338D01*
X98664692Y-87664030D01*
X98669760Y-87665061D01*
X98669763Y-87665062D01*
X98777017Y-87686883D01*
X98883597Y-87708567D01*
X98888772Y-87708757D01*
X98888774Y-87708757D01*
X99101673Y-87716564D01*
X99101677Y-87716564D01*
X99106837Y-87716753D01*
X99111957Y-87716097D01*
X99111959Y-87716097D01*
X99323288Y-87689025D01*
X99323289Y-87689025D01*
X99328416Y-87688368D01*
X99395226Y-87668324D01*
X99537429Y-87625661D01*
X99537434Y-87625659D01*
X99542384Y-87624174D01*
X99742994Y-87525896D01*
X99924860Y-87396173D01*
X100083096Y-87238489D01*
X100099758Y-87215302D01*
X100213453Y-87057077D01*
X100214776Y-87058028D01*
X100261645Y-87014857D01*
X100331580Y-87002625D01*
X100397026Y-87030144D01*
X100424875Y-87061994D01*
X100484987Y-87160088D01*
X100631250Y-87328938D01*
X100803126Y-87471632D01*
X100996000Y-87584338D01*
X101204692Y-87664030D01*
X101209760Y-87665061D01*
X101209763Y-87665062D01*
X101317017Y-87686883D01*
X101423597Y-87708567D01*
X101428772Y-87708757D01*
X101428774Y-87708757D01*
X101641673Y-87716564D01*
X101641677Y-87716564D01*
X101646837Y-87716753D01*
X101651957Y-87716097D01*
X101651959Y-87716097D01*
X101863288Y-87689025D01*
X101863289Y-87689025D01*
X101868416Y-87688368D01*
X101935226Y-87668324D01*
X102077429Y-87625661D01*
X102077434Y-87625659D01*
X102082384Y-87624174D01*
X102282994Y-87525896D01*
X102464860Y-87396173D01*
X102623096Y-87238489D01*
X102639758Y-87215302D01*
X102753453Y-87057077D01*
X102754776Y-87058028D01*
X102801645Y-87014857D01*
X102871580Y-87002625D01*
X102937026Y-87030144D01*
X102964875Y-87061994D01*
X103024987Y-87160088D01*
X103171250Y-87328938D01*
X103343126Y-87471632D01*
X103536000Y-87584338D01*
X103744692Y-87664030D01*
X103749760Y-87665061D01*
X103749763Y-87665062D01*
X103857017Y-87686883D01*
X103963597Y-87708567D01*
X103968772Y-87708757D01*
X103968774Y-87708757D01*
X104181673Y-87716564D01*
X104181677Y-87716564D01*
X104186837Y-87716753D01*
X104191957Y-87716097D01*
X104191959Y-87716097D01*
X104403288Y-87689025D01*
X104403289Y-87689025D01*
X104408416Y-87688368D01*
X104475226Y-87668324D01*
X104617429Y-87625661D01*
X104617434Y-87625659D01*
X104622384Y-87624174D01*
X104822994Y-87525896D01*
X105004860Y-87396173D01*
X105163096Y-87238489D01*
X105179758Y-87215302D01*
X105293453Y-87057077D01*
X105294776Y-87058028D01*
X105341645Y-87014857D01*
X105411580Y-87002625D01*
X105477026Y-87030144D01*
X105504875Y-87061994D01*
X105564987Y-87160088D01*
X105711250Y-87328938D01*
X105883126Y-87471632D01*
X106076000Y-87584338D01*
X106284692Y-87664030D01*
X106289760Y-87665061D01*
X106289763Y-87665062D01*
X106397017Y-87686883D01*
X106503597Y-87708567D01*
X106508772Y-87708757D01*
X106508774Y-87708757D01*
X106721673Y-87716564D01*
X106721677Y-87716564D01*
X106726837Y-87716753D01*
X106731957Y-87716097D01*
X106731959Y-87716097D01*
X106943288Y-87689025D01*
X106943289Y-87689025D01*
X106948416Y-87688368D01*
X107015226Y-87668324D01*
X107157429Y-87625661D01*
X107157434Y-87625659D01*
X107162384Y-87624174D01*
X107362994Y-87525896D01*
X107544860Y-87396173D01*
X107703096Y-87238489D01*
X107719758Y-87215302D01*
X107833453Y-87057077D01*
X107834776Y-87058028D01*
X107881645Y-87014857D01*
X107951580Y-87002625D01*
X108017026Y-87030144D01*
X108044875Y-87061994D01*
X108104987Y-87160088D01*
X108251250Y-87328938D01*
X108423126Y-87471632D01*
X108616000Y-87584338D01*
X108824692Y-87664030D01*
X108829760Y-87665061D01*
X108829763Y-87665062D01*
X108937017Y-87686883D01*
X109043597Y-87708567D01*
X109048772Y-87708757D01*
X109048774Y-87708757D01*
X109261673Y-87716564D01*
X109261677Y-87716564D01*
X109266837Y-87716753D01*
X109271957Y-87716097D01*
X109271959Y-87716097D01*
X109483288Y-87689025D01*
X109483289Y-87689025D01*
X109488416Y-87688368D01*
X109555226Y-87668324D01*
X109697429Y-87625661D01*
X109697434Y-87625659D01*
X109702384Y-87624174D01*
X109902994Y-87525896D01*
X110084860Y-87396173D01*
X110243096Y-87238489D01*
X110259758Y-87215302D01*
X110373453Y-87057077D01*
X110374776Y-87058028D01*
X110421645Y-87014857D01*
X110491580Y-87002625D01*
X110557026Y-87030144D01*
X110584875Y-87061994D01*
X110644987Y-87160088D01*
X110791250Y-87328938D01*
X110963126Y-87471632D01*
X111156000Y-87584338D01*
X111364692Y-87664030D01*
X111369760Y-87665061D01*
X111369763Y-87665062D01*
X111477017Y-87686883D01*
X111583597Y-87708567D01*
X111588772Y-87708757D01*
X111588774Y-87708757D01*
X111801673Y-87716564D01*
X111801677Y-87716564D01*
X111806837Y-87716753D01*
X111811957Y-87716097D01*
X111811959Y-87716097D01*
X112023288Y-87689025D01*
X112023289Y-87689025D01*
X112028416Y-87688368D01*
X112095226Y-87668324D01*
X112237429Y-87625661D01*
X112237434Y-87625659D01*
X112242384Y-87624174D01*
X112442994Y-87525896D01*
X112624860Y-87396173D01*
X112783096Y-87238489D01*
X112799758Y-87215302D01*
X112913453Y-87057077D01*
X112914776Y-87058028D01*
X112961645Y-87014857D01*
X113031580Y-87002625D01*
X113097026Y-87030144D01*
X113124875Y-87061994D01*
X113184987Y-87160088D01*
X113331250Y-87328938D01*
X113503126Y-87471632D01*
X113696000Y-87584338D01*
X113904692Y-87664030D01*
X113909760Y-87665061D01*
X113909763Y-87665062D01*
X114017017Y-87686883D01*
X114123597Y-87708567D01*
X114128772Y-87708757D01*
X114128774Y-87708757D01*
X114341673Y-87716564D01*
X114341677Y-87716564D01*
X114346837Y-87716753D01*
X114351957Y-87716097D01*
X114351959Y-87716097D01*
X114563288Y-87689025D01*
X114563289Y-87689025D01*
X114568416Y-87688368D01*
X114635226Y-87668324D01*
X114777429Y-87625661D01*
X114777434Y-87625659D01*
X114782384Y-87624174D01*
X114982994Y-87525896D01*
X115164860Y-87396173D01*
X115323096Y-87238489D01*
X115339758Y-87215302D01*
X115450435Y-87061277D01*
X115453453Y-87057077D01*
X115474320Y-87014857D01*
X115550136Y-86861453D01*
X115550137Y-86861451D01*
X115552430Y-86856811D01*
X115617370Y-86643069D01*
X115646529Y-86421590D01*
X115648156Y-86355000D01*
X115629852Y-86132361D01*
X115575431Y-85915702D01*
X115486354Y-85710840D01*
X115410632Y-85593791D01*
X115367822Y-85527617D01*
X115367820Y-85527614D01*
X115365014Y-85523277D01*
X115361538Y-85519457D01*
X115361533Y-85519450D01*
X115217435Y-85361088D01*
X115186383Y-85297242D01*
X115194779Y-85226744D01*
X115239956Y-85171976D01*
X115266400Y-85158307D01*
X115373052Y-85118325D01*
X115388649Y-85109786D01*
X115490724Y-85033285D01*
X115503285Y-85020724D01*
X115579786Y-84918649D01*
X115588324Y-84903054D01*
X115633478Y-84782606D01*
X115637105Y-84767351D01*
X115642631Y-84716486D01*
X115643000Y-84709672D01*
X115643000Y-84087115D01*
X115638525Y-84071876D01*
X115637135Y-84070671D01*
X115629452Y-84069000D01*
X114157000Y-84069000D01*
X114088879Y-84048998D01*
X114042386Y-83995342D01*
X114031000Y-83943000D01*
X114031000Y-82475116D01*
X114029659Y-82470548D01*
X114539000Y-82470548D01*
X114539000Y-83542885D01*
X114543475Y-83558124D01*
X114544865Y-83559329D01*
X114552548Y-83561000D01*
X115624884Y-83561000D01*
X115640123Y-83556525D01*
X115641328Y-83555135D01*
X115642999Y-83547452D01*
X115642999Y-82920331D01*
X115642629Y-82913510D01*
X115637105Y-82862648D01*
X115633479Y-82847396D01*
X115588324Y-82726946D01*
X115579786Y-82711351D01*
X115503285Y-82609276D01*
X115490724Y-82596715D01*
X115388649Y-82520214D01*
X115373054Y-82511676D01*
X115252606Y-82466522D01*
X115237351Y-82462895D01*
X115186486Y-82457369D01*
X115179672Y-82457000D01*
X114557115Y-82457000D01*
X114541876Y-82461475D01*
X114540671Y-82462865D01*
X114539000Y-82470548D01*
X114029659Y-82470548D01*
X114026525Y-82459877D01*
X114025135Y-82458672D01*
X114017452Y-82457001D01*
X113390331Y-82457001D01*
X113383510Y-82457371D01*
X113332648Y-82462895D01*
X113317396Y-82466521D01*
X113196946Y-82511676D01*
X113181351Y-82520214D01*
X113079276Y-82596715D01*
X113066715Y-82609276D01*
X112990214Y-82711351D01*
X112981676Y-82726946D01*
X112940297Y-82837322D01*
X112897655Y-82894087D01*
X112831093Y-82918786D01*
X112761744Y-82903578D01*
X112729121Y-82877891D01*
X112678151Y-82821876D01*
X112678145Y-82821870D01*
X112674670Y-82818051D01*
X112670619Y-82814852D01*
X112670615Y-82814848D01*
X112503414Y-82682800D01*
X112503410Y-82682798D01*
X112499359Y-82679598D01*
X112480375Y-82669118D01*
X112371970Y-82609276D01*
X112303789Y-82571638D01*
X112298920Y-82569914D01*
X112298916Y-82569912D01*
X112098087Y-82498795D01*
X112098083Y-82498794D01*
X112093212Y-82497069D01*
X112088119Y-82496162D01*
X112088116Y-82496161D01*
X111878373Y-82458800D01*
X111878367Y-82458799D01*
X111873284Y-82457894D01*
X111799452Y-82456992D01*
X111655081Y-82455228D01*
X111655079Y-82455228D01*
X111649911Y-82455165D01*
X111429091Y-82488955D01*
X111216756Y-82558357D01*
X111018607Y-82661507D01*
X111014474Y-82664610D01*
X111014471Y-82664612D01*
X110931450Y-82726946D01*
X110839965Y-82795635D01*
X110685629Y-82957138D01*
X110578201Y-83114621D01*
X110523293Y-83159621D01*
X110452768Y-83167792D01*
X110389021Y-83136538D01*
X110368324Y-83112054D01*
X110287822Y-82987617D01*
X110287820Y-82987614D01*
X110285014Y-82983277D01*
X110134670Y-82818051D01*
X110130619Y-82814852D01*
X110130615Y-82814848D01*
X109963414Y-82682800D01*
X109963410Y-82682798D01*
X109959359Y-82679598D01*
X109940375Y-82669118D01*
X109831970Y-82609276D01*
X109763789Y-82571638D01*
X109758920Y-82569914D01*
X109758916Y-82569912D01*
X109558087Y-82498795D01*
X109558083Y-82498794D01*
X109553212Y-82497069D01*
X109548119Y-82496162D01*
X109548116Y-82496161D01*
X109338373Y-82458800D01*
X109338367Y-82458799D01*
X109333284Y-82457894D01*
X109259452Y-82456992D01*
X109115081Y-82455228D01*
X109115079Y-82455228D01*
X109109911Y-82455165D01*
X108889091Y-82488955D01*
X108676756Y-82558357D01*
X108478607Y-82661507D01*
X108474474Y-82664610D01*
X108474471Y-82664612D01*
X108391450Y-82726946D01*
X108299965Y-82795635D01*
X108145629Y-82957138D01*
X108038201Y-83114621D01*
X107983293Y-83159621D01*
X107912768Y-83167792D01*
X107849021Y-83136538D01*
X107828324Y-83112054D01*
X107747822Y-82987617D01*
X107747820Y-82987614D01*
X107745014Y-82983277D01*
X107594670Y-82818051D01*
X107590619Y-82814852D01*
X107590615Y-82814848D01*
X107423414Y-82682800D01*
X107423410Y-82682798D01*
X107419359Y-82679598D01*
X107400375Y-82669118D01*
X107291970Y-82609276D01*
X107223789Y-82571638D01*
X107218920Y-82569914D01*
X107218916Y-82569912D01*
X107018087Y-82498795D01*
X107018083Y-82498794D01*
X107013212Y-82497069D01*
X107008119Y-82496162D01*
X107008116Y-82496161D01*
X106798373Y-82458800D01*
X106798367Y-82458799D01*
X106793284Y-82457894D01*
X106719452Y-82456992D01*
X106575081Y-82455228D01*
X106575079Y-82455228D01*
X106569911Y-82455165D01*
X106349091Y-82488955D01*
X106136756Y-82558357D01*
X105938607Y-82661507D01*
X105934474Y-82664610D01*
X105934471Y-82664612D01*
X105851450Y-82726946D01*
X105759965Y-82795635D01*
X105605629Y-82957138D01*
X105498201Y-83114621D01*
X105443293Y-83159621D01*
X105372768Y-83167792D01*
X105309021Y-83136538D01*
X105288324Y-83112054D01*
X105207822Y-82987617D01*
X105207820Y-82987614D01*
X105205014Y-82983277D01*
X105054670Y-82818051D01*
X105050619Y-82814852D01*
X105050615Y-82814848D01*
X104883414Y-82682800D01*
X104883410Y-82682798D01*
X104879359Y-82679598D01*
X104860375Y-82669118D01*
X104751970Y-82609276D01*
X104683789Y-82571638D01*
X104678920Y-82569914D01*
X104678916Y-82569912D01*
X104478087Y-82498795D01*
X104478083Y-82498794D01*
X104473212Y-82497069D01*
X104468119Y-82496162D01*
X104468116Y-82496161D01*
X104258373Y-82458800D01*
X104258367Y-82458799D01*
X104253284Y-82457894D01*
X104179452Y-82456992D01*
X104035081Y-82455228D01*
X104035079Y-82455228D01*
X104029911Y-82455165D01*
X103809091Y-82488955D01*
X103596756Y-82558357D01*
X103398607Y-82661507D01*
X103394474Y-82664610D01*
X103394471Y-82664612D01*
X103311450Y-82726946D01*
X103219965Y-82795635D01*
X103065629Y-82957138D01*
X102958201Y-83114621D01*
X102903293Y-83159621D01*
X102832768Y-83167792D01*
X102769021Y-83136538D01*
X102748324Y-83112054D01*
X102667822Y-82987617D01*
X102667820Y-82987614D01*
X102665014Y-82983277D01*
X102514670Y-82818051D01*
X102510619Y-82814852D01*
X102510615Y-82814848D01*
X102343414Y-82682800D01*
X102343410Y-82682798D01*
X102339359Y-82679598D01*
X102320375Y-82669118D01*
X102211970Y-82609276D01*
X102143789Y-82571638D01*
X102138920Y-82569914D01*
X102138916Y-82569912D01*
X101938087Y-82498795D01*
X101938083Y-82498794D01*
X101933212Y-82497069D01*
X101928119Y-82496162D01*
X101928116Y-82496161D01*
X101718373Y-82458800D01*
X101718367Y-82458799D01*
X101713284Y-82457894D01*
X101639452Y-82456992D01*
X101495081Y-82455228D01*
X101495079Y-82455228D01*
X101489911Y-82455165D01*
X101269091Y-82488955D01*
X101056756Y-82558357D01*
X100858607Y-82661507D01*
X100854474Y-82664610D01*
X100854471Y-82664612D01*
X100771450Y-82726946D01*
X100679965Y-82795635D01*
X100525629Y-82957138D01*
X100418201Y-83114621D01*
X100363293Y-83159621D01*
X100292768Y-83167792D01*
X100229021Y-83136538D01*
X100208324Y-83112054D01*
X100127822Y-82987617D01*
X100127820Y-82987614D01*
X100125014Y-82983277D01*
X99974670Y-82818051D01*
X99970619Y-82814852D01*
X99970615Y-82814848D01*
X99803414Y-82682800D01*
X99803410Y-82682798D01*
X99799359Y-82679598D01*
X99780375Y-82669118D01*
X99671970Y-82609276D01*
X99603789Y-82571638D01*
X99598920Y-82569914D01*
X99598916Y-82569912D01*
X99398087Y-82498795D01*
X99398083Y-82498794D01*
X99393212Y-82497069D01*
X99388119Y-82496162D01*
X99388116Y-82496161D01*
X99178373Y-82458800D01*
X99178367Y-82458799D01*
X99173284Y-82457894D01*
X99099452Y-82456992D01*
X98955081Y-82455228D01*
X98955079Y-82455228D01*
X98949911Y-82455165D01*
X98729091Y-82488955D01*
X98516756Y-82558357D01*
X98318607Y-82661507D01*
X98314474Y-82664610D01*
X98314471Y-82664612D01*
X98231450Y-82726946D01*
X98139965Y-82795635D01*
X97985629Y-82957138D01*
X97878201Y-83114621D01*
X97823293Y-83159621D01*
X97752768Y-83167792D01*
X97689021Y-83136538D01*
X97668324Y-83112054D01*
X97587822Y-82987617D01*
X97587820Y-82987614D01*
X97585014Y-82983277D01*
X97434670Y-82818051D01*
X97430619Y-82814852D01*
X97430615Y-82814848D01*
X97263414Y-82682800D01*
X97263410Y-82682798D01*
X97259359Y-82679598D01*
X97240375Y-82669118D01*
X97131970Y-82609276D01*
X97063789Y-82571638D01*
X97058920Y-82569914D01*
X97058916Y-82569912D01*
X96858087Y-82498795D01*
X96858083Y-82498794D01*
X96853212Y-82497069D01*
X96848119Y-82496162D01*
X96848116Y-82496161D01*
X96638373Y-82458800D01*
X96638367Y-82458799D01*
X96633284Y-82457894D01*
X96559452Y-82456992D01*
X96415081Y-82455228D01*
X96415079Y-82455228D01*
X96409911Y-82455165D01*
X96189091Y-82488955D01*
X95976756Y-82558357D01*
X95778607Y-82661507D01*
X95774474Y-82664610D01*
X95774471Y-82664612D01*
X95691450Y-82726946D01*
X95599965Y-82795635D01*
X95445629Y-82957138D01*
X95338201Y-83114621D01*
X95283293Y-83159621D01*
X95212768Y-83167792D01*
X95149021Y-83136538D01*
X95128324Y-83112054D01*
X95047822Y-82987617D01*
X95047820Y-82987614D01*
X95045014Y-82983277D01*
X94894670Y-82818051D01*
X94890619Y-82814852D01*
X94890615Y-82814848D01*
X94723414Y-82682800D01*
X94723410Y-82682798D01*
X94719359Y-82679598D01*
X94700375Y-82669118D01*
X94591970Y-82609276D01*
X94523789Y-82571638D01*
X94518920Y-82569914D01*
X94518916Y-82569912D01*
X94318087Y-82498795D01*
X94318083Y-82498794D01*
X94313212Y-82497069D01*
X94308119Y-82496162D01*
X94308116Y-82496161D01*
X94098373Y-82458800D01*
X94098367Y-82458799D01*
X94093284Y-82457894D01*
X94019452Y-82456992D01*
X93875081Y-82455228D01*
X93875079Y-82455228D01*
X93869911Y-82455165D01*
X93649091Y-82488955D01*
X93436756Y-82558357D01*
X93238607Y-82661507D01*
X93234474Y-82664610D01*
X93234471Y-82664612D01*
X93151450Y-82726946D01*
X93059965Y-82795635D01*
X92905629Y-82957138D01*
X92798201Y-83114621D01*
X92743293Y-83159621D01*
X92672768Y-83167792D01*
X92609021Y-83136538D01*
X92588324Y-83112054D01*
X92507822Y-82987617D01*
X92507820Y-82987614D01*
X92505014Y-82983277D01*
X92354670Y-82818051D01*
X92350619Y-82814852D01*
X92350615Y-82814848D01*
X92183414Y-82682800D01*
X92183410Y-82682798D01*
X92179359Y-82679598D01*
X92160375Y-82669118D01*
X92051970Y-82609276D01*
X91983789Y-82571638D01*
X91978920Y-82569914D01*
X91978916Y-82569912D01*
X91778087Y-82498795D01*
X91778083Y-82498794D01*
X91773212Y-82497069D01*
X91768119Y-82496162D01*
X91768116Y-82496161D01*
X91558373Y-82458800D01*
X91558367Y-82458799D01*
X91553284Y-82457894D01*
X91479452Y-82456992D01*
X91335081Y-82455228D01*
X91335079Y-82455228D01*
X91329911Y-82455165D01*
X91109091Y-82488955D01*
X90896756Y-82558357D01*
X90698607Y-82661507D01*
X90694474Y-82664610D01*
X90694471Y-82664612D01*
X90611450Y-82726946D01*
X90519965Y-82795635D01*
X90365629Y-82957138D01*
X90258201Y-83114621D01*
X90203293Y-83159621D01*
X90132768Y-83167792D01*
X90069021Y-83136538D01*
X90048324Y-83112054D01*
X89967822Y-82987617D01*
X89967820Y-82987614D01*
X89965014Y-82983277D01*
X89814670Y-82818051D01*
X89810619Y-82814852D01*
X89810615Y-82814848D01*
X89643414Y-82682800D01*
X89643410Y-82682798D01*
X89639359Y-82679598D01*
X89620375Y-82669118D01*
X89511970Y-82609276D01*
X89443789Y-82571638D01*
X89438920Y-82569914D01*
X89438916Y-82569912D01*
X89238087Y-82498795D01*
X89238083Y-82498794D01*
X89233212Y-82497069D01*
X89228119Y-82496162D01*
X89228116Y-82496161D01*
X89018373Y-82458800D01*
X89018367Y-82458799D01*
X89013284Y-82457894D01*
X88939452Y-82456992D01*
X88795081Y-82455228D01*
X88795079Y-82455228D01*
X88789911Y-82455165D01*
X88569091Y-82488955D01*
X88356756Y-82558357D01*
X88158607Y-82661507D01*
X88154474Y-82664610D01*
X88154471Y-82664612D01*
X88071450Y-82726946D01*
X87979965Y-82795635D01*
X87825629Y-82957138D01*
X87718201Y-83114621D01*
X87663293Y-83159621D01*
X87592768Y-83167792D01*
X87529021Y-83136538D01*
X87508324Y-83112054D01*
X87427822Y-82987617D01*
X87427820Y-82987614D01*
X87425014Y-82983277D01*
X87274670Y-82818051D01*
X87270619Y-82814852D01*
X87270615Y-82814848D01*
X87103414Y-82682800D01*
X87103410Y-82682798D01*
X87099359Y-82679598D01*
X87080375Y-82669118D01*
X86971970Y-82609276D01*
X86903789Y-82571638D01*
X86898920Y-82569914D01*
X86898916Y-82569912D01*
X86698087Y-82498795D01*
X86698083Y-82498794D01*
X86693212Y-82497069D01*
X86688119Y-82496162D01*
X86688116Y-82496161D01*
X86478373Y-82458800D01*
X86478367Y-82458799D01*
X86473284Y-82457894D01*
X86399452Y-82456992D01*
X86255081Y-82455228D01*
X86255079Y-82455228D01*
X86249911Y-82455165D01*
X86029091Y-82488955D01*
X85816756Y-82558357D01*
X85618607Y-82661507D01*
X85614474Y-82664610D01*
X85614471Y-82664612D01*
X85531450Y-82726946D01*
X85439965Y-82795635D01*
X85285629Y-82957138D01*
X85178201Y-83114621D01*
X85123293Y-83159621D01*
X85052768Y-83167792D01*
X84989021Y-83136538D01*
X84968324Y-83112054D01*
X84887822Y-82987617D01*
X84887820Y-82987614D01*
X84885014Y-82983277D01*
X84734670Y-82818051D01*
X84730619Y-82814852D01*
X84730615Y-82814848D01*
X84563414Y-82682800D01*
X84563410Y-82682798D01*
X84559359Y-82679598D01*
X84540375Y-82669118D01*
X84431970Y-82609276D01*
X84363789Y-82571638D01*
X84358920Y-82569914D01*
X84358916Y-82569912D01*
X84158087Y-82498795D01*
X84158083Y-82498794D01*
X84153212Y-82497069D01*
X84148119Y-82496162D01*
X84148116Y-82496161D01*
X83938373Y-82458800D01*
X83938367Y-82458799D01*
X83933284Y-82457894D01*
X83859452Y-82456992D01*
X83715081Y-82455228D01*
X83715079Y-82455228D01*
X83709911Y-82455165D01*
X83489091Y-82488955D01*
X83276756Y-82558357D01*
X83078607Y-82661507D01*
X83074474Y-82664610D01*
X83074471Y-82664612D01*
X82991450Y-82726946D01*
X82899965Y-82795635D01*
X82745629Y-82957138D01*
X82742720Y-82961403D01*
X82742714Y-82961411D01*
X82730404Y-82979457D01*
X82619743Y-83141680D01*
X82525688Y-83344305D01*
X82465989Y-83559570D01*
X82442251Y-83781695D01*
X82442548Y-83786848D01*
X82442548Y-83786851D01*
X82444748Y-83825000D01*
X82455110Y-84004715D01*
X82456247Y-84009761D01*
X82456248Y-84009767D01*
X82473680Y-84087115D01*
X82504222Y-84222639D01*
X82588266Y-84429616D01*
X82639942Y-84513944D01*
X82702291Y-84615688D01*
X82704987Y-84620088D01*
X82851250Y-84788938D01*
X83023126Y-84931632D01*
X83031356Y-84936441D01*
X83096445Y-84974476D01*
X83145169Y-85026114D01*
X83158240Y-85095897D01*
X83131509Y-85161669D01*
X83091055Y-85195027D01*
X83078607Y-85201507D01*
X83074474Y-85204610D01*
X83074471Y-85204612D01*
X82945905Y-85301142D01*
X82899965Y-85335635D01*
X82755228Y-85487093D01*
X82693706Y-85522522D01*
X82622793Y-85519065D01*
X82575041Y-85489136D01*
X81950405Y-84864500D01*
X81916379Y-84802188D01*
X81913500Y-84775405D01*
X81913500Y-82483594D01*
X81933502Y-82415473D01*
X81950405Y-82394499D01*
X84847253Y-79497652D01*
X84855539Y-79490112D01*
X84862018Y-79486000D01*
X84908644Y-79436348D01*
X84911398Y-79433507D01*
X84931135Y-79413770D01*
X84933615Y-79410573D01*
X84941320Y-79401551D01*
X84966159Y-79375100D01*
X84971586Y-79369321D01*
X84975405Y-79362375D01*
X84975407Y-79362372D01*
X84981348Y-79351566D01*
X84992199Y-79335047D01*
X84999758Y-79325301D01*
X85004614Y-79319041D01*
X85007759Y-79311772D01*
X85007762Y-79311768D01*
X85022174Y-79278463D01*
X85027391Y-79267813D01*
X85048695Y-79229060D01*
X85053733Y-79209437D01*
X85060137Y-79190734D01*
X85065033Y-79179420D01*
X85065033Y-79179419D01*
X85068181Y-79172145D01*
X85069420Y-79164322D01*
X85069423Y-79164312D01*
X85075099Y-79128476D01*
X85077505Y-79116856D01*
X85086528Y-79081711D01*
X85086528Y-79081710D01*
X85088500Y-79074030D01*
X85088500Y-79053776D01*
X85090051Y-79034065D01*
X85091980Y-79021886D01*
X85093220Y-79014057D01*
X85089059Y-78970038D01*
X85088500Y-78958181D01*
X85088500Y-78825692D01*
X85108502Y-78757571D01*
X85162158Y-78711078D01*
X85232432Y-78700974D01*
X85254160Y-78706097D01*
X85335191Y-78732974D01*
X85342027Y-78733674D01*
X85342030Y-78733675D01*
X85389126Y-78738500D01*
X85437928Y-78743500D01*
X86012072Y-78743500D01*
X86015318Y-78743163D01*
X86015322Y-78743163D01*
X86109235Y-78733419D01*
X86109239Y-78733418D01*
X86116093Y-78732707D01*
X86122629Y-78730526D01*
X86122631Y-78730526D01*
X86255395Y-78686232D01*
X86281107Y-78677654D01*
X86429031Y-78586116D01*
X86438672Y-78576458D01*
X86546758Y-78468184D01*
X86546762Y-78468179D01*
X86551929Y-78463003D01*
X86555772Y-78456769D01*
X86570294Y-78433211D01*
X86623067Y-78385718D01*
X86693139Y-78374296D01*
X86758262Y-78402570D01*
X86784694Y-78433020D01*
X86803884Y-78464031D01*
X86809066Y-78469204D01*
X86921816Y-78581758D01*
X86921821Y-78581762D01*
X86926997Y-78586929D01*
X86933227Y-78590769D01*
X86933228Y-78590770D01*
X86993500Y-78627922D01*
X87075080Y-78678209D01*
X87240191Y-78732974D01*
X87247027Y-78733674D01*
X87247030Y-78733675D01*
X87294126Y-78738500D01*
X87342928Y-78743500D01*
X87917072Y-78743500D01*
X87920318Y-78743163D01*
X87920322Y-78743163D01*
X88014235Y-78733419D01*
X88014239Y-78733418D01*
X88021093Y-78732707D01*
X88027629Y-78730526D01*
X88027631Y-78730526D01*
X88160395Y-78686232D01*
X88186107Y-78677654D01*
X88334031Y-78586116D01*
X88343672Y-78576458D01*
X88451758Y-78468184D01*
X88451762Y-78468179D01*
X88456929Y-78463003D01*
X88460772Y-78456769D01*
X88475294Y-78433211D01*
X88528067Y-78385718D01*
X88598139Y-78374296D01*
X88663262Y-78402570D01*
X88689694Y-78433021D01*
X88708884Y-78464031D01*
X88714066Y-78469204D01*
X88826816Y-78581758D01*
X88826821Y-78581762D01*
X88831997Y-78586929D01*
X88838227Y-78590769D01*
X88838228Y-78590770D01*
X88898500Y-78627922D01*
X88980080Y-78678209D01*
X89145191Y-78732974D01*
X89152027Y-78733674D01*
X89152030Y-78733675D01*
X89199126Y-78738500D01*
X89247928Y-78743500D01*
X89822072Y-78743500D01*
X89825318Y-78743163D01*
X89825322Y-78743163D01*
X89919235Y-78733419D01*
X89919239Y-78733418D01*
X89926093Y-78732707D01*
X89932629Y-78730526D01*
X89932631Y-78730526D01*
X90065395Y-78686232D01*
X90091107Y-78677654D01*
X90224199Y-78595295D01*
X90292649Y-78576458D01*
X90360419Y-78597620D01*
X90405990Y-78652061D01*
X90416500Y-78702440D01*
X90416500Y-78773134D01*
X90423255Y-78835316D01*
X90474385Y-78971705D01*
X90561739Y-79088261D01*
X90678295Y-79175615D01*
X90814684Y-79226745D01*
X90876866Y-79233500D01*
X91325405Y-79233500D01*
X91393526Y-79253502D01*
X91414501Y-79270405D01*
X91665671Y-79521576D01*
X91911353Y-79767258D01*
X91918887Y-79775537D01*
X91923000Y-79782018D01*
X91944095Y-79801827D01*
X91972651Y-79828643D01*
X91975493Y-79831398D01*
X91995230Y-79851135D01*
X91998427Y-79853615D01*
X92007447Y-79861318D01*
X92039679Y-79891586D01*
X92046625Y-79895405D01*
X92046628Y-79895407D01*
X92057434Y-79901348D01*
X92073953Y-79912199D01*
X92089959Y-79924614D01*
X92097228Y-79927759D01*
X92097232Y-79927762D01*
X92130537Y-79942174D01*
X92141187Y-79947391D01*
X92179940Y-79968695D01*
X92187615Y-79970666D01*
X92187616Y-79970666D01*
X92199562Y-79973733D01*
X92218267Y-79980137D01*
X92236855Y-79988181D01*
X92244678Y-79989420D01*
X92244688Y-79989423D01*
X92280524Y-79995099D01*
X92292144Y-79997505D01*
X92323959Y-80005673D01*
X92334970Y-80008500D01*
X92355224Y-80008500D01*
X92374934Y-80010051D01*
X92394943Y-80013220D01*
X92402835Y-80012474D01*
X92421580Y-80010702D01*
X92438962Y-80009059D01*
X92450819Y-80008500D01*
X96171233Y-80008500D01*
X96182416Y-80009027D01*
X96189909Y-80010702D01*
X96197835Y-80010453D01*
X96197836Y-80010453D01*
X96257986Y-80008562D01*
X96261945Y-80008500D01*
X96289856Y-80008500D01*
X96293791Y-80008003D01*
X96293856Y-80007995D01*
X96305693Y-80007062D01*
X96337951Y-80006048D01*
X96341970Y-80005922D01*
X96349889Y-80005673D01*
X96369343Y-80000021D01*
X96388700Y-79996013D01*
X96400930Y-79994468D01*
X96400931Y-79994468D01*
X96408797Y-79993474D01*
X96416168Y-79990555D01*
X96416170Y-79990555D01*
X96449912Y-79977196D01*
X96461142Y-79973351D01*
X96495983Y-79963229D01*
X96495984Y-79963229D01*
X96503593Y-79961018D01*
X96510412Y-79956985D01*
X96510417Y-79956983D01*
X96521028Y-79950707D01*
X96538776Y-79942012D01*
X96557617Y-79934552D01*
X96593387Y-79908564D01*
X96603307Y-79902048D01*
X96634535Y-79883580D01*
X96634538Y-79883578D01*
X96641362Y-79879542D01*
X96655683Y-79865221D01*
X96670717Y-79852380D01*
X96680694Y-79845131D01*
X96687107Y-79840472D01*
X96715298Y-79806395D01*
X96723288Y-79797616D01*
X96912247Y-79608657D01*
X96920537Y-79601113D01*
X96927018Y-79597000D01*
X96973659Y-79547332D01*
X96976413Y-79544491D01*
X96996135Y-79524769D01*
X96998612Y-79521576D01*
X97006317Y-79512555D01*
X97036586Y-79480321D01*
X97040407Y-79473371D01*
X97046346Y-79462568D01*
X97057202Y-79446041D01*
X97064757Y-79436302D01*
X97064758Y-79436300D01*
X97069614Y-79430040D01*
X97074452Y-79418860D01*
X97076594Y-79416285D01*
X97076798Y-79415941D01*
X97076854Y-79415974D01*
X97119863Y-79364285D01*
X97145860Y-79350918D01*
X97258295Y-79308768D01*
X97258296Y-79308767D01*
X97266705Y-79305615D01*
X97383261Y-79218261D01*
X97470615Y-79101705D01*
X97521745Y-78965316D01*
X97528500Y-78903134D01*
X97528500Y-77306866D01*
X97521745Y-77244684D01*
X97470615Y-77108295D01*
X97383261Y-76991739D01*
X97266705Y-76904385D01*
X97130316Y-76853255D01*
X97068134Y-76846500D01*
X95971866Y-76846500D01*
X95909684Y-76853255D01*
X95909389Y-76853366D01*
X95867373Y-76855271D01*
X95774446Y-76841910D01*
X95774443Y-76841910D01*
X95770000Y-76841271D01*
X95232678Y-76841271D01*
X95230369Y-76841250D01*
X95171453Y-76840170D01*
X95166980Y-76840088D01*
X95157483Y-76841271D01*
X95026872Y-76857540D01*
X95026868Y-76857541D01*
X95022435Y-76858093D01*
X94884255Y-76895766D01*
X94880138Y-76897548D01*
X94880134Y-76897549D01*
X94754704Y-76951827D01*
X94754699Y-76951829D01*
X94750580Y-76953612D01*
X94628528Y-77028552D01*
X94625080Y-77031415D01*
X94625078Y-77031416D01*
X94531230Y-77109330D01*
X94516460Y-77121592D01*
X94420346Y-77227776D01*
X94417839Y-77231492D01*
X94417838Y-77231494D01*
X94364695Y-77310283D01*
X94338893Y-77348536D01*
X94313746Y-77400441D01*
X94266045Y-77453021D01*
X94200355Y-77471500D01*
X93433501Y-77471500D01*
X93389271Y-77463482D01*
X93335316Y-77443255D01*
X93273134Y-77436500D01*
X92824595Y-77436500D01*
X92756474Y-77416498D01*
X92735500Y-77399595D01*
X92564141Y-77228236D01*
X92556601Y-77219950D01*
X92552489Y-77213471D01*
X92502837Y-77166845D01*
X92499996Y-77164091D01*
X92480259Y-77144354D01*
X92477062Y-77141874D01*
X92468040Y-77134169D01*
X92451599Y-77118730D01*
X92435810Y-77103903D01*
X92428864Y-77100084D01*
X92428861Y-77100082D01*
X92418055Y-77094141D01*
X92401536Y-77083290D01*
X92401072Y-77082930D01*
X92385530Y-77070875D01*
X92378261Y-77067730D01*
X92378257Y-77067727D01*
X92344952Y-77053315D01*
X92334302Y-77048098D01*
X92295549Y-77026794D01*
X92275926Y-77021756D01*
X92257223Y-77015352D01*
X92245909Y-77010456D01*
X92245908Y-77010456D01*
X92238634Y-77007308D01*
X92230811Y-77006069D01*
X92230801Y-77006066D01*
X92194965Y-77000390D01*
X92183345Y-76997984D01*
X92148200Y-76988961D01*
X92148199Y-76988961D01*
X92140519Y-76986989D01*
X92120265Y-76986989D01*
X92100554Y-76985438D01*
X92088375Y-76983509D01*
X92080546Y-76982269D01*
X92037290Y-76986358D01*
X92036528Y-76986430D01*
X92024670Y-76986989D01*
X90465347Y-76986989D01*
X90397226Y-76966987D01*
X90366604Y-76939257D01*
X90364966Y-76937190D01*
X90361116Y-76930969D01*
X90353861Y-76923726D01*
X90352895Y-76921962D01*
X90351390Y-76920063D01*
X90351715Y-76919805D01*
X90319781Y-76861446D01*
X90324782Y-76790625D01*
X90353708Y-76745530D01*
X90356364Y-76742869D01*
X90365375Y-76731460D01*
X90448912Y-76595937D01*
X90455056Y-76582759D01*
X90505315Y-76431234D01*
X90508181Y-76417868D01*
X90517672Y-76325230D01*
X90518000Y-76318815D01*
X90518000Y-76296787D01*
X90538002Y-76228666D01*
X90591658Y-76182173D01*
X90661932Y-76172069D01*
X90688230Y-76178805D01*
X90807394Y-76223478D01*
X90822649Y-76227105D01*
X90873514Y-76232631D01*
X90880328Y-76233000D01*
X91102885Y-76233000D01*
X91118124Y-76228525D01*
X91119329Y-76227135D01*
X91121000Y-76219452D01*
X91121000Y-74455116D01*
X91116525Y-74439877D01*
X91115135Y-74438672D01*
X91107452Y-74437001D01*
X90880331Y-74437001D01*
X90873510Y-74437371D01*
X90822648Y-74442895D01*
X90807396Y-74446521D01*
X90686946Y-74491676D01*
X90671351Y-74500214D01*
X90569276Y-74576715D01*
X90556715Y-74589276D01*
X90480214Y-74691351D01*
X90471676Y-74706946D01*
X90426522Y-74827394D01*
X90422895Y-74842649D01*
X90417369Y-74893514D01*
X90417000Y-74900328D01*
X90417000Y-74968312D01*
X90396998Y-75036433D01*
X90343342Y-75082926D01*
X90273068Y-75093030D01*
X90224884Y-75075572D01*
X90095937Y-74996088D01*
X90082759Y-74989944D01*
X89931234Y-74939685D01*
X89917868Y-74936819D01*
X89825230Y-74927328D01*
X89818815Y-74927000D01*
X89807115Y-74927000D01*
X89791876Y-74931475D01*
X89790671Y-74932865D01*
X89789000Y-74940548D01*
X89789000Y-76100500D01*
X89768998Y-76168621D01*
X89715342Y-76215114D01*
X89663000Y-76226500D01*
X87502000Y-76226500D01*
X87433879Y-76206498D01*
X87387386Y-76152842D01*
X87376000Y-76100500D01*
X87376000Y-74945115D01*
X87374659Y-74940548D01*
X87884000Y-74940548D01*
X87884000Y-75700385D01*
X87888475Y-75715624D01*
X87889865Y-75716829D01*
X87897548Y-75718500D01*
X89262885Y-75718500D01*
X89278124Y-75714025D01*
X89279329Y-75712635D01*
X89281000Y-75704952D01*
X89281000Y-74945115D01*
X89276525Y-74929876D01*
X89275135Y-74928671D01*
X89267452Y-74927000D01*
X89251234Y-74927000D01*
X89244718Y-74927337D01*
X89150868Y-74937075D01*
X89137472Y-74939968D01*
X88986047Y-74990488D01*
X88972885Y-74996653D01*
X88837508Y-75080426D01*
X88826110Y-75089460D01*
X88713637Y-75202129D01*
X88704625Y-75213540D01*
X88689708Y-75237740D01*
X88636936Y-75285233D01*
X88566864Y-75296657D01*
X88501740Y-75268383D01*
X88475304Y-75237927D01*
X88459576Y-75212510D01*
X88450540Y-75201110D01*
X88337871Y-75088637D01*
X88326460Y-75079625D01*
X88190937Y-74996088D01*
X88177759Y-74989944D01*
X88026234Y-74939685D01*
X88012868Y-74936819D01*
X87920230Y-74927328D01*
X87913815Y-74927000D01*
X87902115Y-74927000D01*
X87886876Y-74931475D01*
X87885671Y-74932865D01*
X87884000Y-74940548D01*
X87374659Y-74940548D01*
X87371525Y-74929876D01*
X87370135Y-74928671D01*
X87362452Y-74927000D01*
X87346234Y-74927000D01*
X87339718Y-74927337D01*
X87245868Y-74937075D01*
X87232472Y-74939968D01*
X87081047Y-74990488D01*
X87067885Y-74996653D01*
X86932508Y-75080426D01*
X86921110Y-75089460D01*
X86808637Y-75202129D01*
X86799627Y-75213537D01*
X86785003Y-75237263D01*
X86732231Y-75284757D01*
X86662160Y-75296181D01*
X86597036Y-75267908D01*
X86570598Y-75237452D01*
X86570481Y-75237263D01*
X86551116Y-75205969D01*
X86518998Y-75173907D01*
X86433184Y-75088242D01*
X86433179Y-75088238D01*
X86428003Y-75083071D01*
X86421772Y-75079230D01*
X86286150Y-74995631D01*
X86286148Y-74995630D01*
X86279920Y-74991791D01*
X86114809Y-74937026D01*
X86107973Y-74936326D01*
X86107970Y-74936325D01*
X86051289Y-74930518D01*
X86012072Y-74926500D01*
X85526595Y-74926500D01*
X85458474Y-74906498D01*
X85437500Y-74889595D01*
X85125405Y-74577500D01*
X85091379Y-74515188D01*
X85088500Y-74488405D01*
X85088500Y-73745692D01*
X85108502Y-73677571D01*
X85162158Y-73631078D01*
X85232432Y-73620974D01*
X85254160Y-73626097D01*
X85335191Y-73652974D01*
X85342027Y-73653674D01*
X85342030Y-73653675D01*
X85389370Y-73658525D01*
X85437928Y-73663500D01*
X86012072Y-73663500D01*
X86015318Y-73663163D01*
X86015322Y-73663163D01*
X86109235Y-73653419D01*
X86109239Y-73653418D01*
X86116093Y-73652707D01*
X86122629Y-73650526D01*
X86122631Y-73650526D01*
X86274159Y-73599972D01*
X86281107Y-73597654D01*
X86429031Y-73506116D01*
X86434597Y-73500540D01*
X86546758Y-73388184D01*
X86546762Y-73388179D01*
X86551929Y-73383003D01*
X86570587Y-73352734D01*
X86623357Y-73305242D01*
X86693428Y-73293818D01*
X86758553Y-73322091D01*
X86784990Y-73352548D01*
X86800425Y-73377490D01*
X86809460Y-73388890D01*
X86922129Y-73501363D01*
X86933540Y-73510375D01*
X87069063Y-73593912D01*
X87082241Y-73600056D01*
X87233766Y-73650315D01*
X87247132Y-73653181D01*
X87339770Y-73662672D01*
X87346185Y-73663000D01*
X87357885Y-73663000D01*
X87373124Y-73658525D01*
X87374329Y-73657135D01*
X87376000Y-73649452D01*
X87376000Y-72885048D01*
X87884000Y-72885048D01*
X87884000Y-73644885D01*
X87888475Y-73660124D01*
X87889865Y-73661329D01*
X87897548Y-73663000D01*
X87913766Y-73663000D01*
X87920282Y-73662663D01*
X88014132Y-73652925D01*
X88027528Y-73650032D01*
X88178953Y-73599512D01*
X88192115Y-73593347D01*
X88327492Y-73509574D01*
X88338890Y-73500540D01*
X88451363Y-73387871D01*
X88460375Y-73376460D01*
X88475292Y-73352260D01*
X88528064Y-73304767D01*
X88598136Y-73293343D01*
X88663260Y-73321617D01*
X88689696Y-73352073D01*
X88705424Y-73377490D01*
X88714460Y-73388890D01*
X88827129Y-73501363D01*
X88838540Y-73510375D01*
X88974063Y-73593912D01*
X88987241Y-73600056D01*
X89138766Y-73650315D01*
X89152132Y-73653181D01*
X89244770Y-73662672D01*
X89251185Y-73663000D01*
X89262885Y-73663000D01*
X89278124Y-73658525D01*
X89279329Y-73657135D01*
X89281000Y-73649452D01*
X89281000Y-72889615D01*
X89279659Y-72885048D01*
X89789000Y-72885048D01*
X89789000Y-73644885D01*
X89793475Y-73660124D01*
X89794865Y-73661329D01*
X89802548Y-73663000D01*
X89818766Y-73663000D01*
X89825282Y-73662663D01*
X89919132Y-73652925D01*
X89932528Y-73650032D01*
X90083953Y-73599512D01*
X90097115Y-73593347D01*
X90232492Y-73509574D01*
X90243890Y-73500540D01*
X90356363Y-73387871D01*
X90365375Y-73376460D01*
X90380292Y-73352260D01*
X90433064Y-73304767D01*
X90503136Y-73293343D01*
X90568260Y-73321617D01*
X90594696Y-73352073D01*
X90610424Y-73377490D01*
X90619460Y-73388890D01*
X90732129Y-73501363D01*
X90743540Y-73510375D01*
X90879063Y-73593912D01*
X90892241Y-73600056D01*
X91043766Y-73650315D01*
X91057132Y-73653181D01*
X91149770Y-73662672D01*
X91156185Y-73663000D01*
X91167885Y-73663000D01*
X91183124Y-73658525D01*
X91184329Y-73657135D01*
X91186000Y-73649452D01*
X91186000Y-72889615D01*
X91184659Y-72885048D01*
X91694000Y-72885048D01*
X91694000Y-73644885D01*
X91698475Y-73660124D01*
X91699865Y-73661329D01*
X91707548Y-73663000D01*
X91723766Y-73663000D01*
X91730282Y-73662663D01*
X91824132Y-73652925D01*
X91837528Y-73650032D01*
X91988953Y-73599512D01*
X92002115Y-73593347D01*
X92137492Y-73509574D01*
X92148890Y-73500540D01*
X92261363Y-73387871D01*
X92270375Y-73376460D01*
X92285292Y-73352260D01*
X92338064Y-73304767D01*
X92408136Y-73293343D01*
X92473260Y-73321617D01*
X92499696Y-73352073D01*
X92515424Y-73377490D01*
X92524460Y-73388890D01*
X92637129Y-73501363D01*
X92648540Y-73510375D01*
X92784063Y-73593912D01*
X92797241Y-73600056D01*
X92948766Y-73650315D01*
X92962132Y-73653181D01*
X93054770Y-73662672D01*
X93061185Y-73663000D01*
X93072885Y-73663000D01*
X93088124Y-73658525D01*
X93089329Y-73657135D01*
X93091000Y-73649452D01*
X93091000Y-72889615D01*
X93089659Y-72885048D01*
X93599000Y-72885048D01*
X93599000Y-73644885D01*
X93603475Y-73660124D01*
X93604865Y-73661329D01*
X93612548Y-73663000D01*
X93628766Y-73663000D01*
X93635282Y-73662663D01*
X93729132Y-73652925D01*
X93742528Y-73650032D01*
X93893953Y-73599512D01*
X93907115Y-73593347D01*
X94042492Y-73509574D01*
X94053890Y-73500540D01*
X94166363Y-73387871D01*
X94175375Y-73376460D01*
X94190292Y-73352260D01*
X94243064Y-73304767D01*
X94313136Y-73293343D01*
X94378260Y-73321617D01*
X94404696Y-73352073D01*
X94420424Y-73377490D01*
X94429460Y-73388890D01*
X94542129Y-73501363D01*
X94553540Y-73510375D01*
X94689063Y-73593912D01*
X94702241Y-73600056D01*
X94853766Y-73650315D01*
X94867132Y-73653181D01*
X94959770Y-73662672D01*
X94966185Y-73663000D01*
X94977885Y-73663000D01*
X94993124Y-73658525D01*
X94994329Y-73657135D01*
X94996000Y-73649452D01*
X94996000Y-72889615D01*
X94991525Y-72874376D01*
X94990135Y-72873171D01*
X94982452Y-72871500D01*
X93617115Y-72871500D01*
X93601876Y-72875975D01*
X93600671Y-72877365D01*
X93599000Y-72885048D01*
X93089659Y-72885048D01*
X93086525Y-72874376D01*
X93085135Y-72873171D01*
X93077452Y-72871500D01*
X91712115Y-72871500D01*
X91696876Y-72875975D01*
X91695671Y-72877365D01*
X91694000Y-72885048D01*
X91184659Y-72885048D01*
X91181525Y-72874376D01*
X91180135Y-72873171D01*
X91172452Y-72871500D01*
X89807115Y-72871500D01*
X89791876Y-72875975D01*
X89790671Y-72877365D01*
X89789000Y-72885048D01*
X89279659Y-72885048D01*
X89276525Y-72874376D01*
X89275135Y-72873171D01*
X89267452Y-72871500D01*
X87902115Y-72871500D01*
X87886876Y-72875975D01*
X87885671Y-72877365D01*
X87884000Y-72885048D01*
X87376000Y-72885048D01*
X87376000Y-72489500D01*
X87396002Y-72421379D01*
X87449658Y-72374886D01*
X87502000Y-72363500D01*
X95378000Y-72363500D01*
X95446121Y-72383502D01*
X95492614Y-72437158D01*
X95504000Y-72489500D01*
X95504000Y-73644885D01*
X95508475Y-73660124D01*
X95509865Y-73661329D01*
X95517548Y-73663000D01*
X95533766Y-73663000D01*
X95540282Y-73662663D01*
X95634132Y-73652925D01*
X95647528Y-73650032D01*
X95720624Y-73625645D01*
X95791573Y-73623061D01*
X95852657Y-73659244D01*
X95884482Y-73722709D01*
X95886500Y-73745169D01*
X95886500Y-74573103D01*
X95866498Y-74641224D01*
X95812842Y-74687717D01*
X95742568Y-74697821D01*
X95694384Y-74680363D01*
X95646150Y-74650631D01*
X95646148Y-74650630D01*
X95639920Y-74646791D01*
X95474809Y-74592026D01*
X95467973Y-74591326D01*
X95467970Y-74591325D01*
X95416474Y-74586049D01*
X95372072Y-74581500D01*
X94672928Y-74581500D01*
X94669682Y-74581837D01*
X94669678Y-74581837D01*
X94575765Y-74591581D01*
X94575761Y-74591582D01*
X94568907Y-74592293D01*
X94562371Y-74594474D01*
X94562369Y-74594474D01*
X94429605Y-74638768D01*
X94403893Y-74647346D01*
X94255969Y-74738884D01*
X94250796Y-74744066D01*
X94138242Y-74856816D01*
X94138238Y-74856821D01*
X94133071Y-74861997D01*
X94129231Y-74868227D01*
X94129230Y-74868228D01*
X94127143Y-74871614D01*
X94125114Y-74873441D01*
X94124693Y-74873973D01*
X94124602Y-74873901D01*
X94074372Y-74919108D01*
X94019882Y-74931500D01*
X93848304Y-74931500D01*
X93780183Y-74911498D01*
X93733690Y-74857842D01*
X93727212Y-74838984D01*
X93726745Y-74834684D01*
X93675615Y-74698295D01*
X93588261Y-74581739D01*
X93471705Y-74494385D01*
X93335316Y-74443255D01*
X93273134Y-74436500D01*
X92276866Y-74436500D01*
X92214684Y-74443255D01*
X92207288Y-74446027D01*
X92207282Y-74446029D01*
X92118517Y-74479306D01*
X92047710Y-74484489D01*
X92030059Y-74479306D01*
X91942609Y-74446522D01*
X91927351Y-74442895D01*
X91876486Y-74437369D01*
X91869672Y-74437000D01*
X91647115Y-74437000D01*
X91631876Y-74441475D01*
X91630671Y-74442865D01*
X91629000Y-74450548D01*
X91629000Y-76214884D01*
X91633475Y-76230123D01*
X91634865Y-76231328D01*
X91642548Y-76232999D01*
X91869669Y-76232999D01*
X91876490Y-76232629D01*
X91927352Y-76227105D01*
X91942606Y-76223478D01*
X92030059Y-76190694D01*
X92100866Y-76185511D01*
X92118517Y-76190694D01*
X92207282Y-76223971D01*
X92207288Y-76223973D01*
X92214684Y-76226745D01*
X92276866Y-76233500D01*
X93273134Y-76233500D01*
X93335316Y-76226745D01*
X93389271Y-76206518D01*
X93433501Y-76198500D01*
X94020036Y-76198500D01*
X94088157Y-76218502D01*
X94127179Y-76258196D01*
X94133884Y-76269031D01*
X94139066Y-76274204D01*
X94251816Y-76386758D01*
X94251821Y-76386762D01*
X94256997Y-76391929D01*
X94263227Y-76395769D01*
X94263228Y-76395770D01*
X94299078Y-76417868D01*
X94405080Y-76483209D01*
X94570191Y-76537974D01*
X94577027Y-76538674D01*
X94577030Y-76538675D01*
X94628526Y-76543951D01*
X94672928Y-76548500D01*
X95372072Y-76548500D01*
X95375318Y-76548163D01*
X95375322Y-76548163D01*
X95469235Y-76538419D01*
X95469239Y-76538418D01*
X95476093Y-76537707D01*
X95482629Y-76535526D01*
X95482631Y-76535526D01*
X95615395Y-76491232D01*
X95641107Y-76482654D01*
X95745800Y-76417868D01*
X95782805Y-76394969D01*
X95782806Y-76394968D01*
X95789031Y-76391116D01*
X95795923Y-76384212D01*
X95797387Y-76383411D01*
X95799938Y-76381389D01*
X95800284Y-76381826D01*
X95858204Y-76350134D01*
X95929024Y-76355137D01*
X95974110Y-76384056D01*
X95976616Y-76386557D01*
X95981997Y-76391929D01*
X95988227Y-76395769D01*
X95988228Y-76395770D01*
X96024078Y-76417868D01*
X96130080Y-76483209D01*
X96295191Y-76537974D01*
X96302027Y-76538674D01*
X96302030Y-76538675D01*
X96353526Y-76543951D01*
X96397928Y-76548500D01*
X97097072Y-76548500D01*
X97100318Y-76548163D01*
X97100322Y-76548163D01*
X97194235Y-76538419D01*
X97194239Y-76538418D01*
X97201093Y-76537707D01*
X97207629Y-76535526D01*
X97207631Y-76535526D01*
X97340395Y-76491232D01*
X97366107Y-76482654D01*
X97514031Y-76391116D01*
X97549947Y-76355137D01*
X97631758Y-76273184D01*
X97631762Y-76273179D01*
X97636929Y-76268003D01*
X97658197Y-76233500D01*
X97724369Y-76126150D01*
X97724370Y-76126148D01*
X97728209Y-76119920D01*
X97782974Y-75954809D01*
X97793500Y-75852072D01*
X97793500Y-75277928D01*
X97792510Y-75268383D01*
X97783419Y-75180765D01*
X97783418Y-75180761D01*
X97782707Y-75173907D01*
X97779333Y-75163794D01*
X97756174Y-75094377D01*
X97753589Y-75023427D01*
X97789772Y-74962343D01*
X97853236Y-74930518D01*
X97875697Y-74928500D01*
X106606800Y-74928500D01*
X106674921Y-74948502D01*
X106694147Y-74964843D01*
X106694420Y-74964540D01*
X106699332Y-74968963D01*
X106703747Y-74973866D01*
X106725247Y-74989487D01*
X106850414Y-75080426D01*
X106858248Y-75086118D01*
X106864276Y-75088802D01*
X106864278Y-75088803D01*
X107026681Y-75161109D01*
X107032712Y-75163794D01*
X107112554Y-75180765D01*
X107213056Y-75202128D01*
X107213061Y-75202128D01*
X107219513Y-75203500D01*
X107410487Y-75203500D01*
X107416939Y-75202128D01*
X107416944Y-75202128D01*
X107517446Y-75180765D01*
X107597288Y-75163794D01*
X107603319Y-75161109D01*
X107765722Y-75088803D01*
X107765724Y-75088802D01*
X107771752Y-75086118D01*
X107779587Y-75080426D01*
X107858038Y-75023427D01*
X107926253Y-74973866D01*
X107949091Y-74948502D01*
X108049621Y-74836852D01*
X108049622Y-74836851D01*
X108054040Y-74831944D01*
X108126348Y-74706703D01*
X108146223Y-74672279D01*
X108146224Y-74672278D01*
X108149527Y-74666556D01*
X108208542Y-74484928D01*
X108211676Y-74455116D01*
X108227814Y-74301565D01*
X108228504Y-74295000D01*
X108208542Y-74105072D01*
X108149527Y-73923444D01*
X108054040Y-73758056D01*
X108042908Y-73745692D01*
X107930675Y-73621045D01*
X107930674Y-73621044D01*
X107926253Y-73616134D01*
X107780689Y-73510375D01*
X107777094Y-73507763D01*
X107777093Y-73507762D01*
X107771752Y-73503882D01*
X107765724Y-73501198D01*
X107765722Y-73501197D01*
X107603319Y-73428891D01*
X107603318Y-73428891D01*
X107597288Y-73426206D01*
X107503887Y-73406353D01*
X107416944Y-73387872D01*
X107416939Y-73387872D01*
X107410487Y-73386500D01*
X107219513Y-73386500D01*
X107213061Y-73387872D01*
X107213056Y-73387872D01*
X107126113Y-73406353D01*
X107032712Y-73426206D01*
X107026682Y-73428891D01*
X107026681Y-73428891D01*
X106864278Y-73501197D01*
X106864276Y-73501198D01*
X106858248Y-73503882D01*
X106852907Y-73507762D01*
X106852906Y-73507763D01*
X106849311Y-73510375D01*
X106703747Y-73616134D01*
X106699332Y-73621037D01*
X106694420Y-73625460D01*
X106693295Y-73624211D01*
X106639986Y-73657051D01*
X106606800Y-73661500D01*
X98404439Y-73661500D01*
X98336318Y-73641498D01*
X98295320Y-73598500D01*
X98244207Y-73509970D01*
X98206990Y-73445508D01*
X98189611Y-73426206D01*
X98083625Y-73308497D01*
X98083624Y-73308496D01*
X98079203Y-73303586D01*
X97924702Y-73191334D01*
X97918674Y-73188650D01*
X97918672Y-73188649D01*
X97756269Y-73116343D01*
X97756268Y-73116343D01*
X97750238Y-73113658D01*
X97656838Y-73093805D01*
X97569894Y-73075324D01*
X97569889Y-73075324D01*
X97563437Y-73073952D01*
X97425756Y-73073952D01*
X97357635Y-73053950D01*
X97311142Y-73000294D01*
X97301038Y-72930020D01*
X97330532Y-72865440D01*
X97336661Y-72858857D01*
X97636758Y-72558760D01*
X97645048Y-72551216D01*
X97651529Y-72547103D01*
X97698170Y-72497435D01*
X97700924Y-72494594D01*
X97720645Y-72474873D01*
X97723123Y-72471678D01*
X97730829Y-72462656D01*
X97755669Y-72436204D01*
X97761097Y-72430424D01*
X97770857Y-72412671D01*
X97781710Y-72396148D01*
X97789264Y-72386409D01*
X97794124Y-72380144D01*
X97811687Y-72339560D01*
X97816894Y-72328930D01*
X97838206Y-72290163D01*
X97840177Y-72282486D01*
X97840179Y-72282481D01*
X97843243Y-72270545D01*
X97849649Y-72251833D01*
X97854544Y-72240522D01*
X97857692Y-72233248D01*
X97858932Y-72225420D01*
X97858934Y-72225413D01*
X97864610Y-72189579D01*
X97867016Y-72177959D01*
X97876039Y-72142814D01*
X97876039Y-72142813D01*
X97878011Y-72135133D01*
X97878011Y-72114879D01*
X97879562Y-72095168D01*
X97881491Y-72082989D01*
X97882731Y-72075160D01*
X97878570Y-72031141D01*
X97878011Y-72019284D01*
X97878011Y-70018278D01*
X97878538Y-70007095D01*
X97880213Y-69999602D01*
X97878073Y-69931525D01*
X97878011Y-69927566D01*
X97878011Y-69899655D01*
X97877506Y-69895655D01*
X97876573Y-69883812D01*
X97876197Y-69871829D01*
X97875184Y-69839621D01*
X97869533Y-69820169D01*
X97865525Y-69800817D01*
X97863978Y-69788574D01*
X97862985Y-69780714D01*
X97858464Y-69769294D01*
X97846711Y-69739608D01*
X97842866Y-69728381D01*
X97841817Y-69724770D01*
X97830529Y-69685918D01*
X97826495Y-69679096D01*
X97826492Y-69679090D01*
X97820217Y-69668479D01*
X97811521Y-69650729D01*
X97806983Y-69639267D01*
X97806980Y-69639262D01*
X97804063Y-69631894D01*
X97778084Y-69596136D01*
X97771568Y-69586218D01*
X97753086Y-69554968D01*
X97749053Y-69548148D01*
X97734729Y-69533824D01*
X97721887Y-69518789D01*
X97717369Y-69512570D01*
X97709983Y-69502404D01*
X97675917Y-69474222D01*
X97667138Y-69466233D01*
X97467122Y-69266217D01*
X97433096Y-69203905D01*
X97430907Y-69190292D01*
X97414232Y-69031635D01*
X97414232Y-69031633D01*
X97413542Y-69025072D01*
X97354527Y-68843444D01*
X97259040Y-68678056D01*
X97237276Y-68653884D01*
X97135675Y-68541045D01*
X97135674Y-68541044D01*
X97131253Y-68536134D01*
X96976752Y-68423882D01*
X96970724Y-68421198D01*
X96970722Y-68421197D01*
X96808319Y-68348891D01*
X96808318Y-68348891D01*
X96802288Y-68346206D01*
X96708601Y-68326292D01*
X96621944Y-68307872D01*
X96621939Y-68307872D01*
X96615487Y-68306500D01*
X96424513Y-68306500D01*
X96418061Y-68307872D01*
X96418056Y-68307872D01*
X96347452Y-68322880D01*
X96331400Y-68326292D01*
X96260609Y-68320890D01*
X96203977Y-68278073D01*
X96185679Y-68242921D01*
X96185485Y-68242338D01*
X96167654Y-68188893D01*
X96076116Y-68040969D01*
X96068861Y-68033726D01*
X96067895Y-68031962D01*
X96066387Y-68030059D01*
X96066713Y-68029801D01*
X96034781Y-67971446D01*
X96039782Y-67900625D01*
X96068708Y-67855530D01*
X96071364Y-67852869D01*
X96080375Y-67841460D01*
X96163912Y-67705937D01*
X96170056Y-67692759D01*
X96220315Y-67541234D01*
X96223181Y-67527868D01*
X96232672Y-67435230D01*
X96233000Y-67428815D01*
X96233000Y-67354615D01*
X96228525Y-67339376D01*
X96227135Y-67338171D01*
X96219452Y-67336500D01*
X87502000Y-67336500D01*
X87433879Y-67316498D01*
X87387386Y-67262842D01*
X87376000Y-67210500D01*
X87376000Y-66055115D01*
X87374659Y-66050548D01*
X87884000Y-66050548D01*
X87884000Y-66810385D01*
X87888475Y-66825624D01*
X87889865Y-66826829D01*
X87897548Y-66828500D01*
X89262885Y-66828500D01*
X89278124Y-66824025D01*
X89279329Y-66822635D01*
X89281000Y-66814952D01*
X89281000Y-66055115D01*
X89279659Y-66050548D01*
X89789000Y-66050548D01*
X89789000Y-66810385D01*
X89793475Y-66825624D01*
X89794865Y-66826829D01*
X89802548Y-66828500D01*
X91167885Y-66828500D01*
X91183124Y-66824025D01*
X91184329Y-66822635D01*
X91186000Y-66814952D01*
X91186000Y-66055115D01*
X91184659Y-66050548D01*
X91694000Y-66050548D01*
X91694000Y-66810385D01*
X91698475Y-66825624D01*
X91699865Y-66826829D01*
X91707548Y-66828500D01*
X93072885Y-66828500D01*
X93088124Y-66824025D01*
X93089329Y-66822635D01*
X93091000Y-66814952D01*
X93091000Y-66055115D01*
X93089659Y-66050548D01*
X93599000Y-66050548D01*
X93599000Y-66810385D01*
X93603475Y-66825624D01*
X93604865Y-66826829D01*
X93612548Y-66828500D01*
X94977885Y-66828500D01*
X94993124Y-66824025D01*
X94994329Y-66822635D01*
X94996000Y-66814952D01*
X94996000Y-66055115D01*
X94994659Y-66050548D01*
X95504000Y-66050548D01*
X95504000Y-66810385D01*
X95508475Y-66825624D01*
X95509865Y-66826829D01*
X95517548Y-66828500D01*
X96214885Y-66828500D01*
X96230124Y-66824025D01*
X96231329Y-66822635D01*
X96233000Y-66814952D01*
X96233000Y-66736234D01*
X96232663Y-66729718D01*
X96222925Y-66635868D01*
X96220032Y-66622472D01*
X96169512Y-66471047D01*
X96163347Y-66457885D01*
X96079574Y-66322508D01*
X96070540Y-66311110D01*
X95957871Y-66198637D01*
X95946460Y-66189625D01*
X95810937Y-66106088D01*
X95797759Y-66099944D01*
X95646234Y-66049685D01*
X95632868Y-66046819D01*
X95540230Y-66037328D01*
X95533815Y-66037000D01*
X95522115Y-66037000D01*
X95506876Y-66041475D01*
X95505671Y-66042865D01*
X95504000Y-66050548D01*
X94994659Y-66050548D01*
X94991525Y-66039876D01*
X94990135Y-66038671D01*
X94982452Y-66037000D01*
X94966234Y-66037000D01*
X94959718Y-66037337D01*
X94865868Y-66047075D01*
X94852472Y-66049968D01*
X94701047Y-66100488D01*
X94687885Y-66106653D01*
X94552508Y-66190426D01*
X94541110Y-66199460D01*
X94428637Y-66312129D01*
X94419625Y-66323540D01*
X94404708Y-66347740D01*
X94351936Y-66395233D01*
X94281864Y-66406657D01*
X94216740Y-66378383D01*
X94190304Y-66347927D01*
X94174576Y-66322510D01*
X94165540Y-66311110D01*
X94052871Y-66198637D01*
X94041460Y-66189625D01*
X93905937Y-66106088D01*
X93892759Y-66099944D01*
X93741234Y-66049685D01*
X93727868Y-66046819D01*
X93635230Y-66037328D01*
X93628815Y-66037000D01*
X93617115Y-66037000D01*
X93601876Y-66041475D01*
X93600671Y-66042865D01*
X93599000Y-66050548D01*
X93089659Y-66050548D01*
X93086525Y-66039876D01*
X93085135Y-66038671D01*
X93077452Y-66037000D01*
X93061234Y-66037000D01*
X93054718Y-66037337D01*
X92960868Y-66047075D01*
X92947472Y-66049968D01*
X92796047Y-66100488D01*
X92782885Y-66106653D01*
X92647508Y-66190426D01*
X92636110Y-66199460D01*
X92523637Y-66312129D01*
X92514625Y-66323540D01*
X92499708Y-66347740D01*
X92446936Y-66395233D01*
X92376864Y-66406657D01*
X92311740Y-66378383D01*
X92285304Y-66347927D01*
X92269576Y-66322510D01*
X92260540Y-66311110D01*
X92147871Y-66198637D01*
X92136460Y-66189625D01*
X92000937Y-66106088D01*
X91987759Y-66099944D01*
X91836234Y-66049685D01*
X91822868Y-66046819D01*
X91730230Y-66037328D01*
X91723815Y-66037000D01*
X91712115Y-66037000D01*
X91696876Y-66041475D01*
X91695671Y-66042865D01*
X91694000Y-66050548D01*
X91184659Y-66050548D01*
X91181525Y-66039876D01*
X91180135Y-66038671D01*
X91172452Y-66037000D01*
X91156234Y-66037000D01*
X91149718Y-66037337D01*
X91055868Y-66047075D01*
X91042472Y-66049968D01*
X90891047Y-66100488D01*
X90877885Y-66106653D01*
X90742508Y-66190426D01*
X90731110Y-66199460D01*
X90618637Y-66312129D01*
X90609625Y-66323540D01*
X90594708Y-66347740D01*
X90541936Y-66395233D01*
X90471864Y-66406657D01*
X90406740Y-66378383D01*
X90380304Y-66347927D01*
X90364576Y-66322510D01*
X90355540Y-66311110D01*
X90242871Y-66198637D01*
X90231460Y-66189625D01*
X90095937Y-66106088D01*
X90082759Y-66099944D01*
X89931234Y-66049685D01*
X89917868Y-66046819D01*
X89825230Y-66037328D01*
X89818815Y-66037000D01*
X89807115Y-66037000D01*
X89791876Y-66041475D01*
X89790671Y-66042865D01*
X89789000Y-66050548D01*
X89279659Y-66050548D01*
X89276525Y-66039876D01*
X89275135Y-66038671D01*
X89267452Y-66037000D01*
X89251234Y-66037000D01*
X89244718Y-66037337D01*
X89150868Y-66047075D01*
X89137472Y-66049968D01*
X88986047Y-66100488D01*
X88972885Y-66106653D01*
X88837508Y-66190426D01*
X88826110Y-66199460D01*
X88713637Y-66312129D01*
X88704625Y-66323540D01*
X88689708Y-66347740D01*
X88636936Y-66395233D01*
X88566864Y-66406657D01*
X88501740Y-66378383D01*
X88475304Y-66347927D01*
X88459576Y-66322510D01*
X88450540Y-66311110D01*
X88337871Y-66198637D01*
X88326460Y-66189625D01*
X88190937Y-66106088D01*
X88177759Y-66099944D01*
X88026234Y-66049685D01*
X88012868Y-66046819D01*
X87920230Y-66037328D01*
X87913815Y-66037000D01*
X87902115Y-66037000D01*
X87886876Y-66041475D01*
X87885671Y-66042865D01*
X87884000Y-66050548D01*
X87374659Y-66050548D01*
X87371525Y-66039876D01*
X87370135Y-66038671D01*
X87362452Y-66037000D01*
X87346234Y-66037000D01*
X87339718Y-66037337D01*
X87245868Y-66047075D01*
X87232472Y-66049968D01*
X87081047Y-66100488D01*
X87067885Y-66106653D01*
X86932508Y-66190426D01*
X86921110Y-66199460D01*
X86808637Y-66312129D01*
X86799627Y-66323537D01*
X86785003Y-66347263D01*
X86732231Y-66394757D01*
X86662160Y-66406181D01*
X86597036Y-66377908D01*
X86570598Y-66347452D01*
X86570481Y-66347263D01*
X86551116Y-66315969D01*
X86545934Y-66310796D01*
X86433184Y-66198242D01*
X86433179Y-66198238D01*
X86428003Y-66193071D01*
X86279920Y-66101791D01*
X86114809Y-66047026D01*
X86107973Y-66046326D01*
X86107970Y-66046325D01*
X86056474Y-66041049D01*
X86012072Y-66036500D01*
X85437928Y-66036500D01*
X85415590Y-66038818D01*
X85345770Y-66025954D01*
X85313490Y-66002586D01*
X85125404Y-65814499D01*
X85091379Y-65752187D01*
X85088500Y-65725404D01*
X85088500Y-62544594D01*
X85102314Y-62497548D01*
X97152000Y-62497548D01*
X97152000Y-62513766D01*
X97152337Y-62520282D01*
X97162075Y-62614132D01*
X97164968Y-62627528D01*
X97215488Y-62778953D01*
X97221653Y-62792115D01*
X97305426Y-62927492D01*
X97314460Y-62938890D01*
X97427129Y-63051363D01*
X97438540Y-63060375D01*
X97574063Y-63143912D01*
X97587241Y-63150056D01*
X97738766Y-63200315D01*
X97752132Y-63203181D01*
X97844770Y-63212672D01*
X97851185Y-63213000D01*
X97925385Y-63213000D01*
X97940624Y-63208525D01*
X97941829Y-63207135D01*
X97943500Y-63199452D01*
X97943500Y-62502115D01*
X97939025Y-62486876D01*
X97937635Y-62485671D01*
X97929952Y-62484000D01*
X97170115Y-62484000D01*
X97154876Y-62488475D01*
X97153671Y-62489865D01*
X97152000Y-62497548D01*
X85102314Y-62497548D01*
X85108502Y-62476473D01*
X85125405Y-62455499D01*
X86988356Y-60592548D01*
X97152000Y-60592548D01*
X97152000Y-60608766D01*
X97152337Y-60615282D01*
X97162075Y-60709132D01*
X97164968Y-60722528D01*
X97215488Y-60873953D01*
X97221653Y-60887115D01*
X97305426Y-61022492D01*
X97314460Y-61033890D01*
X97427129Y-61146363D01*
X97438540Y-61155375D01*
X97462740Y-61170292D01*
X97510233Y-61223064D01*
X97521657Y-61293136D01*
X97493383Y-61358260D01*
X97462927Y-61384696D01*
X97437510Y-61400424D01*
X97426110Y-61409460D01*
X97313637Y-61522129D01*
X97304625Y-61533540D01*
X97221088Y-61669063D01*
X97214944Y-61682241D01*
X97164685Y-61833766D01*
X97161819Y-61847132D01*
X97152328Y-61939770D01*
X97152000Y-61946185D01*
X97152000Y-61957885D01*
X97156475Y-61973124D01*
X97157865Y-61974329D01*
X97165548Y-61976000D01*
X97925385Y-61976000D01*
X97940624Y-61971525D01*
X97941829Y-61970135D01*
X97943500Y-61962452D01*
X97943500Y-60597115D01*
X97939025Y-60581876D01*
X97937635Y-60580671D01*
X97929952Y-60579000D01*
X97170115Y-60579000D01*
X97154876Y-60583475D01*
X97153671Y-60584865D01*
X97152000Y-60592548D01*
X86988356Y-60592548D01*
X88893356Y-58687548D01*
X97152000Y-58687548D01*
X97152000Y-58703766D01*
X97152337Y-58710282D01*
X97162075Y-58804132D01*
X97164968Y-58817528D01*
X97215488Y-58968953D01*
X97221653Y-58982115D01*
X97305426Y-59117492D01*
X97314460Y-59128890D01*
X97427129Y-59241363D01*
X97438540Y-59250375D01*
X97462740Y-59265292D01*
X97510233Y-59318064D01*
X97521657Y-59388136D01*
X97493383Y-59453260D01*
X97462927Y-59479696D01*
X97437510Y-59495424D01*
X97426110Y-59504460D01*
X97313637Y-59617129D01*
X97304625Y-59628540D01*
X97221088Y-59764063D01*
X97214944Y-59777241D01*
X97164685Y-59928766D01*
X97161819Y-59942132D01*
X97152328Y-60034770D01*
X97152000Y-60041185D01*
X97152000Y-60052885D01*
X97156475Y-60068124D01*
X97157865Y-60069329D01*
X97165548Y-60071000D01*
X97925385Y-60071000D01*
X97940624Y-60066525D01*
X97941829Y-60065135D01*
X97943500Y-60057452D01*
X97943500Y-58692115D01*
X97939025Y-58676876D01*
X97937635Y-58675671D01*
X97929952Y-58674000D01*
X97170115Y-58674000D01*
X97154876Y-58678475D01*
X97153671Y-58679865D01*
X97152000Y-58687548D01*
X88893356Y-58687548D01*
X90798356Y-56782548D01*
X97152000Y-56782548D01*
X97152000Y-56798766D01*
X97152337Y-56805282D01*
X97162075Y-56899132D01*
X97164968Y-56912528D01*
X97215488Y-57063953D01*
X97221653Y-57077115D01*
X97305426Y-57212492D01*
X97314460Y-57223890D01*
X97427129Y-57336363D01*
X97438540Y-57345375D01*
X97462740Y-57360292D01*
X97510233Y-57413064D01*
X97521657Y-57483136D01*
X97493383Y-57548260D01*
X97462927Y-57574696D01*
X97437510Y-57590424D01*
X97426110Y-57599460D01*
X97313637Y-57712129D01*
X97304625Y-57723540D01*
X97221088Y-57859063D01*
X97214944Y-57872241D01*
X97164685Y-58023766D01*
X97161819Y-58037132D01*
X97152328Y-58129770D01*
X97152000Y-58136185D01*
X97152000Y-58147885D01*
X97156475Y-58163124D01*
X97157865Y-58164329D01*
X97165548Y-58166000D01*
X97925385Y-58166000D01*
X97940624Y-58161525D01*
X97941829Y-58160135D01*
X97943500Y-58152452D01*
X97943500Y-56787115D01*
X97939025Y-56771876D01*
X97937635Y-56770671D01*
X97929952Y-56769000D01*
X97170115Y-56769000D01*
X97154876Y-56773475D01*
X97153671Y-56774865D01*
X97152000Y-56782548D01*
X90798356Y-56782548D01*
X92703356Y-54877548D01*
X97152000Y-54877548D01*
X97152000Y-54893766D01*
X97152337Y-54900282D01*
X97162075Y-54994132D01*
X97164968Y-55007528D01*
X97215488Y-55158953D01*
X97221653Y-55172115D01*
X97305426Y-55307492D01*
X97314460Y-55318890D01*
X97427129Y-55431363D01*
X97438540Y-55440375D01*
X97462740Y-55455292D01*
X97510233Y-55508064D01*
X97521657Y-55578136D01*
X97493383Y-55643260D01*
X97462927Y-55669696D01*
X97437510Y-55685424D01*
X97426110Y-55694460D01*
X97313637Y-55807129D01*
X97304625Y-55818540D01*
X97221088Y-55954063D01*
X97214944Y-55967241D01*
X97164685Y-56118766D01*
X97161819Y-56132132D01*
X97152328Y-56224770D01*
X97152000Y-56231185D01*
X97152000Y-56242885D01*
X97156475Y-56258124D01*
X97157865Y-56259329D01*
X97165548Y-56261000D01*
X97925385Y-56261000D01*
X97940624Y-56256525D01*
X97941829Y-56255135D01*
X97943500Y-56247452D01*
X97943500Y-54882115D01*
X97939025Y-54866876D01*
X97937635Y-54865671D01*
X97929952Y-54864000D01*
X97170115Y-54864000D01*
X97154876Y-54868475D01*
X97153671Y-54869865D01*
X97152000Y-54877548D01*
X92703356Y-54877548D01*
X95475499Y-52105405D01*
X95537811Y-52071379D01*
X95564594Y-52068500D01*
X97069308Y-52068500D01*
X97137429Y-52088502D01*
X97183922Y-52142158D01*
X97194026Y-52212432D01*
X97188903Y-52234160D01*
X97162026Y-52315191D01*
X97151500Y-52417928D01*
X97151500Y-52992072D01*
X97162293Y-53096093D01*
X97217346Y-53261107D01*
X97308884Y-53409031D01*
X97314066Y-53414204D01*
X97426816Y-53526758D01*
X97426821Y-53526762D01*
X97431997Y-53531929D01*
X97462266Y-53550587D01*
X97509758Y-53603357D01*
X97521182Y-53673428D01*
X97492909Y-53738553D01*
X97462452Y-53764990D01*
X97437510Y-53780425D01*
X97426110Y-53789460D01*
X97313637Y-53902129D01*
X97304625Y-53913540D01*
X97221088Y-54049063D01*
X97214944Y-54062241D01*
X97164685Y-54213766D01*
X97161819Y-54227132D01*
X97152328Y-54319770D01*
X97152000Y-54326185D01*
X97152000Y-54337885D01*
X97156475Y-54353124D01*
X97157865Y-54354329D01*
X97165548Y-54356000D01*
X98325500Y-54356000D01*
X98393621Y-54376002D01*
X98440114Y-54429658D01*
X98451500Y-54482000D01*
X98451500Y-63194885D01*
X98455975Y-63210124D01*
X98457365Y-63211329D01*
X98465048Y-63213000D01*
X98543766Y-63213000D01*
X98550282Y-63212663D01*
X98644132Y-63202925D01*
X98657528Y-63200032D01*
X98808953Y-63149512D01*
X98822115Y-63143347D01*
X98957492Y-63059574D01*
X98968894Y-63050536D01*
X98970567Y-63048861D01*
X98971993Y-63048081D01*
X98974627Y-63045993D01*
X98974984Y-63046444D01*
X99032849Y-63014781D01*
X99103669Y-63019784D01*
X99148754Y-63048701D01*
X99150593Y-63050536D01*
X99156997Y-63056929D01*
X99163227Y-63060769D01*
X99163228Y-63060770D01*
X99294000Y-63141379D01*
X99305080Y-63148209D01*
X99353038Y-63164116D01*
X99353581Y-63164296D01*
X99411941Y-63204727D01*
X99439178Y-63270291D01*
X99437292Y-63307506D01*
X99436458Y-63310072D01*
X99435768Y-63316635D01*
X99435767Y-63316642D01*
X99420620Y-63460765D01*
X99416496Y-63500000D01*
X99436458Y-63689928D01*
X99495473Y-63871556D01*
X99498776Y-63877278D01*
X99498777Y-63877279D01*
X99525120Y-63922906D01*
X99590960Y-64036944D01*
X99595378Y-64041851D01*
X99595379Y-64041852D01*
X99639753Y-64091134D01*
X99718747Y-64178866D01*
X99873248Y-64291118D01*
X99879276Y-64293802D01*
X99879278Y-64293803D01*
X99982489Y-64339755D01*
X100047712Y-64368794D01*
X100133496Y-64387028D01*
X100228056Y-64407128D01*
X100228061Y-64407128D01*
X100234513Y-64408500D01*
X100425487Y-64408500D01*
X100431939Y-64407128D01*
X100431944Y-64407128D01*
X100526504Y-64387028D01*
X100612288Y-64368794D01*
X100677511Y-64339755D01*
X100780722Y-64293803D01*
X100780724Y-64293802D01*
X100786752Y-64291118D01*
X100941253Y-64178866D01*
X101020247Y-64091134D01*
X101064621Y-64041852D01*
X101064622Y-64041851D01*
X101069040Y-64036944D01*
X101134880Y-63922906D01*
X101161223Y-63877279D01*
X101161224Y-63877278D01*
X101164527Y-63871556D01*
X101223542Y-63689928D01*
X101243504Y-63500000D01*
X101239380Y-63460765D01*
X101224232Y-63316635D01*
X101224232Y-63316633D01*
X101223542Y-63310072D01*
X101164527Y-63128444D01*
X101152697Y-63107953D01*
X101099047Y-63015030D01*
X101069040Y-62963056D01*
X100995863Y-62881785D01*
X100965147Y-62817779D01*
X100963500Y-62797476D01*
X100963500Y-62716267D01*
X100964027Y-62705084D01*
X100965702Y-62697591D01*
X100963562Y-62629514D01*
X100963500Y-62625555D01*
X100963500Y-62597644D01*
X100963004Y-62593714D01*
X100962761Y-62589857D01*
X100963169Y-62569108D01*
X100968172Y-62520272D01*
X100968500Y-62517072D01*
X100968500Y-61942928D01*
X100965315Y-61912232D01*
X100958419Y-61845765D01*
X100958418Y-61845761D01*
X100957707Y-61838907D01*
X100955181Y-61831334D01*
X100904972Y-61680841D01*
X100902654Y-61673893D01*
X100811116Y-61525969D01*
X100766306Y-61481237D01*
X100693184Y-61408242D01*
X100693179Y-61408238D01*
X100688003Y-61403071D01*
X100681769Y-61399228D01*
X100658211Y-61384706D01*
X100610718Y-61331933D01*
X100599296Y-61261861D01*
X100627570Y-61196738D01*
X100658021Y-61170306D01*
X100689031Y-61151116D01*
X100725864Y-61114219D01*
X100806758Y-61033184D01*
X100806762Y-61033179D01*
X100811929Y-61028003D01*
X100815962Y-61021460D01*
X100899369Y-60886150D01*
X100899370Y-60886148D01*
X100903209Y-60879920D01*
X100957974Y-60714809D01*
X100959478Y-60700135D01*
X100968172Y-60615271D01*
X100968500Y-60612072D01*
X100968500Y-60037928D01*
X100963524Y-59989968D01*
X100958419Y-59940765D01*
X100958418Y-59940761D01*
X100957707Y-59933907D01*
X100902654Y-59768893D01*
X100811116Y-59620969D01*
X100730225Y-59540219D01*
X100693184Y-59503242D01*
X100693179Y-59503238D01*
X100688003Y-59498071D01*
X100681769Y-59494228D01*
X100658211Y-59479706D01*
X100610718Y-59426933D01*
X100599296Y-59356861D01*
X100627570Y-59291738D01*
X100658021Y-59265306D01*
X100689031Y-59246116D01*
X100730294Y-59204781D01*
X100806758Y-59128184D01*
X100806762Y-59128179D01*
X100811929Y-59123003D01*
X100815962Y-59116460D01*
X100899369Y-58981150D01*
X100899370Y-58981148D01*
X100903209Y-58974920D01*
X100957974Y-58809809D01*
X100968500Y-58707072D01*
X100968500Y-58132928D01*
X100968163Y-58129678D01*
X100958419Y-58035765D01*
X100958418Y-58035761D01*
X100957707Y-58028907D01*
X100902654Y-57863893D01*
X100811116Y-57715969D01*
X100730225Y-57635219D01*
X100693184Y-57598242D01*
X100693179Y-57598238D01*
X100688003Y-57593071D01*
X100681769Y-57589228D01*
X100658211Y-57574706D01*
X100610718Y-57521933D01*
X100599296Y-57451861D01*
X100627570Y-57386738D01*
X100658021Y-57360306D01*
X100689031Y-57341116D01*
X100730294Y-57299781D01*
X100806758Y-57223184D01*
X100806762Y-57223179D01*
X100811929Y-57218003D01*
X100815962Y-57211460D01*
X100899369Y-57076150D01*
X100899370Y-57076148D01*
X100903209Y-57069920D01*
X100957974Y-56904809D01*
X100968500Y-56802072D01*
X100968500Y-56227928D01*
X100968163Y-56224678D01*
X100958419Y-56130765D01*
X100958418Y-56130761D01*
X100957707Y-56123907D01*
X100902654Y-55958893D01*
X100811116Y-55810969D01*
X100730225Y-55730219D01*
X100693184Y-55693242D01*
X100693179Y-55693238D01*
X100688003Y-55688071D01*
X100681769Y-55684228D01*
X100658211Y-55669706D01*
X100610718Y-55616933D01*
X100599296Y-55546861D01*
X100627570Y-55481738D01*
X100658021Y-55455306D01*
X100689031Y-55436116D01*
X100730294Y-55394781D01*
X100806758Y-55318184D01*
X100806762Y-55318179D01*
X100811929Y-55313003D01*
X100815962Y-55306460D01*
X100899369Y-55171150D01*
X100899370Y-55171148D01*
X100903209Y-55164920D01*
X100957974Y-54999809D01*
X100968500Y-54897072D01*
X100968500Y-54322928D01*
X100965631Y-54295274D01*
X100958419Y-54225765D01*
X100958418Y-54225761D01*
X100957707Y-54218907D01*
X100902654Y-54053893D01*
X100811116Y-53905969D01*
X100805934Y-53900796D01*
X100693184Y-53788242D01*
X100693179Y-53788238D01*
X100688003Y-53783071D01*
X100681769Y-53779228D01*
X100658211Y-53764706D01*
X100610718Y-53711933D01*
X100599296Y-53641861D01*
X100627570Y-53576738D01*
X100658021Y-53550306D01*
X100689031Y-53531116D01*
X100694204Y-53525934D01*
X100806758Y-53413184D01*
X100806762Y-53413179D01*
X100811929Y-53408003D01*
X100815770Y-53401772D01*
X100899369Y-53266150D01*
X100899370Y-53266148D01*
X100903209Y-53259920D01*
X100957974Y-53094809D01*
X100968500Y-52992072D01*
X100968500Y-52417928D01*
X100957707Y-52313907D01*
X100955526Y-52307369D01*
X100955526Y-52307368D01*
X100933823Y-52242317D01*
X100931239Y-52171367D01*
X100967423Y-52110283D01*
X101030887Y-52078459D01*
X101101482Y-52085998D01*
X101142442Y-52113346D01*
X101559595Y-52530499D01*
X101593621Y-52592811D01*
X101596500Y-52619594D01*
X101596500Y-52992072D01*
X101607293Y-53096093D01*
X101662346Y-53261107D01*
X101753884Y-53409031D01*
X101759066Y-53414204D01*
X101871816Y-53526758D01*
X101871821Y-53526762D01*
X101876997Y-53531929D01*
X101883229Y-53535771D01*
X101883231Y-53535772D01*
X101906789Y-53550294D01*
X101954282Y-53603067D01*
X101965704Y-53673139D01*
X101937430Y-53738262D01*
X101906979Y-53764694D01*
X101875969Y-53783884D01*
X101870796Y-53789066D01*
X101758242Y-53901816D01*
X101758238Y-53901821D01*
X101753071Y-53906997D01*
X101749231Y-53913227D01*
X101749230Y-53913228D01*
X101666364Y-54047662D01*
X101661791Y-54055080D01*
X101607026Y-54220191D01*
X101596500Y-54322928D01*
X101596500Y-54897072D01*
X101596837Y-54900318D01*
X101596837Y-54900322D01*
X101606571Y-54994132D01*
X101607293Y-55001093D01*
X101662346Y-55166107D01*
X101753884Y-55314031D01*
X101759066Y-55319204D01*
X101871816Y-55431758D01*
X101871821Y-55431762D01*
X101876997Y-55436929D01*
X101883229Y-55440771D01*
X101883231Y-55440772D01*
X101906789Y-55455294D01*
X101954282Y-55508067D01*
X101965704Y-55578139D01*
X101937430Y-55643262D01*
X101906979Y-55669694D01*
X101875969Y-55688884D01*
X101870797Y-55694065D01*
X101870796Y-55694066D01*
X101758242Y-55806816D01*
X101758238Y-55806821D01*
X101753071Y-55811997D01*
X101749231Y-55818227D01*
X101749230Y-55818228D01*
X101666364Y-55952662D01*
X101661791Y-55960080D01*
X101607026Y-56125191D01*
X101596500Y-56227928D01*
X101596500Y-56802072D01*
X101596837Y-56805318D01*
X101596837Y-56805322D01*
X101606571Y-56899132D01*
X101607293Y-56906093D01*
X101662346Y-57071107D01*
X101753884Y-57219031D01*
X101759066Y-57224204D01*
X101871816Y-57336758D01*
X101871821Y-57336762D01*
X101876997Y-57341929D01*
X101883229Y-57345771D01*
X101883231Y-57345772D01*
X101906789Y-57360294D01*
X101954282Y-57413067D01*
X101965704Y-57483139D01*
X101937430Y-57548262D01*
X101906979Y-57574694D01*
X101875969Y-57593884D01*
X101870797Y-57599065D01*
X101870796Y-57599066D01*
X101758242Y-57711816D01*
X101758238Y-57711821D01*
X101753071Y-57716997D01*
X101749231Y-57723227D01*
X101749230Y-57723228D01*
X101666364Y-57857662D01*
X101661791Y-57865080D01*
X101607026Y-58030191D01*
X101596500Y-58132928D01*
X101596500Y-58707072D01*
X101596837Y-58710318D01*
X101596837Y-58710322D01*
X101606571Y-58804132D01*
X101607293Y-58811093D01*
X101662346Y-58976107D01*
X101753884Y-59124031D01*
X101759066Y-59129204D01*
X101871816Y-59241758D01*
X101871821Y-59241762D01*
X101876997Y-59246929D01*
X101883229Y-59250771D01*
X101883231Y-59250772D01*
X101906789Y-59265294D01*
X101954282Y-59318067D01*
X101965704Y-59388139D01*
X101937430Y-59453262D01*
X101906979Y-59479694D01*
X101875969Y-59498884D01*
X101870797Y-59504065D01*
X101870796Y-59504066D01*
X101758242Y-59616816D01*
X101758238Y-59616821D01*
X101753071Y-59621997D01*
X101749231Y-59628227D01*
X101749230Y-59628228D01*
X101666364Y-59762662D01*
X101661791Y-59770080D01*
X101607026Y-59935191D01*
X101606326Y-59942027D01*
X101606325Y-59942030D01*
X101601787Y-59986325D01*
X101596500Y-60037928D01*
X101596500Y-60612072D01*
X101596837Y-60615318D01*
X101596837Y-60615322D01*
X101606571Y-60709132D01*
X101607293Y-60716093D01*
X101662346Y-60881107D01*
X101753884Y-61029031D01*
X101759066Y-61034204D01*
X101871816Y-61146758D01*
X101871821Y-61146762D01*
X101876997Y-61151929D01*
X101883229Y-61155771D01*
X101883231Y-61155772D01*
X101906789Y-61170294D01*
X101954282Y-61223067D01*
X101965704Y-61293139D01*
X101937430Y-61358262D01*
X101906979Y-61384694D01*
X101875969Y-61403884D01*
X101870797Y-61409065D01*
X101870796Y-61409066D01*
X101758242Y-61521816D01*
X101758238Y-61521821D01*
X101753071Y-61526997D01*
X101749231Y-61533227D01*
X101749230Y-61533228D01*
X101666235Y-61667871D01*
X101661791Y-61675080D01*
X101607026Y-61840191D01*
X101606326Y-61847027D01*
X101606325Y-61847030D01*
X101603009Y-61879398D01*
X101596500Y-61942928D01*
X101596500Y-62517072D01*
X101596837Y-62520318D01*
X101596837Y-62520322D01*
X101606571Y-62614132D01*
X101607293Y-62621093D01*
X101609474Y-62627629D01*
X101609474Y-62627631D01*
X101650712Y-62751237D01*
X101662346Y-62786107D01*
X101753884Y-62934031D01*
X101876997Y-63056929D01*
X101882115Y-63060084D01*
X101922868Y-63117560D01*
X101926102Y-63188483D01*
X101923550Y-63197453D01*
X101886958Y-63310072D01*
X101886268Y-63316633D01*
X101886268Y-63316635D01*
X101871120Y-63460765D01*
X101866996Y-63500000D01*
X101886958Y-63689928D01*
X101945973Y-63871556D01*
X101949276Y-63877278D01*
X101949277Y-63877279D01*
X101975620Y-63922906D01*
X102041460Y-64036944D01*
X102045878Y-64041851D01*
X102045879Y-64041852D01*
X102090253Y-64091134D01*
X102169247Y-64178866D01*
X102323748Y-64291118D01*
X102329776Y-64293802D01*
X102329778Y-64293803D01*
X102432989Y-64339755D01*
X102498212Y-64368794D01*
X102583996Y-64387028D01*
X102678556Y-64407128D01*
X102678561Y-64407128D01*
X102685013Y-64408500D01*
X102875987Y-64408500D01*
X102882439Y-64407128D01*
X102882444Y-64407128D01*
X102977004Y-64387028D01*
X103062788Y-64368794D01*
X103128011Y-64339755D01*
X103231222Y-64293803D01*
X103231224Y-64293802D01*
X103237252Y-64291118D01*
X103285591Y-64255998D01*
X103370171Y-64194546D01*
X103391753Y-64178866D01*
X103396168Y-64173963D01*
X103401080Y-64169540D01*
X103402205Y-64170789D01*
X103455514Y-64137949D01*
X103488700Y-64133500D01*
X104066800Y-64133500D01*
X104134921Y-64153502D01*
X104154147Y-64169843D01*
X104154420Y-64169540D01*
X104159332Y-64173963D01*
X104163747Y-64178866D01*
X104185329Y-64194546D01*
X104269910Y-64255998D01*
X104318248Y-64291118D01*
X104324276Y-64293802D01*
X104324278Y-64293803D01*
X104427489Y-64339755D01*
X104492712Y-64368794D01*
X104578496Y-64387028D01*
X104673056Y-64407128D01*
X104673061Y-64407128D01*
X104679513Y-64408500D01*
X104870487Y-64408500D01*
X104876939Y-64407128D01*
X104876944Y-64407128D01*
X104971504Y-64387028D01*
X105057288Y-64368794D01*
X105122511Y-64339755D01*
X105225722Y-64293803D01*
X105225724Y-64293802D01*
X105231752Y-64291118D01*
X105386253Y-64178866D01*
X105465247Y-64091134D01*
X105509621Y-64041852D01*
X105509622Y-64041851D01*
X105514040Y-64036944D01*
X105579880Y-63922906D01*
X105606223Y-63877279D01*
X105606224Y-63877278D01*
X105609527Y-63871556D01*
X105668542Y-63689928D01*
X105688504Y-63500000D01*
X105684380Y-63460765D01*
X105669232Y-63316635D01*
X105669232Y-63316633D01*
X105668542Y-63310072D01*
X105609527Y-63128444D01*
X105597697Y-63107953D01*
X105544047Y-63015030D01*
X105514040Y-62963056D01*
X105398305Y-62834519D01*
X105367590Y-62770515D01*
X105372350Y-62710544D01*
X105400316Y-62626231D01*
X105403181Y-62612868D01*
X105412672Y-62520230D01*
X105413000Y-62513815D01*
X105413000Y-62502115D01*
X105408525Y-62486876D01*
X105407135Y-62485671D01*
X105399452Y-62484000D01*
X104239500Y-62484000D01*
X104171379Y-62463998D01*
X104124886Y-62410342D01*
X104113500Y-62358000D01*
X104113500Y-62230000D01*
X105766496Y-62230000D01*
X105767186Y-62236565D01*
X105782670Y-62383884D01*
X105786458Y-62419928D01*
X105845473Y-62601556D01*
X105848776Y-62607278D01*
X105848777Y-62607279D01*
X105862591Y-62631206D01*
X105940960Y-62766944D01*
X105945378Y-62771851D01*
X105945379Y-62771852D01*
X106037780Y-62874474D01*
X106068747Y-62908866D01*
X106142348Y-62962340D01*
X106188607Y-62995950D01*
X106231961Y-63052173D01*
X106237141Y-63068794D01*
X106254266Y-63140958D01*
X106257548Y-63147497D01*
X106257548Y-63147498D01*
X106289582Y-63211329D01*
X106332293Y-63296434D01*
X106336634Y-63301767D01*
X106336636Y-63301769D01*
X106395465Y-63374029D01*
X106395471Y-63374035D01*
X106397496Y-63376523D01*
X106803477Y-63782504D01*
X106884663Y-63848426D01*
X107040273Y-63926181D01*
X107047399Y-63927859D01*
X107047402Y-63927860D01*
X107202475Y-63964374D01*
X107202479Y-63964374D01*
X107209599Y-63966051D01*
X107216915Y-63966045D01*
X107216918Y-63966045D01*
X107282676Y-63965987D01*
X107357862Y-63965921D01*
X107425998Y-63985863D01*
X107472538Y-64039478D01*
X107483970Y-64091811D01*
X107484101Y-64241703D01*
X107524266Y-64410958D01*
X107527551Y-64417503D01*
X107527551Y-64417504D01*
X107574474Y-64511002D01*
X107602293Y-64566434D01*
X107606634Y-64571767D01*
X107606636Y-64571769D01*
X107665465Y-64644029D01*
X107665471Y-64644035D01*
X107667496Y-64646523D01*
X108073477Y-65052504D01*
X108154663Y-65118426D01*
X108310273Y-65196181D01*
X108317405Y-65197860D01*
X108317404Y-65197860D01*
X108380793Y-65212786D01*
X108442517Y-65247869D01*
X108461033Y-65272430D01*
X108480960Y-65306944D01*
X108485378Y-65311851D01*
X108485379Y-65311852D01*
X108514195Y-65343855D01*
X108608747Y-65448866D01*
X108763248Y-65561118D01*
X108769276Y-65563802D01*
X108769278Y-65563803D01*
X108900751Y-65622338D01*
X108937712Y-65638794D01*
X109031112Y-65658647D01*
X109118056Y-65677128D01*
X109118061Y-65677128D01*
X109124513Y-65678500D01*
X109315487Y-65678500D01*
X109321939Y-65677128D01*
X109321944Y-65677128D01*
X109408888Y-65658647D01*
X109502288Y-65638794D01*
X109539249Y-65622338D01*
X109670722Y-65563803D01*
X109670724Y-65563802D01*
X109676752Y-65561118D01*
X109831253Y-65448866D01*
X109925805Y-65343855D01*
X109954621Y-65311852D01*
X109954622Y-65311851D01*
X109959040Y-65306944D01*
X110054527Y-65141556D01*
X110113542Y-64959928D01*
X110124157Y-64858937D01*
X110132814Y-64776565D01*
X110133504Y-64770000D01*
X110113542Y-64580072D01*
X110054527Y-64398444D01*
X109959040Y-64233056D01*
X109953422Y-64226816D01*
X109924776Y-64195002D01*
X109894059Y-64130995D01*
X109902823Y-64060541D01*
X109948285Y-64006010D01*
X109989317Y-63988097D01*
X110035277Y-63977190D01*
X110048940Y-63972217D01*
X110191621Y-63900612D01*
X110203104Y-63893183D01*
X110275316Y-63834393D01*
X110280089Y-63830083D01*
X110332549Y-63777623D01*
X110340163Y-63763679D01*
X110340032Y-63761846D01*
X110335781Y-63755231D01*
X109471802Y-62891252D01*
X110194288Y-62891252D01*
X110194419Y-62893085D01*
X110198670Y-62899700D01*
X110691759Y-63392789D01*
X110705703Y-63400403D01*
X110707536Y-63400272D01*
X110714151Y-63396021D01*
X110769803Y-63340369D01*
X110774187Y-63335507D01*
X110833657Y-63262266D01*
X110841086Y-63250746D01*
X110912435Y-63107953D01*
X110917383Y-63094283D01*
X110953874Y-62939317D01*
X110955545Y-62924877D01*
X110955406Y-62765673D01*
X110953710Y-62751237D01*
X110916950Y-62596336D01*
X110911977Y-62582672D01*
X110840372Y-62439992D01*
X110832943Y-62428508D01*
X110774153Y-62356296D01*
X110769843Y-62351523D01*
X110761577Y-62343257D01*
X110747633Y-62335643D01*
X110745800Y-62335774D01*
X110739185Y-62340025D01*
X110201902Y-62877308D01*
X110194288Y-62891252D01*
X109471802Y-62891252D01*
X108201802Y-61621252D01*
X108924288Y-61621252D01*
X108924419Y-61623085D01*
X108928670Y-61629700D01*
X109817068Y-62518098D01*
X109831012Y-62525712D01*
X109832845Y-62525581D01*
X109839460Y-62521330D01*
X110376743Y-61984047D01*
X110384357Y-61970103D01*
X110384226Y-61968270D01*
X110379975Y-61961655D01*
X110368517Y-61950197D01*
X110363655Y-61945813D01*
X110290414Y-61886343D01*
X110278894Y-61878914D01*
X110136102Y-61807565D01*
X110122432Y-61802617D01*
X109967465Y-61766126D01*
X109953025Y-61764455D01*
X109811640Y-61764578D01*
X109743502Y-61744635D01*
X109696963Y-61691020D01*
X109685531Y-61638688D01*
X109685406Y-61495673D01*
X109683710Y-61481237D01*
X109646950Y-61326336D01*
X109641977Y-61312672D01*
X109570372Y-61169992D01*
X109562943Y-61158508D01*
X109504153Y-61086296D01*
X109499843Y-61081523D01*
X109491577Y-61073257D01*
X109477633Y-61065643D01*
X109475800Y-61065774D01*
X109469185Y-61070025D01*
X108931902Y-61607308D01*
X108924288Y-61621252D01*
X108201802Y-61621252D01*
X107698001Y-61117451D01*
X107684057Y-61109837D01*
X107682224Y-61109968D01*
X107675609Y-61114219D01*
X107619957Y-61169871D01*
X107615573Y-61174733D01*
X107556103Y-61247974D01*
X107548674Y-61259494D01*
X107477325Y-61402287D01*
X107472374Y-61415964D01*
X107462161Y-61459336D01*
X107427078Y-61521058D01*
X107364194Y-61554015D01*
X107293475Y-61547742D01*
X107265457Y-61532392D01*
X107182684Y-61472254D01*
X107142094Y-61442763D01*
X107142093Y-61442762D01*
X107136752Y-61438882D01*
X107130724Y-61436198D01*
X107130722Y-61436197D01*
X106968319Y-61363891D01*
X106968318Y-61363891D01*
X106962288Y-61361206D01*
X106868887Y-61341353D01*
X106781944Y-61322872D01*
X106781939Y-61322872D01*
X106775487Y-61321500D01*
X106584513Y-61321500D01*
X106578061Y-61322872D01*
X106578056Y-61322872D01*
X106491113Y-61341353D01*
X106397712Y-61361206D01*
X106391682Y-61363891D01*
X106391681Y-61363891D01*
X106229278Y-61436197D01*
X106229276Y-61436198D01*
X106223248Y-61438882D01*
X106217907Y-61442762D01*
X106217906Y-61442763D01*
X106167843Y-61479136D01*
X106068747Y-61551134D01*
X106064326Y-61556044D01*
X106064325Y-61556045D01*
X105950890Y-61682028D01*
X105940960Y-61693056D01*
X105845473Y-61858444D01*
X105786458Y-62040072D01*
X105785768Y-62046633D01*
X105785768Y-62046635D01*
X105775715Y-62142289D01*
X105766496Y-62230000D01*
X104113500Y-62230000D01*
X104113500Y-60592548D01*
X104621500Y-60592548D01*
X104621500Y-61957885D01*
X104625975Y-61973124D01*
X104627365Y-61974329D01*
X104635048Y-61976000D01*
X105394885Y-61976000D01*
X105410124Y-61971525D01*
X105411329Y-61970135D01*
X105413000Y-61962452D01*
X105413000Y-61946234D01*
X105412663Y-61939718D01*
X105402925Y-61845868D01*
X105400032Y-61832472D01*
X105349512Y-61681047D01*
X105343347Y-61667885D01*
X105259574Y-61532508D01*
X105250540Y-61521110D01*
X105137871Y-61408637D01*
X105126460Y-61399625D01*
X105102260Y-61384708D01*
X105054767Y-61331936D01*
X105043343Y-61261864D01*
X105071617Y-61196740D01*
X105102073Y-61170304D01*
X105127490Y-61154576D01*
X105138890Y-61145540D01*
X105251363Y-61032871D01*
X105260375Y-61021460D01*
X105343912Y-60885937D01*
X105350056Y-60872759D01*
X105391914Y-60746561D01*
X108049597Y-60746561D01*
X108049728Y-60748394D01*
X108053979Y-60755009D01*
X108547068Y-61248098D01*
X108561012Y-61255712D01*
X108562845Y-61255581D01*
X108569460Y-61251330D01*
X109106743Y-60714047D01*
X109114357Y-60700103D01*
X109114226Y-60698270D01*
X109109975Y-60691655D01*
X109098517Y-60680197D01*
X109093655Y-60675813D01*
X109020414Y-60616343D01*
X109008894Y-60608914D01*
X108866102Y-60537565D01*
X108852432Y-60532617D01*
X108697465Y-60496126D01*
X108683025Y-60494455D01*
X108523821Y-60494594D01*
X108509385Y-60496290D01*
X108354485Y-60533050D01*
X108340820Y-60538023D01*
X108198139Y-60609628D01*
X108186656Y-60617057D01*
X108114444Y-60675847D01*
X108109671Y-60680157D01*
X108057211Y-60732617D01*
X108049597Y-60746561D01*
X105391914Y-60746561D01*
X105400315Y-60721234D01*
X105403181Y-60707868D01*
X105412672Y-60615230D01*
X105413000Y-60608815D01*
X105413000Y-60597115D01*
X105408525Y-60581876D01*
X105407135Y-60580671D01*
X105399452Y-60579000D01*
X104639615Y-60579000D01*
X104624376Y-60583475D01*
X104623171Y-60584865D01*
X104621500Y-60592548D01*
X104113500Y-60592548D01*
X104113500Y-58687548D01*
X104621500Y-58687548D01*
X104621500Y-60052885D01*
X104625975Y-60068124D01*
X104627365Y-60069329D01*
X104635048Y-60071000D01*
X105394885Y-60071000D01*
X105410124Y-60066525D01*
X105411329Y-60065135D01*
X105413000Y-60057452D01*
X105413000Y-60041234D01*
X105412663Y-60034718D01*
X105402925Y-59940868D01*
X105400032Y-59927472D01*
X105349512Y-59776047D01*
X105343347Y-59762885D01*
X105259574Y-59627508D01*
X105250540Y-59616110D01*
X105137871Y-59503637D01*
X105126460Y-59494625D01*
X105102260Y-59479708D01*
X105054767Y-59426936D01*
X105043343Y-59356864D01*
X105071617Y-59291740D01*
X105102073Y-59265304D01*
X105127490Y-59249576D01*
X105138890Y-59240540D01*
X105251363Y-59127871D01*
X105260375Y-59116460D01*
X105343912Y-58980937D01*
X105350056Y-58967759D01*
X105400315Y-58816234D01*
X105403181Y-58802868D01*
X105412672Y-58710230D01*
X105413000Y-58703815D01*
X105413000Y-58692115D01*
X105408525Y-58676876D01*
X105407135Y-58675671D01*
X105399452Y-58674000D01*
X104639615Y-58674000D01*
X104624376Y-58678475D01*
X104623171Y-58679865D01*
X104621500Y-58687548D01*
X104113500Y-58687548D01*
X104113500Y-56782548D01*
X104621500Y-56782548D01*
X104621500Y-58147885D01*
X104625975Y-58163124D01*
X104627365Y-58164329D01*
X104635048Y-58166000D01*
X105394885Y-58166000D01*
X105410124Y-58161525D01*
X105411329Y-58160135D01*
X105413000Y-58152452D01*
X105413000Y-58136234D01*
X105412663Y-58129718D01*
X105402925Y-58035868D01*
X105400032Y-58022472D01*
X105349512Y-57871047D01*
X105343347Y-57857885D01*
X105259574Y-57722508D01*
X105250540Y-57711110D01*
X105137871Y-57598637D01*
X105126460Y-57589625D01*
X105102260Y-57574708D01*
X105054767Y-57521936D01*
X105043343Y-57451864D01*
X105071617Y-57386740D01*
X105102073Y-57360304D01*
X105127490Y-57344576D01*
X105138890Y-57335540D01*
X105251363Y-57222871D01*
X105260375Y-57211460D01*
X105343912Y-57075937D01*
X105350056Y-57062759D01*
X105400315Y-56911234D01*
X105403181Y-56897868D01*
X105412672Y-56805230D01*
X105413000Y-56798815D01*
X105413000Y-56787115D01*
X105408525Y-56771876D01*
X105407135Y-56770671D01*
X105399452Y-56769000D01*
X104639615Y-56769000D01*
X104624376Y-56773475D01*
X104623171Y-56774865D01*
X104621500Y-56782548D01*
X104113500Y-56782548D01*
X104113500Y-54877548D01*
X104621500Y-54877548D01*
X104621500Y-56242885D01*
X104625975Y-56258124D01*
X104627365Y-56259329D01*
X104635048Y-56261000D01*
X105394885Y-56261000D01*
X105410124Y-56256525D01*
X105411329Y-56255135D01*
X105413000Y-56247452D01*
X105413000Y-56231234D01*
X105412663Y-56224718D01*
X105402925Y-56130868D01*
X105400032Y-56117472D01*
X105349512Y-55966047D01*
X105343347Y-55952885D01*
X105259574Y-55817508D01*
X105250540Y-55806110D01*
X105137871Y-55693637D01*
X105126460Y-55684625D01*
X105102260Y-55669708D01*
X105054767Y-55616936D01*
X105043343Y-55546864D01*
X105071617Y-55481740D01*
X105102073Y-55455304D01*
X105127490Y-55439576D01*
X105138890Y-55430540D01*
X105251363Y-55317871D01*
X105260375Y-55306460D01*
X105343912Y-55170937D01*
X105350056Y-55157759D01*
X105400315Y-55006234D01*
X105403181Y-54992868D01*
X105412672Y-54900230D01*
X105413000Y-54893815D01*
X105413000Y-54882115D01*
X105408525Y-54866876D01*
X105407135Y-54865671D01*
X105399452Y-54864000D01*
X104639615Y-54864000D01*
X104624376Y-54868475D01*
X104623171Y-54869865D01*
X104621500Y-54877548D01*
X104113500Y-54877548D01*
X104113500Y-54482000D01*
X104133502Y-54413879D01*
X104187158Y-54367386D01*
X104239500Y-54356000D01*
X105394885Y-54356000D01*
X105410124Y-54351525D01*
X105411329Y-54350135D01*
X105413000Y-54342452D01*
X105413000Y-54326234D01*
X105412663Y-54319718D01*
X105402925Y-54225868D01*
X105400032Y-54212472D01*
X105349512Y-54061047D01*
X105343347Y-54047885D01*
X105259574Y-53912508D01*
X105250540Y-53901110D01*
X105137871Y-53788637D01*
X105126463Y-53779627D01*
X105102737Y-53765003D01*
X105055243Y-53712231D01*
X105043819Y-53642160D01*
X105072092Y-53577036D01*
X105102548Y-53550598D01*
X105102569Y-53550585D01*
X105134031Y-53531116D01*
X105139204Y-53525934D01*
X105251758Y-53413184D01*
X105251762Y-53413179D01*
X105256929Y-53408003D01*
X105260770Y-53401772D01*
X105344369Y-53266150D01*
X105344370Y-53266148D01*
X105348209Y-53259920D01*
X105402974Y-53094809D01*
X105413500Y-52992072D01*
X105413500Y-52417928D01*
X105402707Y-52313907D01*
X105400526Y-52307368D01*
X105349972Y-52155841D01*
X105347654Y-52148893D01*
X105256116Y-52000969D01*
X105199915Y-51944866D01*
X105138184Y-51883242D01*
X105138179Y-51883238D01*
X105133003Y-51878071D01*
X104984920Y-51786791D01*
X104819809Y-51732026D01*
X104812973Y-51731326D01*
X104812970Y-51731325D01*
X104761474Y-51726049D01*
X104717072Y-51721500D01*
X104042928Y-51721500D01*
X104039682Y-51721837D01*
X104039678Y-51721837D01*
X103945765Y-51731581D01*
X103945761Y-51731582D01*
X103938907Y-51732293D01*
X103932371Y-51734474D01*
X103932369Y-51734474D01*
X103799605Y-51778768D01*
X103773893Y-51787346D01*
X103767661Y-51791202D01*
X103767662Y-51791202D01*
X103633490Y-51874230D01*
X103625969Y-51878884D01*
X103594121Y-51910787D01*
X103531841Y-51944866D01*
X103461021Y-51939863D01*
X103415933Y-51910943D01*
X103388184Y-51883243D01*
X103388183Y-51883242D01*
X103383003Y-51878071D01*
X103234920Y-51786791D01*
X103069809Y-51732026D01*
X103062973Y-51731326D01*
X103062970Y-51731325D01*
X103011474Y-51726049D01*
X102967072Y-51721500D01*
X102594595Y-51721500D01*
X102526474Y-51701498D01*
X102505500Y-51684595D01*
X101863652Y-51042747D01*
X101856112Y-51034461D01*
X101852000Y-51027982D01*
X101802348Y-50981356D01*
X101799507Y-50978602D01*
X101779770Y-50958865D01*
X101776573Y-50956385D01*
X101767551Y-50948680D01*
X101754116Y-50936064D01*
X101735321Y-50918414D01*
X101728375Y-50914595D01*
X101728372Y-50914593D01*
X101717566Y-50908652D01*
X101701047Y-50897801D01*
X101700583Y-50897441D01*
X101685041Y-50885386D01*
X101677772Y-50882241D01*
X101677768Y-50882238D01*
X101644463Y-50867826D01*
X101633813Y-50862609D01*
X101595060Y-50841305D01*
X101575437Y-50836267D01*
X101556734Y-50829863D01*
X101545420Y-50824967D01*
X101545419Y-50824967D01*
X101538145Y-50821819D01*
X101530322Y-50820580D01*
X101530312Y-50820577D01*
X101494476Y-50814901D01*
X101482856Y-50812495D01*
X101447711Y-50803472D01*
X101447710Y-50803472D01*
X101440030Y-50801500D01*
X101419776Y-50801500D01*
X101400065Y-50799949D01*
X101397534Y-50799548D01*
X101380057Y-50796780D01*
X101372165Y-50797526D01*
X101336039Y-50800941D01*
X101324181Y-50801500D01*
X99119776Y-50801500D01*
X99100065Y-50799949D01*
X99097534Y-50799548D01*
X99080057Y-50796780D01*
X99072165Y-50797526D01*
X99036039Y-50800941D01*
X99024181Y-50801500D01*
X95328763Y-50801500D01*
X95317579Y-50800973D01*
X95310091Y-50799299D01*
X95302168Y-50799548D01*
X95242033Y-50801438D01*
X95238075Y-50801500D01*
X95210144Y-50801500D01*
X95206229Y-50801995D01*
X95206225Y-50801995D01*
X95206167Y-50802003D01*
X95206138Y-50802006D01*
X95194296Y-50802939D01*
X95150110Y-50804327D01*
X95132744Y-50809372D01*
X95130658Y-50809978D01*
X95111306Y-50813986D01*
X95099068Y-50815532D01*
X95099066Y-50815533D01*
X95091203Y-50816526D01*
X95050086Y-50832806D01*
X95038885Y-50836641D01*
X94996406Y-50848982D01*
X94989587Y-50853015D01*
X94989582Y-50853017D01*
X94978971Y-50859293D01*
X94961221Y-50867990D01*
X94942383Y-50875448D01*
X94935967Y-50880109D01*
X94935966Y-50880110D01*
X94906625Y-50901428D01*
X94896701Y-50907947D01*
X94865460Y-50926422D01*
X94865455Y-50926426D01*
X94858637Y-50930458D01*
X94844313Y-50944782D01*
X94829281Y-50957621D01*
X94812893Y-50969528D01*
X94792873Y-50993728D01*
X94784712Y-51003593D01*
X94776722Y-51012373D01*
X84062747Y-61726348D01*
X84054461Y-61733888D01*
X84047982Y-61738000D01*
X84042557Y-61743777D01*
X84001357Y-61787651D01*
X83998602Y-61790493D01*
X83978865Y-61810230D01*
X83976385Y-61813427D01*
X83968682Y-61822447D01*
X83938414Y-61854679D01*
X83934595Y-61861625D01*
X83934593Y-61861628D01*
X83928652Y-61872434D01*
X83917801Y-61888953D01*
X83905386Y-61904959D01*
X83902241Y-61912228D01*
X83902238Y-61912232D01*
X83887826Y-61945537D01*
X83882609Y-61956187D01*
X83861305Y-61994940D01*
X83859334Y-62002615D01*
X83859334Y-62002616D01*
X83856267Y-62014562D01*
X83849863Y-62033266D01*
X83841819Y-62051855D01*
X83840580Y-62059678D01*
X83840577Y-62059688D01*
X83834901Y-62095524D01*
X83832495Y-62107144D01*
X83821500Y-62149970D01*
X83821500Y-62170224D01*
X83819949Y-62189934D01*
X83816780Y-62209943D01*
X83817526Y-62217835D01*
X83820941Y-62253961D01*
X83821500Y-62265819D01*
X83821500Y-63928904D01*
X83801498Y-63997025D01*
X83747842Y-64043518D01*
X83677568Y-64053622D01*
X83612988Y-64024128D01*
X83606405Y-64017999D01*
X83570405Y-63981999D01*
X83536379Y-63919687D01*
X83533500Y-63892904D01*
X83533500Y-63557928D01*
X83527490Y-63500000D01*
X83523419Y-63460765D01*
X83523418Y-63460761D01*
X83522707Y-63453907D01*
X83502317Y-63392789D01*
X83469972Y-63295841D01*
X83467654Y-63288893D01*
X83376116Y-63140969D01*
X83352666Y-63117560D01*
X83258184Y-63023242D01*
X83258179Y-63023238D01*
X83253003Y-63018071D01*
X83217116Y-62995950D01*
X83111150Y-62930631D01*
X83111148Y-62930630D01*
X83104920Y-62926791D01*
X82939809Y-62872026D01*
X82932973Y-62871326D01*
X82932970Y-62871325D01*
X82881474Y-62866049D01*
X82837072Y-62861500D01*
X82262928Y-62861500D01*
X82259682Y-62861837D01*
X82259678Y-62861837D01*
X82165765Y-62871581D01*
X82165761Y-62871582D01*
X82158907Y-62872293D01*
X82152371Y-62874474D01*
X82152369Y-62874474D01*
X82019605Y-62918768D01*
X81993893Y-62927346D01*
X81845969Y-63018884D01*
X81723071Y-63141997D01*
X81719233Y-63148224D01*
X81719231Y-63148226D01*
X81709436Y-63164116D01*
X81656664Y-63211609D01*
X81602176Y-63224000D01*
X81089594Y-63224000D01*
X81021473Y-63203998D01*
X81000499Y-63187095D01*
X79961907Y-62148502D01*
X79927881Y-62086190D01*
X79932946Y-62015374D01*
X79975493Y-61958539D01*
X80037997Y-61934080D01*
X80049132Y-61932925D01*
X80062528Y-61930032D01*
X80213953Y-61879512D01*
X80227115Y-61873347D01*
X80362492Y-61789574D01*
X80373890Y-61780540D01*
X80486363Y-61667871D01*
X80495375Y-61656460D01*
X80578912Y-61520937D01*
X80585056Y-61507759D01*
X80635315Y-61356234D01*
X80638181Y-61342868D01*
X80647672Y-61250230D01*
X80648000Y-61243815D01*
X80648000Y-61232115D01*
X80643525Y-61216876D01*
X80642135Y-61215671D01*
X80634452Y-61214000D01*
X79474500Y-61214000D01*
X79406379Y-61193998D01*
X79359886Y-61140342D01*
X79348500Y-61088000D01*
X79348500Y-59995115D01*
X79347159Y-59990548D01*
X79856500Y-59990548D01*
X79856500Y-60687885D01*
X79860975Y-60703124D01*
X79862365Y-60704329D01*
X79870048Y-60706000D01*
X80629885Y-60706000D01*
X80645124Y-60701525D01*
X80646329Y-60700135D01*
X80648000Y-60692452D01*
X80648000Y-60676234D01*
X80647663Y-60669718D01*
X80637925Y-60575868D01*
X80635032Y-60562472D01*
X80584512Y-60411047D01*
X80578347Y-60397885D01*
X80494574Y-60262508D01*
X80485540Y-60251110D01*
X80372871Y-60138637D01*
X80361460Y-60129625D01*
X80225937Y-60046088D01*
X80212759Y-60039944D01*
X80061234Y-59989685D01*
X80047868Y-59986819D01*
X79955230Y-59977328D01*
X79948815Y-59977000D01*
X79874615Y-59977000D01*
X79859376Y-59981475D01*
X79858171Y-59982865D01*
X79856500Y-59990548D01*
X79347159Y-59990548D01*
X79344025Y-59979876D01*
X79342635Y-59978671D01*
X79334952Y-59977000D01*
X79256234Y-59977000D01*
X79249718Y-59977337D01*
X79155868Y-59987075D01*
X79142472Y-59989968D01*
X78991047Y-60040488D01*
X78977885Y-60046653D01*
X78842508Y-60130426D01*
X78831106Y-60139464D01*
X78829433Y-60141139D01*
X78828007Y-60141919D01*
X78825373Y-60144007D01*
X78825016Y-60143556D01*
X78767151Y-60175219D01*
X78696331Y-60170216D01*
X78651246Y-60141299D01*
X78648185Y-60138244D01*
X78643003Y-60133071D01*
X78494920Y-60041791D01*
X78329809Y-59987026D01*
X78322973Y-59986326D01*
X78322970Y-59986325D01*
X78271474Y-59981049D01*
X78227072Y-59976500D01*
X77527928Y-59976500D01*
X77524682Y-59976837D01*
X77524678Y-59976837D01*
X77430765Y-59986581D01*
X77430761Y-59986582D01*
X77423907Y-59987293D01*
X77417371Y-59989474D01*
X77417369Y-59989474D01*
X77284605Y-60033768D01*
X77258893Y-60042346D01*
X77110969Y-60133884D01*
X77105796Y-60139066D01*
X76993242Y-60251816D01*
X76993238Y-60251821D01*
X76988071Y-60256997D01*
X76984232Y-60263226D01*
X76984229Y-60263229D01*
X76983168Y-60264951D01*
X76982135Y-60265880D01*
X76979693Y-60268973D01*
X76979164Y-60268555D01*
X76930398Y-60312446D01*
X76879866Y-60324777D01*
X76832786Y-60326257D01*
X76827013Y-60326438D01*
X76823055Y-60326500D01*
X76795144Y-60326500D01*
X76791210Y-60326997D01*
X76791209Y-60326997D01*
X76791144Y-60327005D01*
X76779307Y-60327938D01*
X76747490Y-60328938D01*
X76743029Y-60329078D01*
X76735110Y-60329327D01*
X76717454Y-60334456D01*
X76715658Y-60334978D01*
X76696306Y-60338986D01*
X76689235Y-60339880D01*
X76676203Y-60341526D01*
X76668834Y-60344443D01*
X76668832Y-60344444D01*
X76635097Y-60357800D01*
X76623869Y-60361645D01*
X76581407Y-60373982D01*
X76574585Y-60378016D01*
X76574579Y-60378019D01*
X76563968Y-60384294D01*
X76546218Y-60392990D01*
X76534756Y-60397528D01*
X76534751Y-60397531D01*
X76527383Y-60400448D01*
X76520968Y-60405109D01*
X76491625Y-60426427D01*
X76481707Y-60432943D01*
X76463019Y-60443995D01*
X76443637Y-60455458D01*
X76429313Y-60469782D01*
X76414281Y-60482621D01*
X76397893Y-60494528D01*
X76369712Y-60528593D01*
X76361722Y-60537373D01*
X75614500Y-61284595D01*
X75552188Y-61318621D01*
X75525405Y-61321500D01*
X75469513Y-61321500D01*
X75463061Y-61322872D01*
X75463056Y-61322872D01*
X75376113Y-61341353D01*
X75282712Y-61361206D01*
X75276682Y-61363891D01*
X75276681Y-61363891D01*
X75114278Y-61436197D01*
X75114276Y-61436198D01*
X75108248Y-61438882D01*
X75102907Y-61442762D01*
X75102906Y-61442763D01*
X75052843Y-61479136D01*
X74953747Y-61551134D01*
X74949326Y-61556044D01*
X74949325Y-61556045D01*
X74835890Y-61682028D01*
X74825960Y-61693056D01*
X74730473Y-61858444D01*
X74671458Y-62040072D01*
X74670768Y-62046633D01*
X74670768Y-62046635D01*
X74660715Y-62142289D01*
X74651496Y-62230000D01*
X74652186Y-62236565D01*
X74666146Y-62369388D01*
X74653374Y-62439226D01*
X74604872Y-62491073D01*
X74536039Y-62508467D01*
X74468729Y-62485886D01*
X74451818Y-62471731D01*
X74444072Y-62463998D01*
X74363003Y-62383071D01*
X74340805Y-62369388D01*
X74221150Y-62295631D01*
X74221148Y-62295630D01*
X74214920Y-62291791D01*
X74049809Y-62237026D01*
X74042973Y-62236326D01*
X74042970Y-62236325D01*
X73991474Y-62231049D01*
X73947072Y-62226500D01*
X73372928Y-62226500D01*
X73369682Y-62226837D01*
X73369678Y-62226837D01*
X73275765Y-62236581D01*
X73275761Y-62236582D01*
X73268907Y-62237293D01*
X73262371Y-62239474D01*
X73262369Y-62239474D01*
X73137248Y-62281218D01*
X73103893Y-62292346D01*
X72955969Y-62383884D01*
X72950796Y-62389066D01*
X72838242Y-62501816D01*
X72838238Y-62501821D01*
X72833071Y-62506997D01*
X72829231Y-62513227D01*
X72829230Y-62513228D01*
X72753478Y-62636121D01*
X72741791Y-62655080D01*
X72687026Y-62820191D01*
X72686326Y-62827027D01*
X72686325Y-62827030D01*
X72684398Y-62845842D01*
X72676500Y-62922928D01*
X64507999Y-62922928D01*
X64507998Y-51049326D01*
X64509498Y-51029941D01*
X64511803Y-51015140D01*
X64511803Y-51015137D01*
X64513184Y-51006268D01*
X64510657Y-50986944D01*
X64509745Y-50964425D01*
X64509881Y-50961669D01*
X64524510Y-50663898D01*
X64525721Y-50651599D01*
X64532378Y-50606726D01*
X64574188Y-50324867D01*
X64576599Y-50312742D01*
X64656859Y-49992330D01*
X64660448Y-49980498D01*
X64771726Y-49669496D01*
X64776458Y-49658072D01*
X64917683Y-49359475D01*
X64923512Y-49348570D01*
X65093327Y-49065253D01*
X65100197Y-49054972D01*
X65296954Y-48789675D01*
X65304798Y-48780116D01*
X65526630Y-48535363D01*
X65535374Y-48526620D01*
X65780112Y-48304803D01*
X65789670Y-48296959D01*
X66054973Y-48100197D01*
X66065254Y-48093327D01*
X66348571Y-47923513D01*
X66359472Y-47917686D01*
X66588585Y-47809324D01*
X66658073Y-47776459D01*
X66669497Y-47771727D01*
X66980499Y-47660449D01*
X66992331Y-47656860D01*
X67218784Y-47600136D01*
X67312746Y-47576599D01*
X67324868Y-47574189D01*
X67651608Y-47525722D01*
X67663900Y-47524512D01*
X67764224Y-47519583D01*
X67957062Y-47510110D01*
X67982624Y-47511457D01*
X67984857Y-47511805D01*
X67984861Y-47511805D01*
X67993730Y-47513186D01*
X68002632Y-47512022D01*
X68002635Y-47512022D01*
X68022791Y-47509386D01*
X68025252Y-47509064D01*
X68041589Y-47508000D01*
X120950672Y-47508000D01*
X120970057Y-47509500D01*
G37*
%TD.AperFunction*%
%TD*%
M02*
