%TF.GenerationSoftware,KiCad,Pcbnew,(5.99.0-12374-g2479e1d7b1)*%
%TF.CreationDate,2021-11-09T23:09:33+03:00*%
%TF.ProjectId,Brass,42726173-732e-46b6-9963-61645f706362,rev?*%
%TF.SameCoordinates,Original*%
%TF.FileFunction,Soldermask,Bot*%
%TF.FilePolarity,Negative*%
%FSLAX46Y46*%
G04 Gerber Fmt 4.6, Leading zero omitted, Abs format (unit mm)*
G04 Created by KiCad (PCBNEW (5.99.0-12374-g2479e1d7b1)) date 2021-11-09 23:09:33*
%MOMM*%
%LPD*%
G01*
G04 APERTURE LIST*
G04 Aperture macros list*
%AMRoundRect*
0 Rectangle with rounded corners*
0 $1 Rounding radius*
0 $2 $3 $4 $5 $6 $7 $8 $9 X,Y pos of 4 corners*
0 Add a 4 corners polygon primitive as box body*
4,1,4,$2,$3,$4,$5,$6,$7,$8,$9,$2,$3,0*
0 Add four circle primitives for the rounded corners*
1,1,$1+$1,$2,$3*
1,1,$1+$1,$4,$5*
1,1,$1+$1,$6,$7*
1,1,$1+$1,$8,$9*
0 Add four rect primitives between the rounded corners*
20,1,$1+$1,$2,$3,$4,$5,0*
20,1,$1+$1,$4,$5,$6,$7,0*
20,1,$1+$1,$6,$7,$8,$9,0*
20,1,$1+$1,$8,$9,$2,$3,0*%
%AMFreePoly0*
4,1,22,0.550000,-0.750000,0.000000,-0.750000,0.000000,-0.745033,-0.079941,-0.743568,-0.215256,-0.701293,-0.333266,-0.622738,-0.424486,-0.514219,-0.481581,-0.384460,-0.499164,-0.250000,-0.500000,-0.250000,-0.500000,0.250000,-0.499164,0.250000,-0.499963,0.256109,-0.478152,0.396186,-0.417904,0.524511,-0.324060,0.630769,-0.204165,0.706417,-0.067858,0.745374,0.000000,0.744959,0.000000,0.750000,
0.550000,0.750000,0.550000,-0.750000,0.550000,-0.750000,$1*%
%AMFreePoly1*
4,1,20,0.000000,0.744959,0.073905,0.744508,0.209726,0.703889,0.328688,0.626782,0.421226,0.519385,0.479903,0.390333,0.500000,0.250000,0.500000,-0.250000,0.499851,-0.262216,0.476331,-0.402017,0.414519,-0.529596,0.319384,-0.634700,0.198574,-0.708877,0.061801,-0.746166,0.000000,-0.745033,0.000000,-0.750000,-0.550000,-0.750000,-0.550000,0.750000,0.000000,0.750000,0.000000,0.744959,
0.000000,0.744959,$1*%
G04 Aperture macros list end*
%ADD10C,0.500000*%
%ADD11C,3.000000*%
%ADD12R,1.700000X1.700000*%
%ADD13O,1.700000X1.700000*%
%ADD14C,5.600000*%
%ADD15RoundRect,0.237500X-0.044194X-0.380070X0.380070X0.044194X0.044194X0.380070X-0.380070X-0.044194X0*%
%ADD16C,1.700000*%
%ADD17RoundRect,0.237500X-0.237500X0.300000X-0.237500X-0.300000X0.237500X-0.300000X0.237500X0.300000X0*%
%ADD18RoundRect,0.237500X0.300000X0.237500X-0.300000X0.237500X-0.300000X-0.237500X0.300000X-0.237500X0*%
%ADD19R,0.900000X0.780000*%
%ADD20RoundRect,0.237500X-0.300000X-0.237500X0.300000X-0.237500X0.300000X0.237500X-0.300000X0.237500X0*%
%ADD21RoundRect,0.237500X0.237500X-0.250000X0.237500X0.250000X-0.237500X0.250000X-0.237500X-0.250000X0*%
%ADD22RoundRect,0.237500X0.287500X0.237500X-0.287500X0.237500X-0.287500X-0.237500X0.287500X-0.237500X0*%
%ADD23RoundRect,0.237500X0.237500X-0.300000X0.237500X0.300000X-0.237500X0.300000X-0.237500X-0.300000X0*%
%ADD24RoundRect,0.237500X0.237500X-0.287500X0.237500X0.287500X-0.237500X0.287500X-0.237500X-0.287500X0*%
%ADD25RoundRect,0.237500X-0.237500X0.287500X-0.237500X-0.287500X0.237500X-0.287500X0.237500X0.287500X0*%
%ADD26FreePoly0,180.000000*%
%ADD27R,1.000000X1.500000*%
%ADD28FreePoly1,180.000000*%
G04 APERTURE END LIST*
D10*
%TO.C,U1*%
X99255000Y-66370000D03*
X105255000Y-67870000D03*
X103755000Y-67870000D03*
X100755000Y-69370000D03*
X105255000Y-72370000D03*
X103755000Y-66370000D03*
X102255000Y-70870000D03*
X99255000Y-67870000D03*
X99255000Y-69370000D03*
X105255000Y-66370000D03*
X102255000Y-66370000D03*
D11*
X100255000Y-71370000D03*
D10*
X103755000Y-69370000D03*
X100755000Y-66370000D03*
X103755000Y-70870000D03*
X102255000Y-67870000D03*
X103755000Y-72370000D03*
X102255000Y-72370000D03*
X100755000Y-67870000D03*
X105255000Y-69370000D03*
X105255000Y-70870000D03*
X102255000Y-69370000D03*
%TD*%
D12*
%TO.C,J2*%
X76200000Y-86365000D03*
D13*
X76200000Y-83825000D03*
%TD*%
D12*
%TO.C,J1*%
X114285000Y-83815000D03*
D13*
X114285000Y-86355000D03*
X111745000Y-83815000D03*
X111745000Y-86355000D03*
X109205000Y-83815000D03*
X109205000Y-86355000D03*
X106665000Y-83815000D03*
X106665000Y-86355000D03*
X104125000Y-83815000D03*
X104125000Y-86355000D03*
X101585000Y-83815000D03*
X101585000Y-86355000D03*
X99045000Y-83815000D03*
X99045000Y-86355000D03*
X96505000Y-83815000D03*
X96505000Y-86355000D03*
X93965000Y-83815000D03*
X93965000Y-86355000D03*
X91425000Y-83815000D03*
X91425000Y-86355000D03*
X88885000Y-83815000D03*
X88885000Y-86355000D03*
X86345000Y-83815000D03*
X86345000Y-86355000D03*
X83805000Y-83815000D03*
X83805000Y-86355000D03*
%TD*%
D14*
%TO.C,H3*%
X121000000Y-85000000D03*
%TD*%
%TO.C,H4*%
X68000000Y-85000000D03*
%TD*%
%TO.C,H2*%
X121000000Y-51000000D03*
%TD*%
D15*
%TO.C,C23*%
X108610120Y-64109880D03*
X109829880Y-62890120D03*
%TD*%
D10*
%TO.C,U2*%
X78970000Y-67425000D03*
D16*
X75665000Y-67300000D03*
D10*
X77470000Y-67425000D03*
X78970000Y-65925000D03*
X75970000Y-65925000D03*
X77470000Y-65925000D03*
%TD*%
D14*
%TO.C,H1*%
X68000000Y-51000000D03*
%TD*%
D15*
%TO.C,C22*%
X107340120Y-62839880D03*
X108559880Y-61620120D03*
%TD*%
D17*
%TO.C,C28*%
X87630000Y-70892500D03*
X87630000Y-72617500D03*
%TD*%
D18*
%TO.C,C42*%
X79602500Y-60960000D03*
X77877500Y-60960000D03*
%TD*%
D19*
%TO.C,X1*%
X91375000Y-78335000D03*
X91375000Y-75335000D03*
X92775000Y-75335000D03*
X92775000Y-78335000D03*
%TD*%
D20*
%TO.C,C25*%
X102642500Y-54610000D03*
X104367500Y-54610000D03*
%TD*%
D18*
%TO.C,C10*%
X99922500Y-60325000D03*
X98197500Y-60325000D03*
%TD*%
D17*
%TO.C,C35*%
X80772000Y-68352500D03*
X80772000Y-70077500D03*
%TD*%
D21*
%TO.C,R7*%
X82550000Y-70127500D03*
X82550000Y-68302500D03*
%TD*%
D17*
%TO.C,C44*%
X89535000Y-75972500D03*
X89535000Y-77697500D03*
%TD*%
D22*
%TO.C,FB2*%
X99935000Y-52705000D03*
X98185000Y-52705000D03*
%TD*%
D20*
%TO.C,C5*%
X102642500Y-62230000D03*
X104367500Y-62230000D03*
%TD*%
D23*
%TO.C,C16*%
X91440000Y-68807500D03*
X91440000Y-67082500D03*
%TD*%
D18*
%TO.C,C19*%
X99922500Y-56515000D03*
X98197500Y-56515000D03*
%TD*%
D17*
%TO.C,C17*%
X91440000Y-70892500D03*
X91440000Y-72617500D03*
%TD*%
%TO.C,C21*%
X89535000Y-70892500D03*
X89535000Y-72617500D03*
%TD*%
D23*
%TO.C,C27*%
X87630000Y-68807500D03*
X87630000Y-67082500D03*
%TD*%
D20*
%TO.C,C18*%
X102642500Y-56515000D03*
X104367500Y-56515000D03*
%TD*%
D18*
%TO.C,C15*%
X99922500Y-58420000D03*
X98197500Y-58420000D03*
%TD*%
D23*
%TO.C,C11*%
X93345000Y-68807500D03*
X93345000Y-67082500D03*
%TD*%
%TO.C,C20*%
X89535000Y-68807500D03*
X89535000Y-67082500D03*
%TD*%
D24*
%TO.C,FB4*%
X85725000Y-72630000D03*
X85725000Y-70880000D03*
%TD*%
D23*
%TO.C,C41*%
X73660000Y-64997500D03*
X73660000Y-63272500D03*
%TD*%
D18*
%TO.C,C26*%
X99922500Y-54610000D03*
X98197500Y-54610000D03*
%TD*%
D25*
%TO.C,FB5*%
X85725000Y-75960000D03*
X85725000Y-77710000D03*
%TD*%
D20*
%TO.C,C9*%
X102642500Y-60325000D03*
X104367500Y-60325000D03*
%TD*%
%TO.C,C14*%
X102642500Y-58420000D03*
X104367500Y-58420000D03*
%TD*%
D18*
%TO.C,C6*%
X99922500Y-62230000D03*
X98197500Y-62230000D03*
%TD*%
D17*
%TO.C,C8*%
X95250000Y-70892500D03*
X95250000Y-72617500D03*
%TD*%
%TO.C,C48*%
X87630000Y-75972500D03*
X87630000Y-77697500D03*
%TD*%
D21*
%TO.C,R11*%
X73660000Y-69492500D03*
X73660000Y-67667500D03*
%TD*%
D17*
%TO.C,C12*%
X93345000Y-70892500D03*
X93345000Y-72617500D03*
%TD*%
D20*
%TO.C,C47*%
X95022500Y-75565000D03*
X96747500Y-75565000D03*
%TD*%
D26*
%TO.C,JP1*%
X97820000Y-78105000D03*
D27*
X96520000Y-78105000D03*
D28*
X95220000Y-78105000D03*
%TD*%
D23*
%TO.C,C7*%
X95250000Y-68807500D03*
X95250000Y-67082500D03*
%TD*%
D25*
%TO.C,FB3*%
X85725000Y-67070000D03*
X85725000Y-68820000D03*
%TD*%
D22*
%TO.C,FB1*%
X104380000Y-52705000D03*
X102630000Y-52705000D03*
%TD*%
D21*
%TO.C,R6*%
X82550000Y-65682500D03*
X82550000Y-63857500D03*
%TD*%
M02*
