%TF.GenerationSoftware,KiCad,Pcbnew,(5.99.0-12374-g2479e1d7b1)*%
%TF.CreationDate,2021-11-09T23:09:33+03:00*%
%TF.ProjectId,Brass,42726173-732e-46b6-9963-61645f706362,rev?*%
%TF.SameCoordinates,Original*%
%TF.FileFunction,Paste,Top*%
%TF.FilePolarity,Positive*%
%FSLAX46Y46*%
G04 Gerber Fmt 4.6, Leading zero omitted, Abs format (unit mm)*
G04 Created by KiCad (PCBNEW (5.99.0-12374-g2479e1d7b1)) date 2021-11-09 23:09:33*
%MOMM*%
%LPD*%
G01*
G04 APERTURE LIST*
G04 Aperture macros list*
%AMRoundRect*
0 Rectangle with rounded corners*
0 $1 Rounding radius*
0 $2 $3 $4 $5 $6 $7 $8 $9 X,Y pos of 4 corners*
0 Add a 4 corners polygon primitive as box body*
4,1,4,$2,$3,$4,$5,$6,$7,$8,$9,$2,$3,0*
0 Add four circle primitives for the rounded corners*
1,1,$1+$1,$2,$3*
1,1,$1+$1,$4,$5*
1,1,$1+$1,$6,$7*
1,1,$1+$1,$8,$9*
0 Add four rect primitives between the rounded corners*
20,1,$1+$1,$2,$3,$4,$5,0*
20,1,$1+$1,$4,$5,$6,$7,0*
20,1,$1+$1,$6,$7,$8,$9,0*
20,1,$1+$1,$8,$9,$2,$3,0*%
G04 Aperture macros list end*
%ADD10R,3.600000X0.760000*%
%ADD11R,3.600000X0.680000*%
%ADD12R,3.600000X0.750000*%
%ADD13R,0.250000X0.800000*%
%ADD14R,0.800000X0.250000*%
%ADD15R,2.500000X2.500000*%
%ADD16RoundRect,0.237500X0.237500X-0.300000X0.237500X0.300000X-0.237500X0.300000X-0.237500X-0.300000X0*%
%ADD17RoundRect,0.237500X-0.300000X-0.237500X0.300000X-0.237500X0.300000X0.237500X-0.300000X0.237500X0*%
%ADD18RoundRect,0.250000X0.275000X0.350000X-0.275000X0.350000X-0.275000X-0.350000X0.275000X-0.350000X0*%
%ADD19RoundRect,0.237500X-0.250000X-0.237500X0.250000X-0.237500X0.250000X0.237500X-0.250000X0.237500X0*%
%ADD20RoundRect,0.237500X0.300000X0.237500X-0.300000X0.237500X-0.300000X-0.237500X0.300000X-0.237500X0*%
%ADD21R,1.050000X1.000000*%
%ADD22R,2.200000X1.050000*%
%ADD23R,0.450000X0.600000*%
%ADD24RoundRect,0.250000X0.350000X-0.275000X0.350000X0.275000X-0.350000X0.275000X-0.350000X-0.275000X0*%
%ADD25R,0.600000X2.200000*%
%ADD26R,7.000000X2.940000*%
%ADD27RoundRect,0.237500X-0.237500X0.300000X-0.237500X-0.300000X0.237500X-0.300000X0.237500X0.300000X0*%
%ADD28RoundRect,0.250000X-0.751301X-0.167938X-0.167938X-0.751301X0.751301X0.167938X0.167938X0.751301X0*%
%ADD29RoundRect,0.237500X-0.237500X0.250000X-0.237500X-0.250000X0.237500X-0.250000X0.237500X0.250000X0*%
%ADD30RoundRect,0.237500X0.250000X0.237500X-0.250000X0.237500X-0.250000X-0.237500X0.250000X-0.237500X0*%
%ADD31RoundRect,0.237500X-0.380070X0.044194X0.044194X-0.380070X0.380070X-0.044194X-0.044194X0.380070X0*%
%ADD32RoundRect,0.250000X-0.350000X0.275000X-0.350000X-0.275000X0.350000X-0.275000X0.350000X0.275000X0*%
G04 APERTURE END LIST*
D10*
%TO.C,T1*%
X98785000Y-51430000D03*
D11*
X98785000Y-52665000D03*
D10*
X98785000Y-53975000D03*
X92985000Y-53975000D03*
D12*
X92985000Y-51430000D03*
%TD*%
D13*
%TO.C,U1*%
X98505000Y-73970000D03*
X99005000Y-73970000D03*
X99505000Y-73970000D03*
X100005000Y-73970000D03*
X100505000Y-73970000D03*
X101005000Y-73970000D03*
X101505000Y-73970000D03*
X102005000Y-73970000D03*
X102505000Y-73970000D03*
X103005000Y-73970000D03*
X103505000Y-73970000D03*
X104005000Y-73970000D03*
X104505000Y-73970000D03*
X105005000Y-73970000D03*
X105505000Y-73970000D03*
X106005000Y-73970000D03*
D14*
X106855000Y-73120000D03*
X106855000Y-72620000D03*
X106855000Y-72120000D03*
X106855000Y-71620000D03*
X106855000Y-71120000D03*
X106855000Y-70620000D03*
X106855000Y-70120000D03*
X106855000Y-69620000D03*
X106855000Y-69120000D03*
X106855000Y-68620000D03*
X106855000Y-68120000D03*
X106855000Y-67620000D03*
X106855000Y-67120000D03*
X106855000Y-66620000D03*
X106855000Y-66120000D03*
X106855000Y-65620000D03*
D13*
X106005000Y-64770000D03*
X105505000Y-64770000D03*
X105005000Y-64770000D03*
X104505000Y-64770000D03*
X104005000Y-64770000D03*
X103505000Y-64770000D03*
X103005000Y-64770000D03*
X102505000Y-64770000D03*
X102005000Y-64770000D03*
X101505000Y-64770000D03*
X101005000Y-64770000D03*
X100505000Y-64770000D03*
X100005000Y-64770000D03*
X99505000Y-64770000D03*
X99005000Y-64770000D03*
X98505000Y-64770000D03*
D14*
X97655000Y-65620000D03*
X97655000Y-66120000D03*
X97655000Y-66620000D03*
X97655000Y-67120000D03*
X97655000Y-67620000D03*
X97655000Y-68120000D03*
X97655000Y-68620000D03*
X97655000Y-69120000D03*
X97655000Y-69620000D03*
X97655000Y-70120000D03*
X97655000Y-70620000D03*
X97655000Y-71120000D03*
X97655000Y-71620000D03*
X97655000Y-72120000D03*
X97655000Y-72620000D03*
X97655000Y-73120000D03*
D15*
X104005000Y-71120000D03*
X100505000Y-71120000D03*
X104005000Y-67620000D03*
X100505000Y-67620000D03*
%TD*%
D16*
%TO.C,C2*%
X102235000Y-59282500D03*
X102235000Y-57557500D03*
%TD*%
D17*
%TO.C,C40*%
X77997500Y-56515000D03*
X79722500Y-56515000D03*
%TD*%
D18*
%TO.C,L7*%
X84455000Y-53975000D03*
X82155000Y-53975000D03*
%TD*%
D19*
%TO.C,R16*%
X75922500Y-59055000D03*
X77747500Y-59055000D03*
%TD*%
%TO.C,R3*%
X91797500Y-61595000D03*
X93622500Y-61595000D03*
%TD*%
D20*
%TO.C,C4*%
X99287500Y-61595000D03*
X97562500Y-61595000D03*
%TD*%
%TO.C,C34*%
X87222500Y-72390000D03*
X85497500Y-72390000D03*
%TD*%
D18*
%TO.C,L6*%
X87510000Y-63500000D03*
X85210000Y-63500000D03*
%TD*%
%TO.C,L8*%
X80010000Y-53975000D03*
X77710000Y-53975000D03*
%TD*%
D16*
%TO.C,C29*%
X93980000Y-67537500D03*
X93980000Y-65812500D03*
%TD*%
D21*
%TO.C,J5*%
X69630000Y-60325000D03*
D22*
X68105000Y-58850000D03*
X68105000Y-61800000D03*
%TD*%
D19*
%TO.C,R2*%
X91797500Y-71755000D03*
X93622500Y-71755000D03*
%TD*%
D18*
%TO.C,L1*%
X93860000Y-69850000D03*
X91560000Y-69850000D03*
%TD*%
D19*
%TO.C,R1*%
X97512500Y-59690000D03*
X99337500Y-59690000D03*
%TD*%
D16*
%TO.C,C3*%
X104775000Y-59282500D03*
X104775000Y-57557500D03*
%TD*%
D23*
%TO.C,D1*%
X88900000Y-53755000D03*
X88900000Y-51655000D03*
%TD*%
D21*
%TO.C,J4*%
X69630000Y-68580000D03*
D22*
X68105000Y-67105000D03*
X68105000Y-70055000D03*
%TD*%
D24*
%TO.C,L4*%
X89535000Y-63380000D03*
X89535000Y-61080000D03*
%TD*%
D18*
%TO.C,L5*%
X87510000Y-69850000D03*
X85210000Y-69850000D03*
%TD*%
D25*
%TO.C,U2*%
X75565000Y-69550000D03*
X76835000Y-69550000D03*
X78105000Y-69550000D03*
X79375000Y-69550000D03*
D26*
X77470000Y-66675000D03*
D25*
X79375000Y-63800000D03*
X78105000Y-63800000D03*
X76835000Y-63800000D03*
X75565000Y-63800000D03*
%TD*%
D17*
%TO.C,C38*%
X82442500Y-56515000D03*
X84167500Y-56515000D03*
%TD*%
D20*
%TO.C,C37*%
X84167500Y-51435000D03*
X82442500Y-51435000D03*
%TD*%
D16*
%TO.C,C33*%
X86480000Y-53567500D03*
X86480000Y-51842500D03*
%TD*%
D19*
%TO.C,R13*%
X75922500Y-72390000D03*
X77747500Y-72390000D03*
%TD*%
D17*
%TO.C,C24*%
X102642500Y-55880000D03*
X104367500Y-55880000D03*
%TD*%
D19*
%TO.C,R14*%
X75922500Y-60960000D03*
X77747500Y-60960000D03*
%TD*%
D20*
%TO.C,C43*%
X74522500Y-56515000D03*
X72797500Y-56515000D03*
%TD*%
D27*
%TO.C,C45*%
X71755000Y-74067500D03*
X71755000Y-75792500D03*
%TD*%
D28*
%TO.C,C1*%
X108648266Y-60769266D03*
X110857974Y-62978974D03*
%TD*%
D20*
%TO.C,C36*%
X87222500Y-60960000D03*
X85497500Y-60960000D03*
%TD*%
D29*
%TO.C,R9*%
X82550000Y-63857500D03*
X82550000Y-65682500D03*
%TD*%
D18*
%TO.C,L2*%
X93860000Y-63500000D03*
X91560000Y-63500000D03*
%TD*%
D29*
%TO.C,R5*%
X86360000Y-65762500D03*
X86360000Y-67587500D03*
%TD*%
D16*
%TO.C,C31*%
X88265000Y-67537500D03*
X88265000Y-65812500D03*
%TD*%
D29*
%TO.C,R18*%
X71755000Y-69572500D03*
X71755000Y-71397500D03*
%TD*%
D16*
%TO.C,C32*%
X84455000Y-67537500D03*
X84455000Y-65812500D03*
%TD*%
D30*
%TO.C,R17*%
X77747500Y-76200000D03*
X75922500Y-76200000D03*
%TD*%
D19*
%TO.C,R15*%
X75922500Y-74295000D03*
X77747500Y-74295000D03*
%TD*%
D29*
%TO.C,R8*%
X82550000Y-68302500D03*
X82550000Y-70127500D03*
%TD*%
D31*
%TO.C,C13*%
X107365240Y-62915240D03*
X108585000Y-64135000D03*
%TD*%
D16*
%TO.C,C30*%
X92075000Y-67537500D03*
X92075000Y-65812500D03*
%TD*%
D27*
%TO.C,C46*%
X71755000Y-65177500D03*
X71755000Y-66902500D03*
%TD*%
D19*
%TO.C,R12*%
X81002500Y-60960000D03*
X82827500Y-60960000D03*
%TD*%
D20*
%TO.C,C39*%
X79722500Y-51435000D03*
X77997500Y-51435000D03*
%TD*%
D29*
%TO.C,R4*%
X90170000Y-65762500D03*
X90170000Y-67587500D03*
%TD*%
D21*
%TO.C,J3*%
X69630000Y-76200000D03*
D22*
X68105000Y-74725000D03*
X68105000Y-77675000D03*
%TD*%
D32*
%TO.C,L3*%
X89535000Y-69970000D03*
X89535000Y-72270000D03*
%TD*%
D19*
%TO.C,R10*%
X81002500Y-72390000D03*
X82827500Y-72390000D03*
%TD*%
M02*
