%TF.GenerationSoftware,KiCad,Pcbnew,(5.99.0-12374-g2479e1d7b1)*%
%TF.CreationDate,2021-11-09T23:09:33+03:00*%
%TF.ProjectId,Brass,42726173-732e-46b6-9963-61645f706362,rev?*%
%TF.SameCoordinates,Original*%
%TF.FileFunction,Legend,Top*%
%TF.FilePolarity,Positive*%
%FSLAX46Y46*%
G04 Gerber Fmt 4.6, Leading zero omitted, Abs format (unit mm)*
G04 Created by KiCad (PCBNEW (5.99.0-12374-g2479e1d7b1)) date 2021-11-09 23:09:33*
%MOMM*%
%LPD*%
G01*
G04 APERTURE LIST*
%ADD10C,0.300000*%
%ADD11C,0.150000*%
%ADD12C,0.120000*%
%ADD13C,0.250000*%
%ADD14C,0.100000*%
%ADD15C,0.500000*%
%ADD16C,3.000000*%
%ADD17C,1.700000*%
G04 APERTURE END LIST*
D10*
X121836571Y-78100714D02*
X121122285Y-78600714D01*
X121836571Y-78957857D02*
X120336571Y-78957857D01*
X120336571Y-78386428D01*
X120408000Y-78243571D01*
X120479428Y-78172142D01*
X120622285Y-78100714D01*
X120836571Y-78100714D01*
X120979428Y-78172142D01*
X121050857Y-78243571D01*
X121122285Y-78386428D01*
X121122285Y-78957857D01*
X121836571Y-76672142D02*
X121836571Y-77529285D01*
X121836571Y-77100714D02*
X120336571Y-77100714D01*
X120550857Y-77243571D01*
X120693714Y-77386428D01*
X120765142Y-77529285D01*
X121693714Y-75172142D02*
X121765142Y-75243571D01*
X121836571Y-75457857D01*
X121836571Y-75600714D01*
X121765142Y-75815000D01*
X121622285Y-75957857D01*
X121479428Y-76029285D01*
X121193714Y-76100714D01*
X120979428Y-76100714D01*
X120693714Y-76029285D01*
X120550857Y-75957857D01*
X120408000Y-75815000D01*
X120336571Y-75600714D01*
X120336571Y-75457857D01*
X120408000Y-75243571D01*
X120479428Y-75172142D01*
X121050857Y-74029285D02*
X121122285Y-73815000D01*
X121193714Y-73743571D01*
X121336571Y-73672142D01*
X121550857Y-73672142D01*
X121693714Y-73743571D01*
X121765142Y-73815000D01*
X121836571Y-73957857D01*
X121836571Y-74529285D01*
X120336571Y-74529285D01*
X120336571Y-74029285D01*
X120408000Y-73886428D01*
X120479428Y-73815000D01*
X120622285Y-73743571D01*
X120765142Y-73743571D01*
X120908000Y-73815000D01*
X120979428Y-73886428D01*
X121050857Y-74029285D01*
X121050857Y-74529285D01*
X120336571Y-73029285D02*
X121550857Y-73029285D01*
X121693714Y-72957857D01*
X121765142Y-72886428D01*
X121836571Y-72743571D01*
X121836571Y-72457857D01*
X121765142Y-72315000D01*
X121693714Y-72243571D01*
X121550857Y-72172142D01*
X120336571Y-72172142D01*
X121535000Y-66380714D02*
X121535000Y-65666428D01*
X121963571Y-66523571D02*
X120463571Y-66023571D01*
X121963571Y-65523571D01*
X121963571Y-65023571D02*
X120463571Y-65023571D01*
X120463571Y-64666428D01*
X120535000Y-64452142D01*
X120677857Y-64309285D01*
X120820714Y-64237857D01*
X121106428Y-64166428D01*
X121320714Y-64166428D01*
X121606428Y-64237857D01*
X121749285Y-64309285D01*
X121892142Y-64452142D01*
X121963571Y-64666428D01*
X121963571Y-65023571D01*
X121820714Y-62666428D02*
X121892142Y-62737857D01*
X121963571Y-62952142D01*
X121963571Y-63095000D01*
X121892142Y-63309285D01*
X121749285Y-63452142D01*
X121606428Y-63523571D01*
X121320714Y-63595000D01*
X121106428Y-63595000D01*
X120820714Y-63523571D01*
X120677857Y-63452142D01*
X120535000Y-63309285D01*
X120463571Y-63095000D01*
X120463571Y-62952142D01*
X120535000Y-62737857D01*
X120606428Y-62666428D01*
X120392142Y-60952142D02*
X122320714Y-62237857D01*
X121963571Y-60452142D02*
X120463571Y-60452142D01*
X120463571Y-60095000D01*
X120535000Y-59880714D01*
X120677857Y-59737857D01*
X120820714Y-59666428D01*
X121106428Y-59595000D01*
X121320714Y-59595000D01*
X121606428Y-59666428D01*
X121749285Y-59737857D01*
X121892142Y-59880714D01*
X121963571Y-60095000D01*
X121963571Y-60452142D01*
X121535000Y-59023571D02*
X121535000Y-58309285D01*
X121963571Y-59166428D02*
X120463571Y-58666428D01*
X121963571Y-58166428D01*
X121820714Y-56809285D02*
X121892142Y-56880714D01*
X121963571Y-57095000D01*
X121963571Y-57237857D01*
X121892142Y-57452142D01*
X121749285Y-57595000D01*
X121606428Y-57666428D01*
X121320714Y-57737857D01*
X121106428Y-57737857D01*
X120820714Y-57666428D01*
X120677857Y-57595000D01*
X120535000Y-57452142D01*
X120463571Y-57237857D01*
X120463571Y-57095000D01*
X120535000Y-56880714D01*
X120606428Y-56809285D01*
D11*
X55635714Y-72142858D02*
X56302380Y-72142858D01*
X55254761Y-72380953D02*
X55969047Y-72619048D01*
X55969047Y-72000001D01*
X55397618Y-71666667D02*
X55349999Y-71619048D01*
X55302380Y-71523810D01*
X55302380Y-71285715D01*
X55349999Y-71190477D01*
X55397618Y-71142858D01*
X55492856Y-71095239D01*
X55588095Y-71095239D01*
X55730952Y-71142858D01*
X56302380Y-71714286D01*
X56302380Y-71095239D01*
X56254761Y-70619048D02*
X56302380Y-70619048D01*
X56397618Y-70666667D01*
X56445237Y-70714286D01*
X55302380Y-70000000D02*
X55302380Y-69904762D01*
X55349999Y-69809524D01*
X55397618Y-69761905D01*
X55492857Y-69714286D01*
X55683333Y-69666667D01*
X55921428Y-69666667D01*
X56111904Y-69714286D01*
X56207142Y-69761905D01*
X56254761Y-69809524D01*
X56302380Y-69904762D01*
X56302380Y-70000001D01*
X56254761Y-70095239D01*
X56207142Y-70142858D01*
X56111904Y-70190477D01*
X55921428Y-70238096D01*
X55683333Y-70238096D01*
X55492857Y-70190477D01*
X55397618Y-70142858D01*
X55349999Y-70095239D01*
X55302380Y-70000000D01*
X55302380Y-69047620D02*
X55302380Y-68952381D01*
X55349999Y-68857143D01*
X55397619Y-68809524D01*
X55492857Y-68761905D01*
X55683333Y-68714286D01*
X55921428Y-68714286D01*
X56111904Y-68761905D01*
X56207142Y-68809524D01*
X56254761Y-68857143D01*
X56302380Y-68952381D01*
X56302380Y-69047620D01*
X56254761Y-69142858D01*
X56207142Y-69190477D01*
X56111904Y-69238096D01*
X55921428Y-69285715D01*
X55683333Y-69285715D01*
X55492857Y-69238096D01*
X55397618Y-69190477D01*
X55349999Y-69142858D01*
X55302380Y-69047620D01*
X55302380Y-68095239D02*
X55302380Y-68000000D01*
X55350000Y-67904762D01*
X55397619Y-67857143D01*
X55492857Y-67809524D01*
X55683333Y-67761905D01*
X55921428Y-67761905D01*
X56111904Y-67809524D01*
X56207142Y-67857143D01*
X56254761Y-67904762D01*
X56302380Y-68000001D01*
X56302380Y-68095239D01*
X56254761Y-68190477D01*
X56207142Y-68238096D01*
X56111904Y-68285715D01*
X55921428Y-68333334D01*
X55683333Y-68333334D01*
X55492857Y-68285715D01*
X55397619Y-68238096D01*
X55349999Y-68190477D01*
X55302380Y-68095239D01*
X55302380Y-67142858D02*
X55302380Y-67047620D01*
X55350000Y-66952381D01*
X55397619Y-66904762D01*
X55492857Y-66857143D01*
X55683333Y-66809524D01*
X55921428Y-66809524D01*
X56111904Y-66857143D01*
X56207142Y-66904762D01*
X56254761Y-66952381D01*
X56302380Y-67047620D01*
X56302380Y-67142858D01*
X56254761Y-67238096D01*
X56207142Y-67285715D01*
X56111904Y-67333334D01*
X55921428Y-67380953D01*
X55683333Y-67380953D01*
X55492857Y-67333334D01*
X55397619Y-67285715D01*
X55350000Y-67238096D01*
X55302380Y-67142858D01*
X56302381Y-65619048D02*
X55635714Y-65619048D01*
X55730952Y-65619048D02*
X55683333Y-65571429D01*
X55635714Y-65476191D01*
X55635714Y-65333334D01*
X55683333Y-65238096D01*
X55778571Y-65190477D01*
X56302381Y-65190477D01*
X55778571Y-65190477D02*
X55683333Y-65142858D01*
X55635714Y-65047620D01*
X55635714Y-64904762D01*
X55683333Y-64809524D01*
X55778571Y-64761905D01*
X56302381Y-64761905D01*
X56302381Y-64285715D02*
X55635714Y-64285715D01*
X55730952Y-64285715D02*
X55683333Y-64238096D01*
X55635714Y-64142858D01*
X55635714Y-64000000D01*
X55683333Y-63904762D01*
X55778571Y-63857143D01*
X56302381Y-63857143D01*
X55778571Y-63857143D02*
X55683333Y-63809524D01*
X55635714Y-63714286D01*
X55635714Y-63571429D01*
X55683333Y-63476191D01*
X55778571Y-63428572D01*
X56302381Y-63428572D01*
X67500000Y-47000000D02*
X56413581Y-47000000D01*
X67499998Y-89000002D02*
X56413579Y-89000002D01*
X57000001Y-47000000D02*
X57000000Y-62615477D01*
X57000000Y-73384525D02*
X56999999Y-89000002D01*
X57000001Y-47000000D02*
X56413580Y-48126504D01*
X57000001Y-47000000D02*
X57586422Y-48126504D01*
X56999999Y-89000002D02*
X57586420Y-87873498D01*
X56999999Y-89000002D02*
X56413578Y-87873498D01*
X90357142Y-91302379D02*
X90166666Y-91302379D01*
X90071428Y-91349999D01*
X90023809Y-91397618D01*
X89928571Y-91540475D01*
X89880952Y-91730951D01*
X89880952Y-92111903D01*
X89928571Y-92207141D01*
X89976190Y-92254760D01*
X90071428Y-92302379D01*
X90261904Y-92302379D01*
X90357142Y-92254760D01*
X90404761Y-92207141D01*
X90452380Y-92111903D01*
X90452380Y-91873808D01*
X90404761Y-91778570D01*
X90357142Y-91730951D01*
X90261904Y-91683332D01*
X90071428Y-91683332D01*
X89976190Y-91730951D01*
X89928571Y-91778570D01*
X89880952Y-91873808D01*
X91404761Y-92302379D02*
X90833333Y-92302379D01*
X91119047Y-92302379D02*
X91119047Y-91302379D01*
X91023809Y-91445237D01*
X90928571Y-91540475D01*
X90833333Y-91588094D01*
X91880952Y-92254760D02*
X91880952Y-92302379D01*
X91833333Y-92397618D01*
X91785714Y-92445237D01*
X92500000Y-91302379D02*
X92595238Y-91302379D01*
X92690476Y-91349999D01*
X92738095Y-91397618D01*
X92785714Y-91492856D01*
X92833333Y-91683332D01*
X92833333Y-91921427D01*
X92785714Y-92111903D01*
X92738095Y-92207141D01*
X92690476Y-92254760D01*
X92595238Y-92302379D01*
X92500000Y-92302379D01*
X92404761Y-92254760D01*
X92357142Y-92207141D01*
X92309523Y-92111903D01*
X92261904Y-91921427D01*
X92261904Y-91683332D01*
X92309523Y-91492856D01*
X92357142Y-91397618D01*
X92404761Y-91349999D01*
X92500000Y-91302379D01*
X93452380Y-91302379D02*
X93547619Y-91302379D01*
X93642857Y-91349999D01*
X93690476Y-91397618D01*
X93738095Y-91492856D01*
X93785714Y-91683332D01*
X93785714Y-91921427D01*
X93738095Y-92111903D01*
X93690476Y-92207141D01*
X93642857Y-92254760D01*
X93547619Y-92302379D01*
X93452380Y-92302379D01*
X93357142Y-92254760D01*
X93309523Y-92207141D01*
X93261904Y-92111903D01*
X93214285Y-91921427D01*
X93214285Y-91683332D01*
X93261904Y-91492856D01*
X93309523Y-91397618D01*
X93357142Y-91349999D01*
X93452380Y-91302379D01*
X94404761Y-91302379D02*
X94500000Y-91302379D01*
X94595238Y-91349999D01*
X94642857Y-91397618D01*
X94690476Y-91492856D01*
X94738095Y-91683332D01*
X94738095Y-91921427D01*
X94690476Y-92111903D01*
X94642857Y-92207141D01*
X94595238Y-92254760D01*
X94500000Y-92302379D01*
X94404761Y-92302379D01*
X94309523Y-92254760D01*
X94261904Y-92207141D01*
X94214285Y-92111903D01*
X94166666Y-91921427D01*
X94166666Y-91683332D01*
X94214285Y-91492856D01*
X94261904Y-91397618D01*
X94309523Y-91349999D01*
X94404761Y-91302379D01*
X95357142Y-91302379D02*
X95452380Y-91302379D01*
X95547619Y-91349999D01*
X95595238Y-91397618D01*
X95642857Y-91492856D01*
X95690476Y-91683332D01*
X95690476Y-91921427D01*
X95642857Y-92111903D01*
X95595238Y-92207141D01*
X95547619Y-92254760D01*
X95452380Y-92302379D01*
X95357142Y-92302379D01*
X95261904Y-92254760D01*
X95214285Y-92207141D01*
X95166666Y-92111903D01*
X95119047Y-91921427D01*
X95119047Y-91683332D01*
X95166666Y-91492856D01*
X95214285Y-91397618D01*
X95261904Y-91349999D01*
X95357142Y-91302379D01*
X96880952Y-92302379D02*
X96880952Y-91635713D01*
X96880952Y-91730951D02*
X96928571Y-91683332D01*
X97023809Y-91635713D01*
X97166666Y-91635713D01*
X97261904Y-91683332D01*
X97309523Y-91778570D01*
X97309523Y-92302379D01*
X97309523Y-91778570D02*
X97357142Y-91683332D01*
X97452380Y-91635713D01*
X97595238Y-91635713D01*
X97690476Y-91683332D01*
X97738095Y-91778570D01*
X97738095Y-92302379D01*
X98214285Y-92302379D02*
X98214285Y-91635713D01*
X98214285Y-91730951D02*
X98261904Y-91683332D01*
X98357142Y-91635713D01*
X98500000Y-91635713D01*
X98595238Y-91683332D01*
X98642857Y-91778570D01*
X98642857Y-92302379D01*
X98642857Y-91778570D02*
X98690476Y-91683332D01*
X98785714Y-91635713D01*
X98928571Y-91635713D01*
X99023809Y-91683332D01*
X99071428Y-91778570D01*
X99071428Y-92302379D01*
X64000000Y-83500000D02*
X64000000Y-93586419D01*
X125000000Y-83500000D02*
X125000000Y-93586419D01*
X64000000Y-92999999D02*
X89115476Y-92999999D01*
X99884524Y-92999999D02*
X125000000Y-92999999D01*
X64000000Y-92999999D02*
X65126504Y-93586420D01*
X64000000Y-92999999D02*
X65126504Y-92413578D01*
X125000000Y-92999999D02*
X123873496Y-92413578D01*
X125000000Y-92999999D02*
X123873496Y-93586420D01*
%TO.C,J2*%
X73112380Y-85423333D02*
X73826666Y-85423333D01*
X73969523Y-85470952D01*
X74064761Y-85566190D01*
X74112380Y-85709047D01*
X74112380Y-85804285D01*
X73207619Y-84994761D02*
X73160000Y-84947142D01*
X73112380Y-84851904D01*
X73112380Y-84613809D01*
X73160000Y-84518571D01*
X73207619Y-84470952D01*
X73302857Y-84423333D01*
X73398095Y-84423333D01*
X73540952Y-84470952D01*
X74112380Y-85042380D01*
X74112380Y-84423333D01*
%TO.C,J1*%
X80097380Y-85423333D02*
X80811666Y-85423333D01*
X80954523Y-85470952D01*
X81049761Y-85566190D01*
X81097380Y-85709047D01*
X81097380Y-85804285D01*
X81097380Y-84423333D02*
X81097380Y-84994761D01*
X81097380Y-84709047D02*
X80097380Y-84709047D01*
X80240238Y-84804285D01*
X80335476Y-84899523D01*
X80383095Y-84994761D01*
%TO.C,J5*%
X64857380Y-60658333D02*
X65571666Y-60658333D01*
X65714523Y-60705952D01*
X65809761Y-60801190D01*
X65857380Y-60944047D01*
X65857380Y-61039285D01*
X64857380Y-59705952D02*
X64857380Y-60182142D01*
X65333571Y-60229761D01*
X65285952Y-60182142D01*
X65238333Y-60086904D01*
X65238333Y-59848809D01*
X65285952Y-59753571D01*
X65333571Y-59705952D01*
X65428809Y-59658333D01*
X65666904Y-59658333D01*
X65762142Y-59705952D01*
X65809761Y-59753571D01*
X65857380Y-59848809D01*
X65857380Y-60086904D01*
X65809761Y-60182142D01*
X65762142Y-60229761D01*
%TO.C,J4*%
X64984380Y-68659333D02*
X65698666Y-68659333D01*
X65841523Y-68706952D01*
X65936761Y-68802190D01*
X65984380Y-68945047D01*
X65984380Y-69040285D01*
X65317714Y-67754571D02*
X65984380Y-67754571D01*
X64936761Y-67992666D02*
X65651047Y-68230761D01*
X65651047Y-67611714D01*
%TO.C,J3*%
X64730380Y-76406333D02*
X65444666Y-76406333D01*
X65587523Y-76453952D01*
X65682761Y-76549190D01*
X65730380Y-76692047D01*
X65730380Y-76787285D01*
X64730380Y-76025380D02*
X64730380Y-75406333D01*
X65111333Y-75739666D01*
X65111333Y-75596809D01*
X65158952Y-75501571D01*
X65206571Y-75453952D01*
X65301809Y-75406333D01*
X65539904Y-75406333D01*
X65635142Y-75453952D01*
X65682761Y-75501571D01*
X65730380Y-75596809D01*
X65730380Y-75882523D01*
X65682761Y-75977761D01*
X65635142Y-76025380D01*
D12*
%TO.C,T1*%
X92785000Y-49205000D02*
X92785000Y-50605000D01*
X98985000Y-49205000D02*
X98985000Y-50605000D01*
X92785000Y-56205000D02*
X92785000Y-54705000D01*
X98985000Y-56205000D02*
X92785000Y-56205000D01*
X98985000Y-54705000D02*
X98985000Y-56205000D01*
X92785000Y-49205000D02*
X98985000Y-49205000D01*
D13*
X94490000Y-50800000D02*
X97280000Y-50800000D01*
X97280000Y-54610000D02*
X94490000Y-54610000D01*
X94490000Y-52205000D02*
X94490000Y-53205000D01*
X97948950Y-50505000D02*
G75*
G03*
X97948950Y-50505000I-63950J0D01*
G01*
D14*
%TO.C,U1*%
X98005000Y-73870000D02*
X97755000Y-73620000D01*
X97755000Y-65120000D02*
X97755000Y-64870000D01*
X106755000Y-73620000D02*
X106755000Y-73870000D01*
X106755000Y-73870000D02*
X106505000Y-73870000D01*
X106755000Y-65120000D02*
X106755000Y-64870000D01*
X97755000Y-64870000D02*
X98005000Y-64870000D01*
X106755000Y-64870000D02*
X106505000Y-64870000D01*
X97858553Y-74120000D02*
G75*
G03*
X97858553Y-74120000I-353553J0D01*
G01*
D12*
%TO.C,J2*%
X77530000Y-82495000D02*
X74870000Y-82495000D01*
X77530000Y-85095000D02*
X77530000Y-82495000D01*
X74870000Y-85095000D02*
X74870000Y-82495000D01*
X77530000Y-85095000D02*
X74870000Y-85095000D01*
X77530000Y-86365000D02*
X77530000Y-87695000D01*
X77530000Y-87695000D02*
X76200000Y-87695000D01*
%TO.C,J1*%
X82475000Y-82485000D02*
X82475000Y-87685000D01*
X113015000Y-82485000D02*
X82475000Y-82485000D01*
X115615000Y-87685000D02*
X82475000Y-87685000D01*
X113015000Y-82485000D02*
X113015000Y-85085000D01*
X113015000Y-85085000D02*
X115615000Y-85085000D01*
X115615000Y-85085000D02*
X115615000Y-87685000D01*
X114285000Y-82485000D02*
X115615000Y-82485000D01*
X115615000Y-82485000D02*
X115615000Y-83815000D01*
%TO.C,C2*%
X102745000Y-58566267D02*
X102745000Y-58273733D01*
X101725000Y-58566267D02*
X101725000Y-58273733D01*
%TO.C,C40*%
X78713733Y-57025000D02*
X79006267Y-57025000D01*
X78713733Y-56005000D02*
X79006267Y-56005000D01*
%TO.C,L7*%
X83715242Y-53415000D02*
X82894758Y-53415000D01*
X83715242Y-54535000D02*
X82894758Y-54535000D01*
%TO.C,R16*%
X76580276Y-59577500D02*
X77089724Y-59577500D01*
X76580276Y-58532500D02*
X77089724Y-58532500D01*
%TO.C,R3*%
X92455276Y-62117500D02*
X92964724Y-62117500D01*
X92455276Y-61072500D02*
X92964724Y-61072500D01*
%TO.C,C4*%
X98571267Y-61085000D02*
X98278733Y-61085000D01*
X98571267Y-62105000D02*
X98278733Y-62105000D01*
%TO.C,C34*%
X86506267Y-72900000D02*
X86213733Y-72900000D01*
X86506267Y-71880000D02*
X86213733Y-71880000D01*
%TO.C,L6*%
X86770242Y-62940000D02*
X85949758Y-62940000D01*
X86770242Y-64060000D02*
X85949758Y-64060000D01*
%TO.C,L8*%
X79270242Y-53415000D02*
X78449758Y-53415000D01*
X79270242Y-54535000D02*
X78449758Y-54535000D01*
%TO.C,C29*%
X93470000Y-66821267D02*
X93470000Y-66528733D01*
X94490000Y-66821267D02*
X94490000Y-66528733D01*
%TO.C,J5*%
X66745000Y-61675000D02*
X66745000Y-58975000D01*
X69465000Y-58925000D02*
X69465000Y-59565000D01*
X69465000Y-61725000D02*
X69465000Y-61085000D01*
X69465000Y-61085000D02*
X70095000Y-61085000D01*
%TO.C,R2*%
X92455276Y-72277500D02*
X92964724Y-72277500D01*
X92455276Y-71232500D02*
X92964724Y-71232500D01*
%TO.C,L1*%
X93120242Y-70410000D02*
X92299758Y-70410000D01*
X93120242Y-69290000D02*
X92299758Y-69290000D01*
%TO.C,R1*%
X98170276Y-59167500D02*
X98679724Y-59167500D01*
X98170276Y-60212500D02*
X98679724Y-60212500D01*
%TO.C,C3*%
X105285000Y-58566267D02*
X105285000Y-58273733D01*
X104265000Y-58566267D02*
X104265000Y-58273733D01*
%TO.C,D1*%
X89750000Y-54205000D02*
X89750000Y-51655000D01*
X88050000Y-54205000D02*
X88050000Y-51655000D01*
X88050000Y-54205000D02*
X89750000Y-54205000D01*
%TO.C,J4*%
X69465000Y-69340000D02*
X70095000Y-69340000D01*
X69465000Y-67180000D02*
X69465000Y-67820000D01*
X66745000Y-69930000D02*
X66745000Y-67230000D01*
X69465000Y-69980000D02*
X69465000Y-69340000D01*
%TO.C,L4*%
X90095000Y-62640242D02*
X90095000Y-61819758D01*
X88975000Y-62640242D02*
X88975000Y-61819758D01*
%TO.C,L5*%
X86770242Y-70410000D02*
X85949758Y-70410000D01*
X86770242Y-69290000D02*
X85949758Y-69290000D01*
D14*
%TO.C,U2*%
X74865000Y-63850000D02*
X74865000Y-64950000D01*
X80065000Y-63850000D02*
X80065000Y-64950000D01*
X74865000Y-69550000D02*
X74865000Y-68350000D01*
X79865000Y-69550000D02*
X80065000Y-69550000D01*
X75065000Y-63850000D02*
X74865000Y-63850000D01*
X79865000Y-63850000D02*
X80065000Y-63850000D01*
X75065000Y-69550000D02*
X74865000Y-69550000D01*
X80065000Y-69550000D02*
X80065000Y-68350000D01*
X74865000Y-69150000D02*
G75*
G03*
X74865000Y-69150000I-300000J0D01*
G01*
D12*
%TO.C,C38*%
X83158733Y-57025000D02*
X83451267Y-57025000D01*
X83158733Y-56005000D02*
X83451267Y-56005000D01*
%TO.C,C37*%
X83451267Y-51945000D02*
X83158733Y-51945000D01*
X83451267Y-50925000D02*
X83158733Y-50925000D01*
%TO.C,C33*%
X85970000Y-52851267D02*
X85970000Y-52558733D01*
X86990000Y-52851267D02*
X86990000Y-52558733D01*
%TO.C,R13*%
X76580276Y-72912500D02*
X77089724Y-72912500D01*
X76580276Y-71867500D02*
X77089724Y-71867500D01*
%TO.C,C24*%
X103358733Y-55370000D02*
X103651267Y-55370000D01*
X103358733Y-56390000D02*
X103651267Y-56390000D01*
%TO.C,R14*%
X76580276Y-61482500D02*
X77089724Y-61482500D01*
X76580276Y-60437500D02*
X77089724Y-60437500D01*
%TO.C,C43*%
X73806267Y-56005000D02*
X73513733Y-56005000D01*
X73806267Y-57025000D02*
X73513733Y-57025000D01*
%TO.C,C45*%
X72265000Y-74783733D02*
X72265000Y-75076267D01*
X71245000Y-74783733D02*
X71245000Y-75076267D01*
%TO.C,C1*%
X108606722Y-62014656D02*
X109612584Y-63020518D01*
X109893656Y-60727722D02*
X110899518Y-61733584D01*
%TO.C,C36*%
X86506267Y-60450000D02*
X86213733Y-60450000D01*
X86506267Y-61470000D02*
X86213733Y-61470000D01*
%TO.C,R9*%
X83072500Y-64515276D02*
X83072500Y-65024724D01*
X82027500Y-64515276D02*
X82027500Y-65024724D01*
%TO.C,L2*%
X93120242Y-62940000D02*
X92299758Y-62940000D01*
X93120242Y-64060000D02*
X92299758Y-64060000D01*
%TO.C,R5*%
X86882500Y-66420276D02*
X86882500Y-66929724D01*
X85837500Y-66420276D02*
X85837500Y-66929724D01*
%TO.C,C31*%
X88775000Y-66821267D02*
X88775000Y-66528733D01*
X87755000Y-66821267D02*
X87755000Y-66528733D01*
%TO.C,R18*%
X72277500Y-70230276D02*
X72277500Y-70739724D01*
X71232500Y-70230276D02*
X71232500Y-70739724D01*
%TO.C,C32*%
X84965000Y-66821267D02*
X84965000Y-66528733D01*
X83945000Y-66821267D02*
X83945000Y-66528733D01*
%TO.C,R17*%
X77089724Y-75677500D02*
X76580276Y-75677500D01*
X77089724Y-76722500D02*
X76580276Y-76722500D01*
%TO.C,R15*%
X76580276Y-74817500D02*
X77089724Y-74817500D01*
X76580276Y-73772500D02*
X77089724Y-73772500D01*
%TO.C,R8*%
X82027500Y-68960276D02*
X82027500Y-69469724D01*
X83072500Y-68960276D02*
X83072500Y-69469724D01*
%TO.C,C13*%
X107511069Y-63782318D02*
X107717922Y-63989171D01*
X108232318Y-63061069D02*
X108439171Y-63267922D01*
%TO.C,C30*%
X91565000Y-66821267D02*
X91565000Y-66528733D01*
X92585000Y-66821267D02*
X92585000Y-66528733D01*
%TO.C,C46*%
X71245000Y-65893733D02*
X71245000Y-66186267D01*
X72265000Y-65893733D02*
X72265000Y-66186267D01*
%TO.C,R12*%
X81660276Y-61482500D02*
X82169724Y-61482500D01*
X81660276Y-60437500D02*
X82169724Y-60437500D01*
%TO.C,C39*%
X79006267Y-51945000D02*
X78713733Y-51945000D01*
X79006267Y-50925000D02*
X78713733Y-50925000D01*
%TO.C,R4*%
X90692500Y-66420276D02*
X90692500Y-66929724D01*
X89647500Y-66420276D02*
X89647500Y-66929724D01*
%TO.C,J3*%
X66745000Y-77550000D02*
X66745000Y-74850000D01*
X69465000Y-77600000D02*
X69465000Y-76960000D01*
X69465000Y-74800000D02*
X69465000Y-75440000D01*
X69465000Y-76960000D02*
X70095000Y-76960000D01*
%TO.C,L3*%
X88975000Y-70709758D02*
X88975000Y-71530242D01*
X90095000Y-70709758D02*
X90095000Y-71530242D01*
%TO.C,R10*%
X81660276Y-71867500D02*
X82169724Y-71867500D01*
X81660276Y-72912500D02*
X82169724Y-72912500D01*
%TD*%
D15*
%TO.C,U1*%
X99255000Y-66370000D03*
X105255000Y-67870000D03*
X103755000Y-67870000D03*
X100755000Y-69370000D03*
X105255000Y-72370000D03*
X103755000Y-66370000D03*
X102255000Y-70870000D03*
X99255000Y-67870000D03*
X99255000Y-69370000D03*
X105255000Y-66370000D03*
X102255000Y-66370000D03*
D16*
X100255000Y-71370000D03*
D15*
X103755000Y-69370000D03*
X100755000Y-66370000D03*
X103755000Y-70870000D03*
X102255000Y-67870000D03*
X103755000Y-72370000D03*
X102255000Y-72370000D03*
X100755000Y-67870000D03*
X105255000Y-69370000D03*
X105255000Y-70870000D03*
X102255000Y-69370000D03*
%TD*%
%TO.C,U2*%
X78970000Y-67425000D03*
D17*
X75665000Y-67300000D03*
D15*
X77470000Y-67425000D03*
X78970000Y-65925000D03*
X75970000Y-65925000D03*
X77470000Y-65925000D03*
%TD*%
M02*
