M48
; DRILL file {KiCad (5.99.0-12374-g2479e1d7b1)} date Tue Nov  9 23:09:41 2021
; FORMAT={-:-/ absolute / inch / decimal}
; #@! TF.CreationDate,2021-11-09T23:09:41+03:00
; #@! TF.GenerationSoftware,Kicad,Pcbnew,(5.99.0-12374-g2479e1d7b1)
; #@! TF.FileFunction,Plated,1,2,PTH
FMAT,2
INCH
; #@! TA.AperFunction,Plated,PTH,ComponentDrill
T1C0.0118
; #@! TA.AperFunction,Plated,PTH,ViaDrill
T2C0.0157
; #@! TA.AperFunction,Plated,PTH,ComponentDrill
T3C0.0394
; #@! TA.AperFunction,Plated,PTH,ComponentDrill
T4C0.0591
; #@! TA.AperFunction,Plated,PTH,ComponentDrill
T5C0.0984
; #@! TA.AperFunction,Plated,PTH,ComponentDrill
T6C0.1260
%
G90
G05
T1
X2.9909Y-2.5955
X3.05Y-2.5955
X3.05Y-2.6545
X3.1091Y-2.5955
X3.1091Y-2.6545
X3.9077Y-2.613
X3.9077Y-2.672
X3.9077Y-2.7311
X3.9667Y-2.613
X3.9667Y-2.672
X3.9667Y-2.7311
X4.0258Y-2.613
X4.0258Y-2.672
X4.0258Y-2.7311
X4.0258Y-2.7902
X4.0258Y-2.8492
X4.0848Y-2.613
X4.0848Y-2.672
X4.0848Y-2.7311
X4.0848Y-2.7902
X4.0848Y-2.8492
X4.1439Y-2.613
X4.1439Y-2.672
X4.1439Y-2.7311
X4.1439Y-2.7902
X4.1439Y-2.8492
T2
X2.975Y-2.45
X3.025Y-2.8
X3.075Y-2.45
X3.25Y-2.64
X3.8Y-2.725
X3.8Y-2.775
X3.8Y-2.825
X3.8373Y-2.9127
X3.95Y-2.5
X4.0465Y-2.5
X4.125Y-2.5
X4.2Y-2.45
X4.225Y-2.925
X4.3Y-2.55
T3
X3.0Y-3.3002
X3.0Y-3.4002
X3.2994Y-3.2998
X3.2994Y-3.3998
X3.3994Y-3.2998
X3.3994Y-3.3998
X3.4994Y-3.2998
X3.4994Y-3.3998
X3.5994Y-3.2998
X3.5994Y-3.3998
X3.6994Y-3.2998
X3.6994Y-3.3998
X3.7994Y-3.2998
X3.7994Y-3.3998
X3.8994Y-3.2998
X3.8994Y-3.3998
X3.9994Y-3.2998
X3.9994Y-3.3998
X4.0994Y-3.2998
X4.0994Y-3.3998
X4.1994Y-3.2998
X4.1994Y-3.3998
X4.2994Y-3.2998
X4.2994Y-3.3998
X4.3994Y-3.2998
X4.3994Y-3.3998
X4.4994Y-3.2998
X4.4994Y-3.3998
T4
X2.9789Y-2.6496
T5
X3.947Y-2.8098
T6
X2.6772Y-2.0079
X2.6772Y-3.3465
X4.7638Y-2.0079
X4.7638Y-3.3465
T0
M30
