G04 #@! TF.GenerationSoftware,KiCad,Pcbnew,5.1.9-5.1.9*
G04 #@! TF.CreationDate,2021-02-06T16:07:34+03:00*
G04 #@! TF.ProjectId,mix,6d69782e-6b69-4636-9164-5f7063625858,rev?*
G04 #@! TF.SameCoordinates,Original*
G04 #@! TF.FileFunction,Legend,Top*
G04 #@! TF.FilePolarity,Positive*
%FSLAX46Y46*%
G04 Gerber Fmt 4.6, Leading zero omitted, Abs format (unit mm)*
G04 Created by KiCad (PCBNEW 5.1.9-5.1.9) date 2021-02-06 16:07:34*
%MOMM*%
%LPD*%
G01*
G04 APERTURE LIST*
%ADD10C,0.150000*%
%ADD11C,0.200000*%
%ADD12C,0.250000*%
%ADD13C,0.254000*%
G04 APERTURE END LIST*
D10*
X145605714Y-87447380D02*
X145272380Y-86971190D01*
X145034285Y-87447380D02*
X145034285Y-86447380D01*
X145415238Y-86447380D01*
X145510476Y-86495000D01*
X145558095Y-86542619D01*
X145605714Y-86637857D01*
X145605714Y-86780714D01*
X145558095Y-86875952D01*
X145510476Y-86923571D01*
X145415238Y-86971190D01*
X145034285Y-86971190D01*
X146367619Y-86923571D02*
X146034285Y-86923571D01*
X146034285Y-87447380D02*
X146034285Y-86447380D01*
X146510476Y-86447380D01*
X147653333Y-87447380D02*
X147653333Y-86447380D01*
X147986666Y-87161666D01*
X148320000Y-86447380D01*
X148320000Y-87447380D01*
X148796190Y-87447380D02*
X148796190Y-86780714D01*
X148796190Y-86447380D02*
X148748571Y-86495000D01*
X148796190Y-86542619D01*
X148843809Y-86495000D01*
X148796190Y-86447380D01*
X148796190Y-86542619D01*
X149177142Y-87447380D02*
X149700952Y-86780714D01*
X149177142Y-86780714D02*
X149700952Y-87447380D01*
X163917523Y-102560380D02*
X163584190Y-102084190D01*
X163346095Y-102560380D02*
X163346095Y-101560380D01*
X163727047Y-101560380D01*
X163822285Y-101608000D01*
X163869904Y-101655619D01*
X163917523Y-101750857D01*
X163917523Y-101893714D01*
X163869904Y-101988952D01*
X163822285Y-102036571D01*
X163727047Y-102084190D01*
X163346095Y-102084190D01*
X164869904Y-102560380D02*
X164298476Y-102560380D01*
X164584190Y-102560380D02*
X164584190Y-101560380D01*
X164488952Y-101703238D01*
X164393714Y-101798476D01*
X164298476Y-101846095D01*
X165869904Y-102465142D02*
X165822285Y-102512761D01*
X165679428Y-102560380D01*
X165584190Y-102560380D01*
X165441333Y-102512761D01*
X165346095Y-102417523D01*
X165298476Y-102322285D01*
X165250857Y-102131809D01*
X165250857Y-101988952D01*
X165298476Y-101798476D01*
X165346095Y-101703238D01*
X165441333Y-101608000D01*
X165584190Y-101560380D01*
X165679428Y-101560380D01*
X165822285Y-101608000D01*
X165869904Y-101655619D01*
X166631809Y-102036571D02*
X166774666Y-102084190D01*
X166822285Y-102131809D01*
X166869904Y-102227047D01*
X166869904Y-102369904D01*
X166822285Y-102465142D01*
X166774666Y-102512761D01*
X166679428Y-102560380D01*
X166298476Y-102560380D01*
X166298476Y-101560380D01*
X166631809Y-101560380D01*
X166727047Y-101608000D01*
X166774666Y-101655619D01*
X166822285Y-101750857D01*
X166822285Y-101846095D01*
X166774666Y-101941333D01*
X166727047Y-101988952D01*
X166631809Y-102036571D01*
X166298476Y-102036571D01*
X167298476Y-101560380D02*
X167298476Y-102369904D01*
X167346095Y-102465142D01*
X167393714Y-102512761D01*
X167488952Y-102560380D01*
X167679428Y-102560380D01*
X167774666Y-102512761D01*
X167822285Y-102465142D01*
X167869904Y-102369904D01*
X167869904Y-101560380D01*
X127270476Y-102560380D02*
X127270476Y-101560380D01*
X127603809Y-102274666D01*
X127937142Y-101560380D01*
X127937142Y-102560380D01*
X128556190Y-102560380D02*
X128460952Y-102512761D01*
X128413333Y-102465142D01*
X128365714Y-102369904D01*
X128365714Y-102084190D01*
X128413333Y-101988952D01*
X128460952Y-101941333D01*
X128556190Y-101893714D01*
X128699047Y-101893714D01*
X128794285Y-101941333D01*
X128841904Y-101988952D01*
X128889523Y-102084190D01*
X128889523Y-102369904D01*
X128841904Y-102465142D01*
X128794285Y-102512761D01*
X128699047Y-102560380D01*
X128556190Y-102560380D01*
X129746666Y-102560380D02*
X129746666Y-101560380D01*
X129746666Y-102512761D02*
X129651428Y-102560380D01*
X129460952Y-102560380D01*
X129365714Y-102512761D01*
X129318095Y-102465142D01*
X129270476Y-102369904D01*
X129270476Y-102084190D01*
X129318095Y-101988952D01*
X129365714Y-101941333D01*
X129460952Y-101893714D01*
X129651428Y-101893714D01*
X129746666Y-101941333D01*
X130651428Y-101893714D02*
X130651428Y-102560380D01*
X130222857Y-101893714D02*
X130222857Y-102417523D01*
X130270476Y-102512761D01*
X130365714Y-102560380D01*
X130508571Y-102560380D01*
X130603809Y-102512761D01*
X130651428Y-102465142D01*
X131270476Y-102560380D02*
X131175238Y-102512761D01*
X131127619Y-102417523D01*
X131127619Y-101560380D01*
X132080000Y-102560380D02*
X132080000Y-102036571D01*
X132032380Y-101941333D01*
X131937142Y-101893714D01*
X131746666Y-101893714D01*
X131651428Y-101941333D01*
X132080000Y-102512761D02*
X131984761Y-102560380D01*
X131746666Y-102560380D01*
X131651428Y-102512761D01*
X131603809Y-102417523D01*
X131603809Y-102322285D01*
X131651428Y-102227047D01*
X131746666Y-102179428D01*
X131984761Y-102179428D01*
X132080000Y-102131809D01*
X132556190Y-102560380D02*
X132556190Y-101893714D01*
X132556190Y-102084190D02*
X132603809Y-101988952D01*
X132651428Y-101941333D01*
X132746666Y-101893714D01*
X132841904Y-101893714D01*
X133746666Y-102560380D02*
X133413333Y-102084190D01*
X133175238Y-102560380D02*
X133175238Y-101560380D01*
X133556190Y-101560380D01*
X133651428Y-101608000D01*
X133699047Y-101655619D01*
X133746666Y-101750857D01*
X133746666Y-101893714D01*
X133699047Y-101988952D01*
X133651428Y-102036571D01*
X133556190Y-102084190D01*
X133175238Y-102084190D01*
X134603809Y-102560380D02*
X134603809Y-102036571D01*
X134556190Y-101941333D01*
X134460952Y-101893714D01*
X134270476Y-101893714D01*
X134175238Y-101941333D01*
X134603809Y-102512761D02*
X134508571Y-102560380D01*
X134270476Y-102560380D01*
X134175238Y-102512761D01*
X134127619Y-102417523D01*
X134127619Y-102322285D01*
X134175238Y-102227047D01*
X134270476Y-102179428D01*
X134508571Y-102179428D01*
X134603809Y-102131809D01*
X135508571Y-102560380D02*
X135508571Y-101560380D01*
X135508571Y-102512761D02*
X135413333Y-102560380D01*
X135222857Y-102560380D01*
X135127619Y-102512761D01*
X135080000Y-102465142D01*
X135032380Y-102369904D01*
X135032380Y-102084190D01*
X135080000Y-101988952D01*
X135127619Y-101941333D01*
X135222857Y-101893714D01*
X135413333Y-101893714D01*
X135508571Y-101941333D01*
X135984761Y-102560380D02*
X135984761Y-101893714D01*
X135984761Y-101560380D02*
X135937142Y-101608000D01*
X135984761Y-101655619D01*
X136032380Y-101608000D01*
X135984761Y-101560380D01*
X135984761Y-101655619D01*
X136603809Y-102560380D02*
X136508571Y-102512761D01*
X136460952Y-102465142D01*
X136413333Y-102369904D01*
X136413333Y-102084190D01*
X136460952Y-101988952D01*
X136508571Y-101941333D01*
X136603809Y-101893714D01*
X136746666Y-101893714D01*
X136841904Y-101941333D01*
X136889523Y-101988952D01*
X136937142Y-102084190D01*
X136937142Y-102369904D01*
X136889523Y-102465142D01*
X136841904Y-102512761D01*
X136746666Y-102560380D01*
X136603809Y-102560380D01*
D11*
X131024000Y-92710000D02*
G75*
G03*
X131024000Y-92710000I-100000J0D01*
G01*
X147420000Y-99200000D02*
G75*
G03*
X147420000Y-99200000I-100000J0D01*
G01*
X164324000Y-92710000D02*
G75*
G03*
X164324000Y-92710000I-100000J0D01*
G01*
X147220000Y-91710000D02*
X147420000Y-91710000D01*
X147420000Y-91710000D02*
X147420000Y-93710000D01*
X147420000Y-93710000D02*
X147220000Y-93710000D01*
X147220000Y-93710000D02*
X147220000Y-91710000D01*
X145870000Y-91485000D02*
X146870000Y-91485000D01*
D12*
X135765000Y-90805000D02*
X138555000Y-90805000D01*
X138555000Y-94615000D02*
X135765000Y-94615000D01*
X135765000Y-92210000D02*
X135765000Y-93210000D01*
D13*
X139999950Y-91440000D02*
G75*
G03*
X139999950Y-91440000I-63950J0D01*
G01*
X156037950Y-93980000D02*
G75*
G03*
X156037950Y-93980000I-63950J0D01*
G01*
D12*
X160145000Y-93210000D02*
X160145000Y-92210000D01*
X157355000Y-90805000D02*
X160145000Y-90805000D01*
X160145000Y-94615000D02*
X157355000Y-94615000D01*
D10*
X128190666Y-98004380D02*
X128190666Y-98718666D01*
X128143047Y-98861523D01*
X128047809Y-98956761D01*
X127904952Y-99004380D01*
X127809714Y-99004380D01*
X129190666Y-99004380D02*
X128619238Y-99004380D01*
X128904952Y-99004380D02*
X128904952Y-98004380D01*
X128809714Y-98147238D01*
X128714476Y-98242476D01*
X128619238Y-98290095D01*
X146986666Y-106132380D02*
X146986666Y-106846666D01*
X146939047Y-106989523D01*
X146843809Y-107084761D01*
X146700952Y-107132380D01*
X146605714Y-107132380D01*
X147415238Y-106227619D02*
X147462857Y-106180000D01*
X147558095Y-106132380D01*
X147796190Y-106132380D01*
X147891428Y-106180000D01*
X147939047Y-106227619D01*
X147986666Y-106322857D01*
X147986666Y-106418095D01*
X147939047Y-106560952D01*
X147367619Y-107132380D01*
X147986666Y-107132380D01*
X166798666Y-98004380D02*
X166798666Y-98718666D01*
X166751047Y-98861523D01*
X166655809Y-98956761D01*
X166512952Y-99004380D01*
X166417714Y-99004380D01*
X167179619Y-98004380D02*
X167798666Y-98004380D01*
X167465333Y-98385333D01*
X167608190Y-98385333D01*
X167703428Y-98432952D01*
X167751047Y-98480571D01*
X167798666Y-98575809D01*
X167798666Y-98813904D01*
X167751047Y-98909142D01*
X167703428Y-98956761D01*
X167608190Y-99004380D01*
X167322476Y-99004380D01*
X167227238Y-98956761D01*
X167179619Y-98909142D01*
D13*
X146382619Y-97094523D02*
X146382619Y-95824523D01*
X146685000Y-95824523D01*
X146866428Y-95885000D01*
X146987380Y-96005952D01*
X147047857Y-96126904D01*
X147108333Y-96368809D01*
X147108333Y-96550238D01*
X147047857Y-96792142D01*
X146987380Y-96913095D01*
X146866428Y-97034047D01*
X146685000Y-97094523D01*
X146382619Y-97094523D01*
X148317857Y-97094523D02*
X147592142Y-97094523D01*
X147955000Y-97094523D02*
X147955000Y-95824523D01*
X147834047Y-96005952D01*
X147713095Y-96126904D01*
X147592142Y-96187380D01*
X136192380Y-95824523D02*
X136918095Y-95824523D01*
X136555238Y-97094523D02*
X136555238Y-95824523D01*
X138006666Y-97094523D02*
X137280952Y-97094523D01*
X137643809Y-97094523D02*
X137643809Y-95824523D01*
X137522857Y-96005952D01*
X137401904Y-96126904D01*
X137280952Y-96187380D01*
X157782380Y-95824523D02*
X158508095Y-95824523D01*
X158145238Y-97094523D02*
X158145238Y-95824523D01*
X158870952Y-95945476D02*
X158931428Y-95885000D01*
X159052380Y-95824523D01*
X159354761Y-95824523D01*
X159475714Y-95885000D01*
X159536190Y-95945476D01*
X159596666Y-96066428D01*
X159596666Y-96187380D01*
X159536190Y-96368809D01*
X158810476Y-97094523D01*
X159596666Y-97094523D01*
M02*
