G04 #@! TF.GenerationSoftware,KiCad,Pcbnew,5.1.9-5.1.9*
G04 #@! TF.CreationDate,2021-02-06T16:07:34+03:00*
G04 #@! TF.ProjectId,mix,6d69782e-6b69-4636-9164-5f7063625858,rev?*
G04 #@! TF.SameCoordinates,Original*
G04 #@! TF.FileFunction,Copper,L1,Top*
G04 #@! TF.FilePolarity,Positive*
%FSLAX46Y46*%
G04 Gerber Fmt 4.6, Leading zero omitted, Abs format (unit mm)*
G04 Created by KiCad (PCBNEW 5.1.9-5.1.9) date 2021-02-06 16:07:34*
%MOMM*%
%LPD*%
G01*
G04 APERTURE LIST*
G04 #@! TA.AperFunction,SMDPad,CuDef*
%ADD10R,3.500000X1.500000*%
G04 #@! TD*
G04 #@! TA.AperFunction,SMDPad,CuDef*
%ADD11R,1.500000X3.500000*%
G04 #@! TD*
G04 #@! TA.AperFunction,SMDPad,CuDef*
%ADD12R,1.000000X0.450000*%
G04 #@! TD*
G04 #@! TA.AperFunction,SMDPad,CuDef*
%ADD13R,1.400000X0.760000*%
G04 #@! TD*
G04 #@! TA.AperFunction,ViaPad*
%ADD14C,0.800000*%
G04 #@! TD*
G04 #@! TA.AperFunction,Conductor*
%ADD15C,0.250000*%
G04 #@! TD*
G04 #@! TA.AperFunction,Conductor*
%ADD16C,0.500000*%
G04 #@! TD*
G04 #@! TA.AperFunction,Conductor*
%ADD17C,0.254000*%
G04 #@! TD*
G04 #@! TA.AperFunction,Conductor*
%ADD18C,0.100000*%
G04 #@! TD*
G04 APERTURE END LIST*
D10*
X128524000Y-95410000D03*
X128524000Y-90010000D03*
X128524000Y-92710000D03*
D11*
X150020000Y-101600000D03*
X144620000Y-101600000D03*
X147320000Y-101600000D03*
D10*
X166624000Y-90010000D03*
X166624000Y-95410000D03*
X166624000Y-92710000D03*
D12*
X146370000Y-92060000D03*
X146370000Y-92710000D03*
X146370000Y-93360000D03*
X148270000Y-93360000D03*
X148270000Y-92710000D03*
X148270000Y-92060000D03*
D13*
X138875000Y-91440000D03*
X138875000Y-92710000D03*
X138875000Y-93980000D03*
X135445000Y-93980000D03*
X135445000Y-91440000D03*
X160465000Y-93980000D03*
X160465000Y-91440000D03*
X157035000Y-91440000D03*
X157035000Y-92710000D03*
X157035000Y-93980000D03*
D14*
X130175000Y-88265000D03*
X130175000Y-97155000D03*
X130175000Y-101092000D03*
X166370000Y-88265000D03*
X166370000Y-97155000D03*
X166370000Y-101092000D03*
X137160000Y-101092000D03*
X157480000Y-101092000D03*
X142875000Y-88265000D03*
X151765000Y-88265000D03*
D15*
X147680002Y-92710000D02*
X148270000Y-92710000D01*
X147030002Y-92060000D02*
X147680002Y-92710000D01*
X146370000Y-92060000D02*
X147030002Y-92060000D01*
X157985000Y-93980000D02*
X157035000Y-93980000D01*
X148270000Y-92710000D02*
X151130000Y-92710000D01*
X153670000Y-90170000D02*
X157480000Y-90170000D01*
X157480000Y-90170000D02*
X158750000Y-91440000D01*
X158750000Y-91440000D02*
X158750000Y-93215000D01*
X151130000Y-92710000D02*
X153670000Y-90170000D01*
X158750000Y-93215000D02*
X157985000Y-93980000D01*
X147693592Y-93360000D02*
X148270000Y-93360000D01*
X147043592Y-92710000D02*
X147693592Y-93360000D01*
X146370000Y-92710000D02*
X147043592Y-92710000D01*
X148270000Y-93360000D02*
X151750000Y-93360000D01*
X153670000Y-91440000D02*
X157035000Y-91440000D01*
X151750000Y-93360000D02*
X153670000Y-91440000D01*
X145750000Y-93980000D02*
X146370000Y-93360000D01*
X138875000Y-93980000D02*
X145750000Y-93980000D01*
X138875000Y-91440000D02*
X140970000Y-91440000D01*
X140970000Y-91440000D02*
X142240000Y-90170000D01*
X146380000Y-90170000D02*
X148270000Y-92060000D01*
X142240000Y-90170000D02*
X146380000Y-90170000D01*
X134175000Y-92710000D02*
X135445000Y-91440000D01*
X134175000Y-92710000D02*
X128524000Y-92710000D01*
D16*
X157035000Y-92710000D02*
X156085000Y-92710000D01*
D15*
X154210000Y-92710000D02*
X157035000Y-92710000D01*
X147320000Y-99600000D02*
X154210000Y-92710000D01*
X147320000Y-101600000D02*
X147320000Y-99600000D01*
X161735000Y-92710000D02*
X160465000Y-93980000D01*
X166624000Y-92710000D02*
X161735000Y-92710000D01*
D17*
X168504000Y-88635862D02*
X168498482Y-88634188D01*
X168374000Y-88621928D01*
X166909750Y-88625000D01*
X166751000Y-88783750D01*
X166751000Y-89883000D01*
X166771000Y-89883000D01*
X166771000Y-90137000D01*
X166751000Y-90137000D01*
X166751000Y-90157000D01*
X166497000Y-90157000D01*
X166497000Y-90137000D01*
X164397750Y-90137000D01*
X164239000Y-90295750D01*
X164235928Y-90760000D01*
X164248188Y-90884482D01*
X164284498Y-91004180D01*
X164343463Y-91114494D01*
X164422815Y-91211185D01*
X164519506Y-91290537D01*
X164629820Y-91349502D01*
X164664427Y-91360000D01*
X164629820Y-91370498D01*
X164519506Y-91429463D01*
X164422815Y-91508815D01*
X164343463Y-91605506D01*
X164284498Y-91715820D01*
X164248188Y-91835518D01*
X164236913Y-91950000D01*
X161789138Y-91950000D01*
X161790812Y-91944482D01*
X161803072Y-91820000D01*
X161800000Y-91725750D01*
X161641250Y-91567000D01*
X160592000Y-91567000D01*
X160592000Y-92296250D01*
X160750750Y-92455000D01*
X160913988Y-92456211D01*
X160408271Y-92961928D01*
X159765000Y-92961928D01*
X159640518Y-92974188D01*
X159520820Y-93010498D01*
X159510000Y-93016282D01*
X159510000Y-92403718D01*
X159520820Y-92409502D01*
X159640518Y-92445812D01*
X159765000Y-92458072D01*
X160179250Y-92455000D01*
X160338000Y-92296250D01*
X160338000Y-91567000D01*
X160318000Y-91567000D01*
X160318000Y-91313000D01*
X160338000Y-91313000D01*
X160338000Y-90583750D01*
X160592000Y-90583750D01*
X160592000Y-91313000D01*
X161641250Y-91313000D01*
X161800000Y-91154250D01*
X161803072Y-91060000D01*
X161790812Y-90935518D01*
X161754502Y-90815820D01*
X161695537Y-90705506D01*
X161616185Y-90608815D01*
X161519494Y-90529463D01*
X161409180Y-90470498D01*
X161289482Y-90434188D01*
X161165000Y-90421928D01*
X160750750Y-90425000D01*
X160592000Y-90583750D01*
X160338000Y-90583750D01*
X160179250Y-90425000D01*
X159765000Y-90421928D01*
X159640518Y-90434188D01*
X159520820Y-90470498D01*
X159410506Y-90529463D01*
X159313815Y-90608815D01*
X159234463Y-90705506D01*
X159184249Y-90799448D01*
X158043804Y-89659003D01*
X158020001Y-89629999D01*
X157904276Y-89535026D01*
X157772247Y-89464454D01*
X157628986Y-89420997D01*
X157517333Y-89410000D01*
X157517322Y-89410000D01*
X157480000Y-89406324D01*
X157442678Y-89410000D01*
X153707322Y-89410000D01*
X153669999Y-89406324D01*
X153632676Y-89410000D01*
X153632667Y-89410000D01*
X153521014Y-89420997D01*
X153377753Y-89464454D01*
X153245724Y-89535026D01*
X153245722Y-89535027D01*
X153245723Y-89535027D01*
X153158996Y-89606201D01*
X153158992Y-89606205D01*
X153129999Y-89629999D01*
X153106205Y-89658992D01*
X150815199Y-91950000D01*
X149408072Y-91950000D01*
X149408072Y-91835000D01*
X149395812Y-91710518D01*
X149359502Y-91590820D01*
X149300537Y-91480506D01*
X149221185Y-91383815D01*
X149124494Y-91304463D01*
X149014180Y-91245498D01*
X148894482Y-91209188D01*
X148770000Y-91196928D01*
X148481730Y-91196928D01*
X146943804Y-89659003D01*
X146920001Y-89629999D01*
X146804276Y-89535026D01*
X146672247Y-89464454D01*
X146528986Y-89420997D01*
X146417333Y-89410000D01*
X146417322Y-89410000D01*
X146380000Y-89406324D01*
X146342678Y-89410000D01*
X142277322Y-89410000D01*
X142239999Y-89406324D01*
X142202676Y-89410000D01*
X142202667Y-89410000D01*
X142091014Y-89420997D01*
X141947753Y-89464454D01*
X141815724Y-89535026D01*
X141699999Y-89629999D01*
X141676201Y-89658997D01*
X140655199Y-90680000D01*
X140084605Y-90680000D01*
X140026185Y-90608815D01*
X139929494Y-90529463D01*
X139819180Y-90470498D01*
X139699482Y-90434188D01*
X139575000Y-90421928D01*
X138175000Y-90421928D01*
X138050518Y-90434188D01*
X137930820Y-90470498D01*
X137820506Y-90529463D01*
X137723815Y-90608815D01*
X137644463Y-90705506D01*
X137585498Y-90815820D01*
X137549188Y-90935518D01*
X137536928Y-91060000D01*
X137536928Y-91820000D01*
X137549188Y-91944482D01*
X137585498Y-92064180D01*
X137591282Y-92075000D01*
X137585498Y-92085820D01*
X137549188Y-92205518D01*
X137536928Y-92330000D01*
X137540000Y-92424250D01*
X137698750Y-92583000D01*
X138748000Y-92583000D01*
X138748000Y-92563000D01*
X139002000Y-92563000D01*
X139002000Y-92583000D01*
X140051250Y-92583000D01*
X140210000Y-92424250D01*
X140213072Y-92330000D01*
X140200812Y-92205518D01*
X140199138Y-92200000D01*
X140932678Y-92200000D01*
X140970000Y-92203676D01*
X141007322Y-92200000D01*
X141007333Y-92200000D01*
X141118986Y-92189003D01*
X141262247Y-92145546D01*
X141394276Y-92074974D01*
X141510001Y-91980001D01*
X141533804Y-91950997D01*
X142554802Y-90930000D01*
X146065199Y-90930000D01*
X146332127Y-91196928D01*
X145870000Y-91196928D01*
X145745518Y-91209188D01*
X145625820Y-91245498D01*
X145515506Y-91304463D01*
X145418815Y-91383815D01*
X145339463Y-91480506D01*
X145280498Y-91590820D01*
X145244188Y-91710518D01*
X145231928Y-91835000D01*
X145231928Y-92285000D01*
X145241777Y-92385000D01*
X145231928Y-92485000D01*
X145231928Y-92935000D01*
X145241777Y-93035000D01*
X145231928Y-93135000D01*
X145231928Y-93220000D01*
X140199138Y-93220000D01*
X140200812Y-93214482D01*
X140213072Y-93090000D01*
X140210000Y-92995750D01*
X140051250Y-92837000D01*
X139002000Y-92837000D01*
X139002000Y-92857000D01*
X138748000Y-92857000D01*
X138748000Y-92837000D01*
X137698750Y-92837000D01*
X137540000Y-92995750D01*
X137536928Y-93090000D01*
X137549188Y-93214482D01*
X137585498Y-93334180D01*
X137591282Y-93345000D01*
X137585498Y-93355820D01*
X137549188Y-93475518D01*
X137536928Y-93600000D01*
X137536928Y-94360000D01*
X137549188Y-94484482D01*
X137585498Y-94604180D01*
X137644463Y-94714494D01*
X137723815Y-94811185D01*
X137820506Y-94890537D01*
X137930820Y-94949502D01*
X138050518Y-94985812D01*
X138175000Y-94998072D01*
X139575000Y-94998072D01*
X139699482Y-94985812D01*
X139819180Y-94949502D01*
X139929494Y-94890537D01*
X140026185Y-94811185D01*
X140084605Y-94740000D01*
X145712678Y-94740000D01*
X145750000Y-94743676D01*
X145787322Y-94740000D01*
X145787333Y-94740000D01*
X145898986Y-94729003D01*
X146042247Y-94685546D01*
X146174276Y-94614974D01*
X146290001Y-94520001D01*
X146313803Y-94490998D01*
X146581730Y-94223072D01*
X146870000Y-94223072D01*
X146994482Y-94210812D01*
X147114180Y-94174502D01*
X147224494Y-94115537D01*
X147320000Y-94037158D01*
X147415506Y-94115537D01*
X147525820Y-94174502D01*
X147645518Y-94210812D01*
X147770000Y-94223072D01*
X148770000Y-94223072D01*
X148894482Y-94210812D01*
X149014180Y-94174502D01*
X149116144Y-94120000D01*
X151712678Y-94120000D01*
X151724075Y-94121123D01*
X146808998Y-99036201D01*
X146780000Y-99059999D01*
X146756202Y-99088997D01*
X146756201Y-99088998D01*
X146685026Y-99175724D01*
X146665674Y-99211928D01*
X146570000Y-99211928D01*
X146445518Y-99224188D01*
X146325820Y-99260498D01*
X146215506Y-99319463D01*
X146118815Y-99398815D01*
X146039463Y-99495506D01*
X145980498Y-99605820D01*
X145970000Y-99640427D01*
X145959502Y-99605820D01*
X145900537Y-99495506D01*
X145821185Y-99398815D01*
X145724494Y-99319463D01*
X145614180Y-99260498D01*
X145494482Y-99224188D01*
X145370000Y-99211928D01*
X144905750Y-99215000D01*
X144747000Y-99373750D01*
X144747000Y-101473000D01*
X144767000Y-101473000D01*
X144767000Y-101727000D01*
X144747000Y-101727000D01*
X144747000Y-101747000D01*
X144493000Y-101747000D01*
X144493000Y-101727000D01*
X143393750Y-101727000D01*
X143235000Y-101885750D01*
X143232721Y-102972000D01*
X126644000Y-102972000D01*
X126644000Y-99850000D01*
X143231928Y-99850000D01*
X143235000Y-101314250D01*
X143393750Y-101473000D01*
X144493000Y-101473000D01*
X144493000Y-99373750D01*
X144334250Y-99215000D01*
X143870000Y-99211928D01*
X143745518Y-99224188D01*
X143625820Y-99260498D01*
X143515506Y-99319463D01*
X143418815Y-99398815D01*
X143339463Y-99495506D01*
X143280498Y-99605820D01*
X143244188Y-99725518D01*
X143231928Y-99850000D01*
X126644000Y-99850000D01*
X126644000Y-96784138D01*
X126649518Y-96785812D01*
X126774000Y-96798072D01*
X128238250Y-96795000D01*
X128397000Y-96636250D01*
X128397000Y-95537000D01*
X128651000Y-95537000D01*
X128651000Y-96636250D01*
X128809750Y-96795000D01*
X130274000Y-96798072D01*
X130398482Y-96785812D01*
X130518180Y-96749502D01*
X130628494Y-96690537D01*
X130725185Y-96611185D01*
X130804537Y-96514494D01*
X130863502Y-96404180D01*
X130899812Y-96284482D01*
X130912072Y-96160000D01*
X130909000Y-95695750D01*
X130750250Y-95537000D01*
X128651000Y-95537000D01*
X128397000Y-95537000D01*
X128377000Y-95537000D01*
X128377000Y-95283000D01*
X128397000Y-95283000D01*
X128397000Y-95263000D01*
X128651000Y-95263000D01*
X128651000Y-95283000D01*
X130750250Y-95283000D01*
X130909000Y-95124250D01*
X130912072Y-94660000D01*
X130899812Y-94535518D01*
X130863502Y-94415820D01*
X130833666Y-94360000D01*
X134106928Y-94360000D01*
X134119188Y-94484482D01*
X134155498Y-94604180D01*
X134214463Y-94714494D01*
X134293815Y-94811185D01*
X134390506Y-94890537D01*
X134500820Y-94949502D01*
X134620518Y-94985812D01*
X134745000Y-94998072D01*
X135159250Y-94995000D01*
X135318000Y-94836250D01*
X135318000Y-94107000D01*
X135572000Y-94107000D01*
X135572000Y-94836250D01*
X135730750Y-94995000D01*
X136145000Y-94998072D01*
X136269482Y-94985812D01*
X136389180Y-94949502D01*
X136499494Y-94890537D01*
X136596185Y-94811185D01*
X136675537Y-94714494D01*
X136734502Y-94604180D01*
X136770812Y-94484482D01*
X136783072Y-94360000D01*
X136780000Y-94265750D01*
X136621250Y-94107000D01*
X135572000Y-94107000D01*
X135318000Y-94107000D01*
X134268750Y-94107000D01*
X134110000Y-94265750D01*
X134106928Y-94360000D01*
X130833666Y-94360000D01*
X130804537Y-94305506D01*
X130725185Y-94208815D01*
X130628494Y-94129463D01*
X130518180Y-94070498D01*
X130483573Y-94060000D01*
X130518180Y-94049502D01*
X130628494Y-93990537D01*
X130725185Y-93911185D01*
X130804537Y-93814494D01*
X130863502Y-93704180D01*
X130899812Y-93584482D01*
X130911087Y-93470000D01*
X134120862Y-93470000D01*
X134119188Y-93475518D01*
X134106928Y-93600000D01*
X134110000Y-93694250D01*
X134268750Y-93853000D01*
X135318000Y-93853000D01*
X135318000Y-93123750D01*
X135572000Y-93123750D01*
X135572000Y-93853000D01*
X136621250Y-93853000D01*
X136780000Y-93694250D01*
X136783072Y-93600000D01*
X136770812Y-93475518D01*
X136734502Y-93355820D01*
X136675537Y-93245506D01*
X136596185Y-93148815D01*
X136499494Y-93069463D01*
X136389180Y-93010498D01*
X136269482Y-92974188D01*
X136145000Y-92961928D01*
X135730750Y-92965000D01*
X135572000Y-93123750D01*
X135318000Y-93123750D01*
X135159250Y-92965000D01*
X134996012Y-92963789D01*
X135501730Y-92458072D01*
X136145000Y-92458072D01*
X136269482Y-92445812D01*
X136389180Y-92409502D01*
X136499494Y-92350537D01*
X136596185Y-92271185D01*
X136675537Y-92174494D01*
X136734502Y-92064180D01*
X136770812Y-91944482D01*
X136783072Y-91820000D01*
X136783072Y-91060000D01*
X136770812Y-90935518D01*
X136734502Y-90815820D01*
X136675537Y-90705506D01*
X136596185Y-90608815D01*
X136499494Y-90529463D01*
X136389180Y-90470498D01*
X136269482Y-90434188D01*
X136145000Y-90421928D01*
X134745000Y-90421928D01*
X134620518Y-90434188D01*
X134500820Y-90470498D01*
X134390506Y-90529463D01*
X134293815Y-90608815D01*
X134214463Y-90705506D01*
X134155498Y-90815820D01*
X134119188Y-90935518D01*
X134106928Y-91060000D01*
X134106928Y-91703271D01*
X133860199Y-91950000D01*
X130911087Y-91950000D01*
X130899812Y-91835518D01*
X130863502Y-91715820D01*
X130804537Y-91605506D01*
X130725185Y-91508815D01*
X130628494Y-91429463D01*
X130518180Y-91370498D01*
X130483573Y-91360000D01*
X130518180Y-91349502D01*
X130628494Y-91290537D01*
X130725185Y-91211185D01*
X130804537Y-91114494D01*
X130863502Y-91004180D01*
X130899812Y-90884482D01*
X130912072Y-90760000D01*
X130909000Y-90295750D01*
X130750250Y-90137000D01*
X128651000Y-90137000D01*
X128651000Y-90157000D01*
X128397000Y-90157000D01*
X128397000Y-90137000D01*
X128377000Y-90137000D01*
X128377000Y-89883000D01*
X128397000Y-89883000D01*
X128397000Y-88783750D01*
X128651000Y-88783750D01*
X128651000Y-89883000D01*
X130750250Y-89883000D01*
X130909000Y-89724250D01*
X130912072Y-89260000D01*
X164235928Y-89260000D01*
X164239000Y-89724250D01*
X164397750Y-89883000D01*
X166497000Y-89883000D01*
X166497000Y-88783750D01*
X166338250Y-88625000D01*
X164874000Y-88621928D01*
X164749518Y-88634188D01*
X164629820Y-88670498D01*
X164519506Y-88729463D01*
X164422815Y-88808815D01*
X164343463Y-88905506D01*
X164284498Y-89015820D01*
X164248188Y-89135518D01*
X164235928Y-89260000D01*
X130912072Y-89260000D01*
X130899812Y-89135518D01*
X130863502Y-89015820D01*
X130804537Y-88905506D01*
X130725185Y-88808815D01*
X130628494Y-88729463D01*
X130518180Y-88670498D01*
X130398482Y-88634188D01*
X130274000Y-88621928D01*
X128809750Y-88625000D01*
X128651000Y-88783750D01*
X128397000Y-88783750D01*
X128238250Y-88625000D01*
X126774000Y-88621928D01*
X126649518Y-88634188D01*
X126644000Y-88635862D01*
X126644000Y-85115000D01*
X168504000Y-85115000D01*
X168504000Y-88635862D01*
G04 #@! TA.AperFunction,Conductor*
D18*
G36*
X168504000Y-88635862D02*
G01*
X168498482Y-88634188D01*
X168374000Y-88621928D01*
X166909750Y-88625000D01*
X166751000Y-88783750D01*
X166751000Y-89883000D01*
X166771000Y-89883000D01*
X166771000Y-90137000D01*
X166751000Y-90137000D01*
X166751000Y-90157000D01*
X166497000Y-90157000D01*
X166497000Y-90137000D01*
X164397750Y-90137000D01*
X164239000Y-90295750D01*
X164235928Y-90760000D01*
X164248188Y-90884482D01*
X164284498Y-91004180D01*
X164343463Y-91114494D01*
X164422815Y-91211185D01*
X164519506Y-91290537D01*
X164629820Y-91349502D01*
X164664427Y-91360000D01*
X164629820Y-91370498D01*
X164519506Y-91429463D01*
X164422815Y-91508815D01*
X164343463Y-91605506D01*
X164284498Y-91715820D01*
X164248188Y-91835518D01*
X164236913Y-91950000D01*
X161789138Y-91950000D01*
X161790812Y-91944482D01*
X161803072Y-91820000D01*
X161800000Y-91725750D01*
X161641250Y-91567000D01*
X160592000Y-91567000D01*
X160592000Y-92296250D01*
X160750750Y-92455000D01*
X160913988Y-92456211D01*
X160408271Y-92961928D01*
X159765000Y-92961928D01*
X159640518Y-92974188D01*
X159520820Y-93010498D01*
X159510000Y-93016282D01*
X159510000Y-92403718D01*
X159520820Y-92409502D01*
X159640518Y-92445812D01*
X159765000Y-92458072D01*
X160179250Y-92455000D01*
X160338000Y-92296250D01*
X160338000Y-91567000D01*
X160318000Y-91567000D01*
X160318000Y-91313000D01*
X160338000Y-91313000D01*
X160338000Y-90583750D01*
X160592000Y-90583750D01*
X160592000Y-91313000D01*
X161641250Y-91313000D01*
X161800000Y-91154250D01*
X161803072Y-91060000D01*
X161790812Y-90935518D01*
X161754502Y-90815820D01*
X161695537Y-90705506D01*
X161616185Y-90608815D01*
X161519494Y-90529463D01*
X161409180Y-90470498D01*
X161289482Y-90434188D01*
X161165000Y-90421928D01*
X160750750Y-90425000D01*
X160592000Y-90583750D01*
X160338000Y-90583750D01*
X160179250Y-90425000D01*
X159765000Y-90421928D01*
X159640518Y-90434188D01*
X159520820Y-90470498D01*
X159410506Y-90529463D01*
X159313815Y-90608815D01*
X159234463Y-90705506D01*
X159184249Y-90799448D01*
X158043804Y-89659003D01*
X158020001Y-89629999D01*
X157904276Y-89535026D01*
X157772247Y-89464454D01*
X157628986Y-89420997D01*
X157517333Y-89410000D01*
X157517322Y-89410000D01*
X157480000Y-89406324D01*
X157442678Y-89410000D01*
X153707322Y-89410000D01*
X153669999Y-89406324D01*
X153632676Y-89410000D01*
X153632667Y-89410000D01*
X153521014Y-89420997D01*
X153377753Y-89464454D01*
X153245724Y-89535026D01*
X153245722Y-89535027D01*
X153245723Y-89535027D01*
X153158996Y-89606201D01*
X153158992Y-89606205D01*
X153129999Y-89629999D01*
X153106205Y-89658992D01*
X150815199Y-91950000D01*
X149408072Y-91950000D01*
X149408072Y-91835000D01*
X149395812Y-91710518D01*
X149359502Y-91590820D01*
X149300537Y-91480506D01*
X149221185Y-91383815D01*
X149124494Y-91304463D01*
X149014180Y-91245498D01*
X148894482Y-91209188D01*
X148770000Y-91196928D01*
X148481730Y-91196928D01*
X146943804Y-89659003D01*
X146920001Y-89629999D01*
X146804276Y-89535026D01*
X146672247Y-89464454D01*
X146528986Y-89420997D01*
X146417333Y-89410000D01*
X146417322Y-89410000D01*
X146380000Y-89406324D01*
X146342678Y-89410000D01*
X142277322Y-89410000D01*
X142239999Y-89406324D01*
X142202676Y-89410000D01*
X142202667Y-89410000D01*
X142091014Y-89420997D01*
X141947753Y-89464454D01*
X141815724Y-89535026D01*
X141699999Y-89629999D01*
X141676201Y-89658997D01*
X140655199Y-90680000D01*
X140084605Y-90680000D01*
X140026185Y-90608815D01*
X139929494Y-90529463D01*
X139819180Y-90470498D01*
X139699482Y-90434188D01*
X139575000Y-90421928D01*
X138175000Y-90421928D01*
X138050518Y-90434188D01*
X137930820Y-90470498D01*
X137820506Y-90529463D01*
X137723815Y-90608815D01*
X137644463Y-90705506D01*
X137585498Y-90815820D01*
X137549188Y-90935518D01*
X137536928Y-91060000D01*
X137536928Y-91820000D01*
X137549188Y-91944482D01*
X137585498Y-92064180D01*
X137591282Y-92075000D01*
X137585498Y-92085820D01*
X137549188Y-92205518D01*
X137536928Y-92330000D01*
X137540000Y-92424250D01*
X137698750Y-92583000D01*
X138748000Y-92583000D01*
X138748000Y-92563000D01*
X139002000Y-92563000D01*
X139002000Y-92583000D01*
X140051250Y-92583000D01*
X140210000Y-92424250D01*
X140213072Y-92330000D01*
X140200812Y-92205518D01*
X140199138Y-92200000D01*
X140932678Y-92200000D01*
X140970000Y-92203676D01*
X141007322Y-92200000D01*
X141007333Y-92200000D01*
X141118986Y-92189003D01*
X141262247Y-92145546D01*
X141394276Y-92074974D01*
X141510001Y-91980001D01*
X141533804Y-91950997D01*
X142554802Y-90930000D01*
X146065199Y-90930000D01*
X146332127Y-91196928D01*
X145870000Y-91196928D01*
X145745518Y-91209188D01*
X145625820Y-91245498D01*
X145515506Y-91304463D01*
X145418815Y-91383815D01*
X145339463Y-91480506D01*
X145280498Y-91590820D01*
X145244188Y-91710518D01*
X145231928Y-91835000D01*
X145231928Y-92285000D01*
X145241777Y-92385000D01*
X145231928Y-92485000D01*
X145231928Y-92935000D01*
X145241777Y-93035000D01*
X145231928Y-93135000D01*
X145231928Y-93220000D01*
X140199138Y-93220000D01*
X140200812Y-93214482D01*
X140213072Y-93090000D01*
X140210000Y-92995750D01*
X140051250Y-92837000D01*
X139002000Y-92837000D01*
X139002000Y-92857000D01*
X138748000Y-92857000D01*
X138748000Y-92837000D01*
X137698750Y-92837000D01*
X137540000Y-92995750D01*
X137536928Y-93090000D01*
X137549188Y-93214482D01*
X137585498Y-93334180D01*
X137591282Y-93345000D01*
X137585498Y-93355820D01*
X137549188Y-93475518D01*
X137536928Y-93600000D01*
X137536928Y-94360000D01*
X137549188Y-94484482D01*
X137585498Y-94604180D01*
X137644463Y-94714494D01*
X137723815Y-94811185D01*
X137820506Y-94890537D01*
X137930820Y-94949502D01*
X138050518Y-94985812D01*
X138175000Y-94998072D01*
X139575000Y-94998072D01*
X139699482Y-94985812D01*
X139819180Y-94949502D01*
X139929494Y-94890537D01*
X140026185Y-94811185D01*
X140084605Y-94740000D01*
X145712678Y-94740000D01*
X145750000Y-94743676D01*
X145787322Y-94740000D01*
X145787333Y-94740000D01*
X145898986Y-94729003D01*
X146042247Y-94685546D01*
X146174276Y-94614974D01*
X146290001Y-94520001D01*
X146313803Y-94490998D01*
X146581730Y-94223072D01*
X146870000Y-94223072D01*
X146994482Y-94210812D01*
X147114180Y-94174502D01*
X147224494Y-94115537D01*
X147320000Y-94037158D01*
X147415506Y-94115537D01*
X147525820Y-94174502D01*
X147645518Y-94210812D01*
X147770000Y-94223072D01*
X148770000Y-94223072D01*
X148894482Y-94210812D01*
X149014180Y-94174502D01*
X149116144Y-94120000D01*
X151712678Y-94120000D01*
X151724075Y-94121123D01*
X146808998Y-99036201D01*
X146780000Y-99059999D01*
X146756202Y-99088997D01*
X146756201Y-99088998D01*
X146685026Y-99175724D01*
X146665674Y-99211928D01*
X146570000Y-99211928D01*
X146445518Y-99224188D01*
X146325820Y-99260498D01*
X146215506Y-99319463D01*
X146118815Y-99398815D01*
X146039463Y-99495506D01*
X145980498Y-99605820D01*
X145970000Y-99640427D01*
X145959502Y-99605820D01*
X145900537Y-99495506D01*
X145821185Y-99398815D01*
X145724494Y-99319463D01*
X145614180Y-99260498D01*
X145494482Y-99224188D01*
X145370000Y-99211928D01*
X144905750Y-99215000D01*
X144747000Y-99373750D01*
X144747000Y-101473000D01*
X144767000Y-101473000D01*
X144767000Y-101727000D01*
X144747000Y-101727000D01*
X144747000Y-101747000D01*
X144493000Y-101747000D01*
X144493000Y-101727000D01*
X143393750Y-101727000D01*
X143235000Y-101885750D01*
X143232721Y-102972000D01*
X126644000Y-102972000D01*
X126644000Y-99850000D01*
X143231928Y-99850000D01*
X143235000Y-101314250D01*
X143393750Y-101473000D01*
X144493000Y-101473000D01*
X144493000Y-99373750D01*
X144334250Y-99215000D01*
X143870000Y-99211928D01*
X143745518Y-99224188D01*
X143625820Y-99260498D01*
X143515506Y-99319463D01*
X143418815Y-99398815D01*
X143339463Y-99495506D01*
X143280498Y-99605820D01*
X143244188Y-99725518D01*
X143231928Y-99850000D01*
X126644000Y-99850000D01*
X126644000Y-96784138D01*
X126649518Y-96785812D01*
X126774000Y-96798072D01*
X128238250Y-96795000D01*
X128397000Y-96636250D01*
X128397000Y-95537000D01*
X128651000Y-95537000D01*
X128651000Y-96636250D01*
X128809750Y-96795000D01*
X130274000Y-96798072D01*
X130398482Y-96785812D01*
X130518180Y-96749502D01*
X130628494Y-96690537D01*
X130725185Y-96611185D01*
X130804537Y-96514494D01*
X130863502Y-96404180D01*
X130899812Y-96284482D01*
X130912072Y-96160000D01*
X130909000Y-95695750D01*
X130750250Y-95537000D01*
X128651000Y-95537000D01*
X128397000Y-95537000D01*
X128377000Y-95537000D01*
X128377000Y-95283000D01*
X128397000Y-95283000D01*
X128397000Y-95263000D01*
X128651000Y-95263000D01*
X128651000Y-95283000D01*
X130750250Y-95283000D01*
X130909000Y-95124250D01*
X130912072Y-94660000D01*
X130899812Y-94535518D01*
X130863502Y-94415820D01*
X130833666Y-94360000D01*
X134106928Y-94360000D01*
X134119188Y-94484482D01*
X134155498Y-94604180D01*
X134214463Y-94714494D01*
X134293815Y-94811185D01*
X134390506Y-94890537D01*
X134500820Y-94949502D01*
X134620518Y-94985812D01*
X134745000Y-94998072D01*
X135159250Y-94995000D01*
X135318000Y-94836250D01*
X135318000Y-94107000D01*
X135572000Y-94107000D01*
X135572000Y-94836250D01*
X135730750Y-94995000D01*
X136145000Y-94998072D01*
X136269482Y-94985812D01*
X136389180Y-94949502D01*
X136499494Y-94890537D01*
X136596185Y-94811185D01*
X136675537Y-94714494D01*
X136734502Y-94604180D01*
X136770812Y-94484482D01*
X136783072Y-94360000D01*
X136780000Y-94265750D01*
X136621250Y-94107000D01*
X135572000Y-94107000D01*
X135318000Y-94107000D01*
X134268750Y-94107000D01*
X134110000Y-94265750D01*
X134106928Y-94360000D01*
X130833666Y-94360000D01*
X130804537Y-94305506D01*
X130725185Y-94208815D01*
X130628494Y-94129463D01*
X130518180Y-94070498D01*
X130483573Y-94060000D01*
X130518180Y-94049502D01*
X130628494Y-93990537D01*
X130725185Y-93911185D01*
X130804537Y-93814494D01*
X130863502Y-93704180D01*
X130899812Y-93584482D01*
X130911087Y-93470000D01*
X134120862Y-93470000D01*
X134119188Y-93475518D01*
X134106928Y-93600000D01*
X134110000Y-93694250D01*
X134268750Y-93853000D01*
X135318000Y-93853000D01*
X135318000Y-93123750D01*
X135572000Y-93123750D01*
X135572000Y-93853000D01*
X136621250Y-93853000D01*
X136780000Y-93694250D01*
X136783072Y-93600000D01*
X136770812Y-93475518D01*
X136734502Y-93355820D01*
X136675537Y-93245506D01*
X136596185Y-93148815D01*
X136499494Y-93069463D01*
X136389180Y-93010498D01*
X136269482Y-92974188D01*
X136145000Y-92961928D01*
X135730750Y-92965000D01*
X135572000Y-93123750D01*
X135318000Y-93123750D01*
X135159250Y-92965000D01*
X134996012Y-92963789D01*
X135501730Y-92458072D01*
X136145000Y-92458072D01*
X136269482Y-92445812D01*
X136389180Y-92409502D01*
X136499494Y-92350537D01*
X136596185Y-92271185D01*
X136675537Y-92174494D01*
X136734502Y-92064180D01*
X136770812Y-91944482D01*
X136783072Y-91820000D01*
X136783072Y-91060000D01*
X136770812Y-90935518D01*
X136734502Y-90815820D01*
X136675537Y-90705506D01*
X136596185Y-90608815D01*
X136499494Y-90529463D01*
X136389180Y-90470498D01*
X136269482Y-90434188D01*
X136145000Y-90421928D01*
X134745000Y-90421928D01*
X134620518Y-90434188D01*
X134500820Y-90470498D01*
X134390506Y-90529463D01*
X134293815Y-90608815D01*
X134214463Y-90705506D01*
X134155498Y-90815820D01*
X134119188Y-90935518D01*
X134106928Y-91060000D01*
X134106928Y-91703271D01*
X133860199Y-91950000D01*
X130911087Y-91950000D01*
X130899812Y-91835518D01*
X130863502Y-91715820D01*
X130804537Y-91605506D01*
X130725185Y-91508815D01*
X130628494Y-91429463D01*
X130518180Y-91370498D01*
X130483573Y-91360000D01*
X130518180Y-91349502D01*
X130628494Y-91290537D01*
X130725185Y-91211185D01*
X130804537Y-91114494D01*
X130863502Y-91004180D01*
X130899812Y-90884482D01*
X130912072Y-90760000D01*
X130909000Y-90295750D01*
X130750250Y-90137000D01*
X128651000Y-90137000D01*
X128651000Y-90157000D01*
X128397000Y-90157000D01*
X128397000Y-90137000D01*
X128377000Y-90137000D01*
X128377000Y-89883000D01*
X128397000Y-89883000D01*
X128397000Y-88783750D01*
X128651000Y-88783750D01*
X128651000Y-89883000D01*
X130750250Y-89883000D01*
X130909000Y-89724250D01*
X130912072Y-89260000D01*
X164235928Y-89260000D01*
X164239000Y-89724250D01*
X164397750Y-89883000D01*
X166497000Y-89883000D01*
X166497000Y-88783750D01*
X166338250Y-88625000D01*
X164874000Y-88621928D01*
X164749518Y-88634188D01*
X164629820Y-88670498D01*
X164519506Y-88729463D01*
X164422815Y-88808815D01*
X164343463Y-88905506D01*
X164284498Y-89015820D01*
X164248188Y-89135518D01*
X164235928Y-89260000D01*
X130912072Y-89260000D01*
X130899812Y-89135518D01*
X130863502Y-89015820D01*
X130804537Y-88905506D01*
X130725185Y-88808815D01*
X130628494Y-88729463D01*
X130518180Y-88670498D01*
X130398482Y-88634188D01*
X130274000Y-88621928D01*
X128809750Y-88625000D01*
X128651000Y-88783750D01*
X128397000Y-88783750D01*
X128238250Y-88625000D01*
X126774000Y-88621928D01*
X126649518Y-88634188D01*
X126644000Y-88635862D01*
X126644000Y-85115000D01*
X168504000Y-85115000D01*
X168504000Y-88635862D01*
G37*
G04 #@! TD.AperFunction*
D17*
X155705717Y-93510759D02*
X155696928Y-93600000D01*
X155696928Y-94360000D01*
X155709188Y-94484482D01*
X155745498Y-94604180D01*
X155804463Y-94714494D01*
X155883815Y-94811185D01*
X155980506Y-94890537D01*
X156090820Y-94949502D01*
X156210518Y-94985812D01*
X156335000Y-94998072D01*
X157735000Y-94998072D01*
X157859482Y-94985812D01*
X157979180Y-94949502D01*
X158089494Y-94890537D01*
X158186185Y-94811185D01*
X158265537Y-94714494D01*
X158282516Y-94682730D01*
X158409276Y-94614974D01*
X158525001Y-94520001D01*
X158548803Y-94490998D01*
X159126928Y-93912875D01*
X159126928Y-94360000D01*
X159139188Y-94484482D01*
X159175498Y-94604180D01*
X159234463Y-94714494D01*
X159313815Y-94811185D01*
X159410506Y-94890537D01*
X159520820Y-94949502D01*
X159640518Y-94985812D01*
X159765000Y-94998072D01*
X161165000Y-94998072D01*
X161289482Y-94985812D01*
X161409180Y-94949502D01*
X161519494Y-94890537D01*
X161616185Y-94811185D01*
X161695537Y-94714494D01*
X161754502Y-94604180D01*
X161790812Y-94484482D01*
X161803072Y-94360000D01*
X161803072Y-93716730D01*
X162049802Y-93470000D01*
X164236913Y-93470000D01*
X164248188Y-93584482D01*
X164284498Y-93704180D01*
X164343463Y-93814494D01*
X164422815Y-93911185D01*
X164519506Y-93990537D01*
X164629820Y-94049502D01*
X164664427Y-94060000D01*
X164629820Y-94070498D01*
X164519506Y-94129463D01*
X164422815Y-94208815D01*
X164343463Y-94305506D01*
X164284498Y-94415820D01*
X164248188Y-94535518D01*
X164235928Y-94660000D01*
X164239000Y-95124250D01*
X164397750Y-95283000D01*
X166497000Y-95283000D01*
X166497000Y-95263000D01*
X166751000Y-95263000D01*
X166751000Y-95283000D01*
X166771000Y-95283000D01*
X166771000Y-95537000D01*
X166751000Y-95537000D01*
X166751000Y-96636250D01*
X166909750Y-96795000D01*
X168374000Y-96798072D01*
X168498482Y-96785812D01*
X168504001Y-96784138D01*
X168504001Y-102972000D01*
X151407279Y-102972000D01*
X151405000Y-101885750D01*
X151246250Y-101727000D01*
X150147000Y-101727000D01*
X150147000Y-101747000D01*
X149893000Y-101747000D01*
X149893000Y-101727000D01*
X149873000Y-101727000D01*
X149873000Y-101473000D01*
X149893000Y-101473000D01*
X149893000Y-99373750D01*
X150147000Y-99373750D01*
X150147000Y-101473000D01*
X151246250Y-101473000D01*
X151405000Y-101314250D01*
X151408072Y-99850000D01*
X151395812Y-99725518D01*
X151359502Y-99605820D01*
X151300537Y-99495506D01*
X151221185Y-99398815D01*
X151124494Y-99319463D01*
X151014180Y-99260498D01*
X150894482Y-99224188D01*
X150770000Y-99211928D01*
X150305750Y-99215000D01*
X150147000Y-99373750D01*
X149893000Y-99373750D01*
X149734250Y-99215000D01*
X149270000Y-99211928D01*
X149145518Y-99224188D01*
X149025820Y-99260498D01*
X148915506Y-99319463D01*
X148818815Y-99398815D01*
X148739463Y-99495506D01*
X148680498Y-99605820D01*
X148670000Y-99640427D01*
X148659502Y-99605820D01*
X148600537Y-99495506D01*
X148554902Y-99439899D01*
X151834802Y-96160000D01*
X164235928Y-96160000D01*
X164248188Y-96284482D01*
X164284498Y-96404180D01*
X164343463Y-96514494D01*
X164422815Y-96611185D01*
X164519506Y-96690537D01*
X164629820Y-96749502D01*
X164749518Y-96785812D01*
X164874000Y-96798072D01*
X166338250Y-96795000D01*
X166497000Y-96636250D01*
X166497000Y-95537000D01*
X164397750Y-95537000D01*
X164239000Y-95695750D01*
X164235928Y-96160000D01*
X151834802Y-96160000D01*
X154524803Y-93470000D01*
X155629461Y-93470000D01*
X155705717Y-93510759D01*
G04 #@! TA.AperFunction,Conductor*
D18*
G36*
X155705717Y-93510759D02*
G01*
X155696928Y-93600000D01*
X155696928Y-94360000D01*
X155709188Y-94484482D01*
X155745498Y-94604180D01*
X155804463Y-94714494D01*
X155883815Y-94811185D01*
X155980506Y-94890537D01*
X156090820Y-94949502D01*
X156210518Y-94985812D01*
X156335000Y-94998072D01*
X157735000Y-94998072D01*
X157859482Y-94985812D01*
X157979180Y-94949502D01*
X158089494Y-94890537D01*
X158186185Y-94811185D01*
X158265537Y-94714494D01*
X158282516Y-94682730D01*
X158409276Y-94614974D01*
X158525001Y-94520001D01*
X158548803Y-94490998D01*
X159126928Y-93912875D01*
X159126928Y-94360000D01*
X159139188Y-94484482D01*
X159175498Y-94604180D01*
X159234463Y-94714494D01*
X159313815Y-94811185D01*
X159410506Y-94890537D01*
X159520820Y-94949502D01*
X159640518Y-94985812D01*
X159765000Y-94998072D01*
X161165000Y-94998072D01*
X161289482Y-94985812D01*
X161409180Y-94949502D01*
X161519494Y-94890537D01*
X161616185Y-94811185D01*
X161695537Y-94714494D01*
X161754502Y-94604180D01*
X161790812Y-94484482D01*
X161803072Y-94360000D01*
X161803072Y-93716730D01*
X162049802Y-93470000D01*
X164236913Y-93470000D01*
X164248188Y-93584482D01*
X164284498Y-93704180D01*
X164343463Y-93814494D01*
X164422815Y-93911185D01*
X164519506Y-93990537D01*
X164629820Y-94049502D01*
X164664427Y-94060000D01*
X164629820Y-94070498D01*
X164519506Y-94129463D01*
X164422815Y-94208815D01*
X164343463Y-94305506D01*
X164284498Y-94415820D01*
X164248188Y-94535518D01*
X164235928Y-94660000D01*
X164239000Y-95124250D01*
X164397750Y-95283000D01*
X166497000Y-95283000D01*
X166497000Y-95263000D01*
X166751000Y-95263000D01*
X166751000Y-95283000D01*
X166771000Y-95283000D01*
X166771000Y-95537000D01*
X166751000Y-95537000D01*
X166751000Y-96636250D01*
X166909750Y-96795000D01*
X168374000Y-96798072D01*
X168498482Y-96785812D01*
X168504001Y-96784138D01*
X168504001Y-102972000D01*
X151407279Y-102972000D01*
X151405000Y-101885750D01*
X151246250Y-101727000D01*
X150147000Y-101727000D01*
X150147000Y-101747000D01*
X149893000Y-101747000D01*
X149893000Y-101727000D01*
X149873000Y-101727000D01*
X149873000Y-101473000D01*
X149893000Y-101473000D01*
X149893000Y-99373750D01*
X150147000Y-99373750D01*
X150147000Y-101473000D01*
X151246250Y-101473000D01*
X151405000Y-101314250D01*
X151408072Y-99850000D01*
X151395812Y-99725518D01*
X151359502Y-99605820D01*
X151300537Y-99495506D01*
X151221185Y-99398815D01*
X151124494Y-99319463D01*
X151014180Y-99260498D01*
X150894482Y-99224188D01*
X150770000Y-99211928D01*
X150305750Y-99215000D01*
X150147000Y-99373750D01*
X149893000Y-99373750D01*
X149734250Y-99215000D01*
X149270000Y-99211928D01*
X149145518Y-99224188D01*
X149025820Y-99260498D01*
X148915506Y-99319463D01*
X148818815Y-99398815D01*
X148739463Y-99495506D01*
X148680498Y-99605820D01*
X148670000Y-99640427D01*
X148659502Y-99605820D01*
X148600537Y-99495506D01*
X148554902Y-99439899D01*
X151834802Y-96160000D01*
X164235928Y-96160000D01*
X164248188Y-96284482D01*
X164284498Y-96404180D01*
X164343463Y-96514494D01*
X164422815Y-96611185D01*
X164519506Y-96690537D01*
X164629820Y-96749502D01*
X164749518Y-96785812D01*
X164874000Y-96798072D01*
X166338250Y-96795000D01*
X166497000Y-96636250D01*
X166497000Y-95537000D01*
X164397750Y-95537000D01*
X164239000Y-95695750D01*
X164235928Y-96160000D01*
X151834802Y-96160000D01*
X154524803Y-93470000D01*
X155629461Y-93470000D01*
X155705717Y-93510759D01*
G37*
G04 #@! TD.AperFunction*
M02*
