%TF.GenerationSoftware,KiCad,Pcbnew,5.1.9-5.1.9*%
%TF.CreationDate,2021-02-06T15:34:09+03:00*%
%TF.ProjectId,qddc,71646463-2e6b-4696-9361-645f70636258,rev?*%
%TF.SameCoordinates,Original*%
%TF.FileFunction,Copper,L1,Top*%
%TF.FilePolarity,Positive*%
%FSLAX46Y46*%
G04 Gerber Fmt 4.6, Leading zero omitted, Abs format (unit mm)*
G04 Created by KiCad (PCBNEW 5.1.9-5.1.9) date 2021-02-06 15:34:09*
%MOMM*%
%LPD*%
G01*
G04 APERTURE LIST*
%TA.AperFunction,SMDPad,CuDef*%
%ADD10R,1.500000X3.500000*%
%TD*%
%TA.AperFunction,SMDPad,CuDef*%
%ADD11R,3.500000X1.500000*%
%TD*%
%TA.AperFunction,ComponentPad*%
%ADD12O,1.700000X1.700000*%
%TD*%
%TA.AperFunction,ComponentPad*%
%ADD13R,1.700000X1.700000*%
%TD*%
%TA.AperFunction,SMDPad,CuDef*%
%ADD14R,0.650000X1.528000*%
%TD*%
%TA.AperFunction,SMDPad,CuDef*%
%ADD15R,0.450000X1.450000*%
%TD*%
%TA.AperFunction,SMDPad,CuDef*%
%ADD16R,1.400000X0.760000*%
%TD*%
%TA.AperFunction,ViaPad*%
%ADD17C,0.800000*%
%TD*%
%TA.AperFunction,Conductor*%
%ADD18C,0.250000*%
%TD*%
%TA.AperFunction,Conductor*%
%ADD19C,0.254000*%
%TD*%
%TA.AperFunction,Conductor*%
%ADD20C,0.100000*%
%TD*%
G04 APERTURE END LIST*
D10*
%TO.P,Cos,G2*%
%TO.N,GND*%
X123792000Y-88900000D03*
%TO.P,Cos,G1*%
X129192000Y-88900000D03*
%TO.P,Cos,1*%
%TO.N,Net-(J1-Pad1)*%
X126492000Y-88900000D03*
%TD*%
%TO.P,Sin,G2*%
%TO.N,GND*%
X112616000Y-88900000D03*
%TO.P,Sin,G1*%
X118016000Y-88900000D03*
%TO.P,Sin,1*%
%TO.N,Net-(J2-Pad1)*%
X115316000Y-88900000D03*
%TD*%
D11*
%TO.P,RF,G2*%
%TO.N,Net-(J3-PadG1)*%
X104140000Y-107348000D03*
%TO.P,RF,G1*%
X104140000Y-101948000D03*
%TO.P,RF,1*%
%TO.N,Net-(J3-Pad1)*%
X104140000Y-104648000D03*
%TD*%
D12*
%TO.P,Out,3*%
%TO.N,Net-(C12-Pad1)*%
X153035000Y-102870000D03*
%TO.P,Out,2*%
%TO.N,GND*%
X153035000Y-105410000D03*
D13*
%TO.P,Out,1*%
%TO.N,Net-(C13-Pad1)*%
X153035000Y-107950000D03*
%TD*%
%TO.P,C5,1*%
%TO.N,GND*%
%TA.AperFunction,SMDPad,CuDef*%
G36*
G01*
X133825000Y-100510000D02*
X132875000Y-100510000D01*
G75*
G02*
X132625000Y-100260000I0J250000D01*
G01*
X132625000Y-99760000D01*
G75*
G02*
X132875000Y-99510000I250000J0D01*
G01*
X133825000Y-99510000D01*
G75*
G02*
X134075000Y-99760000I0J-250000D01*
G01*
X134075000Y-100260000D01*
G75*
G02*
X133825000Y-100510000I-250000J0D01*
G01*
G37*
%TD.AperFunction*%
%TO.P,C5,2*%
%TO.N,Net-(C5-Pad2)*%
%TA.AperFunction,SMDPad,CuDef*%
G36*
G01*
X133825000Y-98610000D02*
X132875000Y-98610000D01*
G75*
G02*
X132625000Y-98360000I0J250000D01*
G01*
X132625000Y-97860000D01*
G75*
G02*
X132875000Y-97610000I250000J0D01*
G01*
X133825000Y-97610000D01*
G75*
G02*
X134075000Y-97860000I0J-250000D01*
G01*
X134075000Y-98360000D01*
G75*
G02*
X133825000Y-98610000I-250000J0D01*
G01*
G37*
%TD.AperFunction*%
%TD*%
D14*
%TO.P,IC2,1*%
%TO.N,Net-(C9-Pad1)*%
X146685000Y-102699000D03*
%TO.P,IC2,2*%
%TO.N,Net-(C9-Pad2)*%
X145415000Y-102699000D03*
%TO.P,IC2,3*%
%TO.N,Net-(IC2-Pad3)*%
X144145000Y-102699000D03*
%TO.P,IC2,4*%
%TO.N,GND*%
X142875000Y-102699000D03*
%TO.P,IC2,5*%
%TO.N,Net-(IC2-Pad5)*%
X142875000Y-108121000D03*
%TO.P,IC2,6*%
%TO.N,Net-(C10-Pad1)*%
X144145000Y-108121000D03*
%TO.P,IC2,7*%
%TO.N,Net-(C10-Pad2)*%
X145415000Y-108121000D03*
%TO.P,IC2,8*%
%TO.N,VAA*%
X146685000Y-108121000D03*
%TD*%
%TO.P,C1,1*%
%TO.N,Net-(C1-Pad1)*%
%TA.AperFunction,SMDPad,CuDef*%
G36*
G01*
X113210000Y-110777000D02*
X113210000Y-111727000D01*
G75*
G02*
X112960000Y-111977000I-250000J0D01*
G01*
X112460000Y-111977000D01*
G75*
G02*
X112210000Y-111727000I0J250000D01*
G01*
X112210000Y-110777000D01*
G75*
G02*
X112460000Y-110527000I250000J0D01*
G01*
X112960000Y-110527000D01*
G75*
G02*
X113210000Y-110777000I0J-250000D01*
G01*
G37*
%TD.AperFunction*%
%TO.P,C1,2*%
%TO.N,GND*%
%TA.AperFunction,SMDPad,CuDef*%
G36*
G01*
X111310000Y-110777000D02*
X111310000Y-111727000D01*
G75*
G02*
X111060000Y-111977000I-250000J0D01*
G01*
X110560000Y-111977000D01*
G75*
G02*
X110310000Y-111727000I0J250000D01*
G01*
X110310000Y-110777000D01*
G75*
G02*
X110560000Y-110527000I250000J0D01*
G01*
X111060000Y-110527000D01*
G75*
G02*
X111310000Y-110777000I0J-250000D01*
G01*
G37*
%TD.AperFunction*%
%TD*%
%TO.P,C2,2*%
%TO.N,GND*%
%TA.AperFunction,SMDPad,CuDef*%
G36*
G01*
X111310000Y-115349000D02*
X111310000Y-116299000D01*
G75*
G02*
X111060000Y-116549000I-250000J0D01*
G01*
X110560000Y-116549000D01*
G75*
G02*
X110310000Y-116299000I0J250000D01*
G01*
X110310000Y-115349000D01*
G75*
G02*
X110560000Y-115099000I250000J0D01*
G01*
X111060000Y-115099000D01*
G75*
G02*
X111310000Y-115349000I0J-250000D01*
G01*
G37*
%TD.AperFunction*%
%TO.P,C2,1*%
%TO.N,Net-(C1-Pad1)*%
%TA.AperFunction,SMDPad,CuDef*%
G36*
G01*
X113210000Y-115349000D02*
X113210000Y-116299000D01*
G75*
G02*
X112960000Y-116549000I-250000J0D01*
G01*
X112460000Y-116549000D01*
G75*
G02*
X112210000Y-116299000I0J250000D01*
G01*
X112210000Y-115349000D01*
G75*
G02*
X112460000Y-115099000I250000J0D01*
G01*
X112960000Y-115099000D01*
G75*
G02*
X113210000Y-115349000I0J-250000D01*
G01*
G37*
%TD.AperFunction*%
%TD*%
%TO.P,C3,2*%
%TO.N,GND*%
%TA.AperFunction,SMDPad,CuDef*%
G36*
G01*
X121125000Y-114485000D02*
X120175000Y-114485000D01*
G75*
G02*
X119925000Y-114235000I0J250000D01*
G01*
X119925000Y-113735000D01*
G75*
G02*
X120175000Y-113485000I250000J0D01*
G01*
X121125000Y-113485000D01*
G75*
G02*
X121375000Y-113735000I0J-250000D01*
G01*
X121375000Y-114235000D01*
G75*
G02*
X121125000Y-114485000I-250000J0D01*
G01*
G37*
%TD.AperFunction*%
%TO.P,C3,1*%
%TO.N,Net-(C3-Pad1)*%
%TA.AperFunction,SMDPad,CuDef*%
G36*
G01*
X121125000Y-116385000D02*
X120175000Y-116385000D01*
G75*
G02*
X119925000Y-116135000I0J250000D01*
G01*
X119925000Y-115635000D01*
G75*
G02*
X120175000Y-115385000I250000J0D01*
G01*
X121125000Y-115385000D01*
G75*
G02*
X121375000Y-115635000I0J-250000D01*
G01*
X121375000Y-116135000D01*
G75*
G02*
X121125000Y-116385000I-250000J0D01*
G01*
G37*
%TD.AperFunction*%
%TD*%
%TO.P,C4,2*%
%TO.N,VCC*%
%TA.AperFunction,SMDPad,CuDef*%
G36*
G01*
X129725000Y-109380000D02*
X129725000Y-110330000D01*
G75*
G02*
X129475000Y-110580000I-250000J0D01*
G01*
X128975000Y-110580000D01*
G75*
G02*
X128725000Y-110330000I0J250000D01*
G01*
X128725000Y-109380000D01*
G75*
G02*
X128975000Y-109130000I250000J0D01*
G01*
X129475000Y-109130000D01*
G75*
G02*
X129725000Y-109380000I0J-250000D01*
G01*
G37*
%TD.AperFunction*%
%TO.P,C4,1*%
%TO.N,GND*%
%TA.AperFunction,SMDPad,CuDef*%
G36*
G01*
X131625000Y-109380000D02*
X131625000Y-110330000D01*
G75*
G02*
X131375000Y-110580000I-250000J0D01*
G01*
X130875000Y-110580000D01*
G75*
G02*
X130625000Y-110330000I0J250000D01*
G01*
X130625000Y-109380000D01*
G75*
G02*
X130875000Y-109130000I250000J0D01*
G01*
X131375000Y-109130000D01*
G75*
G02*
X131625000Y-109380000I0J-250000D01*
G01*
G37*
%TD.AperFunction*%
%TD*%
%TO.P,C6,1*%
%TO.N,Net-(C6-Pad1)*%
%TA.AperFunction,SMDPad,CuDef*%
G36*
G01*
X133825000Y-113464000D02*
X132875000Y-113464000D01*
G75*
G02*
X132625000Y-113214000I0J250000D01*
G01*
X132625000Y-112714000D01*
G75*
G02*
X132875000Y-112464000I250000J0D01*
G01*
X133825000Y-112464000D01*
G75*
G02*
X134075000Y-112714000I0J-250000D01*
G01*
X134075000Y-113214000D01*
G75*
G02*
X133825000Y-113464000I-250000J0D01*
G01*
G37*
%TD.AperFunction*%
%TO.P,C6,2*%
%TO.N,GND*%
%TA.AperFunction,SMDPad,CuDef*%
G36*
G01*
X133825000Y-111564000D02*
X132875000Y-111564000D01*
G75*
G02*
X132625000Y-111314000I0J250000D01*
G01*
X132625000Y-110814000D01*
G75*
G02*
X132875000Y-110564000I250000J0D01*
G01*
X133825000Y-110564000D01*
G75*
G02*
X134075000Y-110814000I0J-250000D01*
G01*
X134075000Y-111314000D01*
G75*
G02*
X133825000Y-111564000I-250000J0D01*
G01*
G37*
%TD.AperFunction*%
%TD*%
%TO.P,C7,2*%
%TO.N,Net-(C7-Pad2)*%
%TA.AperFunction,SMDPad,CuDef*%
G36*
G01*
X133825000Y-103055000D02*
X132875000Y-103055000D01*
G75*
G02*
X132625000Y-102805000I0J250000D01*
G01*
X132625000Y-102305000D01*
G75*
G02*
X132875000Y-102055000I250000J0D01*
G01*
X133825000Y-102055000D01*
G75*
G02*
X134075000Y-102305000I0J-250000D01*
G01*
X134075000Y-102805000D01*
G75*
G02*
X133825000Y-103055000I-250000J0D01*
G01*
G37*
%TD.AperFunction*%
%TO.P,C7,1*%
%TO.N,GND*%
%TA.AperFunction,SMDPad,CuDef*%
G36*
G01*
X133825000Y-104955000D02*
X132875000Y-104955000D01*
G75*
G02*
X132625000Y-104705000I0J250000D01*
G01*
X132625000Y-104205000D01*
G75*
G02*
X132875000Y-103955000I250000J0D01*
G01*
X133825000Y-103955000D01*
G75*
G02*
X134075000Y-104205000I0J-250000D01*
G01*
X134075000Y-104705000D01*
G75*
G02*
X133825000Y-104955000I-250000J0D01*
G01*
G37*
%TD.AperFunction*%
%TD*%
%TO.P,C8,1*%
%TO.N,Net-(C8-Pad1)*%
%TA.AperFunction,SMDPad,CuDef*%
G36*
G01*
X133825000Y-109146000D02*
X132875000Y-109146000D01*
G75*
G02*
X132625000Y-108896000I0J250000D01*
G01*
X132625000Y-108396000D01*
G75*
G02*
X132875000Y-108146000I250000J0D01*
G01*
X133825000Y-108146000D01*
G75*
G02*
X134075000Y-108396000I0J-250000D01*
G01*
X134075000Y-108896000D01*
G75*
G02*
X133825000Y-109146000I-250000J0D01*
G01*
G37*
%TD.AperFunction*%
%TO.P,C8,2*%
%TO.N,GND*%
%TA.AperFunction,SMDPad,CuDef*%
G36*
G01*
X133825000Y-107246000D02*
X132875000Y-107246000D01*
G75*
G02*
X132625000Y-106996000I0J250000D01*
G01*
X132625000Y-106496000D01*
G75*
G02*
X132875000Y-106246000I250000J0D01*
G01*
X133825000Y-106246000D01*
G75*
G02*
X134075000Y-106496000I0J-250000D01*
G01*
X134075000Y-106996000D01*
G75*
G02*
X133825000Y-107246000I-250000J0D01*
G01*
G37*
%TD.AperFunction*%
%TD*%
%TO.P,C9,1*%
%TO.N,Net-(C9-Pad1)*%
%TA.AperFunction,SMDPad,CuDef*%
G36*
G01*
X139225000Y-97610000D02*
X140175000Y-97610000D01*
G75*
G02*
X140425000Y-97860000I0J-250000D01*
G01*
X140425000Y-98360000D01*
G75*
G02*
X140175000Y-98610000I-250000J0D01*
G01*
X139225000Y-98610000D01*
G75*
G02*
X138975000Y-98360000I0J250000D01*
G01*
X138975000Y-97860000D01*
G75*
G02*
X139225000Y-97610000I250000J0D01*
G01*
G37*
%TD.AperFunction*%
%TO.P,C9,2*%
%TO.N,Net-(C9-Pad2)*%
%TA.AperFunction,SMDPad,CuDef*%
G36*
G01*
X139225000Y-99510000D02*
X140175000Y-99510000D01*
G75*
G02*
X140425000Y-99760000I0J-250000D01*
G01*
X140425000Y-100260000D01*
G75*
G02*
X140175000Y-100510000I-250000J0D01*
G01*
X139225000Y-100510000D01*
G75*
G02*
X138975000Y-100260000I0J250000D01*
G01*
X138975000Y-99760000D01*
G75*
G02*
X139225000Y-99510000I250000J0D01*
G01*
G37*
%TD.AperFunction*%
%TD*%
%TO.P,C10,2*%
%TO.N,Net-(C10-Pad2)*%
%TA.AperFunction,SMDPad,CuDef*%
G36*
G01*
X139225000Y-112525000D02*
X140175000Y-112525000D01*
G75*
G02*
X140425000Y-112775000I0J-250000D01*
G01*
X140425000Y-113275000D01*
G75*
G02*
X140175000Y-113525000I-250000J0D01*
G01*
X139225000Y-113525000D01*
G75*
G02*
X138975000Y-113275000I0J250000D01*
G01*
X138975000Y-112775000D01*
G75*
G02*
X139225000Y-112525000I250000J0D01*
G01*
G37*
%TD.AperFunction*%
%TO.P,C10,1*%
%TO.N,Net-(C10-Pad1)*%
%TA.AperFunction,SMDPad,CuDef*%
G36*
G01*
X139225000Y-110625000D02*
X140175000Y-110625000D01*
G75*
G02*
X140425000Y-110875000I0J-250000D01*
G01*
X140425000Y-111375000D01*
G75*
G02*
X140175000Y-111625000I-250000J0D01*
G01*
X139225000Y-111625000D01*
G75*
G02*
X138975000Y-111375000I0J250000D01*
G01*
X138975000Y-110875000D01*
G75*
G02*
X139225000Y-110625000I250000J0D01*
G01*
G37*
%TD.AperFunction*%
%TD*%
%TO.P,C11,1*%
%TO.N,GND*%
%TA.AperFunction,SMDPad,CuDef*%
G36*
G01*
X149827000Y-110670000D02*
X148877000Y-110670000D01*
G75*
G02*
X148627000Y-110420000I0J250000D01*
G01*
X148627000Y-109920000D01*
G75*
G02*
X148877000Y-109670000I250000J0D01*
G01*
X149827000Y-109670000D01*
G75*
G02*
X150077000Y-109920000I0J-250000D01*
G01*
X150077000Y-110420000D01*
G75*
G02*
X149827000Y-110670000I-250000J0D01*
G01*
G37*
%TD.AperFunction*%
%TO.P,C11,2*%
%TO.N,VAA*%
%TA.AperFunction,SMDPad,CuDef*%
G36*
G01*
X149827000Y-108770000D02*
X148877000Y-108770000D01*
G75*
G02*
X148627000Y-108520000I0J250000D01*
G01*
X148627000Y-108020000D01*
G75*
G02*
X148877000Y-107770000I250000J0D01*
G01*
X149827000Y-107770000D01*
G75*
G02*
X150077000Y-108020000I0J-250000D01*
G01*
X150077000Y-108520000D01*
G75*
G02*
X149827000Y-108770000I-250000J0D01*
G01*
G37*
%TD.AperFunction*%
%TD*%
%TO.P,C12,2*%
%TO.N,Net-(C12-Pad2)*%
%TA.AperFunction,SMDPad,CuDef*%
G36*
G01*
X151315000Y-97950000D02*
X151315000Y-98900000D01*
G75*
G02*
X151065000Y-99150000I-250000J0D01*
G01*
X150565000Y-99150000D01*
G75*
G02*
X150315000Y-98900000I0J250000D01*
G01*
X150315000Y-97950000D01*
G75*
G02*
X150565000Y-97700000I250000J0D01*
G01*
X151065000Y-97700000D01*
G75*
G02*
X151315000Y-97950000I0J-250000D01*
G01*
G37*
%TD.AperFunction*%
%TO.P,C12,1*%
%TO.N,Net-(C12-Pad1)*%
%TA.AperFunction,SMDPad,CuDef*%
G36*
G01*
X153215000Y-97950000D02*
X153215000Y-98900000D01*
G75*
G02*
X152965000Y-99150000I-250000J0D01*
G01*
X152465000Y-99150000D01*
G75*
G02*
X152215000Y-98900000I0J250000D01*
G01*
X152215000Y-97950000D01*
G75*
G02*
X152465000Y-97700000I250000J0D01*
G01*
X152965000Y-97700000D01*
G75*
G02*
X153215000Y-97950000I0J-250000D01*
G01*
G37*
%TD.AperFunction*%
%TD*%
%TO.P,C13,1*%
%TO.N,Net-(C13-Pad1)*%
%TA.AperFunction,SMDPad,CuDef*%
G36*
G01*
X153215000Y-112555000D02*
X153215000Y-113505000D01*
G75*
G02*
X152965000Y-113755000I-250000J0D01*
G01*
X152465000Y-113755000D01*
G75*
G02*
X152215000Y-113505000I0J250000D01*
G01*
X152215000Y-112555000D01*
G75*
G02*
X152465000Y-112305000I250000J0D01*
G01*
X152965000Y-112305000D01*
G75*
G02*
X153215000Y-112555000I0J-250000D01*
G01*
G37*
%TD.AperFunction*%
%TO.P,C13,2*%
%TO.N,Net-(C13-Pad2)*%
%TA.AperFunction,SMDPad,CuDef*%
G36*
G01*
X151315000Y-112555000D02*
X151315000Y-113505000D01*
G75*
G02*
X151065000Y-113755000I-250000J0D01*
G01*
X150565000Y-113755000D01*
G75*
G02*
X150315000Y-113505000I0J250000D01*
G01*
X150315000Y-112555000D01*
G75*
G02*
X150565000Y-112305000I250000J0D01*
G01*
X151065000Y-112305000D01*
G75*
G02*
X151315000Y-112555000I0J-250000D01*
G01*
G37*
%TD.AperFunction*%
%TD*%
D15*
%TO.P,IC1,1*%
%TO.N,PTT*%
X127370000Y-103120000D03*
%TO.P,IC1,2*%
%TO.N,Net-(IC1-Pad2)*%
X126720000Y-103120000D03*
%TO.P,IC1,3*%
%TO.N,Net-(C5-Pad2)*%
X126070000Y-103120000D03*
%TO.P,IC1,4*%
%TO.N,Net-(C6-Pad1)*%
X125420000Y-103120000D03*
%TO.P,IC1,5*%
%TO.N,Net-(C8-Pad1)*%
X124770000Y-103120000D03*
%TO.P,IC1,6*%
%TO.N,Net-(C7-Pad2)*%
X124120000Y-103120000D03*
%TO.P,IC1,7*%
%TO.N,Net-(IC1-Pad7)*%
X123470000Y-103120000D03*
%TO.P,IC1,8*%
%TO.N,GND*%
X122820000Y-103120000D03*
%TO.P,IC1,9*%
%TO.N,Net-(IC1-Pad9)*%
X122820000Y-108970000D03*
%TO.P,IC1,10*%
%TO.N,Net-(C5-Pad2)*%
X123470000Y-108970000D03*
%TO.P,IC1,11*%
%TO.N,Net-(C6-Pad1)*%
X124120000Y-108970000D03*
%TO.P,IC1,12*%
%TO.N,Net-(C8-Pad1)*%
X124770000Y-108970000D03*
%TO.P,IC1,13*%
%TO.N,Net-(C7-Pad2)*%
X125420000Y-108970000D03*
%TO.P,IC1,14*%
%TO.N,Net-(IC1-Pad14)*%
X126070000Y-108970000D03*
%TO.P,IC1,15*%
%TO.N,PTT*%
X126720000Y-108970000D03*
%TO.P,IC1,16*%
%TO.N,VCC*%
X127370000Y-108970000D03*
%TD*%
D13*
%TO.P,PWR,1*%
%TO.N,GND*%
X138684000Y-119380000D03*
D12*
%TO.P,PWR,2*%
%TO.N,VAA*%
X136144000Y-119380000D03*
%TO.P,PWR,3*%
%TO.N,VCC*%
X133604000Y-119380000D03*
%TO.P,PWR,4*%
%TO.N,PTT*%
X131064000Y-119380000D03*
%TD*%
%TO.P,L1,1*%
%TO.N,Net-(C3-Pad1)*%
%TA.AperFunction,SMDPad,CuDef*%
G36*
G01*
X123630000Y-116524001D02*
X123630000Y-115123999D01*
G75*
G02*
X123879999Y-114874000I249999J0D01*
G01*
X124430001Y-114874000D01*
G75*
G02*
X124680000Y-115123999I0J-249999D01*
G01*
X124680000Y-116524001D01*
G75*
G02*
X124430001Y-116774000I-249999J0D01*
G01*
X123879999Y-116774000D01*
G75*
G02*
X123630000Y-116524001I0J249999D01*
G01*
G37*
%TD.AperFunction*%
%TO.P,L1,2*%
%TO.N,VCC*%
%TA.AperFunction,SMDPad,CuDef*%
G36*
G01*
X126780000Y-116524001D02*
X126780000Y-115123999D01*
G75*
G02*
X127029999Y-114874000I249999J0D01*
G01*
X127580001Y-114874000D01*
G75*
G02*
X127830000Y-115123999I0J-249999D01*
G01*
X127830000Y-116524001D01*
G75*
G02*
X127580001Y-116774000I-249999J0D01*
G01*
X127029999Y-116774000D01*
G75*
G02*
X126780000Y-116524001I0J249999D01*
G01*
G37*
%TD.AperFunction*%
%TD*%
%TO.P,R1,2*%
%TO.N,Net-(J1-Pad1)*%
%TA.AperFunction,SMDPad,CuDef*%
G36*
G01*
X126942002Y-93580000D02*
X126041998Y-93580000D01*
G75*
G02*
X125792000Y-93330002I0J249998D01*
G01*
X125792000Y-92804998D01*
G75*
G02*
X126041998Y-92555000I249998J0D01*
G01*
X126942002Y-92555000D01*
G75*
G02*
X127192000Y-92804998I0J-249998D01*
G01*
X127192000Y-93330002D01*
G75*
G02*
X126942002Y-93580000I-249998J0D01*
G01*
G37*
%TD.AperFunction*%
%TO.P,R1,1*%
%TO.N,Net-(IC1-Pad14)*%
%TA.AperFunction,SMDPad,CuDef*%
G36*
G01*
X126942002Y-95405000D02*
X126041998Y-95405000D01*
G75*
G02*
X125792000Y-95155002I0J249998D01*
G01*
X125792000Y-94629998D01*
G75*
G02*
X126041998Y-94380000I249998J0D01*
G01*
X126942002Y-94380000D01*
G75*
G02*
X127192000Y-94629998I0J-249998D01*
G01*
X127192000Y-95155002D01*
G75*
G02*
X126942002Y-95405000I-249998J0D01*
G01*
G37*
%TD.AperFunction*%
%TD*%
%TO.P,R2,1*%
%TO.N,Net-(IC1-Pad2)*%
%TA.AperFunction,SMDPad,CuDef*%
G36*
G01*
X115766002Y-95405000D02*
X114865998Y-95405000D01*
G75*
G02*
X114616000Y-95155002I0J249998D01*
G01*
X114616000Y-94629998D01*
G75*
G02*
X114865998Y-94380000I249998J0D01*
G01*
X115766002Y-94380000D01*
G75*
G02*
X116016000Y-94629998I0J-249998D01*
G01*
X116016000Y-95155002D01*
G75*
G02*
X115766002Y-95405000I-249998J0D01*
G01*
G37*
%TD.AperFunction*%
%TO.P,R2,2*%
%TO.N,Net-(J2-Pad1)*%
%TA.AperFunction,SMDPad,CuDef*%
G36*
G01*
X115766002Y-93580000D02*
X114865998Y-93580000D01*
G75*
G02*
X114616000Y-93330002I0J249998D01*
G01*
X114616000Y-92804998D01*
G75*
G02*
X114865998Y-92555000I249998J0D01*
G01*
X115766002Y-92555000D01*
G75*
G02*
X116016000Y-92804998I0J-249998D01*
G01*
X116016000Y-93330002D01*
G75*
G02*
X115766002Y-93580000I-249998J0D01*
G01*
G37*
%TD.AperFunction*%
%TD*%
%TO.P,R3,1*%
%TO.N,Net-(IC1-Pad7)*%
%TA.AperFunction,SMDPad,CuDef*%
G36*
G01*
X119535000Y-104324998D02*
X119535000Y-105225002D01*
G75*
G02*
X119285002Y-105475000I-249998J0D01*
G01*
X118759998Y-105475000D01*
G75*
G02*
X118510000Y-105225002I0J249998D01*
G01*
X118510000Y-104324998D01*
G75*
G02*
X118759998Y-104075000I249998J0D01*
G01*
X119285002Y-104075000D01*
G75*
G02*
X119535000Y-104324998I0J-249998D01*
G01*
G37*
%TD.AperFunction*%
%TO.P,R3,2*%
%TO.N,Net-(R3-Pad2)*%
%TA.AperFunction,SMDPad,CuDef*%
G36*
G01*
X117710000Y-104324998D02*
X117710000Y-105225002D01*
G75*
G02*
X117460002Y-105475000I-249998J0D01*
G01*
X116934998Y-105475000D01*
G75*
G02*
X116685000Y-105225002I0J249998D01*
G01*
X116685000Y-104324998D01*
G75*
G02*
X116934998Y-104075000I249998J0D01*
G01*
X117460002Y-104075000D01*
G75*
G02*
X117710000Y-104324998I0J-249998D01*
G01*
G37*
%TD.AperFunction*%
%TD*%
%TO.P,R4,2*%
%TO.N,Net-(R4-Pad2)*%
%TA.AperFunction,SMDPad,CuDef*%
G36*
G01*
X117710000Y-106864998D02*
X117710000Y-107765002D01*
G75*
G02*
X117460002Y-108015000I-249998J0D01*
G01*
X116934998Y-108015000D01*
G75*
G02*
X116685000Y-107765002I0J249998D01*
G01*
X116685000Y-106864998D01*
G75*
G02*
X116934998Y-106615000I249998J0D01*
G01*
X117460002Y-106615000D01*
G75*
G02*
X117710000Y-106864998I0J-249998D01*
G01*
G37*
%TD.AperFunction*%
%TO.P,R4,1*%
%TO.N,Net-(IC1-Pad9)*%
%TA.AperFunction,SMDPad,CuDef*%
G36*
G01*
X119535000Y-106864998D02*
X119535000Y-107765002D01*
G75*
G02*
X119285002Y-108015000I-249998J0D01*
G01*
X118759998Y-108015000D01*
G75*
G02*
X118510000Y-107765002I0J249998D01*
G01*
X118510000Y-106864998D01*
G75*
G02*
X118759998Y-106615000I249998J0D01*
G01*
X119285002Y-106615000D01*
G75*
G02*
X119535000Y-106864998I0J-249998D01*
G01*
G37*
%TD.AperFunction*%
%TD*%
%TO.P,R5,2*%
%TO.N,Net-(C1-Pad1)*%
%TA.AperFunction,SMDPad,CuDef*%
G36*
G01*
X116440000Y-115373998D02*
X116440000Y-116274002D01*
G75*
G02*
X116190002Y-116524000I-249998J0D01*
G01*
X115664998Y-116524000D01*
G75*
G02*
X115415000Y-116274002I0J249998D01*
G01*
X115415000Y-115373998D01*
G75*
G02*
X115664998Y-115124000I249998J0D01*
G01*
X116190002Y-115124000D01*
G75*
G02*
X116440000Y-115373998I0J-249998D01*
G01*
G37*
%TD.AperFunction*%
%TO.P,R5,1*%
%TO.N,Net-(C3-Pad1)*%
%TA.AperFunction,SMDPad,CuDef*%
G36*
G01*
X118265000Y-115373998D02*
X118265000Y-116274002D01*
G75*
G02*
X118015002Y-116524000I-249998J0D01*
G01*
X117489998Y-116524000D01*
G75*
G02*
X117240000Y-116274002I0J249998D01*
G01*
X117240000Y-115373998D01*
G75*
G02*
X117489998Y-115124000I249998J0D01*
G01*
X118015002Y-115124000D01*
G75*
G02*
X118265000Y-115373998I0J-249998D01*
G01*
G37*
%TD.AperFunction*%
%TD*%
%TO.P,R6,1*%
%TO.N,Net-(C1-Pad1)*%
%TA.AperFunction,SMDPad,CuDef*%
G36*
G01*
X113185000Y-100133998D02*
X113185000Y-101034002D01*
G75*
G02*
X112935002Y-101284000I-249998J0D01*
G01*
X112409998Y-101284000D01*
G75*
G02*
X112160000Y-101034002I0J249998D01*
G01*
X112160000Y-100133998D01*
G75*
G02*
X112409998Y-99884000I249998J0D01*
G01*
X112935002Y-99884000D01*
G75*
G02*
X113185000Y-100133998I0J-249998D01*
G01*
G37*
%TD.AperFunction*%
%TO.P,R6,2*%
%TO.N,GND*%
%TA.AperFunction,SMDPad,CuDef*%
G36*
G01*
X111360000Y-100133998D02*
X111360000Y-101034002D01*
G75*
G02*
X111110002Y-101284000I-249998J0D01*
G01*
X110584998Y-101284000D01*
G75*
G02*
X110335000Y-101034002I0J249998D01*
G01*
X110335000Y-100133998D01*
G75*
G02*
X110584998Y-99884000I249998J0D01*
G01*
X111110002Y-99884000D01*
G75*
G02*
X111360000Y-100133998I0J-249998D01*
G01*
G37*
%TD.AperFunction*%
%TD*%
%TO.P,R7,1*%
%TO.N,Net-(IC2-Pad3)*%
%TA.AperFunction,SMDPad,CuDef*%
G36*
G01*
X137102002Y-104953500D02*
X136201998Y-104953500D01*
G75*
G02*
X135952000Y-104703502I0J249998D01*
G01*
X135952000Y-104178498D01*
G75*
G02*
X136201998Y-103928500I249998J0D01*
G01*
X137102002Y-103928500D01*
G75*
G02*
X137352000Y-104178498I0J-249998D01*
G01*
X137352000Y-104703502D01*
G75*
G02*
X137102002Y-104953500I-249998J0D01*
G01*
G37*
%TD.AperFunction*%
%TO.P,R7,2*%
%TO.N,Net-(C7-Pad2)*%
%TA.AperFunction,SMDPad,CuDef*%
G36*
G01*
X137102002Y-103128500D02*
X136201998Y-103128500D01*
G75*
G02*
X135952000Y-102878502I0J249998D01*
G01*
X135952000Y-102353498D01*
G75*
G02*
X136201998Y-102103500I249998J0D01*
G01*
X137102002Y-102103500D01*
G75*
G02*
X137352000Y-102353498I0J-249998D01*
G01*
X137352000Y-102878502D01*
G75*
G02*
X137102002Y-103128500I-249998J0D01*
G01*
G37*
%TD.AperFunction*%
%TD*%
%TO.P,R8,2*%
%TO.N,Net-(C5-Pad2)*%
%TA.AperFunction,SMDPad,CuDef*%
G36*
G01*
X137102002Y-98660000D02*
X136201998Y-98660000D01*
G75*
G02*
X135952000Y-98410002I0J249998D01*
G01*
X135952000Y-97884998D01*
G75*
G02*
X136201998Y-97635000I249998J0D01*
G01*
X137102002Y-97635000D01*
G75*
G02*
X137352000Y-97884998I0J-249998D01*
G01*
X137352000Y-98410002D01*
G75*
G02*
X137102002Y-98660000I-249998J0D01*
G01*
G37*
%TD.AperFunction*%
%TO.P,R8,1*%
%TO.N,Net-(C9-Pad2)*%
%TA.AperFunction,SMDPad,CuDef*%
G36*
G01*
X137102002Y-100485000D02*
X136201998Y-100485000D01*
G75*
G02*
X135952000Y-100235002I0J249998D01*
G01*
X135952000Y-99709998D01*
G75*
G02*
X136201998Y-99460000I249998J0D01*
G01*
X137102002Y-99460000D01*
G75*
G02*
X137352000Y-99709998I0J-249998D01*
G01*
X137352000Y-100235002D01*
G75*
G02*
X137102002Y-100485000I-249998J0D01*
G01*
G37*
%TD.AperFunction*%
%TD*%
%TO.P,R9,1*%
%TO.N,Net-(IC2-Pad5)*%
%TA.AperFunction,SMDPad,CuDef*%
G36*
G01*
X136201998Y-106271000D02*
X137102002Y-106271000D01*
G75*
G02*
X137352000Y-106520998I0J-249998D01*
G01*
X137352000Y-107046002D01*
G75*
G02*
X137102002Y-107296000I-249998J0D01*
G01*
X136201998Y-107296000D01*
G75*
G02*
X135952000Y-107046002I0J249998D01*
G01*
X135952000Y-106520998D01*
G75*
G02*
X136201998Y-106271000I249998J0D01*
G01*
G37*
%TD.AperFunction*%
%TO.P,R9,2*%
%TO.N,Net-(C8-Pad1)*%
%TA.AperFunction,SMDPad,CuDef*%
G36*
G01*
X136201998Y-108096000D02*
X137102002Y-108096000D01*
G75*
G02*
X137352000Y-108345998I0J-249998D01*
G01*
X137352000Y-108871002D01*
G75*
G02*
X137102002Y-109121000I-249998J0D01*
G01*
X136201998Y-109121000D01*
G75*
G02*
X135952000Y-108871002I0J249998D01*
G01*
X135952000Y-108345998D01*
G75*
G02*
X136201998Y-108096000I249998J0D01*
G01*
G37*
%TD.AperFunction*%
%TD*%
%TO.P,R10,2*%
%TO.N,Net-(C6-Pad1)*%
%TA.AperFunction,SMDPad,CuDef*%
G36*
G01*
X136201998Y-112414000D02*
X137102002Y-112414000D01*
G75*
G02*
X137352000Y-112663998I0J-249998D01*
G01*
X137352000Y-113189002D01*
G75*
G02*
X137102002Y-113439000I-249998J0D01*
G01*
X136201998Y-113439000D01*
G75*
G02*
X135952000Y-113189002I0J249998D01*
G01*
X135952000Y-112663998D01*
G75*
G02*
X136201998Y-112414000I249998J0D01*
G01*
G37*
%TD.AperFunction*%
%TO.P,R10,1*%
%TO.N,Net-(C10-Pad1)*%
%TA.AperFunction,SMDPad,CuDef*%
G36*
G01*
X136201998Y-110589000D02*
X137102002Y-110589000D01*
G75*
G02*
X137352000Y-110838998I0J-249998D01*
G01*
X137352000Y-111364002D01*
G75*
G02*
X137102002Y-111614000I-249998J0D01*
G01*
X136201998Y-111614000D01*
G75*
G02*
X135952000Y-111364002I0J249998D01*
G01*
X135952000Y-110838998D01*
G75*
G02*
X136201998Y-110589000I249998J0D01*
G01*
G37*
%TD.AperFunction*%
%TD*%
%TO.P,R11,2*%
%TO.N,Net-(C9-Pad2)*%
%TA.AperFunction,SMDPad,CuDef*%
G36*
G01*
X142805998Y-99460000D02*
X143706002Y-99460000D01*
G75*
G02*
X143956000Y-99709998I0J-249998D01*
G01*
X143956000Y-100235002D01*
G75*
G02*
X143706002Y-100485000I-249998J0D01*
G01*
X142805998Y-100485000D01*
G75*
G02*
X142556000Y-100235002I0J249998D01*
G01*
X142556000Y-99709998D01*
G75*
G02*
X142805998Y-99460000I249998J0D01*
G01*
G37*
%TD.AperFunction*%
%TO.P,R11,1*%
%TO.N,Net-(C9-Pad1)*%
%TA.AperFunction,SMDPad,CuDef*%
G36*
G01*
X142805998Y-97635000D02*
X143706002Y-97635000D01*
G75*
G02*
X143956000Y-97884998I0J-249998D01*
G01*
X143956000Y-98410002D01*
G75*
G02*
X143706002Y-98660000I-249998J0D01*
G01*
X142805998Y-98660000D01*
G75*
G02*
X142556000Y-98410002I0J249998D01*
G01*
X142556000Y-97884998D01*
G75*
G02*
X142805998Y-97635000I249998J0D01*
G01*
G37*
%TD.AperFunction*%
%TD*%
%TO.P,R12,1*%
%TO.N,Net-(C9-Pad1)*%
%TA.AperFunction,SMDPad,CuDef*%
G36*
G01*
X145895000Y-98875002D02*
X145895000Y-97974998D01*
G75*
G02*
X146144998Y-97725000I249998J0D01*
G01*
X146670002Y-97725000D01*
G75*
G02*
X146920000Y-97974998I0J-249998D01*
G01*
X146920000Y-98875002D01*
G75*
G02*
X146670002Y-99125000I-249998J0D01*
G01*
X146144998Y-99125000D01*
G75*
G02*
X145895000Y-98875002I0J249998D01*
G01*
G37*
%TD.AperFunction*%
%TO.P,R12,2*%
%TO.N,Net-(C12-Pad2)*%
%TA.AperFunction,SMDPad,CuDef*%
G36*
G01*
X147720000Y-98875002D02*
X147720000Y-97974998D01*
G75*
G02*
X147969998Y-97725000I249998J0D01*
G01*
X148495002Y-97725000D01*
G75*
G02*
X148745000Y-97974998I0J-249998D01*
G01*
X148745000Y-98875002D01*
G75*
G02*
X148495002Y-99125000I-249998J0D01*
G01*
X147969998Y-99125000D01*
G75*
G02*
X147720000Y-98875002I0J249998D01*
G01*
G37*
%TD.AperFunction*%
%TD*%
%TO.P,R13,2*%
%TO.N,Net-(C10-Pad2)*%
%TA.AperFunction,SMDPad,CuDef*%
G36*
G01*
X146920000Y-112579998D02*
X146920000Y-113480002D01*
G75*
G02*
X146670002Y-113730000I-249998J0D01*
G01*
X146144998Y-113730000D01*
G75*
G02*
X145895000Y-113480002I0J249998D01*
G01*
X145895000Y-112579998D01*
G75*
G02*
X146144998Y-112330000I249998J0D01*
G01*
X146670002Y-112330000D01*
G75*
G02*
X146920000Y-112579998I0J-249998D01*
G01*
G37*
%TD.AperFunction*%
%TO.P,R13,1*%
%TO.N,Net-(C13-Pad2)*%
%TA.AperFunction,SMDPad,CuDef*%
G36*
G01*
X148745000Y-112579998D02*
X148745000Y-113480002D01*
G75*
G02*
X148495002Y-113730000I-249998J0D01*
G01*
X147969998Y-113730000D01*
G75*
G02*
X147720000Y-113480002I0J249998D01*
G01*
X147720000Y-112579998D01*
G75*
G02*
X147969998Y-112330000I249998J0D01*
G01*
X148495002Y-112330000D01*
G75*
G02*
X148745000Y-112579998I0J-249998D01*
G01*
G37*
%TD.AperFunction*%
%TD*%
%TO.P,R14,1*%
%TO.N,Net-(C10-Pad2)*%
%TA.AperFunction,SMDPad,CuDef*%
G36*
G01*
X143706002Y-113462500D02*
X142805998Y-113462500D01*
G75*
G02*
X142556000Y-113212502I0J249998D01*
G01*
X142556000Y-112687498D01*
G75*
G02*
X142805998Y-112437500I249998J0D01*
G01*
X143706002Y-112437500D01*
G75*
G02*
X143956000Y-112687498I0J-249998D01*
G01*
X143956000Y-113212502D01*
G75*
G02*
X143706002Y-113462500I-249998J0D01*
G01*
G37*
%TD.AperFunction*%
%TO.P,R14,2*%
%TO.N,Net-(C10-Pad1)*%
%TA.AperFunction,SMDPad,CuDef*%
G36*
G01*
X143706002Y-111637500D02*
X142805998Y-111637500D01*
G75*
G02*
X142556000Y-111387502I0J249998D01*
G01*
X142556000Y-110862498D01*
G75*
G02*
X142805998Y-110612500I249998J0D01*
G01*
X143706002Y-110612500D01*
G75*
G02*
X143956000Y-110862498I0J-249998D01*
G01*
X143956000Y-111387502D01*
G75*
G02*
X143706002Y-111637500I-249998J0D01*
G01*
G37*
%TD.AperFunction*%
%TD*%
D16*
%TO.P,T1,1*%
%TO.N,Net-(R3-Pad2)*%
X114110000Y-104775000D03*
%TO.P,T1,2*%
%TO.N,Net-(C1-Pad1)*%
X114110000Y-106045000D03*
%TO.P,T1,3*%
%TO.N,Net-(R4-Pad2)*%
X114110000Y-107315000D03*
%TO.P,T1,4*%
%TO.N,Net-(J3-PadG1)*%
X110680000Y-107315000D03*
%TO.P,T1,5*%
%TO.N,Net-(J3-Pad1)*%
X110680000Y-104775000D03*
%TD*%
D17*
%TO.N,GND*%
X123190000Y-105410000D03*
X145415000Y-93345000D03*
X120904000Y-93472000D03*
X131572000Y-93472000D03*
X138430000Y-93345000D03*
X152400000Y-93345000D03*
X152400000Y-116840000D03*
X107950000Y-98425000D03*
X107950000Y-116840000D03*
X139700000Y-102616000D03*
X139700000Y-105664000D03*
X139700000Y-108712000D03*
X115316000Y-111125000D03*
X119380000Y-111125000D03*
X107950000Y-93345000D03*
X107950000Y-112395000D03*
X145415000Y-116840000D03*
%TO.N,VCC*%
X129984500Y-115760500D03*
X130175000Y-112395000D03*
%TO.N,Net-(C7-Pad2)*%
X129540000Y-102870000D03*
X126292884Y-105972885D03*
%TO.N,Net-(C8-Pad1)*%
X125095000Y-105410000D03*
X123827653Y-106677347D03*
%TO.N,VAA*%
X146685000Y-111125000D03*
%TO.N,PTT*%
X130048004Y-105156004D03*
X130048000Y-107696000D03*
%TO.N,Net-(IC1-Pad2)*%
X126720031Y-101320031D03*
X119380000Y-99060000D03*
%TO.N,Net-(IC1-Pad7)*%
X121995819Y-101915910D03*
X120015000Y-102870000D03*
%TO.N,Net-(IC1-Pad14)*%
X127635000Y-106045000D03*
X130810000Y-96520000D03*
%TO.N,Net-(J3-PadG1)*%
X107315000Y-107315000D03*
X107188000Y-102108000D03*
%TD*%
D18*
%TO.N,Net-(C1-Pad1)*%
X113160000Y-106045000D02*
X112710000Y-106495000D01*
X112710000Y-106495000D02*
X112710000Y-111252000D01*
X113160000Y-106045000D02*
X112672500Y-105557500D01*
X114110000Y-106045000D02*
X113160000Y-106045000D01*
X112710000Y-111252000D02*
X112710000Y-115824000D01*
X112710000Y-115824000D02*
X115927500Y-115824000D01*
X112672500Y-100584000D02*
X112672500Y-105557500D01*
%TO.N,GND*%
X122820000Y-103120000D02*
X122820000Y-103240000D01*
X122820000Y-105040000D02*
X123190000Y-105410000D01*
X122820000Y-103120000D02*
X122820000Y-105040000D01*
X133583989Y-100030011D02*
X133604000Y-100010000D01*
X133387500Y-111101500D02*
X133350000Y-111064000D01*
%TO.N,Net-(C3-Pad1)*%
X120589000Y-115824000D02*
X120650000Y-115885000D01*
X117752500Y-115824000D02*
X120589000Y-115824000D01*
X124094000Y-115885000D02*
X124155000Y-115824000D01*
X120650000Y-115885000D02*
X124094000Y-115885000D01*
%TO.N,VCC*%
X128340000Y-108970000D02*
X129225000Y-109855000D01*
X127370000Y-108970000D02*
X128340000Y-108970000D01*
X129225000Y-111445000D02*
X130175000Y-112395000D01*
X129225000Y-109855000D02*
X129225000Y-111445000D01*
X129921000Y-115824000D02*
X129984500Y-115760500D01*
X127305000Y-115824000D02*
X129921000Y-115824000D01*
%TO.N,Net-(C5-Pad2)*%
X124439989Y-100514989D02*
X126070000Y-102145000D01*
X126070000Y-102145000D02*
X126070000Y-103120000D01*
X136614500Y-98110000D02*
X136652000Y-98147500D01*
X133350000Y-98110000D02*
X136614500Y-98110000D01*
X126844978Y-98110000D02*
X124439989Y-100514989D01*
X133350000Y-98110000D02*
X126844978Y-98110000D01*
X121735011Y-100514989D02*
X124439989Y-100514989D01*
X120740002Y-105265002D02*
X120740002Y-101509998D01*
X123470000Y-108970000D02*
X123470000Y-107995000D01*
X123470000Y-107995000D02*
X120740002Y-105265002D01*
X120740002Y-101509998D02*
X121735011Y-100514989D01*
%TO.N,Net-(C6-Pad1)*%
X136614500Y-112964000D02*
X136652000Y-112926500D01*
X133350000Y-112964000D02*
X136614500Y-112964000D01*
X124120000Y-109945000D02*
X124120000Y-108970000D01*
X124120000Y-109953004D02*
X124120000Y-109945000D01*
X127629825Y-113462829D02*
X124120000Y-109953004D01*
X132851171Y-113462829D02*
X127629825Y-113462829D01*
X133350000Y-112964000D02*
X132851171Y-113462829D01*
X121190013Y-105065013D02*
X121190013Y-101696397D01*
X125420000Y-102145000D02*
X125420000Y-103120000D01*
X124120000Y-107995000D02*
X121190013Y-105065013D01*
X121190013Y-101696397D02*
X121831409Y-101055001D01*
X124330001Y-101055001D02*
X125420000Y-102145000D01*
X124120000Y-108970000D02*
X124120000Y-107995000D01*
X121831409Y-101055001D02*
X124330001Y-101055001D01*
%TO.N,Net-(C7-Pad2)*%
X124120000Y-103120000D02*
X124219999Y-103120000D01*
X125420000Y-107640000D02*
X125420000Y-108970000D01*
X124120000Y-103120000D02*
X124120000Y-105705000D01*
X125420000Y-107005000D02*
X125420000Y-107640000D01*
X124120000Y-105705000D02*
X125420000Y-107005000D01*
X129855000Y-102555000D02*
X129540000Y-102870000D01*
X133350000Y-102555000D02*
X129855000Y-102555000D01*
X136591000Y-102555000D02*
X136652000Y-102616000D01*
X133350000Y-102555000D02*
X136591000Y-102555000D01*
X125420000Y-107640000D02*
X125420000Y-106845769D01*
X125420000Y-106845769D02*
X126292884Y-105972885D01*
%TO.N,Net-(C8-Pad1)*%
X124770000Y-103120000D02*
X124770000Y-104095000D01*
X124770000Y-104095000D02*
X125359999Y-104684999D01*
X136614500Y-108646000D02*
X136652000Y-108608500D01*
X133350000Y-108646000D02*
X136614500Y-108646000D01*
X125359999Y-104684999D02*
X125359999Y-105145001D01*
X125359999Y-105145001D02*
X125095000Y-105410000D01*
X124770000Y-107619694D02*
X124770000Y-108970000D01*
X123827653Y-106677347D02*
X124770000Y-107619694D01*
X127700500Y-104684999D02*
X125359999Y-104684999D01*
X129187501Y-106172000D02*
X127700500Y-104684999D01*
X133350000Y-108646000D02*
X130876000Y-106172000D01*
X130876000Y-106172000D02*
X129187501Y-106172000D01*
%TO.N,Net-(C9-Pad1)*%
X143218500Y-98110000D02*
X143256000Y-98147500D01*
X139700000Y-98110000D02*
X143218500Y-98110000D01*
X146685000Y-100965000D02*
X146685000Y-102699000D01*
X143256000Y-98147500D02*
X143867500Y-98147500D01*
X144145000Y-98425000D02*
X146685000Y-100965000D01*
X143867500Y-98147500D02*
X144145000Y-98425000D01*
X146130000Y-98147500D02*
X146407500Y-98425000D01*
X143256000Y-98147500D02*
X146130000Y-98147500D01*
%TO.N,Net-(C9-Pad2)*%
X136741500Y-100010000D02*
X136779000Y-99972500D01*
X139662500Y-99972500D02*
X139700000Y-100010000D01*
X136652000Y-99972500D02*
X139662500Y-99972500D01*
X143256000Y-99972500D02*
X144168500Y-99972500D01*
X145415000Y-101219000D02*
X145415000Y-102699000D01*
X144168500Y-99972500D02*
X145415000Y-101219000D01*
X143218500Y-100010000D02*
X143256000Y-99972500D01*
X139700000Y-100010000D02*
X143218500Y-100010000D01*
%TO.N,Net-(C10-Pad2)*%
X143585000Y-113025000D02*
X143637000Y-113077000D01*
X146360500Y-113077000D02*
X146407500Y-113030000D01*
X143181000Y-113025000D02*
X143256000Y-112950000D01*
X139700000Y-113025000D02*
X143181000Y-113025000D01*
X145415000Y-112037500D02*
X146407500Y-113030000D01*
X145415000Y-108121000D02*
X145415000Y-112037500D01*
X143336000Y-113030000D02*
X143256000Y-112950000D01*
X146407500Y-113030000D02*
X143336000Y-113030000D01*
%TO.N,Net-(C10-Pad1)*%
X144145000Y-108525002D02*
X144145000Y-108121000D01*
X143510000Y-111125000D02*
X143637000Y-111252000D01*
X139676500Y-111101500D02*
X139700000Y-111125000D01*
X136652000Y-111101500D02*
X139676500Y-111101500D01*
X139700000Y-111125000D02*
X143256000Y-111125000D01*
X144145000Y-110236000D02*
X144145000Y-108121000D01*
X143256000Y-111125000D02*
X144145000Y-110236000D01*
%TO.N,VAA*%
X146685000Y-108121000D02*
X146685000Y-111125000D01*
X149689000Y-108121000D02*
X149860000Y-107950000D01*
X149203000Y-108121000D02*
X149352000Y-108270000D01*
X146685000Y-108121000D02*
X149203000Y-108121000D01*
%TO.N,Net-(C12-Pad2)*%
X148232500Y-98425000D02*
X150815000Y-98425000D01*
%TO.N,Net-(C12-Pad1)*%
X152715000Y-102550000D02*
X153035000Y-102870000D01*
X152715000Y-98425000D02*
X152715000Y-102550000D01*
%TO.N,Net-(C13-Pad1)*%
X152715000Y-108270000D02*
X153035000Y-107950000D01*
X152715000Y-113030000D02*
X152715000Y-108270000D01*
%TO.N,Net-(C13-Pad2)*%
X148232500Y-113030000D02*
X150815000Y-113030000D01*
%TO.N,PTT*%
X127370000Y-103120000D02*
X128012000Y-103120000D01*
X128012000Y-103120000D02*
X130048004Y-105156004D01*
X127019000Y-107696000D02*
X130048000Y-107696000D01*
X126720000Y-107995000D02*
X127019000Y-107696000D01*
X126720000Y-108970000D02*
X126720000Y-107995000D01*
%TO.N,Net-(IC1-Pad2)*%
X126720000Y-103120000D02*
X126720000Y-101320062D01*
X126720000Y-101320062D02*
X126720031Y-101320031D01*
X115316000Y-94996000D02*
X119380000Y-99060000D01*
X115316000Y-94892500D02*
X115316000Y-94996000D01*
%TO.N,Net-(IC1-Pad7)*%
X123470000Y-103120000D02*
X123470000Y-102145000D01*
X123240910Y-101915910D02*
X121995819Y-101915910D01*
X123470000Y-102145000D02*
X123240910Y-101915910D01*
X119022500Y-103862500D02*
X120015000Y-102870000D01*
X119022500Y-104775000D02*
X119022500Y-103862500D01*
%TO.N,Net-(IC1-Pad9)*%
X121165000Y-107315000D02*
X122820000Y-108970000D01*
X119022500Y-107315000D02*
X121165000Y-107315000D01*
%TO.N,Net-(IC1-Pad14)*%
X126070000Y-108970000D02*
X126070000Y-107610000D01*
X126070000Y-107610000D02*
X127635000Y-106045000D01*
X129182500Y-94892500D02*
X130810000Y-96520000D01*
X126492000Y-94892500D02*
X129182500Y-94892500D01*
%TO.N,Net-(IC2-Pad3)*%
X144145000Y-103713000D02*
X144145000Y-102699000D01*
X143417000Y-104441000D02*
X144145000Y-103713000D01*
X136652000Y-104441000D02*
X143417000Y-104441000D01*
%TO.N,Net-(IC2-Pad5)*%
X142704000Y-107950000D02*
X142875000Y-108121000D01*
X141537500Y-106783500D02*
X142875000Y-108121000D01*
X136652000Y-106783500D02*
X141537500Y-106783500D01*
%TO.N,Net-(J1-Pad1)*%
X126595500Y-90019500D02*
X126492000Y-89916000D01*
X126595500Y-89003500D02*
X126492000Y-88900000D01*
X126492000Y-93067500D02*
X126492000Y-88900000D01*
%TO.N,Net-(J2-Pad1)*%
X115292500Y-89939500D02*
X115316000Y-89916000D01*
X115292500Y-88923500D02*
X115316000Y-88900000D01*
X115316000Y-93067500D02*
X115316000Y-88900000D01*
%TO.N,Net-(J3-Pad1)*%
X110553000Y-104902000D02*
X110680000Y-104775000D01*
X105029000Y-104775000D02*
X104902000Y-104648000D01*
X104267000Y-104775000D02*
X104140000Y-104648000D01*
X110680000Y-104775000D02*
X104267000Y-104775000D01*
%TO.N,Net-(R3-Pad2)*%
X114110000Y-104775000D02*
X117197500Y-104775000D01*
%TO.N,Net-(R4-Pad2)*%
X114110000Y-107315000D02*
X117197500Y-107315000D01*
%TO.N,Net-(J3-PadG1)*%
X110485000Y-107510000D02*
X110680000Y-107315000D01*
X110393000Y-107602000D02*
X110680000Y-107315000D01*
X104935000Y-107315000D02*
X104902000Y-107348000D01*
X104173000Y-107315000D02*
X104140000Y-107348000D01*
X110680000Y-107315000D02*
X107315000Y-107315000D01*
X107315000Y-107315000D02*
X104173000Y-107315000D01*
X104300000Y-102108000D02*
X104140000Y-101948000D01*
X107188000Y-102108000D02*
X104300000Y-102108000D01*
%TD*%
D19*
%TO.N,GND*%
X154813000Y-121158000D02*
X102362000Y-121158000D01*
X102362000Y-119233740D01*
X129579000Y-119233740D01*
X129579000Y-119526260D01*
X129636068Y-119813158D01*
X129748010Y-120083411D01*
X129910525Y-120326632D01*
X130117368Y-120533475D01*
X130360589Y-120695990D01*
X130630842Y-120807932D01*
X130917740Y-120865000D01*
X131210260Y-120865000D01*
X131497158Y-120807932D01*
X131767411Y-120695990D01*
X132010632Y-120533475D01*
X132217475Y-120326632D01*
X132334000Y-120152240D01*
X132450525Y-120326632D01*
X132657368Y-120533475D01*
X132900589Y-120695990D01*
X133170842Y-120807932D01*
X133457740Y-120865000D01*
X133750260Y-120865000D01*
X134037158Y-120807932D01*
X134307411Y-120695990D01*
X134550632Y-120533475D01*
X134757475Y-120326632D01*
X134874000Y-120152240D01*
X134990525Y-120326632D01*
X135197368Y-120533475D01*
X135440589Y-120695990D01*
X135710842Y-120807932D01*
X135997740Y-120865000D01*
X136290260Y-120865000D01*
X136577158Y-120807932D01*
X136847411Y-120695990D01*
X137090632Y-120533475D01*
X137222487Y-120401620D01*
X137244498Y-120474180D01*
X137303463Y-120584494D01*
X137382815Y-120681185D01*
X137479506Y-120760537D01*
X137589820Y-120819502D01*
X137709518Y-120855812D01*
X137834000Y-120868072D01*
X138398250Y-120865000D01*
X138557000Y-120706250D01*
X138557000Y-119507000D01*
X138811000Y-119507000D01*
X138811000Y-120706250D01*
X138969750Y-120865000D01*
X139534000Y-120868072D01*
X139658482Y-120855812D01*
X139778180Y-120819502D01*
X139888494Y-120760537D01*
X139985185Y-120681185D01*
X140064537Y-120584494D01*
X140123502Y-120474180D01*
X140159812Y-120354482D01*
X140172072Y-120230000D01*
X140169000Y-119665750D01*
X140010250Y-119507000D01*
X138811000Y-119507000D01*
X138557000Y-119507000D01*
X138537000Y-119507000D01*
X138537000Y-119253000D01*
X138557000Y-119253000D01*
X138557000Y-118053750D01*
X138811000Y-118053750D01*
X138811000Y-119253000D01*
X140010250Y-119253000D01*
X140169000Y-119094250D01*
X140172072Y-118530000D01*
X140159812Y-118405518D01*
X140123502Y-118285820D01*
X140064537Y-118175506D01*
X139985185Y-118078815D01*
X139888494Y-117999463D01*
X139778180Y-117940498D01*
X139658482Y-117904188D01*
X139534000Y-117891928D01*
X138969750Y-117895000D01*
X138811000Y-118053750D01*
X138557000Y-118053750D01*
X138398250Y-117895000D01*
X137834000Y-117891928D01*
X137709518Y-117904188D01*
X137589820Y-117940498D01*
X137479506Y-117999463D01*
X137382815Y-118078815D01*
X137303463Y-118175506D01*
X137244498Y-118285820D01*
X137222487Y-118358380D01*
X137090632Y-118226525D01*
X136847411Y-118064010D01*
X136577158Y-117952068D01*
X136290260Y-117895000D01*
X135997740Y-117895000D01*
X135710842Y-117952068D01*
X135440589Y-118064010D01*
X135197368Y-118226525D01*
X134990525Y-118433368D01*
X134874000Y-118607760D01*
X134757475Y-118433368D01*
X134550632Y-118226525D01*
X134307411Y-118064010D01*
X134037158Y-117952068D01*
X133750260Y-117895000D01*
X133457740Y-117895000D01*
X133170842Y-117952068D01*
X132900589Y-118064010D01*
X132657368Y-118226525D01*
X132450525Y-118433368D01*
X132334000Y-118607760D01*
X132217475Y-118433368D01*
X132010632Y-118226525D01*
X131767411Y-118064010D01*
X131497158Y-117952068D01*
X131210260Y-117895000D01*
X130917740Y-117895000D01*
X130630842Y-117952068D01*
X130360589Y-118064010D01*
X130117368Y-118226525D01*
X129910525Y-118433368D01*
X129748010Y-118676589D01*
X129636068Y-118946842D01*
X129579000Y-119233740D01*
X102362000Y-119233740D01*
X102362000Y-116549000D01*
X109671928Y-116549000D01*
X109684188Y-116673482D01*
X109720498Y-116793180D01*
X109779463Y-116903494D01*
X109858815Y-117000185D01*
X109955506Y-117079537D01*
X110065820Y-117138502D01*
X110185518Y-117174812D01*
X110310000Y-117187072D01*
X110524250Y-117184000D01*
X110683000Y-117025250D01*
X110683000Y-115951000D01*
X109833750Y-115951000D01*
X109675000Y-116109750D01*
X109671928Y-116549000D01*
X102362000Y-116549000D01*
X102362000Y-115099000D01*
X109671928Y-115099000D01*
X109675000Y-115538250D01*
X109833750Y-115697000D01*
X110683000Y-115697000D01*
X110683000Y-114622750D01*
X110524250Y-114464000D01*
X110310000Y-114460928D01*
X110185518Y-114473188D01*
X110065820Y-114509498D01*
X109955506Y-114568463D01*
X109858815Y-114647815D01*
X109779463Y-114744506D01*
X109720498Y-114854820D01*
X109684188Y-114974518D01*
X109671928Y-115099000D01*
X102362000Y-115099000D01*
X102362000Y-111977000D01*
X109671928Y-111977000D01*
X109684188Y-112101482D01*
X109720498Y-112221180D01*
X109779463Y-112331494D01*
X109858815Y-112428185D01*
X109955506Y-112507537D01*
X110065820Y-112566502D01*
X110185518Y-112602812D01*
X110310000Y-112615072D01*
X110524250Y-112612000D01*
X110683000Y-112453250D01*
X110683000Y-111379000D01*
X109833750Y-111379000D01*
X109675000Y-111537750D01*
X109671928Y-111977000D01*
X102362000Y-111977000D01*
X102362000Y-110527000D01*
X109671928Y-110527000D01*
X109675000Y-110966250D01*
X109833750Y-111125000D01*
X110683000Y-111125000D01*
X110683000Y-110050750D01*
X110524250Y-109892000D01*
X110310000Y-109888928D01*
X110185518Y-109901188D01*
X110065820Y-109937498D01*
X109955506Y-109996463D01*
X109858815Y-110075815D01*
X109779463Y-110172506D01*
X109720498Y-110282820D01*
X109684188Y-110402518D01*
X109671928Y-110527000D01*
X102362000Y-110527000D01*
X102362000Y-108733314D01*
X102390000Y-108736072D01*
X105890000Y-108736072D01*
X106014482Y-108723812D01*
X106134180Y-108687502D01*
X106244494Y-108628537D01*
X106341185Y-108549185D01*
X106420537Y-108452494D01*
X106479502Y-108342180D01*
X106515812Y-108222482D01*
X106528072Y-108098000D01*
X106528072Y-108075000D01*
X106611289Y-108075000D01*
X106655226Y-108118937D01*
X106824744Y-108232205D01*
X107013102Y-108310226D01*
X107213061Y-108350000D01*
X107416939Y-108350000D01*
X107616898Y-108310226D01*
X107805256Y-108232205D01*
X107974774Y-108118937D01*
X108018711Y-108075000D01*
X109470395Y-108075000D01*
X109528815Y-108146185D01*
X109625506Y-108225537D01*
X109735820Y-108284502D01*
X109855518Y-108320812D01*
X109980000Y-108333072D01*
X110184905Y-108333072D01*
X110244015Y-108351002D01*
X110393000Y-108365676D01*
X110541985Y-108351002D01*
X110601095Y-108333072D01*
X111380000Y-108333072D01*
X111504482Y-108320812D01*
X111624180Y-108284502D01*
X111734494Y-108225537D01*
X111831185Y-108146185D01*
X111910537Y-108049494D01*
X111950000Y-107975665D01*
X111950001Y-110052229D01*
X111832038Y-110149038D01*
X111826658Y-110155594D01*
X111761185Y-110075815D01*
X111664494Y-109996463D01*
X111554180Y-109937498D01*
X111434482Y-109901188D01*
X111310000Y-109888928D01*
X111095750Y-109892000D01*
X110937000Y-110050750D01*
X110937000Y-111125000D01*
X110957000Y-111125000D01*
X110957000Y-111379000D01*
X110937000Y-111379000D01*
X110937000Y-112453250D01*
X111095750Y-112612000D01*
X111310000Y-112615072D01*
X111434482Y-112602812D01*
X111554180Y-112566502D01*
X111664494Y-112507537D01*
X111761185Y-112428185D01*
X111826658Y-112348406D01*
X111832038Y-112354962D01*
X111950000Y-112451771D01*
X111950001Y-114624229D01*
X111832038Y-114721038D01*
X111826658Y-114727594D01*
X111761185Y-114647815D01*
X111664494Y-114568463D01*
X111554180Y-114509498D01*
X111434482Y-114473188D01*
X111310000Y-114460928D01*
X111095750Y-114464000D01*
X110937000Y-114622750D01*
X110937000Y-115697000D01*
X110957000Y-115697000D01*
X110957000Y-115951000D01*
X110937000Y-115951000D01*
X110937000Y-117025250D01*
X111095750Y-117184000D01*
X111310000Y-117187072D01*
X111434482Y-117174812D01*
X111554180Y-117138502D01*
X111664494Y-117079537D01*
X111761185Y-117000185D01*
X111826658Y-116920406D01*
X111832038Y-116926962D01*
X111966614Y-117037405D01*
X112120150Y-117119472D01*
X112286746Y-117170008D01*
X112460000Y-117187072D01*
X112960000Y-117187072D01*
X113133254Y-117170008D01*
X113299850Y-117119472D01*
X113453386Y-117037405D01*
X113587962Y-116926962D01*
X113698405Y-116792386D01*
X113780472Y-116638850D01*
X113797110Y-116584000D01*
X114835473Y-116584000D01*
X114844528Y-116613852D01*
X114926595Y-116767387D01*
X115037038Y-116901962D01*
X115171613Y-117012405D01*
X115325148Y-117094472D01*
X115491744Y-117145008D01*
X115664998Y-117162072D01*
X116190002Y-117162072D01*
X116363256Y-117145008D01*
X116529852Y-117094472D01*
X116683387Y-117012405D01*
X116817962Y-116901962D01*
X116840000Y-116875109D01*
X116862038Y-116901962D01*
X116996613Y-117012405D01*
X117150148Y-117094472D01*
X117316744Y-117145008D01*
X117489998Y-117162072D01*
X118015002Y-117162072D01*
X118188256Y-117145008D01*
X118354852Y-117094472D01*
X118508387Y-117012405D01*
X118642962Y-116901962D01*
X118753405Y-116767387D01*
X118835472Y-116613852D01*
X118844527Y-116584000D01*
X119412870Y-116584000D01*
X119436595Y-116628386D01*
X119547038Y-116762962D01*
X119681614Y-116873405D01*
X119835150Y-116955472D01*
X120001746Y-117006008D01*
X120175000Y-117023072D01*
X121125000Y-117023072D01*
X121298254Y-117006008D01*
X121464850Y-116955472D01*
X121618386Y-116873405D01*
X121752962Y-116762962D01*
X121849770Y-116645000D01*
X123003845Y-116645000D01*
X123008992Y-116697255D01*
X123059528Y-116863851D01*
X123141595Y-117017387D01*
X123252038Y-117151962D01*
X123386613Y-117262405D01*
X123540149Y-117344472D01*
X123706745Y-117395008D01*
X123879999Y-117412072D01*
X124430001Y-117412072D01*
X124603255Y-117395008D01*
X124769851Y-117344472D01*
X124923387Y-117262405D01*
X125057962Y-117151962D01*
X125168405Y-117017387D01*
X125250472Y-116863851D01*
X125301008Y-116697255D01*
X125318072Y-116524001D01*
X125318072Y-115123999D01*
X126141928Y-115123999D01*
X126141928Y-116524001D01*
X126158992Y-116697255D01*
X126209528Y-116863851D01*
X126291595Y-117017387D01*
X126402038Y-117151962D01*
X126536613Y-117262405D01*
X126690149Y-117344472D01*
X126856745Y-117395008D01*
X127029999Y-117412072D01*
X127580001Y-117412072D01*
X127753255Y-117395008D01*
X127919851Y-117344472D01*
X128073387Y-117262405D01*
X128207962Y-117151962D01*
X128318405Y-117017387D01*
X128400472Y-116863851D01*
X128451008Y-116697255D01*
X128462163Y-116584000D01*
X129354004Y-116584000D01*
X129494244Y-116677705D01*
X129682602Y-116755726D01*
X129882561Y-116795500D01*
X130086439Y-116795500D01*
X130286398Y-116755726D01*
X130474756Y-116677705D01*
X130644274Y-116564437D01*
X130788437Y-116420274D01*
X130901705Y-116250756D01*
X130979726Y-116062398D01*
X131019500Y-115862439D01*
X131019500Y-115658561D01*
X130979726Y-115458602D01*
X130901705Y-115270244D01*
X130788437Y-115100726D01*
X130644274Y-114956563D01*
X130474756Y-114843295D01*
X130286398Y-114765274D01*
X130086439Y-114725500D01*
X129882561Y-114725500D01*
X129682602Y-114765274D01*
X129494244Y-114843295D01*
X129324726Y-114956563D01*
X129217289Y-115064000D01*
X128462163Y-115064000D01*
X128451008Y-114950745D01*
X128400472Y-114784149D01*
X128318405Y-114630613D01*
X128207962Y-114496038D01*
X128073387Y-114385595D01*
X127919851Y-114303528D01*
X127753255Y-114252992D01*
X127580001Y-114235928D01*
X127029999Y-114235928D01*
X126856745Y-114252992D01*
X126690149Y-114303528D01*
X126536613Y-114385595D01*
X126402038Y-114496038D01*
X126291595Y-114630613D01*
X126209528Y-114784149D01*
X126158992Y-114950745D01*
X126141928Y-115123999D01*
X125318072Y-115123999D01*
X125301008Y-114950745D01*
X125250472Y-114784149D01*
X125168405Y-114630613D01*
X125057962Y-114496038D01*
X124923387Y-114385595D01*
X124769851Y-114303528D01*
X124603255Y-114252992D01*
X124430001Y-114235928D01*
X123879999Y-114235928D01*
X123706745Y-114252992D01*
X123540149Y-114303528D01*
X123386613Y-114385595D01*
X123252038Y-114496038D01*
X123141595Y-114630613D01*
X123059528Y-114784149D01*
X123008992Y-114950745D01*
X122991928Y-115123999D01*
X122991928Y-115125000D01*
X121849770Y-115125000D01*
X121752962Y-115007038D01*
X121746406Y-115001658D01*
X121826185Y-114936185D01*
X121905537Y-114839494D01*
X121964502Y-114729180D01*
X122000812Y-114609482D01*
X122013072Y-114485000D01*
X122010000Y-114270750D01*
X121851250Y-114112000D01*
X120777000Y-114112000D01*
X120777000Y-114132000D01*
X120523000Y-114132000D01*
X120523000Y-114112000D01*
X119448750Y-114112000D01*
X119290000Y-114270750D01*
X119286928Y-114485000D01*
X119299188Y-114609482D01*
X119335498Y-114729180D01*
X119394463Y-114839494D01*
X119473815Y-114936185D01*
X119553594Y-115001658D01*
X119547038Y-115007038D01*
X119500291Y-115064000D01*
X118844527Y-115064000D01*
X118835472Y-115034148D01*
X118753405Y-114880613D01*
X118642962Y-114746038D01*
X118508387Y-114635595D01*
X118354852Y-114553528D01*
X118188256Y-114502992D01*
X118015002Y-114485928D01*
X117489998Y-114485928D01*
X117316744Y-114502992D01*
X117150148Y-114553528D01*
X116996613Y-114635595D01*
X116862038Y-114746038D01*
X116840000Y-114772891D01*
X116817962Y-114746038D01*
X116683387Y-114635595D01*
X116529852Y-114553528D01*
X116363256Y-114502992D01*
X116190002Y-114485928D01*
X115664998Y-114485928D01*
X115491744Y-114502992D01*
X115325148Y-114553528D01*
X115171613Y-114635595D01*
X115037038Y-114746038D01*
X114926595Y-114880613D01*
X114844528Y-115034148D01*
X114835473Y-115064000D01*
X113797110Y-115064000D01*
X113780472Y-115009150D01*
X113698405Y-114855614D01*
X113587962Y-114721038D01*
X113470000Y-114624230D01*
X113470000Y-113485000D01*
X119286928Y-113485000D01*
X119290000Y-113699250D01*
X119448750Y-113858000D01*
X120523000Y-113858000D01*
X120523000Y-113008750D01*
X120777000Y-113008750D01*
X120777000Y-113858000D01*
X121851250Y-113858000D01*
X122010000Y-113699250D01*
X122013072Y-113485000D01*
X122000812Y-113360518D01*
X121964502Y-113240820D01*
X121905537Y-113130506D01*
X121826185Y-113033815D01*
X121729494Y-112954463D01*
X121619180Y-112895498D01*
X121499482Y-112859188D01*
X121375000Y-112846928D01*
X120935750Y-112850000D01*
X120777000Y-113008750D01*
X120523000Y-113008750D01*
X120364250Y-112850000D01*
X119925000Y-112846928D01*
X119800518Y-112859188D01*
X119680820Y-112895498D01*
X119570506Y-112954463D01*
X119473815Y-113033815D01*
X119394463Y-113130506D01*
X119335498Y-113240820D01*
X119299188Y-113360518D01*
X119286928Y-113485000D01*
X113470000Y-113485000D01*
X113470000Y-112451770D01*
X113587962Y-112354962D01*
X113698405Y-112220386D01*
X113780472Y-112066850D01*
X113831008Y-111900254D01*
X113848072Y-111727000D01*
X113848072Y-110777000D01*
X113831008Y-110603746D01*
X113780472Y-110437150D01*
X113698405Y-110283614D01*
X113587962Y-110149038D01*
X113470000Y-110052230D01*
X113470000Y-108333072D01*
X114810000Y-108333072D01*
X114934482Y-108320812D01*
X115054180Y-108284502D01*
X115164494Y-108225537D01*
X115261185Y-108146185D01*
X115319605Y-108075000D01*
X116105473Y-108075000D01*
X116114528Y-108104852D01*
X116196595Y-108258387D01*
X116307038Y-108392962D01*
X116441613Y-108503405D01*
X116595148Y-108585472D01*
X116761744Y-108636008D01*
X116934998Y-108653072D01*
X117460002Y-108653072D01*
X117633256Y-108636008D01*
X117799852Y-108585472D01*
X117953387Y-108503405D01*
X118087962Y-108392962D01*
X118110000Y-108366109D01*
X118132038Y-108392962D01*
X118266613Y-108503405D01*
X118420148Y-108585472D01*
X118586744Y-108636008D01*
X118759998Y-108653072D01*
X119285002Y-108653072D01*
X119458256Y-108636008D01*
X119624852Y-108585472D01*
X119778387Y-108503405D01*
X119912962Y-108392962D01*
X120023405Y-108258387D01*
X120105472Y-108104852D01*
X120114527Y-108075000D01*
X120850199Y-108075000D01*
X121956928Y-109181731D01*
X121956928Y-109695000D01*
X121969188Y-109819482D01*
X122005498Y-109939180D01*
X122064463Y-110049494D01*
X122143815Y-110146185D01*
X122240506Y-110225537D01*
X122350820Y-110284502D01*
X122470518Y-110320812D01*
X122595000Y-110333072D01*
X123045000Y-110333072D01*
X123145000Y-110323223D01*
X123245000Y-110333072D01*
X123461396Y-110333072D01*
X123485026Y-110377280D01*
X123500352Y-110395954D01*
X123579999Y-110493005D01*
X123609003Y-110516808D01*
X127066026Y-113973832D01*
X127089824Y-114002830D01*
X127118822Y-114026628D01*
X127205548Y-114097803D01*
X127295733Y-114146008D01*
X127337578Y-114168375D01*
X127480839Y-114211832D01*
X127592492Y-114222829D01*
X127592501Y-114222829D01*
X127629824Y-114226505D01*
X127667147Y-114222829D01*
X132813849Y-114222829D01*
X132851171Y-114226505D01*
X132888493Y-114222829D01*
X132888504Y-114222829D01*
X133000157Y-114211832D01*
X133143418Y-114168375D01*
X133267460Y-114102072D01*
X133825000Y-114102072D01*
X133998254Y-114085008D01*
X134164850Y-114034472D01*
X134318386Y-113952405D01*
X134452962Y-113841962D01*
X134549770Y-113724000D01*
X135497746Y-113724000D01*
X135574038Y-113816962D01*
X135708613Y-113927405D01*
X135862148Y-114009472D01*
X136028744Y-114060008D01*
X136201998Y-114077072D01*
X137102002Y-114077072D01*
X137275256Y-114060008D01*
X137441852Y-114009472D01*
X137595387Y-113927405D01*
X137729962Y-113816962D01*
X137840405Y-113682387D01*
X137922472Y-113528852D01*
X137973008Y-113362256D01*
X137990072Y-113189002D01*
X137990072Y-112663998D01*
X137973008Y-112490744D01*
X137922472Y-112324148D01*
X137840405Y-112170613D01*
X137729962Y-112036038D01*
X137703109Y-112014000D01*
X137729962Y-111991962D01*
X137837030Y-111861500D01*
X138482914Y-111861500D01*
X138486595Y-111868386D01*
X138597038Y-112002962D01*
X138684817Y-112075000D01*
X138597038Y-112147038D01*
X138486595Y-112281614D01*
X138404528Y-112435150D01*
X138353992Y-112601746D01*
X138336928Y-112775000D01*
X138336928Y-113275000D01*
X138353992Y-113448254D01*
X138404528Y-113614850D01*
X138486595Y-113768386D01*
X138597038Y-113902962D01*
X138731614Y-114013405D01*
X138885150Y-114095472D01*
X139051746Y-114146008D01*
X139225000Y-114163072D01*
X140175000Y-114163072D01*
X140348254Y-114146008D01*
X140514850Y-114095472D01*
X140668386Y-114013405D01*
X140802962Y-113902962D01*
X140899770Y-113785000D01*
X142132521Y-113785000D01*
X142178038Y-113840462D01*
X142312613Y-113950905D01*
X142466148Y-114032972D01*
X142632744Y-114083508D01*
X142805998Y-114100572D01*
X143706002Y-114100572D01*
X143879256Y-114083508D01*
X144045852Y-114032972D01*
X144199387Y-113950905D01*
X144333962Y-113840462D01*
X144375375Y-113790000D01*
X145315473Y-113790000D01*
X145324528Y-113819852D01*
X145406595Y-113973387D01*
X145517038Y-114107962D01*
X145651613Y-114218405D01*
X145805148Y-114300472D01*
X145971744Y-114351008D01*
X146144998Y-114368072D01*
X146670002Y-114368072D01*
X146843256Y-114351008D01*
X147009852Y-114300472D01*
X147163387Y-114218405D01*
X147297962Y-114107962D01*
X147320000Y-114081109D01*
X147342038Y-114107962D01*
X147476613Y-114218405D01*
X147630148Y-114300472D01*
X147796744Y-114351008D01*
X147969998Y-114368072D01*
X148495002Y-114368072D01*
X148668256Y-114351008D01*
X148834852Y-114300472D01*
X148988387Y-114218405D01*
X149122962Y-114107962D01*
X149233405Y-113973387D01*
X149315472Y-113819852D01*
X149324527Y-113790000D01*
X149727890Y-113790000D01*
X149744528Y-113844850D01*
X149826595Y-113998386D01*
X149937038Y-114132962D01*
X150071614Y-114243405D01*
X150225150Y-114325472D01*
X150391746Y-114376008D01*
X150565000Y-114393072D01*
X151065000Y-114393072D01*
X151238254Y-114376008D01*
X151404850Y-114325472D01*
X151558386Y-114243405D01*
X151692962Y-114132962D01*
X151765000Y-114045183D01*
X151837038Y-114132962D01*
X151971614Y-114243405D01*
X152125150Y-114325472D01*
X152291746Y-114376008D01*
X152465000Y-114393072D01*
X152965000Y-114393072D01*
X153138254Y-114376008D01*
X153304850Y-114325472D01*
X153458386Y-114243405D01*
X153592962Y-114132962D01*
X153703405Y-113998386D01*
X153785472Y-113844850D01*
X153836008Y-113678254D01*
X153853072Y-113505000D01*
X153853072Y-112555000D01*
X153836008Y-112381746D01*
X153785472Y-112215150D01*
X153703405Y-112061614D01*
X153592962Y-111927038D01*
X153475000Y-111830230D01*
X153475000Y-109438072D01*
X153885000Y-109438072D01*
X154009482Y-109425812D01*
X154129180Y-109389502D01*
X154239494Y-109330537D01*
X154336185Y-109251185D01*
X154415537Y-109154494D01*
X154474502Y-109044180D01*
X154510812Y-108924482D01*
X154523072Y-108800000D01*
X154523072Y-107100000D01*
X154510812Y-106975518D01*
X154474502Y-106855820D01*
X154415537Y-106745506D01*
X154336185Y-106648815D01*
X154239494Y-106569463D01*
X154129180Y-106510498D01*
X154048534Y-106486034D01*
X154132588Y-106410269D01*
X154306641Y-106176920D01*
X154431825Y-105914099D01*
X154476476Y-105766890D01*
X154355155Y-105537000D01*
X153162000Y-105537000D01*
X153162000Y-105557000D01*
X152908000Y-105557000D01*
X152908000Y-105537000D01*
X151714845Y-105537000D01*
X151593524Y-105766890D01*
X151638175Y-105914099D01*
X151763359Y-106176920D01*
X151937412Y-106410269D01*
X152021466Y-106486034D01*
X151940820Y-106510498D01*
X151830506Y-106569463D01*
X151733815Y-106648815D01*
X151654463Y-106745506D01*
X151595498Y-106855820D01*
X151559188Y-106975518D01*
X151546928Y-107100000D01*
X151546928Y-108800000D01*
X151559188Y-108924482D01*
X151595498Y-109044180D01*
X151654463Y-109154494D01*
X151733815Y-109251185D01*
X151830506Y-109330537D01*
X151940820Y-109389502D01*
X151955001Y-109393804D01*
X151955000Y-111830229D01*
X151837038Y-111927038D01*
X151765000Y-112014817D01*
X151692962Y-111927038D01*
X151558386Y-111816595D01*
X151404850Y-111734528D01*
X151238254Y-111683992D01*
X151065000Y-111666928D01*
X150565000Y-111666928D01*
X150391746Y-111683992D01*
X150225150Y-111734528D01*
X150071614Y-111816595D01*
X149937038Y-111927038D01*
X149826595Y-112061614D01*
X149744528Y-112215150D01*
X149727890Y-112270000D01*
X149324527Y-112270000D01*
X149315472Y-112240148D01*
X149233405Y-112086613D01*
X149122962Y-111952038D01*
X148988387Y-111841595D01*
X148834852Y-111759528D01*
X148668256Y-111708992D01*
X148495002Y-111691928D01*
X147969998Y-111691928D01*
X147796744Y-111708992D01*
X147630148Y-111759528D01*
X147476613Y-111841595D01*
X147342038Y-111952038D01*
X147320000Y-111978891D01*
X147302296Y-111957320D01*
X147344774Y-111928937D01*
X147488937Y-111784774D01*
X147602205Y-111615256D01*
X147680226Y-111426898D01*
X147720000Y-111226939D01*
X147720000Y-111023061D01*
X147680226Y-110823102D01*
X147616809Y-110670000D01*
X147988928Y-110670000D01*
X148001188Y-110794482D01*
X148037498Y-110914180D01*
X148096463Y-111024494D01*
X148175815Y-111121185D01*
X148272506Y-111200537D01*
X148382820Y-111259502D01*
X148502518Y-111295812D01*
X148627000Y-111308072D01*
X149066250Y-111305000D01*
X149225000Y-111146250D01*
X149225000Y-110297000D01*
X149479000Y-110297000D01*
X149479000Y-111146250D01*
X149637750Y-111305000D01*
X150077000Y-111308072D01*
X150201482Y-111295812D01*
X150321180Y-111259502D01*
X150431494Y-111200537D01*
X150528185Y-111121185D01*
X150607537Y-111024494D01*
X150666502Y-110914180D01*
X150702812Y-110794482D01*
X150715072Y-110670000D01*
X150712000Y-110455750D01*
X150553250Y-110297000D01*
X149479000Y-110297000D01*
X149225000Y-110297000D01*
X148150750Y-110297000D01*
X147992000Y-110455750D01*
X147988928Y-110670000D01*
X147616809Y-110670000D01*
X147602205Y-110634744D01*
X147488937Y-110465226D01*
X147445000Y-110421289D01*
X147445000Y-109349468D01*
X147461185Y-109336185D01*
X147540537Y-109239494D01*
X147599502Y-109129180D01*
X147635812Y-109009482D01*
X147648072Y-108885000D01*
X147648072Y-108881000D01*
X148067833Y-108881000D01*
X148138595Y-109013386D01*
X148249038Y-109147962D01*
X148255594Y-109153342D01*
X148175815Y-109218815D01*
X148096463Y-109315506D01*
X148037498Y-109425820D01*
X148001188Y-109545518D01*
X147988928Y-109670000D01*
X147992000Y-109884250D01*
X148150750Y-110043000D01*
X149225000Y-110043000D01*
X149225000Y-110023000D01*
X149479000Y-110023000D01*
X149479000Y-110043000D01*
X150553250Y-110043000D01*
X150712000Y-109884250D01*
X150715072Y-109670000D01*
X150702812Y-109545518D01*
X150666502Y-109425820D01*
X150607537Y-109315506D01*
X150528185Y-109218815D01*
X150448406Y-109153342D01*
X150454962Y-109147962D01*
X150565405Y-109013386D01*
X150647472Y-108859850D01*
X150698008Y-108693254D01*
X150715072Y-108520000D01*
X150715072Y-108020000D01*
X150698008Y-107846746D01*
X150647472Y-107680150D01*
X150565405Y-107526614D01*
X150454962Y-107392038D01*
X150320386Y-107281595D01*
X150166850Y-107199528D01*
X150000254Y-107148992D01*
X149827000Y-107131928D01*
X148877000Y-107131928D01*
X148703746Y-107148992D01*
X148537150Y-107199528D01*
X148383614Y-107281595D01*
X148286858Y-107361000D01*
X147648072Y-107361000D01*
X147648072Y-107357000D01*
X147635812Y-107232518D01*
X147599502Y-107112820D01*
X147540537Y-107002506D01*
X147461185Y-106905815D01*
X147364494Y-106826463D01*
X147254180Y-106767498D01*
X147134482Y-106731188D01*
X147010000Y-106718928D01*
X146360000Y-106718928D01*
X146235518Y-106731188D01*
X146115820Y-106767498D01*
X146050000Y-106802680D01*
X145984180Y-106767498D01*
X145864482Y-106731188D01*
X145740000Y-106718928D01*
X145090000Y-106718928D01*
X144965518Y-106731188D01*
X144845820Y-106767498D01*
X144780000Y-106802680D01*
X144714180Y-106767498D01*
X144594482Y-106731188D01*
X144470000Y-106718928D01*
X143820000Y-106718928D01*
X143695518Y-106731188D01*
X143575820Y-106767498D01*
X143510000Y-106802680D01*
X143444180Y-106767498D01*
X143324482Y-106731188D01*
X143200000Y-106718928D01*
X142550000Y-106718928D01*
X142547933Y-106719132D01*
X142101304Y-106272503D01*
X142077501Y-106243499D01*
X141961776Y-106148526D01*
X141829747Y-106077954D01*
X141686486Y-106034497D01*
X141574833Y-106023500D01*
X141574822Y-106023500D01*
X141537500Y-106019824D01*
X141500178Y-106023500D01*
X137837030Y-106023500D01*
X137729962Y-105893038D01*
X137595387Y-105782595D01*
X137441852Y-105700528D01*
X137275256Y-105649992D01*
X137102002Y-105632928D01*
X136201998Y-105632928D01*
X136028744Y-105649992D01*
X135862148Y-105700528D01*
X135708613Y-105782595D01*
X135574038Y-105893038D01*
X135463595Y-106027613D01*
X135381528Y-106181148D01*
X135330992Y-106347744D01*
X135313928Y-106520998D01*
X135313928Y-107046002D01*
X135330992Y-107219256D01*
X135381528Y-107385852D01*
X135463595Y-107539387D01*
X135574038Y-107673962D01*
X135600891Y-107696000D01*
X135574038Y-107718038D01*
X135463595Y-107852613D01*
X135445749Y-107886000D01*
X134549770Y-107886000D01*
X134452962Y-107768038D01*
X134446406Y-107762658D01*
X134526185Y-107697185D01*
X134605537Y-107600494D01*
X134664502Y-107490180D01*
X134700812Y-107370482D01*
X134713072Y-107246000D01*
X134710000Y-107031750D01*
X134551250Y-106873000D01*
X133477000Y-106873000D01*
X133477000Y-106893000D01*
X133223000Y-106893000D01*
X133223000Y-106873000D01*
X133203000Y-106873000D01*
X133203000Y-106619000D01*
X133223000Y-106619000D01*
X133223000Y-105769750D01*
X133477000Y-105769750D01*
X133477000Y-106619000D01*
X134551250Y-106619000D01*
X134710000Y-106460250D01*
X134713072Y-106246000D01*
X134700812Y-106121518D01*
X134664502Y-106001820D01*
X134605537Y-105891506D01*
X134526185Y-105794815D01*
X134429494Y-105715463D01*
X134319180Y-105656498D01*
X134199482Y-105620188D01*
X134075000Y-105607928D01*
X133635750Y-105611000D01*
X133477000Y-105769750D01*
X133223000Y-105769750D01*
X133064250Y-105611000D01*
X132625000Y-105607928D01*
X132500518Y-105620188D01*
X132380820Y-105656498D01*
X132270506Y-105715463D01*
X132173815Y-105794815D01*
X132094463Y-105891506D01*
X132035498Y-106001820D01*
X131999188Y-106121518D01*
X131990324Y-106211522D01*
X131439804Y-105661003D01*
X131416001Y-105631999D01*
X131300276Y-105537026D01*
X131168247Y-105466454D01*
X131048740Y-105430202D01*
X131083004Y-105257943D01*
X131083004Y-105054065D01*
X131063299Y-104955000D01*
X131986928Y-104955000D01*
X131999188Y-105079482D01*
X132035498Y-105199180D01*
X132094463Y-105309494D01*
X132173815Y-105406185D01*
X132270506Y-105485537D01*
X132380820Y-105544502D01*
X132500518Y-105580812D01*
X132625000Y-105593072D01*
X133064250Y-105590000D01*
X133223000Y-105431250D01*
X133223000Y-104582000D01*
X133477000Y-104582000D01*
X133477000Y-105431250D01*
X133635750Y-105590000D01*
X134075000Y-105593072D01*
X134199482Y-105580812D01*
X134319180Y-105544502D01*
X134429494Y-105485537D01*
X134526185Y-105406185D01*
X134605537Y-105309494D01*
X134664502Y-105199180D01*
X134700812Y-105079482D01*
X134713072Y-104955000D01*
X134710000Y-104740750D01*
X134551250Y-104582000D01*
X133477000Y-104582000D01*
X133223000Y-104582000D01*
X132148750Y-104582000D01*
X131990000Y-104740750D01*
X131986928Y-104955000D01*
X131063299Y-104955000D01*
X131043230Y-104854106D01*
X130965209Y-104665748D01*
X130851941Y-104496230D01*
X130707778Y-104352067D01*
X130538260Y-104238799D01*
X130349902Y-104160778D01*
X130149943Y-104121004D01*
X130087806Y-104121004D01*
X129833666Y-103866863D01*
X129841898Y-103865226D01*
X130030256Y-103787205D01*
X130199774Y-103673937D01*
X130343937Y-103529774D01*
X130457205Y-103360256D01*
X130475951Y-103315000D01*
X132150230Y-103315000D01*
X132247038Y-103432962D01*
X132253594Y-103438342D01*
X132173815Y-103503815D01*
X132094463Y-103600506D01*
X132035498Y-103710820D01*
X131999188Y-103830518D01*
X131986928Y-103955000D01*
X131990000Y-104169250D01*
X132148750Y-104328000D01*
X133223000Y-104328000D01*
X133223000Y-104308000D01*
X133477000Y-104308000D01*
X133477000Y-104328000D01*
X134551250Y-104328000D01*
X134710000Y-104169250D01*
X134713072Y-103955000D01*
X134700812Y-103830518D01*
X134664502Y-103710820D01*
X134605537Y-103600506D01*
X134526185Y-103503815D01*
X134446406Y-103438342D01*
X134452962Y-103432962D01*
X134549770Y-103315000D01*
X135433188Y-103315000D01*
X135463595Y-103371887D01*
X135574038Y-103506462D01*
X135600891Y-103528500D01*
X135574038Y-103550538D01*
X135463595Y-103685113D01*
X135381528Y-103838648D01*
X135330992Y-104005244D01*
X135313928Y-104178498D01*
X135313928Y-104703502D01*
X135330992Y-104876756D01*
X135381528Y-105043352D01*
X135463595Y-105196887D01*
X135574038Y-105331462D01*
X135708613Y-105441905D01*
X135862148Y-105523972D01*
X136028744Y-105574508D01*
X136201998Y-105591572D01*
X137102002Y-105591572D01*
X137275256Y-105574508D01*
X137441852Y-105523972D01*
X137595387Y-105441905D01*
X137729962Y-105331462D01*
X137837030Y-105201000D01*
X143379678Y-105201000D01*
X143417000Y-105204676D01*
X143454322Y-105201000D01*
X143454333Y-105201000D01*
X143565986Y-105190003D01*
X143709247Y-105146546D01*
X143841276Y-105075974D01*
X143957001Y-104981001D01*
X143980803Y-104951998D01*
X144656009Y-104276794D01*
X144685001Y-104253001D01*
X144708795Y-104224008D01*
X144708799Y-104224004D01*
X144779973Y-104137277D01*
X144779974Y-104137276D01*
X144829850Y-104043966D01*
X144845820Y-104052502D01*
X144965518Y-104088812D01*
X145090000Y-104101072D01*
X145740000Y-104101072D01*
X145864482Y-104088812D01*
X145984180Y-104052502D01*
X146050000Y-104017320D01*
X146115820Y-104052502D01*
X146235518Y-104088812D01*
X146360000Y-104101072D01*
X147010000Y-104101072D01*
X147134482Y-104088812D01*
X147254180Y-104052502D01*
X147364494Y-103993537D01*
X147461185Y-103914185D01*
X147540537Y-103817494D01*
X147599502Y-103707180D01*
X147635812Y-103587482D01*
X147648072Y-103463000D01*
X147648072Y-101935000D01*
X147635812Y-101810518D01*
X147599502Y-101690820D01*
X147540537Y-101580506D01*
X147461185Y-101483815D01*
X147445000Y-101470532D01*
X147445000Y-101002322D01*
X147448676Y-100964999D01*
X147445000Y-100927676D01*
X147445000Y-100927667D01*
X147434003Y-100816014D01*
X147390546Y-100672753D01*
X147319974Y-100540724D01*
X147296812Y-100512501D01*
X147248799Y-100453996D01*
X147248795Y-100453992D01*
X147225001Y-100424999D01*
X147196009Y-100401206D01*
X146557874Y-99763072D01*
X146670002Y-99763072D01*
X146843256Y-99746008D01*
X147009852Y-99695472D01*
X147163387Y-99613405D01*
X147297962Y-99502962D01*
X147320000Y-99476109D01*
X147342038Y-99502962D01*
X147476613Y-99613405D01*
X147630148Y-99695472D01*
X147796744Y-99746008D01*
X147969998Y-99763072D01*
X148495002Y-99763072D01*
X148668256Y-99746008D01*
X148834852Y-99695472D01*
X148988387Y-99613405D01*
X149122962Y-99502962D01*
X149233405Y-99368387D01*
X149315472Y-99214852D01*
X149324527Y-99185000D01*
X149727890Y-99185000D01*
X149744528Y-99239850D01*
X149826595Y-99393386D01*
X149937038Y-99527962D01*
X150071614Y-99638405D01*
X150225150Y-99720472D01*
X150391746Y-99771008D01*
X150565000Y-99788072D01*
X151065000Y-99788072D01*
X151238254Y-99771008D01*
X151404850Y-99720472D01*
X151558386Y-99638405D01*
X151692962Y-99527962D01*
X151765000Y-99440183D01*
X151837038Y-99527962D01*
X151955000Y-99624771D01*
X151955001Y-101849892D01*
X151881525Y-101923368D01*
X151719010Y-102166589D01*
X151607068Y-102436842D01*
X151550000Y-102723740D01*
X151550000Y-103016260D01*
X151607068Y-103303158D01*
X151719010Y-103573411D01*
X151881525Y-103816632D01*
X152088368Y-104023475D01*
X152270534Y-104145195D01*
X152153645Y-104214822D01*
X151937412Y-104409731D01*
X151763359Y-104643080D01*
X151638175Y-104905901D01*
X151593524Y-105053110D01*
X151714845Y-105283000D01*
X152908000Y-105283000D01*
X152908000Y-105263000D01*
X153162000Y-105263000D01*
X153162000Y-105283000D01*
X154355155Y-105283000D01*
X154476476Y-105053110D01*
X154431825Y-104905901D01*
X154306641Y-104643080D01*
X154132588Y-104409731D01*
X153916355Y-104214822D01*
X153799466Y-104145195D01*
X153981632Y-104023475D01*
X154188475Y-103816632D01*
X154350990Y-103573411D01*
X154462932Y-103303158D01*
X154520000Y-103016260D01*
X154520000Y-102723740D01*
X154462932Y-102436842D01*
X154350990Y-102166589D01*
X154188475Y-101923368D01*
X153981632Y-101716525D01*
X153738411Y-101554010D01*
X153475000Y-101444902D01*
X153475000Y-99624770D01*
X153592962Y-99527962D01*
X153703405Y-99393386D01*
X153785472Y-99239850D01*
X153836008Y-99073254D01*
X153853072Y-98900000D01*
X153853072Y-97950000D01*
X153836008Y-97776746D01*
X153785472Y-97610150D01*
X153703405Y-97456614D01*
X153592962Y-97322038D01*
X153458386Y-97211595D01*
X153304850Y-97129528D01*
X153138254Y-97078992D01*
X152965000Y-97061928D01*
X152465000Y-97061928D01*
X152291746Y-97078992D01*
X152125150Y-97129528D01*
X151971614Y-97211595D01*
X151837038Y-97322038D01*
X151765000Y-97409817D01*
X151692962Y-97322038D01*
X151558386Y-97211595D01*
X151404850Y-97129528D01*
X151238254Y-97078992D01*
X151065000Y-97061928D01*
X150565000Y-97061928D01*
X150391746Y-97078992D01*
X150225150Y-97129528D01*
X150071614Y-97211595D01*
X149937038Y-97322038D01*
X149826595Y-97456614D01*
X149744528Y-97610150D01*
X149727890Y-97665000D01*
X149324527Y-97665000D01*
X149315472Y-97635148D01*
X149233405Y-97481613D01*
X149122962Y-97347038D01*
X148988387Y-97236595D01*
X148834852Y-97154528D01*
X148668256Y-97103992D01*
X148495002Y-97086928D01*
X147969998Y-97086928D01*
X147796744Y-97103992D01*
X147630148Y-97154528D01*
X147476613Y-97236595D01*
X147342038Y-97347038D01*
X147320000Y-97373891D01*
X147297962Y-97347038D01*
X147163387Y-97236595D01*
X147009852Y-97154528D01*
X146843256Y-97103992D01*
X146670002Y-97086928D01*
X146144998Y-97086928D01*
X145971744Y-97103992D01*
X145805148Y-97154528D01*
X145651613Y-97236595D01*
X145517038Y-97347038D01*
X145483832Y-97387500D01*
X144441030Y-97387500D01*
X144333962Y-97257038D01*
X144199387Y-97146595D01*
X144045852Y-97064528D01*
X143879256Y-97013992D01*
X143706002Y-96996928D01*
X142805998Y-96996928D01*
X142632744Y-97013992D01*
X142466148Y-97064528D01*
X142312613Y-97146595D01*
X142178038Y-97257038D01*
X142101746Y-97350000D01*
X140899770Y-97350000D01*
X140802962Y-97232038D01*
X140668386Y-97121595D01*
X140514850Y-97039528D01*
X140348254Y-96988992D01*
X140175000Y-96971928D01*
X139225000Y-96971928D01*
X139051746Y-96988992D01*
X138885150Y-97039528D01*
X138731614Y-97121595D01*
X138597038Y-97232038D01*
X138486595Y-97366614D01*
X138404528Y-97520150D01*
X138353992Y-97686746D01*
X138336928Y-97860000D01*
X138336928Y-98360000D01*
X138353992Y-98533254D01*
X138404528Y-98699850D01*
X138486595Y-98853386D01*
X138597038Y-98987962D01*
X138684817Y-99060000D01*
X138597038Y-99132038D01*
X138531005Y-99212500D01*
X137837030Y-99212500D01*
X137729962Y-99082038D01*
X137703109Y-99060000D01*
X137729962Y-99037962D01*
X137840405Y-98903387D01*
X137922472Y-98749852D01*
X137973008Y-98583256D01*
X137990072Y-98410002D01*
X137990072Y-97884998D01*
X137973008Y-97711744D01*
X137922472Y-97545148D01*
X137840405Y-97391613D01*
X137729962Y-97257038D01*
X137595387Y-97146595D01*
X137441852Y-97064528D01*
X137275256Y-97013992D01*
X137102002Y-96996928D01*
X136201998Y-96996928D01*
X136028744Y-97013992D01*
X135862148Y-97064528D01*
X135708613Y-97146595D01*
X135574038Y-97257038D01*
X135497746Y-97350000D01*
X134549770Y-97350000D01*
X134452962Y-97232038D01*
X134318386Y-97121595D01*
X134164850Y-97039528D01*
X133998254Y-96988992D01*
X133825000Y-96971928D01*
X132875000Y-96971928D01*
X132701746Y-96988992D01*
X132535150Y-97039528D01*
X132381614Y-97121595D01*
X132247038Y-97232038D01*
X132150230Y-97350000D01*
X131430768Y-97350000D01*
X131469774Y-97323937D01*
X131613937Y-97179774D01*
X131727205Y-97010256D01*
X131805226Y-96821898D01*
X131845000Y-96621939D01*
X131845000Y-96418061D01*
X131805226Y-96218102D01*
X131727205Y-96029744D01*
X131613937Y-95860226D01*
X131469774Y-95716063D01*
X131300256Y-95602795D01*
X131111898Y-95524774D01*
X130911939Y-95485000D01*
X130849802Y-95485000D01*
X129746304Y-94381503D01*
X129722501Y-94352499D01*
X129606776Y-94257526D01*
X129474747Y-94186954D01*
X129331486Y-94143497D01*
X129219833Y-94132500D01*
X129219822Y-94132500D01*
X129182500Y-94128824D01*
X129145178Y-94132500D01*
X127677030Y-94132500D01*
X127569962Y-94002038D01*
X127543109Y-93980000D01*
X127569962Y-93957962D01*
X127680405Y-93823387D01*
X127762472Y-93669852D01*
X127813008Y-93503256D01*
X127830072Y-93330002D01*
X127830072Y-92804998D01*
X127813008Y-92631744D01*
X127762472Y-92465148D01*
X127680405Y-92311613D01*
X127569962Y-92177038D01*
X127435387Y-92066595D01*
X127281852Y-91984528D01*
X127252000Y-91975473D01*
X127252000Y-91287087D01*
X127366482Y-91275812D01*
X127486180Y-91239502D01*
X127596494Y-91180537D01*
X127693185Y-91101185D01*
X127772537Y-91004494D01*
X127831502Y-90894180D01*
X127842000Y-90859573D01*
X127852498Y-90894180D01*
X127911463Y-91004494D01*
X127990815Y-91101185D01*
X128087506Y-91180537D01*
X128197820Y-91239502D01*
X128317518Y-91275812D01*
X128442000Y-91288072D01*
X128906250Y-91285000D01*
X129065000Y-91126250D01*
X129065000Y-89027000D01*
X129319000Y-89027000D01*
X129319000Y-91126250D01*
X129477750Y-91285000D01*
X129942000Y-91288072D01*
X130066482Y-91275812D01*
X130186180Y-91239502D01*
X130296494Y-91180537D01*
X130393185Y-91101185D01*
X130472537Y-91004494D01*
X130531502Y-90894180D01*
X130567812Y-90774482D01*
X130580072Y-90650000D01*
X130577000Y-89185750D01*
X130418250Y-89027000D01*
X129319000Y-89027000D01*
X129065000Y-89027000D01*
X129045000Y-89027000D01*
X129045000Y-88773000D01*
X129065000Y-88773000D01*
X129065000Y-88753000D01*
X129319000Y-88753000D01*
X129319000Y-88773000D01*
X130418250Y-88773000D01*
X130577000Y-88614250D01*
X130580072Y-87150000D01*
X130577314Y-87122000D01*
X154813000Y-87122000D01*
X154813000Y-121158000D01*
%TA.AperFunction,Conductor*%
D20*
G36*
X154813000Y-121158000D02*
G01*
X102362000Y-121158000D01*
X102362000Y-119233740D01*
X129579000Y-119233740D01*
X129579000Y-119526260D01*
X129636068Y-119813158D01*
X129748010Y-120083411D01*
X129910525Y-120326632D01*
X130117368Y-120533475D01*
X130360589Y-120695990D01*
X130630842Y-120807932D01*
X130917740Y-120865000D01*
X131210260Y-120865000D01*
X131497158Y-120807932D01*
X131767411Y-120695990D01*
X132010632Y-120533475D01*
X132217475Y-120326632D01*
X132334000Y-120152240D01*
X132450525Y-120326632D01*
X132657368Y-120533475D01*
X132900589Y-120695990D01*
X133170842Y-120807932D01*
X133457740Y-120865000D01*
X133750260Y-120865000D01*
X134037158Y-120807932D01*
X134307411Y-120695990D01*
X134550632Y-120533475D01*
X134757475Y-120326632D01*
X134874000Y-120152240D01*
X134990525Y-120326632D01*
X135197368Y-120533475D01*
X135440589Y-120695990D01*
X135710842Y-120807932D01*
X135997740Y-120865000D01*
X136290260Y-120865000D01*
X136577158Y-120807932D01*
X136847411Y-120695990D01*
X137090632Y-120533475D01*
X137222487Y-120401620D01*
X137244498Y-120474180D01*
X137303463Y-120584494D01*
X137382815Y-120681185D01*
X137479506Y-120760537D01*
X137589820Y-120819502D01*
X137709518Y-120855812D01*
X137834000Y-120868072D01*
X138398250Y-120865000D01*
X138557000Y-120706250D01*
X138557000Y-119507000D01*
X138811000Y-119507000D01*
X138811000Y-120706250D01*
X138969750Y-120865000D01*
X139534000Y-120868072D01*
X139658482Y-120855812D01*
X139778180Y-120819502D01*
X139888494Y-120760537D01*
X139985185Y-120681185D01*
X140064537Y-120584494D01*
X140123502Y-120474180D01*
X140159812Y-120354482D01*
X140172072Y-120230000D01*
X140169000Y-119665750D01*
X140010250Y-119507000D01*
X138811000Y-119507000D01*
X138557000Y-119507000D01*
X138537000Y-119507000D01*
X138537000Y-119253000D01*
X138557000Y-119253000D01*
X138557000Y-118053750D01*
X138811000Y-118053750D01*
X138811000Y-119253000D01*
X140010250Y-119253000D01*
X140169000Y-119094250D01*
X140172072Y-118530000D01*
X140159812Y-118405518D01*
X140123502Y-118285820D01*
X140064537Y-118175506D01*
X139985185Y-118078815D01*
X139888494Y-117999463D01*
X139778180Y-117940498D01*
X139658482Y-117904188D01*
X139534000Y-117891928D01*
X138969750Y-117895000D01*
X138811000Y-118053750D01*
X138557000Y-118053750D01*
X138398250Y-117895000D01*
X137834000Y-117891928D01*
X137709518Y-117904188D01*
X137589820Y-117940498D01*
X137479506Y-117999463D01*
X137382815Y-118078815D01*
X137303463Y-118175506D01*
X137244498Y-118285820D01*
X137222487Y-118358380D01*
X137090632Y-118226525D01*
X136847411Y-118064010D01*
X136577158Y-117952068D01*
X136290260Y-117895000D01*
X135997740Y-117895000D01*
X135710842Y-117952068D01*
X135440589Y-118064010D01*
X135197368Y-118226525D01*
X134990525Y-118433368D01*
X134874000Y-118607760D01*
X134757475Y-118433368D01*
X134550632Y-118226525D01*
X134307411Y-118064010D01*
X134037158Y-117952068D01*
X133750260Y-117895000D01*
X133457740Y-117895000D01*
X133170842Y-117952068D01*
X132900589Y-118064010D01*
X132657368Y-118226525D01*
X132450525Y-118433368D01*
X132334000Y-118607760D01*
X132217475Y-118433368D01*
X132010632Y-118226525D01*
X131767411Y-118064010D01*
X131497158Y-117952068D01*
X131210260Y-117895000D01*
X130917740Y-117895000D01*
X130630842Y-117952068D01*
X130360589Y-118064010D01*
X130117368Y-118226525D01*
X129910525Y-118433368D01*
X129748010Y-118676589D01*
X129636068Y-118946842D01*
X129579000Y-119233740D01*
X102362000Y-119233740D01*
X102362000Y-116549000D01*
X109671928Y-116549000D01*
X109684188Y-116673482D01*
X109720498Y-116793180D01*
X109779463Y-116903494D01*
X109858815Y-117000185D01*
X109955506Y-117079537D01*
X110065820Y-117138502D01*
X110185518Y-117174812D01*
X110310000Y-117187072D01*
X110524250Y-117184000D01*
X110683000Y-117025250D01*
X110683000Y-115951000D01*
X109833750Y-115951000D01*
X109675000Y-116109750D01*
X109671928Y-116549000D01*
X102362000Y-116549000D01*
X102362000Y-115099000D01*
X109671928Y-115099000D01*
X109675000Y-115538250D01*
X109833750Y-115697000D01*
X110683000Y-115697000D01*
X110683000Y-114622750D01*
X110524250Y-114464000D01*
X110310000Y-114460928D01*
X110185518Y-114473188D01*
X110065820Y-114509498D01*
X109955506Y-114568463D01*
X109858815Y-114647815D01*
X109779463Y-114744506D01*
X109720498Y-114854820D01*
X109684188Y-114974518D01*
X109671928Y-115099000D01*
X102362000Y-115099000D01*
X102362000Y-111977000D01*
X109671928Y-111977000D01*
X109684188Y-112101482D01*
X109720498Y-112221180D01*
X109779463Y-112331494D01*
X109858815Y-112428185D01*
X109955506Y-112507537D01*
X110065820Y-112566502D01*
X110185518Y-112602812D01*
X110310000Y-112615072D01*
X110524250Y-112612000D01*
X110683000Y-112453250D01*
X110683000Y-111379000D01*
X109833750Y-111379000D01*
X109675000Y-111537750D01*
X109671928Y-111977000D01*
X102362000Y-111977000D01*
X102362000Y-110527000D01*
X109671928Y-110527000D01*
X109675000Y-110966250D01*
X109833750Y-111125000D01*
X110683000Y-111125000D01*
X110683000Y-110050750D01*
X110524250Y-109892000D01*
X110310000Y-109888928D01*
X110185518Y-109901188D01*
X110065820Y-109937498D01*
X109955506Y-109996463D01*
X109858815Y-110075815D01*
X109779463Y-110172506D01*
X109720498Y-110282820D01*
X109684188Y-110402518D01*
X109671928Y-110527000D01*
X102362000Y-110527000D01*
X102362000Y-108733314D01*
X102390000Y-108736072D01*
X105890000Y-108736072D01*
X106014482Y-108723812D01*
X106134180Y-108687502D01*
X106244494Y-108628537D01*
X106341185Y-108549185D01*
X106420537Y-108452494D01*
X106479502Y-108342180D01*
X106515812Y-108222482D01*
X106528072Y-108098000D01*
X106528072Y-108075000D01*
X106611289Y-108075000D01*
X106655226Y-108118937D01*
X106824744Y-108232205D01*
X107013102Y-108310226D01*
X107213061Y-108350000D01*
X107416939Y-108350000D01*
X107616898Y-108310226D01*
X107805256Y-108232205D01*
X107974774Y-108118937D01*
X108018711Y-108075000D01*
X109470395Y-108075000D01*
X109528815Y-108146185D01*
X109625506Y-108225537D01*
X109735820Y-108284502D01*
X109855518Y-108320812D01*
X109980000Y-108333072D01*
X110184905Y-108333072D01*
X110244015Y-108351002D01*
X110393000Y-108365676D01*
X110541985Y-108351002D01*
X110601095Y-108333072D01*
X111380000Y-108333072D01*
X111504482Y-108320812D01*
X111624180Y-108284502D01*
X111734494Y-108225537D01*
X111831185Y-108146185D01*
X111910537Y-108049494D01*
X111950000Y-107975665D01*
X111950001Y-110052229D01*
X111832038Y-110149038D01*
X111826658Y-110155594D01*
X111761185Y-110075815D01*
X111664494Y-109996463D01*
X111554180Y-109937498D01*
X111434482Y-109901188D01*
X111310000Y-109888928D01*
X111095750Y-109892000D01*
X110937000Y-110050750D01*
X110937000Y-111125000D01*
X110957000Y-111125000D01*
X110957000Y-111379000D01*
X110937000Y-111379000D01*
X110937000Y-112453250D01*
X111095750Y-112612000D01*
X111310000Y-112615072D01*
X111434482Y-112602812D01*
X111554180Y-112566502D01*
X111664494Y-112507537D01*
X111761185Y-112428185D01*
X111826658Y-112348406D01*
X111832038Y-112354962D01*
X111950000Y-112451771D01*
X111950001Y-114624229D01*
X111832038Y-114721038D01*
X111826658Y-114727594D01*
X111761185Y-114647815D01*
X111664494Y-114568463D01*
X111554180Y-114509498D01*
X111434482Y-114473188D01*
X111310000Y-114460928D01*
X111095750Y-114464000D01*
X110937000Y-114622750D01*
X110937000Y-115697000D01*
X110957000Y-115697000D01*
X110957000Y-115951000D01*
X110937000Y-115951000D01*
X110937000Y-117025250D01*
X111095750Y-117184000D01*
X111310000Y-117187072D01*
X111434482Y-117174812D01*
X111554180Y-117138502D01*
X111664494Y-117079537D01*
X111761185Y-117000185D01*
X111826658Y-116920406D01*
X111832038Y-116926962D01*
X111966614Y-117037405D01*
X112120150Y-117119472D01*
X112286746Y-117170008D01*
X112460000Y-117187072D01*
X112960000Y-117187072D01*
X113133254Y-117170008D01*
X113299850Y-117119472D01*
X113453386Y-117037405D01*
X113587962Y-116926962D01*
X113698405Y-116792386D01*
X113780472Y-116638850D01*
X113797110Y-116584000D01*
X114835473Y-116584000D01*
X114844528Y-116613852D01*
X114926595Y-116767387D01*
X115037038Y-116901962D01*
X115171613Y-117012405D01*
X115325148Y-117094472D01*
X115491744Y-117145008D01*
X115664998Y-117162072D01*
X116190002Y-117162072D01*
X116363256Y-117145008D01*
X116529852Y-117094472D01*
X116683387Y-117012405D01*
X116817962Y-116901962D01*
X116840000Y-116875109D01*
X116862038Y-116901962D01*
X116996613Y-117012405D01*
X117150148Y-117094472D01*
X117316744Y-117145008D01*
X117489998Y-117162072D01*
X118015002Y-117162072D01*
X118188256Y-117145008D01*
X118354852Y-117094472D01*
X118508387Y-117012405D01*
X118642962Y-116901962D01*
X118753405Y-116767387D01*
X118835472Y-116613852D01*
X118844527Y-116584000D01*
X119412870Y-116584000D01*
X119436595Y-116628386D01*
X119547038Y-116762962D01*
X119681614Y-116873405D01*
X119835150Y-116955472D01*
X120001746Y-117006008D01*
X120175000Y-117023072D01*
X121125000Y-117023072D01*
X121298254Y-117006008D01*
X121464850Y-116955472D01*
X121618386Y-116873405D01*
X121752962Y-116762962D01*
X121849770Y-116645000D01*
X123003845Y-116645000D01*
X123008992Y-116697255D01*
X123059528Y-116863851D01*
X123141595Y-117017387D01*
X123252038Y-117151962D01*
X123386613Y-117262405D01*
X123540149Y-117344472D01*
X123706745Y-117395008D01*
X123879999Y-117412072D01*
X124430001Y-117412072D01*
X124603255Y-117395008D01*
X124769851Y-117344472D01*
X124923387Y-117262405D01*
X125057962Y-117151962D01*
X125168405Y-117017387D01*
X125250472Y-116863851D01*
X125301008Y-116697255D01*
X125318072Y-116524001D01*
X125318072Y-115123999D01*
X126141928Y-115123999D01*
X126141928Y-116524001D01*
X126158992Y-116697255D01*
X126209528Y-116863851D01*
X126291595Y-117017387D01*
X126402038Y-117151962D01*
X126536613Y-117262405D01*
X126690149Y-117344472D01*
X126856745Y-117395008D01*
X127029999Y-117412072D01*
X127580001Y-117412072D01*
X127753255Y-117395008D01*
X127919851Y-117344472D01*
X128073387Y-117262405D01*
X128207962Y-117151962D01*
X128318405Y-117017387D01*
X128400472Y-116863851D01*
X128451008Y-116697255D01*
X128462163Y-116584000D01*
X129354004Y-116584000D01*
X129494244Y-116677705D01*
X129682602Y-116755726D01*
X129882561Y-116795500D01*
X130086439Y-116795500D01*
X130286398Y-116755726D01*
X130474756Y-116677705D01*
X130644274Y-116564437D01*
X130788437Y-116420274D01*
X130901705Y-116250756D01*
X130979726Y-116062398D01*
X131019500Y-115862439D01*
X131019500Y-115658561D01*
X130979726Y-115458602D01*
X130901705Y-115270244D01*
X130788437Y-115100726D01*
X130644274Y-114956563D01*
X130474756Y-114843295D01*
X130286398Y-114765274D01*
X130086439Y-114725500D01*
X129882561Y-114725500D01*
X129682602Y-114765274D01*
X129494244Y-114843295D01*
X129324726Y-114956563D01*
X129217289Y-115064000D01*
X128462163Y-115064000D01*
X128451008Y-114950745D01*
X128400472Y-114784149D01*
X128318405Y-114630613D01*
X128207962Y-114496038D01*
X128073387Y-114385595D01*
X127919851Y-114303528D01*
X127753255Y-114252992D01*
X127580001Y-114235928D01*
X127029999Y-114235928D01*
X126856745Y-114252992D01*
X126690149Y-114303528D01*
X126536613Y-114385595D01*
X126402038Y-114496038D01*
X126291595Y-114630613D01*
X126209528Y-114784149D01*
X126158992Y-114950745D01*
X126141928Y-115123999D01*
X125318072Y-115123999D01*
X125301008Y-114950745D01*
X125250472Y-114784149D01*
X125168405Y-114630613D01*
X125057962Y-114496038D01*
X124923387Y-114385595D01*
X124769851Y-114303528D01*
X124603255Y-114252992D01*
X124430001Y-114235928D01*
X123879999Y-114235928D01*
X123706745Y-114252992D01*
X123540149Y-114303528D01*
X123386613Y-114385595D01*
X123252038Y-114496038D01*
X123141595Y-114630613D01*
X123059528Y-114784149D01*
X123008992Y-114950745D01*
X122991928Y-115123999D01*
X122991928Y-115125000D01*
X121849770Y-115125000D01*
X121752962Y-115007038D01*
X121746406Y-115001658D01*
X121826185Y-114936185D01*
X121905537Y-114839494D01*
X121964502Y-114729180D01*
X122000812Y-114609482D01*
X122013072Y-114485000D01*
X122010000Y-114270750D01*
X121851250Y-114112000D01*
X120777000Y-114112000D01*
X120777000Y-114132000D01*
X120523000Y-114132000D01*
X120523000Y-114112000D01*
X119448750Y-114112000D01*
X119290000Y-114270750D01*
X119286928Y-114485000D01*
X119299188Y-114609482D01*
X119335498Y-114729180D01*
X119394463Y-114839494D01*
X119473815Y-114936185D01*
X119553594Y-115001658D01*
X119547038Y-115007038D01*
X119500291Y-115064000D01*
X118844527Y-115064000D01*
X118835472Y-115034148D01*
X118753405Y-114880613D01*
X118642962Y-114746038D01*
X118508387Y-114635595D01*
X118354852Y-114553528D01*
X118188256Y-114502992D01*
X118015002Y-114485928D01*
X117489998Y-114485928D01*
X117316744Y-114502992D01*
X117150148Y-114553528D01*
X116996613Y-114635595D01*
X116862038Y-114746038D01*
X116840000Y-114772891D01*
X116817962Y-114746038D01*
X116683387Y-114635595D01*
X116529852Y-114553528D01*
X116363256Y-114502992D01*
X116190002Y-114485928D01*
X115664998Y-114485928D01*
X115491744Y-114502992D01*
X115325148Y-114553528D01*
X115171613Y-114635595D01*
X115037038Y-114746038D01*
X114926595Y-114880613D01*
X114844528Y-115034148D01*
X114835473Y-115064000D01*
X113797110Y-115064000D01*
X113780472Y-115009150D01*
X113698405Y-114855614D01*
X113587962Y-114721038D01*
X113470000Y-114624230D01*
X113470000Y-113485000D01*
X119286928Y-113485000D01*
X119290000Y-113699250D01*
X119448750Y-113858000D01*
X120523000Y-113858000D01*
X120523000Y-113008750D01*
X120777000Y-113008750D01*
X120777000Y-113858000D01*
X121851250Y-113858000D01*
X122010000Y-113699250D01*
X122013072Y-113485000D01*
X122000812Y-113360518D01*
X121964502Y-113240820D01*
X121905537Y-113130506D01*
X121826185Y-113033815D01*
X121729494Y-112954463D01*
X121619180Y-112895498D01*
X121499482Y-112859188D01*
X121375000Y-112846928D01*
X120935750Y-112850000D01*
X120777000Y-113008750D01*
X120523000Y-113008750D01*
X120364250Y-112850000D01*
X119925000Y-112846928D01*
X119800518Y-112859188D01*
X119680820Y-112895498D01*
X119570506Y-112954463D01*
X119473815Y-113033815D01*
X119394463Y-113130506D01*
X119335498Y-113240820D01*
X119299188Y-113360518D01*
X119286928Y-113485000D01*
X113470000Y-113485000D01*
X113470000Y-112451770D01*
X113587962Y-112354962D01*
X113698405Y-112220386D01*
X113780472Y-112066850D01*
X113831008Y-111900254D01*
X113848072Y-111727000D01*
X113848072Y-110777000D01*
X113831008Y-110603746D01*
X113780472Y-110437150D01*
X113698405Y-110283614D01*
X113587962Y-110149038D01*
X113470000Y-110052230D01*
X113470000Y-108333072D01*
X114810000Y-108333072D01*
X114934482Y-108320812D01*
X115054180Y-108284502D01*
X115164494Y-108225537D01*
X115261185Y-108146185D01*
X115319605Y-108075000D01*
X116105473Y-108075000D01*
X116114528Y-108104852D01*
X116196595Y-108258387D01*
X116307038Y-108392962D01*
X116441613Y-108503405D01*
X116595148Y-108585472D01*
X116761744Y-108636008D01*
X116934998Y-108653072D01*
X117460002Y-108653072D01*
X117633256Y-108636008D01*
X117799852Y-108585472D01*
X117953387Y-108503405D01*
X118087962Y-108392962D01*
X118110000Y-108366109D01*
X118132038Y-108392962D01*
X118266613Y-108503405D01*
X118420148Y-108585472D01*
X118586744Y-108636008D01*
X118759998Y-108653072D01*
X119285002Y-108653072D01*
X119458256Y-108636008D01*
X119624852Y-108585472D01*
X119778387Y-108503405D01*
X119912962Y-108392962D01*
X120023405Y-108258387D01*
X120105472Y-108104852D01*
X120114527Y-108075000D01*
X120850199Y-108075000D01*
X121956928Y-109181731D01*
X121956928Y-109695000D01*
X121969188Y-109819482D01*
X122005498Y-109939180D01*
X122064463Y-110049494D01*
X122143815Y-110146185D01*
X122240506Y-110225537D01*
X122350820Y-110284502D01*
X122470518Y-110320812D01*
X122595000Y-110333072D01*
X123045000Y-110333072D01*
X123145000Y-110323223D01*
X123245000Y-110333072D01*
X123461396Y-110333072D01*
X123485026Y-110377280D01*
X123500352Y-110395954D01*
X123579999Y-110493005D01*
X123609003Y-110516808D01*
X127066026Y-113973832D01*
X127089824Y-114002830D01*
X127118822Y-114026628D01*
X127205548Y-114097803D01*
X127295733Y-114146008D01*
X127337578Y-114168375D01*
X127480839Y-114211832D01*
X127592492Y-114222829D01*
X127592501Y-114222829D01*
X127629824Y-114226505D01*
X127667147Y-114222829D01*
X132813849Y-114222829D01*
X132851171Y-114226505D01*
X132888493Y-114222829D01*
X132888504Y-114222829D01*
X133000157Y-114211832D01*
X133143418Y-114168375D01*
X133267460Y-114102072D01*
X133825000Y-114102072D01*
X133998254Y-114085008D01*
X134164850Y-114034472D01*
X134318386Y-113952405D01*
X134452962Y-113841962D01*
X134549770Y-113724000D01*
X135497746Y-113724000D01*
X135574038Y-113816962D01*
X135708613Y-113927405D01*
X135862148Y-114009472D01*
X136028744Y-114060008D01*
X136201998Y-114077072D01*
X137102002Y-114077072D01*
X137275256Y-114060008D01*
X137441852Y-114009472D01*
X137595387Y-113927405D01*
X137729962Y-113816962D01*
X137840405Y-113682387D01*
X137922472Y-113528852D01*
X137973008Y-113362256D01*
X137990072Y-113189002D01*
X137990072Y-112663998D01*
X137973008Y-112490744D01*
X137922472Y-112324148D01*
X137840405Y-112170613D01*
X137729962Y-112036038D01*
X137703109Y-112014000D01*
X137729962Y-111991962D01*
X137837030Y-111861500D01*
X138482914Y-111861500D01*
X138486595Y-111868386D01*
X138597038Y-112002962D01*
X138684817Y-112075000D01*
X138597038Y-112147038D01*
X138486595Y-112281614D01*
X138404528Y-112435150D01*
X138353992Y-112601746D01*
X138336928Y-112775000D01*
X138336928Y-113275000D01*
X138353992Y-113448254D01*
X138404528Y-113614850D01*
X138486595Y-113768386D01*
X138597038Y-113902962D01*
X138731614Y-114013405D01*
X138885150Y-114095472D01*
X139051746Y-114146008D01*
X139225000Y-114163072D01*
X140175000Y-114163072D01*
X140348254Y-114146008D01*
X140514850Y-114095472D01*
X140668386Y-114013405D01*
X140802962Y-113902962D01*
X140899770Y-113785000D01*
X142132521Y-113785000D01*
X142178038Y-113840462D01*
X142312613Y-113950905D01*
X142466148Y-114032972D01*
X142632744Y-114083508D01*
X142805998Y-114100572D01*
X143706002Y-114100572D01*
X143879256Y-114083508D01*
X144045852Y-114032972D01*
X144199387Y-113950905D01*
X144333962Y-113840462D01*
X144375375Y-113790000D01*
X145315473Y-113790000D01*
X145324528Y-113819852D01*
X145406595Y-113973387D01*
X145517038Y-114107962D01*
X145651613Y-114218405D01*
X145805148Y-114300472D01*
X145971744Y-114351008D01*
X146144998Y-114368072D01*
X146670002Y-114368072D01*
X146843256Y-114351008D01*
X147009852Y-114300472D01*
X147163387Y-114218405D01*
X147297962Y-114107962D01*
X147320000Y-114081109D01*
X147342038Y-114107962D01*
X147476613Y-114218405D01*
X147630148Y-114300472D01*
X147796744Y-114351008D01*
X147969998Y-114368072D01*
X148495002Y-114368072D01*
X148668256Y-114351008D01*
X148834852Y-114300472D01*
X148988387Y-114218405D01*
X149122962Y-114107962D01*
X149233405Y-113973387D01*
X149315472Y-113819852D01*
X149324527Y-113790000D01*
X149727890Y-113790000D01*
X149744528Y-113844850D01*
X149826595Y-113998386D01*
X149937038Y-114132962D01*
X150071614Y-114243405D01*
X150225150Y-114325472D01*
X150391746Y-114376008D01*
X150565000Y-114393072D01*
X151065000Y-114393072D01*
X151238254Y-114376008D01*
X151404850Y-114325472D01*
X151558386Y-114243405D01*
X151692962Y-114132962D01*
X151765000Y-114045183D01*
X151837038Y-114132962D01*
X151971614Y-114243405D01*
X152125150Y-114325472D01*
X152291746Y-114376008D01*
X152465000Y-114393072D01*
X152965000Y-114393072D01*
X153138254Y-114376008D01*
X153304850Y-114325472D01*
X153458386Y-114243405D01*
X153592962Y-114132962D01*
X153703405Y-113998386D01*
X153785472Y-113844850D01*
X153836008Y-113678254D01*
X153853072Y-113505000D01*
X153853072Y-112555000D01*
X153836008Y-112381746D01*
X153785472Y-112215150D01*
X153703405Y-112061614D01*
X153592962Y-111927038D01*
X153475000Y-111830230D01*
X153475000Y-109438072D01*
X153885000Y-109438072D01*
X154009482Y-109425812D01*
X154129180Y-109389502D01*
X154239494Y-109330537D01*
X154336185Y-109251185D01*
X154415537Y-109154494D01*
X154474502Y-109044180D01*
X154510812Y-108924482D01*
X154523072Y-108800000D01*
X154523072Y-107100000D01*
X154510812Y-106975518D01*
X154474502Y-106855820D01*
X154415537Y-106745506D01*
X154336185Y-106648815D01*
X154239494Y-106569463D01*
X154129180Y-106510498D01*
X154048534Y-106486034D01*
X154132588Y-106410269D01*
X154306641Y-106176920D01*
X154431825Y-105914099D01*
X154476476Y-105766890D01*
X154355155Y-105537000D01*
X153162000Y-105537000D01*
X153162000Y-105557000D01*
X152908000Y-105557000D01*
X152908000Y-105537000D01*
X151714845Y-105537000D01*
X151593524Y-105766890D01*
X151638175Y-105914099D01*
X151763359Y-106176920D01*
X151937412Y-106410269D01*
X152021466Y-106486034D01*
X151940820Y-106510498D01*
X151830506Y-106569463D01*
X151733815Y-106648815D01*
X151654463Y-106745506D01*
X151595498Y-106855820D01*
X151559188Y-106975518D01*
X151546928Y-107100000D01*
X151546928Y-108800000D01*
X151559188Y-108924482D01*
X151595498Y-109044180D01*
X151654463Y-109154494D01*
X151733815Y-109251185D01*
X151830506Y-109330537D01*
X151940820Y-109389502D01*
X151955001Y-109393804D01*
X151955000Y-111830229D01*
X151837038Y-111927038D01*
X151765000Y-112014817D01*
X151692962Y-111927038D01*
X151558386Y-111816595D01*
X151404850Y-111734528D01*
X151238254Y-111683992D01*
X151065000Y-111666928D01*
X150565000Y-111666928D01*
X150391746Y-111683992D01*
X150225150Y-111734528D01*
X150071614Y-111816595D01*
X149937038Y-111927038D01*
X149826595Y-112061614D01*
X149744528Y-112215150D01*
X149727890Y-112270000D01*
X149324527Y-112270000D01*
X149315472Y-112240148D01*
X149233405Y-112086613D01*
X149122962Y-111952038D01*
X148988387Y-111841595D01*
X148834852Y-111759528D01*
X148668256Y-111708992D01*
X148495002Y-111691928D01*
X147969998Y-111691928D01*
X147796744Y-111708992D01*
X147630148Y-111759528D01*
X147476613Y-111841595D01*
X147342038Y-111952038D01*
X147320000Y-111978891D01*
X147302296Y-111957320D01*
X147344774Y-111928937D01*
X147488937Y-111784774D01*
X147602205Y-111615256D01*
X147680226Y-111426898D01*
X147720000Y-111226939D01*
X147720000Y-111023061D01*
X147680226Y-110823102D01*
X147616809Y-110670000D01*
X147988928Y-110670000D01*
X148001188Y-110794482D01*
X148037498Y-110914180D01*
X148096463Y-111024494D01*
X148175815Y-111121185D01*
X148272506Y-111200537D01*
X148382820Y-111259502D01*
X148502518Y-111295812D01*
X148627000Y-111308072D01*
X149066250Y-111305000D01*
X149225000Y-111146250D01*
X149225000Y-110297000D01*
X149479000Y-110297000D01*
X149479000Y-111146250D01*
X149637750Y-111305000D01*
X150077000Y-111308072D01*
X150201482Y-111295812D01*
X150321180Y-111259502D01*
X150431494Y-111200537D01*
X150528185Y-111121185D01*
X150607537Y-111024494D01*
X150666502Y-110914180D01*
X150702812Y-110794482D01*
X150715072Y-110670000D01*
X150712000Y-110455750D01*
X150553250Y-110297000D01*
X149479000Y-110297000D01*
X149225000Y-110297000D01*
X148150750Y-110297000D01*
X147992000Y-110455750D01*
X147988928Y-110670000D01*
X147616809Y-110670000D01*
X147602205Y-110634744D01*
X147488937Y-110465226D01*
X147445000Y-110421289D01*
X147445000Y-109349468D01*
X147461185Y-109336185D01*
X147540537Y-109239494D01*
X147599502Y-109129180D01*
X147635812Y-109009482D01*
X147648072Y-108885000D01*
X147648072Y-108881000D01*
X148067833Y-108881000D01*
X148138595Y-109013386D01*
X148249038Y-109147962D01*
X148255594Y-109153342D01*
X148175815Y-109218815D01*
X148096463Y-109315506D01*
X148037498Y-109425820D01*
X148001188Y-109545518D01*
X147988928Y-109670000D01*
X147992000Y-109884250D01*
X148150750Y-110043000D01*
X149225000Y-110043000D01*
X149225000Y-110023000D01*
X149479000Y-110023000D01*
X149479000Y-110043000D01*
X150553250Y-110043000D01*
X150712000Y-109884250D01*
X150715072Y-109670000D01*
X150702812Y-109545518D01*
X150666502Y-109425820D01*
X150607537Y-109315506D01*
X150528185Y-109218815D01*
X150448406Y-109153342D01*
X150454962Y-109147962D01*
X150565405Y-109013386D01*
X150647472Y-108859850D01*
X150698008Y-108693254D01*
X150715072Y-108520000D01*
X150715072Y-108020000D01*
X150698008Y-107846746D01*
X150647472Y-107680150D01*
X150565405Y-107526614D01*
X150454962Y-107392038D01*
X150320386Y-107281595D01*
X150166850Y-107199528D01*
X150000254Y-107148992D01*
X149827000Y-107131928D01*
X148877000Y-107131928D01*
X148703746Y-107148992D01*
X148537150Y-107199528D01*
X148383614Y-107281595D01*
X148286858Y-107361000D01*
X147648072Y-107361000D01*
X147648072Y-107357000D01*
X147635812Y-107232518D01*
X147599502Y-107112820D01*
X147540537Y-107002506D01*
X147461185Y-106905815D01*
X147364494Y-106826463D01*
X147254180Y-106767498D01*
X147134482Y-106731188D01*
X147010000Y-106718928D01*
X146360000Y-106718928D01*
X146235518Y-106731188D01*
X146115820Y-106767498D01*
X146050000Y-106802680D01*
X145984180Y-106767498D01*
X145864482Y-106731188D01*
X145740000Y-106718928D01*
X145090000Y-106718928D01*
X144965518Y-106731188D01*
X144845820Y-106767498D01*
X144780000Y-106802680D01*
X144714180Y-106767498D01*
X144594482Y-106731188D01*
X144470000Y-106718928D01*
X143820000Y-106718928D01*
X143695518Y-106731188D01*
X143575820Y-106767498D01*
X143510000Y-106802680D01*
X143444180Y-106767498D01*
X143324482Y-106731188D01*
X143200000Y-106718928D01*
X142550000Y-106718928D01*
X142547933Y-106719132D01*
X142101304Y-106272503D01*
X142077501Y-106243499D01*
X141961776Y-106148526D01*
X141829747Y-106077954D01*
X141686486Y-106034497D01*
X141574833Y-106023500D01*
X141574822Y-106023500D01*
X141537500Y-106019824D01*
X141500178Y-106023500D01*
X137837030Y-106023500D01*
X137729962Y-105893038D01*
X137595387Y-105782595D01*
X137441852Y-105700528D01*
X137275256Y-105649992D01*
X137102002Y-105632928D01*
X136201998Y-105632928D01*
X136028744Y-105649992D01*
X135862148Y-105700528D01*
X135708613Y-105782595D01*
X135574038Y-105893038D01*
X135463595Y-106027613D01*
X135381528Y-106181148D01*
X135330992Y-106347744D01*
X135313928Y-106520998D01*
X135313928Y-107046002D01*
X135330992Y-107219256D01*
X135381528Y-107385852D01*
X135463595Y-107539387D01*
X135574038Y-107673962D01*
X135600891Y-107696000D01*
X135574038Y-107718038D01*
X135463595Y-107852613D01*
X135445749Y-107886000D01*
X134549770Y-107886000D01*
X134452962Y-107768038D01*
X134446406Y-107762658D01*
X134526185Y-107697185D01*
X134605537Y-107600494D01*
X134664502Y-107490180D01*
X134700812Y-107370482D01*
X134713072Y-107246000D01*
X134710000Y-107031750D01*
X134551250Y-106873000D01*
X133477000Y-106873000D01*
X133477000Y-106893000D01*
X133223000Y-106893000D01*
X133223000Y-106873000D01*
X133203000Y-106873000D01*
X133203000Y-106619000D01*
X133223000Y-106619000D01*
X133223000Y-105769750D01*
X133477000Y-105769750D01*
X133477000Y-106619000D01*
X134551250Y-106619000D01*
X134710000Y-106460250D01*
X134713072Y-106246000D01*
X134700812Y-106121518D01*
X134664502Y-106001820D01*
X134605537Y-105891506D01*
X134526185Y-105794815D01*
X134429494Y-105715463D01*
X134319180Y-105656498D01*
X134199482Y-105620188D01*
X134075000Y-105607928D01*
X133635750Y-105611000D01*
X133477000Y-105769750D01*
X133223000Y-105769750D01*
X133064250Y-105611000D01*
X132625000Y-105607928D01*
X132500518Y-105620188D01*
X132380820Y-105656498D01*
X132270506Y-105715463D01*
X132173815Y-105794815D01*
X132094463Y-105891506D01*
X132035498Y-106001820D01*
X131999188Y-106121518D01*
X131990324Y-106211522D01*
X131439804Y-105661003D01*
X131416001Y-105631999D01*
X131300276Y-105537026D01*
X131168247Y-105466454D01*
X131048740Y-105430202D01*
X131083004Y-105257943D01*
X131083004Y-105054065D01*
X131063299Y-104955000D01*
X131986928Y-104955000D01*
X131999188Y-105079482D01*
X132035498Y-105199180D01*
X132094463Y-105309494D01*
X132173815Y-105406185D01*
X132270506Y-105485537D01*
X132380820Y-105544502D01*
X132500518Y-105580812D01*
X132625000Y-105593072D01*
X133064250Y-105590000D01*
X133223000Y-105431250D01*
X133223000Y-104582000D01*
X133477000Y-104582000D01*
X133477000Y-105431250D01*
X133635750Y-105590000D01*
X134075000Y-105593072D01*
X134199482Y-105580812D01*
X134319180Y-105544502D01*
X134429494Y-105485537D01*
X134526185Y-105406185D01*
X134605537Y-105309494D01*
X134664502Y-105199180D01*
X134700812Y-105079482D01*
X134713072Y-104955000D01*
X134710000Y-104740750D01*
X134551250Y-104582000D01*
X133477000Y-104582000D01*
X133223000Y-104582000D01*
X132148750Y-104582000D01*
X131990000Y-104740750D01*
X131986928Y-104955000D01*
X131063299Y-104955000D01*
X131043230Y-104854106D01*
X130965209Y-104665748D01*
X130851941Y-104496230D01*
X130707778Y-104352067D01*
X130538260Y-104238799D01*
X130349902Y-104160778D01*
X130149943Y-104121004D01*
X130087806Y-104121004D01*
X129833666Y-103866863D01*
X129841898Y-103865226D01*
X130030256Y-103787205D01*
X130199774Y-103673937D01*
X130343937Y-103529774D01*
X130457205Y-103360256D01*
X130475951Y-103315000D01*
X132150230Y-103315000D01*
X132247038Y-103432962D01*
X132253594Y-103438342D01*
X132173815Y-103503815D01*
X132094463Y-103600506D01*
X132035498Y-103710820D01*
X131999188Y-103830518D01*
X131986928Y-103955000D01*
X131990000Y-104169250D01*
X132148750Y-104328000D01*
X133223000Y-104328000D01*
X133223000Y-104308000D01*
X133477000Y-104308000D01*
X133477000Y-104328000D01*
X134551250Y-104328000D01*
X134710000Y-104169250D01*
X134713072Y-103955000D01*
X134700812Y-103830518D01*
X134664502Y-103710820D01*
X134605537Y-103600506D01*
X134526185Y-103503815D01*
X134446406Y-103438342D01*
X134452962Y-103432962D01*
X134549770Y-103315000D01*
X135433188Y-103315000D01*
X135463595Y-103371887D01*
X135574038Y-103506462D01*
X135600891Y-103528500D01*
X135574038Y-103550538D01*
X135463595Y-103685113D01*
X135381528Y-103838648D01*
X135330992Y-104005244D01*
X135313928Y-104178498D01*
X135313928Y-104703502D01*
X135330992Y-104876756D01*
X135381528Y-105043352D01*
X135463595Y-105196887D01*
X135574038Y-105331462D01*
X135708613Y-105441905D01*
X135862148Y-105523972D01*
X136028744Y-105574508D01*
X136201998Y-105591572D01*
X137102002Y-105591572D01*
X137275256Y-105574508D01*
X137441852Y-105523972D01*
X137595387Y-105441905D01*
X137729962Y-105331462D01*
X137837030Y-105201000D01*
X143379678Y-105201000D01*
X143417000Y-105204676D01*
X143454322Y-105201000D01*
X143454333Y-105201000D01*
X143565986Y-105190003D01*
X143709247Y-105146546D01*
X143841276Y-105075974D01*
X143957001Y-104981001D01*
X143980803Y-104951998D01*
X144656009Y-104276794D01*
X144685001Y-104253001D01*
X144708795Y-104224008D01*
X144708799Y-104224004D01*
X144779973Y-104137277D01*
X144779974Y-104137276D01*
X144829850Y-104043966D01*
X144845820Y-104052502D01*
X144965518Y-104088812D01*
X145090000Y-104101072D01*
X145740000Y-104101072D01*
X145864482Y-104088812D01*
X145984180Y-104052502D01*
X146050000Y-104017320D01*
X146115820Y-104052502D01*
X146235518Y-104088812D01*
X146360000Y-104101072D01*
X147010000Y-104101072D01*
X147134482Y-104088812D01*
X147254180Y-104052502D01*
X147364494Y-103993537D01*
X147461185Y-103914185D01*
X147540537Y-103817494D01*
X147599502Y-103707180D01*
X147635812Y-103587482D01*
X147648072Y-103463000D01*
X147648072Y-101935000D01*
X147635812Y-101810518D01*
X147599502Y-101690820D01*
X147540537Y-101580506D01*
X147461185Y-101483815D01*
X147445000Y-101470532D01*
X147445000Y-101002322D01*
X147448676Y-100964999D01*
X147445000Y-100927676D01*
X147445000Y-100927667D01*
X147434003Y-100816014D01*
X147390546Y-100672753D01*
X147319974Y-100540724D01*
X147296812Y-100512501D01*
X147248799Y-100453996D01*
X147248795Y-100453992D01*
X147225001Y-100424999D01*
X147196009Y-100401206D01*
X146557874Y-99763072D01*
X146670002Y-99763072D01*
X146843256Y-99746008D01*
X147009852Y-99695472D01*
X147163387Y-99613405D01*
X147297962Y-99502962D01*
X147320000Y-99476109D01*
X147342038Y-99502962D01*
X147476613Y-99613405D01*
X147630148Y-99695472D01*
X147796744Y-99746008D01*
X147969998Y-99763072D01*
X148495002Y-99763072D01*
X148668256Y-99746008D01*
X148834852Y-99695472D01*
X148988387Y-99613405D01*
X149122962Y-99502962D01*
X149233405Y-99368387D01*
X149315472Y-99214852D01*
X149324527Y-99185000D01*
X149727890Y-99185000D01*
X149744528Y-99239850D01*
X149826595Y-99393386D01*
X149937038Y-99527962D01*
X150071614Y-99638405D01*
X150225150Y-99720472D01*
X150391746Y-99771008D01*
X150565000Y-99788072D01*
X151065000Y-99788072D01*
X151238254Y-99771008D01*
X151404850Y-99720472D01*
X151558386Y-99638405D01*
X151692962Y-99527962D01*
X151765000Y-99440183D01*
X151837038Y-99527962D01*
X151955000Y-99624771D01*
X151955001Y-101849892D01*
X151881525Y-101923368D01*
X151719010Y-102166589D01*
X151607068Y-102436842D01*
X151550000Y-102723740D01*
X151550000Y-103016260D01*
X151607068Y-103303158D01*
X151719010Y-103573411D01*
X151881525Y-103816632D01*
X152088368Y-104023475D01*
X152270534Y-104145195D01*
X152153645Y-104214822D01*
X151937412Y-104409731D01*
X151763359Y-104643080D01*
X151638175Y-104905901D01*
X151593524Y-105053110D01*
X151714845Y-105283000D01*
X152908000Y-105283000D01*
X152908000Y-105263000D01*
X153162000Y-105263000D01*
X153162000Y-105283000D01*
X154355155Y-105283000D01*
X154476476Y-105053110D01*
X154431825Y-104905901D01*
X154306641Y-104643080D01*
X154132588Y-104409731D01*
X153916355Y-104214822D01*
X153799466Y-104145195D01*
X153981632Y-104023475D01*
X154188475Y-103816632D01*
X154350990Y-103573411D01*
X154462932Y-103303158D01*
X154520000Y-103016260D01*
X154520000Y-102723740D01*
X154462932Y-102436842D01*
X154350990Y-102166589D01*
X154188475Y-101923368D01*
X153981632Y-101716525D01*
X153738411Y-101554010D01*
X153475000Y-101444902D01*
X153475000Y-99624770D01*
X153592962Y-99527962D01*
X153703405Y-99393386D01*
X153785472Y-99239850D01*
X153836008Y-99073254D01*
X153853072Y-98900000D01*
X153853072Y-97950000D01*
X153836008Y-97776746D01*
X153785472Y-97610150D01*
X153703405Y-97456614D01*
X153592962Y-97322038D01*
X153458386Y-97211595D01*
X153304850Y-97129528D01*
X153138254Y-97078992D01*
X152965000Y-97061928D01*
X152465000Y-97061928D01*
X152291746Y-97078992D01*
X152125150Y-97129528D01*
X151971614Y-97211595D01*
X151837038Y-97322038D01*
X151765000Y-97409817D01*
X151692962Y-97322038D01*
X151558386Y-97211595D01*
X151404850Y-97129528D01*
X151238254Y-97078992D01*
X151065000Y-97061928D01*
X150565000Y-97061928D01*
X150391746Y-97078992D01*
X150225150Y-97129528D01*
X150071614Y-97211595D01*
X149937038Y-97322038D01*
X149826595Y-97456614D01*
X149744528Y-97610150D01*
X149727890Y-97665000D01*
X149324527Y-97665000D01*
X149315472Y-97635148D01*
X149233405Y-97481613D01*
X149122962Y-97347038D01*
X148988387Y-97236595D01*
X148834852Y-97154528D01*
X148668256Y-97103992D01*
X148495002Y-97086928D01*
X147969998Y-97086928D01*
X147796744Y-97103992D01*
X147630148Y-97154528D01*
X147476613Y-97236595D01*
X147342038Y-97347038D01*
X147320000Y-97373891D01*
X147297962Y-97347038D01*
X147163387Y-97236595D01*
X147009852Y-97154528D01*
X146843256Y-97103992D01*
X146670002Y-97086928D01*
X146144998Y-97086928D01*
X145971744Y-97103992D01*
X145805148Y-97154528D01*
X145651613Y-97236595D01*
X145517038Y-97347038D01*
X145483832Y-97387500D01*
X144441030Y-97387500D01*
X144333962Y-97257038D01*
X144199387Y-97146595D01*
X144045852Y-97064528D01*
X143879256Y-97013992D01*
X143706002Y-96996928D01*
X142805998Y-96996928D01*
X142632744Y-97013992D01*
X142466148Y-97064528D01*
X142312613Y-97146595D01*
X142178038Y-97257038D01*
X142101746Y-97350000D01*
X140899770Y-97350000D01*
X140802962Y-97232038D01*
X140668386Y-97121595D01*
X140514850Y-97039528D01*
X140348254Y-96988992D01*
X140175000Y-96971928D01*
X139225000Y-96971928D01*
X139051746Y-96988992D01*
X138885150Y-97039528D01*
X138731614Y-97121595D01*
X138597038Y-97232038D01*
X138486595Y-97366614D01*
X138404528Y-97520150D01*
X138353992Y-97686746D01*
X138336928Y-97860000D01*
X138336928Y-98360000D01*
X138353992Y-98533254D01*
X138404528Y-98699850D01*
X138486595Y-98853386D01*
X138597038Y-98987962D01*
X138684817Y-99060000D01*
X138597038Y-99132038D01*
X138531005Y-99212500D01*
X137837030Y-99212500D01*
X137729962Y-99082038D01*
X137703109Y-99060000D01*
X137729962Y-99037962D01*
X137840405Y-98903387D01*
X137922472Y-98749852D01*
X137973008Y-98583256D01*
X137990072Y-98410002D01*
X137990072Y-97884998D01*
X137973008Y-97711744D01*
X137922472Y-97545148D01*
X137840405Y-97391613D01*
X137729962Y-97257038D01*
X137595387Y-97146595D01*
X137441852Y-97064528D01*
X137275256Y-97013992D01*
X137102002Y-96996928D01*
X136201998Y-96996928D01*
X136028744Y-97013992D01*
X135862148Y-97064528D01*
X135708613Y-97146595D01*
X135574038Y-97257038D01*
X135497746Y-97350000D01*
X134549770Y-97350000D01*
X134452962Y-97232038D01*
X134318386Y-97121595D01*
X134164850Y-97039528D01*
X133998254Y-96988992D01*
X133825000Y-96971928D01*
X132875000Y-96971928D01*
X132701746Y-96988992D01*
X132535150Y-97039528D01*
X132381614Y-97121595D01*
X132247038Y-97232038D01*
X132150230Y-97350000D01*
X131430768Y-97350000D01*
X131469774Y-97323937D01*
X131613937Y-97179774D01*
X131727205Y-97010256D01*
X131805226Y-96821898D01*
X131845000Y-96621939D01*
X131845000Y-96418061D01*
X131805226Y-96218102D01*
X131727205Y-96029744D01*
X131613937Y-95860226D01*
X131469774Y-95716063D01*
X131300256Y-95602795D01*
X131111898Y-95524774D01*
X130911939Y-95485000D01*
X130849802Y-95485000D01*
X129746304Y-94381503D01*
X129722501Y-94352499D01*
X129606776Y-94257526D01*
X129474747Y-94186954D01*
X129331486Y-94143497D01*
X129219833Y-94132500D01*
X129219822Y-94132500D01*
X129182500Y-94128824D01*
X129145178Y-94132500D01*
X127677030Y-94132500D01*
X127569962Y-94002038D01*
X127543109Y-93980000D01*
X127569962Y-93957962D01*
X127680405Y-93823387D01*
X127762472Y-93669852D01*
X127813008Y-93503256D01*
X127830072Y-93330002D01*
X127830072Y-92804998D01*
X127813008Y-92631744D01*
X127762472Y-92465148D01*
X127680405Y-92311613D01*
X127569962Y-92177038D01*
X127435387Y-92066595D01*
X127281852Y-91984528D01*
X127252000Y-91975473D01*
X127252000Y-91287087D01*
X127366482Y-91275812D01*
X127486180Y-91239502D01*
X127596494Y-91180537D01*
X127693185Y-91101185D01*
X127772537Y-91004494D01*
X127831502Y-90894180D01*
X127842000Y-90859573D01*
X127852498Y-90894180D01*
X127911463Y-91004494D01*
X127990815Y-91101185D01*
X128087506Y-91180537D01*
X128197820Y-91239502D01*
X128317518Y-91275812D01*
X128442000Y-91288072D01*
X128906250Y-91285000D01*
X129065000Y-91126250D01*
X129065000Y-89027000D01*
X129319000Y-89027000D01*
X129319000Y-91126250D01*
X129477750Y-91285000D01*
X129942000Y-91288072D01*
X130066482Y-91275812D01*
X130186180Y-91239502D01*
X130296494Y-91180537D01*
X130393185Y-91101185D01*
X130472537Y-91004494D01*
X130531502Y-90894180D01*
X130567812Y-90774482D01*
X130580072Y-90650000D01*
X130577000Y-89185750D01*
X130418250Y-89027000D01*
X129319000Y-89027000D01*
X129065000Y-89027000D01*
X129045000Y-89027000D01*
X129045000Y-88773000D01*
X129065000Y-88773000D01*
X129065000Y-88753000D01*
X129319000Y-88753000D01*
X129319000Y-88773000D01*
X130418250Y-88773000D01*
X130577000Y-88614250D01*
X130580072Y-87150000D01*
X130577314Y-87122000D01*
X154813000Y-87122000D01*
X154813000Y-121158000D01*
G37*
%TD.AperFunction*%
D19*
X131990359Y-108361161D02*
X131986928Y-108396000D01*
X131986928Y-108605564D01*
X131979494Y-108599463D01*
X131869180Y-108540498D01*
X131749482Y-108504188D01*
X131625000Y-108491928D01*
X131410750Y-108495000D01*
X131252000Y-108653750D01*
X131252000Y-109728000D01*
X132101250Y-109728000D01*
X132260000Y-109569250D01*
X132260241Y-109534797D01*
X132381614Y-109634405D01*
X132535150Y-109716472D01*
X132701746Y-109767008D01*
X132875000Y-109784072D01*
X133825000Y-109784072D01*
X133998254Y-109767008D01*
X134164850Y-109716472D01*
X134318386Y-109634405D01*
X134452962Y-109523962D01*
X134549770Y-109406000D01*
X135497746Y-109406000D01*
X135574038Y-109498962D01*
X135708613Y-109609405D01*
X135862148Y-109691472D01*
X136028744Y-109742008D01*
X136201998Y-109759072D01*
X137102002Y-109759072D01*
X137275256Y-109742008D01*
X137441852Y-109691472D01*
X137595387Y-109609405D01*
X137729962Y-109498962D01*
X137840405Y-109364387D01*
X137922472Y-109210852D01*
X137973008Y-109044256D01*
X137990072Y-108871002D01*
X137990072Y-108345998D01*
X137973008Y-108172744D01*
X137922472Y-108006148D01*
X137840405Y-107852613D01*
X137729962Y-107718038D01*
X137703109Y-107696000D01*
X137729962Y-107673962D01*
X137837030Y-107543500D01*
X141222699Y-107543500D01*
X141911928Y-108232730D01*
X141911928Y-108885000D01*
X141924188Y-109009482D01*
X141960498Y-109129180D01*
X142019463Y-109239494D01*
X142098815Y-109336185D01*
X142195506Y-109415537D01*
X142305820Y-109474502D01*
X142425518Y-109510812D01*
X142550000Y-109523072D01*
X143200000Y-109523072D01*
X143324482Y-109510812D01*
X143385000Y-109492454D01*
X143385000Y-109921198D01*
X143331770Y-109974428D01*
X142805998Y-109974428D01*
X142632744Y-109991492D01*
X142466148Y-110042028D01*
X142312613Y-110124095D01*
X142178038Y-110234538D01*
X142070970Y-110365000D01*
X140899770Y-110365000D01*
X140802962Y-110247038D01*
X140668386Y-110136595D01*
X140514850Y-110054528D01*
X140348254Y-110003992D01*
X140175000Y-109986928D01*
X139225000Y-109986928D01*
X139051746Y-110003992D01*
X138885150Y-110054528D01*
X138731614Y-110136595D01*
X138597038Y-110247038D01*
X138519516Y-110341500D01*
X137837030Y-110341500D01*
X137729962Y-110211038D01*
X137595387Y-110100595D01*
X137441852Y-110018528D01*
X137275256Y-109967992D01*
X137102002Y-109950928D01*
X136201998Y-109950928D01*
X136028744Y-109967992D01*
X135862148Y-110018528D01*
X135708613Y-110100595D01*
X135574038Y-110211038D01*
X135463595Y-110345613D01*
X135381528Y-110499148D01*
X135330992Y-110665744D01*
X135313928Y-110838998D01*
X135313928Y-111364002D01*
X135330992Y-111537256D01*
X135381528Y-111703852D01*
X135463595Y-111857387D01*
X135574038Y-111991962D01*
X135600891Y-112014000D01*
X135574038Y-112036038D01*
X135463595Y-112170613D01*
X135445749Y-112204000D01*
X134549770Y-112204000D01*
X134452962Y-112086038D01*
X134446406Y-112080658D01*
X134526185Y-112015185D01*
X134605537Y-111918494D01*
X134664502Y-111808180D01*
X134700812Y-111688482D01*
X134713072Y-111564000D01*
X134710000Y-111349750D01*
X134551250Y-111191000D01*
X133477000Y-111191000D01*
X133477000Y-111211000D01*
X133223000Y-111211000D01*
X133223000Y-111191000D01*
X133203000Y-111191000D01*
X133203000Y-110937000D01*
X133223000Y-110937000D01*
X133223000Y-110087750D01*
X133477000Y-110087750D01*
X133477000Y-110937000D01*
X134551250Y-110937000D01*
X134710000Y-110778250D01*
X134713072Y-110564000D01*
X134700812Y-110439518D01*
X134664502Y-110319820D01*
X134605537Y-110209506D01*
X134526185Y-110112815D01*
X134429494Y-110033463D01*
X134319180Y-109974498D01*
X134199482Y-109938188D01*
X134075000Y-109925928D01*
X133635750Y-109929000D01*
X133477000Y-110087750D01*
X133223000Y-110087750D01*
X133064250Y-109929000D01*
X132625000Y-109925928D01*
X132500518Y-109938188D01*
X132380820Y-109974498D01*
X132270506Y-110033463D01*
X132205809Y-110086559D01*
X132101250Y-109982000D01*
X131252000Y-109982000D01*
X131252000Y-111056250D01*
X131410750Y-111215000D01*
X131625000Y-111218072D01*
X131749482Y-111205812D01*
X131869180Y-111169502D01*
X131979494Y-111110537D01*
X131990000Y-111101915D01*
X131990000Y-111191002D01*
X132148748Y-111191002D01*
X131990000Y-111349750D01*
X131986928Y-111564000D01*
X131999188Y-111688482D01*
X132035498Y-111808180D01*
X132094463Y-111918494D01*
X132173815Y-112015185D01*
X132253594Y-112080658D01*
X132247038Y-112086038D01*
X132136595Y-112220614D01*
X132054528Y-112374150D01*
X132003992Y-112540746D01*
X131988028Y-112702829D01*
X131167769Y-112702829D01*
X131170226Y-112696898D01*
X131210000Y-112496939D01*
X131210000Y-112293061D01*
X131170226Y-112093102D01*
X131092205Y-111904744D01*
X130978937Y-111735226D01*
X130834774Y-111591063D01*
X130665256Y-111477795D01*
X130476898Y-111399774D01*
X130276939Y-111360000D01*
X130214801Y-111360000D01*
X129985000Y-111130199D01*
X129985000Y-111054770D01*
X130102962Y-110957962D01*
X130108342Y-110951406D01*
X130173815Y-111031185D01*
X130270506Y-111110537D01*
X130380820Y-111169502D01*
X130500518Y-111205812D01*
X130625000Y-111218072D01*
X130839250Y-111215000D01*
X130998000Y-111056250D01*
X130998000Y-109982000D01*
X130978000Y-109982000D01*
X130978000Y-109728000D01*
X130998000Y-109728000D01*
X130998000Y-108653750D01*
X130839250Y-108495000D01*
X130714500Y-108493211D01*
X130851937Y-108355774D01*
X130965205Y-108186256D01*
X131043226Y-107997898D01*
X131083000Y-107797939D01*
X131083000Y-107594061D01*
X131048173Y-107418975D01*
X131990359Y-108361161D01*
%TA.AperFunction,Conductor*%
D20*
G36*
X131990359Y-108361161D02*
G01*
X131986928Y-108396000D01*
X131986928Y-108605564D01*
X131979494Y-108599463D01*
X131869180Y-108540498D01*
X131749482Y-108504188D01*
X131625000Y-108491928D01*
X131410750Y-108495000D01*
X131252000Y-108653750D01*
X131252000Y-109728000D01*
X132101250Y-109728000D01*
X132260000Y-109569250D01*
X132260241Y-109534797D01*
X132381614Y-109634405D01*
X132535150Y-109716472D01*
X132701746Y-109767008D01*
X132875000Y-109784072D01*
X133825000Y-109784072D01*
X133998254Y-109767008D01*
X134164850Y-109716472D01*
X134318386Y-109634405D01*
X134452962Y-109523962D01*
X134549770Y-109406000D01*
X135497746Y-109406000D01*
X135574038Y-109498962D01*
X135708613Y-109609405D01*
X135862148Y-109691472D01*
X136028744Y-109742008D01*
X136201998Y-109759072D01*
X137102002Y-109759072D01*
X137275256Y-109742008D01*
X137441852Y-109691472D01*
X137595387Y-109609405D01*
X137729962Y-109498962D01*
X137840405Y-109364387D01*
X137922472Y-109210852D01*
X137973008Y-109044256D01*
X137990072Y-108871002D01*
X137990072Y-108345998D01*
X137973008Y-108172744D01*
X137922472Y-108006148D01*
X137840405Y-107852613D01*
X137729962Y-107718038D01*
X137703109Y-107696000D01*
X137729962Y-107673962D01*
X137837030Y-107543500D01*
X141222699Y-107543500D01*
X141911928Y-108232730D01*
X141911928Y-108885000D01*
X141924188Y-109009482D01*
X141960498Y-109129180D01*
X142019463Y-109239494D01*
X142098815Y-109336185D01*
X142195506Y-109415537D01*
X142305820Y-109474502D01*
X142425518Y-109510812D01*
X142550000Y-109523072D01*
X143200000Y-109523072D01*
X143324482Y-109510812D01*
X143385000Y-109492454D01*
X143385000Y-109921198D01*
X143331770Y-109974428D01*
X142805998Y-109974428D01*
X142632744Y-109991492D01*
X142466148Y-110042028D01*
X142312613Y-110124095D01*
X142178038Y-110234538D01*
X142070970Y-110365000D01*
X140899770Y-110365000D01*
X140802962Y-110247038D01*
X140668386Y-110136595D01*
X140514850Y-110054528D01*
X140348254Y-110003992D01*
X140175000Y-109986928D01*
X139225000Y-109986928D01*
X139051746Y-110003992D01*
X138885150Y-110054528D01*
X138731614Y-110136595D01*
X138597038Y-110247038D01*
X138519516Y-110341500D01*
X137837030Y-110341500D01*
X137729962Y-110211038D01*
X137595387Y-110100595D01*
X137441852Y-110018528D01*
X137275256Y-109967992D01*
X137102002Y-109950928D01*
X136201998Y-109950928D01*
X136028744Y-109967992D01*
X135862148Y-110018528D01*
X135708613Y-110100595D01*
X135574038Y-110211038D01*
X135463595Y-110345613D01*
X135381528Y-110499148D01*
X135330992Y-110665744D01*
X135313928Y-110838998D01*
X135313928Y-111364002D01*
X135330992Y-111537256D01*
X135381528Y-111703852D01*
X135463595Y-111857387D01*
X135574038Y-111991962D01*
X135600891Y-112014000D01*
X135574038Y-112036038D01*
X135463595Y-112170613D01*
X135445749Y-112204000D01*
X134549770Y-112204000D01*
X134452962Y-112086038D01*
X134446406Y-112080658D01*
X134526185Y-112015185D01*
X134605537Y-111918494D01*
X134664502Y-111808180D01*
X134700812Y-111688482D01*
X134713072Y-111564000D01*
X134710000Y-111349750D01*
X134551250Y-111191000D01*
X133477000Y-111191000D01*
X133477000Y-111211000D01*
X133223000Y-111211000D01*
X133223000Y-111191000D01*
X133203000Y-111191000D01*
X133203000Y-110937000D01*
X133223000Y-110937000D01*
X133223000Y-110087750D01*
X133477000Y-110087750D01*
X133477000Y-110937000D01*
X134551250Y-110937000D01*
X134710000Y-110778250D01*
X134713072Y-110564000D01*
X134700812Y-110439518D01*
X134664502Y-110319820D01*
X134605537Y-110209506D01*
X134526185Y-110112815D01*
X134429494Y-110033463D01*
X134319180Y-109974498D01*
X134199482Y-109938188D01*
X134075000Y-109925928D01*
X133635750Y-109929000D01*
X133477000Y-110087750D01*
X133223000Y-110087750D01*
X133064250Y-109929000D01*
X132625000Y-109925928D01*
X132500518Y-109938188D01*
X132380820Y-109974498D01*
X132270506Y-110033463D01*
X132205809Y-110086559D01*
X132101250Y-109982000D01*
X131252000Y-109982000D01*
X131252000Y-111056250D01*
X131410750Y-111215000D01*
X131625000Y-111218072D01*
X131749482Y-111205812D01*
X131869180Y-111169502D01*
X131979494Y-111110537D01*
X131990000Y-111101915D01*
X131990000Y-111191002D01*
X132148748Y-111191002D01*
X131990000Y-111349750D01*
X131986928Y-111564000D01*
X131999188Y-111688482D01*
X132035498Y-111808180D01*
X132094463Y-111918494D01*
X132173815Y-112015185D01*
X132253594Y-112080658D01*
X132247038Y-112086038D01*
X132136595Y-112220614D01*
X132054528Y-112374150D01*
X132003992Y-112540746D01*
X131988028Y-112702829D01*
X131167769Y-112702829D01*
X131170226Y-112696898D01*
X131210000Y-112496939D01*
X131210000Y-112293061D01*
X131170226Y-112093102D01*
X131092205Y-111904744D01*
X130978937Y-111735226D01*
X130834774Y-111591063D01*
X130665256Y-111477795D01*
X130476898Y-111399774D01*
X130276939Y-111360000D01*
X130214801Y-111360000D01*
X129985000Y-111130199D01*
X129985000Y-111054770D01*
X130102962Y-110957962D01*
X130108342Y-110951406D01*
X130173815Y-111031185D01*
X130270506Y-111110537D01*
X130380820Y-111169502D01*
X130500518Y-111205812D01*
X130625000Y-111218072D01*
X130839250Y-111215000D01*
X130998000Y-111056250D01*
X130998000Y-109982000D01*
X130978000Y-109982000D01*
X130978000Y-109728000D01*
X130998000Y-109728000D01*
X130998000Y-108653750D01*
X130839250Y-108495000D01*
X130714500Y-108493211D01*
X130851937Y-108355774D01*
X130965205Y-108186256D01*
X131043226Y-107997898D01*
X131083000Y-107797939D01*
X131083000Y-107594061D01*
X131048173Y-107418975D01*
X131990359Y-108361161D01*
G37*
%TD.AperFunction*%
D19*
X122118750Y-102993000D02*
X122606928Y-102993000D01*
X122606928Y-103247000D01*
X122118750Y-103247000D01*
X121960000Y-103405750D01*
X121957002Y-103835285D01*
X121967366Y-103959939D01*
X122001849Y-104080175D01*
X122059126Y-104191375D01*
X122136997Y-104289263D01*
X122232469Y-104370078D01*
X122341873Y-104430715D01*
X122461004Y-104468844D01*
X122563250Y-104480000D01*
X122722000Y-104321250D01*
X122722000Y-104208678D01*
X122793815Y-104296185D01*
X122890506Y-104375537D01*
X123000820Y-104434502D01*
X123044503Y-104447753D01*
X123076750Y-104480000D01*
X123141773Y-104472905D01*
X123245000Y-104483072D01*
X123360001Y-104483072D01*
X123360001Y-105667668D01*
X123356324Y-105705000D01*
X123360001Y-105742333D01*
X123360800Y-105750448D01*
X123337397Y-105760142D01*
X123167879Y-105873410D01*
X123120545Y-105920744D01*
X121950013Y-104750212D01*
X121950013Y-102950910D01*
X122076660Y-102950910D01*
X122118750Y-102993000D01*
%TA.AperFunction,Conductor*%
D20*
G36*
X122118750Y-102993000D02*
G01*
X122606928Y-102993000D01*
X122606928Y-103247000D01*
X122118750Y-103247000D01*
X121960000Y-103405750D01*
X121957002Y-103835285D01*
X121967366Y-103959939D01*
X122001849Y-104080175D01*
X122059126Y-104191375D01*
X122136997Y-104289263D01*
X122232469Y-104370078D01*
X122341873Y-104430715D01*
X122461004Y-104468844D01*
X122563250Y-104480000D01*
X122722000Y-104321250D01*
X122722000Y-104208678D01*
X122793815Y-104296185D01*
X122890506Y-104375537D01*
X123000820Y-104434502D01*
X123044503Y-104447753D01*
X123076750Y-104480000D01*
X123141773Y-104472905D01*
X123245000Y-104483072D01*
X123360001Y-104483072D01*
X123360001Y-105667668D01*
X123356324Y-105705000D01*
X123360001Y-105742333D01*
X123360800Y-105750448D01*
X123337397Y-105760142D01*
X123167879Y-105873410D01*
X123120545Y-105920744D01*
X121950013Y-104750212D01*
X121950013Y-102950910D01*
X122076660Y-102950910D01*
X122118750Y-102993000D01*
G37*
%TD.AperFunction*%
D19*
X111227928Y-87150000D02*
X111231000Y-88614250D01*
X111389750Y-88773000D01*
X112489000Y-88773000D01*
X112489000Y-88753000D01*
X112743000Y-88753000D01*
X112743000Y-88773000D01*
X112763000Y-88773000D01*
X112763000Y-89027000D01*
X112743000Y-89027000D01*
X112743000Y-91126250D01*
X112901750Y-91285000D01*
X113366000Y-91288072D01*
X113490482Y-91275812D01*
X113610180Y-91239502D01*
X113720494Y-91180537D01*
X113817185Y-91101185D01*
X113896537Y-91004494D01*
X113955502Y-90894180D01*
X113966000Y-90859573D01*
X113976498Y-90894180D01*
X114035463Y-91004494D01*
X114114815Y-91101185D01*
X114211506Y-91180537D01*
X114321820Y-91239502D01*
X114441518Y-91275812D01*
X114556000Y-91287087D01*
X114556000Y-91975472D01*
X114526148Y-91984528D01*
X114372613Y-92066595D01*
X114238038Y-92177038D01*
X114127595Y-92311613D01*
X114045528Y-92465148D01*
X113994992Y-92631744D01*
X113977928Y-92804998D01*
X113977928Y-93330002D01*
X113994992Y-93503256D01*
X114045528Y-93669852D01*
X114127595Y-93823387D01*
X114238038Y-93957962D01*
X114264891Y-93980000D01*
X114238038Y-94002038D01*
X114127595Y-94136613D01*
X114045528Y-94290148D01*
X113994992Y-94456744D01*
X113977928Y-94629998D01*
X113977928Y-95155002D01*
X113994992Y-95328256D01*
X114045528Y-95494852D01*
X114127595Y-95648387D01*
X114238038Y-95782962D01*
X114372613Y-95893405D01*
X114526148Y-95975472D01*
X114692744Y-96026008D01*
X114865998Y-96043072D01*
X115288271Y-96043072D01*
X118345000Y-99099802D01*
X118345000Y-99161939D01*
X118384774Y-99361898D01*
X118462795Y-99550256D01*
X118576063Y-99719774D01*
X118720226Y-99863937D01*
X118889744Y-99977205D01*
X119078102Y-100055226D01*
X119278061Y-100095000D01*
X119481939Y-100095000D01*
X119681898Y-100055226D01*
X119870256Y-99977205D01*
X120039774Y-99863937D01*
X120183937Y-99719774D01*
X120297205Y-99550256D01*
X120375226Y-99361898D01*
X120415000Y-99161939D01*
X120415000Y-98958061D01*
X120375226Y-98758102D01*
X120297205Y-98569744D01*
X120183937Y-98400226D01*
X120039774Y-98256063D01*
X119870256Y-98142795D01*
X119681898Y-98064774D01*
X119481939Y-98025000D01*
X119419802Y-98025000D01*
X116644723Y-95249922D01*
X116654072Y-95155002D01*
X116654072Y-94629998D01*
X116637008Y-94456744D01*
X116586472Y-94290148D01*
X116504405Y-94136613D01*
X116393962Y-94002038D01*
X116367109Y-93980000D01*
X116393962Y-93957962D01*
X116504405Y-93823387D01*
X116586472Y-93669852D01*
X116637008Y-93503256D01*
X116654072Y-93330002D01*
X116654072Y-92804998D01*
X116637008Y-92631744D01*
X116586472Y-92465148D01*
X116504405Y-92311613D01*
X116393962Y-92177038D01*
X116259387Y-92066595D01*
X116105852Y-91984528D01*
X116076000Y-91975473D01*
X116076000Y-91287087D01*
X116190482Y-91275812D01*
X116310180Y-91239502D01*
X116420494Y-91180537D01*
X116517185Y-91101185D01*
X116596537Y-91004494D01*
X116655502Y-90894180D01*
X116666000Y-90859573D01*
X116676498Y-90894180D01*
X116735463Y-91004494D01*
X116814815Y-91101185D01*
X116911506Y-91180537D01*
X117021820Y-91239502D01*
X117141518Y-91275812D01*
X117266000Y-91288072D01*
X117730250Y-91285000D01*
X117889000Y-91126250D01*
X117889000Y-89027000D01*
X118143000Y-89027000D01*
X118143000Y-91126250D01*
X118301750Y-91285000D01*
X118766000Y-91288072D01*
X118890482Y-91275812D01*
X119010180Y-91239502D01*
X119120494Y-91180537D01*
X119217185Y-91101185D01*
X119296537Y-91004494D01*
X119355502Y-90894180D01*
X119391812Y-90774482D01*
X119404072Y-90650000D01*
X122403928Y-90650000D01*
X122416188Y-90774482D01*
X122452498Y-90894180D01*
X122511463Y-91004494D01*
X122590815Y-91101185D01*
X122687506Y-91180537D01*
X122797820Y-91239502D01*
X122917518Y-91275812D01*
X123042000Y-91288072D01*
X123506250Y-91285000D01*
X123665000Y-91126250D01*
X123665000Y-89027000D01*
X122565750Y-89027000D01*
X122407000Y-89185750D01*
X122403928Y-90650000D01*
X119404072Y-90650000D01*
X119401000Y-89185750D01*
X119242250Y-89027000D01*
X118143000Y-89027000D01*
X117889000Y-89027000D01*
X117869000Y-89027000D01*
X117869000Y-88773000D01*
X117889000Y-88773000D01*
X117889000Y-88753000D01*
X118143000Y-88753000D01*
X118143000Y-88773000D01*
X119242250Y-88773000D01*
X119401000Y-88614250D01*
X119404072Y-87150000D01*
X119401314Y-87122000D01*
X122406686Y-87122000D01*
X122403928Y-87150000D01*
X122407000Y-88614250D01*
X122565750Y-88773000D01*
X123665000Y-88773000D01*
X123665000Y-88753000D01*
X123919000Y-88753000D01*
X123919000Y-88773000D01*
X123939000Y-88773000D01*
X123939000Y-89027000D01*
X123919000Y-89027000D01*
X123919000Y-91126250D01*
X124077750Y-91285000D01*
X124542000Y-91288072D01*
X124666482Y-91275812D01*
X124786180Y-91239502D01*
X124896494Y-91180537D01*
X124993185Y-91101185D01*
X125072537Y-91004494D01*
X125131502Y-90894180D01*
X125142000Y-90859573D01*
X125152498Y-90894180D01*
X125211463Y-91004494D01*
X125290815Y-91101185D01*
X125387506Y-91180537D01*
X125497820Y-91239502D01*
X125617518Y-91275812D01*
X125732000Y-91287087D01*
X125732000Y-91975472D01*
X125702148Y-91984528D01*
X125548613Y-92066595D01*
X125414038Y-92177038D01*
X125303595Y-92311613D01*
X125221528Y-92465148D01*
X125170992Y-92631744D01*
X125153928Y-92804998D01*
X125153928Y-93330002D01*
X125170992Y-93503256D01*
X125221528Y-93669852D01*
X125303595Y-93823387D01*
X125414038Y-93957962D01*
X125440891Y-93980000D01*
X125414038Y-94002038D01*
X125303595Y-94136613D01*
X125221528Y-94290148D01*
X125170992Y-94456744D01*
X125153928Y-94629998D01*
X125153928Y-95155002D01*
X125170992Y-95328256D01*
X125221528Y-95494852D01*
X125303595Y-95648387D01*
X125414038Y-95782962D01*
X125548613Y-95893405D01*
X125702148Y-95975472D01*
X125868744Y-96026008D01*
X126041998Y-96043072D01*
X126942002Y-96043072D01*
X127115256Y-96026008D01*
X127281852Y-95975472D01*
X127435387Y-95893405D01*
X127569962Y-95782962D01*
X127677030Y-95652500D01*
X128867699Y-95652500D01*
X129775000Y-96559802D01*
X129775000Y-96621939D01*
X129814774Y-96821898D01*
X129892795Y-97010256D01*
X130006063Y-97179774D01*
X130150226Y-97323937D01*
X130189232Y-97350000D01*
X126882300Y-97350000D01*
X126844977Y-97346324D01*
X126807654Y-97350000D01*
X126807645Y-97350000D01*
X126695992Y-97360997D01*
X126572369Y-97398497D01*
X126552731Y-97404454D01*
X126420701Y-97475026D01*
X126375008Y-97512526D01*
X126304977Y-97569999D01*
X126281179Y-97598997D01*
X124125188Y-99754989D01*
X121772333Y-99754989D01*
X121735010Y-99751313D01*
X121697687Y-99754989D01*
X121697678Y-99754989D01*
X121586025Y-99765986D01*
X121442764Y-99809443D01*
X121310735Y-99880015D01*
X121195010Y-99974988D01*
X121171212Y-100003986D01*
X120229000Y-100946199D01*
X120200002Y-100969997D01*
X120176204Y-100998995D01*
X120176203Y-100998996D01*
X120105028Y-101085722D01*
X120034456Y-101217752D01*
X120020430Y-101263991D01*
X119991612Y-101358997D01*
X119991000Y-101361013D01*
X119976326Y-101509998D01*
X119980003Y-101547330D01*
X119980003Y-101835000D01*
X119913061Y-101835000D01*
X119713102Y-101874774D01*
X119524744Y-101952795D01*
X119355226Y-102066063D01*
X119211063Y-102210226D01*
X119097795Y-102379744D01*
X119019774Y-102568102D01*
X118980000Y-102768061D01*
X118980000Y-102830199D01*
X118511498Y-103298701D01*
X118482500Y-103322499D01*
X118458702Y-103351497D01*
X118458701Y-103351498D01*
X118387526Y-103438224D01*
X118324861Y-103555460D01*
X118266613Y-103586595D01*
X118132038Y-103697038D01*
X118110000Y-103723891D01*
X118087962Y-103697038D01*
X117953387Y-103586595D01*
X117799852Y-103504528D01*
X117633256Y-103453992D01*
X117460002Y-103436928D01*
X116934998Y-103436928D01*
X116761744Y-103453992D01*
X116595148Y-103504528D01*
X116441613Y-103586595D01*
X116307038Y-103697038D01*
X116196595Y-103831613D01*
X116114528Y-103985148D01*
X116105473Y-104015000D01*
X115319605Y-104015000D01*
X115261185Y-103943815D01*
X115164494Y-103864463D01*
X115054180Y-103805498D01*
X114934482Y-103769188D01*
X114810000Y-103756928D01*
X113432500Y-103756928D01*
X113432500Y-101769030D01*
X113562962Y-101661962D01*
X113673405Y-101527387D01*
X113755472Y-101373852D01*
X113806008Y-101207256D01*
X113823072Y-101034002D01*
X113823072Y-100133998D01*
X113806008Y-99960744D01*
X113755472Y-99794148D01*
X113673405Y-99640613D01*
X113562962Y-99506038D01*
X113428387Y-99395595D01*
X113274852Y-99313528D01*
X113108256Y-99262992D01*
X112935002Y-99245928D01*
X112409998Y-99245928D01*
X112236744Y-99262992D01*
X112070148Y-99313528D01*
X111916613Y-99395595D01*
X111835363Y-99462276D01*
X111811185Y-99432815D01*
X111714494Y-99353463D01*
X111604180Y-99294498D01*
X111484482Y-99258188D01*
X111360000Y-99245928D01*
X111133250Y-99249000D01*
X110974500Y-99407750D01*
X110974500Y-100457000D01*
X110994500Y-100457000D01*
X110994500Y-100711000D01*
X110974500Y-100711000D01*
X110974500Y-101760250D01*
X111133250Y-101919000D01*
X111360000Y-101922072D01*
X111484482Y-101909812D01*
X111604180Y-101873502D01*
X111714494Y-101814537D01*
X111811185Y-101735185D01*
X111835363Y-101705724D01*
X111912500Y-101769030D01*
X111912501Y-104044180D01*
X111910537Y-104040506D01*
X111831185Y-103943815D01*
X111734494Y-103864463D01*
X111624180Y-103805498D01*
X111504482Y-103769188D01*
X111380000Y-103756928D01*
X109980000Y-103756928D01*
X109855518Y-103769188D01*
X109735820Y-103805498D01*
X109625506Y-103864463D01*
X109528815Y-103943815D01*
X109470395Y-104015000D01*
X106528072Y-104015000D01*
X106528072Y-103898000D01*
X106515812Y-103773518D01*
X106479502Y-103653820D01*
X106420537Y-103543506D01*
X106341185Y-103446815D01*
X106244494Y-103367463D01*
X106134180Y-103308498D01*
X106099573Y-103298000D01*
X106134180Y-103287502D01*
X106244494Y-103228537D01*
X106341185Y-103149185D01*
X106420537Y-103052494D01*
X106479502Y-102942180D01*
X106497881Y-102881592D01*
X106528226Y-102911937D01*
X106697744Y-103025205D01*
X106886102Y-103103226D01*
X107086061Y-103143000D01*
X107289939Y-103143000D01*
X107489898Y-103103226D01*
X107678256Y-103025205D01*
X107847774Y-102911937D01*
X107991937Y-102767774D01*
X108105205Y-102598256D01*
X108183226Y-102409898D01*
X108223000Y-102209939D01*
X108223000Y-102006061D01*
X108183226Y-101806102D01*
X108105205Y-101617744D01*
X107991937Y-101448226D01*
X107847774Y-101304063D01*
X107817748Y-101284000D01*
X109696928Y-101284000D01*
X109709188Y-101408482D01*
X109745498Y-101528180D01*
X109804463Y-101638494D01*
X109883815Y-101735185D01*
X109980506Y-101814537D01*
X110090820Y-101873502D01*
X110210518Y-101909812D01*
X110335000Y-101922072D01*
X110561750Y-101919000D01*
X110720500Y-101760250D01*
X110720500Y-100711000D01*
X109858750Y-100711000D01*
X109700000Y-100869750D01*
X109696928Y-101284000D01*
X107817748Y-101284000D01*
X107678256Y-101190795D01*
X107489898Y-101112774D01*
X107289939Y-101073000D01*
X107086061Y-101073000D01*
X106886102Y-101112774D01*
X106697744Y-101190795D01*
X106528226Y-101304063D01*
X106528072Y-101304217D01*
X106528072Y-101198000D01*
X106515812Y-101073518D01*
X106479502Y-100953820D01*
X106420537Y-100843506D01*
X106341185Y-100746815D01*
X106244494Y-100667463D01*
X106134180Y-100608498D01*
X106014482Y-100572188D01*
X105890000Y-100559928D01*
X102390000Y-100559928D01*
X102362000Y-100562686D01*
X102362000Y-99884000D01*
X109696928Y-99884000D01*
X109700000Y-100298250D01*
X109858750Y-100457000D01*
X110720500Y-100457000D01*
X110720500Y-99407750D01*
X110561750Y-99249000D01*
X110335000Y-99245928D01*
X110210518Y-99258188D01*
X110090820Y-99294498D01*
X109980506Y-99353463D01*
X109883815Y-99432815D01*
X109804463Y-99529506D01*
X109745498Y-99639820D01*
X109709188Y-99759518D01*
X109696928Y-99884000D01*
X102362000Y-99884000D01*
X102362000Y-90650000D01*
X111227928Y-90650000D01*
X111240188Y-90774482D01*
X111276498Y-90894180D01*
X111335463Y-91004494D01*
X111414815Y-91101185D01*
X111511506Y-91180537D01*
X111621820Y-91239502D01*
X111741518Y-91275812D01*
X111866000Y-91288072D01*
X112330250Y-91285000D01*
X112489000Y-91126250D01*
X112489000Y-89027000D01*
X111389750Y-89027000D01*
X111231000Y-89185750D01*
X111227928Y-90650000D01*
X102362000Y-90650000D01*
X102362000Y-87122000D01*
X111230686Y-87122000D01*
X111227928Y-87150000D01*
%TA.AperFunction,Conductor*%
D20*
G36*
X111227928Y-87150000D02*
G01*
X111231000Y-88614250D01*
X111389750Y-88773000D01*
X112489000Y-88773000D01*
X112489000Y-88753000D01*
X112743000Y-88753000D01*
X112743000Y-88773000D01*
X112763000Y-88773000D01*
X112763000Y-89027000D01*
X112743000Y-89027000D01*
X112743000Y-91126250D01*
X112901750Y-91285000D01*
X113366000Y-91288072D01*
X113490482Y-91275812D01*
X113610180Y-91239502D01*
X113720494Y-91180537D01*
X113817185Y-91101185D01*
X113896537Y-91004494D01*
X113955502Y-90894180D01*
X113966000Y-90859573D01*
X113976498Y-90894180D01*
X114035463Y-91004494D01*
X114114815Y-91101185D01*
X114211506Y-91180537D01*
X114321820Y-91239502D01*
X114441518Y-91275812D01*
X114556000Y-91287087D01*
X114556000Y-91975472D01*
X114526148Y-91984528D01*
X114372613Y-92066595D01*
X114238038Y-92177038D01*
X114127595Y-92311613D01*
X114045528Y-92465148D01*
X113994992Y-92631744D01*
X113977928Y-92804998D01*
X113977928Y-93330002D01*
X113994992Y-93503256D01*
X114045528Y-93669852D01*
X114127595Y-93823387D01*
X114238038Y-93957962D01*
X114264891Y-93980000D01*
X114238038Y-94002038D01*
X114127595Y-94136613D01*
X114045528Y-94290148D01*
X113994992Y-94456744D01*
X113977928Y-94629998D01*
X113977928Y-95155002D01*
X113994992Y-95328256D01*
X114045528Y-95494852D01*
X114127595Y-95648387D01*
X114238038Y-95782962D01*
X114372613Y-95893405D01*
X114526148Y-95975472D01*
X114692744Y-96026008D01*
X114865998Y-96043072D01*
X115288271Y-96043072D01*
X118345000Y-99099802D01*
X118345000Y-99161939D01*
X118384774Y-99361898D01*
X118462795Y-99550256D01*
X118576063Y-99719774D01*
X118720226Y-99863937D01*
X118889744Y-99977205D01*
X119078102Y-100055226D01*
X119278061Y-100095000D01*
X119481939Y-100095000D01*
X119681898Y-100055226D01*
X119870256Y-99977205D01*
X120039774Y-99863937D01*
X120183937Y-99719774D01*
X120297205Y-99550256D01*
X120375226Y-99361898D01*
X120415000Y-99161939D01*
X120415000Y-98958061D01*
X120375226Y-98758102D01*
X120297205Y-98569744D01*
X120183937Y-98400226D01*
X120039774Y-98256063D01*
X119870256Y-98142795D01*
X119681898Y-98064774D01*
X119481939Y-98025000D01*
X119419802Y-98025000D01*
X116644723Y-95249922D01*
X116654072Y-95155002D01*
X116654072Y-94629998D01*
X116637008Y-94456744D01*
X116586472Y-94290148D01*
X116504405Y-94136613D01*
X116393962Y-94002038D01*
X116367109Y-93980000D01*
X116393962Y-93957962D01*
X116504405Y-93823387D01*
X116586472Y-93669852D01*
X116637008Y-93503256D01*
X116654072Y-93330002D01*
X116654072Y-92804998D01*
X116637008Y-92631744D01*
X116586472Y-92465148D01*
X116504405Y-92311613D01*
X116393962Y-92177038D01*
X116259387Y-92066595D01*
X116105852Y-91984528D01*
X116076000Y-91975473D01*
X116076000Y-91287087D01*
X116190482Y-91275812D01*
X116310180Y-91239502D01*
X116420494Y-91180537D01*
X116517185Y-91101185D01*
X116596537Y-91004494D01*
X116655502Y-90894180D01*
X116666000Y-90859573D01*
X116676498Y-90894180D01*
X116735463Y-91004494D01*
X116814815Y-91101185D01*
X116911506Y-91180537D01*
X117021820Y-91239502D01*
X117141518Y-91275812D01*
X117266000Y-91288072D01*
X117730250Y-91285000D01*
X117889000Y-91126250D01*
X117889000Y-89027000D01*
X118143000Y-89027000D01*
X118143000Y-91126250D01*
X118301750Y-91285000D01*
X118766000Y-91288072D01*
X118890482Y-91275812D01*
X119010180Y-91239502D01*
X119120494Y-91180537D01*
X119217185Y-91101185D01*
X119296537Y-91004494D01*
X119355502Y-90894180D01*
X119391812Y-90774482D01*
X119404072Y-90650000D01*
X122403928Y-90650000D01*
X122416188Y-90774482D01*
X122452498Y-90894180D01*
X122511463Y-91004494D01*
X122590815Y-91101185D01*
X122687506Y-91180537D01*
X122797820Y-91239502D01*
X122917518Y-91275812D01*
X123042000Y-91288072D01*
X123506250Y-91285000D01*
X123665000Y-91126250D01*
X123665000Y-89027000D01*
X122565750Y-89027000D01*
X122407000Y-89185750D01*
X122403928Y-90650000D01*
X119404072Y-90650000D01*
X119401000Y-89185750D01*
X119242250Y-89027000D01*
X118143000Y-89027000D01*
X117889000Y-89027000D01*
X117869000Y-89027000D01*
X117869000Y-88773000D01*
X117889000Y-88773000D01*
X117889000Y-88753000D01*
X118143000Y-88753000D01*
X118143000Y-88773000D01*
X119242250Y-88773000D01*
X119401000Y-88614250D01*
X119404072Y-87150000D01*
X119401314Y-87122000D01*
X122406686Y-87122000D01*
X122403928Y-87150000D01*
X122407000Y-88614250D01*
X122565750Y-88773000D01*
X123665000Y-88773000D01*
X123665000Y-88753000D01*
X123919000Y-88753000D01*
X123919000Y-88773000D01*
X123939000Y-88773000D01*
X123939000Y-89027000D01*
X123919000Y-89027000D01*
X123919000Y-91126250D01*
X124077750Y-91285000D01*
X124542000Y-91288072D01*
X124666482Y-91275812D01*
X124786180Y-91239502D01*
X124896494Y-91180537D01*
X124993185Y-91101185D01*
X125072537Y-91004494D01*
X125131502Y-90894180D01*
X125142000Y-90859573D01*
X125152498Y-90894180D01*
X125211463Y-91004494D01*
X125290815Y-91101185D01*
X125387506Y-91180537D01*
X125497820Y-91239502D01*
X125617518Y-91275812D01*
X125732000Y-91287087D01*
X125732000Y-91975472D01*
X125702148Y-91984528D01*
X125548613Y-92066595D01*
X125414038Y-92177038D01*
X125303595Y-92311613D01*
X125221528Y-92465148D01*
X125170992Y-92631744D01*
X125153928Y-92804998D01*
X125153928Y-93330002D01*
X125170992Y-93503256D01*
X125221528Y-93669852D01*
X125303595Y-93823387D01*
X125414038Y-93957962D01*
X125440891Y-93980000D01*
X125414038Y-94002038D01*
X125303595Y-94136613D01*
X125221528Y-94290148D01*
X125170992Y-94456744D01*
X125153928Y-94629998D01*
X125153928Y-95155002D01*
X125170992Y-95328256D01*
X125221528Y-95494852D01*
X125303595Y-95648387D01*
X125414038Y-95782962D01*
X125548613Y-95893405D01*
X125702148Y-95975472D01*
X125868744Y-96026008D01*
X126041998Y-96043072D01*
X126942002Y-96043072D01*
X127115256Y-96026008D01*
X127281852Y-95975472D01*
X127435387Y-95893405D01*
X127569962Y-95782962D01*
X127677030Y-95652500D01*
X128867699Y-95652500D01*
X129775000Y-96559802D01*
X129775000Y-96621939D01*
X129814774Y-96821898D01*
X129892795Y-97010256D01*
X130006063Y-97179774D01*
X130150226Y-97323937D01*
X130189232Y-97350000D01*
X126882300Y-97350000D01*
X126844977Y-97346324D01*
X126807654Y-97350000D01*
X126807645Y-97350000D01*
X126695992Y-97360997D01*
X126572369Y-97398497D01*
X126552731Y-97404454D01*
X126420701Y-97475026D01*
X126375008Y-97512526D01*
X126304977Y-97569999D01*
X126281179Y-97598997D01*
X124125188Y-99754989D01*
X121772333Y-99754989D01*
X121735010Y-99751313D01*
X121697687Y-99754989D01*
X121697678Y-99754989D01*
X121586025Y-99765986D01*
X121442764Y-99809443D01*
X121310735Y-99880015D01*
X121195010Y-99974988D01*
X121171212Y-100003986D01*
X120229000Y-100946199D01*
X120200002Y-100969997D01*
X120176204Y-100998995D01*
X120176203Y-100998996D01*
X120105028Y-101085722D01*
X120034456Y-101217752D01*
X120020430Y-101263991D01*
X119991612Y-101358997D01*
X119991000Y-101361013D01*
X119976326Y-101509998D01*
X119980003Y-101547330D01*
X119980003Y-101835000D01*
X119913061Y-101835000D01*
X119713102Y-101874774D01*
X119524744Y-101952795D01*
X119355226Y-102066063D01*
X119211063Y-102210226D01*
X119097795Y-102379744D01*
X119019774Y-102568102D01*
X118980000Y-102768061D01*
X118980000Y-102830199D01*
X118511498Y-103298701D01*
X118482500Y-103322499D01*
X118458702Y-103351497D01*
X118458701Y-103351498D01*
X118387526Y-103438224D01*
X118324861Y-103555460D01*
X118266613Y-103586595D01*
X118132038Y-103697038D01*
X118110000Y-103723891D01*
X118087962Y-103697038D01*
X117953387Y-103586595D01*
X117799852Y-103504528D01*
X117633256Y-103453992D01*
X117460002Y-103436928D01*
X116934998Y-103436928D01*
X116761744Y-103453992D01*
X116595148Y-103504528D01*
X116441613Y-103586595D01*
X116307038Y-103697038D01*
X116196595Y-103831613D01*
X116114528Y-103985148D01*
X116105473Y-104015000D01*
X115319605Y-104015000D01*
X115261185Y-103943815D01*
X115164494Y-103864463D01*
X115054180Y-103805498D01*
X114934482Y-103769188D01*
X114810000Y-103756928D01*
X113432500Y-103756928D01*
X113432500Y-101769030D01*
X113562962Y-101661962D01*
X113673405Y-101527387D01*
X113755472Y-101373852D01*
X113806008Y-101207256D01*
X113823072Y-101034002D01*
X113823072Y-100133998D01*
X113806008Y-99960744D01*
X113755472Y-99794148D01*
X113673405Y-99640613D01*
X113562962Y-99506038D01*
X113428387Y-99395595D01*
X113274852Y-99313528D01*
X113108256Y-99262992D01*
X112935002Y-99245928D01*
X112409998Y-99245928D01*
X112236744Y-99262992D01*
X112070148Y-99313528D01*
X111916613Y-99395595D01*
X111835363Y-99462276D01*
X111811185Y-99432815D01*
X111714494Y-99353463D01*
X111604180Y-99294498D01*
X111484482Y-99258188D01*
X111360000Y-99245928D01*
X111133250Y-99249000D01*
X110974500Y-99407750D01*
X110974500Y-100457000D01*
X110994500Y-100457000D01*
X110994500Y-100711000D01*
X110974500Y-100711000D01*
X110974500Y-101760250D01*
X111133250Y-101919000D01*
X111360000Y-101922072D01*
X111484482Y-101909812D01*
X111604180Y-101873502D01*
X111714494Y-101814537D01*
X111811185Y-101735185D01*
X111835363Y-101705724D01*
X111912500Y-101769030D01*
X111912501Y-104044180D01*
X111910537Y-104040506D01*
X111831185Y-103943815D01*
X111734494Y-103864463D01*
X111624180Y-103805498D01*
X111504482Y-103769188D01*
X111380000Y-103756928D01*
X109980000Y-103756928D01*
X109855518Y-103769188D01*
X109735820Y-103805498D01*
X109625506Y-103864463D01*
X109528815Y-103943815D01*
X109470395Y-104015000D01*
X106528072Y-104015000D01*
X106528072Y-103898000D01*
X106515812Y-103773518D01*
X106479502Y-103653820D01*
X106420537Y-103543506D01*
X106341185Y-103446815D01*
X106244494Y-103367463D01*
X106134180Y-103308498D01*
X106099573Y-103298000D01*
X106134180Y-103287502D01*
X106244494Y-103228537D01*
X106341185Y-103149185D01*
X106420537Y-103052494D01*
X106479502Y-102942180D01*
X106497881Y-102881592D01*
X106528226Y-102911937D01*
X106697744Y-103025205D01*
X106886102Y-103103226D01*
X107086061Y-103143000D01*
X107289939Y-103143000D01*
X107489898Y-103103226D01*
X107678256Y-103025205D01*
X107847774Y-102911937D01*
X107991937Y-102767774D01*
X108105205Y-102598256D01*
X108183226Y-102409898D01*
X108223000Y-102209939D01*
X108223000Y-102006061D01*
X108183226Y-101806102D01*
X108105205Y-101617744D01*
X107991937Y-101448226D01*
X107847774Y-101304063D01*
X107817748Y-101284000D01*
X109696928Y-101284000D01*
X109709188Y-101408482D01*
X109745498Y-101528180D01*
X109804463Y-101638494D01*
X109883815Y-101735185D01*
X109980506Y-101814537D01*
X110090820Y-101873502D01*
X110210518Y-101909812D01*
X110335000Y-101922072D01*
X110561750Y-101919000D01*
X110720500Y-101760250D01*
X110720500Y-100711000D01*
X109858750Y-100711000D01*
X109700000Y-100869750D01*
X109696928Y-101284000D01*
X107817748Y-101284000D01*
X107678256Y-101190795D01*
X107489898Y-101112774D01*
X107289939Y-101073000D01*
X107086061Y-101073000D01*
X106886102Y-101112774D01*
X106697744Y-101190795D01*
X106528226Y-101304063D01*
X106528072Y-101304217D01*
X106528072Y-101198000D01*
X106515812Y-101073518D01*
X106479502Y-100953820D01*
X106420537Y-100843506D01*
X106341185Y-100746815D01*
X106244494Y-100667463D01*
X106134180Y-100608498D01*
X106014482Y-100572188D01*
X105890000Y-100559928D01*
X102390000Y-100559928D01*
X102362000Y-100562686D01*
X102362000Y-99884000D01*
X109696928Y-99884000D01*
X109700000Y-100298250D01*
X109858750Y-100457000D01*
X110720500Y-100457000D01*
X110720500Y-99407750D01*
X110561750Y-99249000D01*
X110335000Y-99245928D01*
X110210518Y-99258188D01*
X110090820Y-99294498D01*
X109980506Y-99353463D01*
X109883815Y-99432815D01*
X109804463Y-99529506D01*
X109745498Y-99639820D01*
X109709188Y-99759518D01*
X109696928Y-99884000D01*
X102362000Y-99884000D01*
X102362000Y-90650000D01*
X111227928Y-90650000D01*
X111240188Y-90774482D01*
X111276498Y-90894180D01*
X111335463Y-91004494D01*
X111414815Y-91101185D01*
X111511506Y-91180537D01*
X111621820Y-91239502D01*
X111741518Y-91275812D01*
X111866000Y-91288072D01*
X112330250Y-91285000D01*
X112489000Y-91126250D01*
X112489000Y-89027000D01*
X111389750Y-89027000D01*
X111231000Y-89185750D01*
X111227928Y-90650000D01*
X102362000Y-90650000D01*
X102362000Y-87122000D01*
X111230686Y-87122000D01*
X111227928Y-87150000D01*
G37*
%TD.AperFunction*%
D19*
X132247038Y-98987962D02*
X132253594Y-98993342D01*
X132173815Y-99058815D01*
X132094463Y-99155506D01*
X132035498Y-99265820D01*
X131999188Y-99385518D01*
X131986928Y-99510000D01*
X131990000Y-99724250D01*
X132148750Y-99883000D01*
X133223000Y-99883000D01*
X133223000Y-99863000D01*
X133477000Y-99863000D01*
X133477000Y-99883000D01*
X134551250Y-99883000D01*
X134710000Y-99724250D01*
X134713072Y-99510000D01*
X134700812Y-99385518D01*
X134664502Y-99265820D01*
X134605537Y-99155506D01*
X134526185Y-99058815D01*
X134446406Y-98993342D01*
X134452962Y-98987962D01*
X134549770Y-98870000D01*
X135445749Y-98870000D01*
X135463595Y-98903387D01*
X135574038Y-99037962D01*
X135600891Y-99060000D01*
X135574038Y-99082038D01*
X135463595Y-99216613D01*
X135381528Y-99370148D01*
X135330992Y-99536744D01*
X135313928Y-99709998D01*
X135313928Y-100235002D01*
X135330992Y-100408256D01*
X135381528Y-100574852D01*
X135463595Y-100728387D01*
X135574038Y-100862962D01*
X135708613Y-100973405D01*
X135862148Y-101055472D01*
X136028744Y-101106008D01*
X136201998Y-101123072D01*
X137102002Y-101123072D01*
X137275256Y-101106008D01*
X137441852Y-101055472D01*
X137595387Y-100973405D01*
X137729962Y-100862962D01*
X137837030Y-100732500D01*
X138475431Y-100732500D01*
X138486595Y-100753386D01*
X138597038Y-100887962D01*
X138731614Y-100998405D01*
X138885150Y-101080472D01*
X139051746Y-101131008D01*
X139225000Y-101148072D01*
X140175000Y-101148072D01*
X140348254Y-101131008D01*
X140514850Y-101080472D01*
X140668386Y-100998405D01*
X140802962Y-100887962D01*
X140899770Y-100770000D01*
X142101746Y-100770000D01*
X142178038Y-100862962D01*
X142312613Y-100973405D01*
X142466148Y-101055472D01*
X142632744Y-101106008D01*
X142805998Y-101123072D01*
X143706002Y-101123072D01*
X143879256Y-101106008D01*
X144045852Y-101055472D01*
X144131103Y-101009904D01*
X144418126Y-101296928D01*
X143820000Y-101296928D01*
X143695518Y-101309188D01*
X143575820Y-101345498D01*
X143510000Y-101380680D01*
X143444180Y-101345498D01*
X143324482Y-101309188D01*
X143200000Y-101296928D01*
X143160750Y-101300000D01*
X143002000Y-101458750D01*
X143002000Y-102572000D01*
X143022000Y-102572000D01*
X143022000Y-102826000D01*
X143002000Y-102826000D01*
X143002000Y-102846000D01*
X142748000Y-102846000D01*
X142748000Y-102826000D01*
X142073750Y-102826000D01*
X141915000Y-102984750D01*
X141911928Y-103463000D01*
X141924188Y-103587482D01*
X141952556Y-103681000D01*
X137837030Y-103681000D01*
X137729962Y-103550538D01*
X137703109Y-103528500D01*
X137729962Y-103506462D01*
X137840405Y-103371887D01*
X137922472Y-103218352D01*
X137973008Y-103051756D01*
X137990072Y-102878502D01*
X137990072Y-102353498D01*
X137973008Y-102180244D01*
X137922472Y-102013648D01*
X137880434Y-101935000D01*
X141911928Y-101935000D01*
X141915000Y-102413250D01*
X142073750Y-102572000D01*
X142748000Y-102572000D01*
X142748000Y-101458750D01*
X142589250Y-101300000D01*
X142550000Y-101296928D01*
X142425518Y-101309188D01*
X142305820Y-101345498D01*
X142195506Y-101404463D01*
X142098815Y-101483815D01*
X142019463Y-101580506D01*
X141960498Y-101690820D01*
X141924188Y-101810518D01*
X141911928Y-101935000D01*
X137880434Y-101935000D01*
X137840405Y-101860113D01*
X137729962Y-101725538D01*
X137595387Y-101615095D01*
X137441852Y-101533028D01*
X137275256Y-101482492D01*
X137102002Y-101465428D01*
X136201998Y-101465428D01*
X136028744Y-101482492D01*
X135862148Y-101533028D01*
X135708613Y-101615095D01*
X135574038Y-101725538D01*
X135517032Y-101795000D01*
X134549770Y-101795000D01*
X134452962Y-101677038D01*
X134318386Y-101566595D01*
X134164850Y-101484528D01*
X133998254Y-101433992D01*
X133825000Y-101416928D01*
X132875000Y-101416928D01*
X132701746Y-101433992D01*
X132535150Y-101484528D01*
X132381614Y-101566595D01*
X132247038Y-101677038D01*
X132150230Y-101795000D01*
X129892322Y-101795000D01*
X129854999Y-101791324D01*
X129817676Y-101795000D01*
X129817667Y-101795000D01*
X129706014Y-101805997D01*
X129610402Y-101835000D01*
X129438061Y-101835000D01*
X129238102Y-101874774D01*
X129049744Y-101952795D01*
X128880226Y-102066063D01*
X128736063Y-102210226D01*
X128622795Y-102379744D01*
X128544774Y-102568102D01*
X128543754Y-102573231D01*
X128436276Y-102485026D01*
X128304247Y-102414454D01*
X128232855Y-102392798D01*
X128220812Y-102270518D01*
X128184502Y-102150820D01*
X128125537Y-102040506D01*
X128046185Y-101943815D01*
X127949494Y-101864463D01*
X127839180Y-101805498D01*
X127719482Y-101769188D01*
X127656816Y-101763016D01*
X127715257Y-101621929D01*
X127755031Y-101421970D01*
X127755031Y-101218092D01*
X127715257Y-101018133D01*
X127637236Y-100829775D01*
X127523968Y-100660257D01*
X127379805Y-100516094D01*
X127370685Y-100510000D01*
X131986928Y-100510000D01*
X131999188Y-100634482D01*
X132035498Y-100754180D01*
X132094463Y-100864494D01*
X132173815Y-100961185D01*
X132270506Y-101040537D01*
X132380820Y-101099502D01*
X132500518Y-101135812D01*
X132625000Y-101148072D01*
X133064250Y-101145000D01*
X133223000Y-100986250D01*
X133223000Y-100137000D01*
X133477000Y-100137000D01*
X133477000Y-100986250D01*
X133635750Y-101145000D01*
X134075000Y-101148072D01*
X134199482Y-101135812D01*
X134319180Y-101099502D01*
X134429494Y-101040537D01*
X134526185Y-100961185D01*
X134605537Y-100864494D01*
X134664502Y-100754180D01*
X134700812Y-100634482D01*
X134713072Y-100510000D01*
X134710000Y-100295750D01*
X134551250Y-100137000D01*
X133477000Y-100137000D01*
X133223000Y-100137000D01*
X132148750Y-100137000D01*
X131990000Y-100295750D01*
X131986928Y-100510000D01*
X127370685Y-100510000D01*
X127210287Y-100402826D01*
X127021929Y-100324805D01*
X126821970Y-100285031D01*
X126618092Y-100285031D01*
X126418133Y-100324805D01*
X126229775Y-100402826D01*
X126060257Y-100516094D01*
X125916094Y-100660257D01*
X125813541Y-100813739D01*
X125514790Y-100514989D01*
X127159780Y-98870000D01*
X132150230Y-98870000D01*
X132247038Y-98987962D01*
%TA.AperFunction,Conductor*%
D20*
G36*
X132247038Y-98987962D02*
G01*
X132253594Y-98993342D01*
X132173815Y-99058815D01*
X132094463Y-99155506D01*
X132035498Y-99265820D01*
X131999188Y-99385518D01*
X131986928Y-99510000D01*
X131990000Y-99724250D01*
X132148750Y-99883000D01*
X133223000Y-99883000D01*
X133223000Y-99863000D01*
X133477000Y-99863000D01*
X133477000Y-99883000D01*
X134551250Y-99883000D01*
X134710000Y-99724250D01*
X134713072Y-99510000D01*
X134700812Y-99385518D01*
X134664502Y-99265820D01*
X134605537Y-99155506D01*
X134526185Y-99058815D01*
X134446406Y-98993342D01*
X134452962Y-98987962D01*
X134549770Y-98870000D01*
X135445749Y-98870000D01*
X135463595Y-98903387D01*
X135574038Y-99037962D01*
X135600891Y-99060000D01*
X135574038Y-99082038D01*
X135463595Y-99216613D01*
X135381528Y-99370148D01*
X135330992Y-99536744D01*
X135313928Y-99709998D01*
X135313928Y-100235002D01*
X135330992Y-100408256D01*
X135381528Y-100574852D01*
X135463595Y-100728387D01*
X135574038Y-100862962D01*
X135708613Y-100973405D01*
X135862148Y-101055472D01*
X136028744Y-101106008D01*
X136201998Y-101123072D01*
X137102002Y-101123072D01*
X137275256Y-101106008D01*
X137441852Y-101055472D01*
X137595387Y-100973405D01*
X137729962Y-100862962D01*
X137837030Y-100732500D01*
X138475431Y-100732500D01*
X138486595Y-100753386D01*
X138597038Y-100887962D01*
X138731614Y-100998405D01*
X138885150Y-101080472D01*
X139051746Y-101131008D01*
X139225000Y-101148072D01*
X140175000Y-101148072D01*
X140348254Y-101131008D01*
X140514850Y-101080472D01*
X140668386Y-100998405D01*
X140802962Y-100887962D01*
X140899770Y-100770000D01*
X142101746Y-100770000D01*
X142178038Y-100862962D01*
X142312613Y-100973405D01*
X142466148Y-101055472D01*
X142632744Y-101106008D01*
X142805998Y-101123072D01*
X143706002Y-101123072D01*
X143879256Y-101106008D01*
X144045852Y-101055472D01*
X144131103Y-101009904D01*
X144418126Y-101296928D01*
X143820000Y-101296928D01*
X143695518Y-101309188D01*
X143575820Y-101345498D01*
X143510000Y-101380680D01*
X143444180Y-101345498D01*
X143324482Y-101309188D01*
X143200000Y-101296928D01*
X143160750Y-101300000D01*
X143002000Y-101458750D01*
X143002000Y-102572000D01*
X143022000Y-102572000D01*
X143022000Y-102826000D01*
X143002000Y-102826000D01*
X143002000Y-102846000D01*
X142748000Y-102846000D01*
X142748000Y-102826000D01*
X142073750Y-102826000D01*
X141915000Y-102984750D01*
X141911928Y-103463000D01*
X141924188Y-103587482D01*
X141952556Y-103681000D01*
X137837030Y-103681000D01*
X137729962Y-103550538D01*
X137703109Y-103528500D01*
X137729962Y-103506462D01*
X137840405Y-103371887D01*
X137922472Y-103218352D01*
X137973008Y-103051756D01*
X137990072Y-102878502D01*
X137990072Y-102353498D01*
X137973008Y-102180244D01*
X137922472Y-102013648D01*
X137880434Y-101935000D01*
X141911928Y-101935000D01*
X141915000Y-102413250D01*
X142073750Y-102572000D01*
X142748000Y-102572000D01*
X142748000Y-101458750D01*
X142589250Y-101300000D01*
X142550000Y-101296928D01*
X142425518Y-101309188D01*
X142305820Y-101345498D01*
X142195506Y-101404463D01*
X142098815Y-101483815D01*
X142019463Y-101580506D01*
X141960498Y-101690820D01*
X141924188Y-101810518D01*
X141911928Y-101935000D01*
X137880434Y-101935000D01*
X137840405Y-101860113D01*
X137729962Y-101725538D01*
X137595387Y-101615095D01*
X137441852Y-101533028D01*
X137275256Y-101482492D01*
X137102002Y-101465428D01*
X136201998Y-101465428D01*
X136028744Y-101482492D01*
X135862148Y-101533028D01*
X135708613Y-101615095D01*
X135574038Y-101725538D01*
X135517032Y-101795000D01*
X134549770Y-101795000D01*
X134452962Y-101677038D01*
X134318386Y-101566595D01*
X134164850Y-101484528D01*
X133998254Y-101433992D01*
X133825000Y-101416928D01*
X132875000Y-101416928D01*
X132701746Y-101433992D01*
X132535150Y-101484528D01*
X132381614Y-101566595D01*
X132247038Y-101677038D01*
X132150230Y-101795000D01*
X129892322Y-101795000D01*
X129854999Y-101791324D01*
X129817676Y-101795000D01*
X129817667Y-101795000D01*
X129706014Y-101805997D01*
X129610402Y-101835000D01*
X129438061Y-101835000D01*
X129238102Y-101874774D01*
X129049744Y-101952795D01*
X128880226Y-102066063D01*
X128736063Y-102210226D01*
X128622795Y-102379744D01*
X128544774Y-102568102D01*
X128543754Y-102573231D01*
X128436276Y-102485026D01*
X128304247Y-102414454D01*
X128232855Y-102392798D01*
X128220812Y-102270518D01*
X128184502Y-102150820D01*
X128125537Y-102040506D01*
X128046185Y-101943815D01*
X127949494Y-101864463D01*
X127839180Y-101805498D01*
X127719482Y-101769188D01*
X127656816Y-101763016D01*
X127715257Y-101621929D01*
X127755031Y-101421970D01*
X127755031Y-101218092D01*
X127715257Y-101018133D01*
X127637236Y-100829775D01*
X127523968Y-100660257D01*
X127379805Y-100516094D01*
X127370685Y-100510000D01*
X131986928Y-100510000D01*
X131999188Y-100634482D01*
X132035498Y-100754180D01*
X132094463Y-100864494D01*
X132173815Y-100961185D01*
X132270506Y-101040537D01*
X132380820Y-101099502D01*
X132500518Y-101135812D01*
X132625000Y-101148072D01*
X133064250Y-101145000D01*
X133223000Y-100986250D01*
X133223000Y-100137000D01*
X133477000Y-100137000D01*
X133477000Y-100986250D01*
X133635750Y-101145000D01*
X134075000Y-101148072D01*
X134199482Y-101135812D01*
X134319180Y-101099502D01*
X134429494Y-101040537D01*
X134526185Y-100961185D01*
X134605537Y-100864494D01*
X134664502Y-100754180D01*
X134700812Y-100634482D01*
X134713072Y-100510000D01*
X134710000Y-100295750D01*
X134551250Y-100137000D01*
X133477000Y-100137000D01*
X133223000Y-100137000D01*
X132148750Y-100137000D01*
X131990000Y-100295750D01*
X131986928Y-100510000D01*
X127370685Y-100510000D01*
X127210287Y-100402826D01*
X127021929Y-100324805D01*
X126821970Y-100285031D01*
X126618092Y-100285031D01*
X126418133Y-100324805D01*
X126229775Y-100402826D01*
X126060257Y-100516094D01*
X125916094Y-100660257D01*
X125813541Y-100813739D01*
X125514790Y-100514989D01*
X127159780Y-98870000D01*
X132150230Y-98870000D01*
X132247038Y-98987962D01*
G37*
%TD.AperFunction*%
%TD*%
M02*
