%TF.GenerationSoftware,KiCad,Pcbnew,5.1.9-5.1.9*%
%TF.CreationDate,2021-02-06T15:34:09+03:00*%
%TF.ProjectId,qddc,71646463-2e6b-4696-9361-645f70636258,rev?*%
%TF.SameCoordinates,Original*%
%TF.FileFunction,Paste,Top*%
%TF.FilePolarity,Positive*%
%FSLAX46Y46*%
G04 Gerber Fmt 4.6, Leading zero omitted, Abs format (unit mm)*
G04 Created by KiCad (PCBNEW 5.1.9-5.1.9) date 2021-02-06 15:34:09*
%MOMM*%
%LPD*%
G01*
G04 APERTURE LIST*
%ADD10R,1.500000X3.500000*%
%ADD11R,3.500000X1.500000*%
%ADD12R,0.650000X1.528000*%
%ADD13R,0.450000X1.450000*%
%ADD14R,1.400000X0.760000*%
G04 APERTURE END LIST*
D10*
%TO.C,Cos*%
X123792000Y-88900000D03*
X129192000Y-88900000D03*
X126492000Y-88900000D03*
%TD*%
%TO.C,Sin*%
X112616000Y-88900000D03*
X118016000Y-88900000D03*
X115316000Y-88900000D03*
%TD*%
D11*
%TO.C,RF*%
X104140000Y-107348000D03*
X104140000Y-101948000D03*
X104140000Y-104648000D03*
%TD*%
%TO.C,C5*%
G36*
G01*
X133825000Y-100510000D02*
X132875000Y-100510000D01*
G75*
G02*
X132625000Y-100260000I0J250000D01*
G01*
X132625000Y-99760000D01*
G75*
G02*
X132875000Y-99510000I250000J0D01*
G01*
X133825000Y-99510000D01*
G75*
G02*
X134075000Y-99760000I0J-250000D01*
G01*
X134075000Y-100260000D01*
G75*
G02*
X133825000Y-100510000I-250000J0D01*
G01*
G37*
G36*
G01*
X133825000Y-98610000D02*
X132875000Y-98610000D01*
G75*
G02*
X132625000Y-98360000I0J250000D01*
G01*
X132625000Y-97860000D01*
G75*
G02*
X132875000Y-97610000I250000J0D01*
G01*
X133825000Y-97610000D01*
G75*
G02*
X134075000Y-97860000I0J-250000D01*
G01*
X134075000Y-98360000D01*
G75*
G02*
X133825000Y-98610000I-250000J0D01*
G01*
G37*
%TD*%
D12*
%TO.C,IC2*%
X146685000Y-102699000D03*
X145415000Y-102699000D03*
X144145000Y-102699000D03*
X142875000Y-102699000D03*
X142875000Y-108121000D03*
X144145000Y-108121000D03*
X145415000Y-108121000D03*
X146685000Y-108121000D03*
%TD*%
%TO.C,C1*%
G36*
G01*
X113210000Y-110777000D02*
X113210000Y-111727000D01*
G75*
G02*
X112960000Y-111977000I-250000J0D01*
G01*
X112460000Y-111977000D01*
G75*
G02*
X112210000Y-111727000I0J250000D01*
G01*
X112210000Y-110777000D01*
G75*
G02*
X112460000Y-110527000I250000J0D01*
G01*
X112960000Y-110527000D01*
G75*
G02*
X113210000Y-110777000I0J-250000D01*
G01*
G37*
G36*
G01*
X111310000Y-110777000D02*
X111310000Y-111727000D01*
G75*
G02*
X111060000Y-111977000I-250000J0D01*
G01*
X110560000Y-111977000D01*
G75*
G02*
X110310000Y-111727000I0J250000D01*
G01*
X110310000Y-110777000D01*
G75*
G02*
X110560000Y-110527000I250000J0D01*
G01*
X111060000Y-110527000D01*
G75*
G02*
X111310000Y-110777000I0J-250000D01*
G01*
G37*
%TD*%
%TO.C,C2*%
G36*
G01*
X111310000Y-115349000D02*
X111310000Y-116299000D01*
G75*
G02*
X111060000Y-116549000I-250000J0D01*
G01*
X110560000Y-116549000D01*
G75*
G02*
X110310000Y-116299000I0J250000D01*
G01*
X110310000Y-115349000D01*
G75*
G02*
X110560000Y-115099000I250000J0D01*
G01*
X111060000Y-115099000D01*
G75*
G02*
X111310000Y-115349000I0J-250000D01*
G01*
G37*
G36*
G01*
X113210000Y-115349000D02*
X113210000Y-116299000D01*
G75*
G02*
X112960000Y-116549000I-250000J0D01*
G01*
X112460000Y-116549000D01*
G75*
G02*
X112210000Y-116299000I0J250000D01*
G01*
X112210000Y-115349000D01*
G75*
G02*
X112460000Y-115099000I250000J0D01*
G01*
X112960000Y-115099000D01*
G75*
G02*
X113210000Y-115349000I0J-250000D01*
G01*
G37*
%TD*%
%TO.C,C3*%
G36*
G01*
X121125000Y-114485000D02*
X120175000Y-114485000D01*
G75*
G02*
X119925000Y-114235000I0J250000D01*
G01*
X119925000Y-113735000D01*
G75*
G02*
X120175000Y-113485000I250000J0D01*
G01*
X121125000Y-113485000D01*
G75*
G02*
X121375000Y-113735000I0J-250000D01*
G01*
X121375000Y-114235000D01*
G75*
G02*
X121125000Y-114485000I-250000J0D01*
G01*
G37*
G36*
G01*
X121125000Y-116385000D02*
X120175000Y-116385000D01*
G75*
G02*
X119925000Y-116135000I0J250000D01*
G01*
X119925000Y-115635000D01*
G75*
G02*
X120175000Y-115385000I250000J0D01*
G01*
X121125000Y-115385000D01*
G75*
G02*
X121375000Y-115635000I0J-250000D01*
G01*
X121375000Y-116135000D01*
G75*
G02*
X121125000Y-116385000I-250000J0D01*
G01*
G37*
%TD*%
%TO.C,C4*%
G36*
G01*
X129725000Y-109380000D02*
X129725000Y-110330000D01*
G75*
G02*
X129475000Y-110580000I-250000J0D01*
G01*
X128975000Y-110580000D01*
G75*
G02*
X128725000Y-110330000I0J250000D01*
G01*
X128725000Y-109380000D01*
G75*
G02*
X128975000Y-109130000I250000J0D01*
G01*
X129475000Y-109130000D01*
G75*
G02*
X129725000Y-109380000I0J-250000D01*
G01*
G37*
G36*
G01*
X131625000Y-109380000D02*
X131625000Y-110330000D01*
G75*
G02*
X131375000Y-110580000I-250000J0D01*
G01*
X130875000Y-110580000D01*
G75*
G02*
X130625000Y-110330000I0J250000D01*
G01*
X130625000Y-109380000D01*
G75*
G02*
X130875000Y-109130000I250000J0D01*
G01*
X131375000Y-109130000D01*
G75*
G02*
X131625000Y-109380000I0J-250000D01*
G01*
G37*
%TD*%
%TO.C,C6*%
G36*
G01*
X133825000Y-113464000D02*
X132875000Y-113464000D01*
G75*
G02*
X132625000Y-113214000I0J250000D01*
G01*
X132625000Y-112714000D01*
G75*
G02*
X132875000Y-112464000I250000J0D01*
G01*
X133825000Y-112464000D01*
G75*
G02*
X134075000Y-112714000I0J-250000D01*
G01*
X134075000Y-113214000D01*
G75*
G02*
X133825000Y-113464000I-250000J0D01*
G01*
G37*
G36*
G01*
X133825000Y-111564000D02*
X132875000Y-111564000D01*
G75*
G02*
X132625000Y-111314000I0J250000D01*
G01*
X132625000Y-110814000D01*
G75*
G02*
X132875000Y-110564000I250000J0D01*
G01*
X133825000Y-110564000D01*
G75*
G02*
X134075000Y-110814000I0J-250000D01*
G01*
X134075000Y-111314000D01*
G75*
G02*
X133825000Y-111564000I-250000J0D01*
G01*
G37*
%TD*%
%TO.C,C7*%
G36*
G01*
X133825000Y-103055000D02*
X132875000Y-103055000D01*
G75*
G02*
X132625000Y-102805000I0J250000D01*
G01*
X132625000Y-102305000D01*
G75*
G02*
X132875000Y-102055000I250000J0D01*
G01*
X133825000Y-102055000D01*
G75*
G02*
X134075000Y-102305000I0J-250000D01*
G01*
X134075000Y-102805000D01*
G75*
G02*
X133825000Y-103055000I-250000J0D01*
G01*
G37*
G36*
G01*
X133825000Y-104955000D02*
X132875000Y-104955000D01*
G75*
G02*
X132625000Y-104705000I0J250000D01*
G01*
X132625000Y-104205000D01*
G75*
G02*
X132875000Y-103955000I250000J0D01*
G01*
X133825000Y-103955000D01*
G75*
G02*
X134075000Y-104205000I0J-250000D01*
G01*
X134075000Y-104705000D01*
G75*
G02*
X133825000Y-104955000I-250000J0D01*
G01*
G37*
%TD*%
%TO.C,C8*%
G36*
G01*
X133825000Y-109146000D02*
X132875000Y-109146000D01*
G75*
G02*
X132625000Y-108896000I0J250000D01*
G01*
X132625000Y-108396000D01*
G75*
G02*
X132875000Y-108146000I250000J0D01*
G01*
X133825000Y-108146000D01*
G75*
G02*
X134075000Y-108396000I0J-250000D01*
G01*
X134075000Y-108896000D01*
G75*
G02*
X133825000Y-109146000I-250000J0D01*
G01*
G37*
G36*
G01*
X133825000Y-107246000D02*
X132875000Y-107246000D01*
G75*
G02*
X132625000Y-106996000I0J250000D01*
G01*
X132625000Y-106496000D01*
G75*
G02*
X132875000Y-106246000I250000J0D01*
G01*
X133825000Y-106246000D01*
G75*
G02*
X134075000Y-106496000I0J-250000D01*
G01*
X134075000Y-106996000D01*
G75*
G02*
X133825000Y-107246000I-250000J0D01*
G01*
G37*
%TD*%
%TO.C,C9*%
G36*
G01*
X139225000Y-97610000D02*
X140175000Y-97610000D01*
G75*
G02*
X140425000Y-97860000I0J-250000D01*
G01*
X140425000Y-98360000D01*
G75*
G02*
X140175000Y-98610000I-250000J0D01*
G01*
X139225000Y-98610000D01*
G75*
G02*
X138975000Y-98360000I0J250000D01*
G01*
X138975000Y-97860000D01*
G75*
G02*
X139225000Y-97610000I250000J0D01*
G01*
G37*
G36*
G01*
X139225000Y-99510000D02*
X140175000Y-99510000D01*
G75*
G02*
X140425000Y-99760000I0J-250000D01*
G01*
X140425000Y-100260000D01*
G75*
G02*
X140175000Y-100510000I-250000J0D01*
G01*
X139225000Y-100510000D01*
G75*
G02*
X138975000Y-100260000I0J250000D01*
G01*
X138975000Y-99760000D01*
G75*
G02*
X139225000Y-99510000I250000J0D01*
G01*
G37*
%TD*%
%TO.C,C10*%
G36*
G01*
X139225000Y-112525000D02*
X140175000Y-112525000D01*
G75*
G02*
X140425000Y-112775000I0J-250000D01*
G01*
X140425000Y-113275000D01*
G75*
G02*
X140175000Y-113525000I-250000J0D01*
G01*
X139225000Y-113525000D01*
G75*
G02*
X138975000Y-113275000I0J250000D01*
G01*
X138975000Y-112775000D01*
G75*
G02*
X139225000Y-112525000I250000J0D01*
G01*
G37*
G36*
G01*
X139225000Y-110625000D02*
X140175000Y-110625000D01*
G75*
G02*
X140425000Y-110875000I0J-250000D01*
G01*
X140425000Y-111375000D01*
G75*
G02*
X140175000Y-111625000I-250000J0D01*
G01*
X139225000Y-111625000D01*
G75*
G02*
X138975000Y-111375000I0J250000D01*
G01*
X138975000Y-110875000D01*
G75*
G02*
X139225000Y-110625000I250000J0D01*
G01*
G37*
%TD*%
%TO.C,C11*%
G36*
G01*
X149827000Y-110670000D02*
X148877000Y-110670000D01*
G75*
G02*
X148627000Y-110420000I0J250000D01*
G01*
X148627000Y-109920000D01*
G75*
G02*
X148877000Y-109670000I250000J0D01*
G01*
X149827000Y-109670000D01*
G75*
G02*
X150077000Y-109920000I0J-250000D01*
G01*
X150077000Y-110420000D01*
G75*
G02*
X149827000Y-110670000I-250000J0D01*
G01*
G37*
G36*
G01*
X149827000Y-108770000D02*
X148877000Y-108770000D01*
G75*
G02*
X148627000Y-108520000I0J250000D01*
G01*
X148627000Y-108020000D01*
G75*
G02*
X148877000Y-107770000I250000J0D01*
G01*
X149827000Y-107770000D01*
G75*
G02*
X150077000Y-108020000I0J-250000D01*
G01*
X150077000Y-108520000D01*
G75*
G02*
X149827000Y-108770000I-250000J0D01*
G01*
G37*
%TD*%
%TO.C,C12*%
G36*
G01*
X151315000Y-97950000D02*
X151315000Y-98900000D01*
G75*
G02*
X151065000Y-99150000I-250000J0D01*
G01*
X150565000Y-99150000D01*
G75*
G02*
X150315000Y-98900000I0J250000D01*
G01*
X150315000Y-97950000D01*
G75*
G02*
X150565000Y-97700000I250000J0D01*
G01*
X151065000Y-97700000D01*
G75*
G02*
X151315000Y-97950000I0J-250000D01*
G01*
G37*
G36*
G01*
X153215000Y-97950000D02*
X153215000Y-98900000D01*
G75*
G02*
X152965000Y-99150000I-250000J0D01*
G01*
X152465000Y-99150000D01*
G75*
G02*
X152215000Y-98900000I0J250000D01*
G01*
X152215000Y-97950000D01*
G75*
G02*
X152465000Y-97700000I250000J0D01*
G01*
X152965000Y-97700000D01*
G75*
G02*
X153215000Y-97950000I0J-250000D01*
G01*
G37*
%TD*%
%TO.C,C13*%
G36*
G01*
X153215000Y-112555000D02*
X153215000Y-113505000D01*
G75*
G02*
X152965000Y-113755000I-250000J0D01*
G01*
X152465000Y-113755000D01*
G75*
G02*
X152215000Y-113505000I0J250000D01*
G01*
X152215000Y-112555000D01*
G75*
G02*
X152465000Y-112305000I250000J0D01*
G01*
X152965000Y-112305000D01*
G75*
G02*
X153215000Y-112555000I0J-250000D01*
G01*
G37*
G36*
G01*
X151315000Y-112555000D02*
X151315000Y-113505000D01*
G75*
G02*
X151065000Y-113755000I-250000J0D01*
G01*
X150565000Y-113755000D01*
G75*
G02*
X150315000Y-113505000I0J250000D01*
G01*
X150315000Y-112555000D01*
G75*
G02*
X150565000Y-112305000I250000J0D01*
G01*
X151065000Y-112305000D01*
G75*
G02*
X151315000Y-112555000I0J-250000D01*
G01*
G37*
%TD*%
D13*
%TO.C,IC1*%
X127370000Y-103120000D03*
X126720000Y-103120000D03*
X126070000Y-103120000D03*
X125420000Y-103120000D03*
X124770000Y-103120000D03*
X124120000Y-103120000D03*
X123470000Y-103120000D03*
X122820000Y-103120000D03*
X122820000Y-108970000D03*
X123470000Y-108970000D03*
X124120000Y-108970000D03*
X124770000Y-108970000D03*
X125420000Y-108970000D03*
X126070000Y-108970000D03*
X126720000Y-108970000D03*
X127370000Y-108970000D03*
%TD*%
%TO.C,L1*%
G36*
G01*
X123630000Y-116524001D02*
X123630000Y-115123999D01*
G75*
G02*
X123879999Y-114874000I249999J0D01*
G01*
X124430001Y-114874000D01*
G75*
G02*
X124680000Y-115123999I0J-249999D01*
G01*
X124680000Y-116524001D01*
G75*
G02*
X124430001Y-116774000I-249999J0D01*
G01*
X123879999Y-116774000D01*
G75*
G02*
X123630000Y-116524001I0J249999D01*
G01*
G37*
G36*
G01*
X126780000Y-116524001D02*
X126780000Y-115123999D01*
G75*
G02*
X127029999Y-114874000I249999J0D01*
G01*
X127580001Y-114874000D01*
G75*
G02*
X127830000Y-115123999I0J-249999D01*
G01*
X127830000Y-116524001D01*
G75*
G02*
X127580001Y-116774000I-249999J0D01*
G01*
X127029999Y-116774000D01*
G75*
G02*
X126780000Y-116524001I0J249999D01*
G01*
G37*
%TD*%
%TO.C,R1*%
G36*
G01*
X126942002Y-93580000D02*
X126041998Y-93580000D01*
G75*
G02*
X125792000Y-93330002I0J249998D01*
G01*
X125792000Y-92804998D01*
G75*
G02*
X126041998Y-92555000I249998J0D01*
G01*
X126942002Y-92555000D01*
G75*
G02*
X127192000Y-92804998I0J-249998D01*
G01*
X127192000Y-93330002D01*
G75*
G02*
X126942002Y-93580000I-249998J0D01*
G01*
G37*
G36*
G01*
X126942002Y-95405000D02*
X126041998Y-95405000D01*
G75*
G02*
X125792000Y-95155002I0J249998D01*
G01*
X125792000Y-94629998D01*
G75*
G02*
X126041998Y-94380000I249998J0D01*
G01*
X126942002Y-94380000D01*
G75*
G02*
X127192000Y-94629998I0J-249998D01*
G01*
X127192000Y-95155002D01*
G75*
G02*
X126942002Y-95405000I-249998J0D01*
G01*
G37*
%TD*%
%TO.C,R2*%
G36*
G01*
X115766002Y-95405000D02*
X114865998Y-95405000D01*
G75*
G02*
X114616000Y-95155002I0J249998D01*
G01*
X114616000Y-94629998D01*
G75*
G02*
X114865998Y-94380000I249998J0D01*
G01*
X115766002Y-94380000D01*
G75*
G02*
X116016000Y-94629998I0J-249998D01*
G01*
X116016000Y-95155002D01*
G75*
G02*
X115766002Y-95405000I-249998J0D01*
G01*
G37*
G36*
G01*
X115766002Y-93580000D02*
X114865998Y-93580000D01*
G75*
G02*
X114616000Y-93330002I0J249998D01*
G01*
X114616000Y-92804998D01*
G75*
G02*
X114865998Y-92555000I249998J0D01*
G01*
X115766002Y-92555000D01*
G75*
G02*
X116016000Y-92804998I0J-249998D01*
G01*
X116016000Y-93330002D01*
G75*
G02*
X115766002Y-93580000I-249998J0D01*
G01*
G37*
%TD*%
%TO.C,R3*%
G36*
G01*
X119535000Y-104324998D02*
X119535000Y-105225002D01*
G75*
G02*
X119285002Y-105475000I-249998J0D01*
G01*
X118759998Y-105475000D01*
G75*
G02*
X118510000Y-105225002I0J249998D01*
G01*
X118510000Y-104324998D01*
G75*
G02*
X118759998Y-104075000I249998J0D01*
G01*
X119285002Y-104075000D01*
G75*
G02*
X119535000Y-104324998I0J-249998D01*
G01*
G37*
G36*
G01*
X117710000Y-104324998D02*
X117710000Y-105225002D01*
G75*
G02*
X117460002Y-105475000I-249998J0D01*
G01*
X116934998Y-105475000D01*
G75*
G02*
X116685000Y-105225002I0J249998D01*
G01*
X116685000Y-104324998D01*
G75*
G02*
X116934998Y-104075000I249998J0D01*
G01*
X117460002Y-104075000D01*
G75*
G02*
X117710000Y-104324998I0J-249998D01*
G01*
G37*
%TD*%
%TO.C,R4*%
G36*
G01*
X117710000Y-106864998D02*
X117710000Y-107765002D01*
G75*
G02*
X117460002Y-108015000I-249998J0D01*
G01*
X116934998Y-108015000D01*
G75*
G02*
X116685000Y-107765002I0J249998D01*
G01*
X116685000Y-106864998D01*
G75*
G02*
X116934998Y-106615000I249998J0D01*
G01*
X117460002Y-106615000D01*
G75*
G02*
X117710000Y-106864998I0J-249998D01*
G01*
G37*
G36*
G01*
X119535000Y-106864998D02*
X119535000Y-107765002D01*
G75*
G02*
X119285002Y-108015000I-249998J0D01*
G01*
X118759998Y-108015000D01*
G75*
G02*
X118510000Y-107765002I0J249998D01*
G01*
X118510000Y-106864998D01*
G75*
G02*
X118759998Y-106615000I249998J0D01*
G01*
X119285002Y-106615000D01*
G75*
G02*
X119535000Y-106864998I0J-249998D01*
G01*
G37*
%TD*%
%TO.C,R5*%
G36*
G01*
X116440000Y-115373998D02*
X116440000Y-116274002D01*
G75*
G02*
X116190002Y-116524000I-249998J0D01*
G01*
X115664998Y-116524000D01*
G75*
G02*
X115415000Y-116274002I0J249998D01*
G01*
X115415000Y-115373998D01*
G75*
G02*
X115664998Y-115124000I249998J0D01*
G01*
X116190002Y-115124000D01*
G75*
G02*
X116440000Y-115373998I0J-249998D01*
G01*
G37*
G36*
G01*
X118265000Y-115373998D02*
X118265000Y-116274002D01*
G75*
G02*
X118015002Y-116524000I-249998J0D01*
G01*
X117489998Y-116524000D01*
G75*
G02*
X117240000Y-116274002I0J249998D01*
G01*
X117240000Y-115373998D01*
G75*
G02*
X117489998Y-115124000I249998J0D01*
G01*
X118015002Y-115124000D01*
G75*
G02*
X118265000Y-115373998I0J-249998D01*
G01*
G37*
%TD*%
%TO.C,R6*%
G36*
G01*
X113185000Y-100133998D02*
X113185000Y-101034002D01*
G75*
G02*
X112935002Y-101284000I-249998J0D01*
G01*
X112409998Y-101284000D01*
G75*
G02*
X112160000Y-101034002I0J249998D01*
G01*
X112160000Y-100133998D01*
G75*
G02*
X112409998Y-99884000I249998J0D01*
G01*
X112935002Y-99884000D01*
G75*
G02*
X113185000Y-100133998I0J-249998D01*
G01*
G37*
G36*
G01*
X111360000Y-100133998D02*
X111360000Y-101034002D01*
G75*
G02*
X111110002Y-101284000I-249998J0D01*
G01*
X110584998Y-101284000D01*
G75*
G02*
X110335000Y-101034002I0J249998D01*
G01*
X110335000Y-100133998D01*
G75*
G02*
X110584998Y-99884000I249998J0D01*
G01*
X111110002Y-99884000D01*
G75*
G02*
X111360000Y-100133998I0J-249998D01*
G01*
G37*
%TD*%
%TO.C,R7*%
G36*
G01*
X137102002Y-104953500D02*
X136201998Y-104953500D01*
G75*
G02*
X135952000Y-104703502I0J249998D01*
G01*
X135952000Y-104178498D01*
G75*
G02*
X136201998Y-103928500I249998J0D01*
G01*
X137102002Y-103928500D01*
G75*
G02*
X137352000Y-104178498I0J-249998D01*
G01*
X137352000Y-104703502D01*
G75*
G02*
X137102002Y-104953500I-249998J0D01*
G01*
G37*
G36*
G01*
X137102002Y-103128500D02*
X136201998Y-103128500D01*
G75*
G02*
X135952000Y-102878502I0J249998D01*
G01*
X135952000Y-102353498D01*
G75*
G02*
X136201998Y-102103500I249998J0D01*
G01*
X137102002Y-102103500D01*
G75*
G02*
X137352000Y-102353498I0J-249998D01*
G01*
X137352000Y-102878502D01*
G75*
G02*
X137102002Y-103128500I-249998J0D01*
G01*
G37*
%TD*%
%TO.C,R8*%
G36*
G01*
X137102002Y-98660000D02*
X136201998Y-98660000D01*
G75*
G02*
X135952000Y-98410002I0J249998D01*
G01*
X135952000Y-97884998D01*
G75*
G02*
X136201998Y-97635000I249998J0D01*
G01*
X137102002Y-97635000D01*
G75*
G02*
X137352000Y-97884998I0J-249998D01*
G01*
X137352000Y-98410002D01*
G75*
G02*
X137102002Y-98660000I-249998J0D01*
G01*
G37*
G36*
G01*
X137102002Y-100485000D02*
X136201998Y-100485000D01*
G75*
G02*
X135952000Y-100235002I0J249998D01*
G01*
X135952000Y-99709998D01*
G75*
G02*
X136201998Y-99460000I249998J0D01*
G01*
X137102002Y-99460000D01*
G75*
G02*
X137352000Y-99709998I0J-249998D01*
G01*
X137352000Y-100235002D01*
G75*
G02*
X137102002Y-100485000I-249998J0D01*
G01*
G37*
%TD*%
%TO.C,R9*%
G36*
G01*
X136201998Y-106271000D02*
X137102002Y-106271000D01*
G75*
G02*
X137352000Y-106520998I0J-249998D01*
G01*
X137352000Y-107046002D01*
G75*
G02*
X137102002Y-107296000I-249998J0D01*
G01*
X136201998Y-107296000D01*
G75*
G02*
X135952000Y-107046002I0J249998D01*
G01*
X135952000Y-106520998D01*
G75*
G02*
X136201998Y-106271000I249998J0D01*
G01*
G37*
G36*
G01*
X136201998Y-108096000D02*
X137102002Y-108096000D01*
G75*
G02*
X137352000Y-108345998I0J-249998D01*
G01*
X137352000Y-108871002D01*
G75*
G02*
X137102002Y-109121000I-249998J0D01*
G01*
X136201998Y-109121000D01*
G75*
G02*
X135952000Y-108871002I0J249998D01*
G01*
X135952000Y-108345998D01*
G75*
G02*
X136201998Y-108096000I249998J0D01*
G01*
G37*
%TD*%
%TO.C,R10*%
G36*
G01*
X136201998Y-112414000D02*
X137102002Y-112414000D01*
G75*
G02*
X137352000Y-112663998I0J-249998D01*
G01*
X137352000Y-113189002D01*
G75*
G02*
X137102002Y-113439000I-249998J0D01*
G01*
X136201998Y-113439000D01*
G75*
G02*
X135952000Y-113189002I0J249998D01*
G01*
X135952000Y-112663998D01*
G75*
G02*
X136201998Y-112414000I249998J0D01*
G01*
G37*
G36*
G01*
X136201998Y-110589000D02*
X137102002Y-110589000D01*
G75*
G02*
X137352000Y-110838998I0J-249998D01*
G01*
X137352000Y-111364002D01*
G75*
G02*
X137102002Y-111614000I-249998J0D01*
G01*
X136201998Y-111614000D01*
G75*
G02*
X135952000Y-111364002I0J249998D01*
G01*
X135952000Y-110838998D01*
G75*
G02*
X136201998Y-110589000I249998J0D01*
G01*
G37*
%TD*%
%TO.C,R11*%
G36*
G01*
X142805998Y-99460000D02*
X143706002Y-99460000D01*
G75*
G02*
X143956000Y-99709998I0J-249998D01*
G01*
X143956000Y-100235002D01*
G75*
G02*
X143706002Y-100485000I-249998J0D01*
G01*
X142805998Y-100485000D01*
G75*
G02*
X142556000Y-100235002I0J249998D01*
G01*
X142556000Y-99709998D01*
G75*
G02*
X142805998Y-99460000I249998J0D01*
G01*
G37*
G36*
G01*
X142805998Y-97635000D02*
X143706002Y-97635000D01*
G75*
G02*
X143956000Y-97884998I0J-249998D01*
G01*
X143956000Y-98410002D01*
G75*
G02*
X143706002Y-98660000I-249998J0D01*
G01*
X142805998Y-98660000D01*
G75*
G02*
X142556000Y-98410002I0J249998D01*
G01*
X142556000Y-97884998D01*
G75*
G02*
X142805998Y-97635000I249998J0D01*
G01*
G37*
%TD*%
%TO.C,R12*%
G36*
G01*
X145895000Y-98875002D02*
X145895000Y-97974998D01*
G75*
G02*
X146144998Y-97725000I249998J0D01*
G01*
X146670002Y-97725000D01*
G75*
G02*
X146920000Y-97974998I0J-249998D01*
G01*
X146920000Y-98875002D01*
G75*
G02*
X146670002Y-99125000I-249998J0D01*
G01*
X146144998Y-99125000D01*
G75*
G02*
X145895000Y-98875002I0J249998D01*
G01*
G37*
G36*
G01*
X147720000Y-98875002D02*
X147720000Y-97974998D01*
G75*
G02*
X147969998Y-97725000I249998J0D01*
G01*
X148495002Y-97725000D01*
G75*
G02*
X148745000Y-97974998I0J-249998D01*
G01*
X148745000Y-98875002D01*
G75*
G02*
X148495002Y-99125000I-249998J0D01*
G01*
X147969998Y-99125000D01*
G75*
G02*
X147720000Y-98875002I0J249998D01*
G01*
G37*
%TD*%
%TO.C,R13*%
G36*
G01*
X146920000Y-112579998D02*
X146920000Y-113480002D01*
G75*
G02*
X146670002Y-113730000I-249998J0D01*
G01*
X146144998Y-113730000D01*
G75*
G02*
X145895000Y-113480002I0J249998D01*
G01*
X145895000Y-112579998D01*
G75*
G02*
X146144998Y-112330000I249998J0D01*
G01*
X146670002Y-112330000D01*
G75*
G02*
X146920000Y-112579998I0J-249998D01*
G01*
G37*
G36*
G01*
X148745000Y-112579998D02*
X148745000Y-113480002D01*
G75*
G02*
X148495002Y-113730000I-249998J0D01*
G01*
X147969998Y-113730000D01*
G75*
G02*
X147720000Y-113480002I0J249998D01*
G01*
X147720000Y-112579998D01*
G75*
G02*
X147969998Y-112330000I249998J0D01*
G01*
X148495002Y-112330000D01*
G75*
G02*
X148745000Y-112579998I0J-249998D01*
G01*
G37*
%TD*%
%TO.C,R14*%
G36*
G01*
X143706002Y-113462500D02*
X142805998Y-113462500D01*
G75*
G02*
X142556000Y-113212502I0J249998D01*
G01*
X142556000Y-112687498D01*
G75*
G02*
X142805998Y-112437500I249998J0D01*
G01*
X143706002Y-112437500D01*
G75*
G02*
X143956000Y-112687498I0J-249998D01*
G01*
X143956000Y-113212502D01*
G75*
G02*
X143706002Y-113462500I-249998J0D01*
G01*
G37*
G36*
G01*
X143706002Y-111637500D02*
X142805998Y-111637500D01*
G75*
G02*
X142556000Y-111387502I0J249998D01*
G01*
X142556000Y-110862498D01*
G75*
G02*
X142805998Y-110612500I249998J0D01*
G01*
X143706002Y-110612500D01*
G75*
G02*
X143956000Y-110862498I0J-249998D01*
G01*
X143956000Y-111387502D01*
G75*
G02*
X143706002Y-111637500I-249998J0D01*
G01*
G37*
%TD*%
D14*
%TO.C,T1*%
X114110000Y-104775000D03*
X114110000Y-106045000D03*
X114110000Y-107315000D03*
X110680000Y-107315000D03*
X110680000Y-104775000D03*
%TD*%
M02*
