M48
; DRILL file {KiCad 5.1.9-5.1.9} date Sat Feb  6 15:34:12 2021
; FORMAT={-:-/ absolute / inch / decimal}
; #@! TF.CreationDate,2021-02-06T15:34:12+03:00
; #@! TF.GenerationSoftware,Kicad,Pcbnew,5.1.9-5.1.9
; #@! TF.FileFunction,Plated,1,2,PTH
FMAT,2
INCH
T1C0.0157
T2C0.0394
%
G90
G05
T1
X4.22Y-4.02
X4.225Y-4.225
X4.25Y-3.675
X4.25Y-3.875
X4.25Y-4.425
X4.25Y-4.6
X4.54Y-4.375
X4.7Y-3.9
X4.7Y-4.375
X4.725Y-4.05
X4.76Y-3.68
X4.803Y-4.0124
X4.85Y-4.15
X4.8751Y-4.1999
X4.925Y-4.15
X4.9722Y-4.1722
X4.989Y-3.989
X5.025Y-4.175
X5.1Y-4.05
X5.1175Y-4.5575
X5.12Y-4.24
X5.12Y-4.14
X5.125Y-4.425
X5.15Y-3.8
X5.18Y-3.68
X5.45Y-3.675
X5.5Y-4.04
X5.5Y-4.16
X5.5Y-4.28
X5.725Y-3.675
X5.725Y-4.6
X5.775Y-4.375
X6.0Y-3.675
X6.0Y-4.6
T2
X5.16Y-4.7
X5.26Y-4.7
X5.36Y-4.7
X5.46Y-4.7
X6.025Y-4.05
X6.025Y-4.15
X6.025Y-4.25
T0
M30
