%TF.GenerationSoftware,KiCad,Pcbnew,(5.99.0-12374-g2479e1d7b1)*%
%TF.CreationDate,2021-11-10T00:42:55+03:00*%
%TF.ProjectId,swr,7377722e-6b69-4636-9164-5f7063625858,rev?*%
%TF.SameCoordinates,Original*%
%TF.FileFunction,Legend,Top*%
%TF.FilePolarity,Positive*%
%FSLAX46Y46*%
G04 Gerber Fmt 4.6, Leading zero omitted, Abs format (unit mm)*
G04 Created by KiCad (PCBNEW (5.99.0-12374-g2479e1d7b1)) date 2021-11-10 00:42:55*
%MOMM*%
%LPD*%
G01*
G04 APERTURE LIST*
%ADD10C,0.150000*%
%ADD11C,0.200000*%
%ADD12C,0.120000*%
G04 APERTURE END LIST*
D10*
X158349761Y-87082142D02*
X158397380Y-86939285D01*
X158397380Y-86701190D01*
X158349761Y-86605952D01*
X158302142Y-86558333D01*
X158206904Y-86510714D01*
X158111666Y-86510714D01*
X158016428Y-86558333D01*
X157968809Y-86605952D01*
X157921190Y-86701190D01*
X157873571Y-86891666D01*
X157825952Y-86986904D01*
X157778333Y-87034523D01*
X157683095Y-87082142D01*
X157587857Y-87082142D01*
X157492619Y-87034523D01*
X157445000Y-86986904D01*
X157397380Y-86891666D01*
X157397380Y-86653571D01*
X157445000Y-86510714D01*
X157397380Y-86177380D02*
X158397380Y-85939285D01*
X157683095Y-85748809D01*
X158397380Y-85558333D01*
X157397380Y-85320238D01*
X158397380Y-84367857D02*
X157921190Y-84701190D01*
X158397380Y-84939285D02*
X157397380Y-84939285D01*
X157397380Y-84558333D01*
X157445000Y-84463095D01*
X157492619Y-84415476D01*
X157587857Y-84367857D01*
X157730714Y-84367857D01*
X157825952Y-84415476D01*
X157873571Y-84463095D01*
X157921190Y-84558333D01*
X157921190Y-84939285D01*
X160007380Y-87415476D02*
X159531190Y-87748809D01*
X160007380Y-87986904D02*
X159007380Y-87986904D01*
X159007380Y-87605952D01*
X159055000Y-87510714D01*
X159102619Y-87463095D01*
X159197857Y-87415476D01*
X159340714Y-87415476D01*
X159435952Y-87463095D01*
X159483571Y-87510714D01*
X159531190Y-87605952D01*
X159531190Y-87986904D01*
X160007380Y-86463095D02*
X160007380Y-87034523D01*
X160007380Y-86748809D02*
X159007380Y-86748809D01*
X159150238Y-86844047D01*
X159245476Y-86939285D01*
X159293095Y-87034523D01*
X159912142Y-85463095D02*
X159959761Y-85510714D01*
X160007380Y-85653571D01*
X160007380Y-85748809D01*
X159959761Y-85891666D01*
X159864523Y-85986904D01*
X159769285Y-86034523D01*
X159578809Y-86082142D01*
X159435952Y-86082142D01*
X159245476Y-86034523D01*
X159150238Y-85986904D01*
X159055000Y-85891666D01*
X159007380Y-85748809D01*
X159007380Y-85653571D01*
X159055000Y-85510714D01*
X159102619Y-85463095D01*
X159483571Y-84701190D02*
X159531190Y-84558333D01*
X159578809Y-84510714D01*
X159674047Y-84463095D01*
X159816904Y-84463095D01*
X159912142Y-84510714D01*
X159959761Y-84558333D01*
X160007380Y-84653571D01*
X160007380Y-85034523D01*
X159007380Y-85034523D01*
X159007380Y-84701190D01*
X159055000Y-84605952D01*
X159102619Y-84558333D01*
X159197857Y-84510714D01*
X159293095Y-84510714D01*
X159388333Y-84558333D01*
X159435952Y-84605952D01*
X159483571Y-84701190D01*
X159483571Y-85034523D01*
X159007380Y-84034523D02*
X159816904Y-84034523D01*
X159912142Y-83986904D01*
X159959761Y-83939285D01*
X160007380Y-83844047D01*
X160007380Y-83653571D01*
X159959761Y-83558333D01*
X159912142Y-83510714D01*
X159816904Y-83463095D01*
X159007380Y-83463095D01*
%TO.C,J1*%
X146452380Y-73993333D02*
X147166666Y-73993333D01*
X147309523Y-74040952D01*
X147404761Y-74136190D01*
X147452380Y-74279047D01*
X147452380Y-74374285D01*
X147452380Y-72993333D02*
X147452380Y-73564761D01*
X147452380Y-73279047D02*
X146452380Y-73279047D01*
X146595238Y-73374285D01*
X146690476Y-73469523D01*
X146738095Y-73564761D01*
%TO.C,J2*%
X146452380Y-97488333D02*
X147166666Y-97488333D01*
X147309523Y-97535952D01*
X147404761Y-97631190D01*
X147452380Y-97774047D01*
X147452380Y-97869285D01*
X146547619Y-97059761D02*
X146500000Y-97012142D01*
X146452380Y-96916904D01*
X146452380Y-96678809D01*
X146500000Y-96583571D01*
X146547619Y-96535952D01*
X146642857Y-96488333D01*
X146738095Y-96488333D01*
X146880952Y-96535952D01*
X147452380Y-97107380D01*
X147452380Y-96488333D01*
%TO.C,J3*%
X162012380Y-86058333D02*
X162726666Y-86058333D01*
X162869523Y-86105952D01*
X162964761Y-86201190D01*
X163012380Y-86344047D01*
X163012380Y-86439285D01*
X162012380Y-85677380D02*
X162012380Y-85058333D01*
X162393333Y-85391666D01*
X162393333Y-85248809D01*
X162440952Y-85153571D01*
X162488571Y-85105952D01*
X162583809Y-85058333D01*
X162821904Y-85058333D01*
X162917142Y-85105952D01*
X162964761Y-85153571D01*
X163012380Y-85248809D01*
X163012380Y-85534523D01*
X162964761Y-85629761D01*
X162917142Y-85677380D01*
%TO.C,T1*%
X146238095Y-86952380D02*
X146809523Y-86952380D01*
X146523809Y-87952380D02*
X146523809Y-86952380D01*
X147666666Y-87952380D02*
X147095238Y-87952380D01*
X147380952Y-87952380D02*
X147380952Y-86952380D01*
X147285714Y-87095238D01*
X147190476Y-87190476D01*
X147095238Y-87238095D01*
D11*
%TO.C,J1*%
X147100000Y-72400000D02*
G75*
G03*
X147100000Y-72400000I-100000J0D01*
G01*
%TO.C,J2*%
X147100000Y-98600000D02*
G75*
G03*
X147100000Y-98600000I-100000J0D01*
G01*
D12*
%TO.C,J3*%
X163670000Y-89410000D02*
X166330000Y-89410000D01*
X163670000Y-84270000D02*
X166330000Y-84270000D01*
X163670000Y-84270000D02*
X163670000Y-89410000D01*
X163670000Y-83000000D02*
X163670000Y-81670000D01*
X163670000Y-81670000D02*
X165000000Y-81670000D01*
X166330000Y-84270000D02*
X166330000Y-89410000D01*
%TO.C,T1*%
X154500000Y-79250000D02*
X154500000Y-92750000D01*
X139500000Y-92750000D02*
X139500000Y-79250000D01*
X154500000Y-92750000D02*
X139500000Y-92750000D01*
X139500000Y-79250000D02*
X154500000Y-79250000D01*
%TD*%
M02*
