M48
; DRILL file {KiCad (5.99.0-12374-g2479e1d7b1)} date Wed Nov 10 00:43:05 2021
; FORMAT={-:-/ absolute / inch / decimal}
; #@! TF.CreationDate,2021-11-10T00:43:05+03:00
; #@! TF.GenerationSoftware,Kicad,Pcbnew,(5.99.0-12374-g2479e1d7b1)
; #@! TF.FileFunction,Plated,1,2,PTH
FMAT,2
INCH
; #@! TA.AperFunction,Plated,PTH,ViaDrill
T1C0.0157
; #@! TA.AperFunction,Plated,PTH,ComponentDrill
T2C0.0394
; #@! TA.AperFunction,Plated,PTH,ComponentDrill
T3C0.0591
; #@! TA.AperFunction,Plated,PTH,ComponentDrill
T4C0.1378
%
G90
G05
T1
X5.575Y-2.725
X5.575Y-2.775
X5.575Y-2.825
X5.575Y-3.925
X5.575Y-3.975
X5.575Y-4.025
X5.5906Y-3.25
X5.5906Y-3.3
X5.5906Y-3.3465
X5.5906Y-3.4252
X5.5906Y-3.475
X5.5906Y-3.525
X5.65Y-3.3465
X5.65Y-3.425
X5.825Y-3.125
X5.825Y-3.65
X5.8268Y-3.3858
X6.0Y-2.725
X6.0Y-2.775
X6.0Y-2.825
X6.0Y-3.925
X6.0Y-3.975
X6.0Y-4.025
X6.0236Y-3.3858
T2
X5.5315Y-3.0217
X5.5315Y-3.75
X6.0433Y-3.0217
X6.0433Y-3.75
X6.4961Y-3.2677
X6.4961Y-3.3677
X6.4961Y-3.4677
T3
X5.6496Y-3.0217
X5.6496Y-3.75
X5.9252Y-3.0217
X5.9252Y-3.75
T4
X6.35Y-2.85
X6.35Y-3.875
T0
M30
