%TF.GenerationSoftware,KiCad,Pcbnew,(5.99.0-12374-g2479e1d7b1)*%
%TF.CreationDate,2021-11-10T00:42:54+03:00*%
%TF.ProjectId,swr,7377722e-6b69-4636-9164-5f7063625858,rev?*%
%TF.SameCoordinates,Original*%
%TF.FileFunction,Copper,L2,Bot*%
%TF.FilePolarity,Positive*%
%FSLAX46Y46*%
G04 Gerber Fmt 4.6, Leading zero omitted, Abs format (unit mm)*
G04 Created by KiCad (PCBNEW (5.99.0-12374-g2479e1d7b1)) date 2021-11-10 00:42:54*
%MOMM*%
%LPD*%
G01*
G04 APERTURE LIST*
G04 Aperture macros list*
%AMRoundRect*
0 Rectangle with rounded corners*
0 $1 Rounding radius*
0 $2 $3 $4 $5 $6 $7 $8 $9 X,Y pos of 4 corners*
0 Add a 4 corners polygon primitive as box body*
4,1,4,$2,$3,$4,$5,$6,$7,$8,$9,$2,$3,0*
0 Add four circle primitives for the rounded corners*
1,1,$1+$1,$2,$3*
1,1,$1+$1,$4,$5*
1,1,$1+$1,$6,$7*
1,1,$1+$1,$8,$9*
0 Add four rect primitives between the rounded corners*
20,1,$1+$1,$2,$3,$4,$5,0*
20,1,$1+$1,$4,$5,$6,$7,0*
20,1,$1+$1,$6,$7,$8,$9,0*
20,1,$1+$1,$8,$9,$2,$3,0*%
G04 Aperture macros list end*
%TA.AperFunction,SMDPad,CuDef*%
%ADD10R,1.500000X3.500000*%
%TD*%
%TA.AperFunction,ComponentPad*%
%ADD11R,1.700000X1.700000*%
%TD*%
%TA.AperFunction,ComponentPad*%
%ADD12O,1.700000X1.700000*%
%TD*%
%TA.AperFunction,ComponentPad*%
%ADD13C,1.524000*%
%TD*%
%TA.AperFunction,ComponentPad*%
%ADD14C,2.500000*%
%TD*%
%TA.AperFunction,ComponentPad*%
%ADD15C,7.000000*%
%TD*%
%TA.AperFunction,SMDPad,CuDef*%
%ADD16RoundRect,0.237500X0.237500X-0.300000X0.237500X0.300000X-0.237500X0.300000X-0.237500X-0.300000X0*%
%TD*%
%TA.AperFunction,SMDPad,CuDef*%
%ADD17R,1.500000X2.700000*%
%TD*%
%TA.AperFunction,SMDPad,CuDef*%
%ADD18RoundRect,0.237500X0.237500X-0.250000X0.237500X0.250000X-0.237500X0.250000X-0.237500X-0.250000X0*%
%TD*%
%TA.AperFunction,SMDPad,CuDef*%
%ADD19RoundRect,0.249999X-0.450001X-1.425001X0.450001X-1.425001X0.450001X1.425001X-0.450001X1.425001X0*%
%TD*%
%TA.AperFunction,SMDPad,CuDef*%
%ADD20RoundRect,0.249999X0.450001X1.425001X-0.450001X1.425001X-0.450001X-1.425001X0.450001X-1.425001X0*%
%TD*%
%TA.AperFunction,SMDPad,CuDef*%
%ADD21RoundRect,0.237500X-0.237500X0.250000X-0.237500X-0.250000X0.237500X-0.250000X0.237500X0.250000X0*%
%TD*%
%TA.AperFunction,ViaPad*%
%ADD22C,0.800000*%
%TD*%
%TA.AperFunction,Conductor*%
%ADD23C,0.500000*%
%TD*%
%TA.AperFunction,Conductor*%
%ADD24C,1.000000*%
%TD*%
G04 APERTURE END LIST*
D10*
%TO.P,J1,2,Ext*%
%TO.N,GND*%
X144300000Y-70000000D03*
X149700000Y-70000000D03*
%TD*%
%TO.P,J2,2,Ext*%
%TO.N,GND*%
X144300000Y-101000000D03*
X149700000Y-101000000D03*
%TD*%
D11*
%TO.P,J3,1,Pin_1*%
%TO.N,Net-(C4-Pad1)*%
X165000000Y-83000000D03*
D12*
%TO.P,J3,2,Pin_2*%
%TO.N,GND*%
X165000000Y-85540000D03*
%TO.P,J3,3,Pin_3*%
%TO.N,Net-(C2-Pad2)*%
X165000000Y-88080000D03*
%TD*%
D13*
%TO.P,T1,1*%
%TO.N,Net-(J1-Pad1)*%
X140500000Y-76750000D03*
D14*
%TO.P,T1,2*%
%TO.N,Net-(D2-Pad2)*%
X143500000Y-76750000D03*
%TO.P,T1,3*%
%TO.N,Net-(J1-Pad1)*%
X150500000Y-76750000D03*
D13*
%TO.P,T1,4*%
%TO.N,Net-(D2-Pad2)*%
X153500000Y-76750000D03*
%TO.P,T1,5*%
%TO.N,GND*%
X140500000Y-95250000D03*
D14*
%TO.P,T1,6*%
%TO.N,Net-(D1-Pad2)*%
X143500000Y-95250000D03*
%TO.P,T1,7*%
%TO.N,Net-(J2-Pad1)*%
X150500000Y-95250000D03*
D13*
%TO.P,T1,8*%
%TO.N,GND*%
X153500000Y-95250000D03*
%TD*%
D15*
%TO.P,H2,1,1*%
%TO.N,GND*%
X161290000Y-98425000D03*
%TD*%
%TO.P,H1,1,1*%
%TO.N,GND*%
X161290000Y-72390000D03*
%TD*%
D16*
%TO.P,C1,1*%
%TO.N,GND*%
X158000000Y-93862500D03*
%TO.P,C1,2*%
%TO.N,Net-(C1-Pad2)*%
X158000000Y-92137500D03*
%TD*%
%TO.P,C3,1*%
%TO.N,Net-(C3-Pad1)*%
X158000000Y-79862500D03*
%TO.P,C3,2*%
%TO.N,GND*%
X158000000Y-78137500D03*
%TD*%
%TO.P,C4,1*%
%TO.N,Net-(C4-Pad1)*%
X161000000Y-83862500D03*
%TO.P,C4,2*%
%TO.N,GND*%
X161000000Y-82137500D03*
%TD*%
D17*
%TO.P,D1,1,K*%
%TO.N,Net-(C1-Pad2)*%
X155400000Y-89000000D03*
%TO.P,D1,2,A*%
%TO.N,Net-(D1-Pad2)*%
X150600000Y-89000000D03*
%TD*%
%TO.P,D2,1,K*%
%TO.N,Net-(C3-Pad1)*%
X155400000Y-83000000D03*
%TO.P,D2,2,A*%
%TO.N,Net-(D2-Pad2)*%
X150600000Y-83000000D03*
%TD*%
D18*
%TO.P,R1,1*%
%TO.N,Net-(C1-Pad2)*%
X158000000Y-89912500D03*
%TO.P,R1,2*%
%TO.N,Net-(C2-Pad2)*%
X158000000Y-88087500D03*
%TD*%
D19*
%TO.P,R2,1*%
%TO.N,GND*%
X139950000Y-89000000D03*
%TO.P,R2,2*%
%TO.N,Net-(D1-Pad2)*%
X146050000Y-89000000D03*
%TD*%
D20*
%TO.P,R3,1*%
%TO.N,Net-(D2-Pad2)*%
X146050000Y-83000000D03*
%TO.P,R3,2*%
%TO.N,GND*%
X139950000Y-83000000D03*
%TD*%
D21*
%TO.P,R4,1*%
%TO.N,Net-(C3-Pad1)*%
X158000000Y-82087500D03*
%TO.P,R4,2*%
%TO.N,Net-(C4-Pad1)*%
X158000000Y-83912500D03*
%TD*%
D16*
%TO.P,C2,1*%
%TO.N,GND*%
X161000000Y-89862500D03*
%TO.P,C2,2*%
%TO.N,Net-(C2-Pad2)*%
X161000000Y-88137500D03*
%TD*%
D22*
%TO.N,GND*%
X147955000Y-79375000D03*
X142000000Y-87000000D03*
X152400000Y-69215000D03*
X142000000Y-88265000D03*
X152400000Y-102235000D03*
X142000000Y-82550000D03*
X143510000Y-86995000D03*
X141605000Y-99695000D03*
X152400000Y-70485000D03*
X142000000Y-85000000D03*
X148000000Y-86000000D03*
X142000000Y-83820000D03*
X141605000Y-100965000D03*
X152400000Y-99695000D03*
X152400000Y-100965000D03*
X141605000Y-70485000D03*
X152400000Y-71755000D03*
X141605000Y-69215000D03*
X143510000Y-85000000D03*
X147955000Y-92710000D03*
X153000000Y-86000000D03*
X141605000Y-102235000D03*
X142000000Y-89535000D03*
X141605000Y-71755000D03*
%TD*%
D23*
%TO.N,Net-(C1-Pad2)*%
X158000000Y-89912500D02*
X158000000Y-92137500D01*
X157087500Y-89000000D02*
X158000000Y-89912500D01*
X155400000Y-89000000D02*
X157087500Y-89000000D01*
%TO.N,Net-(C2-Pad2)*%
X160950000Y-88087500D02*
X161000000Y-88137500D01*
X158000000Y-88087500D02*
X160950000Y-88087500D01*
X161000000Y-88137500D02*
X164942500Y-88137500D01*
X164942500Y-88137500D02*
X165000000Y-88080000D01*
%TO.N,Net-(C3-Pad1)*%
X155400000Y-83000000D02*
X157087500Y-83000000D01*
X157087500Y-83000000D02*
X158000000Y-82087500D01*
X158000000Y-82087500D02*
X158000000Y-79862500D01*
%TO.N,Net-(C4-Pad1)*%
X160950000Y-83912500D02*
X161000000Y-83862500D01*
X161000000Y-83862500D02*
X164137500Y-83862500D01*
X164137500Y-83862500D02*
X165000000Y-83000000D01*
X158000000Y-83912500D02*
X160950000Y-83912500D01*
D24*
%TO.N,Net-(D1-Pad2)*%
X143500000Y-95250000D02*
X143500000Y-91550000D01*
X143500000Y-91550000D02*
X146050000Y-89000000D01*
X146050000Y-89000000D02*
X150600000Y-89000000D01*
%TO.N,Net-(D2-Pad2)*%
X153500000Y-76750000D02*
X153500000Y-80100000D01*
X153500000Y-80100000D02*
X150600000Y-83000000D01*
X143500000Y-80450000D02*
X146050000Y-83000000D01*
X143500000Y-76750000D02*
X143500000Y-80450000D01*
X146050000Y-83000000D02*
X150600000Y-83000000D01*
%TD*%
%TA.AperFunction,Conductor*%
%TO.N,GND*%
G36*
X142991650Y-68020002D02*
G01*
X143038143Y-68073658D01*
X143047635Y-68139672D01*
X143048748Y-68139793D01*
X143042369Y-68198514D01*
X143042000Y-68205328D01*
X143042000Y-69727885D01*
X143046475Y-69743124D01*
X143047865Y-69744329D01*
X143055548Y-69746000D01*
X145539884Y-69746000D01*
X145555123Y-69741525D01*
X145556328Y-69740135D01*
X145557999Y-69732452D01*
X145557999Y-68205331D01*
X145557629Y-68198510D01*
X145551252Y-68139793D01*
X145554738Y-68139414D01*
X145557526Y-68084426D01*
X145598885Y-68026720D01*
X145664877Y-68000534D01*
X145676470Y-68000000D01*
X148323529Y-68000000D01*
X148391650Y-68020002D01*
X148438143Y-68073658D01*
X148447635Y-68139672D01*
X148448748Y-68139793D01*
X148442369Y-68198514D01*
X148442000Y-68205328D01*
X148442000Y-69727885D01*
X148446475Y-69743124D01*
X148447865Y-69744329D01*
X148455548Y-69746000D01*
X150939884Y-69746000D01*
X150955123Y-69741525D01*
X150956328Y-69740135D01*
X150957999Y-69732452D01*
X150957999Y-68205331D01*
X150957629Y-68198510D01*
X150951252Y-68139793D01*
X150954738Y-68139414D01*
X150957526Y-68084426D01*
X150998885Y-68026720D01*
X151064877Y-68000534D01*
X151076470Y-68000000D01*
X165874000Y-68000000D01*
X165942121Y-68020002D01*
X165988614Y-68073658D01*
X166000000Y-68126000D01*
X166000000Y-81023500D01*
X165979998Y-81091621D01*
X165926342Y-81138114D01*
X165874000Y-81149500D01*
X164092184Y-81149500D01*
X164089397Y-81149749D01*
X164089391Y-81149749D01*
X164010883Y-81156756D01*
X163971913Y-81160234D01*
X163776530Y-81216259D01*
X163596404Y-81310427D01*
X163591461Y-81314458D01*
X163591460Y-81314459D01*
X163527166Y-81366896D01*
X163438891Y-81438891D01*
X163434862Y-81443831D01*
X163347329Y-81551158D01*
X163310427Y-81596404D01*
X163216259Y-81776530D01*
X163160234Y-81971913D01*
X163149500Y-82092184D01*
X163149500Y-82486000D01*
X163129498Y-82554121D01*
X163075842Y-82600614D01*
X163023500Y-82612000D01*
X162109000Y-82612000D01*
X162040879Y-82591998D01*
X161994386Y-82538342D01*
X161983000Y-82486000D01*
X161983000Y-82409615D01*
X161978525Y-82394376D01*
X161977135Y-82393171D01*
X161969452Y-82391500D01*
X161671092Y-82391500D01*
X161639757Y-82387541D01*
X161438374Y-82335834D01*
X161374851Y-82330667D01*
X161301575Y-82324707D01*
X161301563Y-82324707D01*
X161299024Y-82324500D01*
X160700976Y-82324500D01*
X160698437Y-82324707D01*
X160698425Y-82324707D01*
X160625149Y-82330667D01*
X160561626Y-82335834D01*
X160360243Y-82387541D01*
X160328908Y-82391500D01*
X160035115Y-82391500D01*
X160019876Y-82395975D01*
X160018671Y-82397365D01*
X160017000Y-82405048D01*
X160017000Y-82483766D01*
X160017337Y-82490285D01*
X160017643Y-82493229D01*
X160004783Y-82563051D01*
X159973142Y-82602901D01*
X159969788Y-82605706D01*
X159965176Y-82608911D01*
X159948992Y-82625095D01*
X159886680Y-82659121D01*
X159859897Y-82662000D01*
X159590775Y-82662000D01*
X159522654Y-82641998D01*
X159476161Y-82588342D01*
X159465190Y-82525786D01*
X159475293Y-82401575D01*
X159475293Y-82401563D01*
X159475500Y-82399024D01*
X159475500Y-81791185D01*
X160017000Y-81791185D01*
X160017000Y-81865385D01*
X160021475Y-81880624D01*
X160022865Y-81881829D01*
X160030548Y-81883500D01*
X160727885Y-81883500D01*
X160743124Y-81879025D01*
X160744329Y-81877635D01*
X160746000Y-81869952D01*
X160746000Y-81110115D01*
X160744659Y-81105548D01*
X161254000Y-81105548D01*
X161254000Y-81865385D01*
X161258475Y-81880624D01*
X161259865Y-81881829D01*
X161267548Y-81883500D01*
X161964885Y-81883500D01*
X161980124Y-81879025D01*
X161981329Y-81877635D01*
X161983000Y-81869952D01*
X161983000Y-81791234D01*
X161982663Y-81784718D01*
X161972925Y-81690868D01*
X161970032Y-81677472D01*
X161919512Y-81526047D01*
X161913347Y-81512885D01*
X161829574Y-81377508D01*
X161820540Y-81366110D01*
X161707871Y-81253637D01*
X161696460Y-81244625D01*
X161560937Y-81161088D01*
X161547759Y-81154944D01*
X161396234Y-81104685D01*
X161382868Y-81101819D01*
X161290230Y-81092328D01*
X161283815Y-81092000D01*
X161272115Y-81092000D01*
X161256876Y-81096475D01*
X161255671Y-81097865D01*
X161254000Y-81105548D01*
X160744659Y-81105548D01*
X160741525Y-81094876D01*
X160740135Y-81093671D01*
X160732452Y-81092000D01*
X160716234Y-81092000D01*
X160709718Y-81092337D01*
X160615868Y-81102075D01*
X160602472Y-81104968D01*
X160451047Y-81155488D01*
X160437885Y-81161653D01*
X160302508Y-81245426D01*
X160291110Y-81254460D01*
X160178637Y-81367129D01*
X160169625Y-81378540D01*
X160086088Y-81514063D01*
X160079944Y-81527241D01*
X160029685Y-81678766D01*
X160026819Y-81692132D01*
X160017328Y-81784770D01*
X160017000Y-81791185D01*
X159475500Y-81791185D01*
X159475500Y-81775976D01*
X159464166Y-81636626D01*
X159409207Y-81422577D01*
X159404546Y-81412396D01*
X159319548Y-81226744D01*
X159319545Y-81226739D01*
X159317212Y-81221643D01*
X159273035Y-81158080D01*
X159250500Y-81086171D01*
X159250500Y-80913829D01*
X159273035Y-80841919D01*
X159288356Y-80819876D01*
X159317212Y-80778357D01*
X159319545Y-80773261D01*
X159319548Y-80773256D01*
X159406870Y-80582528D01*
X159406871Y-80582526D01*
X159409207Y-80577423D01*
X159464166Y-80363374D01*
X159475500Y-80224024D01*
X159475500Y-79500976D01*
X159474966Y-79494403D01*
X159464601Y-79366979D01*
X159464166Y-79361626D01*
X159409207Y-79147577D01*
X159343957Y-79005059D01*
X159319548Y-78951744D01*
X159319545Y-78951739D01*
X159317212Y-78946643D01*
X159314011Y-78942037D01*
X159194292Y-78769784D01*
X159194290Y-78769782D01*
X159191089Y-78765176D01*
X159034824Y-78608911D01*
X159030219Y-78605710D01*
X159026864Y-78602905D01*
X158987437Y-78543862D01*
X158982347Y-78493401D01*
X158982673Y-78490224D01*
X158983000Y-78483815D01*
X158983000Y-78409615D01*
X158978525Y-78394376D01*
X158977135Y-78393171D01*
X158969452Y-78391500D01*
X158671092Y-78391500D01*
X158639757Y-78387541D01*
X158438374Y-78335834D01*
X158374851Y-78330667D01*
X158301575Y-78324707D01*
X158301563Y-78324707D01*
X158299024Y-78324500D01*
X157700976Y-78324500D01*
X157698437Y-78324707D01*
X157698425Y-78324707D01*
X157625149Y-78330667D01*
X157561626Y-78335834D01*
X157360243Y-78387541D01*
X157328908Y-78391500D01*
X157035115Y-78391500D01*
X157019876Y-78395975D01*
X157018671Y-78397365D01*
X157017000Y-78405048D01*
X157017000Y-78483766D01*
X157017337Y-78490285D01*
X157017643Y-78493229D01*
X157004783Y-78563051D01*
X156973142Y-78602901D01*
X156969788Y-78605706D01*
X156965176Y-78608911D01*
X156808911Y-78765176D01*
X156805710Y-78769782D01*
X156805708Y-78769784D01*
X156685989Y-78942037D01*
X156682788Y-78946643D01*
X156680455Y-78951739D01*
X156680452Y-78951744D01*
X156656043Y-79005059D01*
X156590793Y-79147577D01*
X156535834Y-79361626D01*
X156535399Y-79366979D01*
X156525035Y-79494403D01*
X156524500Y-79500976D01*
X156524500Y-80224024D01*
X156535834Y-80363374D01*
X156579208Y-80532303D01*
X156579910Y-80535036D01*
X156577478Y-80605991D01*
X156537070Y-80664367D01*
X156471517Y-80691630D01*
X156423141Y-80687490D01*
X156328087Y-80660234D01*
X156296455Y-80657411D01*
X156210609Y-80649749D01*
X156210603Y-80649749D01*
X156207816Y-80649500D01*
X155072748Y-80649500D01*
X155004627Y-80629498D01*
X154958134Y-80575842D01*
X154948030Y-80505568D01*
X154949547Y-80497089D01*
X154957123Y-80461749D01*
X154958907Y-80454488D01*
X154977592Y-80387113D01*
X154977592Y-80387111D01*
X154978974Y-80382129D01*
X154979523Y-80376988D01*
X154979525Y-80376980D01*
X154983028Y-80344208D01*
X154985113Y-80331189D01*
X154992018Y-80298980D01*
X154992019Y-80298971D01*
X154993102Y-80293920D01*
X154993401Y-80287596D01*
X154996639Y-80218918D01*
X154997213Y-80211462D01*
X155000143Y-80184045D01*
X155000500Y-80180708D01*
X155000500Y-80140027D01*
X155000640Y-80134091D01*
X155004482Y-80052619D01*
X155004726Y-80047454D01*
X155001361Y-80018810D01*
X155000500Y-80004109D01*
X155000500Y-77791185D01*
X157017000Y-77791185D01*
X157017000Y-77865385D01*
X157021475Y-77880624D01*
X157022865Y-77881829D01*
X157030548Y-77883500D01*
X157727885Y-77883500D01*
X157743124Y-77879025D01*
X157744329Y-77877635D01*
X157746000Y-77869952D01*
X157746000Y-77110115D01*
X157744659Y-77105548D01*
X158254000Y-77105548D01*
X158254000Y-77865385D01*
X158258475Y-77880624D01*
X158259865Y-77881829D01*
X158267548Y-77883500D01*
X158964885Y-77883500D01*
X158980124Y-77879025D01*
X158981329Y-77877635D01*
X158983000Y-77869952D01*
X158983000Y-77791234D01*
X158982663Y-77784718D01*
X158972925Y-77690868D01*
X158970032Y-77677472D01*
X158919512Y-77526047D01*
X158913347Y-77512885D01*
X158829574Y-77377508D01*
X158820540Y-77366110D01*
X158707871Y-77253637D01*
X158696460Y-77244625D01*
X158560937Y-77161088D01*
X158547759Y-77154944D01*
X158396234Y-77104685D01*
X158382868Y-77101819D01*
X158290230Y-77092328D01*
X158283815Y-77092000D01*
X158272115Y-77092000D01*
X158256876Y-77096475D01*
X158255671Y-77097865D01*
X158254000Y-77105548D01*
X157744659Y-77105548D01*
X157741525Y-77094876D01*
X157740135Y-77093671D01*
X157732452Y-77092000D01*
X157716234Y-77092000D01*
X157709718Y-77092337D01*
X157615868Y-77102075D01*
X157602472Y-77104968D01*
X157451047Y-77155488D01*
X157437885Y-77161653D01*
X157302508Y-77245426D01*
X157291110Y-77254460D01*
X157178637Y-77367129D01*
X157169625Y-77378540D01*
X157086088Y-77514063D01*
X157079944Y-77527241D01*
X157029685Y-77678766D01*
X157026819Y-77692132D01*
X157017328Y-77784770D01*
X157017000Y-77791185D01*
X155000500Y-77791185D01*
X155000500Y-77712395D01*
X155020528Y-77644234D01*
X155053258Y-77593350D01*
X155160852Y-77354501D01*
X155231960Y-77102371D01*
X155248802Y-76969985D01*
X155264622Y-76845631D01*
X155264622Y-76845627D01*
X155265020Y-76842501D01*
X155267442Y-76750000D01*
X155248028Y-76488755D01*
X155190213Y-76233250D01*
X155188520Y-76228896D01*
X155096960Y-75993450D01*
X155096959Y-75993448D01*
X155095267Y-75989097D01*
X155074015Y-75951914D01*
X154967595Y-75765716D01*
X154967593Y-75765714D01*
X154965276Y-75761659D01*
X154803095Y-75555933D01*
X154612287Y-75376440D01*
X154581418Y-75355025D01*
X154400887Y-75229785D01*
X154400884Y-75229783D01*
X154397045Y-75227120D01*
X154392855Y-75225054D01*
X154392852Y-75225052D01*
X154166283Y-75113321D01*
X154166280Y-75113320D01*
X154162095Y-75111256D01*
X154115832Y-75096447D01*
X154061752Y-75079136D01*
X153912601Y-75031393D01*
X153907994Y-75030643D01*
X153907991Y-75030642D01*
X153658654Y-74990035D01*
X153658655Y-74990035D01*
X153654043Y-74989284D01*
X153526858Y-74987619D01*
X153396777Y-74985916D01*
X153396774Y-74985916D01*
X153392100Y-74985855D01*
X153132528Y-75021181D01*
X153128042Y-75022489D01*
X153128040Y-75022489D01*
X153097492Y-75031393D01*
X152881029Y-75094486D01*
X152643127Y-75204160D01*
X152424049Y-75347794D01*
X152421652Y-75349933D01*
X152355793Y-75375398D01*
X152286243Y-75361136D01*
X152250572Y-75332913D01*
X152097467Y-75158331D01*
X152094758Y-75155242D01*
X152091669Y-75152533D01*
X151876057Y-74963445D01*
X151876051Y-74963441D01*
X151872957Y-74960727D01*
X151869527Y-74958435D01*
X151869526Y-74958434D01*
X151631098Y-74799122D01*
X151627665Y-74796828D01*
X151623966Y-74795004D01*
X151623961Y-74795001D01*
X151366772Y-74668170D01*
X151366770Y-74668169D01*
X151363077Y-74666348D01*
X151359177Y-74665024D01*
X151087632Y-74572846D01*
X151087628Y-74572845D01*
X151083722Y-74571519D01*
X151079678Y-74570715D01*
X151079672Y-74570713D01*
X150798423Y-74514770D01*
X150798420Y-74514770D01*
X150794380Y-74513966D01*
X150790269Y-74513697D01*
X150790265Y-74513696D01*
X150504119Y-74494941D01*
X150500000Y-74494671D01*
X150495881Y-74494941D01*
X150209735Y-74513696D01*
X150209731Y-74513697D01*
X150205620Y-74513966D01*
X150201580Y-74514770D01*
X150201577Y-74514770D01*
X149920328Y-74570713D01*
X149920322Y-74570715D01*
X149916278Y-74571519D01*
X149912372Y-74572845D01*
X149912368Y-74572846D01*
X149640823Y-74665024D01*
X149636923Y-74666348D01*
X149633230Y-74668169D01*
X149633228Y-74668170D01*
X149376040Y-74795001D01*
X149376035Y-74795004D01*
X149372336Y-74796828D01*
X149127043Y-74960727D01*
X149123949Y-74963441D01*
X149123943Y-74963445D01*
X148908331Y-75152533D01*
X148905242Y-75155242D01*
X148902533Y-75158331D01*
X148713445Y-75373943D01*
X148713441Y-75373949D01*
X148710727Y-75377043D01*
X148546828Y-75622336D01*
X148545004Y-75626035D01*
X148545001Y-75626040D01*
X148418170Y-75883228D01*
X148416348Y-75886923D01*
X148415025Y-75890821D01*
X148415024Y-75890823D01*
X148380187Y-75993450D01*
X148321519Y-76166278D01*
X148320715Y-76170322D01*
X148320713Y-76170328D01*
X148264770Y-76451577D01*
X148263966Y-76455620D01*
X148263697Y-76459731D01*
X148263696Y-76459735D01*
X148261794Y-76488755D01*
X148244671Y-76750000D01*
X148263966Y-77044380D01*
X148264770Y-77048420D01*
X148264770Y-77048423D01*
X148303797Y-77244625D01*
X148321519Y-77333722D01*
X148322845Y-77337628D01*
X148322846Y-77337632D01*
X148415024Y-77609177D01*
X148416348Y-77613077D01*
X148418169Y-77616770D01*
X148418170Y-77616772D01*
X148543025Y-77869952D01*
X148546828Y-77877664D01*
X148710727Y-78122957D01*
X148713441Y-78126051D01*
X148713445Y-78126057D01*
X148818733Y-78246114D01*
X148905242Y-78344758D01*
X148908331Y-78347467D01*
X149123943Y-78536555D01*
X149123949Y-78536559D01*
X149127043Y-78539273D01*
X149130469Y-78541562D01*
X149130474Y-78541566D01*
X149271908Y-78636069D01*
X149372335Y-78703172D01*
X149376034Y-78704996D01*
X149376039Y-78704999D01*
X149507411Y-78769784D01*
X149636923Y-78833652D01*
X149640821Y-78834975D01*
X149640823Y-78834976D01*
X149912368Y-78927154D01*
X149912372Y-78927155D01*
X149916278Y-78928481D01*
X149920322Y-78929285D01*
X149920328Y-78929287D01*
X150201577Y-78985230D01*
X150201580Y-78985230D01*
X150205620Y-78986034D01*
X150209731Y-78986303D01*
X150209735Y-78986304D01*
X150495881Y-79005059D01*
X150500000Y-79005329D01*
X150504119Y-79005059D01*
X150790265Y-78986304D01*
X150790269Y-78986303D01*
X150794380Y-78986034D01*
X150798420Y-78985230D01*
X150798423Y-78985230D01*
X151079672Y-78929287D01*
X151079678Y-78929285D01*
X151083722Y-78928481D01*
X151087628Y-78927155D01*
X151087632Y-78927154D01*
X151359177Y-78834976D01*
X151359179Y-78834975D01*
X151363077Y-78833652D01*
X151492589Y-78769784D01*
X151623961Y-78704999D01*
X151623966Y-78704996D01*
X151627665Y-78703172D01*
X151803498Y-78585684D01*
X151871251Y-78564469D01*
X151939718Y-78583252D01*
X151987161Y-78636069D01*
X151999500Y-78690449D01*
X151999500Y-79426282D01*
X151979498Y-79494403D01*
X151962595Y-79515377D01*
X150865378Y-80612595D01*
X150803066Y-80646620D01*
X150776283Y-80649500D01*
X149792184Y-80649500D01*
X149789397Y-80649749D01*
X149789391Y-80649749D01*
X149703545Y-80657411D01*
X149671913Y-80660234D01*
X149476530Y-80716259D01*
X149296404Y-80810427D01*
X149291461Y-80814458D01*
X149291460Y-80814459D01*
X149196589Y-80891834D01*
X149138891Y-80938891D01*
X149134862Y-80943831D01*
X149022546Y-81081545D01*
X149010427Y-81096404D01*
X149007472Y-81102057D01*
X149007471Y-81102058D01*
X149004788Y-81107190D01*
X148916259Y-81276530D01*
X148890573Y-81366110D01*
X148878495Y-81408230D01*
X148840491Y-81468199D01*
X148776099Y-81498101D01*
X148757376Y-81499500D01*
X147865581Y-81499500D01*
X147797460Y-81479498D01*
X147750967Y-81425842D01*
X147739996Y-81383717D01*
X147739486Y-81377447D01*
X147739051Y-81372097D01*
X147729952Y-81336656D01*
X147684934Y-81161328D01*
X147683537Y-81155887D01*
X147654288Y-81092000D01*
X147617215Y-81011027D01*
X147590614Y-80952924D01*
X147578308Y-80935217D01*
X147545325Y-80887762D01*
X147463218Y-80769625D01*
X147305375Y-80611782D01*
X147166315Y-80515133D01*
X147126682Y-80487587D01*
X147126680Y-80487586D01*
X147122076Y-80484386D01*
X146995020Y-80426216D01*
X146924218Y-80393800D01*
X146924216Y-80393799D01*
X146919113Y-80391463D01*
X146702903Y-80335949D01*
X146638769Y-80330733D01*
X146564690Y-80324707D01*
X146564678Y-80324707D01*
X146562139Y-80324500D01*
X146366999Y-80324500D01*
X145548718Y-80324501D01*
X145480597Y-80304499D01*
X145459623Y-80287596D01*
X145037405Y-79865378D01*
X145003379Y-79803066D01*
X145000500Y-79776283D01*
X145000500Y-78484510D01*
X145020502Y-78416389D01*
X145043423Y-78389778D01*
X145091662Y-78347474D01*
X145091669Y-78347467D01*
X145094758Y-78344758D01*
X145181267Y-78246114D01*
X145286555Y-78126057D01*
X145286559Y-78126051D01*
X145289273Y-78122957D01*
X145453172Y-77877664D01*
X145456976Y-77869952D01*
X145581830Y-77616772D01*
X145581831Y-77616770D01*
X145583652Y-77613077D01*
X145584976Y-77609177D01*
X145677154Y-77337632D01*
X145677155Y-77337628D01*
X145678481Y-77333722D01*
X145696204Y-77244625D01*
X145735230Y-77048423D01*
X145735230Y-77048420D01*
X145736034Y-77044380D01*
X145755329Y-76750000D01*
X145738206Y-76488755D01*
X145736304Y-76459735D01*
X145736303Y-76459731D01*
X145736034Y-76455620D01*
X145735230Y-76451577D01*
X145679287Y-76170328D01*
X145679285Y-76170322D01*
X145678481Y-76166278D01*
X145619814Y-75993450D01*
X145584976Y-75890823D01*
X145584975Y-75890821D01*
X145583652Y-75886923D01*
X145581830Y-75883228D01*
X145454999Y-75626040D01*
X145454996Y-75626035D01*
X145453172Y-75622336D01*
X145289273Y-75377043D01*
X145286559Y-75373949D01*
X145286555Y-75373943D01*
X145097467Y-75158331D01*
X145094758Y-75155242D01*
X145091669Y-75152533D01*
X144876057Y-74963445D01*
X144876051Y-74963441D01*
X144872957Y-74960727D01*
X144869527Y-74958435D01*
X144869526Y-74958434D01*
X144631098Y-74799122D01*
X144627665Y-74796828D01*
X144623966Y-74795004D01*
X144623961Y-74795001D01*
X144366772Y-74668170D01*
X144366770Y-74668169D01*
X144363077Y-74666348D01*
X144359177Y-74665024D01*
X144087632Y-74572846D01*
X144087628Y-74572845D01*
X144083722Y-74571519D01*
X144079678Y-74570715D01*
X144079672Y-74570713D01*
X143798423Y-74514770D01*
X143798420Y-74514770D01*
X143794380Y-74513966D01*
X143790269Y-74513697D01*
X143790265Y-74513696D01*
X143504119Y-74494941D01*
X143500000Y-74494671D01*
X143495881Y-74494941D01*
X143209735Y-74513696D01*
X143209731Y-74513697D01*
X143205620Y-74513966D01*
X143201580Y-74514770D01*
X143201577Y-74514770D01*
X142920328Y-74570713D01*
X142920322Y-74570715D01*
X142916278Y-74571519D01*
X142912372Y-74572845D01*
X142912368Y-74572846D01*
X142640823Y-74665024D01*
X142636923Y-74666348D01*
X142633230Y-74668169D01*
X142633228Y-74668170D01*
X142376040Y-74795001D01*
X142376035Y-74795004D01*
X142372336Y-74796828D01*
X142127043Y-74960727D01*
X142123949Y-74963441D01*
X142123943Y-74963445D01*
X141908331Y-75152533D01*
X141905242Y-75155242D01*
X141842207Y-75227120D01*
X141747970Y-75334576D01*
X141688016Y-75372603D01*
X141617021Y-75372181D01*
X141581418Y-75355025D01*
X141400887Y-75229785D01*
X141400884Y-75229783D01*
X141397045Y-75227120D01*
X141392855Y-75225054D01*
X141392852Y-75225052D01*
X141166283Y-75113321D01*
X141166280Y-75113320D01*
X141162095Y-75111256D01*
X141115832Y-75096447D01*
X141061752Y-75079136D01*
X140912601Y-75031393D01*
X140907994Y-75030643D01*
X140907991Y-75030642D01*
X140658654Y-74990035D01*
X140658655Y-74990035D01*
X140654043Y-74989284D01*
X140526858Y-74987619D01*
X140396777Y-74985916D01*
X140396774Y-74985916D01*
X140392100Y-74985855D01*
X140132528Y-75021181D01*
X140128042Y-75022489D01*
X140128040Y-75022489D01*
X140097492Y-75031393D01*
X139881029Y-75094486D01*
X139643127Y-75204160D01*
X139608107Y-75227120D01*
X139427962Y-75345228D01*
X139427958Y-75345231D01*
X139424049Y-75347794D01*
X139228609Y-75522232D01*
X139061098Y-75723641D01*
X138925198Y-75947598D01*
X138923389Y-75951912D01*
X138923388Y-75951914D01*
X138905971Y-75993450D01*
X138823893Y-76189182D01*
X138759409Y-76443087D01*
X138733164Y-76703734D01*
X138745732Y-76965397D01*
X138746645Y-76969985D01*
X138784658Y-77161088D01*
X138796839Y-77222328D01*
X138798418Y-77226726D01*
X138798420Y-77226733D01*
X138883778Y-77464474D01*
X138885361Y-77468883D01*
X139009355Y-77699646D01*
X139012150Y-77703389D01*
X139012152Y-77703392D01*
X139163303Y-77905808D01*
X139163308Y-77905814D01*
X139166095Y-77909546D01*
X139169404Y-77912826D01*
X139169409Y-77912832D01*
X139324323Y-78066400D01*
X139352138Y-78093973D01*
X139355900Y-78096731D01*
X139355903Y-78096734D01*
X139472667Y-78182349D01*
X139563398Y-78248876D01*
X139567529Y-78251050D01*
X139567530Y-78251050D01*
X139791099Y-78368675D01*
X139791105Y-78368677D01*
X139795234Y-78370850D01*
X139799642Y-78372389D01*
X139799648Y-78372392D01*
X140038136Y-78455676D01*
X140042552Y-78457218D01*
X140299920Y-78506081D01*
X140424175Y-78510963D01*
X140557015Y-78516182D01*
X140557020Y-78516182D01*
X140561683Y-78516365D01*
X140663540Y-78505210D01*
X140817438Y-78488356D01*
X140817444Y-78488355D01*
X140822091Y-78487846D01*
X140944281Y-78455676D01*
X141070900Y-78422340D01*
X141070902Y-78422339D01*
X141075423Y-78421149D01*
X141079720Y-78419303D01*
X141311820Y-78319585D01*
X141311822Y-78319584D01*
X141316114Y-78317740D01*
X141538876Y-78179891D01*
X141571657Y-78152140D01*
X141636573Y-78123392D01*
X141706726Y-78134304D01*
X141747799Y-78165229D01*
X141905242Y-78344758D01*
X141908331Y-78347467D01*
X141908338Y-78347474D01*
X141956577Y-78389778D01*
X141994605Y-78449731D01*
X141999500Y-78484510D01*
X141999500Y-80334268D01*
X141998243Y-80352021D01*
X141997007Y-80360706D01*
X141997124Y-80365868D01*
X141997124Y-80365871D01*
X141999468Y-80469150D01*
X141999500Y-80472009D01*
X141999500Y-80512554D01*
X141999710Y-80515109D01*
X141999711Y-80515133D01*
X142000509Y-80524839D01*
X142000901Y-80532298D01*
X142002605Y-80607382D01*
X142003563Y-80612454D01*
X142003564Y-80612460D01*
X142009684Y-80644847D01*
X142011451Y-80657916D01*
X142013883Y-80687490D01*
X142014575Y-80695911D01*
X142015835Y-80700926D01*
X142032869Y-80768746D01*
X142034474Y-80776045D01*
X142047457Y-80844753D01*
X142048417Y-80849833D01*
X142050192Y-80854684D01*
X142050193Y-80854687D01*
X142061518Y-80885633D01*
X142065395Y-80898236D01*
X142074684Y-80935217D01*
X142082383Y-80952924D01*
X142104629Y-81004087D01*
X142107404Y-81011025D01*
X142133211Y-81081545D01*
X142148314Y-81108239D01*
X142151983Y-81114724D01*
X142157869Y-81126528D01*
X142173072Y-81161493D01*
X142213862Y-81224545D01*
X142217727Y-81230927D01*
X142252164Y-81291795D01*
X142252169Y-81291803D01*
X142254712Y-81296297D01*
X142257957Y-81300319D01*
X142257962Y-81300326D01*
X142278659Y-81325977D01*
X142286386Y-81336651D01*
X142307095Y-81368661D01*
X142357635Y-81424203D01*
X142362492Y-81429871D01*
X142379803Y-81451326D01*
X142379810Y-81451334D01*
X142381917Y-81453945D01*
X142410674Y-81482702D01*
X142414773Y-81486998D01*
X142473154Y-81551158D01*
X142477205Y-81554357D01*
X142477209Y-81554361D01*
X142495793Y-81569037D01*
X142506796Y-81578824D01*
X143421202Y-82493229D01*
X144312596Y-83384623D01*
X144346621Y-83446935D01*
X144349501Y-83473718D01*
X144349501Y-84487138D01*
X144360949Y-84627903D01*
X144362283Y-84633099D01*
X144362284Y-84633104D01*
X144383911Y-84717332D01*
X144416463Y-84844113D01*
X144509386Y-85047076D01*
X144636782Y-85230375D01*
X144794625Y-85388218D01*
X144977924Y-85515614D01*
X145104980Y-85573784D01*
X145175782Y-85606200D01*
X145175784Y-85606201D01*
X145180887Y-85608537D01*
X145397097Y-85664051D01*
X145461231Y-85669267D01*
X145535310Y-85675293D01*
X145535322Y-85675293D01*
X145537861Y-85675500D01*
X146049799Y-85675500D01*
X146562138Y-85675499D01*
X146702903Y-85664051D01*
X146708099Y-85662717D01*
X146708104Y-85662716D01*
X146913672Y-85609934D01*
X146919113Y-85608537D01*
X146924216Y-85606201D01*
X146924218Y-85606200D01*
X146995020Y-85573784D01*
X147122076Y-85515614D01*
X147305375Y-85388218D01*
X147463218Y-85230375D01*
X147590614Y-85047076D01*
X147683537Y-84844113D01*
X147739051Y-84627903D01*
X147739996Y-84616284D01*
X147765455Y-84550009D01*
X147822704Y-84508020D01*
X147865581Y-84500500D01*
X148757376Y-84500500D01*
X148825497Y-84520502D01*
X148871990Y-84574158D01*
X148878494Y-84591767D01*
X148916259Y-84723470D01*
X149010427Y-84903596D01*
X149014458Y-84908539D01*
X149014459Y-84908540D01*
X149104334Y-85018738D01*
X149138891Y-85061109D01*
X149143831Y-85065138D01*
X149288345Y-85183000D01*
X149296404Y-85189573D01*
X149476530Y-85283741D01*
X149671913Y-85339766D01*
X149703545Y-85342589D01*
X149789391Y-85350251D01*
X149789397Y-85350251D01*
X149792184Y-85350500D01*
X151407816Y-85350500D01*
X151410603Y-85350251D01*
X151410609Y-85350251D01*
X151496455Y-85342589D01*
X151528087Y-85339766D01*
X151723470Y-85283741D01*
X151903596Y-85189573D01*
X151911656Y-85183000D01*
X152056169Y-85065138D01*
X152061109Y-85061109D01*
X152095666Y-85018738D01*
X152185541Y-84908540D01*
X152185542Y-84908539D01*
X152189573Y-84903596D01*
X152283741Y-84723470D01*
X152339766Y-84528087D01*
X152343649Y-84484581D01*
X152350251Y-84410609D01*
X152350251Y-84410603D01*
X152350500Y-84407816D01*
X152350500Y-83423718D01*
X152370502Y-83355597D01*
X152387405Y-83334623D01*
X153434405Y-82287623D01*
X153496717Y-82253597D01*
X153567532Y-82258662D01*
X153624368Y-82301209D01*
X153649179Y-82367729D01*
X153649500Y-82376718D01*
X153649500Y-84407816D01*
X153649749Y-84410603D01*
X153649749Y-84410609D01*
X153656351Y-84484581D01*
X153660234Y-84528087D01*
X153716259Y-84723470D01*
X153810427Y-84903596D01*
X153814458Y-84908539D01*
X153814459Y-84908540D01*
X153904334Y-85018738D01*
X153938891Y-85061109D01*
X153943831Y-85065138D01*
X154088345Y-85183000D01*
X154096404Y-85189573D01*
X154276530Y-85283741D01*
X154471913Y-85339766D01*
X154503545Y-85342589D01*
X154589391Y-85350251D01*
X154589397Y-85350251D01*
X154592184Y-85350500D01*
X156207816Y-85350500D01*
X156210603Y-85350251D01*
X156210609Y-85350251D01*
X156296455Y-85342589D01*
X156328087Y-85339766D01*
X156523470Y-85283741D01*
X156703596Y-85189573D01*
X156708547Y-85185535D01*
X156800264Y-85110734D01*
X156865696Y-85083180D01*
X156935637Y-85095376D01*
X156960724Y-85111716D01*
X156961206Y-85112119D01*
X156965176Y-85116089D01*
X156969782Y-85119290D01*
X156969784Y-85119292D01*
X157135325Y-85234346D01*
X157146643Y-85242212D01*
X157151739Y-85244545D01*
X157151744Y-85244548D01*
X157342472Y-85331870D01*
X157342474Y-85331871D01*
X157347577Y-85334207D01*
X157561626Y-85389166D01*
X157625149Y-85394333D01*
X157698425Y-85400293D01*
X157698437Y-85400293D01*
X157700976Y-85400500D01*
X158299024Y-85400500D01*
X158301563Y-85400293D01*
X158301575Y-85400293D01*
X158374851Y-85394333D01*
X158438374Y-85389166D01*
X158652423Y-85334207D01*
X158657526Y-85331871D01*
X158657528Y-85331870D01*
X158848256Y-85244548D01*
X158848261Y-85244545D01*
X158853357Y-85242212D01*
X158934905Y-85185535D01*
X159006814Y-85163000D01*
X159993186Y-85163000D01*
X160065095Y-85185535D01*
X160146643Y-85242212D01*
X160151739Y-85244545D01*
X160151744Y-85244548D01*
X160342472Y-85331870D01*
X160342474Y-85331871D01*
X160347577Y-85334207D01*
X160561626Y-85389166D01*
X160625149Y-85394333D01*
X160698425Y-85400293D01*
X160698437Y-85400293D01*
X160700976Y-85400500D01*
X161299024Y-85400500D01*
X161301563Y-85400293D01*
X161301575Y-85400293D01*
X161374851Y-85394333D01*
X161438374Y-85389166D01*
X161652423Y-85334207D01*
X161657526Y-85331871D01*
X161657528Y-85331870D01*
X161848256Y-85244548D01*
X161848261Y-85244545D01*
X161853357Y-85242212D01*
X161870389Y-85230375D01*
X162006845Y-85135535D01*
X162078755Y-85113000D01*
X163543391Y-85113000D01*
X163611512Y-85133002D01*
X163658005Y-85186658D01*
X163668109Y-85256932D01*
X163664808Y-85272675D01*
X163664389Y-85274186D01*
X163665912Y-85282607D01*
X163678292Y-85286000D01*
X165128000Y-85286000D01*
X165196121Y-85306002D01*
X165242614Y-85359658D01*
X165254000Y-85412000D01*
X165254000Y-85668000D01*
X165233998Y-85736121D01*
X165180342Y-85782614D01*
X165128000Y-85794000D01*
X163683225Y-85794000D01*
X163669694Y-85797973D01*
X163668257Y-85807966D01*
X163698565Y-85942446D01*
X163701645Y-85952275D01*
X163781770Y-86149603D01*
X163786413Y-86158794D01*
X163897695Y-86340390D01*
X163903773Y-86348695D01*
X163941666Y-86392439D01*
X163971149Y-86457025D01*
X163961034Y-86527297D01*
X163919687Y-86577452D01*
X163817434Y-86650523D01*
X163801427Y-86665793D01*
X163638230Y-86821475D01*
X163627816Y-86831409D01*
X163621829Y-86839004D01*
X163563949Y-86880118D01*
X163522878Y-86887000D01*
X162078755Y-86887000D01*
X162006845Y-86864465D01*
X161857963Y-86760989D01*
X161857961Y-86760988D01*
X161853357Y-86757788D01*
X161848261Y-86755455D01*
X161848256Y-86755452D01*
X161657528Y-86668130D01*
X161657526Y-86668129D01*
X161652423Y-86665793D01*
X161438374Y-86610834D01*
X161374851Y-86605667D01*
X161301575Y-86599707D01*
X161301563Y-86599707D01*
X161299024Y-86599500D01*
X160700976Y-86599500D01*
X160698437Y-86599707D01*
X160698425Y-86599707D01*
X160625149Y-86605667D01*
X160561626Y-86610834D01*
X160347577Y-86665793D01*
X160342474Y-86668129D01*
X160342472Y-86668130D01*
X160151744Y-86755452D01*
X160151739Y-86755455D01*
X160146643Y-86757788D01*
X160065099Y-86814463D01*
X160065096Y-86814465D01*
X159993186Y-86837000D01*
X159006814Y-86837000D01*
X158934904Y-86814465D01*
X158934902Y-86814463D01*
X158853357Y-86757788D01*
X158848261Y-86755455D01*
X158848256Y-86755452D01*
X158657528Y-86668130D01*
X158657526Y-86668129D01*
X158652423Y-86665793D01*
X158438374Y-86610834D01*
X158374851Y-86605667D01*
X158301575Y-86599707D01*
X158301563Y-86599707D01*
X158299024Y-86599500D01*
X157700976Y-86599500D01*
X157698437Y-86599707D01*
X157698425Y-86599707D01*
X157625149Y-86605667D01*
X157561626Y-86610834D01*
X157347577Y-86665793D01*
X157342474Y-86668129D01*
X157342472Y-86668130D01*
X157151744Y-86755452D01*
X157151739Y-86755455D01*
X157146643Y-86757788D01*
X157142039Y-86760988D01*
X157142037Y-86760989D01*
X156969784Y-86880708D01*
X156969782Y-86880710D01*
X156965176Y-86883911D01*
X156961206Y-86887881D01*
X156960724Y-86888284D01*
X156895634Y-86916637D01*
X156825549Y-86905298D01*
X156800264Y-86889266D01*
X156708545Y-86814463D01*
X156708543Y-86814462D01*
X156703596Y-86810427D01*
X156523470Y-86716259D01*
X156328087Y-86660234D01*
X156296455Y-86657411D01*
X156210609Y-86649749D01*
X156210603Y-86649749D01*
X156207816Y-86649500D01*
X154592184Y-86649500D01*
X154589397Y-86649749D01*
X154589391Y-86649749D01*
X154503545Y-86657411D01*
X154471913Y-86660234D01*
X154276530Y-86716259D01*
X154096404Y-86810427D01*
X154091461Y-86814458D01*
X154091460Y-86814459D01*
X153999737Y-86889266D01*
X153938891Y-86938891D01*
X153934862Y-86943831D01*
X153903652Y-86982099D01*
X153810427Y-87096404D01*
X153716259Y-87276530D01*
X153660234Y-87471913D01*
X153659701Y-87477886D01*
X153655819Y-87521387D01*
X153649500Y-87592184D01*
X153649500Y-90407816D01*
X153649749Y-90410603D01*
X153649749Y-90410609D01*
X153656472Y-90485937D01*
X153660234Y-90528087D01*
X153716259Y-90723470D01*
X153779823Y-90845056D01*
X153805647Y-90894452D01*
X153810427Y-90903596D01*
X153814458Y-90908539D01*
X153814459Y-90908540D01*
X153904334Y-91018738D01*
X153938891Y-91061109D01*
X153943831Y-91065138D01*
X154088345Y-91183000D01*
X154096404Y-91189573D01*
X154276530Y-91283741D01*
X154471913Y-91339766D01*
X154503545Y-91342589D01*
X154589391Y-91350251D01*
X154589397Y-91350251D01*
X154592184Y-91350500D01*
X156207816Y-91350500D01*
X156210603Y-91350251D01*
X156210609Y-91350251D01*
X156296455Y-91342589D01*
X156328087Y-91339766D01*
X156423140Y-91312510D01*
X156494134Y-91312961D01*
X156553615Y-91351722D01*
X156582698Y-91416489D01*
X156579910Y-91464963D01*
X156535834Y-91636626D01*
X156533568Y-91664486D01*
X156529671Y-91712405D01*
X156524500Y-91775976D01*
X156524500Y-92499024D01*
X156535834Y-92638374D01*
X156590793Y-92852423D01*
X156593129Y-92857526D01*
X156593130Y-92857528D01*
X156680452Y-93048256D01*
X156680455Y-93048261D01*
X156682788Y-93053357D01*
X156685988Y-93057961D01*
X156685989Y-93057963D01*
X156760399Y-93165024D01*
X156808911Y-93234824D01*
X156965176Y-93391089D01*
X156969781Y-93394290D01*
X156973136Y-93397095D01*
X157012563Y-93456138D01*
X157017653Y-93506599D01*
X157017327Y-93509776D01*
X157017000Y-93516186D01*
X157017000Y-93590385D01*
X157021475Y-93605624D01*
X157022865Y-93606829D01*
X157030548Y-93608500D01*
X157328908Y-93608500D01*
X157360242Y-93612459D01*
X157561626Y-93664166D01*
X157625149Y-93669333D01*
X157698425Y-93675293D01*
X157698437Y-93675293D01*
X157700976Y-93675500D01*
X158299024Y-93675500D01*
X158301563Y-93675293D01*
X158301575Y-93675293D01*
X158374851Y-93669333D01*
X158438374Y-93664166D01*
X158639758Y-93612459D01*
X158671092Y-93608500D01*
X158964885Y-93608500D01*
X158980124Y-93604025D01*
X158981329Y-93602635D01*
X158983000Y-93594952D01*
X158983000Y-93516234D01*
X158982663Y-93509715D01*
X158982357Y-93506771D01*
X158995217Y-93436949D01*
X159026858Y-93397099D01*
X159030212Y-93394294D01*
X159034824Y-93391089D01*
X159191089Y-93234824D01*
X159239602Y-93165024D01*
X159314011Y-93057963D01*
X159314012Y-93057961D01*
X159317212Y-93053357D01*
X159319545Y-93048261D01*
X159319548Y-93048256D01*
X159406870Y-92857528D01*
X159406871Y-92857526D01*
X159409207Y-92852423D01*
X159464166Y-92638374D01*
X159475500Y-92499024D01*
X159475500Y-91775976D01*
X159470330Y-91712405D01*
X159466432Y-91664486D01*
X159464166Y-91636626D01*
X159409207Y-91422577D01*
X159381126Y-91361243D01*
X159319548Y-91226744D01*
X159319545Y-91226739D01*
X159317212Y-91221643D01*
X159273035Y-91158080D01*
X159250500Y-91086171D01*
X159250500Y-90913829D01*
X159273035Y-90841919D01*
X159273753Y-90840887D01*
X159317212Y-90778357D01*
X159319545Y-90773261D01*
X159319548Y-90773256D01*
X159406870Y-90582528D01*
X159406871Y-90582526D01*
X159409207Y-90577423D01*
X159464166Y-90363374D01*
X159475500Y-90224024D01*
X159475500Y-90130048D01*
X160017000Y-90130048D01*
X160017000Y-90208766D01*
X160017337Y-90215282D01*
X160027075Y-90309132D01*
X160029968Y-90322528D01*
X160080488Y-90473953D01*
X160086653Y-90487115D01*
X160170426Y-90622492D01*
X160179460Y-90633890D01*
X160292129Y-90746363D01*
X160303540Y-90755375D01*
X160439063Y-90838912D01*
X160452241Y-90845056D01*
X160603766Y-90895315D01*
X160617132Y-90898181D01*
X160709770Y-90907672D01*
X160716185Y-90908000D01*
X160727885Y-90908000D01*
X160743124Y-90903525D01*
X160744329Y-90902135D01*
X160746000Y-90894452D01*
X160746000Y-90134615D01*
X160744659Y-90130048D01*
X161254000Y-90130048D01*
X161254000Y-90889885D01*
X161258475Y-90905124D01*
X161259865Y-90906329D01*
X161267548Y-90908000D01*
X161283766Y-90908000D01*
X161290282Y-90907663D01*
X161384132Y-90897925D01*
X161397528Y-90895032D01*
X161548953Y-90844512D01*
X161562115Y-90838347D01*
X161697492Y-90754574D01*
X161708890Y-90745540D01*
X161821363Y-90632871D01*
X161830375Y-90621460D01*
X161913912Y-90485937D01*
X161920056Y-90472759D01*
X161970315Y-90321234D01*
X161973181Y-90307868D01*
X161982672Y-90215230D01*
X161983000Y-90208815D01*
X161983000Y-90134615D01*
X161978525Y-90119376D01*
X161977135Y-90118171D01*
X161969452Y-90116500D01*
X161272115Y-90116500D01*
X161256876Y-90120975D01*
X161255671Y-90122365D01*
X161254000Y-90130048D01*
X160744659Y-90130048D01*
X160741525Y-90119376D01*
X160740135Y-90118171D01*
X160732452Y-90116500D01*
X160035115Y-90116500D01*
X160019876Y-90120975D01*
X160018671Y-90122365D01*
X160017000Y-90130048D01*
X159475500Y-90130048D01*
X159475500Y-89600976D01*
X159475018Y-89595039D01*
X159465190Y-89474214D01*
X159479604Y-89404696D01*
X159529314Y-89354007D01*
X159590775Y-89338000D01*
X159859897Y-89338000D01*
X159928018Y-89358002D01*
X159948992Y-89374905D01*
X159965176Y-89391089D01*
X159969781Y-89394290D01*
X159973136Y-89397095D01*
X160012563Y-89456138D01*
X160017653Y-89506599D01*
X160017327Y-89509776D01*
X160017000Y-89516186D01*
X160017000Y-89590385D01*
X160021475Y-89605624D01*
X160022865Y-89606829D01*
X160030548Y-89608500D01*
X160328908Y-89608500D01*
X160360242Y-89612459D01*
X160561626Y-89664166D01*
X160625149Y-89669333D01*
X160698425Y-89675293D01*
X160698437Y-89675293D01*
X160700976Y-89675500D01*
X161299024Y-89675500D01*
X161301563Y-89675293D01*
X161301575Y-89675293D01*
X161374851Y-89669333D01*
X161438374Y-89664166D01*
X161639758Y-89612459D01*
X161671092Y-89608500D01*
X161964885Y-89608500D01*
X161980124Y-89604025D01*
X161981329Y-89602635D01*
X161983000Y-89594952D01*
X161983000Y-89514000D01*
X162003002Y-89445879D01*
X162056658Y-89399386D01*
X162109000Y-89388000D01*
X163633852Y-89388000D01*
X163701973Y-89408002D01*
X163723648Y-89426182D01*
X163723741Y-89426083D01*
X163725501Y-89427735D01*
X163726371Y-89428466D01*
X163730010Y-89432402D01*
X163733464Y-89435214D01*
X163929778Y-89595039D01*
X163929782Y-89595042D01*
X163933235Y-89597853D01*
X163937057Y-89600154D01*
X164043381Y-89664166D01*
X164157745Y-89733019D01*
X164212451Y-89756184D01*
X164394962Y-89833468D01*
X164394966Y-89833469D01*
X164399060Y-89835203D01*
X164403352Y-89836341D01*
X164403355Y-89836342D01*
X164504125Y-89863061D01*
X164652365Y-89902366D01*
X164656789Y-89902890D01*
X164656791Y-89902890D01*
X164807572Y-89920736D01*
X164912607Y-89933167D01*
X165174592Y-89926993D01*
X165178986Y-89926262D01*
X165178993Y-89926261D01*
X165428692Y-89884700D01*
X165428696Y-89884699D01*
X165433094Y-89883967D01*
X165650662Y-89815159D01*
X165678709Y-89806289D01*
X165678711Y-89806288D01*
X165682955Y-89804946D01*
X165819459Y-89739398D01*
X165889524Y-89727941D01*
X165954661Y-89756184D01*
X165994189Y-89815159D01*
X166000000Y-89852981D01*
X166000000Y-102874000D01*
X165979998Y-102942121D01*
X165926342Y-102988614D01*
X165874000Y-103000000D01*
X151076471Y-103000000D01*
X151008350Y-102979998D01*
X150961857Y-102926342D01*
X150952365Y-102860328D01*
X150951252Y-102860207D01*
X150957631Y-102801486D01*
X150958000Y-102794672D01*
X150958000Y-101272115D01*
X150953525Y-101256876D01*
X150952135Y-101255671D01*
X150944452Y-101254000D01*
X148460116Y-101254000D01*
X148444877Y-101258475D01*
X148443672Y-101259865D01*
X148442001Y-101267548D01*
X148442001Y-102794669D01*
X148442371Y-102801490D01*
X148448748Y-102860207D01*
X148445262Y-102860586D01*
X148442474Y-102915574D01*
X148401115Y-102973280D01*
X148335123Y-102999466D01*
X148323530Y-103000000D01*
X145676471Y-103000000D01*
X145608350Y-102979998D01*
X145561857Y-102926342D01*
X145552365Y-102860328D01*
X145551252Y-102860207D01*
X145557631Y-102801486D01*
X145558000Y-102794672D01*
X145558000Y-101272115D01*
X145553525Y-101256876D01*
X145552135Y-101255671D01*
X145544452Y-101254000D01*
X143060116Y-101254000D01*
X143044877Y-101258475D01*
X143043672Y-101259865D01*
X143042001Y-101267548D01*
X143042001Y-102794669D01*
X143042371Y-102801490D01*
X143048748Y-102860207D01*
X143045262Y-102860586D01*
X143042474Y-102915574D01*
X143001115Y-102973280D01*
X142935123Y-102999466D01*
X142923530Y-103000000D01*
X138126000Y-103000000D01*
X138057879Y-102979998D01*
X138011386Y-102926342D01*
X138000000Y-102874000D01*
X138000000Y-99205328D01*
X143042000Y-99205328D01*
X143042000Y-100727885D01*
X143046475Y-100743124D01*
X143047865Y-100744329D01*
X143055548Y-100746000D01*
X144027885Y-100746000D01*
X144043124Y-100741525D01*
X144044329Y-100740135D01*
X144046000Y-100732452D01*
X144046000Y-98760116D01*
X144044659Y-98755548D01*
X144554000Y-98755548D01*
X144554000Y-100727885D01*
X144558475Y-100743124D01*
X144559865Y-100744329D01*
X144567548Y-100746000D01*
X145539884Y-100746000D01*
X145555123Y-100741525D01*
X145556328Y-100740135D01*
X145557999Y-100732452D01*
X145557999Y-99205331D01*
X145557999Y-99205328D01*
X148442000Y-99205328D01*
X148442000Y-100727885D01*
X148446475Y-100743124D01*
X148447865Y-100744329D01*
X148455548Y-100746000D01*
X149427885Y-100746000D01*
X149443124Y-100741525D01*
X149444329Y-100740135D01*
X149446000Y-100732452D01*
X149446000Y-98760116D01*
X149444659Y-98755548D01*
X149954000Y-98755548D01*
X149954000Y-100727885D01*
X149958475Y-100743124D01*
X149959865Y-100744329D01*
X149967548Y-100746000D01*
X150939884Y-100746000D01*
X150955123Y-100741525D01*
X150956328Y-100740135D01*
X150957999Y-100732452D01*
X150957999Y-99205331D01*
X150957629Y-99198510D01*
X150952105Y-99147648D01*
X150948479Y-99132396D01*
X150903324Y-99011946D01*
X150894786Y-98996351D01*
X150818285Y-98894276D01*
X150805724Y-98881715D01*
X150703649Y-98805214D01*
X150688054Y-98796676D01*
X150567606Y-98751522D01*
X150552351Y-98747895D01*
X150501486Y-98742369D01*
X150494672Y-98742000D01*
X149972115Y-98742000D01*
X149956876Y-98746475D01*
X149955671Y-98747865D01*
X149954000Y-98755548D01*
X149444659Y-98755548D01*
X149441525Y-98744877D01*
X149440135Y-98743672D01*
X149432452Y-98742001D01*
X148905331Y-98742001D01*
X148898510Y-98742371D01*
X148847648Y-98747895D01*
X148832396Y-98751521D01*
X148711946Y-98796676D01*
X148696351Y-98805214D01*
X148594276Y-98881715D01*
X148581715Y-98894276D01*
X148505214Y-98996351D01*
X148496676Y-99011946D01*
X148451522Y-99132394D01*
X148447895Y-99147649D01*
X148442369Y-99198514D01*
X148442000Y-99205328D01*
X145557999Y-99205328D01*
X145557629Y-99198510D01*
X145552105Y-99147648D01*
X145548479Y-99132396D01*
X145503324Y-99011946D01*
X145494786Y-98996351D01*
X145418285Y-98894276D01*
X145405724Y-98881715D01*
X145303649Y-98805214D01*
X145288054Y-98796676D01*
X145167606Y-98751522D01*
X145152351Y-98747895D01*
X145101486Y-98742369D01*
X145094672Y-98742000D01*
X144572115Y-98742000D01*
X144556876Y-98746475D01*
X144555671Y-98747865D01*
X144554000Y-98755548D01*
X144044659Y-98755548D01*
X144041525Y-98744877D01*
X144040135Y-98743672D01*
X144032452Y-98742001D01*
X143505331Y-98742001D01*
X143498510Y-98742371D01*
X143447648Y-98747895D01*
X143432396Y-98751521D01*
X143311946Y-98796676D01*
X143296351Y-98805214D01*
X143194276Y-98881715D01*
X143181715Y-98894276D01*
X143105214Y-98996351D01*
X143096676Y-99011946D01*
X143051522Y-99132394D01*
X143047895Y-99147649D01*
X143042369Y-99198514D01*
X143042000Y-99205328D01*
X138000000Y-99205328D01*
X138000000Y-96308777D01*
X139805777Y-96308777D01*
X139815074Y-96320793D01*
X139858069Y-96350898D01*
X139867555Y-96356376D01*
X140058993Y-96445645D01*
X140069285Y-96449391D01*
X140273309Y-96504059D01*
X140284104Y-96505962D01*
X140494525Y-96524372D01*
X140505475Y-96524372D01*
X140715896Y-96505962D01*
X140726691Y-96504059D01*
X140930715Y-96449391D01*
X140941007Y-96445645D01*
X141132439Y-96356379D01*
X141141934Y-96350896D01*
X141312775Y-96231272D01*
X141380049Y-96208584D01*
X141448910Y-96225869D01*
X141498052Y-96278756D01*
X141546828Y-96377664D01*
X141710727Y-96622957D01*
X141713441Y-96626051D01*
X141713445Y-96626057D01*
X141902533Y-96841669D01*
X141905242Y-96844758D01*
X141908331Y-96847467D01*
X142123943Y-97036555D01*
X142123949Y-97036559D01*
X142127043Y-97039273D01*
X142130469Y-97041562D01*
X142130474Y-97041566D01*
X142314539Y-97164554D01*
X142372335Y-97203172D01*
X142376034Y-97204996D01*
X142376039Y-97204999D01*
X142633228Y-97331830D01*
X142636923Y-97333652D01*
X142640821Y-97334975D01*
X142640823Y-97334976D01*
X142912368Y-97427154D01*
X142912372Y-97427155D01*
X142916278Y-97428481D01*
X142920322Y-97429285D01*
X142920328Y-97429287D01*
X143201577Y-97485230D01*
X143201580Y-97485230D01*
X143205620Y-97486034D01*
X143209731Y-97486303D01*
X143209735Y-97486304D01*
X143495881Y-97505059D01*
X143500000Y-97505329D01*
X143504119Y-97505059D01*
X143790265Y-97486304D01*
X143790269Y-97486303D01*
X143794380Y-97486034D01*
X143798420Y-97485230D01*
X143798423Y-97485230D01*
X144079672Y-97429287D01*
X144079678Y-97429285D01*
X144083722Y-97428481D01*
X144087628Y-97427155D01*
X144087632Y-97427154D01*
X144359177Y-97334976D01*
X144359179Y-97334975D01*
X144363077Y-97333652D01*
X144366772Y-97331830D01*
X144623961Y-97204999D01*
X144623966Y-97204996D01*
X144627665Y-97203172D01*
X144685461Y-97164554D01*
X144869526Y-97041566D01*
X144869531Y-97041562D01*
X144872957Y-97039273D01*
X144876051Y-97036559D01*
X144876057Y-97036555D01*
X145091669Y-96847467D01*
X145094758Y-96844758D01*
X145097467Y-96841669D01*
X145286555Y-96626057D01*
X145286559Y-96626051D01*
X145289273Y-96622957D01*
X145453172Y-96377664D01*
X145487144Y-96308777D01*
X145581830Y-96116772D01*
X145581831Y-96116770D01*
X145583652Y-96113077D01*
X145640999Y-95944140D01*
X145677154Y-95837632D01*
X145677155Y-95837628D01*
X145678481Y-95833722D01*
X145706869Y-95691007D01*
X145735230Y-95548423D01*
X145735230Y-95548420D01*
X145736034Y-95544380D01*
X145755329Y-95250000D01*
X148244671Y-95250000D01*
X148263966Y-95544380D01*
X148264770Y-95548420D01*
X148264770Y-95548423D01*
X148293132Y-95691007D01*
X148321519Y-95833722D01*
X148322845Y-95837628D01*
X148322846Y-95837632D01*
X148359001Y-95944140D01*
X148416348Y-96113077D01*
X148418169Y-96116770D01*
X148418170Y-96116772D01*
X148512857Y-96308777D01*
X148546828Y-96377664D01*
X148710727Y-96622957D01*
X148713441Y-96626051D01*
X148713445Y-96626057D01*
X148902533Y-96841669D01*
X148905242Y-96844758D01*
X148908331Y-96847467D01*
X149123943Y-97036555D01*
X149123949Y-97036559D01*
X149127043Y-97039273D01*
X149130469Y-97041562D01*
X149130474Y-97041566D01*
X149314539Y-97164554D01*
X149372335Y-97203172D01*
X149376034Y-97204996D01*
X149376039Y-97204999D01*
X149633228Y-97331830D01*
X149636923Y-97333652D01*
X149640821Y-97334975D01*
X149640823Y-97334976D01*
X149912368Y-97427154D01*
X149912372Y-97427155D01*
X149916278Y-97428481D01*
X149920322Y-97429285D01*
X149920328Y-97429287D01*
X150201577Y-97485230D01*
X150201580Y-97485230D01*
X150205620Y-97486034D01*
X150209731Y-97486303D01*
X150209735Y-97486304D01*
X150495881Y-97505059D01*
X150500000Y-97505329D01*
X150504119Y-97505059D01*
X150790265Y-97486304D01*
X150790269Y-97486303D01*
X150794380Y-97486034D01*
X150798420Y-97485230D01*
X150798423Y-97485230D01*
X151079672Y-97429287D01*
X151079678Y-97429285D01*
X151083722Y-97428481D01*
X151087628Y-97427155D01*
X151087632Y-97427154D01*
X151359177Y-97334976D01*
X151359179Y-97334975D01*
X151363077Y-97333652D01*
X151366772Y-97331830D01*
X151623961Y-97204999D01*
X151623966Y-97204996D01*
X151627665Y-97203172D01*
X151685461Y-97164554D01*
X151869526Y-97041566D01*
X151869531Y-97041562D01*
X151872957Y-97039273D01*
X151876051Y-97036559D01*
X151876057Y-97036555D01*
X152091669Y-96847467D01*
X152094758Y-96844758D01*
X152097467Y-96841669D01*
X152286555Y-96626057D01*
X152286559Y-96626051D01*
X152289273Y-96622957D01*
X152453172Y-96377664D01*
X152501948Y-96278756D01*
X152550017Y-96226507D01*
X152618702Y-96208541D01*
X152687225Y-96231272D01*
X152858066Y-96350896D01*
X152867561Y-96356379D01*
X153058993Y-96445645D01*
X153069285Y-96449391D01*
X153273309Y-96504059D01*
X153284104Y-96505962D01*
X153494525Y-96524372D01*
X153505475Y-96524372D01*
X153715896Y-96505962D01*
X153726691Y-96504059D01*
X153930715Y-96449391D01*
X153941007Y-96445645D01*
X154132445Y-96356376D01*
X154141931Y-96350898D01*
X154185764Y-96320207D01*
X154194139Y-96309729D01*
X154187071Y-96296281D01*
X153229885Y-95339095D01*
X153195859Y-95276783D01*
X153197694Y-95251132D01*
X153864408Y-95251132D01*
X153864539Y-95252965D01*
X153868790Y-95259580D01*
X154547003Y-95937793D01*
X154558777Y-95944223D01*
X154570793Y-95934926D01*
X154600897Y-95891932D01*
X154606377Y-95882441D01*
X154695645Y-95691007D01*
X154699391Y-95680715D01*
X154754059Y-95476691D01*
X154755962Y-95465896D01*
X154774372Y-95255475D01*
X154774372Y-95244525D01*
X154755962Y-95034104D01*
X154754059Y-95023309D01*
X154699391Y-94819285D01*
X154695645Y-94808993D01*
X154606377Y-94617559D01*
X154600897Y-94608068D01*
X154570206Y-94564235D01*
X154559729Y-94555860D01*
X154546282Y-94562928D01*
X153872022Y-95237188D01*
X153864408Y-95251132D01*
X153197694Y-95251132D01*
X153200924Y-95205968D01*
X153229885Y-95160905D01*
X154187793Y-94202997D01*
X154194223Y-94191223D01*
X154184926Y-94179207D01*
X154141931Y-94149102D01*
X154132445Y-94143624D01*
X154103331Y-94130048D01*
X157017000Y-94130048D01*
X157017000Y-94208766D01*
X157017337Y-94215282D01*
X157027075Y-94309132D01*
X157029968Y-94322528D01*
X157080488Y-94473953D01*
X157086653Y-94487115D01*
X157170426Y-94622492D01*
X157179460Y-94633890D01*
X157292129Y-94746363D01*
X157303540Y-94755375D01*
X157439063Y-94838912D01*
X157452241Y-94845056D01*
X157603766Y-94895315D01*
X157617132Y-94898181D01*
X157709770Y-94907672D01*
X157716185Y-94908000D01*
X157727885Y-94908000D01*
X157743124Y-94903525D01*
X157744329Y-94902135D01*
X157746000Y-94894452D01*
X157746000Y-94134615D01*
X157744659Y-94130048D01*
X158254000Y-94130048D01*
X158254000Y-94889885D01*
X158258475Y-94905124D01*
X158259865Y-94906329D01*
X158267548Y-94908000D01*
X158283766Y-94908000D01*
X158290282Y-94907663D01*
X158384132Y-94897925D01*
X158397528Y-94895032D01*
X158548953Y-94844512D01*
X158562115Y-94838347D01*
X158697492Y-94754574D01*
X158708890Y-94745540D01*
X158821363Y-94632871D01*
X158830375Y-94621460D01*
X158913912Y-94485937D01*
X158920056Y-94472759D01*
X158970315Y-94321234D01*
X158973181Y-94307868D01*
X158982672Y-94215230D01*
X158983000Y-94208815D01*
X158983000Y-94134615D01*
X158978525Y-94119376D01*
X158977135Y-94118171D01*
X158969452Y-94116500D01*
X158272115Y-94116500D01*
X158256876Y-94120975D01*
X158255671Y-94122365D01*
X158254000Y-94130048D01*
X157744659Y-94130048D01*
X157741525Y-94119376D01*
X157740135Y-94118171D01*
X157732452Y-94116500D01*
X157035115Y-94116500D01*
X157019876Y-94120975D01*
X157018671Y-94122365D01*
X157017000Y-94130048D01*
X154103331Y-94130048D01*
X153941007Y-94054355D01*
X153930715Y-94050609D01*
X153726691Y-93995941D01*
X153715896Y-93994038D01*
X153505475Y-93975628D01*
X153494525Y-93975628D01*
X153284104Y-93994038D01*
X153273309Y-93995941D01*
X153069285Y-94050609D01*
X153058993Y-94054355D01*
X152867556Y-94143624D01*
X152858070Y-94149102D01*
X152687224Y-94268728D01*
X152619950Y-94291416D01*
X152551090Y-94274131D01*
X152501948Y-94221244D01*
X152495819Y-94208815D01*
X152453172Y-94122336D01*
X152289273Y-93877043D01*
X152286559Y-93873949D01*
X152286555Y-93873943D01*
X152097467Y-93658331D01*
X152094758Y-93655242D01*
X152043423Y-93610222D01*
X151876057Y-93463445D01*
X151876051Y-93463441D01*
X151872957Y-93460727D01*
X151869527Y-93458435D01*
X151869526Y-93458434D01*
X151631098Y-93299122D01*
X151627665Y-93296828D01*
X151623966Y-93295004D01*
X151623961Y-93295001D01*
X151366772Y-93168170D01*
X151366770Y-93168169D01*
X151363077Y-93166348D01*
X151359177Y-93165024D01*
X151087632Y-93072846D01*
X151087628Y-93072845D01*
X151083722Y-93071519D01*
X151079678Y-93070715D01*
X151079672Y-93070713D01*
X150798423Y-93014770D01*
X150798420Y-93014770D01*
X150794380Y-93013966D01*
X150790269Y-93013697D01*
X150790265Y-93013696D01*
X150504119Y-92994941D01*
X150500000Y-92994671D01*
X150495881Y-92994941D01*
X150209735Y-93013696D01*
X150209731Y-93013697D01*
X150205620Y-93013966D01*
X150201580Y-93014770D01*
X150201577Y-93014770D01*
X149920328Y-93070713D01*
X149920322Y-93070715D01*
X149916278Y-93071519D01*
X149912372Y-93072845D01*
X149912368Y-93072846D01*
X149640823Y-93165024D01*
X149636923Y-93166348D01*
X149633230Y-93168169D01*
X149633228Y-93168170D01*
X149376040Y-93295001D01*
X149376035Y-93295004D01*
X149372336Y-93296828D01*
X149127043Y-93460727D01*
X149123949Y-93463441D01*
X149123943Y-93463445D01*
X148956577Y-93610222D01*
X148905242Y-93655242D01*
X148902533Y-93658331D01*
X148713445Y-93873943D01*
X148713441Y-93873949D01*
X148710727Y-93877043D01*
X148546828Y-94122336D01*
X148545004Y-94126034D01*
X148545001Y-94126040D01*
X148454710Y-94309132D01*
X148416348Y-94386923D01*
X148415025Y-94390821D01*
X148415024Y-94390823D01*
X148356847Y-94562207D01*
X148321519Y-94666278D01*
X148320715Y-94670322D01*
X148320713Y-94670328D01*
X148274328Y-94903525D01*
X148263966Y-94955620D01*
X148244671Y-95250000D01*
X145755329Y-95250000D01*
X145736034Y-94955620D01*
X145725672Y-94903525D01*
X145679287Y-94670328D01*
X145679285Y-94670322D01*
X145678481Y-94666278D01*
X145643154Y-94562207D01*
X145584976Y-94390823D01*
X145584975Y-94390821D01*
X145583652Y-94386923D01*
X145545290Y-94309132D01*
X145454999Y-94126040D01*
X145454996Y-94126034D01*
X145453172Y-94122336D01*
X145289273Y-93877043D01*
X145286559Y-93873949D01*
X145286555Y-93873943D01*
X145097467Y-93658331D01*
X145094758Y-93655242D01*
X145091669Y-93652533D01*
X145091662Y-93652526D01*
X145043423Y-93610222D01*
X145005395Y-93550269D01*
X145000500Y-93515490D01*
X145000500Y-92223718D01*
X145020502Y-92155597D01*
X145037405Y-92134623D01*
X145459623Y-91712405D01*
X145521935Y-91678379D01*
X145548718Y-91675500D01*
X146366889Y-91675499D01*
X146562138Y-91675499D01*
X146702903Y-91664051D01*
X146708099Y-91662717D01*
X146708104Y-91662716D01*
X146913672Y-91609934D01*
X146919113Y-91608537D01*
X146924216Y-91606201D01*
X146924218Y-91606200D01*
X146995020Y-91573784D01*
X147122076Y-91515614D01*
X147305375Y-91388218D01*
X147463218Y-91230375D01*
X147568183Y-91079350D01*
X147587413Y-91051682D01*
X147587414Y-91051680D01*
X147590614Y-91047076D01*
X147654040Y-90908540D01*
X147681200Y-90849218D01*
X147681201Y-90849216D01*
X147683537Y-90844113D01*
X147739051Y-90627903D01*
X147739996Y-90616284D01*
X147765455Y-90550009D01*
X147822704Y-90508020D01*
X147865581Y-90500500D01*
X148757376Y-90500500D01*
X148825497Y-90520502D01*
X148871990Y-90574158D01*
X148878494Y-90591767D01*
X148916259Y-90723470D01*
X148979823Y-90845056D01*
X149005647Y-90894452D01*
X149010427Y-90903596D01*
X149014458Y-90908539D01*
X149014459Y-90908540D01*
X149104334Y-91018738D01*
X149138891Y-91061109D01*
X149143831Y-91065138D01*
X149288345Y-91183000D01*
X149296404Y-91189573D01*
X149476530Y-91283741D01*
X149671913Y-91339766D01*
X149703545Y-91342589D01*
X149789391Y-91350251D01*
X149789397Y-91350251D01*
X149792184Y-91350500D01*
X151407816Y-91350500D01*
X151410603Y-91350251D01*
X151410609Y-91350251D01*
X151496455Y-91342589D01*
X151528087Y-91339766D01*
X151723470Y-91283741D01*
X151903596Y-91189573D01*
X151911656Y-91183000D01*
X152056169Y-91065138D01*
X152061109Y-91061109D01*
X152095666Y-91018738D01*
X152185541Y-90908540D01*
X152185542Y-90908539D01*
X152189573Y-90903596D01*
X152194354Y-90894452D01*
X152220177Y-90845056D01*
X152283741Y-90723470D01*
X152339766Y-90528087D01*
X152343528Y-90485937D01*
X152350251Y-90410609D01*
X152350251Y-90410603D01*
X152350500Y-90407816D01*
X152350500Y-87592184D01*
X152344182Y-87521387D01*
X152340299Y-87477886D01*
X152339766Y-87471913D01*
X152283741Y-87276530D01*
X152189573Y-87096404D01*
X152096349Y-86982099D01*
X152065138Y-86943831D01*
X152061109Y-86938891D01*
X152000263Y-86889266D01*
X151908540Y-86814459D01*
X151908539Y-86814458D01*
X151903596Y-86810427D01*
X151723470Y-86716259D01*
X151528087Y-86660234D01*
X151496455Y-86657411D01*
X151410609Y-86649749D01*
X151410603Y-86649749D01*
X151407816Y-86649500D01*
X149792184Y-86649500D01*
X149789397Y-86649749D01*
X149789391Y-86649749D01*
X149703545Y-86657411D01*
X149671913Y-86660234D01*
X149476530Y-86716259D01*
X149296404Y-86810427D01*
X149291461Y-86814458D01*
X149291460Y-86814459D01*
X149199737Y-86889266D01*
X149138891Y-86938891D01*
X149134862Y-86943831D01*
X149103652Y-86982099D01*
X149010427Y-87096404D01*
X148916259Y-87276530D01*
X148890348Y-87366895D01*
X148878495Y-87408230D01*
X148840491Y-87468199D01*
X148776099Y-87498101D01*
X148757376Y-87499500D01*
X147865581Y-87499500D01*
X147797460Y-87479498D01*
X147750967Y-87425842D01*
X147739996Y-87383717D01*
X147739486Y-87377447D01*
X147739051Y-87372097D01*
X147737716Y-87366895D01*
X147684934Y-87161328D01*
X147683537Y-87155887D01*
X147590614Y-86952924D01*
X147463218Y-86769625D01*
X147305375Y-86611782D01*
X147122076Y-86484386D01*
X146995020Y-86426216D01*
X146924218Y-86393800D01*
X146924216Y-86393799D01*
X146919113Y-86391463D01*
X146702903Y-86335949D01*
X146638769Y-86330733D01*
X146564690Y-86324707D01*
X146564678Y-86324707D01*
X146562139Y-86324500D01*
X146050201Y-86324500D01*
X145537862Y-86324501D01*
X145397097Y-86335949D01*
X145391901Y-86337283D01*
X145391896Y-86337284D01*
X145200075Y-86386536D01*
X145180887Y-86391463D01*
X145175784Y-86393799D01*
X145175782Y-86393800D01*
X145104980Y-86426216D01*
X144977924Y-86484386D01*
X144794625Y-86611782D01*
X144636782Y-86769625D01*
X144509386Y-86952924D01*
X144416463Y-87155887D01*
X144360949Y-87372097D01*
X144356578Y-87425842D01*
X144350587Y-87499500D01*
X144349500Y-87512861D01*
X144349500Y-88526283D01*
X144329498Y-88594404D01*
X144312595Y-88615378D01*
X142520826Y-90407147D01*
X142507384Y-90418812D01*
X142504507Y-90420972D01*
X142504504Y-90420974D01*
X142500364Y-90424083D01*
X142496788Y-90427825D01*
X142496787Y-90427826D01*
X142425412Y-90502516D01*
X142423413Y-90504560D01*
X142394754Y-90533219D01*
X142393094Y-90535177D01*
X142393087Y-90535184D01*
X142386782Y-90542619D01*
X142381781Y-90548173D01*
X142380027Y-90550009D01*
X142329896Y-90602468D01*
X142316196Y-90622551D01*
X142308410Y-90633965D01*
X142300420Y-90644454D01*
X142275761Y-90673531D01*
X142245873Y-90723470D01*
X142237193Y-90737973D01*
X142233165Y-90744270D01*
X142190851Y-90806300D01*
X142188675Y-90810987D01*
X142188672Y-90810993D01*
X142174796Y-90840887D01*
X142168630Y-90852532D01*
X142149049Y-90885250D01*
X142147156Y-90890057D01*
X142147154Y-90890060D01*
X142121526Y-90955122D01*
X142118581Y-90961993D01*
X142086965Y-91030104D01*
X142085583Y-91035089D01*
X142085581Y-91035093D01*
X142076776Y-91066843D01*
X142072596Y-91079338D01*
X142058619Y-91114822D01*
X142057534Y-91119883D01*
X142042881Y-91188229D01*
X142041099Y-91195487D01*
X142035123Y-91217037D01*
X142021026Y-91267871D01*
X142020478Y-91273003D01*
X142016975Y-91305778D01*
X142014888Y-91318802D01*
X142007981Y-91351018D01*
X142007979Y-91351033D01*
X142006897Y-91356080D01*
X142006654Y-91361243D01*
X142003360Y-91431093D01*
X142002786Y-91438548D01*
X141999500Y-91469292D01*
X141999500Y-91509968D01*
X141999360Y-91515902D01*
X141995274Y-91602547D01*
X141995878Y-91607685D01*
X141998639Y-91631191D01*
X141999500Y-91645892D01*
X141999500Y-93515490D01*
X141979498Y-93583611D01*
X141956577Y-93610222D01*
X141908338Y-93652526D01*
X141908331Y-93652533D01*
X141905242Y-93655242D01*
X141902533Y-93658331D01*
X141713445Y-93873943D01*
X141713441Y-93873949D01*
X141710727Y-93877043D01*
X141546828Y-94122336D01*
X141504181Y-94208815D01*
X141498052Y-94221244D01*
X141449983Y-94273493D01*
X141381298Y-94291459D01*
X141312775Y-94268728D01*
X141141934Y-94149104D01*
X141132439Y-94143621D01*
X140941007Y-94054355D01*
X140930715Y-94050609D01*
X140726691Y-93995941D01*
X140715896Y-93994038D01*
X140505475Y-93975628D01*
X140494525Y-93975628D01*
X140284104Y-93994038D01*
X140273309Y-93995941D01*
X140069285Y-94050609D01*
X140058993Y-94054355D01*
X139867559Y-94143623D01*
X139858068Y-94149103D01*
X139814235Y-94179794D01*
X139805860Y-94190271D01*
X139812928Y-94203718D01*
X140770115Y-95160905D01*
X140804141Y-95223217D01*
X140799076Y-95294032D01*
X140770115Y-95339095D01*
X139812207Y-96297003D01*
X139805777Y-96308777D01*
X138000000Y-96308777D01*
X138000000Y-95244525D01*
X139225628Y-95244525D01*
X139225628Y-95255475D01*
X139244038Y-95465896D01*
X139245941Y-95476691D01*
X139300609Y-95680715D01*
X139304355Y-95691007D01*
X139393623Y-95882441D01*
X139399103Y-95891932D01*
X139429794Y-95935765D01*
X139440271Y-95944140D01*
X139453718Y-95937072D01*
X140127978Y-95262812D01*
X140135592Y-95248868D01*
X140135461Y-95247035D01*
X140131210Y-95240420D01*
X139452997Y-94562207D01*
X139441223Y-94555777D01*
X139429207Y-94565074D01*
X139399103Y-94608068D01*
X139393623Y-94617559D01*
X139304355Y-94808993D01*
X139300609Y-94819285D01*
X139245941Y-95023309D01*
X139244038Y-95034104D01*
X139225628Y-95244525D01*
X138000000Y-95244525D01*
X138000000Y-89267548D01*
X138742000Y-89267548D01*
X138742000Y-90472098D01*
X138742337Y-90478613D01*
X138752256Y-90574205D01*
X138755150Y-90587604D01*
X138806588Y-90741785D01*
X138812762Y-90754964D01*
X138898063Y-90892810D01*
X138907099Y-90904209D01*
X139021828Y-91018738D01*
X139033239Y-91027750D01*
X139171242Y-91112816D01*
X139184423Y-91118963D01*
X139338709Y-91170138D01*
X139352085Y-91173005D01*
X139446437Y-91182672D01*
X139452853Y-91183000D01*
X139677885Y-91183000D01*
X139693124Y-91178525D01*
X139694329Y-91177135D01*
X139696000Y-91169452D01*
X139696000Y-89272115D01*
X139694659Y-89267548D01*
X140204000Y-89267548D01*
X140204000Y-91164885D01*
X140208475Y-91180124D01*
X140209865Y-91181329D01*
X140217548Y-91183000D01*
X140447098Y-91183000D01*
X140453613Y-91182663D01*
X140549205Y-91172744D01*
X140562604Y-91169850D01*
X140716785Y-91118412D01*
X140729964Y-91112238D01*
X140867810Y-91026937D01*
X140879209Y-91017901D01*
X140993738Y-90903172D01*
X141002750Y-90891761D01*
X141087816Y-90753758D01*
X141093963Y-90740577D01*
X141145138Y-90586291D01*
X141148005Y-90572915D01*
X141157672Y-90478563D01*
X141158000Y-90472147D01*
X141158000Y-89272115D01*
X141153525Y-89256876D01*
X141152135Y-89255671D01*
X141144452Y-89254000D01*
X140222115Y-89254000D01*
X140206876Y-89258475D01*
X140205671Y-89259865D01*
X140204000Y-89267548D01*
X139694659Y-89267548D01*
X139691525Y-89256876D01*
X139690135Y-89255671D01*
X139682452Y-89254000D01*
X138760115Y-89254000D01*
X138744876Y-89258475D01*
X138743671Y-89259865D01*
X138742000Y-89267548D01*
X138000000Y-89267548D01*
X138000000Y-87527854D01*
X138742000Y-87527854D01*
X138742000Y-88727885D01*
X138746475Y-88743124D01*
X138747865Y-88744329D01*
X138755548Y-88746000D01*
X139677885Y-88746000D01*
X139693124Y-88741525D01*
X139694329Y-88740135D01*
X139696000Y-88732452D01*
X139696000Y-86835115D01*
X139694659Y-86830548D01*
X140204000Y-86830548D01*
X140204000Y-88727885D01*
X140208475Y-88743124D01*
X140209865Y-88744329D01*
X140217548Y-88746000D01*
X141139885Y-88746000D01*
X141155124Y-88741525D01*
X141156329Y-88740135D01*
X141158000Y-88732452D01*
X141158000Y-87527902D01*
X141157663Y-87521387D01*
X141147744Y-87425795D01*
X141144850Y-87412396D01*
X141093412Y-87258215D01*
X141087238Y-87245036D01*
X141001937Y-87107190D01*
X140992901Y-87095791D01*
X140878172Y-86981262D01*
X140866761Y-86972250D01*
X140728758Y-86887184D01*
X140715577Y-86881037D01*
X140561291Y-86829862D01*
X140547915Y-86826995D01*
X140453563Y-86817328D01*
X140447146Y-86817000D01*
X140222115Y-86817000D01*
X140206876Y-86821475D01*
X140205671Y-86822865D01*
X140204000Y-86830548D01*
X139694659Y-86830548D01*
X139691525Y-86819876D01*
X139690135Y-86818671D01*
X139682452Y-86817000D01*
X139452902Y-86817000D01*
X139446387Y-86817337D01*
X139350795Y-86827256D01*
X139337396Y-86830150D01*
X139183215Y-86881588D01*
X139170036Y-86887762D01*
X139032190Y-86973063D01*
X139020791Y-86982099D01*
X138906262Y-87096828D01*
X138897250Y-87108239D01*
X138812184Y-87246242D01*
X138806037Y-87259423D01*
X138754862Y-87413709D01*
X138751995Y-87427085D01*
X138742328Y-87521437D01*
X138742000Y-87527854D01*
X138000000Y-87527854D01*
X138000000Y-83267548D01*
X138742000Y-83267548D01*
X138742000Y-84472098D01*
X138742337Y-84478613D01*
X138752256Y-84574205D01*
X138755150Y-84587604D01*
X138806588Y-84741785D01*
X138812762Y-84754964D01*
X138898063Y-84892810D01*
X138907099Y-84904209D01*
X139021828Y-85018738D01*
X139033239Y-85027750D01*
X139171242Y-85112816D01*
X139184423Y-85118963D01*
X139338709Y-85170138D01*
X139352085Y-85173005D01*
X139446437Y-85182672D01*
X139452853Y-85183000D01*
X139677885Y-85183000D01*
X139693124Y-85178525D01*
X139694329Y-85177135D01*
X139696000Y-85169452D01*
X139696000Y-83272115D01*
X139694659Y-83267548D01*
X140204000Y-83267548D01*
X140204000Y-85164885D01*
X140208475Y-85180124D01*
X140209865Y-85181329D01*
X140217548Y-85183000D01*
X140447098Y-85183000D01*
X140453613Y-85182663D01*
X140549205Y-85172744D01*
X140562604Y-85169850D01*
X140716785Y-85118412D01*
X140729964Y-85112238D01*
X140867810Y-85026937D01*
X140879209Y-85017901D01*
X140993738Y-84903172D01*
X141002750Y-84891761D01*
X141087816Y-84753758D01*
X141093963Y-84740577D01*
X141145138Y-84586291D01*
X141148005Y-84572915D01*
X141157672Y-84478563D01*
X141158000Y-84472147D01*
X141158000Y-83272115D01*
X141153525Y-83256876D01*
X141152135Y-83255671D01*
X141144452Y-83254000D01*
X140222115Y-83254000D01*
X140206876Y-83258475D01*
X140205671Y-83259865D01*
X140204000Y-83267548D01*
X139694659Y-83267548D01*
X139691525Y-83256876D01*
X139690135Y-83255671D01*
X139682452Y-83254000D01*
X138760115Y-83254000D01*
X138744876Y-83258475D01*
X138743671Y-83259865D01*
X138742000Y-83267548D01*
X138000000Y-83267548D01*
X138000000Y-81527854D01*
X138742000Y-81527854D01*
X138742000Y-82727885D01*
X138746475Y-82743124D01*
X138747865Y-82744329D01*
X138755548Y-82746000D01*
X139677885Y-82746000D01*
X139693124Y-82741525D01*
X139694329Y-82740135D01*
X139696000Y-82732452D01*
X139696000Y-80835115D01*
X139694659Y-80830548D01*
X140204000Y-80830548D01*
X140204000Y-82727885D01*
X140208475Y-82743124D01*
X140209865Y-82744329D01*
X140217548Y-82746000D01*
X141139885Y-82746000D01*
X141155124Y-82741525D01*
X141156329Y-82740135D01*
X141158000Y-82732452D01*
X141158000Y-81527902D01*
X141157663Y-81521387D01*
X141147744Y-81425795D01*
X141144850Y-81412396D01*
X141093412Y-81258215D01*
X141087238Y-81245036D01*
X141001937Y-81107190D01*
X140992901Y-81095791D01*
X140878172Y-80981262D01*
X140866761Y-80972250D01*
X140728758Y-80887184D01*
X140715577Y-80881037D01*
X140561291Y-80829862D01*
X140547915Y-80826995D01*
X140453563Y-80817328D01*
X140447146Y-80817000D01*
X140222115Y-80817000D01*
X140206876Y-80821475D01*
X140205671Y-80822865D01*
X140204000Y-80830548D01*
X139694659Y-80830548D01*
X139691525Y-80819876D01*
X139690135Y-80818671D01*
X139682452Y-80817000D01*
X139452902Y-80817000D01*
X139446387Y-80817337D01*
X139350795Y-80827256D01*
X139337396Y-80830150D01*
X139183215Y-80881588D01*
X139170036Y-80887762D01*
X139032190Y-80973063D01*
X139020791Y-80982099D01*
X138906262Y-81096828D01*
X138897250Y-81108239D01*
X138812184Y-81246242D01*
X138806037Y-81259423D01*
X138754862Y-81413709D01*
X138751995Y-81427085D01*
X138742328Y-81521437D01*
X138742000Y-81527854D01*
X138000000Y-81527854D01*
X138000000Y-70267548D01*
X143042001Y-70267548D01*
X143042001Y-71794669D01*
X143042371Y-71801490D01*
X143047895Y-71852352D01*
X143051521Y-71867604D01*
X143096676Y-71988054D01*
X143105214Y-72003649D01*
X143181715Y-72105724D01*
X143194276Y-72118285D01*
X143296351Y-72194786D01*
X143311946Y-72203324D01*
X143432394Y-72248478D01*
X143447649Y-72252105D01*
X143498514Y-72257631D01*
X143505328Y-72258000D01*
X144027885Y-72258000D01*
X144043124Y-72253525D01*
X144044329Y-72252135D01*
X144046000Y-72244452D01*
X144046000Y-70272115D01*
X144044659Y-70267548D01*
X144554000Y-70267548D01*
X144554000Y-72239884D01*
X144558475Y-72255123D01*
X144559865Y-72256328D01*
X144567548Y-72257999D01*
X145094669Y-72257999D01*
X145101490Y-72257629D01*
X145152352Y-72252105D01*
X145167604Y-72248479D01*
X145288054Y-72203324D01*
X145303649Y-72194786D01*
X145405724Y-72118285D01*
X145418285Y-72105724D01*
X145494786Y-72003649D01*
X145503324Y-71988054D01*
X145548478Y-71867606D01*
X145552105Y-71852351D01*
X145557631Y-71801486D01*
X145558000Y-71794672D01*
X145558000Y-70272115D01*
X145556659Y-70267548D01*
X148442001Y-70267548D01*
X148442001Y-71794669D01*
X148442371Y-71801490D01*
X148447895Y-71852352D01*
X148451521Y-71867604D01*
X148496676Y-71988054D01*
X148505214Y-72003649D01*
X148581715Y-72105724D01*
X148594276Y-72118285D01*
X148696351Y-72194786D01*
X148711946Y-72203324D01*
X148832394Y-72248478D01*
X148847649Y-72252105D01*
X148898514Y-72257631D01*
X148905328Y-72258000D01*
X149427885Y-72258000D01*
X149443124Y-72253525D01*
X149444329Y-72252135D01*
X149446000Y-72244452D01*
X149446000Y-70272115D01*
X149444659Y-70267548D01*
X149954000Y-70267548D01*
X149954000Y-72239884D01*
X149958475Y-72255123D01*
X149959865Y-72256328D01*
X149967548Y-72257999D01*
X150494669Y-72257999D01*
X150501490Y-72257629D01*
X150552352Y-72252105D01*
X150567604Y-72248479D01*
X150688054Y-72203324D01*
X150703649Y-72194786D01*
X150805724Y-72118285D01*
X150818285Y-72105724D01*
X150894786Y-72003649D01*
X150903324Y-71988054D01*
X150948478Y-71867606D01*
X150952105Y-71852351D01*
X150957631Y-71801486D01*
X150958000Y-71794672D01*
X150958000Y-70272115D01*
X150953525Y-70256876D01*
X150952135Y-70255671D01*
X150944452Y-70254000D01*
X149972115Y-70254000D01*
X149956876Y-70258475D01*
X149955671Y-70259865D01*
X149954000Y-70267548D01*
X149444659Y-70267548D01*
X149441525Y-70256876D01*
X149440135Y-70255671D01*
X149432452Y-70254000D01*
X148460116Y-70254000D01*
X148444877Y-70258475D01*
X148443672Y-70259865D01*
X148442001Y-70267548D01*
X145556659Y-70267548D01*
X145553525Y-70256876D01*
X145552135Y-70255671D01*
X145544452Y-70254000D01*
X144572115Y-70254000D01*
X144556876Y-70258475D01*
X144555671Y-70259865D01*
X144554000Y-70267548D01*
X144044659Y-70267548D01*
X144041525Y-70256876D01*
X144040135Y-70255671D01*
X144032452Y-70254000D01*
X143060116Y-70254000D01*
X143044877Y-70258475D01*
X143043672Y-70259865D01*
X143042001Y-70267548D01*
X138000000Y-70267548D01*
X138000000Y-68126000D01*
X138020002Y-68057879D01*
X138073658Y-68011386D01*
X138126000Y-68000000D01*
X142923529Y-68000000D01*
X142991650Y-68020002D01*
G37*
%TD.AperFunction*%
%TD*%
M02*
