%TF.GenerationSoftware,KiCad,Pcbnew,5.1.9-5.1.9*%
%TF.CreationDate,2021-05-17T13:06:36+03:00*%
%TF.ProjectId,lpf,6c70662e-6b69-4636-9164-5f7063625858,rev?*%
%TF.SameCoordinates,Original*%
%TF.FileFunction,Paste,Bot*%
%TF.FilePolarity,Positive*%
%FSLAX46Y46*%
G04 Gerber Fmt 4.6, Leading zero omitted, Abs format (unit mm)*
G04 Created by KiCad (PCBNEW 5.1.9-5.1.9) date 2021-05-17 13:06:36*
%MOMM*%
%LPD*%
G01*
G04 APERTURE LIST*
%ADD10R,3.500000X1.500000*%
G04 APERTURE END LIST*
D10*
%TO.C,J3*%
X163400000Y-145600000D03*
X163400000Y-140200000D03*
X163400000Y-142900000D03*
%TD*%
%TO.C,J2*%
X163400000Y-65700000D03*
X163400000Y-60300000D03*
X163400000Y-63000000D03*
%TD*%
%TO.C,C16*%
G36*
G01*
X159142000Y-116632002D02*
X159142000Y-115331998D01*
G75*
G02*
X159391998Y-115082000I249998J0D01*
G01*
X160217002Y-115082000D01*
G75*
G02*
X160467000Y-115331998I0J-249998D01*
G01*
X160467000Y-116632002D01*
G75*
G02*
X160217002Y-116882000I-249998J0D01*
G01*
X159391998Y-116882000D01*
G75*
G02*
X159142000Y-116632002I0J249998D01*
G01*
G37*
G36*
G01*
X156017000Y-116632002D02*
X156017000Y-115331998D01*
G75*
G02*
X156266998Y-115082000I249998J0D01*
G01*
X157092002Y-115082000D01*
G75*
G02*
X157342000Y-115331998I0J-249998D01*
G01*
X157342000Y-116632002D01*
G75*
G02*
X157092002Y-116882000I-249998J0D01*
G01*
X156266998Y-116882000D01*
G75*
G02*
X156017000Y-116632002I0J249998D01*
G01*
G37*
%TD*%
%TO.C,C15*%
G36*
G01*
X146442000Y-116632002D02*
X146442000Y-115331998D01*
G75*
G02*
X146691998Y-115082000I249998J0D01*
G01*
X147517002Y-115082000D01*
G75*
G02*
X147767000Y-115331998I0J-249998D01*
G01*
X147767000Y-116632002D01*
G75*
G02*
X147517002Y-116882000I-249998J0D01*
G01*
X146691998Y-116882000D01*
G75*
G02*
X146442000Y-116632002I0J249998D01*
G01*
G37*
G36*
G01*
X143317000Y-116632002D02*
X143317000Y-115331998D01*
G75*
G02*
X143566998Y-115082000I249998J0D01*
G01*
X144392002Y-115082000D01*
G75*
G02*
X144642000Y-115331998I0J-249998D01*
G01*
X144642000Y-116632002D01*
G75*
G02*
X144392002Y-116882000I-249998J0D01*
G01*
X143566998Y-116882000D01*
G75*
G02*
X143317000Y-116632002I0J249998D01*
G01*
G37*
%TD*%
%TO.C,C14*%
G36*
G01*
X133742000Y-116632002D02*
X133742000Y-115331998D01*
G75*
G02*
X133991998Y-115082000I249998J0D01*
G01*
X134817002Y-115082000D01*
G75*
G02*
X135067000Y-115331998I0J-249998D01*
G01*
X135067000Y-116632002D01*
G75*
G02*
X134817002Y-116882000I-249998J0D01*
G01*
X133991998Y-116882000D01*
G75*
G02*
X133742000Y-116632002I0J249998D01*
G01*
G37*
G36*
G01*
X130617000Y-116632002D02*
X130617000Y-115331998D01*
G75*
G02*
X130866998Y-115082000I249998J0D01*
G01*
X131692002Y-115082000D01*
G75*
G02*
X131942000Y-115331998I0J-249998D01*
G01*
X131942000Y-116632002D01*
G75*
G02*
X131692002Y-116882000I-249998J0D01*
G01*
X130866998Y-116882000D01*
G75*
G02*
X130617000Y-116632002I0J249998D01*
G01*
G37*
%TD*%
%TO.C,C13*%
G36*
G01*
X121042000Y-116632002D02*
X121042000Y-115331998D01*
G75*
G02*
X121291998Y-115082000I249998J0D01*
G01*
X122117002Y-115082000D01*
G75*
G02*
X122367000Y-115331998I0J-249998D01*
G01*
X122367000Y-116632002D01*
G75*
G02*
X122117002Y-116882000I-249998J0D01*
G01*
X121291998Y-116882000D01*
G75*
G02*
X121042000Y-116632002I0J249998D01*
G01*
G37*
G36*
G01*
X117917000Y-116632002D02*
X117917000Y-115331998D01*
G75*
G02*
X118166998Y-115082000I249998J0D01*
G01*
X118992002Y-115082000D01*
G75*
G02*
X119242000Y-115331998I0J-249998D01*
G01*
X119242000Y-116632002D01*
G75*
G02*
X118992002Y-116882000I-249998J0D01*
G01*
X118166998Y-116882000D01*
G75*
G02*
X117917000Y-116632002I0J249998D01*
G01*
G37*
%TD*%
%TO.C,C12*%
G36*
G01*
X159142000Y-105202002D02*
X159142000Y-103901998D01*
G75*
G02*
X159391998Y-103652000I249998J0D01*
G01*
X160217002Y-103652000D01*
G75*
G02*
X160467000Y-103901998I0J-249998D01*
G01*
X160467000Y-105202002D01*
G75*
G02*
X160217002Y-105452000I-249998J0D01*
G01*
X159391998Y-105452000D01*
G75*
G02*
X159142000Y-105202002I0J249998D01*
G01*
G37*
G36*
G01*
X156017000Y-105202002D02*
X156017000Y-103901998D01*
G75*
G02*
X156266998Y-103652000I249998J0D01*
G01*
X157092002Y-103652000D01*
G75*
G02*
X157342000Y-103901998I0J-249998D01*
G01*
X157342000Y-105202002D01*
G75*
G02*
X157092002Y-105452000I-249998J0D01*
G01*
X156266998Y-105452000D01*
G75*
G02*
X156017000Y-105202002I0J249998D01*
G01*
G37*
%TD*%
%TO.C,C11*%
G36*
G01*
X146442000Y-105202002D02*
X146442000Y-103901998D01*
G75*
G02*
X146691998Y-103652000I249998J0D01*
G01*
X147517002Y-103652000D01*
G75*
G02*
X147767000Y-103901998I0J-249998D01*
G01*
X147767000Y-105202002D01*
G75*
G02*
X147517002Y-105452000I-249998J0D01*
G01*
X146691998Y-105452000D01*
G75*
G02*
X146442000Y-105202002I0J249998D01*
G01*
G37*
G36*
G01*
X143317000Y-105202002D02*
X143317000Y-103901998D01*
G75*
G02*
X143566998Y-103652000I249998J0D01*
G01*
X144392002Y-103652000D01*
G75*
G02*
X144642000Y-103901998I0J-249998D01*
G01*
X144642000Y-105202002D01*
G75*
G02*
X144392002Y-105452000I-249998J0D01*
G01*
X143566998Y-105452000D01*
G75*
G02*
X143317000Y-105202002I0J249998D01*
G01*
G37*
%TD*%
%TO.C,C10*%
G36*
G01*
X133742000Y-105202002D02*
X133742000Y-103901998D01*
G75*
G02*
X133991998Y-103652000I249998J0D01*
G01*
X134817002Y-103652000D01*
G75*
G02*
X135067000Y-103901998I0J-249998D01*
G01*
X135067000Y-105202002D01*
G75*
G02*
X134817002Y-105452000I-249998J0D01*
G01*
X133991998Y-105452000D01*
G75*
G02*
X133742000Y-105202002I0J249998D01*
G01*
G37*
G36*
G01*
X130617000Y-105202002D02*
X130617000Y-103901998D01*
G75*
G02*
X130866998Y-103652000I249998J0D01*
G01*
X131692002Y-103652000D01*
G75*
G02*
X131942000Y-103901998I0J-249998D01*
G01*
X131942000Y-105202002D01*
G75*
G02*
X131692002Y-105452000I-249998J0D01*
G01*
X130866998Y-105452000D01*
G75*
G02*
X130617000Y-105202002I0J249998D01*
G01*
G37*
%TD*%
%TO.C,C9*%
G36*
G01*
X121042000Y-105202002D02*
X121042000Y-103901998D01*
G75*
G02*
X121291998Y-103652000I249998J0D01*
G01*
X122117002Y-103652000D01*
G75*
G02*
X122367000Y-103901998I0J-249998D01*
G01*
X122367000Y-105202002D01*
G75*
G02*
X122117002Y-105452000I-249998J0D01*
G01*
X121291998Y-105452000D01*
G75*
G02*
X121042000Y-105202002I0J249998D01*
G01*
G37*
G36*
G01*
X117917000Y-105202002D02*
X117917000Y-103901998D01*
G75*
G02*
X118166998Y-103652000I249998J0D01*
G01*
X118992002Y-103652000D01*
G75*
G02*
X119242000Y-103901998I0J-249998D01*
G01*
X119242000Y-105202002D01*
G75*
G02*
X118992002Y-105452000I-249998J0D01*
G01*
X118166998Y-105452000D01*
G75*
G02*
X117917000Y-105202002I0J249998D01*
G01*
G37*
%TD*%
%TO.C,C8*%
G36*
G01*
X159142000Y-93518002D02*
X159142000Y-92217998D01*
G75*
G02*
X159391998Y-91968000I249998J0D01*
G01*
X160217002Y-91968000D01*
G75*
G02*
X160467000Y-92217998I0J-249998D01*
G01*
X160467000Y-93518002D01*
G75*
G02*
X160217002Y-93768000I-249998J0D01*
G01*
X159391998Y-93768000D01*
G75*
G02*
X159142000Y-93518002I0J249998D01*
G01*
G37*
G36*
G01*
X156017000Y-93518002D02*
X156017000Y-92217998D01*
G75*
G02*
X156266998Y-91968000I249998J0D01*
G01*
X157092002Y-91968000D01*
G75*
G02*
X157342000Y-92217998I0J-249998D01*
G01*
X157342000Y-93518002D01*
G75*
G02*
X157092002Y-93768000I-249998J0D01*
G01*
X156266998Y-93768000D01*
G75*
G02*
X156017000Y-93518002I0J249998D01*
G01*
G37*
%TD*%
%TO.C,C7*%
G36*
G01*
X146442000Y-93518002D02*
X146442000Y-92217998D01*
G75*
G02*
X146691998Y-91968000I249998J0D01*
G01*
X147517002Y-91968000D01*
G75*
G02*
X147767000Y-92217998I0J-249998D01*
G01*
X147767000Y-93518002D01*
G75*
G02*
X147517002Y-93768000I-249998J0D01*
G01*
X146691998Y-93768000D01*
G75*
G02*
X146442000Y-93518002I0J249998D01*
G01*
G37*
G36*
G01*
X143317000Y-93518002D02*
X143317000Y-92217998D01*
G75*
G02*
X143566998Y-91968000I249998J0D01*
G01*
X144392002Y-91968000D01*
G75*
G02*
X144642000Y-92217998I0J-249998D01*
G01*
X144642000Y-93518002D01*
G75*
G02*
X144392002Y-93768000I-249998J0D01*
G01*
X143566998Y-93768000D01*
G75*
G02*
X143317000Y-93518002I0J249998D01*
G01*
G37*
%TD*%
%TO.C,C6*%
G36*
G01*
X133742000Y-93518002D02*
X133742000Y-92217998D01*
G75*
G02*
X133991998Y-91968000I249998J0D01*
G01*
X134817002Y-91968000D01*
G75*
G02*
X135067000Y-92217998I0J-249998D01*
G01*
X135067000Y-93518002D01*
G75*
G02*
X134817002Y-93768000I-249998J0D01*
G01*
X133991998Y-93768000D01*
G75*
G02*
X133742000Y-93518002I0J249998D01*
G01*
G37*
G36*
G01*
X130617000Y-93518002D02*
X130617000Y-92217998D01*
G75*
G02*
X130866998Y-91968000I249998J0D01*
G01*
X131692002Y-91968000D01*
G75*
G02*
X131942000Y-92217998I0J-249998D01*
G01*
X131942000Y-93518002D01*
G75*
G02*
X131692002Y-93768000I-249998J0D01*
G01*
X130866998Y-93768000D01*
G75*
G02*
X130617000Y-93518002I0J249998D01*
G01*
G37*
%TD*%
%TO.C,C5*%
G36*
G01*
X121042000Y-93518002D02*
X121042000Y-92217998D01*
G75*
G02*
X121291998Y-91968000I249998J0D01*
G01*
X122117002Y-91968000D01*
G75*
G02*
X122367000Y-92217998I0J-249998D01*
G01*
X122367000Y-93518002D01*
G75*
G02*
X122117002Y-93768000I-249998J0D01*
G01*
X121291998Y-93768000D01*
G75*
G02*
X121042000Y-93518002I0J249998D01*
G01*
G37*
G36*
G01*
X117917000Y-93518002D02*
X117917000Y-92217998D01*
G75*
G02*
X118166998Y-91968000I249998J0D01*
G01*
X118992002Y-91968000D01*
G75*
G02*
X119242000Y-92217998I0J-249998D01*
G01*
X119242000Y-93518002D01*
G75*
G02*
X118992002Y-93768000I-249998J0D01*
G01*
X118166998Y-93768000D01*
G75*
G02*
X117917000Y-93518002I0J249998D01*
G01*
G37*
%TD*%
%TO.C,C4*%
G36*
G01*
X159142000Y-85136002D02*
X159142000Y-83835998D01*
G75*
G02*
X159391998Y-83586000I249998J0D01*
G01*
X160217002Y-83586000D01*
G75*
G02*
X160467000Y-83835998I0J-249998D01*
G01*
X160467000Y-85136002D01*
G75*
G02*
X160217002Y-85386000I-249998J0D01*
G01*
X159391998Y-85386000D01*
G75*
G02*
X159142000Y-85136002I0J249998D01*
G01*
G37*
G36*
G01*
X156017000Y-85136002D02*
X156017000Y-83835998D01*
G75*
G02*
X156266998Y-83586000I249998J0D01*
G01*
X157092002Y-83586000D01*
G75*
G02*
X157342000Y-83835998I0J-249998D01*
G01*
X157342000Y-85136002D01*
G75*
G02*
X157092002Y-85386000I-249998J0D01*
G01*
X156266998Y-85386000D01*
G75*
G02*
X156017000Y-85136002I0J249998D01*
G01*
G37*
%TD*%
%TO.C,C3*%
G36*
G01*
X146442000Y-85136002D02*
X146442000Y-83835998D01*
G75*
G02*
X146691998Y-83586000I249998J0D01*
G01*
X147517002Y-83586000D01*
G75*
G02*
X147767000Y-83835998I0J-249998D01*
G01*
X147767000Y-85136002D01*
G75*
G02*
X147517002Y-85386000I-249998J0D01*
G01*
X146691998Y-85386000D01*
G75*
G02*
X146442000Y-85136002I0J249998D01*
G01*
G37*
G36*
G01*
X143317000Y-85136002D02*
X143317000Y-83835998D01*
G75*
G02*
X143566998Y-83586000I249998J0D01*
G01*
X144392002Y-83586000D01*
G75*
G02*
X144642000Y-83835998I0J-249998D01*
G01*
X144642000Y-85136002D01*
G75*
G02*
X144392002Y-85386000I-249998J0D01*
G01*
X143566998Y-85386000D01*
G75*
G02*
X143317000Y-85136002I0J249998D01*
G01*
G37*
%TD*%
%TO.C,C2*%
G36*
G01*
X133742000Y-85136002D02*
X133742000Y-83835998D01*
G75*
G02*
X133991998Y-83586000I249998J0D01*
G01*
X134817002Y-83586000D01*
G75*
G02*
X135067000Y-83835998I0J-249998D01*
G01*
X135067000Y-85136002D01*
G75*
G02*
X134817002Y-85386000I-249998J0D01*
G01*
X133991998Y-85386000D01*
G75*
G02*
X133742000Y-85136002I0J249998D01*
G01*
G37*
G36*
G01*
X130617000Y-85136002D02*
X130617000Y-83835998D01*
G75*
G02*
X130866998Y-83586000I249998J0D01*
G01*
X131692002Y-83586000D01*
G75*
G02*
X131942000Y-83835998I0J-249998D01*
G01*
X131942000Y-85136002D01*
G75*
G02*
X131692002Y-85386000I-249998J0D01*
G01*
X130866998Y-85386000D01*
G75*
G02*
X130617000Y-85136002I0J249998D01*
G01*
G37*
%TD*%
%TO.C,C1*%
G36*
G01*
X121042000Y-85136002D02*
X121042000Y-83835998D01*
G75*
G02*
X121291998Y-83586000I249998J0D01*
G01*
X122117002Y-83586000D01*
G75*
G02*
X122367000Y-83835998I0J-249998D01*
G01*
X122367000Y-85136002D01*
G75*
G02*
X122117002Y-85386000I-249998J0D01*
G01*
X121291998Y-85386000D01*
G75*
G02*
X121042000Y-85136002I0J249998D01*
G01*
G37*
G36*
G01*
X117917000Y-85136002D02*
X117917000Y-83835998D01*
G75*
G02*
X118166998Y-83586000I249998J0D01*
G01*
X118992002Y-83586000D01*
G75*
G02*
X119242000Y-83835998I0J-249998D01*
G01*
X119242000Y-85136002D01*
G75*
G02*
X118992002Y-85386000I-249998J0D01*
G01*
X118166998Y-85386000D01*
G75*
G02*
X117917000Y-85136002I0J249998D01*
G01*
G37*
%TD*%
M02*
