%TF.GenerationSoftware,KiCad,Pcbnew,5.1.9-5.1.9*%
%TF.CreationDate,2021-05-17T13:06:36+03:00*%
%TF.ProjectId,lpf,6c70662e-6b69-4636-9164-5f7063625858,rev?*%
%TF.SameCoordinates,Original*%
%TF.FileFunction,Copper,L2,Bot*%
%TF.FilePolarity,Positive*%
%FSLAX46Y46*%
G04 Gerber Fmt 4.6, Leading zero omitted, Abs format (unit mm)*
G04 Created by KiCad (PCBNEW 5.1.9-5.1.9) date 2021-05-17 13:06:36*
%MOMM*%
%LPD*%
G01*
G04 APERTURE LIST*
%TA.AperFunction,ComponentPad*%
%ADD10C,1.600000*%
%TD*%
%TA.AperFunction,ComponentPad*%
%ADD11C,1.524000*%
%TD*%
%TA.AperFunction,SMDPad,CuDef*%
%ADD12R,3.500000X1.500000*%
%TD*%
%TA.AperFunction,ComponentPad*%
%ADD13O,1.700000X1.700000*%
%TD*%
%TA.AperFunction,ComponentPad*%
%ADD14R,1.700000X1.700000*%
%TD*%
%TA.AperFunction,ViaPad*%
%ADD15C,0.800000*%
%TD*%
%TA.AperFunction,Conductor*%
%ADD16C,2.000000*%
%TD*%
%TA.AperFunction,Conductor*%
%ADD17C,1.000000*%
%TD*%
%TA.AperFunction,Conductor*%
%ADD18C,0.254000*%
%TD*%
%TA.AperFunction,Conductor*%
%ADD19C,0.100000*%
%TD*%
G04 APERTURE END LIST*
D10*
%TO.P,L12,2*%
%TO.N,Net-(C16-Pad1)*%
X157534893Y-119716641D03*
%TO.P,L12,1*%
%TO.N,Net-(C12-Pad1)*%
X158949107Y-111231359D03*
%TD*%
%TO.P,L11,2*%
%TO.N,Net-(C15-Pad1)*%
X144834893Y-119716641D03*
%TO.P,L11,1*%
%TO.N,Net-(C11-Pad1)*%
X146249107Y-111231359D03*
%TD*%
%TO.P,L10,2*%
%TO.N,Net-(C14-Pad1)*%
X132134893Y-119716641D03*
%TO.P,L10,1*%
%TO.N,Net-(C10-Pad1)*%
X133549107Y-111231359D03*
%TD*%
%TO.P,L9,2*%
%TO.N,Net-(C13-Pad1)*%
X119434893Y-119716641D03*
%TO.P,L9,1*%
%TO.N,Net-(C9-Pad1)*%
X120849107Y-111231359D03*
%TD*%
%TO.P,L8,2*%
%TO.N,Net-(C12-Pad1)*%
X157534893Y-108286641D03*
%TO.P,L8,1*%
%TO.N,Net-(C8-Pad1)*%
X158949107Y-99801359D03*
%TD*%
%TO.P,L7,2*%
%TO.N,Net-(C11-Pad1)*%
X144834893Y-108286641D03*
%TO.P,L7,1*%
%TO.N,Net-(C7-Pad1)*%
X146249107Y-99801359D03*
%TD*%
%TO.P,L6,2*%
%TO.N,Net-(C10-Pad1)*%
X132134893Y-108286641D03*
%TO.P,L6,1*%
%TO.N,Net-(C6-Pad1)*%
X133549107Y-99801359D03*
%TD*%
%TO.P,L5,2*%
%TO.N,Net-(C9-Pad1)*%
X119434893Y-108286641D03*
%TO.P,L5,1*%
%TO.N,Net-(C5-Pad1)*%
X120849107Y-99801359D03*
%TD*%
%TO.P,L4,2*%
%TO.N,Net-(C8-Pad1)*%
X157534893Y-96856641D03*
%TO.P,L4,1*%
%TO.N,Net-(C4-Pad1)*%
X158949107Y-88371359D03*
%TD*%
%TO.P,L3,2*%
%TO.N,Net-(C7-Pad1)*%
X144834893Y-96856641D03*
%TO.P,L3,1*%
%TO.N,Net-(C3-Pad1)*%
X146249107Y-88371359D03*
%TD*%
%TO.P,L2,2*%
%TO.N,Net-(C6-Pad1)*%
X132134893Y-96856641D03*
%TO.P,L2,1*%
%TO.N,Net-(C2-Pad1)*%
X133549107Y-88371359D03*
%TD*%
%TO.P,L1,2*%
%TO.N,Net-(C5-Pad1)*%
X119434893Y-96856641D03*
%TO.P,L1,1*%
%TO.N,Net-(C1-Pad1)*%
X120849107Y-88371359D03*
%TD*%
D11*
%TO.P,S8,4*%
%TO.N,Net-(S8-Pad4)*%
X154432000Y-124380000D03*
%TO.P,S8,5*%
%TO.N,Net-(C16-Pad1)*%
X162052000Y-124380000D03*
%TO.P,S8,2*%
%TO.N,GND*%
X162052000Y-126920000D03*
%TO.P,S8,1*%
%TO.N,/10M*%
X154432000Y-126920000D03*
%TO.P,S8,3*%
%TO.N,Net-(J3-Pad1)*%
X154432000Y-137080000D03*
X162052000Y-137080000D03*
%TD*%
%TO.P,S7,4*%
%TO.N,Net-(S7-Pad4)*%
X141732000Y-124380000D03*
%TO.P,S7,5*%
%TO.N,Net-(C15-Pad1)*%
X149352000Y-124380000D03*
%TO.P,S7,2*%
%TO.N,GND*%
X149352000Y-126920000D03*
%TO.P,S7,1*%
%TO.N,/20M*%
X141732000Y-126920000D03*
%TO.P,S7,3*%
%TO.N,Net-(J3-Pad1)*%
X141732000Y-137080000D03*
X149352000Y-137080000D03*
%TD*%
%TO.P,S6,4*%
%TO.N,Net-(S6-Pad4)*%
X129032000Y-124380000D03*
%TO.P,S6,5*%
%TO.N,Net-(C14-Pad1)*%
X136652000Y-124380000D03*
%TO.P,S6,2*%
%TO.N,GND*%
X136652000Y-126920000D03*
%TO.P,S6,1*%
%TO.N,/40M*%
X129032000Y-126920000D03*
%TO.P,S6,3*%
%TO.N,Net-(J3-Pad1)*%
X129032000Y-137080000D03*
X136652000Y-137080000D03*
%TD*%
%TO.P,S5,4*%
%TO.N,Net-(S5-Pad4)*%
X116332000Y-124380000D03*
%TO.P,S5,5*%
%TO.N,Net-(C13-Pad1)*%
X123952000Y-124380000D03*
%TO.P,S5,2*%
%TO.N,GND*%
X123952000Y-126920000D03*
%TO.P,S5,1*%
%TO.N,/80M*%
X116332000Y-126920000D03*
%TO.P,S5,3*%
%TO.N,Net-(J3-Pad1)*%
X116332000Y-137080000D03*
X123952000Y-137080000D03*
%TD*%
%TO.P,S4,4*%
%TO.N,Net-(S4-Pad4)*%
X162052000Y-81438000D03*
%TO.P,S4,5*%
%TO.N,Net-(C4-Pad1)*%
X154432000Y-81438000D03*
%TO.P,S4,2*%
%TO.N,/10M*%
X154432000Y-78898000D03*
%TO.P,S4,1*%
%TO.N,GND*%
X162052000Y-78898000D03*
%TO.P,S4,3*%
%TO.N,Net-(J2-Pad1)*%
X162052000Y-68738000D03*
X154432000Y-68738000D03*
%TD*%
%TO.P,S3,4*%
%TO.N,Net-(S3-Pad4)*%
X149352000Y-81438000D03*
%TO.P,S3,5*%
%TO.N,Net-(C3-Pad1)*%
X141732000Y-81438000D03*
%TO.P,S3,2*%
%TO.N,/20M*%
X141732000Y-78898000D03*
%TO.P,S3,1*%
%TO.N,GND*%
X149352000Y-78898000D03*
%TO.P,S3,3*%
%TO.N,Net-(J2-Pad1)*%
X149352000Y-68738000D03*
X141732000Y-68738000D03*
%TD*%
%TO.P,S2,4*%
%TO.N,Net-(S2-Pad4)*%
X136652000Y-81438000D03*
%TO.P,S2,5*%
%TO.N,Net-(C2-Pad1)*%
X129032000Y-81438000D03*
%TO.P,S2,2*%
%TO.N,/40M*%
X129032000Y-78898000D03*
%TO.P,S2,1*%
%TO.N,GND*%
X136652000Y-78898000D03*
%TO.P,S2,3*%
%TO.N,Net-(J2-Pad1)*%
X136652000Y-68738000D03*
X129032000Y-68738000D03*
%TD*%
%TO.P,S1,4*%
%TO.N,Net-(S1-Pad4)*%
X123952000Y-81438000D03*
%TO.P,S1,5*%
%TO.N,Net-(C1-Pad1)*%
X116332000Y-81438000D03*
%TO.P,S1,2*%
%TO.N,/80M*%
X116332000Y-78898000D03*
%TO.P,S1,1*%
%TO.N,GND*%
X123952000Y-78898000D03*
%TO.P,S1,3*%
%TO.N,Net-(J2-Pad1)*%
X123952000Y-68738000D03*
X116332000Y-68738000D03*
%TD*%
D12*
%TO.P,J3,2*%
%TO.N,GND*%
X163400000Y-145600000D03*
X163400000Y-140200000D03*
%TO.P,J3,1*%
%TO.N,Net-(J3-Pad1)*%
X163400000Y-142900000D03*
%TD*%
%TO.P,J2,2*%
%TO.N,GND*%
X163400000Y-65700000D03*
X163400000Y-60300000D03*
%TO.P,J2,1*%
%TO.N,Net-(J2-Pad1)*%
X163400000Y-63000000D03*
%TD*%
D13*
%TO.P,J1,5*%
%TO.N,/10M*%
X144160000Y-56000000D03*
%TO.P,J1,4*%
%TO.N,/20M*%
X141620000Y-56000000D03*
%TO.P,J1,3*%
%TO.N,/40M*%
X139080000Y-56000000D03*
%TO.P,J1,2*%
%TO.N,/80M*%
X136540000Y-56000000D03*
D14*
%TO.P,J1,1*%
%TO.N,GND*%
X134000000Y-56000000D03*
%TD*%
%TO.P,C16,2*%
%TO.N,GND*%
%TA.AperFunction,SMDPad,CuDef*%
G36*
G01*
X159142000Y-116632002D02*
X159142000Y-115331998D01*
G75*
G02*
X159391998Y-115082000I249998J0D01*
G01*
X160217002Y-115082000D01*
G75*
G02*
X160467000Y-115331998I0J-249998D01*
G01*
X160467000Y-116632002D01*
G75*
G02*
X160217002Y-116882000I-249998J0D01*
G01*
X159391998Y-116882000D01*
G75*
G02*
X159142000Y-116632002I0J249998D01*
G01*
G37*
%TD.AperFunction*%
%TO.P,C16,1*%
%TO.N,Net-(C16-Pad1)*%
%TA.AperFunction,SMDPad,CuDef*%
G36*
G01*
X156017000Y-116632002D02*
X156017000Y-115331998D01*
G75*
G02*
X156266998Y-115082000I249998J0D01*
G01*
X157092002Y-115082000D01*
G75*
G02*
X157342000Y-115331998I0J-249998D01*
G01*
X157342000Y-116632002D01*
G75*
G02*
X157092002Y-116882000I-249998J0D01*
G01*
X156266998Y-116882000D01*
G75*
G02*
X156017000Y-116632002I0J249998D01*
G01*
G37*
%TD.AperFunction*%
%TD*%
%TO.P,C15,2*%
%TO.N,GND*%
%TA.AperFunction,SMDPad,CuDef*%
G36*
G01*
X146442000Y-116632002D02*
X146442000Y-115331998D01*
G75*
G02*
X146691998Y-115082000I249998J0D01*
G01*
X147517002Y-115082000D01*
G75*
G02*
X147767000Y-115331998I0J-249998D01*
G01*
X147767000Y-116632002D01*
G75*
G02*
X147517002Y-116882000I-249998J0D01*
G01*
X146691998Y-116882000D01*
G75*
G02*
X146442000Y-116632002I0J249998D01*
G01*
G37*
%TD.AperFunction*%
%TO.P,C15,1*%
%TO.N,Net-(C15-Pad1)*%
%TA.AperFunction,SMDPad,CuDef*%
G36*
G01*
X143317000Y-116632002D02*
X143317000Y-115331998D01*
G75*
G02*
X143566998Y-115082000I249998J0D01*
G01*
X144392002Y-115082000D01*
G75*
G02*
X144642000Y-115331998I0J-249998D01*
G01*
X144642000Y-116632002D01*
G75*
G02*
X144392002Y-116882000I-249998J0D01*
G01*
X143566998Y-116882000D01*
G75*
G02*
X143317000Y-116632002I0J249998D01*
G01*
G37*
%TD.AperFunction*%
%TD*%
%TO.P,C14,2*%
%TO.N,GND*%
%TA.AperFunction,SMDPad,CuDef*%
G36*
G01*
X133742000Y-116632002D02*
X133742000Y-115331998D01*
G75*
G02*
X133991998Y-115082000I249998J0D01*
G01*
X134817002Y-115082000D01*
G75*
G02*
X135067000Y-115331998I0J-249998D01*
G01*
X135067000Y-116632002D01*
G75*
G02*
X134817002Y-116882000I-249998J0D01*
G01*
X133991998Y-116882000D01*
G75*
G02*
X133742000Y-116632002I0J249998D01*
G01*
G37*
%TD.AperFunction*%
%TO.P,C14,1*%
%TO.N,Net-(C14-Pad1)*%
%TA.AperFunction,SMDPad,CuDef*%
G36*
G01*
X130617000Y-116632002D02*
X130617000Y-115331998D01*
G75*
G02*
X130866998Y-115082000I249998J0D01*
G01*
X131692002Y-115082000D01*
G75*
G02*
X131942000Y-115331998I0J-249998D01*
G01*
X131942000Y-116632002D01*
G75*
G02*
X131692002Y-116882000I-249998J0D01*
G01*
X130866998Y-116882000D01*
G75*
G02*
X130617000Y-116632002I0J249998D01*
G01*
G37*
%TD.AperFunction*%
%TD*%
%TO.P,C13,2*%
%TO.N,GND*%
%TA.AperFunction,SMDPad,CuDef*%
G36*
G01*
X121042000Y-116632002D02*
X121042000Y-115331998D01*
G75*
G02*
X121291998Y-115082000I249998J0D01*
G01*
X122117002Y-115082000D01*
G75*
G02*
X122367000Y-115331998I0J-249998D01*
G01*
X122367000Y-116632002D01*
G75*
G02*
X122117002Y-116882000I-249998J0D01*
G01*
X121291998Y-116882000D01*
G75*
G02*
X121042000Y-116632002I0J249998D01*
G01*
G37*
%TD.AperFunction*%
%TO.P,C13,1*%
%TO.N,Net-(C13-Pad1)*%
%TA.AperFunction,SMDPad,CuDef*%
G36*
G01*
X117917000Y-116632002D02*
X117917000Y-115331998D01*
G75*
G02*
X118166998Y-115082000I249998J0D01*
G01*
X118992002Y-115082000D01*
G75*
G02*
X119242000Y-115331998I0J-249998D01*
G01*
X119242000Y-116632002D01*
G75*
G02*
X118992002Y-116882000I-249998J0D01*
G01*
X118166998Y-116882000D01*
G75*
G02*
X117917000Y-116632002I0J249998D01*
G01*
G37*
%TD.AperFunction*%
%TD*%
%TO.P,C12,2*%
%TO.N,GND*%
%TA.AperFunction,SMDPad,CuDef*%
G36*
G01*
X159142000Y-105202002D02*
X159142000Y-103901998D01*
G75*
G02*
X159391998Y-103652000I249998J0D01*
G01*
X160217002Y-103652000D01*
G75*
G02*
X160467000Y-103901998I0J-249998D01*
G01*
X160467000Y-105202002D01*
G75*
G02*
X160217002Y-105452000I-249998J0D01*
G01*
X159391998Y-105452000D01*
G75*
G02*
X159142000Y-105202002I0J249998D01*
G01*
G37*
%TD.AperFunction*%
%TO.P,C12,1*%
%TO.N,Net-(C12-Pad1)*%
%TA.AperFunction,SMDPad,CuDef*%
G36*
G01*
X156017000Y-105202002D02*
X156017000Y-103901998D01*
G75*
G02*
X156266998Y-103652000I249998J0D01*
G01*
X157092002Y-103652000D01*
G75*
G02*
X157342000Y-103901998I0J-249998D01*
G01*
X157342000Y-105202002D01*
G75*
G02*
X157092002Y-105452000I-249998J0D01*
G01*
X156266998Y-105452000D01*
G75*
G02*
X156017000Y-105202002I0J249998D01*
G01*
G37*
%TD.AperFunction*%
%TD*%
%TO.P,C11,2*%
%TO.N,GND*%
%TA.AperFunction,SMDPad,CuDef*%
G36*
G01*
X146442000Y-105202002D02*
X146442000Y-103901998D01*
G75*
G02*
X146691998Y-103652000I249998J0D01*
G01*
X147517002Y-103652000D01*
G75*
G02*
X147767000Y-103901998I0J-249998D01*
G01*
X147767000Y-105202002D01*
G75*
G02*
X147517002Y-105452000I-249998J0D01*
G01*
X146691998Y-105452000D01*
G75*
G02*
X146442000Y-105202002I0J249998D01*
G01*
G37*
%TD.AperFunction*%
%TO.P,C11,1*%
%TO.N,Net-(C11-Pad1)*%
%TA.AperFunction,SMDPad,CuDef*%
G36*
G01*
X143317000Y-105202002D02*
X143317000Y-103901998D01*
G75*
G02*
X143566998Y-103652000I249998J0D01*
G01*
X144392002Y-103652000D01*
G75*
G02*
X144642000Y-103901998I0J-249998D01*
G01*
X144642000Y-105202002D01*
G75*
G02*
X144392002Y-105452000I-249998J0D01*
G01*
X143566998Y-105452000D01*
G75*
G02*
X143317000Y-105202002I0J249998D01*
G01*
G37*
%TD.AperFunction*%
%TD*%
%TO.P,C10,2*%
%TO.N,GND*%
%TA.AperFunction,SMDPad,CuDef*%
G36*
G01*
X133742000Y-105202002D02*
X133742000Y-103901998D01*
G75*
G02*
X133991998Y-103652000I249998J0D01*
G01*
X134817002Y-103652000D01*
G75*
G02*
X135067000Y-103901998I0J-249998D01*
G01*
X135067000Y-105202002D01*
G75*
G02*
X134817002Y-105452000I-249998J0D01*
G01*
X133991998Y-105452000D01*
G75*
G02*
X133742000Y-105202002I0J249998D01*
G01*
G37*
%TD.AperFunction*%
%TO.P,C10,1*%
%TO.N,Net-(C10-Pad1)*%
%TA.AperFunction,SMDPad,CuDef*%
G36*
G01*
X130617000Y-105202002D02*
X130617000Y-103901998D01*
G75*
G02*
X130866998Y-103652000I249998J0D01*
G01*
X131692002Y-103652000D01*
G75*
G02*
X131942000Y-103901998I0J-249998D01*
G01*
X131942000Y-105202002D01*
G75*
G02*
X131692002Y-105452000I-249998J0D01*
G01*
X130866998Y-105452000D01*
G75*
G02*
X130617000Y-105202002I0J249998D01*
G01*
G37*
%TD.AperFunction*%
%TD*%
%TO.P,C9,2*%
%TO.N,GND*%
%TA.AperFunction,SMDPad,CuDef*%
G36*
G01*
X121042000Y-105202002D02*
X121042000Y-103901998D01*
G75*
G02*
X121291998Y-103652000I249998J0D01*
G01*
X122117002Y-103652000D01*
G75*
G02*
X122367000Y-103901998I0J-249998D01*
G01*
X122367000Y-105202002D01*
G75*
G02*
X122117002Y-105452000I-249998J0D01*
G01*
X121291998Y-105452000D01*
G75*
G02*
X121042000Y-105202002I0J249998D01*
G01*
G37*
%TD.AperFunction*%
%TO.P,C9,1*%
%TO.N,Net-(C9-Pad1)*%
%TA.AperFunction,SMDPad,CuDef*%
G36*
G01*
X117917000Y-105202002D02*
X117917000Y-103901998D01*
G75*
G02*
X118166998Y-103652000I249998J0D01*
G01*
X118992002Y-103652000D01*
G75*
G02*
X119242000Y-103901998I0J-249998D01*
G01*
X119242000Y-105202002D01*
G75*
G02*
X118992002Y-105452000I-249998J0D01*
G01*
X118166998Y-105452000D01*
G75*
G02*
X117917000Y-105202002I0J249998D01*
G01*
G37*
%TD.AperFunction*%
%TD*%
%TO.P,C8,2*%
%TO.N,GND*%
%TA.AperFunction,SMDPad,CuDef*%
G36*
G01*
X159142000Y-93518002D02*
X159142000Y-92217998D01*
G75*
G02*
X159391998Y-91968000I249998J0D01*
G01*
X160217002Y-91968000D01*
G75*
G02*
X160467000Y-92217998I0J-249998D01*
G01*
X160467000Y-93518002D01*
G75*
G02*
X160217002Y-93768000I-249998J0D01*
G01*
X159391998Y-93768000D01*
G75*
G02*
X159142000Y-93518002I0J249998D01*
G01*
G37*
%TD.AperFunction*%
%TO.P,C8,1*%
%TO.N,Net-(C8-Pad1)*%
%TA.AperFunction,SMDPad,CuDef*%
G36*
G01*
X156017000Y-93518002D02*
X156017000Y-92217998D01*
G75*
G02*
X156266998Y-91968000I249998J0D01*
G01*
X157092002Y-91968000D01*
G75*
G02*
X157342000Y-92217998I0J-249998D01*
G01*
X157342000Y-93518002D01*
G75*
G02*
X157092002Y-93768000I-249998J0D01*
G01*
X156266998Y-93768000D01*
G75*
G02*
X156017000Y-93518002I0J249998D01*
G01*
G37*
%TD.AperFunction*%
%TD*%
%TO.P,C7,2*%
%TO.N,GND*%
%TA.AperFunction,SMDPad,CuDef*%
G36*
G01*
X146442000Y-93518002D02*
X146442000Y-92217998D01*
G75*
G02*
X146691998Y-91968000I249998J0D01*
G01*
X147517002Y-91968000D01*
G75*
G02*
X147767000Y-92217998I0J-249998D01*
G01*
X147767000Y-93518002D01*
G75*
G02*
X147517002Y-93768000I-249998J0D01*
G01*
X146691998Y-93768000D01*
G75*
G02*
X146442000Y-93518002I0J249998D01*
G01*
G37*
%TD.AperFunction*%
%TO.P,C7,1*%
%TO.N,Net-(C7-Pad1)*%
%TA.AperFunction,SMDPad,CuDef*%
G36*
G01*
X143317000Y-93518002D02*
X143317000Y-92217998D01*
G75*
G02*
X143566998Y-91968000I249998J0D01*
G01*
X144392002Y-91968000D01*
G75*
G02*
X144642000Y-92217998I0J-249998D01*
G01*
X144642000Y-93518002D01*
G75*
G02*
X144392002Y-93768000I-249998J0D01*
G01*
X143566998Y-93768000D01*
G75*
G02*
X143317000Y-93518002I0J249998D01*
G01*
G37*
%TD.AperFunction*%
%TD*%
%TO.P,C6,2*%
%TO.N,GND*%
%TA.AperFunction,SMDPad,CuDef*%
G36*
G01*
X133742000Y-93518002D02*
X133742000Y-92217998D01*
G75*
G02*
X133991998Y-91968000I249998J0D01*
G01*
X134817002Y-91968000D01*
G75*
G02*
X135067000Y-92217998I0J-249998D01*
G01*
X135067000Y-93518002D01*
G75*
G02*
X134817002Y-93768000I-249998J0D01*
G01*
X133991998Y-93768000D01*
G75*
G02*
X133742000Y-93518002I0J249998D01*
G01*
G37*
%TD.AperFunction*%
%TO.P,C6,1*%
%TO.N,Net-(C6-Pad1)*%
%TA.AperFunction,SMDPad,CuDef*%
G36*
G01*
X130617000Y-93518002D02*
X130617000Y-92217998D01*
G75*
G02*
X130866998Y-91968000I249998J0D01*
G01*
X131692002Y-91968000D01*
G75*
G02*
X131942000Y-92217998I0J-249998D01*
G01*
X131942000Y-93518002D01*
G75*
G02*
X131692002Y-93768000I-249998J0D01*
G01*
X130866998Y-93768000D01*
G75*
G02*
X130617000Y-93518002I0J249998D01*
G01*
G37*
%TD.AperFunction*%
%TD*%
%TO.P,C5,2*%
%TO.N,GND*%
%TA.AperFunction,SMDPad,CuDef*%
G36*
G01*
X121042000Y-93518002D02*
X121042000Y-92217998D01*
G75*
G02*
X121291998Y-91968000I249998J0D01*
G01*
X122117002Y-91968000D01*
G75*
G02*
X122367000Y-92217998I0J-249998D01*
G01*
X122367000Y-93518002D01*
G75*
G02*
X122117002Y-93768000I-249998J0D01*
G01*
X121291998Y-93768000D01*
G75*
G02*
X121042000Y-93518002I0J249998D01*
G01*
G37*
%TD.AperFunction*%
%TO.P,C5,1*%
%TO.N,Net-(C5-Pad1)*%
%TA.AperFunction,SMDPad,CuDef*%
G36*
G01*
X117917000Y-93518002D02*
X117917000Y-92217998D01*
G75*
G02*
X118166998Y-91968000I249998J0D01*
G01*
X118992002Y-91968000D01*
G75*
G02*
X119242000Y-92217998I0J-249998D01*
G01*
X119242000Y-93518002D01*
G75*
G02*
X118992002Y-93768000I-249998J0D01*
G01*
X118166998Y-93768000D01*
G75*
G02*
X117917000Y-93518002I0J249998D01*
G01*
G37*
%TD.AperFunction*%
%TD*%
%TO.P,C4,2*%
%TO.N,GND*%
%TA.AperFunction,SMDPad,CuDef*%
G36*
G01*
X159142000Y-85136002D02*
X159142000Y-83835998D01*
G75*
G02*
X159391998Y-83586000I249998J0D01*
G01*
X160217002Y-83586000D01*
G75*
G02*
X160467000Y-83835998I0J-249998D01*
G01*
X160467000Y-85136002D01*
G75*
G02*
X160217002Y-85386000I-249998J0D01*
G01*
X159391998Y-85386000D01*
G75*
G02*
X159142000Y-85136002I0J249998D01*
G01*
G37*
%TD.AperFunction*%
%TO.P,C4,1*%
%TO.N,Net-(C4-Pad1)*%
%TA.AperFunction,SMDPad,CuDef*%
G36*
G01*
X156017000Y-85136002D02*
X156017000Y-83835998D01*
G75*
G02*
X156266998Y-83586000I249998J0D01*
G01*
X157092002Y-83586000D01*
G75*
G02*
X157342000Y-83835998I0J-249998D01*
G01*
X157342000Y-85136002D01*
G75*
G02*
X157092002Y-85386000I-249998J0D01*
G01*
X156266998Y-85386000D01*
G75*
G02*
X156017000Y-85136002I0J249998D01*
G01*
G37*
%TD.AperFunction*%
%TD*%
%TO.P,C3,2*%
%TO.N,GND*%
%TA.AperFunction,SMDPad,CuDef*%
G36*
G01*
X146442000Y-85136002D02*
X146442000Y-83835998D01*
G75*
G02*
X146691998Y-83586000I249998J0D01*
G01*
X147517002Y-83586000D01*
G75*
G02*
X147767000Y-83835998I0J-249998D01*
G01*
X147767000Y-85136002D01*
G75*
G02*
X147517002Y-85386000I-249998J0D01*
G01*
X146691998Y-85386000D01*
G75*
G02*
X146442000Y-85136002I0J249998D01*
G01*
G37*
%TD.AperFunction*%
%TO.P,C3,1*%
%TO.N,Net-(C3-Pad1)*%
%TA.AperFunction,SMDPad,CuDef*%
G36*
G01*
X143317000Y-85136002D02*
X143317000Y-83835998D01*
G75*
G02*
X143566998Y-83586000I249998J0D01*
G01*
X144392002Y-83586000D01*
G75*
G02*
X144642000Y-83835998I0J-249998D01*
G01*
X144642000Y-85136002D01*
G75*
G02*
X144392002Y-85386000I-249998J0D01*
G01*
X143566998Y-85386000D01*
G75*
G02*
X143317000Y-85136002I0J249998D01*
G01*
G37*
%TD.AperFunction*%
%TD*%
%TO.P,C2,2*%
%TO.N,GND*%
%TA.AperFunction,SMDPad,CuDef*%
G36*
G01*
X133742000Y-85136002D02*
X133742000Y-83835998D01*
G75*
G02*
X133991998Y-83586000I249998J0D01*
G01*
X134817002Y-83586000D01*
G75*
G02*
X135067000Y-83835998I0J-249998D01*
G01*
X135067000Y-85136002D01*
G75*
G02*
X134817002Y-85386000I-249998J0D01*
G01*
X133991998Y-85386000D01*
G75*
G02*
X133742000Y-85136002I0J249998D01*
G01*
G37*
%TD.AperFunction*%
%TO.P,C2,1*%
%TO.N,Net-(C2-Pad1)*%
%TA.AperFunction,SMDPad,CuDef*%
G36*
G01*
X130617000Y-85136002D02*
X130617000Y-83835998D01*
G75*
G02*
X130866998Y-83586000I249998J0D01*
G01*
X131692002Y-83586000D01*
G75*
G02*
X131942000Y-83835998I0J-249998D01*
G01*
X131942000Y-85136002D01*
G75*
G02*
X131692002Y-85386000I-249998J0D01*
G01*
X130866998Y-85386000D01*
G75*
G02*
X130617000Y-85136002I0J249998D01*
G01*
G37*
%TD.AperFunction*%
%TD*%
%TO.P,C1,2*%
%TO.N,GND*%
%TA.AperFunction,SMDPad,CuDef*%
G36*
G01*
X121042000Y-85136002D02*
X121042000Y-83835998D01*
G75*
G02*
X121291998Y-83586000I249998J0D01*
G01*
X122117002Y-83586000D01*
G75*
G02*
X122367000Y-83835998I0J-249998D01*
G01*
X122367000Y-85136002D01*
G75*
G02*
X122117002Y-85386000I-249998J0D01*
G01*
X121291998Y-85386000D01*
G75*
G02*
X121042000Y-85136002I0J249998D01*
G01*
G37*
%TD.AperFunction*%
%TO.P,C1,1*%
%TO.N,Net-(C1-Pad1)*%
%TA.AperFunction,SMDPad,CuDef*%
G36*
G01*
X117917000Y-85136002D02*
X117917000Y-83835998D01*
G75*
G02*
X118166998Y-83586000I249998J0D01*
G01*
X118992002Y-83586000D01*
G75*
G02*
X119242000Y-83835998I0J-249998D01*
G01*
X119242000Y-85136002D01*
G75*
G02*
X118992002Y-85386000I-249998J0D01*
G01*
X118166998Y-85386000D01*
G75*
G02*
X117917000Y-85136002I0J249998D01*
G01*
G37*
%TD.AperFunction*%
%TD*%
D15*
%TO.N,GND*%
X123952000Y-83724000D03*
X123952000Y-85248000D03*
X136652000Y-83724000D03*
X136652000Y-85248000D03*
X149352000Y-83724000D03*
X149352000Y-85248000D03*
X162052000Y-83724000D03*
X162052000Y-85248000D03*
X123952000Y-92106000D03*
X123952000Y-93630000D03*
X136652000Y-92106000D03*
X136652000Y-93630000D03*
X149352000Y-92106000D03*
X149352000Y-93630000D03*
X162052000Y-92106000D03*
X162052000Y-93630000D03*
X123952000Y-103790000D03*
X123952000Y-105314000D03*
X136652000Y-103790000D03*
X136652000Y-105314000D03*
X149352000Y-103790000D03*
X149352000Y-105314000D03*
X162052000Y-103790000D03*
X162052000Y-105314000D03*
X123952000Y-115220000D03*
X123952000Y-116744000D03*
X136652000Y-115220000D03*
X136652000Y-116744000D03*
X149352000Y-115220000D03*
X149352000Y-116744000D03*
X162052000Y-115220000D03*
X162052000Y-116744000D03*
X120142000Y-71532000D03*
X120142000Y-74834000D03*
X132842000Y-71532000D03*
X132842000Y-74834000D03*
X145542000Y-71532000D03*
X145542000Y-74834000D03*
X158242000Y-71532000D03*
X158242000Y-74834000D03*
X120142000Y-134286000D03*
X120142000Y-130730000D03*
X132842000Y-134286000D03*
X132842000Y-130730000D03*
X145542000Y-134286000D03*
X145542000Y-130730000D03*
X158242000Y-134286000D03*
X158242000Y-130730000D03*
%TD*%
D16*
%TO.N,Net-(C1-Pad1)*%
X118579500Y-83685500D02*
X116332000Y-81438000D01*
X118579500Y-84486000D02*
X118579500Y-83685500D01*
X118579500Y-86101752D02*
X120849107Y-88371359D01*
X118579500Y-84486000D02*
X118579500Y-86101752D01*
%TO.N,Net-(C2-Pad1)*%
X131279500Y-83685500D02*
X129032000Y-81438000D01*
X131279500Y-84486000D02*
X131279500Y-83685500D01*
X131279500Y-86101752D02*
X133549107Y-88371359D01*
X131279500Y-84486000D02*
X131279500Y-86101752D01*
%TO.N,Net-(C3-Pad1)*%
X143979500Y-83685500D02*
X141732000Y-81438000D01*
X143979500Y-84486000D02*
X143979500Y-83685500D01*
X143979500Y-86101752D02*
X146249107Y-88371359D01*
X143979500Y-84486000D02*
X143979500Y-86101752D01*
%TO.N,Net-(C4-Pad1)*%
X156679500Y-83685500D02*
X154432000Y-81438000D01*
X156679500Y-84486000D02*
X156679500Y-83685500D01*
X156679500Y-86101752D02*
X158949107Y-88371359D01*
X156679500Y-84486000D02*
X156679500Y-86101752D01*
%TO.N,Net-(C5-Pad1)*%
X120849107Y-98270855D02*
X119434893Y-96856641D01*
X120849107Y-99801359D02*
X120849107Y-98270855D01*
X118579500Y-96001248D02*
X119434893Y-96856641D01*
X118618000Y-92868000D02*
X118579500Y-92906500D01*
X118579500Y-92906500D02*
X118579500Y-96001248D01*
%TO.N,Net-(C6-Pad1)*%
X133549107Y-98270855D02*
X132134893Y-96856641D01*
X133549107Y-99801359D02*
X133549107Y-98270855D01*
X131279500Y-96001248D02*
X132134893Y-96856641D01*
X131279500Y-92868000D02*
X131279500Y-96001248D01*
%TO.N,Net-(C7-Pad1)*%
X146249107Y-98270855D02*
X144834893Y-96856641D01*
X146249107Y-99801359D02*
X146249107Y-98270855D01*
X143979500Y-96001248D02*
X144834893Y-96856641D01*
X144018000Y-92868000D02*
X143979500Y-92906500D01*
X143979500Y-92906500D02*
X143979500Y-96001248D01*
%TO.N,Net-(C8-Pad1)*%
X158949107Y-98270855D02*
X157534893Y-96856641D01*
X158949107Y-99801359D02*
X158949107Y-98270855D01*
X156679500Y-96001248D02*
X157534893Y-96856641D01*
X156718000Y-92868000D02*
X156679500Y-96001248D01*
%TO.N,Net-(C9-Pad1)*%
X120849107Y-109700855D02*
X119434893Y-108286641D01*
X120849107Y-111231359D02*
X120849107Y-109700855D01*
X118579500Y-107431248D02*
X119434893Y-108286641D01*
X118579500Y-104552000D02*
X118579500Y-107431248D01*
%TO.N,Net-(C10-Pad1)*%
X133549107Y-109700855D02*
X132134893Y-108286641D01*
X133549107Y-111231359D02*
X133549107Y-109700855D01*
X131279500Y-107431248D02*
X132134893Y-108286641D01*
X131318000Y-104552000D02*
X131279500Y-104590500D01*
X131279500Y-104590500D02*
X131279500Y-107431248D01*
%TO.N,Net-(C11-Pad1)*%
X146249107Y-109700855D02*
X144834893Y-108286641D01*
X146249107Y-111231359D02*
X146249107Y-109700855D01*
X143979500Y-107431248D02*
X144834893Y-108286641D01*
X143979500Y-104552000D02*
X143979500Y-107431248D01*
%TO.N,Net-(C12-Pad1)*%
X158949107Y-109700855D02*
X157534893Y-108286641D01*
X158949107Y-111231359D02*
X158949107Y-109700855D01*
X156679500Y-107431248D02*
X157534893Y-108286641D01*
X156679500Y-104552000D02*
X156679500Y-107431248D01*
%TO.N,Net-(C13-Pad1)*%
X118579500Y-118861248D02*
X119434893Y-119716641D01*
X118579500Y-115982000D02*
X118579500Y-118861248D01*
X119434893Y-119862893D02*
X123952000Y-124380000D01*
X119434893Y-119716641D02*
X119434893Y-119862893D01*
%TO.N,Net-(C14-Pad1)*%
X131279500Y-118861248D02*
X132134893Y-119716641D01*
X131279500Y-115982000D02*
X131279500Y-118861248D01*
X132134893Y-119862893D02*
X136652000Y-124380000D01*
X132134893Y-119716641D02*
X132134893Y-119862893D01*
%TO.N,Net-(C15-Pad1)*%
X143979500Y-118861248D02*
X144834893Y-119716641D01*
X143979500Y-115982000D02*
X143979500Y-118861248D01*
X144834893Y-119862893D02*
X149352000Y-124380000D01*
X144834893Y-119716641D02*
X144834893Y-119862893D01*
%TO.N,Net-(C16-Pad1)*%
X156679500Y-118861248D02*
X157534893Y-119716641D01*
X156718000Y-115982000D02*
X156679500Y-116020500D01*
X156679500Y-116020500D02*
X156679500Y-118861248D01*
X157534893Y-119862893D02*
X162052000Y-124380000D01*
X157534893Y-119716641D02*
X157534893Y-119862893D01*
%TO.N,Net-(J2-Pad1)*%
X116332000Y-68738000D02*
X123952000Y-68738000D01*
D17*
X136652000Y-68738000D02*
X134575998Y-68738000D01*
D16*
X139446000Y-68738000D02*
X162052000Y-68738000D01*
X123952000Y-68738000D02*
X139446000Y-68738000D01*
X155090000Y-63000000D02*
X162700000Y-63000000D01*
X149352000Y-68738000D02*
X155090000Y-63000000D01*
%TO.N,Net-(J3-Pad1)*%
X116332000Y-137080000D02*
X162052000Y-137080000D01*
X155172000Y-142900000D02*
X163400000Y-142900000D01*
X149352000Y-137080000D02*
X155172000Y-142900000D01*
%TD*%
D18*
%TO.N,GND*%
X161733948Y-51920890D02*
X162444694Y-52115328D01*
X163109783Y-52432559D01*
X163708176Y-52862548D01*
X164220969Y-53391709D01*
X164631953Y-54003319D01*
X164928134Y-54678036D01*
X165101725Y-55401096D01*
X165148001Y-56031256D01*
X165148001Y-58911932D01*
X163685750Y-58915000D01*
X163527000Y-59073750D01*
X163527000Y-60173000D01*
X163547000Y-60173000D01*
X163547000Y-60427000D01*
X163527000Y-60427000D01*
X163527000Y-60447000D01*
X163273000Y-60447000D01*
X163273000Y-60427000D01*
X161173750Y-60427000D01*
X161015000Y-60585750D01*
X161011928Y-61050000D01*
X161024042Y-61173000D01*
X155179743Y-61173000D01*
X155089999Y-61164161D01*
X155000255Y-61173000D01*
X155000245Y-61173000D01*
X154731845Y-61199435D01*
X154419513Y-61294180D01*
X154387454Y-61303905D01*
X154070061Y-61473555D01*
X153861581Y-61644650D01*
X153861577Y-61644654D01*
X153791865Y-61701865D01*
X153734653Y-61771578D01*
X148595233Y-66911000D01*
X116242245Y-66911000D01*
X115973845Y-66937435D01*
X115629454Y-67041905D01*
X115312062Y-67211555D01*
X115033865Y-67439865D01*
X114805555Y-67718062D01*
X114635905Y-68035454D01*
X114531435Y-68379845D01*
X114496160Y-68738000D01*
X114531435Y-69096155D01*
X114635905Y-69440546D01*
X114805555Y-69757938D01*
X115033865Y-70036135D01*
X115312062Y-70264445D01*
X115629454Y-70434095D01*
X115973845Y-70538565D01*
X116242245Y-70565000D01*
X149262248Y-70565000D01*
X149352000Y-70573840D01*
X149441752Y-70565000D01*
X162141755Y-70565000D01*
X162410155Y-70538565D01*
X162754546Y-70434095D01*
X163071938Y-70264445D01*
X163350135Y-70036135D01*
X163578445Y-69757938D01*
X163748095Y-69440546D01*
X163852565Y-69096155D01*
X163887840Y-68738000D01*
X163852565Y-68379845D01*
X163748095Y-68035454D01*
X163578445Y-67718062D01*
X163350135Y-67439865D01*
X163071938Y-67211555D01*
X162836262Y-67085583D01*
X163114250Y-67085000D01*
X163273000Y-66926250D01*
X163273000Y-65827000D01*
X161173750Y-65827000D01*
X161015000Y-65985750D01*
X161011928Y-66450000D01*
X161024188Y-66574482D01*
X161060498Y-66694180D01*
X161119463Y-66804494D01*
X161198815Y-66901185D01*
X161210775Y-66911000D01*
X153762768Y-66911000D01*
X155846769Y-64827000D01*
X161024042Y-64827000D01*
X161011928Y-64950000D01*
X161015000Y-65414250D01*
X161173750Y-65573000D01*
X163273000Y-65573000D01*
X163273000Y-65553000D01*
X163527000Y-65553000D01*
X163527000Y-65573000D01*
X163547000Y-65573000D01*
X163547000Y-65827000D01*
X163527000Y-65827000D01*
X163527000Y-66926250D01*
X163685750Y-67085000D01*
X165148001Y-67088068D01*
X165148000Y-138811932D01*
X163685750Y-138815000D01*
X163527000Y-138973750D01*
X163527000Y-140073000D01*
X163547000Y-140073000D01*
X163547000Y-140327000D01*
X163527000Y-140327000D01*
X163527000Y-140347000D01*
X163273000Y-140347000D01*
X163273000Y-140327000D01*
X161173750Y-140327000D01*
X161015000Y-140485750D01*
X161011928Y-140950000D01*
X161024042Y-141073000D01*
X155928768Y-141073000D01*
X153762768Y-138907000D01*
X161318822Y-138907000D01*
X161295506Y-138919463D01*
X161198815Y-138998815D01*
X161119463Y-139095506D01*
X161060498Y-139205820D01*
X161024188Y-139325518D01*
X161011928Y-139450000D01*
X161015000Y-139914250D01*
X161173750Y-140073000D01*
X163273000Y-140073000D01*
X163273000Y-138973750D01*
X163114250Y-138815000D01*
X162629645Y-138813983D01*
X162754546Y-138776095D01*
X163071938Y-138606445D01*
X163350135Y-138378135D01*
X163578445Y-138099938D01*
X163748095Y-137782546D01*
X163852565Y-137438155D01*
X163887840Y-137080000D01*
X163852565Y-136721845D01*
X163748095Y-136377454D01*
X163578445Y-136060062D01*
X163350135Y-135781865D01*
X163071938Y-135553555D01*
X162754546Y-135383905D01*
X162410155Y-135279435D01*
X162141755Y-135253000D01*
X149441752Y-135253000D01*
X149352000Y-135244160D01*
X149262248Y-135253000D01*
X116242245Y-135253000D01*
X115973845Y-135279435D01*
X115629454Y-135383905D01*
X115312062Y-135553555D01*
X115033865Y-135781865D01*
X114805555Y-136060062D01*
X114635905Y-136377454D01*
X114531435Y-136721845D01*
X114496160Y-137080000D01*
X114531435Y-137438155D01*
X114635905Y-137782546D01*
X114805555Y-138099938D01*
X115033865Y-138378135D01*
X115312062Y-138606445D01*
X115629454Y-138776095D01*
X115973845Y-138880565D01*
X116242245Y-138907000D01*
X148595233Y-138907000D01*
X153816649Y-144128417D01*
X153873865Y-144198135D01*
X154152062Y-144426445D01*
X154469454Y-144596095D01*
X154813845Y-144700565D01*
X155082245Y-144727000D01*
X155082248Y-144727000D01*
X155172000Y-144735840D01*
X155261752Y-144727000D01*
X161024042Y-144727000D01*
X161011928Y-144850000D01*
X161015000Y-145314250D01*
X161173750Y-145473000D01*
X163273000Y-145473000D01*
X163273000Y-145453000D01*
X163527000Y-145453000D01*
X163527000Y-145473000D01*
X163547000Y-145473000D01*
X163547000Y-145727000D01*
X163527000Y-145727000D01*
X163527000Y-146826250D01*
X163685750Y-146985000D01*
X165148000Y-146988068D01*
X165148000Y-149962056D01*
X165079110Y-150733949D01*
X164884672Y-151444696D01*
X164567441Y-152109783D01*
X164137452Y-152708176D01*
X163608291Y-153220969D01*
X162996681Y-153631953D01*
X162321963Y-153928134D01*
X161598904Y-154101725D01*
X160968758Y-154148000D01*
X117037944Y-154148000D01*
X116266051Y-154079110D01*
X115555304Y-153884672D01*
X114890217Y-153567441D01*
X114291824Y-153137452D01*
X113779031Y-152608291D01*
X113368047Y-151996681D01*
X113071866Y-151321963D01*
X112898275Y-150598904D01*
X112852000Y-149968758D01*
X112852000Y-149770811D01*
X114673000Y-149770811D01*
X114673000Y-150229189D01*
X114762426Y-150678761D01*
X114937840Y-151102248D01*
X115192501Y-151483376D01*
X115516624Y-151807499D01*
X115897752Y-152062160D01*
X116321239Y-152237574D01*
X116770811Y-152327000D01*
X117229189Y-152327000D01*
X117678761Y-152237574D01*
X118102248Y-152062160D01*
X118483376Y-151807499D01*
X118807499Y-151483376D01*
X119062160Y-151102248D01*
X119237574Y-150678761D01*
X119327000Y-150229189D01*
X119327000Y-149770811D01*
X158673000Y-149770811D01*
X158673000Y-150229189D01*
X158762426Y-150678761D01*
X158937840Y-151102248D01*
X159192501Y-151483376D01*
X159516624Y-151807499D01*
X159897752Y-152062160D01*
X160321239Y-152237574D01*
X160770811Y-152327000D01*
X161229189Y-152327000D01*
X161678761Y-152237574D01*
X162102248Y-152062160D01*
X162483376Y-151807499D01*
X162807499Y-151483376D01*
X163062160Y-151102248D01*
X163237574Y-150678761D01*
X163327000Y-150229189D01*
X163327000Y-149770811D01*
X163237574Y-149321239D01*
X163062160Y-148897752D01*
X162807499Y-148516624D01*
X162483376Y-148192501D01*
X162102248Y-147937840D01*
X161678761Y-147762426D01*
X161229189Y-147673000D01*
X160770811Y-147673000D01*
X160321239Y-147762426D01*
X159897752Y-147937840D01*
X159516624Y-148192501D01*
X159192501Y-148516624D01*
X158937840Y-148897752D01*
X158762426Y-149321239D01*
X158673000Y-149770811D01*
X119327000Y-149770811D01*
X119237574Y-149321239D01*
X119062160Y-148897752D01*
X118807499Y-148516624D01*
X118483376Y-148192501D01*
X118102248Y-147937840D01*
X117678761Y-147762426D01*
X117229189Y-147673000D01*
X116770811Y-147673000D01*
X116321239Y-147762426D01*
X115897752Y-147937840D01*
X115516624Y-148192501D01*
X115192501Y-148516624D01*
X114937840Y-148897752D01*
X114762426Y-149321239D01*
X114673000Y-149770811D01*
X112852000Y-149770811D01*
X112852000Y-146350000D01*
X161011928Y-146350000D01*
X161024188Y-146474482D01*
X161060498Y-146594180D01*
X161119463Y-146704494D01*
X161198815Y-146801185D01*
X161295506Y-146880537D01*
X161405820Y-146939502D01*
X161525518Y-146975812D01*
X161650000Y-146988072D01*
X163114250Y-146985000D01*
X163273000Y-146826250D01*
X163273000Y-145727000D01*
X161173750Y-145727000D01*
X161015000Y-145885750D01*
X161011928Y-146350000D01*
X112852000Y-146350000D01*
X112852000Y-124223497D01*
X114743000Y-124223497D01*
X114743000Y-124536503D01*
X114804065Y-124843494D01*
X114923847Y-125132674D01*
X115097743Y-125392928D01*
X115319072Y-125614257D01*
X115372565Y-125650000D01*
X115319072Y-125685743D01*
X115097743Y-125907072D01*
X114923847Y-126167326D01*
X114804065Y-126456506D01*
X114743000Y-126763497D01*
X114743000Y-127076503D01*
X114804065Y-127383494D01*
X114923847Y-127672674D01*
X115097743Y-127932928D01*
X115319072Y-128154257D01*
X115579326Y-128328153D01*
X115868506Y-128447935D01*
X116175497Y-128509000D01*
X116488503Y-128509000D01*
X116795494Y-128447935D01*
X117084674Y-128328153D01*
X117344928Y-128154257D01*
X117566257Y-127932928D01*
X117597903Y-127885565D01*
X123166040Y-127885565D01*
X123233020Y-128125656D01*
X123482048Y-128242756D01*
X123749135Y-128309023D01*
X124024017Y-128321910D01*
X124296133Y-128280922D01*
X124555023Y-128187636D01*
X124670980Y-128125656D01*
X124737960Y-127885565D01*
X123952000Y-127099605D01*
X123166040Y-127885565D01*
X117597903Y-127885565D01*
X117740153Y-127672674D01*
X117859935Y-127383494D01*
X117921000Y-127076503D01*
X117921000Y-126992017D01*
X122550090Y-126992017D01*
X122591078Y-127264133D01*
X122684364Y-127523023D01*
X122746344Y-127638980D01*
X122986435Y-127705960D01*
X123772395Y-126920000D01*
X124131605Y-126920000D01*
X124917565Y-127705960D01*
X125157656Y-127638980D01*
X125274756Y-127389952D01*
X125341023Y-127122865D01*
X125353910Y-126847983D01*
X125312922Y-126575867D01*
X125219636Y-126316977D01*
X125157656Y-126201020D01*
X124917565Y-126134040D01*
X124131605Y-126920000D01*
X123772395Y-126920000D01*
X122986435Y-126134040D01*
X122746344Y-126201020D01*
X122629244Y-126450048D01*
X122562977Y-126717135D01*
X122550090Y-126992017D01*
X117921000Y-126992017D01*
X117921000Y-126763497D01*
X117859935Y-126456506D01*
X117740153Y-126167326D01*
X117566257Y-125907072D01*
X117344928Y-125685743D01*
X117291435Y-125650000D01*
X117344928Y-125614257D01*
X117566257Y-125392928D01*
X117740153Y-125132674D01*
X117859935Y-124843494D01*
X117921000Y-124536503D01*
X117921000Y-124223497D01*
X117859935Y-123916506D01*
X117740153Y-123627326D01*
X117566257Y-123367072D01*
X117344928Y-123145743D01*
X117084674Y-122971847D01*
X116795494Y-122852065D01*
X116488503Y-122791000D01*
X116175497Y-122791000D01*
X115868506Y-122852065D01*
X115579326Y-122971847D01*
X115319072Y-123145743D01*
X115097743Y-123367072D01*
X114923847Y-123627326D01*
X114804065Y-123916506D01*
X114743000Y-124223497D01*
X112852000Y-124223497D01*
X112852000Y-118861248D01*
X116743660Y-118861248D01*
X116778936Y-119219402D01*
X116883405Y-119563793D01*
X117053055Y-119881185D01*
X117053056Y-119881186D01*
X117281366Y-120159383D01*
X117351084Y-120216599D01*
X117783436Y-120648951D01*
X117908448Y-120882831D01*
X118136758Y-121161028D01*
X118206480Y-121218247D01*
X122723582Y-125735350D01*
X122932062Y-125906445D01*
X123249454Y-126076095D01*
X123304353Y-126092748D01*
X123952000Y-126740395D01*
X124599647Y-126092748D01*
X124654545Y-126076095D01*
X124971937Y-125906445D01*
X125250134Y-125678134D01*
X125478445Y-125399937D01*
X125648095Y-125082545D01*
X125752564Y-124738154D01*
X125787840Y-124380000D01*
X125772426Y-124223497D01*
X127443000Y-124223497D01*
X127443000Y-124536503D01*
X127504065Y-124843494D01*
X127623847Y-125132674D01*
X127797743Y-125392928D01*
X128019072Y-125614257D01*
X128072565Y-125650000D01*
X128019072Y-125685743D01*
X127797743Y-125907072D01*
X127623847Y-126167326D01*
X127504065Y-126456506D01*
X127443000Y-126763497D01*
X127443000Y-127076503D01*
X127504065Y-127383494D01*
X127623847Y-127672674D01*
X127797743Y-127932928D01*
X128019072Y-128154257D01*
X128279326Y-128328153D01*
X128568506Y-128447935D01*
X128875497Y-128509000D01*
X129188503Y-128509000D01*
X129495494Y-128447935D01*
X129784674Y-128328153D01*
X130044928Y-128154257D01*
X130266257Y-127932928D01*
X130297903Y-127885565D01*
X135866040Y-127885565D01*
X135933020Y-128125656D01*
X136182048Y-128242756D01*
X136449135Y-128309023D01*
X136724017Y-128321910D01*
X136996133Y-128280922D01*
X137255023Y-128187636D01*
X137370980Y-128125656D01*
X137437960Y-127885565D01*
X136652000Y-127099605D01*
X135866040Y-127885565D01*
X130297903Y-127885565D01*
X130440153Y-127672674D01*
X130559935Y-127383494D01*
X130621000Y-127076503D01*
X130621000Y-126992017D01*
X135250090Y-126992017D01*
X135291078Y-127264133D01*
X135384364Y-127523023D01*
X135446344Y-127638980D01*
X135686435Y-127705960D01*
X136472395Y-126920000D01*
X136831605Y-126920000D01*
X137617565Y-127705960D01*
X137857656Y-127638980D01*
X137974756Y-127389952D01*
X138041023Y-127122865D01*
X138053910Y-126847983D01*
X138012922Y-126575867D01*
X137919636Y-126316977D01*
X137857656Y-126201020D01*
X137617565Y-126134040D01*
X136831605Y-126920000D01*
X136472395Y-126920000D01*
X135686435Y-126134040D01*
X135446344Y-126201020D01*
X135329244Y-126450048D01*
X135262977Y-126717135D01*
X135250090Y-126992017D01*
X130621000Y-126992017D01*
X130621000Y-126763497D01*
X130559935Y-126456506D01*
X130440153Y-126167326D01*
X130266257Y-125907072D01*
X130044928Y-125685743D01*
X129991435Y-125650000D01*
X130044928Y-125614257D01*
X130266257Y-125392928D01*
X130440153Y-125132674D01*
X130559935Y-124843494D01*
X130621000Y-124536503D01*
X130621000Y-124223497D01*
X130559935Y-123916506D01*
X130440153Y-123627326D01*
X130266257Y-123367072D01*
X130044928Y-123145743D01*
X129784674Y-122971847D01*
X129495494Y-122852065D01*
X129188503Y-122791000D01*
X128875497Y-122791000D01*
X128568506Y-122852065D01*
X128279326Y-122971847D01*
X128019072Y-123145743D01*
X127797743Y-123367072D01*
X127623847Y-123627326D01*
X127504065Y-123916506D01*
X127443000Y-124223497D01*
X125772426Y-124223497D01*
X125752564Y-124021845D01*
X125648095Y-123677454D01*
X125478445Y-123360062D01*
X125307350Y-123151582D01*
X121086349Y-118930582D01*
X121049290Y-118861248D01*
X129443660Y-118861248D01*
X129478936Y-119219402D01*
X129583405Y-119563793D01*
X129753055Y-119881185D01*
X129753056Y-119881186D01*
X129981366Y-120159383D01*
X130051084Y-120216599D01*
X130483436Y-120648951D01*
X130608448Y-120882831D01*
X130836758Y-121161028D01*
X130906480Y-121218247D01*
X135423582Y-125735350D01*
X135632062Y-125906445D01*
X135949454Y-126076095D01*
X136004353Y-126092748D01*
X136652000Y-126740395D01*
X137299647Y-126092748D01*
X137354545Y-126076095D01*
X137671937Y-125906445D01*
X137950134Y-125678134D01*
X138178445Y-125399937D01*
X138348095Y-125082545D01*
X138452564Y-124738154D01*
X138487840Y-124380000D01*
X138472426Y-124223497D01*
X140143000Y-124223497D01*
X140143000Y-124536503D01*
X140204065Y-124843494D01*
X140323847Y-125132674D01*
X140497743Y-125392928D01*
X140719072Y-125614257D01*
X140772565Y-125650000D01*
X140719072Y-125685743D01*
X140497743Y-125907072D01*
X140323847Y-126167326D01*
X140204065Y-126456506D01*
X140143000Y-126763497D01*
X140143000Y-127076503D01*
X140204065Y-127383494D01*
X140323847Y-127672674D01*
X140497743Y-127932928D01*
X140719072Y-128154257D01*
X140979326Y-128328153D01*
X141268506Y-128447935D01*
X141575497Y-128509000D01*
X141888503Y-128509000D01*
X142195494Y-128447935D01*
X142484674Y-128328153D01*
X142744928Y-128154257D01*
X142966257Y-127932928D01*
X142997903Y-127885565D01*
X148566040Y-127885565D01*
X148633020Y-128125656D01*
X148882048Y-128242756D01*
X149149135Y-128309023D01*
X149424017Y-128321910D01*
X149696133Y-128280922D01*
X149955023Y-128187636D01*
X150070980Y-128125656D01*
X150137960Y-127885565D01*
X149352000Y-127099605D01*
X148566040Y-127885565D01*
X142997903Y-127885565D01*
X143140153Y-127672674D01*
X143259935Y-127383494D01*
X143321000Y-127076503D01*
X143321000Y-126992017D01*
X147950090Y-126992017D01*
X147991078Y-127264133D01*
X148084364Y-127523023D01*
X148146344Y-127638980D01*
X148386435Y-127705960D01*
X149172395Y-126920000D01*
X149531605Y-126920000D01*
X150317565Y-127705960D01*
X150557656Y-127638980D01*
X150674756Y-127389952D01*
X150741023Y-127122865D01*
X150753910Y-126847983D01*
X150712922Y-126575867D01*
X150619636Y-126316977D01*
X150557656Y-126201020D01*
X150317565Y-126134040D01*
X149531605Y-126920000D01*
X149172395Y-126920000D01*
X148386435Y-126134040D01*
X148146344Y-126201020D01*
X148029244Y-126450048D01*
X147962977Y-126717135D01*
X147950090Y-126992017D01*
X143321000Y-126992017D01*
X143321000Y-126763497D01*
X143259935Y-126456506D01*
X143140153Y-126167326D01*
X142966257Y-125907072D01*
X142744928Y-125685743D01*
X142691435Y-125650000D01*
X142744928Y-125614257D01*
X142966257Y-125392928D01*
X143140153Y-125132674D01*
X143259935Y-124843494D01*
X143321000Y-124536503D01*
X143321000Y-124223497D01*
X143259935Y-123916506D01*
X143140153Y-123627326D01*
X142966257Y-123367072D01*
X142744928Y-123145743D01*
X142484674Y-122971847D01*
X142195494Y-122852065D01*
X141888503Y-122791000D01*
X141575497Y-122791000D01*
X141268506Y-122852065D01*
X140979326Y-122971847D01*
X140719072Y-123145743D01*
X140497743Y-123367072D01*
X140323847Y-123627326D01*
X140204065Y-123916506D01*
X140143000Y-124223497D01*
X138472426Y-124223497D01*
X138452564Y-124021845D01*
X138348095Y-123677454D01*
X138178445Y-123360062D01*
X138007350Y-123151582D01*
X133786349Y-118930582D01*
X133749290Y-118861248D01*
X142143660Y-118861248D01*
X142178936Y-119219402D01*
X142283405Y-119563793D01*
X142453055Y-119881185D01*
X142453056Y-119881186D01*
X142681366Y-120159383D01*
X142751084Y-120216599D01*
X143183436Y-120648951D01*
X143308448Y-120882831D01*
X143536758Y-121161028D01*
X143606480Y-121218247D01*
X148123582Y-125735350D01*
X148332062Y-125906445D01*
X148649454Y-126076095D01*
X148704353Y-126092748D01*
X149352000Y-126740395D01*
X149999647Y-126092748D01*
X150054545Y-126076095D01*
X150371937Y-125906445D01*
X150650134Y-125678134D01*
X150878445Y-125399937D01*
X151048095Y-125082545D01*
X151152564Y-124738154D01*
X151187840Y-124380000D01*
X151172426Y-124223497D01*
X152843000Y-124223497D01*
X152843000Y-124536503D01*
X152904065Y-124843494D01*
X153023847Y-125132674D01*
X153197743Y-125392928D01*
X153419072Y-125614257D01*
X153472565Y-125650000D01*
X153419072Y-125685743D01*
X153197743Y-125907072D01*
X153023847Y-126167326D01*
X152904065Y-126456506D01*
X152843000Y-126763497D01*
X152843000Y-127076503D01*
X152904065Y-127383494D01*
X153023847Y-127672674D01*
X153197743Y-127932928D01*
X153419072Y-128154257D01*
X153679326Y-128328153D01*
X153968506Y-128447935D01*
X154275497Y-128509000D01*
X154588503Y-128509000D01*
X154895494Y-128447935D01*
X155184674Y-128328153D01*
X155444928Y-128154257D01*
X155666257Y-127932928D01*
X155697903Y-127885565D01*
X161266040Y-127885565D01*
X161333020Y-128125656D01*
X161582048Y-128242756D01*
X161849135Y-128309023D01*
X162124017Y-128321910D01*
X162396133Y-128280922D01*
X162655023Y-128187636D01*
X162770980Y-128125656D01*
X162837960Y-127885565D01*
X162052000Y-127099605D01*
X161266040Y-127885565D01*
X155697903Y-127885565D01*
X155840153Y-127672674D01*
X155959935Y-127383494D01*
X156021000Y-127076503D01*
X156021000Y-126992017D01*
X160650090Y-126992017D01*
X160691078Y-127264133D01*
X160784364Y-127523023D01*
X160846344Y-127638980D01*
X161086435Y-127705960D01*
X161872395Y-126920000D01*
X162231605Y-126920000D01*
X163017565Y-127705960D01*
X163257656Y-127638980D01*
X163374756Y-127389952D01*
X163441023Y-127122865D01*
X163453910Y-126847983D01*
X163412922Y-126575867D01*
X163319636Y-126316977D01*
X163257656Y-126201020D01*
X163017565Y-126134040D01*
X162231605Y-126920000D01*
X161872395Y-126920000D01*
X161086435Y-126134040D01*
X160846344Y-126201020D01*
X160729244Y-126450048D01*
X160662977Y-126717135D01*
X160650090Y-126992017D01*
X156021000Y-126992017D01*
X156021000Y-126763497D01*
X155959935Y-126456506D01*
X155840153Y-126167326D01*
X155666257Y-125907072D01*
X155444928Y-125685743D01*
X155391435Y-125650000D01*
X155444928Y-125614257D01*
X155666257Y-125392928D01*
X155840153Y-125132674D01*
X155959935Y-124843494D01*
X156021000Y-124536503D01*
X156021000Y-124223497D01*
X155959935Y-123916506D01*
X155840153Y-123627326D01*
X155666257Y-123367072D01*
X155444928Y-123145743D01*
X155184674Y-122971847D01*
X154895494Y-122852065D01*
X154588503Y-122791000D01*
X154275497Y-122791000D01*
X153968506Y-122852065D01*
X153679326Y-122971847D01*
X153419072Y-123145743D01*
X153197743Y-123367072D01*
X153023847Y-123627326D01*
X152904065Y-123916506D01*
X152843000Y-124223497D01*
X151172426Y-124223497D01*
X151152564Y-124021845D01*
X151048095Y-123677454D01*
X150878445Y-123360062D01*
X150707350Y-123151582D01*
X146486349Y-118930582D01*
X146361338Y-118696703D01*
X146133028Y-118418506D01*
X146063306Y-118361287D01*
X145806500Y-118104481D01*
X145806500Y-116908115D01*
X145816188Y-117006482D01*
X145852498Y-117126180D01*
X145911463Y-117236494D01*
X145990815Y-117333185D01*
X146087506Y-117412537D01*
X146197820Y-117471502D01*
X146317518Y-117507812D01*
X146442000Y-117520072D01*
X146818750Y-117517000D01*
X146977500Y-117358250D01*
X146977500Y-116109000D01*
X147231500Y-116109000D01*
X147231500Y-117358250D01*
X147390250Y-117517000D01*
X147767000Y-117520072D01*
X147891482Y-117507812D01*
X148011180Y-117471502D01*
X148121494Y-117412537D01*
X148218185Y-117333185D01*
X148297537Y-117236494D01*
X148356502Y-117126180D01*
X148392812Y-117006482D01*
X148405072Y-116882000D01*
X148402000Y-116267750D01*
X148243250Y-116109000D01*
X147231500Y-116109000D01*
X146977500Y-116109000D01*
X145965750Y-116109000D01*
X145807000Y-116267750D01*
X145806500Y-116367726D01*
X145806500Y-116020500D01*
X154843660Y-116020500D01*
X154852500Y-116110252D01*
X154852501Y-118771487D01*
X154843660Y-118861248D01*
X154878936Y-119219402D01*
X154983405Y-119563793D01*
X155153055Y-119881185D01*
X155153056Y-119881186D01*
X155381366Y-120159383D01*
X155451084Y-120216599D01*
X155883436Y-120648951D01*
X156008448Y-120882831D01*
X156236758Y-121161028D01*
X156306480Y-121218247D01*
X160823582Y-125735350D01*
X161032062Y-125906445D01*
X161349454Y-126076095D01*
X161404353Y-126092748D01*
X162052000Y-126740395D01*
X162699647Y-126092748D01*
X162754545Y-126076095D01*
X163071937Y-125906445D01*
X163350134Y-125678134D01*
X163578445Y-125399937D01*
X163748095Y-125082545D01*
X163852564Y-124738154D01*
X163887840Y-124380000D01*
X163852564Y-124021845D01*
X163748095Y-123677454D01*
X163578445Y-123360062D01*
X163407350Y-123151582D01*
X159186349Y-118930582D01*
X159061338Y-118696703D01*
X158833028Y-118418506D01*
X158763306Y-118361287D01*
X158506500Y-118104481D01*
X158506500Y-116908115D01*
X158516188Y-117006482D01*
X158552498Y-117126180D01*
X158611463Y-117236494D01*
X158690815Y-117333185D01*
X158787506Y-117412537D01*
X158897820Y-117471502D01*
X159017518Y-117507812D01*
X159142000Y-117520072D01*
X159518750Y-117517000D01*
X159677500Y-117358250D01*
X159677500Y-116109000D01*
X159931500Y-116109000D01*
X159931500Y-117358250D01*
X160090250Y-117517000D01*
X160467000Y-117520072D01*
X160591482Y-117507812D01*
X160711180Y-117471502D01*
X160821494Y-117412537D01*
X160918185Y-117333185D01*
X160997537Y-117236494D01*
X161056502Y-117126180D01*
X161092812Y-117006482D01*
X161105072Y-116882000D01*
X161102000Y-116267750D01*
X160943250Y-116109000D01*
X159931500Y-116109000D01*
X159677500Y-116109000D01*
X159657500Y-116109000D01*
X159657500Y-115855000D01*
X159677500Y-115855000D01*
X159677500Y-114605750D01*
X159931500Y-114605750D01*
X159931500Y-115855000D01*
X160943250Y-115855000D01*
X161102000Y-115696250D01*
X161105072Y-115082000D01*
X161092812Y-114957518D01*
X161056502Y-114837820D01*
X160997537Y-114727506D01*
X160918185Y-114630815D01*
X160821494Y-114551463D01*
X160711180Y-114492498D01*
X160591482Y-114456188D01*
X160467000Y-114443928D01*
X160090250Y-114447000D01*
X159931500Y-114605750D01*
X159677500Y-114605750D01*
X159518750Y-114447000D01*
X159142000Y-114443928D01*
X159017518Y-114456188D01*
X158897820Y-114492498D01*
X158787506Y-114551463D01*
X158690815Y-114630815D01*
X158611463Y-114727506D01*
X158552498Y-114837820D01*
X158516188Y-114957518D01*
X158503928Y-115082000D01*
X158506438Y-115583872D01*
X158414095Y-115279455D01*
X158244445Y-114962063D01*
X158016134Y-114683866D01*
X157737937Y-114455555D01*
X157420545Y-114285905D01*
X157076154Y-114181436D01*
X156717999Y-114146161D01*
X156359846Y-114181436D01*
X156064911Y-114270903D01*
X156056106Y-114271770D01*
X155853318Y-114333285D01*
X155666427Y-114433180D01*
X155502616Y-114567616D01*
X155368180Y-114731427D01*
X155357444Y-114751513D01*
X155153055Y-115000563D01*
X154983405Y-115317955D01*
X154878935Y-115662346D01*
X154856292Y-115892245D01*
X154843660Y-116020500D01*
X145806500Y-116020500D01*
X145806500Y-115892245D01*
X145780065Y-115623845D01*
X145675595Y-115279454D01*
X145570054Y-115082000D01*
X145803928Y-115082000D01*
X145807000Y-115696250D01*
X145965750Y-115855000D01*
X146977500Y-115855000D01*
X146977500Y-114605750D01*
X147231500Y-114605750D01*
X147231500Y-115855000D01*
X148243250Y-115855000D01*
X148402000Y-115696250D01*
X148405072Y-115082000D01*
X148392812Y-114957518D01*
X148356502Y-114837820D01*
X148297537Y-114727506D01*
X148218185Y-114630815D01*
X148121494Y-114551463D01*
X148011180Y-114492498D01*
X147891482Y-114456188D01*
X147767000Y-114443928D01*
X147390250Y-114447000D01*
X147231500Y-114605750D01*
X146977500Y-114605750D01*
X146818750Y-114447000D01*
X146442000Y-114443928D01*
X146317518Y-114456188D01*
X146197820Y-114492498D01*
X146087506Y-114551463D01*
X145990815Y-114630815D01*
X145911463Y-114727506D01*
X145852498Y-114837820D01*
X145816188Y-114957518D01*
X145803928Y-115082000D01*
X145570054Y-115082000D01*
X145505945Y-114962062D01*
X145277635Y-114683865D01*
X145198466Y-114618893D01*
X145156384Y-114567616D01*
X144992573Y-114433180D01*
X144805682Y-114333285D01*
X144724764Y-114308739D01*
X144682045Y-114285905D01*
X144337654Y-114181435D01*
X143979500Y-114146160D01*
X143621345Y-114181435D01*
X143276954Y-114285905D01*
X143234234Y-114308739D01*
X143153318Y-114333285D01*
X142966427Y-114433180D01*
X142802616Y-114567616D01*
X142760535Y-114618892D01*
X142681365Y-114683865D01*
X142453055Y-114962063D01*
X142283405Y-115279455D01*
X142178935Y-115623846D01*
X142152500Y-115892246D01*
X142152501Y-118771487D01*
X142143660Y-118861248D01*
X133749290Y-118861248D01*
X133661338Y-118696703D01*
X133433028Y-118418506D01*
X133363306Y-118361287D01*
X133106500Y-118104481D01*
X133106500Y-116908115D01*
X133116188Y-117006482D01*
X133152498Y-117126180D01*
X133211463Y-117236494D01*
X133290815Y-117333185D01*
X133387506Y-117412537D01*
X133497820Y-117471502D01*
X133617518Y-117507812D01*
X133742000Y-117520072D01*
X134118750Y-117517000D01*
X134277500Y-117358250D01*
X134277500Y-116109000D01*
X134531500Y-116109000D01*
X134531500Y-117358250D01*
X134690250Y-117517000D01*
X135067000Y-117520072D01*
X135191482Y-117507812D01*
X135311180Y-117471502D01*
X135421494Y-117412537D01*
X135518185Y-117333185D01*
X135597537Y-117236494D01*
X135656502Y-117126180D01*
X135692812Y-117006482D01*
X135705072Y-116882000D01*
X135702000Y-116267750D01*
X135543250Y-116109000D01*
X134531500Y-116109000D01*
X134277500Y-116109000D01*
X133265750Y-116109000D01*
X133107000Y-116267750D01*
X133106500Y-116367726D01*
X133106500Y-115892245D01*
X133080065Y-115623845D01*
X132975595Y-115279454D01*
X132870054Y-115082000D01*
X133103928Y-115082000D01*
X133107000Y-115696250D01*
X133265750Y-115855000D01*
X134277500Y-115855000D01*
X134277500Y-114605750D01*
X134531500Y-114605750D01*
X134531500Y-115855000D01*
X135543250Y-115855000D01*
X135702000Y-115696250D01*
X135705072Y-115082000D01*
X135692812Y-114957518D01*
X135656502Y-114837820D01*
X135597537Y-114727506D01*
X135518185Y-114630815D01*
X135421494Y-114551463D01*
X135311180Y-114492498D01*
X135191482Y-114456188D01*
X135067000Y-114443928D01*
X134690250Y-114447000D01*
X134531500Y-114605750D01*
X134277500Y-114605750D01*
X134118750Y-114447000D01*
X133742000Y-114443928D01*
X133617518Y-114456188D01*
X133497820Y-114492498D01*
X133387506Y-114551463D01*
X133290815Y-114630815D01*
X133211463Y-114727506D01*
X133152498Y-114837820D01*
X133116188Y-114957518D01*
X133103928Y-115082000D01*
X132870054Y-115082000D01*
X132805945Y-114962062D01*
X132577635Y-114683865D01*
X132498466Y-114618893D01*
X132456384Y-114567616D01*
X132292573Y-114433180D01*
X132105682Y-114333285D01*
X132024764Y-114308739D01*
X131982045Y-114285905D01*
X131637654Y-114181435D01*
X131279500Y-114146160D01*
X130921345Y-114181435D01*
X130576954Y-114285905D01*
X130534234Y-114308739D01*
X130453318Y-114333285D01*
X130266427Y-114433180D01*
X130102616Y-114567616D01*
X130060535Y-114618892D01*
X129981365Y-114683865D01*
X129753055Y-114962063D01*
X129583405Y-115279455D01*
X129478935Y-115623846D01*
X129452500Y-115892246D01*
X129452501Y-118771487D01*
X129443660Y-118861248D01*
X121049290Y-118861248D01*
X120961338Y-118696703D01*
X120733028Y-118418506D01*
X120663306Y-118361287D01*
X120406500Y-118104481D01*
X120406500Y-116908115D01*
X120416188Y-117006482D01*
X120452498Y-117126180D01*
X120511463Y-117236494D01*
X120590815Y-117333185D01*
X120687506Y-117412537D01*
X120797820Y-117471502D01*
X120917518Y-117507812D01*
X121042000Y-117520072D01*
X121418750Y-117517000D01*
X121577500Y-117358250D01*
X121577500Y-116109000D01*
X121831500Y-116109000D01*
X121831500Y-117358250D01*
X121990250Y-117517000D01*
X122367000Y-117520072D01*
X122491482Y-117507812D01*
X122611180Y-117471502D01*
X122721494Y-117412537D01*
X122818185Y-117333185D01*
X122897537Y-117236494D01*
X122956502Y-117126180D01*
X122992812Y-117006482D01*
X123005072Y-116882000D01*
X123002000Y-116267750D01*
X122843250Y-116109000D01*
X121831500Y-116109000D01*
X121577500Y-116109000D01*
X120565750Y-116109000D01*
X120407000Y-116267750D01*
X120406500Y-116367726D01*
X120406500Y-115892245D01*
X120380065Y-115623845D01*
X120275595Y-115279454D01*
X120170054Y-115082000D01*
X120403928Y-115082000D01*
X120407000Y-115696250D01*
X120565750Y-115855000D01*
X121577500Y-115855000D01*
X121577500Y-114605750D01*
X121831500Y-114605750D01*
X121831500Y-115855000D01*
X122843250Y-115855000D01*
X123002000Y-115696250D01*
X123005072Y-115082000D01*
X122992812Y-114957518D01*
X122956502Y-114837820D01*
X122897537Y-114727506D01*
X122818185Y-114630815D01*
X122721494Y-114551463D01*
X122611180Y-114492498D01*
X122491482Y-114456188D01*
X122367000Y-114443928D01*
X121990250Y-114447000D01*
X121831500Y-114605750D01*
X121577500Y-114605750D01*
X121418750Y-114447000D01*
X121042000Y-114443928D01*
X120917518Y-114456188D01*
X120797820Y-114492498D01*
X120687506Y-114551463D01*
X120590815Y-114630815D01*
X120511463Y-114727506D01*
X120452498Y-114837820D01*
X120416188Y-114957518D01*
X120403928Y-115082000D01*
X120170054Y-115082000D01*
X120105945Y-114962062D01*
X119877635Y-114683865D01*
X119798466Y-114618893D01*
X119756384Y-114567616D01*
X119592573Y-114433180D01*
X119405682Y-114333285D01*
X119324764Y-114308739D01*
X119282045Y-114285905D01*
X118937654Y-114181435D01*
X118579500Y-114146160D01*
X118221345Y-114181435D01*
X117876954Y-114285905D01*
X117834234Y-114308739D01*
X117753318Y-114333285D01*
X117566427Y-114433180D01*
X117402616Y-114567616D01*
X117360535Y-114618892D01*
X117281365Y-114683865D01*
X117053055Y-114962063D01*
X116883405Y-115279455D01*
X116778935Y-115623846D01*
X116752500Y-115892246D01*
X116752501Y-118771487D01*
X116743660Y-118861248D01*
X112852000Y-118861248D01*
X112852000Y-107431248D01*
X116743660Y-107431248D01*
X116778936Y-107789402D01*
X116883405Y-108133793D01*
X117053055Y-108451185D01*
X117053056Y-108451186D01*
X117281366Y-108729383D01*
X117351084Y-108786599D01*
X118079543Y-109515058D01*
X119022107Y-110457623D01*
X119022107Y-111321113D01*
X119048542Y-111589513D01*
X119153012Y-111933904D01*
X119322662Y-112251296D01*
X119550972Y-112529494D01*
X119829169Y-112757804D01*
X120146561Y-112927454D01*
X120490952Y-113031924D01*
X120849107Y-113067199D01*
X121207261Y-113031924D01*
X121551652Y-112927454D01*
X121869044Y-112757804D01*
X122147242Y-112529494D01*
X122375552Y-112251297D01*
X122545202Y-111933905D01*
X122649672Y-111589514D01*
X122676107Y-111321114D01*
X122676107Y-109790607D01*
X122684947Y-109700855D01*
X122670130Y-109550414D01*
X122649672Y-109342700D01*
X122545202Y-108998309D01*
X122375552Y-108680917D01*
X122147242Y-108402720D01*
X122077524Y-108345504D01*
X120663310Y-106931291D01*
X120406500Y-106674481D01*
X120406500Y-105478115D01*
X120416188Y-105576482D01*
X120452498Y-105696180D01*
X120511463Y-105806494D01*
X120590815Y-105903185D01*
X120687506Y-105982537D01*
X120797820Y-106041502D01*
X120917518Y-106077812D01*
X121042000Y-106090072D01*
X121418750Y-106087000D01*
X121577500Y-105928250D01*
X121577500Y-104679000D01*
X121831500Y-104679000D01*
X121831500Y-105928250D01*
X121990250Y-106087000D01*
X122367000Y-106090072D01*
X122491482Y-106077812D01*
X122611180Y-106041502D01*
X122721494Y-105982537D01*
X122818185Y-105903185D01*
X122897537Y-105806494D01*
X122956502Y-105696180D01*
X122992812Y-105576482D01*
X123005072Y-105452000D01*
X123002000Y-104837750D01*
X122843250Y-104679000D01*
X121831500Y-104679000D01*
X121577500Y-104679000D01*
X120565750Y-104679000D01*
X120407000Y-104837750D01*
X120406500Y-104937726D01*
X120406500Y-104590500D01*
X129443660Y-104590500D01*
X129452500Y-104680252D01*
X129452501Y-107341487D01*
X129443660Y-107431248D01*
X129478936Y-107789402D01*
X129583405Y-108133793D01*
X129753055Y-108451185D01*
X129753056Y-108451186D01*
X129981366Y-108729383D01*
X130051084Y-108786599D01*
X130779543Y-109515058D01*
X131722107Y-110457623D01*
X131722107Y-111321113D01*
X131748542Y-111589513D01*
X131853012Y-111933904D01*
X132022662Y-112251296D01*
X132250972Y-112529494D01*
X132529169Y-112757804D01*
X132846561Y-112927454D01*
X133190952Y-113031924D01*
X133549107Y-113067199D01*
X133907261Y-113031924D01*
X134251652Y-112927454D01*
X134569044Y-112757804D01*
X134847242Y-112529494D01*
X135075552Y-112251297D01*
X135245202Y-111933905D01*
X135349672Y-111589514D01*
X135376107Y-111321114D01*
X135376107Y-109790607D01*
X135384947Y-109700855D01*
X135370130Y-109550414D01*
X135349672Y-109342700D01*
X135245202Y-108998309D01*
X135075552Y-108680917D01*
X134847242Y-108402720D01*
X134777524Y-108345504D01*
X133863268Y-107431248D01*
X142143660Y-107431248D01*
X142178936Y-107789402D01*
X142283405Y-108133793D01*
X142453055Y-108451185D01*
X142453056Y-108451186D01*
X142681366Y-108729383D01*
X142751084Y-108786599D01*
X143479543Y-109515058D01*
X144422107Y-110457623D01*
X144422107Y-111321113D01*
X144448542Y-111589513D01*
X144553012Y-111933904D01*
X144722662Y-112251296D01*
X144950972Y-112529494D01*
X145229169Y-112757804D01*
X145546561Y-112927454D01*
X145890952Y-113031924D01*
X146249107Y-113067199D01*
X146607261Y-113031924D01*
X146951652Y-112927454D01*
X147269044Y-112757804D01*
X147547242Y-112529494D01*
X147775552Y-112251297D01*
X147945202Y-111933905D01*
X148049672Y-111589514D01*
X148076107Y-111321114D01*
X148076107Y-109790607D01*
X148084947Y-109700855D01*
X148070130Y-109550414D01*
X148049672Y-109342700D01*
X147945202Y-108998309D01*
X147775552Y-108680917D01*
X147547242Y-108402720D01*
X147477524Y-108345504D01*
X146563268Y-107431248D01*
X154843660Y-107431248D01*
X154878936Y-107789402D01*
X154983405Y-108133793D01*
X155153055Y-108451185D01*
X155153056Y-108451186D01*
X155381366Y-108729383D01*
X155451084Y-108786599D01*
X156179543Y-109515058D01*
X157122107Y-110457623D01*
X157122107Y-111321113D01*
X157148542Y-111589513D01*
X157253012Y-111933904D01*
X157422662Y-112251296D01*
X157650972Y-112529494D01*
X157929169Y-112757804D01*
X158246561Y-112927454D01*
X158590952Y-113031924D01*
X158949107Y-113067199D01*
X159307261Y-113031924D01*
X159651652Y-112927454D01*
X159969044Y-112757804D01*
X160247242Y-112529494D01*
X160475552Y-112251297D01*
X160645202Y-111933905D01*
X160749672Y-111589514D01*
X160776107Y-111321114D01*
X160776107Y-109790607D01*
X160784947Y-109700855D01*
X160770130Y-109550414D01*
X160749672Y-109342700D01*
X160645202Y-108998309D01*
X160475552Y-108680917D01*
X160247242Y-108402720D01*
X160177524Y-108345504D01*
X158763310Y-106931291D01*
X158506500Y-106674481D01*
X158506500Y-105478115D01*
X158516188Y-105576482D01*
X158552498Y-105696180D01*
X158611463Y-105806494D01*
X158690815Y-105903185D01*
X158787506Y-105982537D01*
X158897820Y-106041502D01*
X159017518Y-106077812D01*
X159142000Y-106090072D01*
X159518750Y-106087000D01*
X159677500Y-105928250D01*
X159677500Y-104679000D01*
X159931500Y-104679000D01*
X159931500Y-105928250D01*
X160090250Y-106087000D01*
X160467000Y-106090072D01*
X160591482Y-106077812D01*
X160711180Y-106041502D01*
X160821494Y-105982537D01*
X160918185Y-105903185D01*
X160997537Y-105806494D01*
X161056502Y-105696180D01*
X161092812Y-105576482D01*
X161105072Y-105452000D01*
X161102000Y-104837750D01*
X160943250Y-104679000D01*
X159931500Y-104679000D01*
X159677500Y-104679000D01*
X158665750Y-104679000D01*
X158507000Y-104837750D01*
X158506500Y-104937726D01*
X158506500Y-104462245D01*
X158480065Y-104193845D01*
X158375595Y-103849454D01*
X158270054Y-103652000D01*
X158503928Y-103652000D01*
X158507000Y-104266250D01*
X158665750Y-104425000D01*
X159677500Y-104425000D01*
X159677500Y-103175750D01*
X159931500Y-103175750D01*
X159931500Y-104425000D01*
X160943250Y-104425000D01*
X161102000Y-104266250D01*
X161105072Y-103652000D01*
X161092812Y-103527518D01*
X161056502Y-103407820D01*
X160997537Y-103297506D01*
X160918185Y-103200815D01*
X160821494Y-103121463D01*
X160711180Y-103062498D01*
X160591482Y-103026188D01*
X160467000Y-103013928D01*
X160090250Y-103017000D01*
X159931500Y-103175750D01*
X159677500Y-103175750D01*
X159518750Y-103017000D01*
X159142000Y-103013928D01*
X159017518Y-103026188D01*
X158897820Y-103062498D01*
X158787506Y-103121463D01*
X158690815Y-103200815D01*
X158611463Y-103297506D01*
X158552498Y-103407820D01*
X158516188Y-103527518D01*
X158503928Y-103652000D01*
X158270054Y-103652000D01*
X158205945Y-103532062D01*
X157977635Y-103253865D01*
X157898466Y-103188893D01*
X157856384Y-103137616D01*
X157692573Y-103003180D01*
X157505682Y-102903285D01*
X157424764Y-102878739D01*
X157382045Y-102855905D01*
X157037654Y-102751435D01*
X156679500Y-102716160D01*
X156321345Y-102751435D01*
X155976954Y-102855905D01*
X155934234Y-102878739D01*
X155853318Y-102903285D01*
X155666427Y-103003180D01*
X155502616Y-103137616D01*
X155460535Y-103188892D01*
X155381365Y-103253865D01*
X155153055Y-103532063D01*
X154983405Y-103849455D01*
X154878935Y-104193846D01*
X154852500Y-104462246D01*
X154852501Y-107341487D01*
X154843660Y-107431248D01*
X146563268Y-107431248D01*
X146063310Y-106931291D01*
X145806500Y-106674481D01*
X145806500Y-105478115D01*
X145816188Y-105576482D01*
X145852498Y-105696180D01*
X145911463Y-105806494D01*
X145990815Y-105903185D01*
X146087506Y-105982537D01*
X146197820Y-106041502D01*
X146317518Y-106077812D01*
X146442000Y-106090072D01*
X146818750Y-106087000D01*
X146977500Y-105928250D01*
X146977500Y-104679000D01*
X147231500Y-104679000D01*
X147231500Y-105928250D01*
X147390250Y-106087000D01*
X147767000Y-106090072D01*
X147891482Y-106077812D01*
X148011180Y-106041502D01*
X148121494Y-105982537D01*
X148218185Y-105903185D01*
X148297537Y-105806494D01*
X148356502Y-105696180D01*
X148392812Y-105576482D01*
X148405072Y-105452000D01*
X148402000Y-104837750D01*
X148243250Y-104679000D01*
X147231500Y-104679000D01*
X146977500Y-104679000D01*
X145965750Y-104679000D01*
X145807000Y-104837750D01*
X145806500Y-104937726D01*
X145806500Y-104462245D01*
X145780065Y-104193845D01*
X145675595Y-103849454D01*
X145570054Y-103652000D01*
X145803928Y-103652000D01*
X145807000Y-104266250D01*
X145965750Y-104425000D01*
X146977500Y-104425000D01*
X146977500Y-103175750D01*
X147231500Y-103175750D01*
X147231500Y-104425000D01*
X148243250Y-104425000D01*
X148402000Y-104266250D01*
X148405072Y-103652000D01*
X148392812Y-103527518D01*
X148356502Y-103407820D01*
X148297537Y-103297506D01*
X148218185Y-103200815D01*
X148121494Y-103121463D01*
X148011180Y-103062498D01*
X147891482Y-103026188D01*
X147767000Y-103013928D01*
X147390250Y-103017000D01*
X147231500Y-103175750D01*
X146977500Y-103175750D01*
X146818750Y-103017000D01*
X146442000Y-103013928D01*
X146317518Y-103026188D01*
X146197820Y-103062498D01*
X146087506Y-103121463D01*
X145990815Y-103200815D01*
X145911463Y-103297506D01*
X145852498Y-103407820D01*
X145816188Y-103527518D01*
X145803928Y-103652000D01*
X145570054Y-103652000D01*
X145505945Y-103532062D01*
X145277635Y-103253865D01*
X145198466Y-103188893D01*
X145156384Y-103137616D01*
X144992573Y-103003180D01*
X144805682Y-102903285D01*
X144724764Y-102878739D01*
X144682045Y-102855905D01*
X144337654Y-102751435D01*
X143979500Y-102716160D01*
X143621345Y-102751435D01*
X143276954Y-102855905D01*
X143234234Y-102878739D01*
X143153318Y-102903285D01*
X142966427Y-103003180D01*
X142802616Y-103137616D01*
X142760535Y-103188892D01*
X142681365Y-103253865D01*
X142453055Y-103532063D01*
X142283405Y-103849455D01*
X142178935Y-104193846D01*
X142152500Y-104462246D01*
X142152501Y-107341487D01*
X142143660Y-107431248D01*
X133863268Y-107431248D01*
X133363310Y-106931291D01*
X133106500Y-106674481D01*
X133106500Y-105478115D01*
X133116188Y-105576482D01*
X133152498Y-105696180D01*
X133211463Y-105806494D01*
X133290815Y-105903185D01*
X133387506Y-105982537D01*
X133497820Y-106041502D01*
X133617518Y-106077812D01*
X133742000Y-106090072D01*
X134118750Y-106087000D01*
X134277500Y-105928250D01*
X134277500Y-104679000D01*
X134531500Y-104679000D01*
X134531500Y-105928250D01*
X134690250Y-106087000D01*
X135067000Y-106090072D01*
X135191482Y-106077812D01*
X135311180Y-106041502D01*
X135421494Y-105982537D01*
X135518185Y-105903185D01*
X135597537Y-105806494D01*
X135656502Y-105696180D01*
X135692812Y-105576482D01*
X135705072Y-105452000D01*
X135702000Y-104837750D01*
X135543250Y-104679000D01*
X134531500Y-104679000D01*
X134277500Y-104679000D01*
X134257500Y-104679000D01*
X134257500Y-104425000D01*
X134277500Y-104425000D01*
X134277500Y-103175750D01*
X134531500Y-103175750D01*
X134531500Y-104425000D01*
X135543250Y-104425000D01*
X135702000Y-104266250D01*
X135705072Y-103652000D01*
X135692812Y-103527518D01*
X135656502Y-103407820D01*
X135597537Y-103297506D01*
X135518185Y-103200815D01*
X135421494Y-103121463D01*
X135311180Y-103062498D01*
X135191482Y-103026188D01*
X135067000Y-103013928D01*
X134690250Y-103017000D01*
X134531500Y-103175750D01*
X134277500Y-103175750D01*
X134118750Y-103017000D01*
X133742000Y-103013928D01*
X133617518Y-103026188D01*
X133497820Y-103062498D01*
X133387506Y-103121463D01*
X133290815Y-103200815D01*
X133211463Y-103297506D01*
X133152498Y-103407820D01*
X133116188Y-103527518D01*
X133103928Y-103652000D01*
X133106438Y-104153872D01*
X133014095Y-103849455D01*
X132844445Y-103532063D01*
X132616134Y-103253866D01*
X132337937Y-103025555D01*
X132020545Y-102855905D01*
X131676154Y-102751436D01*
X131317999Y-102716161D01*
X130959846Y-102751436D01*
X130664911Y-102840903D01*
X130656106Y-102841770D01*
X130453318Y-102903285D01*
X130266427Y-103003180D01*
X130102616Y-103137616D01*
X129968180Y-103301427D01*
X129957444Y-103321513D01*
X129753055Y-103570563D01*
X129583405Y-103887955D01*
X129478935Y-104232346D01*
X129456292Y-104462245D01*
X129443660Y-104590500D01*
X120406500Y-104590500D01*
X120406500Y-104462245D01*
X120380065Y-104193845D01*
X120275595Y-103849454D01*
X120170054Y-103652000D01*
X120403928Y-103652000D01*
X120407000Y-104266250D01*
X120565750Y-104425000D01*
X121577500Y-104425000D01*
X121577500Y-103175750D01*
X121831500Y-103175750D01*
X121831500Y-104425000D01*
X122843250Y-104425000D01*
X123002000Y-104266250D01*
X123005072Y-103652000D01*
X122992812Y-103527518D01*
X122956502Y-103407820D01*
X122897537Y-103297506D01*
X122818185Y-103200815D01*
X122721494Y-103121463D01*
X122611180Y-103062498D01*
X122491482Y-103026188D01*
X122367000Y-103013928D01*
X121990250Y-103017000D01*
X121831500Y-103175750D01*
X121577500Y-103175750D01*
X121418750Y-103017000D01*
X121042000Y-103013928D01*
X120917518Y-103026188D01*
X120797820Y-103062498D01*
X120687506Y-103121463D01*
X120590815Y-103200815D01*
X120511463Y-103297506D01*
X120452498Y-103407820D01*
X120416188Y-103527518D01*
X120403928Y-103652000D01*
X120170054Y-103652000D01*
X120105945Y-103532062D01*
X119877635Y-103253865D01*
X119798466Y-103188893D01*
X119756384Y-103137616D01*
X119592573Y-103003180D01*
X119405682Y-102903285D01*
X119324764Y-102878739D01*
X119282045Y-102855905D01*
X118937654Y-102751435D01*
X118579500Y-102716160D01*
X118221345Y-102751435D01*
X117876954Y-102855905D01*
X117834234Y-102878739D01*
X117753318Y-102903285D01*
X117566427Y-103003180D01*
X117402616Y-103137616D01*
X117360535Y-103188892D01*
X117281365Y-103253865D01*
X117053055Y-103532063D01*
X116883405Y-103849455D01*
X116778935Y-104193846D01*
X116752500Y-104462246D01*
X116752501Y-107341487D01*
X116743660Y-107431248D01*
X112852000Y-107431248D01*
X112852000Y-92906500D01*
X116743660Y-92906500D01*
X116752500Y-92996252D01*
X116752501Y-95911487D01*
X116743660Y-96001248D01*
X116754711Y-96113443D01*
X116778936Y-96359403D01*
X116785810Y-96382063D01*
X116883405Y-96703793D01*
X117053055Y-97021185D01*
X117053056Y-97021186D01*
X117281366Y-97299383D01*
X117351084Y-97356599D01*
X118079543Y-98085058D01*
X119022107Y-99027623D01*
X119022107Y-99891113D01*
X119048542Y-100159513D01*
X119153012Y-100503904D01*
X119322662Y-100821296D01*
X119550972Y-101099494D01*
X119829169Y-101327804D01*
X120146561Y-101497454D01*
X120490952Y-101601924D01*
X120849107Y-101637199D01*
X121207261Y-101601924D01*
X121551652Y-101497454D01*
X121869044Y-101327804D01*
X122147242Y-101099494D01*
X122375552Y-100821297D01*
X122545202Y-100503905D01*
X122649672Y-100159514D01*
X122676107Y-99891114D01*
X122676107Y-98360607D01*
X122684947Y-98270855D01*
X122670130Y-98120414D01*
X122649672Y-97912700D01*
X122545202Y-97568309D01*
X122375552Y-97250917D01*
X122147242Y-96972720D01*
X122077524Y-96915504D01*
X121163268Y-96001248D01*
X129443660Y-96001248D01*
X129454711Y-96113443D01*
X129478936Y-96359403D01*
X129485810Y-96382063D01*
X129583405Y-96703793D01*
X129753055Y-97021185D01*
X129753056Y-97021186D01*
X129981366Y-97299383D01*
X130051084Y-97356599D01*
X130779543Y-98085058D01*
X131722107Y-99027623D01*
X131722107Y-99891113D01*
X131748542Y-100159513D01*
X131853012Y-100503904D01*
X132022662Y-100821296D01*
X132250972Y-101099494D01*
X132529169Y-101327804D01*
X132846561Y-101497454D01*
X133190952Y-101601924D01*
X133549107Y-101637199D01*
X133907261Y-101601924D01*
X134251652Y-101497454D01*
X134569044Y-101327804D01*
X134847242Y-101099494D01*
X135075552Y-100821297D01*
X135245202Y-100503905D01*
X135349672Y-100159514D01*
X135376107Y-99891114D01*
X135376107Y-98360607D01*
X135384947Y-98270855D01*
X135370130Y-98120414D01*
X135349672Y-97912700D01*
X135245202Y-97568309D01*
X135075552Y-97250917D01*
X134847242Y-96972720D01*
X134777524Y-96915504D01*
X133363310Y-95501291D01*
X133106500Y-95244481D01*
X133106500Y-93794115D01*
X133116188Y-93892482D01*
X133152498Y-94012180D01*
X133211463Y-94122494D01*
X133290815Y-94219185D01*
X133387506Y-94298537D01*
X133497820Y-94357502D01*
X133617518Y-94393812D01*
X133742000Y-94406072D01*
X134118750Y-94403000D01*
X134277500Y-94244250D01*
X134277500Y-92995000D01*
X134531500Y-92995000D01*
X134531500Y-94244250D01*
X134690250Y-94403000D01*
X135067000Y-94406072D01*
X135191482Y-94393812D01*
X135311180Y-94357502D01*
X135421494Y-94298537D01*
X135518185Y-94219185D01*
X135597537Y-94122494D01*
X135656502Y-94012180D01*
X135692812Y-93892482D01*
X135705072Y-93768000D01*
X135702000Y-93153750D01*
X135543250Y-92995000D01*
X134531500Y-92995000D01*
X134277500Y-92995000D01*
X133265750Y-92995000D01*
X133107000Y-93153750D01*
X133106500Y-93253726D01*
X133106500Y-92906500D01*
X142143660Y-92906500D01*
X142152500Y-92996252D01*
X142152501Y-95911487D01*
X142143660Y-96001248D01*
X142154711Y-96113443D01*
X142178936Y-96359403D01*
X142185810Y-96382063D01*
X142283405Y-96703793D01*
X142453055Y-97021185D01*
X142453056Y-97021186D01*
X142681366Y-97299383D01*
X142751084Y-97356599D01*
X143479543Y-98085058D01*
X144422107Y-99027623D01*
X144422107Y-99891113D01*
X144448542Y-100159513D01*
X144553012Y-100503904D01*
X144722662Y-100821296D01*
X144950972Y-101099494D01*
X145229169Y-101327804D01*
X145546561Y-101497454D01*
X145890952Y-101601924D01*
X146249107Y-101637199D01*
X146607261Y-101601924D01*
X146951652Y-101497454D01*
X147269044Y-101327804D01*
X147547242Y-101099494D01*
X147775552Y-100821297D01*
X147945202Y-100503905D01*
X148049672Y-100159514D01*
X148076107Y-99891114D01*
X148076107Y-98360607D01*
X148084947Y-98270855D01*
X148070130Y-98120414D01*
X148049672Y-97912700D01*
X147945202Y-97568309D01*
X147775552Y-97250917D01*
X147547242Y-96972720D01*
X147477524Y-96915504D01*
X146563268Y-96001248D01*
X154843660Y-96001248D01*
X154860200Y-96169175D01*
X154874671Y-96337253D01*
X154877826Y-96348133D01*
X154878936Y-96359402D01*
X154927914Y-96520861D01*
X154974902Y-96682901D01*
X154980116Y-96692951D01*
X154983405Y-96703793D01*
X155062950Y-96852611D01*
X155140639Y-97002354D01*
X155147716Y-97011197D01*
X155153055Y-97021185D01*
X155260082Y-97151598D01*
X155365514Y-97283335D01*
X155443130Y-97348645D01*
X156179543Y-98085058D01*
X157122107Y-99027623D01*
X157122107Y-99891113D01*
X157148542Y-100159513D01*
X157253012Y-100503904D01*
X157422662Y-100821296D01*
X157650972Y-101099494D01*
X157929169Y-101327804D01*
X158246561Y-101497454D01*
X158590952Y-101601924D01*
X158949107Y-101637199D01*
X159307261Y-101601924D01*
X159651652Y-101497454D01*
X159969044Y-101327804D01*
X160247242Y-101099494D01*
X160475552Y-100821297D01*
X160645202Y-100503905D01*
X160749672Y-100159514D01*
X160776107Y-99891114D01*
X160776107Y-98360607D01*
X160784947Y-98270855D01*
X160770130Y-98120414D01*
X160749672Y-97912700D01*
X160645202Y-97568309D01*
X160475552Y-97250917D01*
X160247242Y-96972720D01*
X160177524Y-96915504D01*
X158763310Y-95501291D01*
X158515822Y-95253803D01*
X158531912Y-93944317D01*
X158552498Y-94012180D01*
X158611463Y-94122494D01*
X158690815Y-94219185D01*
X158787506Y-94298537D01*
X158897820Y-94357502D01*
X159017518Y-94393812D01*
X159142000Y-94406072D01*
X159518750Y-94403000D01*
X159677500Y-94244250D01*
X159677500Y-92995000D01*
X159931500Y-92995000D01*
X159931500Y-94244250D01*
X160090250Y-94403000D01*
X160467000Y-94406072D01*
X160591482Y-94393812D01*
X160711180Y-94357502D01*
X160821494Y-94298537D01*
X160918185Y-94219185D01*
X160997537Y-94122494D01*
X161056502Y-94012180D01*
X161092812Y-93892482D01*
X161105072Y-93768000D01*
X161102000Y-93153750D01*
X160943250Y-92995000D01*
X159931500Y-92995000D01*
X159677500Y-92995000D01*
X159657500Y-92995000D01*
X159657500Y-92741000D01*
X159677500Y-92741000D01*
X159677500Y-91491750D01*
X159931500Y-91491750D01*
X159931500Y-92741000D01*
X160943250Y-92741000D01*
X161102000Y-92582250D01*
X161105072Y-91968000D01*
X161092812Y-91843518D01*
X161056502Y-91723820D01*
X160997537Y-91613506D01*
X160918185Y-91516815D01*
X160821494Y-91437463D01*
X160711180Y-91378498D01*
X160591482Y-91342188D01*
X160467000Y-91329928D01*
X160090250Y-91333000D01*
X159931500Y-91491750D01*
X159677500Y-91491750D01*
X159518750Y-91333000D01*
X159142000Y-91329928D01*
X159017518Y-91342188D01*
X158897820Y-91378498D01*
X158787506Y-91437463D01*
X158690815Y-91516815D01*
X158611463Y-91613506D01*
X158552498Y-91723820D01*
X158516188Y-91843518D01*
X158503928Y-91968000D01*
X158506466Y-92475568D01*
X158422598Y-92186346D01*
X158256861Y-91866894D01*
X158031986Y-91585913D01*
X157756615Y-91354202D01*
X157441332Y-91180665D01*
X157098250Y-91071971D01*
X156740556Y-91032299D01*
X156381995Y-91063170D01*
X156036347Y-91163401D01*
X156034663Y-91164275D01*
X155853318Y-91219285D01*
X155666427Y-91319180D01*
X155502616Y-91453616D01*
X155368180Y-91617427D01*
X155343150Y-91664255D01*
X155204202Y-91829384D01*
X155030665Y-92144668D01*
X154921972Y-92487749D01*
X154892241Y-92755804D01*
X154853603Y-95900293D01*
X154843660Y-96001248D01*
X146563268Y-96001248D01*
X146063310Y-95501291D01*
X145806500Y-95244481D01*
X145806500Y-93794115D01*
X145816188Y-93892482D01*
X145852498Y-94012180D01*
X145911463Y-94122494D01*
X145990815Y-94219185D01*
X146087506Y-94298537D01*
X146197820Y-94357502D01*
X146317518Y-94393812D01*
X146442000Y-94406072D01*
X146818750Y-94403000D01*
X146977500Y-94244250D01*
X146977500Y-92995000D01*
X147231500Y-92995000D01*
X147231500Y-94244250D01*
X147390250Y-94403000D01*
X147767000Y-94406072D01*
X147891482Y-94393812D01*
X148011180Y-94357502D01*
X148121494Y-94298537D01*
X148218185Y-94219185D01*
X148297537Y-94122494D01*
X148356502Y-94012180D01*
X148392812Y-93892482D01*
X148405072Y-93768000D01*
X148402000Y-93153750D01*
X148243250Y-92995000D01*
X147231500Y-92995000D01*
X146977500Y-92995000D01*
X146957500Y-92995000D01*
X146957500Y-92741000D01*
X146977500Y-92741000D01*
X146977500Y-91491750D01*
X147231500Y-91491750D01*
X147231500Y-92741000D01*
X148243250Y-92741000D01*
X148402000Y-92582250D01*
X148405072Y-91968000D01*
X148392812Y-91843518D01*
X148356502Y-91723820D01*
X148297537Y-91613506D01*
X148218185Y-91516815D01*
X148121494Y-91437463D01*
X148011180Y-91378498D01*
X147891482Y-91342188D01*
X147767000Y-91329928D01*
X147390250Y-91333000D01*
X147231500Y-91491750D01*
X146977500Y-91491750D01*
X146818750Y-91333000D01*
X146442000Y-91329928D01*
X146317518Y-91342188D01*
X146197820Y-91378498D01*
X146087506Y-91437463D01*
X145990815Y-91516815D01*
X145911463Y-91613506D01*
X145852498Y-91723820D01*
X145816188Y-91843518D01*
X145803928Y-91968000D01*
X145806438Y-92469872D01*
X145714095Y-92165455D01*
X145544445Y-91848063D01*
X145316134Y-91569866D01*
X145037937Y-91341555D01*
X144720545Y-91171905D01*
X144376154Y-91067436D01*
X144017999Y-91032161D01*
X143659846Y-91067436D01*
X143364911Y-91156903D01*
X143356106Y-91157770D01*
X143153318Y-91219285D01*
X142966427Y-91319180D01*
X142802616Y-91453616D01*
X142668180Y-91617427D01*
X142657444Y-91637513D01*
X142453055Y-91886563D01*
X142283405Y-92203955D01*
X142178935Y-92548346D01*
X142152500Y-92816745D01*
X142143660Y-92906500D01*
X133106500Y-92906500D01*
X133106500Y-92778245D01*
X133080065Y-92509845D01*
X132975595Y-92165454D01*
X132870054Y-91968000D01*
X133103928Y-91968000D01*
X133107000Y-92582250D01*
X133265750Y-92741000D01*
X134277500Y-92741000D01*
X134277500Y-91491750D01*
X134531500Y-91491750D01*
X134531500Y-92741000D01*
X135543250Y-92741000D01*
X135702000Y-92582250D01*
X135705072Y-91968000D01*
X135692812Y-91843518D01*
X135656502Y-91723820D01*
X135597537Y-91613506D01*
X135518185Y-91516815D01*
X135421494Y-91437463D01*
X135311180Y-91378498D01*
X135191482Y-91342188D01*
X135067000Y-91329928D01*
X134690250Y-91333000D01*
X134531500Y-91491750D01*
X134277500Y-91491750D01*
X134118750Y-91333000D01*
X133742000Y-91329928D01*
X133617518Y-91342188D01*
X133497820Y-91378498D01*
X133387506Y-91437463D01*
X133290815Y-91516815D01*
X133211463Y-91613506D01*
X133152498Y-91723820D01*
X133116188Y-91843518D01*
X133103928Y-91968000D01*
X132870054Y-91968000D01*
X132805945Y-91848062D01*
X132577635Y-91569865D01*
X132498466Y-91504893D01*
X132456384Y-91453616D01*
X132292573Y-91319180D01*
X132105682Y-91219285D01*
X132024764Y-91194739D01*
X131982045Y-91171905D01*
X131637654Y-91067435D01*
X131279500Y-91032160D01*
X130921345Y-91067435D01*
X130576954Y-91171905D01*
X130534234Y-91194739D01*
X130453318Y-91219285D01*
X130266427Y-91319180D01*
X130102616Y-91453616D01*
X130060535Y-91504892D01*
X129981365Y-91569865D01*
X129753055Y-91848063D01*
X129583405Y-92165455D01*
X129478935Y-92509846D01*
X129452500Y-92778246D01*
X129452501Y-95911487D01*
X129443660Y-96001248D01*
X121163268Y-96001248D01*
X120663310Y-95501291D01*
X120406500Y-95244481D01*
X120406500Y-93794115D01*
X120416188Y-93892482D01*
X120452498Y-94012180D01*
X120511463Y-94122494D01*
X120590815Y-94219185D01*
X120687506Y-94298537D01*
X120797820Y-94357502D01*
X120917518Y-94393812D01*
X121042000Y-94406072D01*
X121418750Y-94403000D01*
X121577500Y-94244250D01*
X121577500Y-92995000D01*
X121831500Y-92995000D01*
X121831500Y-94244250D01*
X121990250Y-94403000D01*
X122367000Y-94406072D01*
X122491482Y-94393812D01*
X122611180Y-94357502D01*
X122721494Y-94298537D01*
X122818185Y-94219185D01*
X122897537Y-94122494D01*
X122956502Y-94012180D01*
X122992812Y-93892482D01*
X123005072Y-93768000D01*
X123002000Y-93153750D01*
X122843250Y-92995000D01*
X121831500Y-92995000D01*
X121577500Y-92995000D01*
X121557500Y-92995000D01*
X121557500Y-92741000D01*
X121577500Y-92741000D01*
X121577500Y-91491750D01*
X121831500Y-91491750D01*
X121831500Y-92741000D01*
X122843250Y-92741000D01*
X123002000Y-92582250D01*
X123005072Y-91968000D01*
X122992812Y-91843518D01*
X122956502Y-91723820D01*
X122897537Y-91613506D01*
X122818185Y-91516815D01*
X122721494Y-91437463D01*
X122611180Y-91378498D01*
X122491482Y-91342188D01*
X122367000Y-91329928D01*
X121990250Y-91333000D01*
X121831500Y-91491750D01*
X121577500Y-91491750D01*
X121418750Y-91333000D01*
X121042000Y-91329928D01*
X120917518Y-91342188D01*
X120797820Y-91378498D01*
X120687506Y-91437463D01*
X120590815Y-91516815D01*
X120511463Y-91613506D01*
X120452498Y-91723820D01*
X120416188Y-91843518D01*
X120403928Y-91968000D01*
X120406438Y-92469872D01*
X120314095Y-92165455D01*
X120144445Y-91848063D01*
X119916134Y-91569866D01*
X119637937Y-91341555D01*
X119320545Y-91171905D01*
X118976154Y-91067436D01*
X118617999Y-91032161D01*
X118259846Y-91067436D01*
X117964911Y-91156903D01*
X117956106Y-91157770D01*
X117753318Y-91219285D01*
X117566427Y-91319180D01*
X117402616Y-91453616D01*
X117268180Y-91617427D01*
X117257444Y-91637513D01*
X117053055Y-91886563D01*
X116883405Y-92203955D01*
X116778935Y-92548346D01*
X116752500Y-92816745D01*
X116743660Y-92906500D01*
X112852000Y-92906500D01*
X112852000Y-81438000D01*
X114496160Y-81438000D01*
X114531436Y-81796154D01*
X114635905Y-82140545D01*
X114805555Y-82457937D01*
X114976650Y-82666417D01*
X116752500Y-84442268D01*
X116752500Y-86012000D01*
X116743660Y-86101752D01*
X116752500Y-86191504D01*
X116752500Y-86191507D01*
X116755011Y-86217001D01*
X116778936Y-86459906D01*
X116883405Y-86804297D01*
X117045517Y-87107586D01*
X117053056Y-87121690D01*
X117281366Y-87399887D01*
X117351084Y-87457103D01*
X119620689Y-89726709D01*
X119829169Y-89897804D01*
X120146561Y-90067454D01*
X120490952Y-90171923D01*
X120849106Y-90207199D01*
X121207261Y-90171923D01*
X121551652Y-90067454D01*
X121869044Y-89897804D01*
X122147241Y-89669493D01*
X122375552Y-89391296D01*
X122545202Y-89073904D01*
X122649671Y-88729513D01*
X122684947Y-88371358D01*
X122649671Y-88013204D01*
X122545202Y-87668813D01*
X122375552Y-87351421D01*
X122204457Y-87142941D01*
X121085235Y-86023719D01*
X121418750Y-86021000D01*
X121577500Y-85862250D01*
X121577500Y-84613000D01*
X121831500Y-84613000D01*
X121831500Y-85862250D01*
X121990250Y-86021000D01*
X122367000Y-86024072D01*
X122491482Y-86011812D01*
X122611180Y-85975502D01*
X122721494Y-85916537D01*
X122818185Y-85837185D01*
X122897537Y-85740494D01*
X122956502Y-85630180D01*
X122992812Y-85510482D01*
X123005072Y-85386000D01*
X123002000Y-84771750D01*
X122843250Y-84613000D01*
X121831500Y-84613000D01*
X121577500Y-84613000D01*
X120565750Y-84613000D01*
X120407000Y-84771750D01*
X120406500Y-84871726D01*
X120406500Y-84100274D01*
X120407000Y-84200250D01*
X120565750Y-84359000D01*
X121577500Y-84359000D01*
X121577500Y-83109750D01*
X121831500Y-83109750D01*
X121831500Y-84359000D01*
X122843250Y-84359000D01*
X123002000Y-84200250D01*
X123005072Y-83586000D01*
X122992812Y-83461518D01*
X122956502Y-83341820D01*
X122897537Y-83231506D01*
X122818185Y-83134815D01*
X122721494Y-83055463D01*
X122611180Y-82996498D01*
X122491482Y-82960188D01*
X122367000Y-82947928D01*
X121990250Y-82951000D01*
X121831500Y-83109750D01*
X121577500Y-83109750D01*
X121418750Y-82951000D01*
X121042000Y-82947928D01*
X120917518Y-82960188D01*
X120797820Y-82996498D01*
X120687506Y-83055463D01*
X120590815Y-83134815D01*
X120511463Y-83231506D01*
X120452498Y-83341820D01*
X120416188Y-83461518D01*
X120404734Y-83577817D01*
X120393727Y-83466062D01*
X120380065Y-83327345D01*
X120275595Y-82982954D01*
X120105945Y-82665562D01*
X119877635Y-82387365D01*
X119807917Y-82330149D01*
X118759265Y-81281497D01*
X122363000Y-81281497D01*
X122363000Y-81594503D01*
X122424065Y-81901494D01*
X122543847Y-82190674D01*
X122717743Y-82450928D01*
X122939072Y-82672257D01*
X123199326Y-82846153D01*
X123488506Y-82965935D01*
X123795497Y-83027000D01*
X124108503Y-83027000D01*
X124415494Y-82965935D01*
X124704674Y-82846153D01*
X124964928Y-82672257D01*
X125186257Y-82450928D01*
X125360153Y-82190674D01*
X125479935Y-81901494D01*
X125541000Y-81594503D01*
X125541000Y-81438000D01*
X127196160Y-81438000D01*
X127231436Y-81796154D01*
X127335905Y-82140545D01*
X127505555Y-82457937D01*
X127676650Y-82666417D01*
X129452500Y-84442268D01*
X129452500Y-86012000D01*
X129443660Y-86101752D01*
X129452500Y-86191504D01*
X129452500Y-86191507D01*
X129455011Y-86217001D01*
X129478936Y-86459906D01*
X129583405Y-86804297D01*
X129745517Y-87107586D01*
X129753056Y-87121690D01*
X129981366Y-87399887D01*
X130051084Y-87457103D01*
X132320689Y-89726709D01*
X132529169Y-89897804D01*
X132846561Y-90067454D01*
X133190952Y-90171923D01*
X133549106Y-90207199D01*
X133907261Y-90171923D01*
X134251652Y-90067454D01*
X134569044Y-89897804D01*
X134847241Y-89669493D01*
X135075552Y-89391296D01*
X135245202Y-89073904D01*
X135349671Y-88729513D01*
X135384947Y-88371358D01*
X135349671Y-88013204D01*
X135245202Y-87668813D01*
X135075552Y-87351421D01*
X134904457Y-87142941D01*
X133785235Y-86023719D01*
X134118750Y-86021000D01*
X134277500Y-85862250D01*
X134277500Y-84613000D01*
X134531500Y-84613000D01*
X134531500Y-85862250D01*
X134690250Y-86021000D01*
X135067000Y-86024072D01*
X135191482Y-86011812D01*
X135311180Y-85975502D01*
X135421494Y-85916537D01*
X135518185Y-85837185D01*
X135597537Y-85740494D01*
X135656502Y-85630180D01*
X135692812Y-85510482D01*
X135705072Y-85386000D01*
X135702000Y-84771750D01*
X135543250Y-84613000D01*
X134531500Y-84613000D01*
X134277500Y-84613000D01*
X133265750Y-84613000D01*
X133107000Y-84771750D01*
X133106500Y-84871726D01*
X133106500Y-84100274D01*
X133107000Y-84200250D01*
X133265750Y-84359000D01*
X134277500Y-84359000D01*
X134277500Y-83109750D01*
X134531500Y-83109750D01*
X134531500Y-84359000D01*
X135543250Y-84359000D01*
X135702000Y-84200250D01*
X135705072Y-83586000D01*
X135692812Y-83461518D01*
X135656502Y-83341820D01*
X135597537Y-83231506D01*
X135518185Y-83134815D01*
X135421494Y-83055463D01*
X135311180Y-82996498D01*
X135191482Y-82960188D01*
X135067000Y-82947928D01*
X134690250Y-82951000D01*
X134531500Y-83109750D01*
X134277500Y-83109750D01*
X134118750Y-82951000D01*
X133742000Y-82947928D01*
X133617518Y-82960188D01*
X133497820Y-82996498D01*
X133387506Y-83055463D01*
X133290815Y-83134815D01*
X133211463Y-83231506D01*
X133152498Y-83341820D01*
X133116188Y-83461518D01*
X133104734Y-83577817D01*
X133093727Y-83466062D01*
X133080065Y-83327345D01*
X132975595Y-82982954D01*
X132805945Y-82665562D01*
X132577635Y-82387365D01*
X132507917Y-82330149D01*
X131459265Y-81281497D01*
X135063000Y-81281497D01*
X135063000Y-81594503D01*
X135124065Y-81901494D01*
X135243847Y-82190674D01*
X135417743Y-82450928D01*
X135639072Y-82672257D01*
X135899326Y-82846153D01*
X136188506Y-82965935D01*
X136495497Y-83027000D01*
X136808503Y-83027000D01*
X137115494Y-82965935D01*
X137404674Y-82846153D01*
X137664928Y-82672257D01*
X137886257Y-82450928D01*
X138060153Y-82190674D01*
X138179935Y-81901494D01*
X138241000Y-81594503D01*
X138241000Y-81438000D01*
X139896160Y-81438000D01*
X139931436Y-81796154D01*
X140035905Y-82140545D01*
X140205555Y-82457937D01*
X140376650Y-82666417D01*
X142152500Y-84442268D01*
X142152500Y-86012000D01*
X142143660Y-86101752D01*
X142152500Y-86191504D01*
X142152500Y-86191507D01*
X142155011Y-86217001D01*
X142178936Y-86459906D01*
X142283405Y-86804297D01*
X142445517Y-87107586D01*
X142453056Y-87121690D01*
X142681366Y-87399887D01*
X142751084Y-87457103D01*
X145020689Y-89726709D01*
X145229169Y-89897804D01*
X145546561Y-90067454D01*
X145890952Y-90171923D01*
X146249106Y-90207199D01*
X146607261Y-90171923D01*
X146951652Y-90067454D01*
X147269044Y-89897804D01*
X147547241Y-89669493D01*
X147775552Y-89391296D01*
X147945202Y-89073904D01*
X148049671Y-88729513D01*
X148084947Y-88371358D01*
X148049671Y-88013204D01*
X147945202Y-87668813D01*
X147775552Y-87351421D01*
X147604457Y-87142941D01*
X146485235Y-86023719D01*
X146818750Y-86021000D01*
X146977500Y-85862250D01*
X146977500Y-84613000D01*
X147231500Y-84613000D01*
X147231500Y-85862250D01*
X147390250Y-86021000D01*
X147767000Y-86024072D01*
X147891482Y-86011812D01*
X148011180Y-85975502D01*
X148121494Y-85916537D01*
X148218185Y-85837185D01*
X148297537Y-85740494D01*
X148356502Y-85630180D01*
X148392812Y-85510482D01*
X148405072Y-85386000D01*
X148402000Y-84771750D01*
X148243250Y-84613000D01*
X147231500Y-84613000D01*
X146977500Y-84613000D01*
X145965750Y-84613000D01*
X145807000Y-84771750D01*
X145806500Y-84871726D01*
X145806500Y-84100274D01*
X145807000Y-84200250D01*
X145965750Y-84359000D01*
X146977500Y-84359000D01*
X146977500Y-83109750D01*
X147231500Y-83109750D01*
X147231500Y-84359000D01*
X148243250Y-84359000D01*
X148402000Y-84200250D01*
X148405072Y-83586000D01*
X148392812Y-83461518D01*
X148356502Y-83341820D01*
X148297537Y-83231506D01*
X148218185Y-83134815D01*
X148121494Y-83055463D01*
X148011180Y-82996498D01*
X147891482Y-82960188D01*
X147767000Y-82947928D01*
X147390250Y-82951000D01*
X147231500Y-83109750D01*
X146977500Y-83109750D01*
X146818750Y-82951000D01*
X146442000Y-82947928D01*
X146317518Y-82960188D01*
X146197820Y-82996498D01*
X146087506Y-83055463D01*
X145990815Y-83134815D01*
X145911463Y-83231506D01*
X145852498Y-83341820D01*
X145816188Y-83461518D01*
X145804734Y-83577817D01*
X145793727Y-83466062D01*
X145780065Y-83327345D01*
X145675595Y-82982954D01*
X145505945Y-82665562D01*
X145277635Y-82387365D01*
X145207917Y-82330149D01*
X144159265Y-81281497D01*
X147763000Y-81281497D01*
X147763000Y-81594503D01*
X147824065Y-81901494D01*
X147943847Y-82190674D01*
X148117743Y-82450928D01*
X148339072Y-82672257D01*
X148599326Y-82846153D01*
X148888506Y-82965935D01*
X149195497Y-83027000D01*
X149508503Y-83027000D01*
X149815494Y-82965935D01*
X150104674Y-82846153D01*
X150364928Y-82672257D01*
X150586257Y-82450928D01*
X150760153Y-82190674D01*
X150879935Y-81901494D01*
X150941000Y-81594503D01*
X150941000Y-81438000D01*
X152596160Y-81438000D01*
X152631436Y-81796154D01*
X152735905Y-82140545D01*
X152905555Y-82457937D01*
X153076650Y-82666417D01*
X154852500Y-84442268D01*
X154852500Y-86012000D01*
X154843660Y-86101752D01*
X154852500Y-86191504D01*
X154852500Y-86191507D01*
X154855011Y-86217001D01*
X154878936Y-86459906D01*
X154983405Y-86804297D01*
X155145517Y-87107586D01*
X155153056Y-87121690D01*
X155381366Y-87399887D01*
X155451084Y-87457103D01*
X157720689Y-89726709D01*
X157929169Y-89897804D01*
X158246561Y-90067454D01*
X158590952Y-90171923D01*
X158949106Y-90207199D01*
X159307261Y-90171923D01*
X159651652Y-90067454D01*
X159969044Y-89897804D01*
X160247241Y-89669493D01*
X160475552Y-89391296D01*
X160645202Y-89073904D01*
X160749671Y-88729513D01*
X160784947Y-88371358D01*
X160749671Y-88013204D01*
X160645202Y-87668813D01*
X160475552Y-87351421D01*
X160304457Y-87142941D01*
X159185235Y-86023719D01*
X159518750Y-86021000D01*
X159677500Y-85862250D01*
X159677500Y-84613000D01*
X159931500Y-84613000D01*
X159931500Y-85862250D01*
X160090250Y-86021000D01*
X160467000Y-86024072D01*
X160591482Y-86011812D01*
X160711180Y-85975502D01*
X160821494Y-85916537D01*
X160918185Y-85837185D01*
X160997537Y-85740494D01*
X161056502Y-85630180D01*
X161092812Y-85510482D01*
X161105072Y-85386000D01*
X161102000Y-84771750D01*
X160943250Y-84613000D01*
X159931500Y-84613000D01*
X159677500Y-84613000D01*
X158665750Y-84613000D01*
X158507000Y-84771750D01*
X158506500Y-84871726D01*
X158506500Y-84100274D01*
X158507000Y-84200250D01*
X158665750Y-84359000D01*
X159677500Y-84359000D01*
X159677500Y-83109750D01*
X159931500Y-83109750D01*
X159931500Y-84359000D01*
X160943250Y-84359000D01*
X161102000Y-84200250D01*
X161105072Y-83586000D01*
X161092812Y-83461518D01*
X161056502Y-83341820D01*
X160997537Y-83231506D01*
X160918185Y-83134815D01*
X160821494Y-83055463D01*
X160711180Y-82996498D01*
X160591482Y-82960188D01*
X160467000Y-82947928D01*
X160090250Y-82951000D01*
X159931500Y-83109750D01*
X159677500Y-83109750D01*
X159518750Y-82951000D01*
X159142000Y-82947928D01*
X159017518Y-82960188D01*
X158897820Y-82996498D01*
X158787506Y-83055463D01*
X158690815Y-83134815D01*
X158611463Y-83231506D01*
X158552498Y-83341820D01*
X158516188Y-83461518D01*
X158504734Y-83577817D01*
X158493727Y-83466062D01*
X158480065Y-83327345D01*
X158375595Y-82982954D01*
X158205945Y-82665562D01*
X157977635Y-82387365D01*
X157907917Y-82330149D01*
X156859265Y-81281497D01*
X160463000Y-81281497D01*
X160463000Y-81594503D01*
X160524065Y-81901494D01*
X160643847Y-82190674D01*
X160817743Y-82450928D01*
X161039072Y-82672257D01*
X161299326Y-82846153D01*
X161588506Y-82965935D01*
X161895497Y-83027000D01*
X162208503Y-83027000D01*
X162515494Y-82965935D01*
X162804674Y-82846153D01*
X163064928Y-82672257D01*
X163286257Y-82450928D01*
X163460153Y-82190674D01*
X163579935Y-81901494D01*
X163641000Y-81594503D01*
X163641000Y-81281497D01*
X163579935Y-80974506D01*
X163460153Y-80685326D01*
X163286257Y-80425072D01*
X163064928Y-80203743D01*
X162804674Y-80029847D01*
X162792928Y-80024982D01*
X162837960Y-79863565D01*
X162052000Y-79077605D01*
X161266040Y-79863565D01*
X161311072Y-80024982D01*
X161299326Y-80029847D01*
X161039072Y-80203743D01*
X160817743Y-80425072D01*
X160643847Y-80685326D01*
X160524065Y-80974506D01*
X160463000Y-81281497D01*
X156859265Y-81281497D01*
X155660417Y-80082650D01*
X155569307Y-80007878D01*
X155666257Y-79910928D01*
X155840153Y-79650674D01*
X155959935Y-79361494D01*
X156021000Y-79054503D01*
X156021000Y-78970017D01*
X160650090Y-78970017D01*
X160691078Y-79242133D01*
X160784364Y-79501023D01*
X160846344Y-79616980D01*
X161086435Y-79683960D01*
X161872395Y-78898000D01*
X162231605Y-78898000D01*
X163017565Y-79683960D01*
X163257656Y-79616980D01*
X163374756Y-79367952D01*
X163441023Y-79100865D01*
X163453910Y-78825983D01*
X163412922Y-78553867D01*
X163319636Y-78294977D01*
X163257656Y-78179020D01*
X163017565Y-78112040D01*
X162231605Y-78898000D01*
X161872395Y-78898000D01*
X161086435Y-78112040D01*
X160846344Y-78179020D01*
X160729244Y-78428048D01*
X160662977Y-78695135D01*
X160650090Y-78970017D01*
X156021000Y-78970017D01*
X156021000Y-78741497D01*
X155959935Y-78434506D01*
X155840153Y-78145326D01*
X155697904Y-77932435D01*
X161266040Y-77932435D01*
X162052000Y-78718395D01*
X162837960Y-77932435D01*
X162770980Y-77692344D01*
X162521952Y-77575244D01*
X162254865Y-77508977D01*
X161979983Y-77496090D01*
X161707867Y-77537078D01*
X161448977Y-77630364D01*
X161333020Y-77692344D01*
X161266040Y-77932435D01*
X155697904Y-77932435D01*
X155666257Y-77885072D01*
X155444928Y-77663743D01*
X155184674Y-77489847D01*
X154895494Y-77370065D01*
X154588503Y-77309000D01*
X154275497Y-77309000D01*
X153968506Y-77370065D01*
X153679326Y-77489847D01*
X153419072Y-77663743D01*
X153197743Y-77885072D01*
X153023847Y-78145326D01*
X152904065Y-78434506D01*
X152843000Y-78741497D01*
X152843000Y-79054503D01*
X152904065Y-79361494D01*
X153023847Y-79650674D01*
X153197743Y-79910928D01*
X153294693Y-80007878D01*
X153133866Y-80139866D01*
X152905555Y-80418063D01*
X152735905Y-80735455D01*
X152631436Y-81079846D01*
X152596160Y-81438000D01*
X150941000Y-81438000D01*
X150941000Y-81281497D01*
X150879935Y-80974506D01*
X150760153Y-80685326D01*
X150586257Y-80425072D01*
X150364928Y-80203743D01*
X150104674Y-80029847D01*
X150092928Y-80024982D01*
X150137960Y-79863565D01*
X149352000Y-79077605D01*
X148566040Y-79863565D01*
X148611072Y-80024982D01*
X148599326Y-80029847D01*
X148339072Y-80203743D01*
X148117743Y-80425072D01*
X147943847Y-80685326D01*
X147824065Y-80974506D01*
X147763000Y-81281497D01*
X144159265Y-81281497D01*
X142960417Y-80082650D01*
X142869307Y-80007878D01*
X142966257Y-79910928D01*
X143140153Y-79650674D01*
X143259935Y-79361494D01*
X143321000Y-79054503D01*
X143321000Y-78970017D01*
X147950090Y-78970017D01*
X147991078Y-79242133D01*
X148084364Y-79501023D01*
X148146344Y-79616980D01*
X148386435Y-79683960D01*
X149172395Y-78898000D01*
X149531605Y-78898000D01*
X150317565Y-79683960D01*
X150557656Y-79616980D01*
X150674756Y-79367952D01*
X150741023Y-79100865D01*
X150753910Y-78825983D01*
X150712922Y-78553867D01*
X150619636Y-78294977D01*
X150557656Y-78179020D01*
X150317565Y-78112040D01*
X149531605Y-78898000D01*
X149172395Y-78898000D01*
X148386435Y-78112040D01*
X148146344Y-78179020D01*
X148029244Y-78428048D01*
X147962977Y-78695135D01*
X147950090Y-78970017D01*
X143321000Y-78970017D01*
X143321000Y-78741497D01*
X143259935Y-78434506D01*
X143140153Y-78145326D01*
X142997904Y-77932435D01*
X148566040Y-77932435D01*
X149352000Y-78718395D01*
X150137960Y-77932435D01*
X150070980Y-77692344D01*
X149821952Y-77575244D01*
X149554865Y-77508977D01*
X149279983Y-77496090D01*
X149007867Y-77537078D01*
X148748977Y-77630364D01*
X148633020Y-77692344D01*
X148566040Y-77932435D01*
X142997904Y-77932435D01*
X142966257Y-77885072D01*
X142744928Y-77663743D01*
X142484674Y-77489847D01*
X142195494Y-77370065D01*
X141888503Y-77309000D01*
X141575497Y-77309000D01*
X141268506Y-77370065D01*
X140979326Y-77489847D01*
X140719072Y-77663743D01*
X140497743Y-77885072D01*
X140323847Y-78145326D01*
X140204065Y-78434506D01*
X140143000Y-78741497D01*
X140143000Y-79054503D01*
X140204065Y-79361494D01*
X140323847Y-79650674D01*
X140497743Y-79910928D01*
X140594693Y-80007878D01*
X140433866Y-80139866D01*
X140205555Y-80418063D01*
X140035905Y-80735455D01*
X139931436Y-81079846D01*
X139896160Y-81438000D01*
X138241000Y-81438000D01*
X138241000Y-81281497D01*
X138179935Y-80974506D01*
X138060153Y-80685326D01*
X137886257Y-80425072D01*
X137664928Y-80203743D01*
X137404674Y-80029847D01*
X137392928Y-80024982D01*
X137437960Y-79863565D01*
X136652000Y-79077605D01*
X135866040Y-79863565D01*
X135911072Y-80024982D01*
X135899326Y-80029847D01*
X135639072Y-80203743D01*
X135417743Y-80425072D01*
X135243847Y-80685326D01*
X135124065Y-80974506D01*
X135063000Y-81281497D01*
X131459265Y-81281497D01*
X130260417Y-80082650D01*
X130169307Y-80007878D01*
X130266257Y-79910928D01*
X130440153Y-79650674D01*
X130559935Y-79361494D01*
X130621000Y-79054503D01*
X130621000Y-78970017D01*
X135250090Y-78970017D01*
X135291078Y-79242133D01*
X135384364Y-79501023D01*
X135446344Y-79616980D01*
X135686435Y-79683960D01*
X136472395Y-78898000D01*
X136831605Y-78898000D01*
X137617565Y-79683960D01*
X137857656Y-79616980D01*
X137974756Y-79367952D01*
X138041023Y-79100865D01*
X138053910Y-78825983D01*
X138012922Y-78553867D01*
X137919636Y-78294977D01*
X137857656Y-78179020D01*
X137617565Y-78112040D01*
X136831605Y-78898000D01*
X136472395Y-78898000D01*
X135686435Y-78112040D01*
X135446344Y-78179020D01*
X135329244Y-78428048D01*
X135262977Y-78695135D01*
X135250090Y-78970017D01*
X130621000Y-78970017D01*
X130621000Y-78741497D01*
X130559935Y-78434506D01*
X130440153Y-78145326D01*
X130297904Y-77932435D01*
X135866040Y-77932435D01*
X136652000Y-78718395D01*
X137437960Y-77932435D01*
X137370980Y-77692344D01*
X137121952Y-77575244D01*
X136854865Y-77508977D01*
X136579983Y-77496090D01*
X136307867Y-77537078D01*
X136048977Y-77630364D01*
X135933020Y-77692344D01*
X135866040Y-77932435D01*
X130297904Y-77932435D01*
X130266257Y-77885072D01*
X130044928Y-77663743D01*
X129784674Y-77489847D01*
X129495494Y-77370065D01*
X129188503Y-77309000D01*
X128875497Y-77309000D01*
X128568506Y-77370065D01*
X128279326Y-77489847D01*
X128019072Y-77663743D01*
X127797743Y-77885072D01*
X127623847Y-78145326D01*
X127504065Y-78434506D01*
X127443000Y-78741497D01*
X127443000Y-79054503D01*
X127504065Y-79361494D01*
X127623847Y-79650674D01*
X127797743Y-79910928D01*
X127894693Y-80007878D01*
X127733866Y-80139866D01*
X127505555Y-80418063D01*
X127335905Y-80735455D01*
X127231436Y-81079846D01*
X127196160Y-81438000D01*
X125541000Y-81438000D01*
X125541000Y-81281497D01*
X125479935Y-80974506D01*
X125360153Y-80685326D01*
X125186257Y-80425072D01*
X124964928Y-80203743D01*
X124704674Y-80029847D01*
X124692928Y-80024982D01*
X124737960Y-79863565D01*
X123952000Y-79077605D01*
X123166040Y-79863565D01*
X123211072Y-80024982D01*
X123199326Y-80029847D01*
X122939072Y-80203743D01*
X122717743Y-80425072D01*
X122543847Y-80685326D01*
X122424065Y-80974506D01*
X122363000Y-81281497D01*
X118759265Y-81281497D01*
X117560417Y-80082650D01*
X117469307Y-80007878D01*
X117566257Y-79910928D01*
X117740153Y-79650674D01*
X117859935Y-79361494D01*
X117921000Y-79054503D01*
X117921000Y-78970017D01*
X122550090Y-78970017D01*
X122591078Y-79242133D01*
X122684364Y-79501023D01*
X122746344Y-79616980D01*
X122986435Y-79683960D01*
X123772395Y-78898000D01*
X124131605Y-78898000D01*
X124917565Y-79683960D01*
X125157656Y-79616980D01*
X125274756Y-79367952D01*
X125341023Y-79100865D01*
X125353910Y-78825983D01*
X125312922Y-78553867D01*
X125219636Y-78294977D01*
X125157656Y-78179020D01*
X124917565Y-78112040D01*
X124131605Y-78898000D01*
X123772395Y-78898000D01*
X122986435Y-78112040D01*
X122746344Y-78179020D01*
X122629244Y-78428048D01*
X122562977Y-78695135D01*
X122550090Y-78970017D01*
X117921000Y-78970017D01*
X117921000Y-78741497D01*
X117859935Y-78434506D01*
X117740153Y-78145326D01*
X117597904Y-77932435D01*
X123166040Y-77932435D01*
X123952000Y-78718395D01*
X124737960Y-77932435D01*
X124670980Y-77692344D01*
X124421952Y-77575244D01*
X124154865Y-77508977D01*
X123879983Y-77496090D01*
X123607867Y-77537078D01*
X123348977Y-77630364D01*
X123233020Y-77692344D01*
X123166040Y-77932435D01*
X117597904Y-77932435D01*
X117566257Y-77885072D01*
X117344928Y-77663743D01*
X117084674Y-77489847D01*
X116795494Y-77370065D01*
X116488503Y-77309000D01*
X116175497Y-77309000D01*
X115868506Y-77370065D01*
X115579326Y-77489847D01*
X115319072Y-77663743D01*
X115097743Y-77885072D01*
X114923847Y-78145326D01*
X114804065Y-78434506D01*
X114743000Y-78741497D01*
X114743000Y-79054503D01*
X114804065Y-79361494D01*
X114923847Y-79650674D01*
X115097743Y-79910928D01*
X115194693Y-80007878D01*
X115033866Y-80139866D01*
X114805555Y-80418063D01*
X114635905Y-80735455D01*
X114531436Y-81079846D01*
X114496160Y-81438000D01*
X112852000Y-81438000D01*
X112852000Y-59550000D01*
X161011928Y-59550000D01*
X161015000Y-60014250D01*
X161173750Y-60173000D01*
X163273000Y-60173000D01*
X163273000Y-59073750D01*
X163114250Y-58915000D01*
X161650000Y-58911928D01*
X161525518Y-58924188D01*
X161405820Y-58960498D01*
X161295506Y-59019463D01*
X161198815Y-59098815D01*
X161119463Y-59195506D01*
X161060498Y-59305820D01*
X161024188Y-59425518D01*
X161011928Y-59550000D01*
X112852000Y-59550000D01*
X112852000Y-56037944D01*
X112875841Y-55770811D01*
X114673000Y-55770811D01*
X114673000Y-56229189D01*
X114762426Y-56678761D01*
X114937840Y-57102248D01*
X115192501Y-57483376D01*
X115516624Y-57807499D01*
X115897752Y-58062160D01*
X116321239Y-58237574D01*
X116770811Y-58327000D01*
X117229189Y-58327000D01*
X117678761Y-58237574D01*
X118102248Y-58062160D01*
X118483376Y-57807499D01*
X118807499Y-57483376D01*
X119062160Y-57102248D01*
X119166644Y-56850000D01*
X132511928Y-56850000D01*
X132524188Y-56974482D01*
X132560498Y-57094180D01*
X132619463Y-57204494D01*
X132698815Y-57301185D01*
X132795506Y-57380537D01*
X132905820Y-57439502D01*
X133025518Y-57475812D01*
X133150000Y-57488072D01*
X133714250Y-57485000D01*
X133873000Y-57326250D01*
X133873000Y-56127000D01*
X132673750Y-56127000D01*
X132515000Y-56285750D01*
X132511928Y-56850000D01*
X119166644Y-56850000D01*
X119237574Y-56678761D01*
X119327000Y-56229189D01*
X119327000Y-55770811D01*
X119237574Y-55321239D01*
X119166645Y-55150000D01*
X132511928Y-55150000D01*
X132515000Y-55714250D01*
X132673750Y-55873000D01*
X133873000Y-55873000D01*
X133873000Y-54673750D01*
X134127000Y-54673750D01*
X134127000Y-55873000D01*
X134147000Y-55873000D01*
X134147000Y-56127000D01*
X134127000Y-56127000D01*
X134127000Y-57326250D01*
X134285750Y-57485000D01*
X134850000Y-57488072D01*
X134974482Y-57475812D01*
X135094180Y-57439502D01*
X135204494Y-57380537D01*
X135301185Y-57301185D01*
X135377076Y-57208712D01*
X135470975Y-57302611D01*
X135745643Y-57486138D01*
X136050837Y-57612554D01*
X136374830Y-57677000D01*
X136705170Y-57677000D01*
X137029163Y-57612554D01*
X137334357Y-57486138D01*
X137609025Y-57302611D01*
X137810000Y-57101636D01*
X138010975Y-57302611D01*
X138285643Y-57486138D01*
X138590837Y-57612554D01*
X138914830Y-57677000D01*
X139245170Y-57677000D01*
X139569163Y-57612554D01*
X139874357Y-57486138D01*
X140149025Y-57302611D01*
X140350000Y-57101636D01*
X140550975Y-57302611D01*
X140825643Y-57486138D01*
X141130837Y-57612554D01*
X141454830Y-57677000D01*
X141785170Y-57677000D01*
X142109163Y-57612554D01*
X142414357Y-57486138D01*
X142689025Y-57302611D01*
X142890000Y-57101636D01*
X143090975Y-57302611D01*
X143365643Y-57486138D01*
X143670837Y-57612554D01*
X143994830Y-57677000D01*
X144325170Y-57677000D01*
X144649163Y-57612554D01*
X144954357Y-57486138D01*
X145229025Y-57302611D01*
X145462611Y-57069025D01*
X145646138Y-56794357D01*
X145772554Y-56489163D01*
X145837000Y-56165170D01*
X145837000Y-55834830D01*
X145824266Y-55770811D01*
X158673000Y-55770811D01*
X158673000Y-56229189D01*
X158762426Y-56678761D01*
X158937840Y-57102248D01*
X159192501Y-57483376D01*
X159516624Y-57807499D01*
X159897752Y-58062160D01*
X160321239Y-58237574D01*
X160770811Y-58327000D01*
X161229189Y-58327000D01*
X161678761Y-58237574D01*
X162102248Y-58062160D01*
X162483376Y-57807499D01*
X162807499Y-57483376D01*
X163062160Y-57102248D01*
X163237574Y-56678761D01*
X163327000Y-56229189D01*
X163327000Y-55770811D01*
X163237574Y-55321239D01*
X163062160Y-54897752D01*
X162807499Y-54516624D01*
X162483376Y-54192501D01*
X162102248Y-53937840D01*
X161678761Y-53762426D01*
X161229189Y-53673000D01*
X160770811Y-53673000D01*
X160321239Y-53762426D01*
X159897752Y-53937840D01*
X159516624Y-54192501D01*
X159192501Y-54516624D01*
X158937840Y-54897752D01*
X158762426Y-55321239D01*
X158673000Y-55770811D01*
X145824266Y-55770811D01*
X145772554Y-55510837D01*
X145646138Y-55205643D01*
X145462611Y-54930975D01*
X145229025Y-54697389D01*
X144954357Y-54513862D01*
X144649163Y-54387446D01*
X144325170Y-54323000D01*
X143994830Y-54323000D01*
X143670837Y-54387446D01*
X143365643Y-54513862D01*
X143090975Y-54697389D01*
X142890000Y-54898364D01*
X142689025Y-54697389D01*
X142414357Y-54513862D01*
X142109163Y-54387446D01*
X141785170Y-54323000D01*
X141454830Y-54323000D01*
X141130837Y-54387446D01*
X140825643Y-54513862D01*
X140550975Y-54697389D01*
X140350000Y-54898364D01*
X140149025Y-54697389D01*
X139874357Y-54513862D01*
X139569163Y-54387446D01*
X139245170Y-54323000D01*
X138914830Y-54323000D01*
X138590837Y-54387446D01*
X138285643Y-54513862D01*
X138010975Y-54697389D01*
X137810000Y-54898364D01*
X137609025Y-54697389D01*
X137334357Y-54513862D01*
X137029163Y-54387446D01*
X136705170Y-54323000D01*
X136374830Y-54323000D01*
X136050837Y-54387446D01*
X135745643Y-54513862D01*
X135470975Y-54697389D01*
X135377076Y-54791288D01*
X135301185Y-54698815D01*
X135204494Y-54619463D01*
X135094180Y-54560498D01*
X134974482Y-54524188D01*
X134850000Y-54511928D01*
X134285750Y-54515000D01*
X134127000Y-54673750D01*
X133873000Y-54673750D01*
X133714250Y-54515000D01*
X133150000Y-54511928D01*
X133025518Y-54524188D01*
X132905820Y-54560498D01*
X132795506Y-54619463D01*
X132698815Y-54698815D01*
X132619463Y-54795506D01*
X132560498Y-54905820D01*
X132524188Y-55025518D01*
X132511928Y-55150000D01*
X119166645Y-55150000D01*
X119062160Y-54897752D01*
X118807499Y-54516624D01*
X118483376Y-54192501D01*
X118102248Y-53937840D01*
X117678761Y-53762426D01*
X117229189Y-53673000D01*
X116770811Y-53673000D01*
X116321239Y-53762426D01*
X115897752Y-53937840D01*
X115516624Y-54192501D01*
X115192501Y-54516624D01*
X114937840Y-54897752D01*
X114762426Y-55321239D01*
X114673000Y-55770811D01*
X112875841Y-55770811D01*
X112920890Y-55266052D01*
X113115328Y-54555306D01*
X113432559Y-53890217D01*
X113862548Y-53291824D01*
X114391709Y-52779031D01*
X115003319Y-52368047D01*
X115678036Y-52071866D01*
X116401096Y-51898275D01*
X117031242Y-51852000D01*
X160962056Y-51852000D01*
X161733948Y-51920890D01*
%TA.AperFunction,Conductor*%
D19*
G36*
X161733948Y-51920890D02*
G01*
X162444694Y-52115328D01*
X163109783Y-52432559D01*
X163708176Y-52862548D01*
X164220969Y-53391709D01*
X164631953Y-54003319D01*
X164928134Y-54678036D01*
X165101725Y-55401096D01*
X165148001Y-56031256D01*
X165148001Y-58911932D01*
X163685750Y-58915000D01*
X163527000Y-59073750D01*
X163527000Y-60173000D01*
X163547000Y-60173000D01*
X163547000Y-60427000D01*
X163527000Y-60427000D01*
X163527000Y-60447000D01*
X163273000Y-60447000D01*
X163273000Y-60427000D01*
X161173750Y-60427000D01*
X161015000Y-60585750D01*
X161011928Y-61050000D01*
X161024042Y-61173000D01*
X155179743Y-61173000D01*
X155089999Y-61164161D01*
X155000255Y-61173000D01*
X155000245Y-61173000D01*
X154731845Y-61199435D01*
X154419513Y-61294180D01*
X154387454Y-61303905D01*
X154070061Y-61473555D01*
X153861581Y-61644650D01*
X153861577Y-61644654D01*
X153791865Y-61701865D01*
X153734653Y-61771578D01*
X148595233Y-66911000D01*
X116242245Y-66911000D01*
X115973845Y-66937435D01*
X115629454Y-67041905D01*
X115312062Y-67211555D01*
X115033865Y-67439865D01*
X114805555Y-67718062D01*
X114635905Y-68035454D01*
X114531435Y-68379845D01*
X114496160Y-68738000D01*
X114531435Y-69096155D01*
X114635905Y-69440546D01*
X114805555Y-69757938D01*
X115033865Y-70036135D01*
X115312062Y-70264445D01*
X115629454Y-70434095D01*
X115973845Y-70538565D01*
X116242245Y-70565000D01*
X149262248Y-70565000D01*
X149352000Y-70573840D01*
X149441752Y-70565000D01*
X162141755Y-70565000D01*
X162410155Y-70538565D01*
X162754546Y-70434095D01*
X163071938Y-70264445D01*
X163350135Y-70036135D01*
X163578445Y-69757938D01*
X163748095Y-69440546D01*
X163852565Y-69096155D01*
X163887840Y-68738000D01*
X163852565Y-68379845D01*
X163748095Y-68035454D01*
X163578445Y-67718062D01*
X163350135Y-67439865D01*
X163071938Y-67211555D01*
X162836262Y-67085583D01*
X163114250Y-67085000D01*
X163273000Y-66926250D01*
X163273000Y-65827000D01*
X161173750Y-65827000D01*
X161015000Y-65985750D01*
X161011928Y-66450000D01*
X161024188Y-66574482D01*
X161060498Y-66694180D01*
X161119463Y-66804494D01*
X161198815Y-66901185D01*
X161210775Y-66911000D01*
X153762768Y-66911000D01*
X155846769Y-64827000D01*
X161024042Y-64827000D01*
X161011928Y-64950000D01*
X161015000Y-65414250D01*
X161173750Y-65573000D01*
X163273000Y-65573000D01*
X163273000Y-65553000D01*
X163527000Y-65553000D01*
X163527000Y-65573000D01*
X163547000Y-65573000D01*
X163547000Y-65827000D01*
X163527000Y-65827000D01*
X163527000Y-66926250D01*
X163685750Y-67085000D01*
X165148001Y-67088068D01*
X165148000Y-138811932D01*
X163685750Y-138815000D01*
X163527000Y-138973750D01*
X163527000Y-140073000D01*
X163547000Y-140073000D01*
X163547000Y-140327000D01*
X163527000Y-140327000D01*
X163527000Y-140347000D01*
X163273000Y-140347000D01*
X163273000Y-140327000D01*
X161173750Y-140327000D01*
X161015000Y-140485750D01*
X161011928Y-140950000D01*
X161024042Y-141073000D01*
X155928768Y-141073000D01*
X153762768Y-138907000D01*
X161318822Y-138907000D01*
X161295506Y-138919463D01*
X161198815Y-138998815D01*
X161119463Y-139095506D01*
X161060498Y-139205820D01*
X161024188Y-139325518D01*
X161011928Y-139450000D01*
X161015000Y-139914250D01*
X161173750Y-140073000D01*
X163273000Y-140073000D01*
X163273000Y-138973750D01*
X163114250Y-138815000D01*
X162629645Y-138813983D01*
X162754546Y-138776095D01*
X163071938Y-138606445D01*
X163350135Y-138378135D01*
X163578445Y-138099938D01*
X163748095Y-137782546D01*
X163852565Y-137438155D01*
X163887840Y-137080000D01*
X163852565Y-136721845D01*
X163748095Y-136377454D01*
X163578445Y-136060062D01*
X163350135Y-135781865D01*
X163071938Y-135553555D01*
X162754546Y-135383905D01*
X162410155Y-135279435D01*
X162141755Y-135253000D01*
X149441752Y-135253000D01*
X149352000Y-135244160D01*
X149262248Y-135253000D01*
X116242245Y-135253000D01*
X115973845Y-135279435D01*
X115629454Y-135383905D01*
X115312062Y-135553555D01*
X115033865Y-135781865D01*
X114805555Y-136060062D01*
X114635905Y-136377454D01*
X114531435Y-136721845D01*
X114496160Y-137080000D01*
X114531435Y-137438155D01*
X114635905Y-137782546D01*
X114805555Y-138099938D01*
X115033865Y-138378135D01*
X115312062Y-138606445D01*
X115629454Y-138776095D01*
X115973845Y-138880565D01*
X116242245Y-138907000D01*
X148595233Y-138907000D01*
X153816649Y-144128417D01*
X153873865Y-144198135D01*
X154152062Y-144426445D01*
X154469454Y-144596095D01*
X154813845Y-144700565D01*
X155082245Y-144727000D01*
X155082248Y-144727000D01*
X155172000Y-144735840D01*
X155261752Y-144727000D01*
X161024042Y-144727000D01*
X161011928Y-144850000D01*
X161015000Y-145314250D01*
X161173750Y-145473000D01*
X163273000Y-145473000D01*
X163273000Y-145453000D01*
X163527000Y-145453000D01*
X163527000Y-145473000D01*
X163547000Y-145473000D01*
X163547000Y-145727000D01*
X163527000Y-145727000D01*
X163527000Y-146826250D01*
X163685750Y-146985000D01*
X165148000Y-146988068D01*
X165148000Y-149962056D01*
X165079110Y-150733949D01*
X164884672Y-151444696D01*
X164567441Y-152109783D01*
X164137452Y-152708176D01*
X163608291Y-153220969D01*
X162996681Y-153631953D01*
X162321963Y-153928134D01*
X161598904Y-154101725D01*
X160968758Y-154148000D01*
X117037944Y-154148000D01*
X116266051Y-154079110D01*
X115555304Y-153884672D01*
X114890217Y-153567441D01*
X114291824Y-153137452D01*
X113779031Y-152608291D01*
X113368047Y-151996681D01*
X113071866Y-151321963D01*
X112898275Y-150598904D01*
X112852000Y-149968758D01*
X112852000Y-149770811D01*
X114673000Y-149770811D01*
X114673000Y-150229189D01*
X114762426Y-150678761D01*
X114937840Y-151102248D01*
X115192501Y-151483376D01*
X115516624Y-151807499D01*
X115897752Y-152062160D01*
X116321239Y-152237574D01*
X116770811Y-152327000D01*
X117229189Y-152327000D01*
X117678761Y-152237574D01*
X118102248Y-152062160D01*
X118483376Y-151807499D01*
X118807499Y-151483376D01*
X119062160Y-151102248D01*
X119237574Y-150678761D01*
X119327000Y-150229189D01*
X119327000Y-149770811D01*
X158673000Y-149770811D01*
X158673000Y-150229189D01*
X158762426Y-150678761D01*
X158937840Y-151102248D01*
X159192501Y-151483376D01*
X159516624Y-151807499D01*
X159897752Y-152062160D01*
X160321239Y-152237574D01*
X160770811Y-152327000D01*
X161229189Y-152327000D01*
X161678761Y-152237574D01*
X162102248Y-152062160D01*
X162483376Y-151807499D01*
X162807499Y-151483376D01*
X163062160Y-151102248D01*
X163237574Y-150678761D01*
X163327000Y-150229189D01*
X163327000Y-149770811D01*
X163237574Y-149321239D01*
X163062160Y-148897752D01*
X162807499Y-148516624D01*
X162483376Y-148192501D01*
X162102248Y-147937840D01*
X161678761Y-147762426D01*
X161229189Y-147673000D01*
X160770811Y-147673000D01*
X160321239Y-147762426D01*
X159897752Y-147937840D01*
X159516624Y-148192501D01*
X159192501Y-148516624D01*
X158937840Y-148897752D01*
X158762426Y-149321239D01*
X158673000Y-149770811D01*
X119327000Y-149770811D01*
X119237574Y-149321239D01*
X119062160Y-148897752D01*
X118807499Y-148516624D01*
X118483376Y-148192501D01*
X118102248Y-147937840D01*
X117678761Y-147762426D01*
X117229189Y-147673000D01*
X116770811Y-147673000D01*
X116321239Y-147762426D01*
X115897752Y-147937840D01*
X115516624Y-148192501D01*
X115192501Y-148516624D01*
X114937840Y-148897752D01*
X114762426Y-149321239D01*
X114673000Y-149770811D01*
X112852000Y-149770811D01*
X112852000Y-146350000D01*
X161011928Y-146350000D01*
X161024188Y-146474482D01*
X161060498Y-146594180D01*
X161119463Y-146704494D01*
X161198815Y-146801185D01*
X161295506Y-146880537D01*
X161405820Y-146939502D01*
X161525518Y-146975812D01*
X161650000Y-146988072D01*
X163114250Y-146985000D01*
X163273000Y-146826250D01*
X163273000Y-145727000D01*
X161173750Y-145727000D01*
X161015000Y-145885750D01*
X161011928Y-146350000D01*
X112852000Y-146350000D01*
X112852000Y-124223497D01*
X114743000Y-124223497D01*
X114743000Y-124536503D01*
X114804065Y-124843494D01*
X114923847Y-125132674D01*
X115097743Y-125392928D01*
X115319072Y-125614257D01*
X115372565Y-125650000D01*
X115319072Y-125685743D01*
X115097743Y-125907072D01*
X114923847Y-126167326D01*
X114804065Y-126456506D01*
X114743000Y-126763497D01*
X114743000Y-127076503D01*
X114804065Y-127383494D01*
X114923847Y-127672674D01*
X115097743Y-127932928D01*
X115319072Y-128154257D01*
X115579326Y-128328153D01*
X115868506Y-128447935D01*
X116175497Y-128509000D01*
X116488503Y-128509000D01*
X116795494Y-128447935D01*
X117084674Y-128328153D01*
X117344928Y-128154257D01*
X117566257Y-127932928D01*
X117597903Y-127885565D01*
X123166040Y-127885565D01*
X123233020Y-128125656D01*
X123482048Y-128242756D01*
X123749135Y-128309023D01*
X124024017Y-128321910D01*
X124296133Y-128280922D01*
X124555023Y-128187636D01*
X124670980Y-128125656D01*
X124737960Y-127885565D01*
X123952000Y-127099605D01*
X123166040Y-127885565D01*
X117597903Y-127885565D01*
X117740153Y-127672674D01*
X117859935Y-127383494D01*
X117921000Y-127076503D01*
X117921000Y-126992017D01*
X122550090Y-126992017D01*
X122591078Y-127264133D01*
X122684364Y-127523023D01*
X122746344Y-127638980D01*
X122986435Y-127705960D01*
X123772395Y-126920000D01*
X124131605Y-126920000D01*
X124917565Y-127705960D01*
X125157656Y-127638980D01*
X125274756Y-127389952D01*
X125341023Y-127122865D01*
X125353910Y-126847983D01*
X125312922Y-126575867D01*
X125219636Y-126316977D01*
X125157656Y-126201020D01*
X124917565Y-126134040D01*
X124131605Y-126920000D01*
X123772395Y-126920000D01*
X122986435Y-126134040D01*
X122746344Y-126201020D01*
X122629244Y-126450048D01*
X122562977Y-126717135D01*
X122550090Y-126992017D01*
X117921000Y-126992017D01*
X117921000Y-126763497D01*
X117859935Y-126456506D01*
X117740153Y-126167326D01*
X117566257Y-125907072D01*
X117344928Y-125685743D01*
X117291435Y-125650000D01*
X117344928Y-125614257D01*
X117566257Y-125392928D01*
X117740153Y-125132674D01*
X117859935Y-124843494D01*
X117921000Y-124536503D01*
X117921000Y-124223497D01*
X117859935Y-123916506D01*
X117740153Y-123627326D01*
X117566257Y-123367072D01*
X117344928Y-123145743D01*
X117084674Y-122971847D01*
X116795494Y-122852065D01*
X116488503Y-122791000D01*
X116175497Y-122791000D01*
X115868506Y-122852065D01*
X115579326Y-122971847D01*
X115319072Y-123145743D01*
X115097743Y-123367072D01*
X114923847Y-123627326D01*
X114804065Y-123916506D01*
X114743000Y-124223497D01*
X112852000Y-124223497D01*
X112852000Y-118861248D01*
X116743660Y-118861248D01*
X116778936Y-119219402D01*
X116883405Y-119563793D01*
X117053055Y-119881185D01*
X117053056Y-119881186D01*
X117281366Y-120159383D01*
X117351084Y-120216599D01*
X117783436Y-120648951D01*
X117908448Y-120882831D01*
X118136758Y-121161028D01*
X118206480Y-121218247D01*
X122723582Y-125735350D01*
X122932062Y-125906445D01*
X123249454Y-126076095D01*
X123304353Y-126092748D01*
X123952000Y-126740395D01*
X124599647Y-126092748D01*
X124654545Y-126076095D01*
X124971937Y-125906445D01*
X125250134Y-125678134D01*
X125478445Y-125399937D01*
X125648095Y-125082545D01*
X125752564Y-124738154D01*
X125787840Y-124380000D01*
X125772426Y-124223497D01*
X127443000Y-124223497D01*
X127443000Y-124536503D01*
X127504065Y-124843494D01*
X127623847Y-125132674D01*
X127797743Y-125392928D01*
X128019072Y-125614257D01*
X128072565Y-125650000D01*
X128019072Y-125685743D01*
X127797743Y-125907072D01*
X127623847Y-126167326D01*
X127504065Y-126456506D01*
X127443000Y-126763497D01*
X127443000Y-127076503D01*
X127504065Y-127383494D01*
X127623847Y-127672674D01*
X127797743Y-127932928D01*
X128019072Y-128154257D01*
X128279326Y-128328153D01*
X128568506Y-128447935D01*
X128875497Y-128509000D01*
X129188503Y-128509000D01*
X129495494Y-128447935D01*
X129784674Y-128328153D01*
X130044928Y-128154257D01*
X130266257Y-127932928D01*
X130297903Y-127885565D01*
X135866040Y-127885565D01*
X135933020Y-128125656D01*
X136182048Y-128242756D01*
X136449135Y-128309023D01*
X136724017Y-128321910D01*
X136996133Y-128280922D01*
X137255023Y-128187636D01*
X137370980Y-128125656D01*
X137437960Y-127885565D01*
X136652000Y-127099605D01*
X135866040Y-127885565D01*
X130297903Y-127885565D01*
X130440153Y-127672674D01*
X130559935Y-127383494D01*
X130621000Y-127076503D01*
X130621000Y-126992017D01*
X135250090Y-126992017D01*
X135291078Y-127264133D01*
X135384364Y-127523023D01*
X135446344Y-127638980D01*
X135686435Y-127705960D01*
X136472395Y-126920000D01*
X136831605Y-126920000D01*
X137617565Y-127705960D01*
X137857656Y-127638980D01*
X137974756Y-127389952D01*
X138041023Y-127122865D01*
X138053910Y-126847983D01*
X138012922Y-126575867D01*
X137919636Y-126316977D01*
X137857656Y-126201020D01*
X137617565Y-126134040D01*
X136831605Y-126920000D01*
X136472395Y-126920000D01*
X135686435Y-126134040D01*
X135446344Y-126201020D01*
X135329244Y-126450048D01*
X135262977Y-126717135D01*
X135250090Y-126992017D01*
X130621000Y-126992017D01*
X130621000Y-126763497D01*
X130559935Y-126456506D01*
X130440153Y-126167326D01*
X130266257Y-125907072D01*
X130044928Y-125685743D01*
X129991435Y-125650000D01*
X130044928Y-125614257D01*
X130266257Y-125392928D01*
X130440153Y-125132674D01*
X130559935Y-124843494D01*
X130621000Y-124536503D01*
X130621000Y-124223497D01*
X130559935Y-123916506D01*
X130440153Y-123627326D01*
X130266257Y-123367072D01*
X130044928Y-123145743D01*
X129784674Y-122971847D01*
X129495494Y-122852065D01*
X129188503Y-122791000D01*
X128875497Y-122791000D01*
X128568506Y-122852065D01*
X128279326Y-122971847D01*
X128019072Y-123145743D01*
X127797743Y-123367072D01*
X127623847Y-123627326D01*
X127504065Y-123916506D01*
X127443000Y-124223497D01*
X125772426Y-124223497D01*
X125752564Y-124021845D01*
X125648095Y-123677454D01*
X125478445Y-123360062D01*
X125307350Y-123151582D01*
X121086349Y-118930582D01*
X121049290Y-118861248D01*
X129443660Y-118861248D01*
X129478936Y-119219402D01*
X129583405Y-119563793D01*
X129753055Y-119881185D01*
X129753056Y-119881186D01*
X129981366Y-120159383D01*
X130051084Y-120216599D01*
X130483436Y-120648951D01*
X130608448Y-120882831D01*
X130836758Y-121161028D01*
X130906480Y-121218247D01*
X135423582Y-125735350D01*
X135632062Y-125906445D01*
X135949454Y-126076095D01*
X136004353Y-126092748D01*
X136652000Y-126740395D01*
X137299647Y-126092748D01*
X137354545Y-126076095D01*
X137671937Y-125906445D01*
X137950134Y-125678134D01*
X138178445Y-125399937D01*
X138348095Y-125082545D01*
X138452564Y-124738154D01*
X138487840Y-124380000D01*
X138472426Y-124223497D01*
X140143000Y-124223497D01*
X140143000Y-124536503D01*
X140204065Y-124843494D01*
X140323847Y-125132674D01*
X140497743Y-125392928D01*
X140719072Y-125614257D01*
X140772565Y-125650000D01*
X140719072Y-125685743D01*
X140497743Y-125907072D01*
X140323847Y-126167326D01*
X140204065Y-126456506D01*
X140143000Y-126763497D01*
X140143000Y-127076503D01*
X140204065Y-127383494D01*
X140323847Y-127672674D01*
X140497743Y-127932928D01*
X140719072Y-128154257D01*
X140979326Y-128328153D01*
X141268506Y-128447935D01*
X141575497Y-128509000D01*
X141888503Y-128509000D01*
X142195494Y-128447935D01*
X142484674Y-128328153D01*
X142744928Y-128154257D01*
X142966257Y-127932928D01*
X142997903Y-127885565D01*
X148566040Y-127885565D01*
X148633020Y-128125656D01*
X148882048Y-128242756D01*
X149149135Y-128309023D01*
X149424017Y-128321910D01*
X149696133Y-128280922D01*
X149955023Y-128187636D01*
X150070980Y-128125656D01*
X150137960Y-127885565D01*
X149352000Y-127099605D01*
X148566040Y-127885565D01*
X142997903Y-127885565D01*
X143140153Y-127672674D01*
X143259935Y-127383494D01*
X143321000Y-127076503D01*
X143321000Y-126992017D01*
X147950090Y-126992017D01*
X147991078Y-127264133D01*
X148084364Y-127523023D01*
X148146344Y-127638980D01*
X148386435Y-127705960D01*
X149172395Y-126920000D01*
X149531605Y-126920000D01*
X150317565Y-127705960D01*
X150557656Y-127638980D01*
X150674756Y-127389952D01*
X150741023Y-127122865D01*
X150753910Y-126847983D01*
X150712922Y-126575867D01*
X150619636Y-126316977D01*
X150557656Y-126201020D01*
X150317565Y-126134040D01*
X149531605Y-126920000D01*
X149172395Y-126920000D01*
X148386435Y-126134040D01*
X148146344Y-126201020D01*
X148029244Y-126450048D01*
X147962977Y-126717135D01*
X147950090Y-126992017D01*
X143321000Y-126992017D01*
X143321000Y-126763497D01*
X143259935Y-126456506D01*
X143140153Y-126167326D01*
X142966257Y-125907072D01*
X142744928Y-125685743D01*
X142691435Y-125650000D01*
X142744928Y-125614257D01*
X142966257Y-125392928D01*
X143140153Y-125132674D01*
X143259935Y-124843494D01*
X143321000Y-124536503D01*
X143321000Y-124223497D01*
X143259935Y-123916506D01*
X143140153Y-123627326D01*
X142966257Y-123367072D01*
X142744928Y-123145743D01*
X142484674Y-122971847D01*
X142195494Y-122852065D01*
X141888503Y-122791000D01*
X141575497Y-122791000D01*
X141268506Y-122852065D01*
X140979326Y-122971847D01*
X140719072Y-123145743D01*
X140497743Y-123367072D01*
X140323847Y-123627326D01*
X140204065Y-123916506D01*
X140143000Y-124223497D01*
X138472426Y-124223497D01*
X138452564Y-124021845D01*
X138348095Y-123677454D01*
X138178445Y-123360062D01*
X138007350Y-123151582D01*
X133786349Y-118930582D01*
X133749290Y-118861248D01*
X142143660Y-118861248D01*
X142178936Y-119219402D01*
X142283405Y-119563793D01*
X142453055Y-119881185D01*
X142453056Y-119881186D01*
X142681366Y-120159383D01*
X142751084Y-120216599D01*
X143183436Y-120648951D01*
X143308448Y-120882831D01*
X143536758Y-121161028D01*
X143606480Y-121218247D01*
X148123582Y-125735350D01*
X148332062Y-125906445D01*
X148649454Y-126076095D01*
X148704353Y-126092748D01*
X149352000Y-126740395D01*
X149999647Y-126092748D01*
X150054545Y-126076095D01*
X150371937Y-125906445D01*
X150650134Y-125678134D01*
X150878445Y-125399937D01*
X151048095Y-125082545D01*
X151152564Y-124738154D01*
X151187840Y-124380000D01*
X151172426Y-124223497D01*
X152843000Y-124223497D01*
X152843000Y-124536503D01*
X152904065Y-124843494D01*
X153023847Y-125132674D01*
X153197743Y-125392928D01*
X153419072Y-125614257D01*
X153472565Y-125650000D01*
X153419072Y-125685743D01*
X153197743Y-125907072D01*
X153023847Y-126167326D01*
X152904065Y-126456506D01*
X152843000Y-126763497D01*
X152843000Y-127076503D01*
X152904065Y-127383494D01*
X153023847Y-127672674D01*
X153197743Y-127932928D01*
X153419072Y-128154257D01*
X153679326Y-128328153D01*
X153968506Y-128447935D01*
X154275497Y-128509000D01*
X154588503Y-128509000D01*
X154895494Y-128447935D01*
X155184674Y-128328153D01*
X155444928Y-128154257D01*
X155666257Y-127932928D01*
X155697903Y-127885565D01*
X161266040Y-127885565D01*
X161333020Y-128125656D01*
X161582048Y-128242756D01*
X161849135Y-128309023D01*
X162124017Y-128321910D01*
X162396133Y-128280922D01*
X162655023Y-128187636D01*
X162770980Y-128125656D01*
X162837960Y-127885565D01*
X162052000Y-127099605D01*
X161266040Y-127885565D01*
X155697903Y-127885565D01*
X155840153Y-127672674D01*
X155959935Y-127383494D01*
X156021000Y-127076503D01*
X156021000Y-126992017D01*
X160650090Y-126992017D01*
X160691078Y-127264133D01*
X160784364Y-127523023D01*
X160846344Y-127638980D01*
X161086435Y-127705960D01*
X161872395Y-126920000D01*
X162231605Y-126920000D01*
X163017565Y-127705960D01*
X163257656Y-127638980D01*
X163374756Y-127389952D01*
X163441023Y-127122865D01*
X163453910Y-126847983D01*
X163412922Y-126575867D01*
X163319636Y-126316977D01*
X163257656Y-126201020D01*
X163017565Y-126134040D01*
X162231605Y-126920000D01*
X161872395Y-126920000D01*
X161086435Y-126134040D01*
X160846344Y-126201020D01*
X160729244Y-126450048D01*
X160662977Y-126717135D01*
X160650090Y-126992017D01*
X156021000Y-126992017D01*
X156021000Y-126763497D01*
X155959935Y-126456506D01*
X155840153Y-126167326D01*
X155666257Y-125907072D01*
X155444928Y-125685743D01*
X155391435Y-125650000D01*
X155444928Y-125614257D01*
X155666257Y-125392928D01*
X155840153Y-125132674D01*
X155959935Y-124843494D01*
X156021000Y-124536503D01*
X156021000Y-124223497D01*
X155959935Y-123916506D01*
X155840153Y-123627326D01*
X155666257Y-123367072D01*
X155444928Y-123145743D01*
X155184674Y-122971847D01*
X154895494Y-122852065D01*
X154588503Y-122791000D01*
X154275497Y-122791000D01*
X153968506Y-122852065D01*
X153679326Y-122971847D01*
X153419072Y-123145743D01*
X153197743Y-123367072D01*
X153023847Y-123627326D01*
X152904065Y-123916506D01*
X152843000Y-124223497D01*
X151172426Y-124223497D01*
X151152564Y-124021845D01*
X151048095Y-123677454D01*
X150878445Y-123360062D01*
X150707350Y-123151582D01*
X146486349Y-118930582D01*
X146361338Y-118696703D01*
X146133028Y-118418506D01*
X146063306Y-118361287D01*
X145806500Y-118104481D01*
X145806500Y-116908115D01*
X145816188Y-117006482D01*
X145852498Y-117126180D01*
X145911463Y-117236494D01*
X145990815Y-117333185D01*
X146087506Y-117412537D01*
X146197820Y-117471502D01*
X146317518Y-117507812D01*
X146442000Y-117520072D01*
X146818750Y-117517000D01*
X146977500Y-117358250D01*
X146977500Y-116109000D01*
X147231500Y-116109000D01*
X147231500Y-117358250D01*
X147390250Y-117517000D01*
X147767000Y-117520072D01*
X147891482Y-117507812D01*
X148011180Y-117471502D01*
X148121494Y-117412537D01*
X148218185Y-117333185D01*
X148297537Y-117236494D01*
X148356502Y-117126180D01*
X148392812Y-117006482D01*
X148405072Y-116882000D01*
X148402000Y-116267750D01*
X148243250Y-116109000D01*
X147231500Y-116109000D01*
X146977500Y-116109000D01*
X145965750Y-116109000D01*
X145807000Y-116267750D01*
X145806500Y-116367726D01*
X145806500Y-116020500D01*
X154843660Y-116020500D01*
X154852500Y-116110252D01*
X154852501Y-118771487D01*
X154843660Y-118861248D01*
X154878936Y-119219402D01*
X154983405Y-119563793D01*
X155153055Y-119881185D01*
X155153056Y-119881186D01*
X155381366Y-120159383D01*
X155451084Y-120216599D01*
X155883436Y-120648951D01*
X156008448Y-120882831D01*
X156236758Y-121161028D01*
X156306480Y-121218247D01*
X160823582Y-125735350D01*
X161032062Y-125906445D01*
X161349454Y-126076095D01*
X161404353Y-126092748D01*
X162052000Y-126740395D01*
X162699647Y-126092748D01*
X162754545Y-126076095D01*
X163071937Y-125906445D01*
X163350134Y-125678134D01*
X163578445Y-125399937D01*
X163748095Y-125082545D01*
X163852564Y-124738154D01*
X163887840Y-124380000D01*
X163852564Y-124021845D01*
X163748095Y-123677454D01*
X163578445Y-123360062D01*
X163407350Y-123151582D01*
X159186349Y-118930582D01*
X159061338Y-118696703D01*
X158833028Y-118418506D01*
X158763306Y-118361287D01*
X158506500Y-118104481D01*
X158506500Y-116908115D01*
X158516188Y-117006482D01*
X158552498Y-117126180D01*
X158611463Y-117236494D01*
X158690815Y-117333185D01*
X158787506Y-117412537D01*
X158897820Y-117471502D01*
X159017518Y-117507812D01*
X159142000Y-117520072D01*
X159518750Y-117517000D01*
X159677500Y-117358250D01*
X159677500Y-116109000D01*
X159931500Y-116109000D01*
X159931500Y-117358250D01*
X160090250Y-117517000D01*
X160467000Y-117520072D01*
X160591482Y-117507812D01*
X160711180Y-117471502D01*
X160821494Y-117412537D01*
X160918185Y-117333185D01*
X160997537Y-117236494D01*
X161056502Y-117126180D01*
X161092812Y-117006482D01*
X161105072Y-116882000D01*
X161102000Y-116267750D01*
X160943250Y-116109000D01*
X159931500Y-116109000D01*
X159677500Y-116109000D01*
X159657500Y-116109000D01*
X159657500Y-115855000D01*
X159677500Y-115855000D01*
X159677500Y-114605750D01*
X159931500Y-114605750D01*
X159931500Y-115855000D01*
X160943250Y-115855000D01*
X161102000Y-115696250D01*
X161105072Y-115082000D01*
X161092812Y-114957518D01*
X161056502Y-114837820D01*
X160997537Y-114727506D01*
X160918185Y-114630815D01*
X160821494Y-114551463D01*
X160711180Y-114492498D01*
X160591482Y-114456188D01*
X160467000Y-114443928D01*
X160090250Y-114447000D01*
X159931500Y-114605750D01*
X159677500Y-114605750D01*
X159518750Y-114447000D01*
X159142000Y-114443928D01*
X159017518Y-114456188D01*
X158897820Y-114492498D01*
X158787506Y-114551463D01*
X158690815Y-114630815D01*
X158611463Y-114727506D01*
X158552498Y-114837820D01*
X158516188Y-114957518D01*
X158503928Y-115082000D01*
X158506438Y-115583872D01*
X158414095Y-115279455D01*
X158244445Y-114962063D01*
X158016134Y-114683866D01*
X157737937Y-114455555D01*
X157420545Y-114285905D01*
X157076154Y-114181436D01*
X156717999Y-114146161D01*
X156359846Y-114181436D01*
X156064911Y-114270903D01*
X156056106Y-114271770D01*
X155853318Y-114333285D01*
X155666427Y-114433180D01*
X155502616Y-114567616D01*
X155368180Y-114731427D01*
X155357444Y-114751513D01*
X155153055Y-115000563D01*
X154983405Y-115317955D01*
X154878935Y-115662346D01*
X154856292Y-115892245D01*
X154843660Y-116020500D01*
X145806500Y-116020500D01*
X145806500Y-115892245D01*
X145780065Y-115623845D01*
X145675595Y-115279454D01*
X145570054Y-115082000D01*
X145803928Y-115082000D01*
X145807000Y-115696250D01*
X145965750Y-115855000D01*
X146977500Y-115855000D01*
X146977500Y-114605750D01*
X147231500Y-114605750D01*
X147231500Y-115855000D01*
X148243250Y-115855000D01*
X148402000Y-115696250D01*
X148405072Y-115082000D01*
X148392812Y-114957518D01*
X148356502Y-114837820D01*
X148297537Y-114727506D01*
X148218185Y-114630815D01*
X148121494Y-114551463D01*
X148011180Y-114492498D01*
X147891482Y-114456188D01*
X147767000Y-114443928D01*
X147390250Y-114447000D01*
X147231500Y-114605750D01*
X146977500Y-114605750D01*
X146818750Y-114447000D01*
X146442000Y-114443928D01*
X146317518Y-114456188D01*
X146197820Y-114492498D01*
X146087506Y-114551463D01*
X145990815Y-114630815D01*
X145911463Y-114727506D01*
X145852498Y-114837820D01*
X145816188Y-114957518D01*
X145803928Y-115082000D01*
X145570054Y-115082000D01*
X145505945Y-114962062D01*
X145277635Y-114683865D01*
X145198466Y-114618893D01*
X145156384Y-114567616D01*
X144992573Y-114433180D01*
X144805682Y-114333285D01*
X144724764Y-114308739D01*
X144682045Y-114285905D01*
X144337654Y-114181435D01*
X143979500Y-114146160D01*
X143621345Y-114181435D01*
X143276954Y-114285905D01*
X143234234Y-114308739D01*
X143153318Y-114333285D01*
X142966427Y-114433180D01*
X142802616Y-114567616D01*
X142760535Y-114618892D01*
X142681365Y-114683865D01*
X142453055Y-114962063D01*
X142283405Y-115279455D01*
X142178935Y-115623846D01*
X142152500Y-115892246D01*
X142152501Y-118771487D01*
X142143660Y-118861248D01*
X133749290Y-118861248D01*
X133661338Y-118696703D01*
X133433028Y-118418506D01*
X133363306Y-118361287D01*
X133106500Y-118104481D01*
X133106500Y-116908115D01*
X133116188Y-117006482D01*
X133152498Y-117126180D01*
X133211463Y-117236494D01*
X133290815Y-117333185D01*
X133387506Y-117412537D01*
X133497820Y-117471502D01*
X133617518Y-117507812D01*
X133742000Y-117520072D01*
X134118750Y-117517000D01*
X134277500Y-117358250D01*
X134277500Y-116109000D01*
X134531500Y-116109000D01*
X134531500Y-117358250D01*
X134690250Y-117517000D01*
X135067000Y-117520072D01*
X135191482Y-117507812D01*
X135311180Y-117471502D01*
X135421494Y-117412537D01*
X135518185Y-117333185D01*
X135597537Y-117236494D01*
X135656502Y-117126180D01*
X135692812Y-117006482D01*
X135705072Y-116882000D01*
X135702000Y-116267750D01*
X135543250Y-116109000D01*
X134531500Y-116109000D01*
X134277500Y-116109000D01*
X133265750Y-116109000D01*
X133107000Y-116267750D01*
X133106500Y-116367726D01*
X133106500Y-115892245D01*
X133080065Y-115623845D01*
X132975595Y-115279454D01*
X132870054Y-115082000D01*
X133103928Y-115082000D01*
X133107000Y-115696250D01*
X133265750Y-115855000D01*
X134277500Y-115855000D01*
X134277500Y-114605750D01*
X134531500Y-114605750D01*
X134531500Y-115855000D01*
X135543250Y-115855000D01*
X135702000Y-115696250D01*
X135705072Y-115082000D01*
X135692812Y-114957518D01*
X135656502Y-114837820D01*
X135597537Y-114727506D01*
X135518185Y-114630815D01*
X135421494Y-114551463D01*
X135311180Y-114492498D01*
X135191482Y-114456188D01*
X135067000Y-114443928D01*
X134690250Y-114447000D01*
X134531500Y-114605750D01*
X134277500Y-114605750D01*
X134118750Y-114447000D01*
X133742000Y-114443928D01*
X133617518Y-114456188D01*
X133497820Y-114492498D01*
X133387506Y-114551463D01*
X133290815Y-114630815D01*
X133211463Y-114727506D01*
X133152498Y-114837820D01*
X133116188Y-114957518D01*
X133103928Y-115082000D01*
X132870054Y-115082000D01*
X132805945Y-114962062D01*
X132577635Y-114683865D01*
X132498466Y-114618893D01*
X132456384Y-114567616D01*
X132292573Y-114433180D01*
X132105682Y-114333285D01*
X132024764Y-114308739D01*
X131982045Y-114285905D01*
X131637654Y-114181435D01*
X131279500Y-114146160D01*
X130921345Y-114181435D01*
X130576954Y-114285905D01*
X130534234Y-114308739D01*
X130453318Y-114333285D01*
X130266427Y-114433180D01*
X130102616Y-114567616D01*
X130060535Y-114618892D01*
X129981365Y-114683865D01*
X129753055Y-114962063D01*
X129583405Y-115279455D01*
X129478935Y-115623846D01*
X129452500Y-115892246D01*
X129452501Y-118771487D01*
X129443660Y-118861248D01*
X121049290Y-118861248D01*
X120961338Y-118696703D01*
X120733028Y-118418506D01*
X120663306Y-118361287D01*
X120406500Y-118104481D01*
X120406500Y-116908115D01*
X120416188Y-117006482D01*
X120452498Y-117126180D01*
X120511463Y-117236494D01*
X120590815Y-117333185D01*
X120687506Y-117412537D01*
X120797820Y-117471502D01*
X120917518Y-117507812D01*
X121042000Y-117520072D01*
X121418750Y-117517000D01*
X121577500Y-117358250D01*
X121577500Y-116109000D01*
X121831500Y-116109000D01*
X121831500Y-117358250D01*
X121990250Y-117517000D01*
X122367000Y-117520072D01*
X122491482Y-117507812D01*
X122611180Y-117471502D01*
X122721494Y-117412537D01*
X122818185Y-117333185D01*
X122897537Y-117236494D01*
X122956502Y-117126180D01*
X122992812Y-117006482D01*
X123005072Y-116882000D01*
X123002000Y-116267750D01*
X122843250Y-116109000D01*
X121831500Y-116109000D01*
X121577500Y-116109000D01*
X120565750Y-116109000D01*
X120407000Y-116267750D01*
X120406500Y-116367726D01*
X120406500Y-115892245D01*
X120380065Y-115623845D01*
X120275595Y-115279454D01*
X120170054Y-115082000D01*
X120403928Y-115082000D01*
X120407000Y-115696250D01*
X120565750Y-115855000D01*
X121577500Y-115855000D01*
X121577500Y-114605750D01*
X121831500Y-114605750D01*
X121831500Y-115855000D01*
X122843250Y-115855000D01*
X123002000Y-115696250D01*
X123005072Y-115082000D01*
X122992812Y-114957518D01*
X122956502Y-114837820D01*
X122897537Y-114727506D01*
X122818185Y-114630815D01*
X122721494Y-114551463D01*
X122611180Y-114492498D01*
X122491482Y-114456188D01*
X122367000Y-114443928D01*
X121990250Y-114447000D01*
X121831500Y-114605750D01*
X121577500Y-114605750D01*
X121418750Y-114447000D01*
X121042000Y-114443928D01*
X120917518Y-114456188D01*
X120797820Y-114492498D01*
X120687506Y-114551463D01*
X120590815Y-114630815D01*
X120511463Y-114727506D01*
X120452498Y-114837820D01*
X120416188Y-114957518D01*
X120403928Y-115082000D01*
X120170054Y-115082000D01*
X120105945Y-114962062D01*
X119877635Y-114683865D01*
X119798466Y-114618893D01*
X119756384Y-114567616D01*
X119592573Y-114433180D01*
X119405682Y-114333285D01*
X119324764Y-114308739D01*
X119282045Y-114285905D01*
X118937654Y-114181435D01*
X118579500Y-114146160D01*
X118221345Y-114181435D01*
X117876954Y-114285905D01*
X117834234Y-114308739D01*
X117753318Y-114333285D01*
X117566427Y-114433180D01*
X117402616Y-114567616D01*
X117360535Y-114618892D01*
X117281365Y-114683865D01*
X117053055Y-114962063D01*
X116883405Y-115279455D01*
X116778935Y-115623846D01*
X116752500Y-115892246D01*
X116752501Y-118771487D01*
X116743660Y-118861248D01*
X112852000Y-118861248D01*
X112852000Y-107431248D01*
X116743660Y-107431248D01*
X116778936Y-107789402D01*
X116883405Y-108133793D01*
X117053055Y-108451185D01*
X117053056Y-108451186D01*
X117281366Y-108729383D01*
X117351084Y-108786599D01*
X118079543Y-109515058D01*
X119022107Y-110457623D01*
X119022107Y-111321113D01*
X119048542Y-111589513D01*
X119153012Y-111933904D01*
X119322662Y-112251296D01*
X119550972Y-112529494D01*
X119829169Y-112757804D01*
X120146561Y-112927454D01*
X120490952Y-113031924D01*
X120849107Y-113067199D01*
X121207261Y-113031924D01*
X121551652Y-112927454D01*
X121869044Y-112757804D01*
X122147242Y-112529494D01*
X122375552Y-112251297D01*
X122545202Y-111933905D01*
X122649672Y-111589514D01*
X122676107Y-111321114D01*
X122676107Y-109790607D01*
X122684947Y-109700855D01*
X122670130Y-109550414D01*
X122649672Y-109342700D01*
X122545202Y-108998309D01*
X122375552Y-108680917D01*
X122147242Y-108402720D01*
X122077524Y-108345504D01*
X120663310Y-106931291D01*
X120406500Y-106674481D01*
X120406500Y-105478115D01*
X120416188Y-105576482D01*
X120452498Y-105696180D01*
X120511463Y-105806494D01*
X120590815Y-105903185D01*
X120687506Y-105982537D01*
X120797820Y-106041502D01*
X120917518Y-106077812D01*
X121042000Y-106090072D01*
X121418750Y-106087000D01*
X121577500Y-105928250D01*
X121577500Y-104679000D01*
X121831500Y-104679000D01*
X121831500Y-105928250D01*
X121990250Y-106087000D01*
X122367000Y-106090072D01*
X122491482Y-106077812D01*
X122611180Y-106041502D01*
X122721494Y-105982537D01*
X122818185Y-105903185D01*
X122897537Y-105806494D01*
X122956502Y-105696180D01*
X122992812Y-105576482D01*
X123005072Y-105452000D01*
X123002000Y-104837750D01*
X122843250Y-104679000D01*
X121831500Y-104679000D01*
X121577500Y-104679000D01*
X120565750Y-104679000D01*
X120407000Y-104837750D01*
X120406500Y-104937726D01*
X120406500Y-104590500D01*
X129443660Y-104590500D01*
X129452500Y-104680252D01*
X129452501Y-107341487D01*
X129443660Y-107431248D01*
X129478936Y-107789402D01*
X129583405Y-108133793D01*
X129753055Y-108451185D01*
X129753056Y-108451186D01*
X129981366Y-108729383D01*
X130051084Y-108786599D01*
X130779543Y-109515058D01*
X131722107Y-110457623D01*
X131722107Y-111321113D01*
X131748542Y-111589513D01*
X131853012Y-111933904D01*
X132022662Y-112251296D01*
X132250972Y-112529494D01*
X132529169Y-112757804D01*
X132846561Y-112927454D01*
X133190952Y-113031924D01*
X133549107Y-113067199D01*
X133907261Y-113031924D01*
X134251652Y-112927454D01*
X134569044Y-112757804D01*
X134847242Y-112529494D01*
X135075552Y-112251297D01*
X135245202Y-111933905D01*
X135349672Y-111589514D01*
X135376107Y-111321114D01*
X135376107Y-109790607D01*
X135384947Y-109700855D01*
X135370130Y-109550414D01*
X135349672Y-109342700D01*
X135245202Y-108998309D01*
X135075552Y-108680917D01*
X134847242Y-108402720D01*
X134777524Y-108345504D01*
X133863268Y-107431248D01*
X142143660Y-107431248D01*
X142178936Y-107789402D01*
X142283405Y-108133793D01*
X142453055Y-108451185D01*
X142453056Y-108451186D01*
X142681366Y-108729383D01*
X142751084Y-108786599D01*
X143479543Y-109515058D01*
X144422107Y-110457623D01*
X144422107Y-111321113D01*
X144448542Y-111589513D01*
X144553012Y-111933904D01*
X144722662Y-112251296D01*
X144950972Y-112529494D01*
X145229169Y-112757804D01*
X145546561Y-112927454D01*
X145890952Y-113031924D01*
X146249107Y-113067199D01*
X146607261Y-113031924D01*
X146951652Y-112927454D01*
X147269044Y-112757804D01*
X147547242Y-112529494D01*
X147775552Y-112251297D01*
X147945202Y-111933905D01*
X148049672Y-111589514D01*
X148076107Y-111321114D01*
X148076107Y-109790607D01*
X148084947Y-109700855D01*
X148070130Y-109550414D01*
X148049672Y-109342700D01*
X147945202Y-108998309D01*
X147775552Y-108680917D01*
X147547242Y-108402720D01*
X147477524Y-108345504D01*
X146563268Y-107431248D01*
X154843660Y-107431248D01*
X154878936Y-107789402D01*
X154983405Y-108133793D01*
X155153055Y-108451185D01*
X155153056Y-108451186D01*
X155381366Y-108729383D01*
X155451084Y-108786599D01*
X156179543Y-109515058D01*
X157122107Y-110457623D01*
X157122107Y-111321113D01*
X157148542Y-111589513D01*
X157253012Y-111933904D01*
X157422662Y-112251296D01*
X157650972Y-112529494D01*
X157929169Y-112757804D01*
X158246561Y-112927454D01*
X158590952Y-113031924D01*
X158949107Y-113067199D01*
X159307261Y-113031924D01*
X159651652Y-112927454D01*
X159969044Y-112757804D01*
X160247242Y-112529494D01*
X160475552Y-112251297D01*
X160645202Y-111933905D01*
X160749672Y-111589514D01*
X160776107Y-111321114D01*
X160776107Y-109790607D01*
X160784947Y-109700855D01*
X160770130Y-109550414D01*
X160749672Y-109342700D01*
X160645202Y-108998309D01*
X160475552Y-108680917D01*
X160247242Y-108402720D01*
X160177524Y-108345504D01*
X158763310Y-106931291D01*
X158506500Y-106674481D01*
X158506500Y-105478115D01*
X158516188Y-105576482D01*
X158552498Y-105696180D01*
X158611463Y-105806494D01*
X158690815Y-105903185D01*
X158787506Y-105982537D01*
X158897820Y-106041502D01*
X159017518Y-106077812D01*
X159142000Y-106090072D01*
X159518750Y-106087000D01*
X159677500Y-105928250D01*
X159677500Y-104679000D01*
X159931500Y-104679000D01*
X159931500Y-105928250D01*
X160090250Y-106087000D01*
X160467000Y-106090072D01*
X160591482Y-106077812D01*
X160711180Y-106041502D01*
X160821494Y-105982537D01*
X160918185Y-105903185D01*
X160997537Y-105806494D01*
X161056502Y-105696180D01*
X161092812Y-105576482D01*
X161105072Y-105452000D01*
X161102000Y-104837750D01*
X160943250Y-104679000D01*
X159931500Y-104679000D01*
X159677500Y-104679000D01*
X158665750Y-104679000D01*
X158507000Y-104837750D01*
X158506500Y-104937726D01*
X158506500Y-104462245D01*
X158480065Y-104193845D01*
X158375595Y-103849454D01*
X158270054Y-103652000D01*
X158503928Y-103652000D01*
X158507000Y-104266250D01*
X158665750Y-104425000D01*
X159677500Y-104425000D01*
X159677500Y-103175750D01*
X159931500Y-103175750D01*
X159931500Y-104425000D01*
X160943250Y-104425000D01*
X161102000Y-104266250D01*
X161105072Y-103652000D01*
X161092812Y-103527518D01*
X161056502Y-103407820D01*
X160997537Y-103297506D01*
X160918185Y-103200815D01*
X160821494Y-103121463D01*
X160711180Y-103062498D01*
X160591482Y-103026188D01*
X160467000Y-103013928D01*
X160090250Y-103017000D01*
X159931500Y-103175750D01*
X159677500Y-103175750D01*
X159518750Y-103017000D01*
X159142000Y-103013928D01*
X159017518Y-103026188D01*
X158897820Y-103062498D01*
X158787506Y-103121463D01*
X158690815Y-103200815D01*
X158611463Y-103297506D01*
X158552498Y-103407820D01*
X158516188Y-103527518D01*
X158503928Y-103652000D01*
X158270054Y-103652000D01*
X158205945Y-103532062D01*
X157977635Y-103253865D01*
X157898466Y-103188893D01*
X157856384Y-103137616D01*
X157692573Y-103003180D01*
X157505682Y-102903285D01*
X157424764Y-102878739D01*
X157382045Y-102855905D01*
X157037654Y-102751435D01*
X156679500Y-102716160D01*
X156321345Y-102751435D01*
X155976954Y-102855905D01*
X155934234Y-102878739D01*
X155853318Y-102903285D01*
X155666427Y-103003180D01*
X155502616Y-103137616D01*
X155460535Y-103188892D01*
X155381365Y-103253865D01*
X155153055Y-103532063D01*
X154983405Y-103849455D01*
X154878935Y-104193846D01*
X154852500Y-104462246D01*
X154852501Y-107341487D01*
X154843660Y-107431248D01*
X146563268Y-107431248D01*
X146063310Y-106931291D01*
X145806500Y-106674481D01*
X145806500Y-105478115D01*
X145816188Y-105576482D01*
X145852498Y-105696180D01*
X145911463Y-105806494D01*
X145990815Y-105903185D01*
X146087506Y-105982537D01*
X146197820Y-106041502D01*
X146317518Y-106077812D01*
X146442000Y-106090072D01*
X146818750Y-106087000D01*
X146977500Y-105928250D01*
X146977500Y-104679000D01*
X147231500Y-104679000D01*
X147231500Y-105928250D01*
X147390250Y-106087000D01*
X147767000Y-106090072D01*
X147891482Y-106077812D01*
X148011180Y-106041502D01*
X148121494Y-105982537D01*
X148218185Y-105903185D01*
X148297537Y-105806494D01*
X148356502Y-105696180D01*
X148392812Y-105576482D01*
X148405072Y-105452000D01*
X148402000Y-104837750D01*
X148243250Y-104679000D01*
X147231500Y-104679000D01*
X146977500Y-104679000D01*
X145965750Y-104679000D01*
X145807000Y-104837750D01*
X145806500Y-104937726D01*
X145806500Y-104462245D01*
X145780065Y-104193845D01*
X145675595Y-103849454D01*
X145570054Y-103652000D01*
X145803928Y-103652000D01*
X145807000Y-104266250D01*
X145965750Y-104425000D01*
X146977500Y-104425000D01*
X146977500Y-103175750D01*
X147231500Y-103175750D01*
X147231500Y-104425000D01*
X148243250Y-104425000D01*
X148402000Y-104266250D01*
X148405072Y-103652000D01*
X148392812Y-103527518D01*
X148356502Y-103407820D01*
X148297537Y-103297506D01*
X148218185Y-103200815D01*
X148121494Y-103121463D01*
X148011180Y-103062498D01*
X147891482Y-103026188D01*
X147767000Y-103013928D01*
X147390250Y-103017000D01*
X147231500Y-103175750D01*
X146977500Y-103175750D01*
X146818750Y-103017000D01*
X146442000Y-103013928D01*
X146317518Y-103026188D01*
X146197820Y-103062498D01*
X146087506Y-103121463D01*
X145990815Y-103200815D01*
X145911463Y-103297506D01*
X145852498Y-103407820D01*
X145816188Y-103527518D01*
X145803928Y-103652000D01*
X145570054Y-103652000D01*
X145505945Y-103532062D01*
X145277635Y-103253865D01*
X145198466Y-103188893D01*
X145156384Y-103137616D01*
X144992573Y-103003180D01*
X144805682Y-102903285D01*
X144724764Y-102878739D01*
X144682045Y-102855905D01*
X144337654Y-102751435D01*
X143979500Y-102716160D01*
X143621345Y-102751435D01*
X143276954Y-102855905D01*
X143234234Y-102878739D01*
X143153318Y-102903285D01*
X142966427Y-103003180D01*
X142802616Y-103137616D01*
X142760535Y-103188892D01*
X142681365Y-103253865D01*
X142453055Y-103532063D01*
X142283405Y-103849455D01*
X142178935Y-104193846D01*
X142152500Y-104462246D01*
X142152501Y-107341487D01*
X142143660Y-107431248D01*
X133863268Y-107431248D01*
X133363310Y-106931291D01*
X133106500Y-106674481D01*
X133106500Y-105478115D01*
X133116188Y-105576482D01*
X133152498Y-105696180D01*
X133211463Y-105806494D01*
X133290815Y-105903185D01*
X133387506Y-105982537D01*
X133497820Y-106041502D01*
X133617518Y-106077812D01*
X133742000Y-106090072D01*
X134118750Y-106087000D01*
X134277500Y-105928250D01*
X134277500Y-104679000D01*
X134531500Y-104679000D01*
X134531500Y-105928250D01*
X134690250Y-106087000D01*
X135067000Y-106090072D01*
X135191482Y-106077812D01*
X135311180Y-106041502D01*
X135421494Y-105982537D01*
X135518185Y-105903185D01*
X135597537Y-105806494D01*
X135656502Y-105696180D01*
X135692812Y-105576482D01*
X135705072Y-105452000D01*
X135702000Y-104837750D01*
X135543250Y-104679000D01*
X134531500Y-104679000D01*
X134277500Y-104679000D01*
X134257500Y-104679000D01*
X134257500Y-104425000D01*
X134277500Y-104425000D01*
X134277500Y-103175750D01*
X134531500Y-103175750D01*
X134531500Y-104425000D01*
X135543250Y-104425000D01*
X135702000Y-104266250D01*
X135705072Y-103652000D01*
X135692812Y-103527518D01*
X135656502Y-103407820D01*
X135597537Y-103297506D01*
X135518185Y-103200815D01*
X135421494Y-103121463D01*
X135311180Y-103062498D01*
X135191482Y-103026188D01*
X135067000Y-103013928D01*
X134690250Y-103017000D01*
X134531500Y-103175750D01*
X134277500Y-103175750D01*
X134118750Y-103017000D01*
X133742000Y-103013928D01*
X133617518Y-103026188D01*
X133497820Y-103062498D01*
X133387506Y-103121463D01*
X133290815Y-103200815D01*
X133211463Y-103297506D01*
X133152498Y-103407820D01*
X133116188Y-103527518D01*
X133103928Y-103652000D01*
X133106438Y-104153872D01*
X133014095Y-103849455D01*
X132844445Y-103532063D01*
X132616134Y-103253866D01*
X132337937Y-103025555D01*
X132020545Y-102855905D01*
X131676154Y-102751436D01*
X131317999Y-102716161D01*
X130959846Y-102751436D01*
X130664911Y-102840903D01*
X130656106Y-102841770D01*
X130453318Y-102903285D01*
X130266427Y-103003180D01*
X130102616Y-103137616D01*
X129968180Y-103301427D01*
X129957444Y-103321513D01*
X129753055Y-103570563D01*
X129583405Y-103887955D01*
X129478935Y-104232346D01*
X129456292Y-104462245D01*
X129443660Y-104590500D01*
X120406500Y-104590500D01*
X120406500Y-104462245D01*
X120380065Y-104193845D01*
X120275595Y-103849454D01*
X120170054Y-103652000D01*
X120403928Y-103652000D01*
X120407000Y-104266250D01*
X120565750Y-104425000D01*
X121577500Y-104425000D01*
X121577500Y-103175750D01*
X121831500Y-103175750D01*
X121831500Y-104425000D01*
X122843250Y-104425000D01*
X123002000Y-104266250D01*
X123005072Y-103652000D01*
X122992812Y-103527518D01*
X122956502Y-103407820D01*
X122897537Y-103297506D01*
X122818185Y-103200815D01*
X122721494Y-103121463D01*
X122611180Y-103062498D01*
X122491482Y-103026188D01*
X122367000Y-103013928D01*
X121990250Y-103017000D01*
X121831500Y-103175750D01*
X121577500Y-103175750D01*
X121418750Y-103017000D01*
X121042000Y-103013928D01*
X120917518Y-103026188D01*
X120797820Y-103062498D01*
X120687506Y-103121463D01*
X120590815Y-103200815D01*
X120511463Y-103297506D01*
X120452498Y-103407820D01*
X120416188Y-103527518D01*
X120403928Y-103652000D01*
X120170054Y-103652000D01*
X120105945Y-103532062D01*
X119877635Y-103253865D01*
X119798466Y-103188893D01*
X119756384Y-103137616D01*
X119592573Y-103003180D01*
X119405682Y-102903285D01*
X119324764Y-102878739D01*
X119282045Y-102855905D01*
X118937654Y-102751435D01*
X118579500Y-102716160D01*
X118221345Y-102751435D01*
X117876954Y-102855905D01*
X117834234Y-102878739D01*
X117753318Y-102903285D01*
X117566427Y-103003180D01*
X117402616Y-103137616D01*
X117360535Y-103188892D01*
X117281365Y-103253865D01*
X117053055Y-103532063D01*
X116883405Y-103849455D01*
X116778935Y-104193846D01*
X116752500Y-104462246D01*
X116752501Y-107341487D01*
X116743660Y-107431248D01*
X112852000Y-107431248D01*
X112852000Y-92906500D01*
X116743660Y-92906500D01*
X116752500Y-92996252D01*
X116752501Y-95911487D01*
X116743660Y-96001248D01*
X116754711Y-96113443D01*
X116778936Y-96359403D01*
X116785810Y-96382063D01*
X116883405Y-96703793D01*
X117053055Y-97021185D01*
X117053056Y-97021186D01*
X117281366Y-97299383D01*
X117351084Y-97356599D01*
X118079543Y-98085058D01*
X119022107Y-99027623D01*
X119022107Y-99891113D01*
X119048542Y-100159513D01*
X119153012Y-100503904D01*
X119322662Y-100821296D01*
X119550972Y-101099494D01*
X119829169Y-101327804D01*
X120146561Y-101497454D01*
X120490952Y-101601924D01*
X120849107Y-101637199D01*
X121207261Y-101601924D01*
X121551652Y-101497454D01*
X121869044Y-101327804D01*
X122147242Y-101099494D01*
X122375552Y-100821297D01*
X122545202Y-100503905D01*
X122649672Y-100159514D01*
X122676107Y-99891114D01*
X122676107Y-98360607D01*
X122684947Y-98270855D01*
X122670130Y-98120414D01*
X122649672Y-97912700D01*
X122545202Y-97568309D01*
X122375552Y-97250917D01*
X122147242Y-96972720D01*
X122077524Y-96915504D01*
X121163268Y-96001248D01*
X129443660Y-96001248D01*
X129454711Y-96113443D01*
X129478936Y-96359403D01*
X129485810Y-96382063D01*
X129583405Y-96703793D01*
X129753055Y-97021185D01*
X129753056Y-97021186D01*
X129981366Y-97299383D01*
X130051084Y-97356599D01*
X130779543Y-98085058D01*
X131722107Y-99027623D01*
X131722107Y-99891113D01*
X131748542Y-100159513D01*
X131853012Y-100503904D01*
X132022662Y-100821296D01*
X132250972Y-101099494D01*
X132529169Y-101327804D01*
X132846561Y-101497454D01*
X133190952Y-101601924D01*
X133549107Y-101637199D01*
X133907261Y-101601924D01*
X134251652Y-101497454D01*
X134569044Y-101327804D01*
X134847242Y-101099494D01*
X135075552Y-100821297D01*
X135245202Y-100503905D01*
X135349672Y-100159514D01*
X135376107Y-99891114D01*
X135376107Y-98360607D01*
X135384947Y-98270855D01*
X135370130Y-98120414D01*
X135349672Y-97912700D01*
X135245202Y-97568309D01*
X135075552Y-97250917D01*
X134847242Y-96972720D01*
X134777524Y-96915504D01*
X133363310Y-95501291D01*
X133106500Y-95244481D01*
X133106500Y-93794115D01*
X133116188Y-93892482D01*
X133152498Y-94012180D01*
X133211463Y-94122494D01*
X133290815Y-94219185D01*
X133387506Y-94298537D01*
X133497820Y-94357502D01*
X133617518Y-94393812D01*
X133742000Y-94406072D01*
X134118750Y-94403000D01*
X134277500Y-94244250D01*
X134277500Y-92995000D01*
X134531500Y-92995000D01*
X134531500Y-94244250D01*
X134690250Y-94403000D01*
X135067000Y-94406072D01*
X135191482Y-94393812D01*
X135311180Y-94357502D01*
X135421494Y-94298537D01*
X135518185Y-94219185D01*
X135597537Y-94122494D01*
X135656502Y-94012180D01*
X135692812Y-93892482D01*
X135705072Y-93768000D01*
X135702000Y-93153750D01*
X135543250Y-92995000D01*
X134531500Y-92995000D01*
X134277500Y-92995000D01*
X133265750Y-92995000D01*
X133107000Y-93153750D01*
X133106500Y-93253726D01*
X133106500Y-92906500D01*
X142143660Y-92906500D01*
X142152500Y-92996252D01*
X142152501Y-95911487D01*
X142143660Y-96001248D01*
X142154711Y-96113443D01*
X142178936Y-96359403D01*
X142185810Y-96382063D01*
X142283405Y-96703793D01*
X142453055Y-97021185D01*
X142453056Y-97021186D01*
X142681366Y-97299383D01*
X142751084Y-97356599D01*
X143479543Y-98085058D01*
X144422107Y-99027623D01*
X144422107Y-99891113D01*
X144448542Y-100159513D01*
X144553012Y-100503904D01*
X144722662Y-100821296D01*
X144950972Y-101099494D01*
X145229169Y-101327804D01*
X145546561Y-101497454D01*
X145890952Y-101601924D01*
X146249107Y-101637199D01*
X146607261Y-101601924D01*
X146951652Y-101497454D01*
X147269044Y-101327804D01*
X147547242Y-101099494D01*
X147775552Y-100821297D01*
X147945202Y-100503905D01*
X148049672Y-100159514D01*
X148076107Y-99891114D01*
X148076107Y-98360607D01*
X148084947Y-98270855D01*
X148070130Y-98120414D01*
X148049672Y-97912700D01*
X147945202Y-97568309D01*
X147775552Y-97250917D01*
X147547242Y-96972720D01*
X147477524Y-96915504D01*
X146563268Y-96001248D01*
X154843660Y-96001248D01*
X154860200Y-96169175D01*
X154874671Y-96337253D01*
X154877826Y-96348133D01*
X154878936Y-96359402D01*
X154927914Y-96520861D01*
X154974902Y-96682901D01*
X154980116Y-96692951D01*
X154983405Y-96703793D01*
X155062950Y-96852611D01*
X155140639Y-97002354D01*
X155147716Y-97011197D01*
X155153055Y-97021185D01*
X155260082Y-97151598D01*
X155365514Y-97283335D01*
X155443130Y-97348645D01*
X156179543Y-98085058D01*
X157122107Y-99027623D01*
X157122107Y-99891113D01*
X157148542Y-100159513D01*
X157253012Y-100503904D01*
X157422662Y-100821296D01*
X157650972Y-101099494D01*
X157929169Y-101327804D01*
X158246561Y-101497454D01*
X158590952Y-101601924D01*
X158949107Y-101637199D01*
X159307261Y-101601924D01*
X159651652Y-101497454D01*
X159969044Y-101327804D01*
X160247242Y-101099494D01*
X160475552Y-100821297D01*
X160645202Y-100503905D01*
X160749672Y-100159514D01*
X160776107Y-99891114D01*
X160776107Y-98360607D01*
X160784947Y-98270855D01*
X160770130Y-98120414D01*
X160749672Y-97912700D01*
X160645202Y-97568309D01*
X160475552Y-97250917D01*
X160247242Y-96972720D01*
X160177524Y-96915504D01*
X158763310Y-95501291D01*
X158515822Y-95253803D01*
X158531912Y-93944317D01*
X158552498Y-94012180D01*
X158611463Y-94122494D01*
X158690815Y-94219185D01*
X158787506Y-94298537D01*
X158897820Y-94357502D01*
X159017518Y-94393812D01*
X159142000Y-94406072D01*
X159518750Y-94403000D01*
X159677500Y-94244250D01*
X159677500Y-92995000D01*
X159931500Y-92995000D01*
X159931500Y-94244250D01*
X160090250Y-94403000D01*
X160467000Y-94406072D01*
X160591482Y-94393812D01*
X160711180Y-94357502D01*
X160821494Y-94298537D01*
X160918185Y-94219185D01*
X160997537Y-94122494D01*
X161056502Y-94012180D01*
X161092812Y-93892482D01*
X161105072Y-93768000D01*
X161102000Y-93153750D01*
X160943250Y-92995000D01*
X159931500Y-92995000D01*
X159677500Y-92995000D01*
X159657500Y-92995000D01*
X159657500Y-92741000D01*
X159677500Y-92741000D01*
X159677500Y-91491750D01*
X159931500Y-91491750D01*
X159931500Y-92741000D01*
X160943250Y-92741000D01*
X161102000Y-92582250D01*
X161105072Y-91968000D01*
X161092812Y-91843518D01*
X161056502Y-91723820D01*
X160997537Y-91613506D01*
X160918185Y-91516815D01*
X160821494Y-91437463D01*
X160711180Y-91378498D01*
X160591482Y-91342188D01*
X160467000Y-91329928D01*
X160090250Y-91333000D01*
X159931500Y-91491750D01*
X159677500Y-91491750D01*
X159518750Y-91333000D01*
X159142000Y-91329928D01*
X159017518Y-91342188D01*
X158897820Y-91378498D01*
X158787506Y-91437463D01*
X158690815Y-91516815D01*
X158611463Y-91613506D01*
X158552498Y-91723820D01*
X158516188Y-91843518D01*
X158503928Y-91968000D01*
X158506466Y-92475568D01*
X158422598Y-92186346D01*
X158256861Y-91866894D01*
X158031986Y-91585913D01*
X157756615Y-91354202D01*
X157441332Y-91180665D01*
X157098250Y-91071971D01*
X156740556Y-91032299D01*
X156381995Y-91063170D01*
X156036347Y-91163401D01*
X156034663Y-91164275D01*
X155853318Y-91219285D01*
X155666427Y-91319180D01*
X155502616Y-91453616D01*
X155368180Y-91617427D01*
X155343150Y-91664255D01*
X155204202Y-91829384D01*
X155030665Y-92144668D01*
X154921972Y-92487749D01*
X154892241Y-92755804D01*
X154853603Y-95900293D01*
X154843660Y-96001248D01*
X146563268Y-96001248D01*
X146063310Y-95501291D01*
X145806500Y-95244481D01*
X145806500Y-93794115D01*
X145816188Y-93892482D01*
X145852498Y-94012180D01*
X145911463Y-94122494D01*
X145990815Y-94219185D01*
X146087506Y-94298537D01*
X146197820Y-94357502D01*
X146317518Y-94393812D01*
X146442000Y-94406072D01*
X146818750Y-94403000D01*
X146977500Y-94244250D01*
X146977500Y-92995000D01*
X147231500Y-92995000D01*
X147231500Y-94244250D01*
X147390250Y-94403000D01*
X147767000Y-94406072D01*
X147891482Y-94393812D01*
X148011180Y-94357502D01*
X148121494Y-94298537D01*
X148218185Y-94219185D01*
X148297537Y-94122494D01*
X148356502Y-94012180D01*
X148392812Y-93892482D01*
X148405072Y-93768000D01*
X148402000Y-93153750D01*
X148243250Y-92995000D01*
X147231500Y-92995000D01*
X146977500Y-92995000D01*
X146957500Y-92995000D01*
X146957500Y-92741000D01*
X146977500Y-92741000D01*
X146977500Y-91491750D01*
X147231500Y-91491750D01*
X147231500Y-92741000D01*
X148243250Y-92741000D01*
X148402000Y-92582250D01*
X148405072Y-91968000D01*
X148392812Y-91843518D01*
X148356502Y-91723820D01*
X148297537Y-91613506D01*
X148218185Y-91516815D01*
X148121494Y-91437463D01*
X148011180Y-91378498D01*
X147891482Y-91342188D01*
X147767000Y-91329928D01*
X147390250Y-91333000D01*
X147231500Y-91491750D01*
X146977500Y-91491750D01*
X146818750Y-91333000D01*
X146442000Y-91329928D01*
X146317518Y-91342188D01*
X146197820Y-91378498D01*
X146087506Y-91437463D01*
X145990815Y-91516815D01*
X145911463Y-91613506D01*
X145852498Y-91723820D01*
X145816188Y-91843518D01*
X145803928Y-91968000D01*
X145806438Y-92469872D01*
X145714095Y-92165455D01*
X145544445Y-91848063D01*
X145316134Y-91569866D01*
X145037937Y-91341555D01*
X144720545Y-91171905D01*
X144376154Y-91067436D01*
X144017999Y-91032161D01*
X143659846Y-91067436D01*
X143364911Y-91156903D01*
X143356106Y-91157770D01*
X143153318Y-91219285D01*
X142966427Y-91319180D01*
X142802616Y-91453616D01*
X142668180Y-91617427D01*
X142657444Y-91637513D01*
X142453055Y-91886563D01*
X142283405Y-92203955D01*
X142178935Y-92548346D01*
X142152500Y-92816745D01*
X142143660Y-92906500D01*
X133106500Y-92906500D01*
X133106500Y-92778245D01*
X133080065Y-92509845D01*
X132975595Y-92165454D01*
X132870054Y-91968000D01*
X133103928Y-91968000D01*
X133107000Y-92582250D01*
X133265750Y-92741000D01*
X134277500Y-92741000D01*
X134277500Y-91491750D01*
X134531500Y-91491750D01*
X134531500Y-92741000D01*
X135543250Y-92741000D01*
X135702000Y-92582250D01*
X135705072Y-91968000D01*
X135692812Y-91843518D01*
X135656502Y-91723820D01*
X135597537Y-91613506D01*
X135518185Y-91516815D01*
X135421494Y-91437463D01*
X135311180Y-91378498D01*
X135191482Y-91342188D01*
X135067000Y-91329928D01*
X134690250Y-91333000D01*
X134531500Y-91491750D01*
X134277500Y-91491750D01*
X134118750Y-91333000D01*
X133742000Y-91329928D01*
X133617518Y-91342188D01*
X133497820Y-91378498D01*
X133387506Y-91437463D01*
X133290815Y-91516815D01*
X133211463Y-91613506D01*
X133152498Y-91723820D01*
X133116188Y-91843518D01*
X133103928Y-91968000D01*
X132870054Y-91968000D01*
X132805945Y-91848062D01*
X132577635Y-91569865D01*
X132498466Y-91504893D01*
X132456384Y-91453616D01*
X132292573Y-91319180D01*
X132105682Y-91219285D01*
X132024764Y-91194739D01*
X131982045Y-91171905D01*
X131637654Y-91067435D01*
X131279500Y-91032160D01*
X130921345Y-91067435D01*
X130576954Y-91171905D01*
X130534234Y-91194739D01*
X130453318Y-91219285D01*
X130266427Y-91319180D01*
X130102616Y-91453616D01*
X130060535Y-91504892D01*
X129981365Y-91569865D01*
X129753055Y-91848063D01*
X129583405Y-92165455D01*
X129478935Y-92509846D01*
X129452500Y-92778246D01*
X129452501Y-95911487D01*
X129443660Y-96001248D01*
X121163268Y-96001248D01*
X120663310Y-95501291D01*
X120406500Y-95244481D01*
X120406500Y-93794115D01*
X120416188Y-93892482D01*
X120452498Y-94012180D01*
X120511463Y-94122494D01*
X120590815Y-94219185D01*
X120687506Y-94298537D01*
X120797820Y-94357502D01*
X120917518Y-94393812D01*
X121042000Y-94406072D01*
X121418750Y-94403000D01*
X121577500Y-94244250D01*
X121577500Y-92995000D01*
X121831500Y-92995000D01*
X121831500Y-94244250D01*
X121990250Y-94403000D01*
X122367000Y-94406072D01*
X122491482Y-94393812D01*
X122611180Y-94357502D01*
X122721494Y-94298537D01*
X122818185Y-94219185D01*
X122897537Y-94122494D01*
X122956502Y-94012180D01*
X122992812Y-93892482D01*
X123005072Y-93768000D01*
X123002000Y-93153750D01*
X122843250Y-92995000D01*
X121831500Y-92995000D01*
X121577500Y-92995000D01*
X121557500Y-92995000D01*
X121557500Y-92741000D01*
X121577500Y-92741000D01*
X121577500Y-91491750D01*
X121831500Y-91491750D01*
X121831500Y-92741000D01*
X122843250Y-92741000D01*
X123002000Y-92582250D01*
X123005072Y-91968000D01*
X122992812Y-91843518D01*
X122956502Y-91723820D01*
X122897537Y-91613506D01*
X122818185Y-91516815D01*
X122721494Y-91437463D01*
X122611180Y-91378498D01*
X122491482Y-91342188D01*
X122367000Y-91329928D01*
X121990250Y-91333000D01*
X121831500Y-91491750D01*
X121577500Y-91491750D01*
X121418750Y-91333000D01*
X121042000Y-91329928D01*
X120917518Y-91342188D01*
X120797820Y-91378498D01*
X120687506Y-91437463D01*
X120590815Y-91516815D01*
X120511463Y-91613506D01*
X120452498Y-91723820D01*
X120416188Y-91843518D01*
X120403928Y-91968000D01*
X120406438Y-92469872D01*
X120314095Y-92165455D01*
X120144445Y-91848063D01*
X119916134Y-91569866D01*
X119637937Y-91341555D01*
X119320545Y-91171905D01*
X118976154Y-91067436D01*
X118617999Y-91032161D01*
X118259846Y-91067436D01*
X117964911Y-91156903D01*
X117956106Y-91157770D01*
X117753318Y-91219285D01*
X117566427Y-91319180D01*
X117402616Y-91453616D01*
X117268180Y-91617427D01*
X117257444Y-91637513D01*
X117053055Y-91886563D01*
X116883405Y-92203955D01*
X116778935Y-92548346D01*
X116752500Y-92816745D01*
X116743660Y-92906500D01*
X112852000Y-92906500D01*
X112852000Y-81438000D01*
X114496160Y-81438000D01*
X114531436Y-81796154D01*
X114635905Y-82140545D01*
X114805555Y-82457937D01*
X114976650Y-82666417D01*
X116752500Y-84442268D01*
X116752500Y-86012000D01*
X116743660Y-86101752D01*
X116752500Y-86191504D01*
X116752500Y-86191507D01*
X116755011Y-86217001D01*
X116778936Y-86459906D01*
X116883405Y-86804297D01*
X117045517Y-87107586D01*
X117053056Y-87121690D01*
X117281366Y-87399887D01*
X117351084Y-87457103D01*
X119620689Y-89726709D01*
X119829169Y-89897804D01*
X120146561Y-90067454D01*
X120490952Y-90171923D01*
X120849106Y-90207199D01*
X121207261Y-90171923D01*
X121551652Y-90067454D01*
X121869044Y-89897804D01*
X122147241Y-89669493D01*
X122375552Y-89391296D01*
X122545202Y-89073904D01*
X122649671Y-88729513D01*
X122684947Y-88371358D01*
X122649671Y-88013204D01*
X122545202Y-87668813D01*
X122375552Y-87351421D01*
X122204457Y-87142941D01*
X121085235Y-86023719D01*
X121418750Y-86021000D01*
X121577500Y-85862250D01*
X121577500Y-84613000D01*
X121831500Y-84613000D01*
X121831500Y-85862250D01*
X121990250Y-86021000D01*
X122367000Y-86024072D01*
X122491482Y-86011812D01*
X122611180Y-85975502D01*
X122721494Y-85916537D01*
X122818185Y-85837185D01*
X122897537Y-85740494D01*
X122956502Y-85630180D01*
X122992812Y-85510482D01*
X123005072Y-85386000D01*
X123002000Y-84771750D01*
X122843250Y-84613000D01*
X121831500Y-84613000D01*
X121577500Y-84613000D01*
X120565750Y-84613000D01*
X120407000Y-84771750D01*
X120406500Y-84871726D01*
X120406500Y-84100274D01*
X120407000Y-84200250D01*
X120565750Y-84359000D01*
X121577500Y-84359000D01*
X121577500Y-83109750D01*
X121831500Y-83109750D01*
X121831500Y-84359000D01*
X122843250Y-84359000D01*
X123002000Y-84200250D01*
X123005072Y-83586000D01*
X122992812Y-83461518D01*
X122956502Y-83341820D01*
X122897537Y-83231506D01*
X122818185Y-83134815D01*
X122721494Y-83055463D01*
X122611180Y-82996498D01*
X122491482Y-82960188D01*
X122367000Y-82947928D01*
X121990250Y-82951000D01*
X121831500Y-83109750D01*
X121577500Y-83109750D01*
X121418750Y-82951000D01*
X121042000Y-82947928D01*
X120917518Y-82960188D01*
X120797820Y-82996498D01*
X120687506Y-83055463D01*
X120590815Y-83134815D01*
X120511463Y-83231506D01*
X120452498Y-83341820D01*
X120416188Y-83461518D01*
X120404734Y-83577817D01*
X120393727Y-83466062D01*
X120380065Y-83327345D01*
X120275595Y-82982954D01*
X120105945Y-82665562D01*
X119877635Y-82387365D01*
X119807917Y-82330149D01*
X118759265Y-81281497D01*
X122363000Y-81281497D01*
X122363000Y-81594503D01*
X122424065Y-81901494D01*
X122543847Y-82190674D01*
X122717743Y-82450928D01*
X122939072Y-82672257D01*
X123199326Y-82846153D01*
X123488506Y-82965935D01*
X123795497Y-83027000D01*
X124108503Y-83027000D01*
X124415494Y-82965935D01*
X124704674Y-82846153D01*
X124964928Y-82672257D01*
X125186257Y-82450928D01*
X125360153Y-82190674D01*
X125479935Y-81901494D01*
X125541000Y-81594503D01*
X125541000Y-81438000D01*
X127196160Y-81438000D01*
X127231436Y-81796154D01*
X127335905Y-82140545D01*
X127505555Y-82457937D01*
X127676650Y-82666417D01*
X129452500Y-84442268D01*
X129452500Y-86012000D01*
X129443660Y-86101752D01*
X129452500Y-86191504D01*
X129452500Y-86191507D01*
X129455011Y-86217001D01*
X129478936Y-86459906D01*
X129583405Y-86804297D01*
X129745517Y-87107586D01*
X129753056Y-87121690D01*
X129981366Y-87399887D01*
X130051084Y-87457103D01*
X132320689Y-89726709D01*
X132529169Y-89897804D01*
X132846561Y-90067454D01*
X133190952Y-90171923D01*
X133549106Y-90207199D01*
X133907261Y-90171923D01*
X134251652Y-90067454D01*
X134569044Y-89897804D01*
X134847241Y-89669493D01*
X135075552Y-89391296D01*
X135245202Y-89073904D01*
X135349671Y-88729513D01*
X135384947Y-88371358D01*
X135349671Y-88013204D01*
X135245202Y-87668813D01*
X135075552Y-87351421D01*
X134904457Y-87142941D01*
X133785235Y-86023719D01*
X134118750Y-86021000D01*
X134277500Y-85862250D01*
X134277500Y-84613000D01*
X134531500Y-84613000D01*
X134531500Y-85862250D01*
X134690250Y-86021000D01*
X135067000Y-86024072D01*
X135191482Y-86011812D01*
X135311180Y-85975502D01*
X135421494Y-85916537D01*
X135518185Y-85837185D01*
X135597537Y-85740494D01*
X135656502Y-85630180D01*
X135692812Y-85510482D01*
X135705072Y-85386000D01*
X135702000Y-84771750D01*
X135543250Y-84613000D01*
X134531500Y-84613000D01*
X134277500Y-84613000D01*
X133265750Y-84613000D01*
X133107000Y-84771750D01*
X133106500Y-84871726D01*
X133106500Y-84100274D01*
X133107000Y-84200250D01*
X133265750Y-84359000D01*
X134277500Y-84359000D01*
X134277500Y-83109750D01*
X134531500Y-83109750D01*
X134531500Y-84359000D01*
X135543250Y-84359000D01*
X135702000Y-84200250D01*
X135705072Y-83586000D01*
X135692812Y-83461518D01*
X135656502Y-83341820D01*
X135597537Y-83231506D01*
X135518185Y-83134815D01*
X135421494Y-83055463D01*
X135311180Y-82996498D01*
X135191482Y-82960188D01*
X135067000Y-82947928D01*
X134690250Y-82951000D01*
X134531500Y-83109750D01*
X134277500Y-83109750D01*
X134118750Y-82951000D01*
X133742000Y-82947928D01*
X133617518Y-82960188D01*
X133497820Y-82996498D01*
X133387506Y-83055463D01*
X133290815Y-83134815D01*
X133211463Y-83231506D01*
X133152498Y-83341820D01*
X133116188Y-83461518D01*
X133104734Y-83577817D01*
X133093727Y-83466062D01*
X133080065Y-83327345D01*
X132975595Y-82982954D01*
X132805945Y-82665562D01*
X132577635Y-82387365D01*
X132507917Y-82330149D01*
X131459265Y-81281497D01*
X135063000Y-81281497D01*
X135063000Y-81594503D01*
X135124065Y-81901494D01*
X135243847Y-82190674D01*
X135417743Y-82450928D01*
X135639072Y-82672257D01*
X135899326Y-82846153D01*
X136188506Y-82965935D01*
X136495497Y-83027000D01*
X136808503Y-83027000D01*
X137115494Y-82965935D01*
X137404674Y-82846153D01*
X137664928Y-82672257D01*
X137886257Y-82450928D01*
X138060153Y-82190674D01*
X138179935Y-81901494D01*
X138241000Y-81594503D01*
X138241000Y-81438000D01*
X139896160Y-81438000D01*
X139931436Y-81796154D01*
X140035905Y-82140545D01*
X140205555Y-82457937D01*
X140376650Y-82666417D01*
X142152500Y-84442268D01*
X142152500Y-86012000D01*
X142143660Y-86101752D01*
X142152500Y-86191504D01*
X142152500Y-86191507D01*
X142155011Y-86217001D01*
X142178936Y-86459906D01*
X142283405Y-86804297D01*
X142445517Y-87107586D01*
X142453056Y-87121690D01*
X142681366Y-87399887D01*
X142751084Y-87457103D01*
X145020689Y-89726709D01*
X145229169Y-89897804D01*
X145546561Y-90067454D01*
X145890952Y-90171923D01*
X146249106Y-90207199D01*
X146607261Y-90171923D01*
X146951652Y-90067454D01*
X147269044Y-89897804D01*
X147547241Y-89669493D01*
X147775552Y-89391296D01*
X147945202Y-89073904D01*
X148049671Y-88729513D01*
X148084947Y-88371358D01*
X148049671Y-88013204D01*
X147945202Y-87668813D01*
X147775552Y-87351421D01*
X147604457Y-87142941D01*
X146485235Y-86023719D01*
X146818750Y-86021000D01*
X146977500Y-85862250D01*
X146977500Y-84613000D01*
X147231500Y-84613000D01*
X147231500Y-85862250D01*
X147390250Y-86021000D01*
X147767000Y-86024072D01*
X147891482Y-86011812D01*
X148011180Y-85975502D01*
X148121494Y-85916537D01*
X148218185Y-85837185D01*
X148297537Y-85740494D01*
X148356502Y-85630180D01*
X148392812Y-85510482D01*
X148405072Y-85386000D01*
X148402000Y-84771750D01*
X148243250Y-84613000D01*
X147231500Y-84613000D01*
X146977500Y-84613000D01*
X145965750Y-84613000D01*
X145807000Y-84771750D01*
X145806500Y-84871726D01*
X145806500Y-84100274D01*
X145807000Y-84200250D01*
X145965750Y-84359000D01*
X146977500Y-84359000D01*
X146977500Y-83109750D01*
X147231500Y-83109750D01*
X147231500Y-84359000D01*
X148243250Y-84359000D01*
X148402000Y-84200250D01*
X148405072Y-83586000D01*
X148392812Y-83461518D01*
X148356502Y-83341820D01*
X148297537Y-83231506D01*
X148218185Y-83134815D01*
X148121494Y-83055463D01*
X148011180Y-82996498D01*
X147891482Y-82960188D01*
X147767000Y-82947928D01*
X147390250Y-82951000D01*
X147231500Y-83109750D01*
X146977500Y-83109750D01*
X146818750Y-82951000D01*
X146442000Y-82947928D01*
X146317518Y-82960188D01*
X146197820Y-82996498D01*
X146087506Y-83055463D01*
X145990815Y-83134815D01*
X145911463Y-83231506D01*
X145852498Y-83341820D01*
X145816188Y-83461518D01*
X145804734Y-83577817D01*
X145793727Y-83466062D01*
X145780065Y-83327345D01*
X145675595Y-82982954D01*
X145505945Y-82665562D01*
X145277635Y-82387365D01*
X145207917Y-82330149D01*
X144159265Y-81281497D01*
X147763000Y-81281497D01*
X147763000Y-81594503D01*
X147824065Y-81901494D01*
X147943847Y-82190674D01*
X148117743Y-82450928D01*
X148339072Y-82672257D01*
X148599326Y-82846153D01*
X148888506Y-82965935D01*
X149195497Y-83027000D01*
X149508503Y-83027000D01*
X149815494Y-82965935D01*
X150104674Y-82846153D01*
X150364928Y-82672257D01*
X150586257Y-82450928D01*
X150760153Y-82190674D01*
X150879935Y-81901494D01*
X150941000Y-81594503D01*
X150941000Y-81438000D01*
X152596160Y-81438000D01*
X152631436Y-81796154D01*
X152735905Y-82140545D01*
X152905555Y-82457937D01*
X153076650Y-82666417D01*
X154852500Y-84442268D01*
X154852500Y-86012000D01*
X154843660Y-86101752D01*
X154852500Y-86191504D01*
X154852500Y-86191507D01*
X154855011Y-86217001D01*
X154878936Y-86459906D01*
X154983405Y-86804297D01*
X155145517Y-87107586D01*
X155153056Y-87121690D01*
X155381366Y-87399887D01*
X155451084Y-87457103D01*
X157720689Y-89726709D01*
X157929169Y-89897804D01*
X158246561Y-90067454D01*
X158590952Y-90171923D01*
X158949106Y-90207199D01*
X159307261Y-90171923D01*
X159651652Y-90067454D01*
X159969044Y-89897804D01*
X160247241Y-89669493D01*
X160475552Y-89391296D01*
X160645202Y-89073904D01*
X160749671Y-88729513D01*
X160784947Y-88371358D01*
X160749671Y-88013204D01*
X160645202Y-87668813D01*
X160475552Y-87351421D01*
X160304457Y-87142941D01*
X159185235Y-86023719D01*
X159518750Y-86021000D01*
X159677500Y-85862250D01*
X159677500Y-84613000D01*
X159931500Y-84613000D01*
X159931500Y-85862250D01*
X160090250Y-86021000D01*
X160467000Y-86024072D01*
X160591482Y-86011812D01*
X160711180Y-85975502D01*
X160821494Y-85916537D01*
X160918185Y-85837185D01*
X160997537Y-85740494D01*
X161056502Y-85630180D01*
X161092812Y-85510482D01*
X161105072Y-85386000D01*
X161102000Y-84771750D01*
X160943250Y-84613000D01*
X159931500Y-84613000D01*
X159677500Y-84613000D01*
X158665750Y-84613000D01*
X158507000Y-84771750D01*
X158506500Y-84871726D01*
X158506500Y-84100274D01*
X158507000Y-84200250D01*
X158665750Y-84359000D01*
X159677500Y-84359000D01*
X159677500Y-83109750D01*
X159931500Y-83109750D01*
X159931500Y-84359000D01*
X160943250Y-84359000D01*
X161102000Y-84200250D01*
X161105072Y-83586000D01*
X161092812Y-83461518D01*
X161056502Y-83341820D01*
X160997537Y-83231506D01*
X160918185Y-83134815D01*
X160821494Y-83055463D01*
X160711180Y-82996498D01*
X160591482Y-82960188D01*
X160467000Y-82947928D01*
X160090250Y-82951000D01*
X159931500Y-83109750D01*
X159677500Y-83109750D01*
X159518750Y-82951000D01*
X159142000Y-82947928D01*
X159017518Y-82960188D01*
X158897820Y-82996498D01*
X158787506Y-83055463D01*
X158690815Y-83134815D01*
X158611463Y-83231506D01*
X158552498Y-83341820D01*
X158516188Y-83461518D01*
X158504734Y-83577817D01*
X158493727Y-83466062D01*
X158480065Y-83327345D01*
X158375595Y-82982954D01*
X158205945Y-82665562D01*
X157977635Y-82387365D01*
X157907917Y-82330149D01*
X156859265Y-81281497D01*
X160463000Y-81281497D01*
X160463000Y-81594503D01*
X160524065Y-81901494D01*
X160643847Y-82190674D01*
X160817743Y-82450928D01*
X161039072Y-82672257D01*
X161299326Y-82846153D01*
X161588506Y-82965935D01*
X161895497Y-83027000D01*
X162208503Y-83027000D01*
X162515494Y-82965935D01*
X162804674Y-82846153D01*
X163064928Y-82672257D01*
X163286257Y-82450928D01*
X163460153Y-82190674D01*
X163579935Y-81901494D01*
X163641000Y-81594503D01*
X163641000Y-81281497D01*
X163579935Y-80974506D01*
X163460153Y-80685326D01*
X163286257Y-80425072D01*
X163064928Y-80203743D01*
X162804674Y-80029847D01*
X162792928Y-80024982D01*
X162837960Y-79863565D01*
X162052000Y-79077605D01*
X161266040Y-79863565D01*
X161311072Y-80024982D01*
X161299326Y-80029847D01*
X161039072Y-80203743D01*
X160817743Y-80425072D01*
X160643847Y-80685326D01*
X160524065Y-80974506D01*
X160463000Y-81281497D01*
X156859265Y-81281497D01*
X155660417Y-80082650D01*
X155569307Y-80007878D01*
X155666257Y-79910928D01*
X155840153Y-79650674D01*
X155959935Y-79361494D01*
X156021000Y-79054503D01*
X156021000Y-78970017D01*
X160650090Y-78970017D01*
X160691078Y-79242133D01*
X160784364Y-79501023D01*
X160846344Y-79616980D01*
X161086435Y-79683960D01*
X161872395Y-78898000D01*
X162231605Y-78898000D01*
X163017565Y-79683960D01*
X163257656Y-79616980D01*
X163374756Y-79367952D01*
X163441023Y-79100865D01*
X163453910Y-78825983D01*
X163412922Y-78553867D01*
X163319636Y-78294977D01*
X163257656Y-78179020D01*
X163017565Y-78112040D01*
X162231605Y-78898000D01*
X161872395Y-78898000D01*
X161086435Y-78112040D01*
X160846344Y-78179020D01*
X160729244Y-78428048D01*
X160662977Y-78695135D01*
X160650090Y-78970017D01*
X156021000Y-78970017D01*
X156021000Y-78741497D01*
X155959935Y-78434506D01*
X155840153Y-78145326D01*
X155697904Y-77932435D01*
X161266040Y-77932435D01*
X162052000Y-78718395D01*
X162837960Y-77932435D01*
X162770980Y-77692344D01*
X162521952Y-77575244D01*
X162254865Y-77508977D01*
X161979983Y-77496090D01*
X161707867Y-77537078D01*
X161448977Y-77630364D01*
X161333020Y-77692344D01*
X161266040Y-77932435D01*
X155697904Y-77932435D01*
X155666257Y-77885072D01*
X155444928Y-77663743D01*
X155184674Y-77489847D01*
X154895494Y-77370065D01*
X154588503Y-77309000D01*
X154275497Y-77309000D01*
X153968506Y-77370065D01*
X153679326Y-77489847D01*
X153419072Y-77663743D01*
X153197743Y-77885072D01*
X153023847Y-78145326D01*
X152904065Y-78434506D01*
X152843000Y-78741497D01*
X152843000Y-79054503D01*
X152904065Y-79361494D01*
X153023847Y-79650674D01*
X153197743Y-79910928D01*
X153294693Y-80007878D01*
X153133866Y-80139866D01*
X152905555Y-80418063D01*
X152735905Y-80735455D01*
X152631436Y-81079846D01*
X152596160Y-81438000D01*
X150941000Y-81438000D01*
X150941000Y-81281497D01*
X150879935Y-80974506D01*
X150760153Y-80685326D01*
X150586257Y-80425072D01*
X150364928Y-80203743D01*
X150104674Y-80029847D01*
X150092928Y-80024982D01*
X150137960Y-79863565D01*
X149352000Y-79077605D01*
X148566040Y-79863565D01*
X148611072Y-80024982D01*
X148599326Y-80029847D01*
X148339072Y-80203743D01*
X148117743Y-80425072D01*
X147943847Y-80685326D01*
X147824065Y-80974506D01*
X147763000Y-81281497D01*
X144159265Y-81281497D01*
X142960417Y-80082650D01*
X142869307Y-80007878D01*
X142966257Y-79910928D01*
X143140153Y-79650674D01*
X143259935Y-79361494D01*
X143321000Y-79054503D01*
X143321000Y-78970017D01*
X147950090Y-78970017D01*
X147991078Y-79242133D01*
X148084364Y-79501023D01*
X148146344Y-79616980D01*
X148386435Y-79683960D01*
X149172395Y-78898000D01*
X149531605Y-78898000D01*
X150317565Y-79683960D01*
X150557656Y-79616980D01*
X150674756Y-79367952D01*
X150741023Y-79100865D01*
X150753910Y-78825983D01*
X150712922Y-78553867D01*
X150619636Y-78294977D01*
X150557656Y-78179020D01*
X150317565Y-78112040D01*
X149531605Y-78898000D01*
X149172395Y-78898000D01*
X148386435Y-78112040D01*
X148146344Y-78179020D01*
X148029244Y-78428048D01*
X147962977Y-78695135D01*
X147950090Y-78970017D01*
X143321000Y-78970017D01*
X143321000Y-78741497D01*
X143259935Y-78434506D01*
X143140153Y-78145326D01*
X142997904Y-77932435D01*
X148566040Y-77932435D01*
X149352000Y-78718395D01*
X150137960Y-77932435D01*
X150070980Y-77692344D01*
X149821952Y-77575244D01*
X149554865Y-77508977D01*
X149279983Y-77496090D01*
X149007867Y-77537078D01*
X148748977Y-77630364D01*
X148633020Y-77692344D01*
X148566040Y-77932435D01*
X142997904Y-77932435D01*
X142966257Y-77885072D01*
X142744928Y-77663743D01*
X142484674Y-77489847D01*
X142195494Y-77370065D01*
X141888503Y-77309000D01*
X141575497Y-77309000D01*
X141268506Y-77370065D01*
X140979326Y-77489847D01*
X140719072Y-77663743D01*
X140497743Y-77885072D01*
X140323847Y-78145326D01*
X140204065Y-78434506D01*
X140143000Y-78741497D01*
X140143000Y-79054503D01*
X140204065Y-79361494D01*
X140323847Y-79650674D01*
X140497743Y-79910928D01*
X140594693Y-80007878D01*
X140433866Y-80139866D01*
X140205555Y-80418063D01*
X140035905Y-80735455D01*
X139931436Y-81079846D01*
X139896160Y-81438000D01*
X138241000Y-81438000D01*
X138241000Y-81281497D01*
X138179935Y-80974506D01*
X138060153Y-80685326D01*
X137886257Y-80425072D01*
X137664928Y-80203743D01*
X137404674Y-80029847D01*
X137392928Y-80024982D01*
X137437960Y-79863565D01*
X136652000Y-79077605D01*
X135866040Y-79863565D01*
X135911072Y-80024982D01*
X135899326Y-80029847D01*
X135639072Y-80203743D01*
X135417743Y-80425072D01*
X135243847Y-80685326D01*
X135124065Y-80974506D01*
X135063000Y-81281497D01*
X131459265Y-81281497D01*
X130260417Y-80082650D01*
X130169307Y-80007878D01*
X130266257Y-79910928D01*
X130440153Y-79650674D01*
X130559935Y-79361494D01*
X130621000Y-79054503D01*
X130621000Y-78970017D01*
X135250090Y-78970017D01*
X135291078Y-79242133D01*
X135384364Y-79501023D01*
X135446344Y-79616980D01*
X135686435Y-79683960D01*
X136472395Y-78898000D01*
X136831605Y-78898000D01*
X137617565Y-79683960D01*
X137857656Y-79616980D01*
X137974756Y-79367952D01*
X138041023Y-79100865D01*
X138053910Y-78825983D01*
X138012922Y-78553867D01*
X137919636Y-78294977D01*
X137857656Y-78179020D01*
X137617565Y-78112040D01*
X136831605Y-78898000D01*
X136472395Y-78898000D01*
X135686435Y-78112040D01*
X135446344Y-78179020D01*
X135329244Y-78428048D01*
X135262977Y-78695135D01*
X135250090Y-78970017D01*
X130621000Y-78970017D01*
X130621000Y-78741497D01*
X130559935Y-78434506D01*
X130440153Y-78145326D01*
X130297904Y-77932435D01*
X135866040Y-77932435D01*
X136652000Y-78718395D01*
X137437960Y-77932435D01*
X137370980Y-77692344D01*
X137121952Y-77575244D01*
X136854865Y-77508977D01*
X136579983Y-77496090D01*
X136307867Y-77537078D01*
X136048977Y-77630364D01*
X135933020Y-77692344D01*
X135866040Y-77932435D01*
X130297904Y-77932435D01*
X130266257Y-77885072D01*
X130044928Y-77663743D01*
X129784674Y-77489847D01*
X129495494Y-77370065D01*
X129188503Y-77309000D01*
X128875497Y-77309000D01*
X128568506Y-77370065D01*
X128279326Y-77489847D01*
X128019072Y-77663743D01*
X127797743Y-77885072D01*
X127623847Y-78145326D01*
X127504065Y-78434506D01*
X127443000Y-78741497D01*
X127443000Y-79054503D01*
X127504065Y-79361494D01*
X127623847Y-79650674D01*
X127797743Y-79910928D01*
X127894693Y-80007878D01*
X127733866Y-80139866D01*
X127505555Y-80418063D01*
X127335905Y-80735455D01*
X127231436Y-81079846D01*
X127196160Y-81438000D01*
X125541000Y-81438000D01*
X125541000Y-81281497D01*
X125479935Y-80974506D01*
X125360153Y-80685326D01*
X125186257Y-80425072D01*
X124964928Y-80203743D01*
X124704674Y-80029847D01*
X124692928Y-80024982D01*
X124737960Y-79863565D01*
X123952000Y-79077605D01*
X123166040Y-79863565D01*
X123211072Y-80024982D01*
X123199326Y-80029847D01*
X122939072Y-80203743D01*
X122717743Y-80425072D01*
X122543847Y-80685326D01*
X122424065Y-80974506D01*
X122363000Y-81281497D01*
X118759265Y-81281497D01*
X117560417Y-80082650D01*
X117469307Y-80007878D01*
X117566257Y-79910928D01*
X117740153Y-79650674D01*
X117859935Y-79361494D01*
X117921000Y-79054503D01*
X117921000Y-78970017D01*
X122550090Y-78970017D01*
X122591078Y-79242133D01*
X122684364Y-79501023D01*
X122746344Y-79616980D01*
X122986435Y-79683960D01*
X123772395Y-78898000D01*
X124131605Y-78898000D01*
X124917565Y-79683960D01*
X125157656Y-79616980D01*
X125274756Y-79367952D01*
X125341023Y-79100865D01*
X125353910Y-78825983D01*
X125312922Y-78553867D01*
X125219636Y-78294977D01*
X125157656Y-78179020D01*
X124917565Y-78112040D01*
X124131605Y-78898000D01*
X123772395Y-78898000D01*
X122986435Y-78112040D01*
X122746344Y-78179020D01*
X122629244Y-78428048D01*
X122562977Y-78695135D01*
X122550090Y-78970017D01*
X117921000Y-78970017D01*
X117921000Y-78741497D01*
X117859935Y-78434506D01*
X117740153Y-78145326D01*
X117597904Y-77932435D01*
X123166040Y-77932435D01*
X123952000Y-78718395D01*
X124737960Y-77932435D01*
X124670980Y-77692344D01*
X124421952Y-77575244D01*
X124154865Y-77508977D01*
X123879983Y-77496090D01*
X123607867Y-77537078D01*
X123348977Y-77630364D01*
X123233020Y-77692344D01*
X123166040Y-77932435D01*
X117597904Y-77932435D01*
X117566257Y-77885072D01*
X117344928Y-77663743D01*
X117084674Y-77489847D01*
X116795494Y-77370065D01*
X116488503Y-77309000D01*
X116175497Y-77309000D01*
X115868506Y-77370065D01*
X115579326Y-77489847D01*
X115319072Y-77663743D01*
X115097743Y-77885072D01*
X114923847Y-78145326D01*
X114804065Y-78434506D01*
X114743000Y-78741497D01*
X114743000Y-79054503D01*
X114804065Y-79361494D01*
X114923847Y-79650674D01*
X115097743Y-79910928D01*
X115194693Y-80007878D01*
X115033866Y-80139866D01*
X114805555Y-80418063D01*
X114635905Y-80735455D01*
X114531436Y-81079846D01*
X114496160Y-81438000D01*
X112852000Y-81438000D01*
X112852000Y-59550000D01*
X161011928Y-59550000D01*
X161015000Y-60014250D01*
X161173750Y-60173000D01*
X163273000Y-60173000D01*
X163273000Y-59073750D01*
X163114250Y-58915000D01*
X161650000Y-58911928D01*
X161525518Y-58924188D01*
X161405820Y-58960498D01*
X161295506Y-59019463D01*
X161198815Y-59098815D01*
X161119463Y-59195506D01*
X161060498Y-59305820D01*
X161024188Y-59425518D01*
X161011928Y-59550000D01*
X112852000Y-59550000D01*
X112852000Y-56037944D01*
X112875841Y-55770811D01*
X114673000Y-55770811D01*
X114673000Y-56229189D01*
X114762426Y-56678761D01*
X114937840Y-57102248D01*
X115192501Y-57483376D01*
X115516624Y-57807499D01*
X115897752Y-58062160D01*
X116321239Y-58237574D01*
X116770811Y-58327000D01*
X117229189Y-58327000D01*
X117678761Y-58237574D01*
X118102248Y-58062160D01*
X118483376Y-57807499D01*
X118807499Y-57483376D01*
X119062160Y-57102248D01*
X119166644Y-56850000D01*
X132511928Y-56850000D01*
X132524188Y-56974482D01*
X132560498Y-57094180D01*
X132619463Y-57204494D01*
X132698815Y-57301185D01*
X132795506Y-57380537D01*
X132905820Y-57439502D01*
X133025518Y-57475812D01*
X133150000Y-57488072D01*
X133714250Y-57485000D01*
X133873000Y-57326250D01*
X133873000Y-56127000D01*
X132673750Y-56127000D01*
X132515000Y-56285750D01*
X132511928Y-56850000D01*
X119166644Y-56850000D01*
X119237574Y-56678761D01*
X119327000Y-56229189D01*
X119327000Y-55770811D01*
X119237574Y-55321239D01*
X119166645Y-55150000D01*
X132511928Y-55150000D01*
X132515000Y-55714250D01*
X132673750Y-55873000D01*
X133873000Y-55873000D01*
X133873000Y-54673750D01*
X134127000Y-54673750D01*
X134127000Y-55873000D01*
X134147000Y-55873000D01*
X134147000Y-56127000D01*
X134127000Y-56127000D01*
X134127000Y-57326250D01*
X134285750Y-57485000D01*
X134850000Y-57488072D01*
X134974482Y-57475812D01*
X135094180Y-57439502D01*
X135204494Y-57380537D01*
X135301185Y-57301185D01*
X135377076Y-57208712D01*
X135470975Y-57302611D01*
X135745643Y-57486138D01*
X136050837Y-57612554D01*
X136374830Y-57677000D01*
X136705170Y-57677000D01*
X137029163Y-57612554D01*
X137334357Y-57486138D01*
X137609025Y-57302611D01*
X137810000Y-57101636D01*
X138010975Y-57302611D01*
X138285643Y-57486138D01*
X138590837Y-57612554D01*
X138914830Y-57677000D01*
X139245170Y-57677000D01*
X139569163Y-57612554D01*
X139874357Y-57486138D01*
X140149025Y-57302611D01*
X140350000Y-57101636D01*
X140550975Y-57302611D01*
X140825643Y-57486138D01*
X141130837Y-57612554D01*
X141454830Y-57677000D01*
X141785170Y-57677000D01*
X142109163Y-57612554D01*
X142414357Y-57486138D01*
X142689025Y-57302611D01*
X142890000Y-57101636D01*
X143090975Y-57302611D01*
X143365643Y-57486138D01*
X143670837Y-57612554D01*
X143994830Y-57677000D01*
X144325170Y-57677000D01*
X144649163Y-57612554D01*
X144954357Y-57486138D01*
X145229025Y-57302611D01*
X145462611Y-57069025D01*
X145646138Y-56794357D01*
X145772554Y-56489163D01*
X145837000Y-56165170D01*
X145837000Y-55834830D01*
X145824266Y-55770811D01*
X158673000Y-55770811D01*
X158673000Y-56229189D01*
X158762426Y-56678761D01*
X158937840Y-57102248D01*
X159192501Y-57483376D01*
X159516624Y-57807499D01*
X159897752Y-58062160D01*
X160321239Y-58237574D01*
X160770811Y-58327000D01*
X161229189Y-58327000D01*
X161678761Y-58237574D01*
X162102248Y-58062160D01*
X162483376Y-57807499D01*
X162807499Y-57483376D01*
X163062160Y-57102248D01*
X163237574Y-56678761D01*
X163327000Y-56229189D01*
X163327000Y-55770811D01*
X163237574Y-55321239D01*
X163062160Y-54897752D01*
X162807499Y-54516624D01*
X162483376Y-54192501D01*
X162102248Y-53937840D01*
X161678761Y-53762426D01*
X161229189Y-53673000D01*
X160770811Y-53673000D01*
X160321239Y-53762426D01*
X159897752Y-53937840D01*
X159516624Y-54192501D01*
X159192501Y-54516624D01*
X158937840Y-54897752D01*
X158762426Y-55321239D01*
X158673000Y-55770811D01*
X145824266Y-55770811D01*
X145772554Y-55510837D01*
X145646138Y-55205643D01*
X145462611Y-54930975D01*
X145229025Y-54697389D01*
X144954357Y-54513862D01*
X144649163Y-54387446D01*
X144325170Y-54323000D01*
X143994830Y-54323000D01*
X143670837Y-54387446D01*
X143365643Y-54513862D01*
X143090975Y-54697389D01*
X142890000Y-54898364D01*
X142689025Y-54697389D01*
X142414357Y-54513862D01*
X142109163Y-54387446D01*
X141785170Y-54323000D01*
X141454830Y-54323000D01*
X141130837Y-54387446D01*
X140825643Y-54513862D01*
X140550975Y-54697389D01*
X140350000Y-54898364D01*
X140149025Y-54697389D01*
X139874357Y-54513862D01*
X139569163Y-54387446D01*
X139245170Y-54323000D01*
X138914830Y-54323000D01*
X138590837Y-54387446D01*
X138285643Y-54513862D01*
X138010975Y-54697389D01*
X137810000Y-54898364D01*
X137609025Y-54697389D01*
X137334357Y-54513862D01*
X137029163Y-54387446D01*
X136705170Y-54323000D01*
X136374830Y-54323000D01*
X136050837Y-54387446D01*
X135745643Y-54513862D01*
X135470975Y-54697389D01*
X135377076Y-54791288D01*
X135301185Y-54698815D01*
X135204494Y-54619463D01*
X135094180Y-54560498D01*
X134974482Y-54524188D01*
X134850000Y-54511928D01*
X134285750Y-54515000D01*
X134127000Y-54673750D01*
X133873000Y-54673750D01*
X133714250Y-54515000D01*
X133150000Y-54511928D01*
X133025518Y-54524188D01*
X132905820Y-54560498D01*
X132795506Y-54619463D01*
X132698815Y-54698815D01*
X132619463Y-54795506D01*
X132560498Y-54905820D01*
X132524188Y-55025518D01*
X132511928Y-55150000D01*
X119166645Y-55150000D01*
X119062160Y-54897752D01*
X118807499Y-54516624D01*
X118483376Y-54192501D01*
X118102248Y-53937840D01*
X117678761Y-53762426D01*
X117229189Y-53673000D01*
X116770811Y-53673000D01*
X116321239Y-53762426D01*
X115897752Y-53937840D01*
X115516624Y-54192501D01*
X115192501Y-54516624D01*
X114937840Y-54897752D01*
X114762426Y-55321239D01*
X114673000Y-55770811D01*
X112875841Y-55770811D01*
X112920890Y-55266052D01*
X113115328Y-54555306D01*
X113432559Y-53890217D01*
X113862548Y-53291824D01*
X114391709Y-52779031D01*
X115003319Y-52368047D01*
X115678036Y-52071866D01*
X116401096Y-51898275D01*
X117031242Y-51852000D01*
X160962056Y-51852000D01*
X161733948Y-51920890D01*
G37*
%TD.AperFunction*%
%TD*%
M02*
