M48
; DRILL file {KiCad 5.1.9-5.1.9} date Mon May 17 13:06:40 2021
; FORMAT={-:-/ absolute / inch / decimal}
; #@! TF.CreationDate,2021-05-17T13:06:40+03:00
; #@! TF.GenerationSoftware,Kicad,Pcbnew,5.1.9-5.1.9
; #@! TF.FileFunction,Plated,1,2,PTH
FMAT,2
INCH
T1C0.0157
T2C0.0300
T3C0.0354
T4C0.0394
%
G90
G05
T1
X4.73Y-2.8162
X4.73Y-2.9462
X4.73Y-5.1469
X4.73Y-5.2869
X4.88Y-3.2962
X4.88Y-3.3562
X4.88Y-3.6262
X4.88Y-3.6862
X4.88Y-4.0862
X4.88Y-4.1462
X4.88Y-4.5362
X4.88Y-4.5962
X5.23Y-2.8162
X5.23Y-2.9462
X5.23Y-5.1469
X5.23Y-5.2869
X5.38Y-3.2962
X5.38Y-3.3562
X5.38Y-3.6262
X5.38Y-3.6862
X5.38Y-4.0862
X5.38Y-4.1462
X5.38Y-4.5362
X5.38Y-4.5962
X5.73Y-2.8162
X5.73Y-2.9462
X5.73Y-5.1469
X5.73Y-5.2869
X5.88Y-3.2962
X5.88Y-3.3562
X5.88Y-3.6262
X5.88Y-3.6862
X5.88Y-4.0862
X5.88Y-4.1462
X5.88Y-4.5362
X5.88Y-4.5962
X6.23Y-2.8162
X6.23Y-2.9462
X6.23Y-5.1469
X6.23Y-5.2869
X6.38Y-3.2962
X6.38Y-3.3562
X6.38Y-3.6262
X6.38Y-3.6862
X6.38Y-4.0862
X6.38Y-4.1462
X6.38Y-4.5362
X6.38Y-4.5962
T2
X4.58Y-2.7062
X4.58Y-3.1062
X4.58Y-3.2062
X4.58Y-4.8969
X4.58Y-4.9969
X4.58Y-5.3969
X4.88Y-2.7062
X4.88Y-3.1062
X4.88Y-3.2062
X4.88Y-4.8969
X4.88Y-4.9969
X4.88Y-5.3969
X5.08Y-2.7062
X5.08Y-3.1062
X5.08Y-3.2062
X5.08Y-4.8969
X5.08Y-4.9969
X5.08Y-5.3969
X5.38Y-2.7062
X5.38Y-3.1062
X5.38Y-3.2062
X5.38Y-4.8969
X5.38Y-4.9969
X5.38Y-5.3969
X5.58Y-2.7062
X5.58Y-3.1062
X5.58Y-3.2062
X5.58Y-4.8969
X5.58Y-4.9969
X5.58Y-5.3969
X5.88Y-2.7062
X5.88Y-3.1062
X5.88Y-3.2062
X5.88Y-4.8969
X5.88Y-4.9969
X5.88Y-5.3969
X6.08Y-2.7062
X6.08Y-3.1062
X6.08Y-3.2062
X6.08Y-4.8969
X6.08Y-4.9969
X6.08Y-5.3969
X6.38Y-2.7062
X6.38Y-3.1062
X6.38Y-3.2062
X6.38Y-4.8969
X6.38Y-4.9969
X6.38Y-5.3969
T3
X4.7022Y-3.8133
X4.7022Y-4.2633
X4.7022Y-4.7133
X4.7578Y-3.4792
X4.7578Y-3.9292
X4.7578Y-4.3792
X5.2022Y-3.8133
X5.2022Y-4.2633
X5.2022Y-4.7133
X5.2578Y-3.4792
X5.2578Y-3.9292
X5.2578Y-4.3792
X5.7022Y-3.8133
X5.7022Y-4.2633
X5.7022Y-4.7133
X5.7578Y-3.4792
X5.7578Y-3.9292
X5.7578Y-4.3792
X6.2022Y-3.8133
X6.2022Y-4.2633
X6.2022Y-4.7133
X6.2578Y-3.4792
X6.2578Y-3.9292
X6.2578Y-4.3792
T4
X5.2756Y-2.2047
X5.3756Y-2.2047
X5.4756Y-2.2047
X5.5756Y-2.2047
X5.6756Y-2.2047
T0
M30
