%TF.GenerationSoftware,KiCad,Pcbnew,5.1.9-5.1.9*%
%TF.CreationDate,2021-05-17T13:06:36+03:00*%
%TF.ProjectId,lpf,6c70662e-6b69-4636-9164-5f7063625858,rev?*%
%TF.SameCoordinates,Original*%
%TF.FileFunction,Legend,Bot*%
%TF.FilePolarity,Positive*%
%FSLAX46Y46*%
G04 Gerber Fmt 4.6, Leading zero omitted, Abs format (unit mm)*
G04 Created by KiCad (PCBNEW 5.1.9-5.1.9) date 2021-05-17 13:06:36*
%MOMM*%
%LPD*%
G01*
G04 APERTURE LIST*
%ADD10C,0.200000*%
%ADD11C,0.120000*%
%ADD12C,0.015000*%
%ADD13C,0.150000*%
G04 APERTURE END LIST*
D10*
%TO.C,J3*%
X161100000Y-142900000D02*
G75*
G03*
X161100000Y-142900000I-100000J0D01*
G01*
%TO.C,J2*%
X161100000Y-63000000D02*
G75*
G03*
X161100000Y-63000000I-100000J0D01*
G01*
D11*
%TO.C,C16*%
X157530748Y-116892000D02*
X158953252Y-116892000D01*
X157530748Y-115072000D02*
X158953252Y-115072000D01*
%TO.C,C15*%
X144830748Y-116892000D02*
X146253252Y-116892000D01*
X144830748Y-115072000D02*
X146253252Y-115072000D01*
%TO.C,C14*%
X132130748Y-116892000D02*
X133553252Y-116892000D01*
X132130748Y-115072000D02*
X133553252Y-115072000D01*
%TO.C,C13*%
X119430748Y-116892000D02*
X120853252Y-116892000D01*
X119430748Y-115072000D02*
X120853252Y-115072000D01*
%TO.C,C12*%
X157530748Y-105462000D02*
X158953252Y-105462000D01*
X157530748Y-103642000D02*
X158953252Y-103642000D01*
%TO.C,C11*%
X144830748Y-105462000D02*
X146253252Y-105462000D01*
X144830748Y-103642000D02*
X146253252Y-103642000D01*
%TO.C,C10*%
X132130748Y-105462000D02*
X133553252Y-105462000D01*
X132130748Y-103642000D02*
X133553252Y-103642000D01*
%TO.C,C9*%
X119430748Y-105462000D02*
X120853252Y-105462000D01*
X119430748Y-103642000D02*
X120853252Y-103642000D01*
%TO.C,C8*%
X157530748Y-93778000D02*
X158953252Y-93778000D01*
X157530748Y-91958000D02*
X158953252Y-91958000D01*
%TO.C,C7*%
X144830748Y-93778000D02*
X146253252Y-93778000D01*
X144830748Y-91958000D02*
X146253252Y-91958000D01*
%TO.C,C6*%
X132130748Y-93778000D02*
X133553252Y-93778000D01*
X132130748Y-91958000D02*
X133553252Y-91958000D01*
%TO.C,C5*%
X119430748Y-93778000D02*
X120853252Y-93778000D01*
X119430748Y-91958000D02*
X120853252Y-91958000D01*
%TO.C,C4*%
X157530748Y-85396000D02*
X158953252Y-85396000D01*
X157530748Y-83576000D02*
X158953252Y-83576000D01*
%TO.C,C3*%
X144830748Y-85396000D02*
X146253252Y-85396000D01*
X144830748Y-83576000D02*
X146253252Y-83576000D01*
%TO.C,C2*%
X132130748Y-85396000D02*
X133553252Y-85396000D01*
X132130748Y-83576000D02*
X133553252Y-83576000D01*
%TO.C,C1*%
X119430748Y-85396000D02*
X120853252Y-85396000D01*
X119430748Y-83576000D02*
X120853252Y-83576000D01*
%TO.C,J3*%
D12*
X163581333Y-138143123D02*
X163581333Y-138600266D01*
X163611809Y-138691695D01*
X163672761Y-138752647D01*
X163764190Y-138783123D01*
X163825142Y-138783123D01*
X163337523Y-138143123D02*
X162941333Y-138143123D01*
X163154666Y-138386933D01*
X163063238Y-138386933D01*
X163002285Y-138417409D01*
X162971809Y-138447885D01*
X162941333Y-138508838D01*
X162941333Y-138661219D01*
X162971809Y-138722171D01*
X163002285Y-138752647D01*
X163063238Y-138783123D01*
X163246095Y-138783123D01*
X163307047Y-138752647D01*
X163337523Y-138722171D01*
%TO.C,J2*%
X163581333Y-58243123D02*
X163581333Y-58700266D01*
X163611809Y-58791695D01*
X163672761Y-58852647D01*
X163764190Y-58883123D01*
X163825142Y-58883123D01*
X163307047Y-58304076D02*
X163276571Y-58273600D01*
X163215619Y-58243123D01*
X163063238Y-58243123D01*
X163002285Y-58273600D01*
X162971809Y-58304076D01*
X162941333Y-58365028D01*
X162941333Y-58425980D01*
X162971809Y-58517409D01*
X163337523Y-58883123D01*
X162941333Y-58883123D01*
%TO.C,C16*%
D13*
X158884857Y-118189142D02*
X158932476Y-118236761D01*
X159075333Y-118284380D01*
X159170571Y-118284380D01*
X159313428Y-118236761D01*
X159408666Y-118141523D01*
X159456285Y-118046285D01*
X159503904Y-117855809D01*
X159503904Y-117712952D01*
X159456285Y-117522476D01*
X159408666Y-117427238D01*
X159313428Y-117332000D01*
X159170571Y-117284380D01*
X159075333Y-117284380D01*
X158932476Y-117332000D01*
X158884857Y-117379619D01*
X157932476Y-118284380D02*
X158503904Y-118284380D01*
X158218190Y-118284380D02*
X158218190Y-117284380D01*
X158313428Y-117427238D01*
X158408666Y-117522476D01*
X158503904Y-117570095D01*
X157075333Y-117284380D02*
X157265809Y-117284380D01*
X157361047Y-117332000D01*
X157408666Y-117379619D01*
X157503904Y-117522476D01*
X157551523Y-117712952D01*
X157551523Y-118093904D01*
X157503904Y-118189142D01*
X157456285Y-118236761D01*
X157361047Y-118284380D01*
X157170571Y-118284380D01*
X157075333Y-118236761D01*
X157027714Y-118189142D01*
X156980095Y-118093904D01*
X156980095Y-117855809D01*
X157027714Y-117760571D01*
X157075333Y-117712952D01*
X157170571Y-117665333D01*
X157361047Y-117665333D01*
X157456285Y-117712952D01*
X157503904Y-117760571D01*
X157551523Y-117855809D01*
%TO.C,C15*%
X146184857Y-118189142D02*
X146232476Y-118236761D01*
X146375333Y-118284380D01*
X146470571Y-118284380D01*
X146613428Y-118236761D01*
X146708666Y-118141523D01*
X146756285Y-118046285D01*
X146803904Y-117855809D01*
X146803904Y-117712952D01*
X146756285Y-117522476D01*
X146708666Y-117427238D01*
X146613428Y-117332000D01*
X146470571Y-117284380D01*
X146375333Y-117284380D01*
X146232476Y-117332000D01*
X146184857Y-117379619D01*
X145232476Y-118284380D02*
X145803904Y-118284380D01*
X145518190Y-118284380D02*
X145518190Y-117284380D01*
X145613428Y-117427238D01*
X145708666Y-117522476D01*
X145803904Y-117570095D01*
X144327714Y-117284380D02*
X144803904Y-117284380D01*
X144851523Y-117760571D01*
X144803904Y-117712952D01*
X144708666Y-117665333D01*
X144470571Y-117665333D01*
X144375333Y-117712952D01*
X144327714Y-117760571D01*
X144280095Y-117855809D01*
X144280095Y-118093904D01*
X144327714Y-118189142D01*
X144375333Y-118236761D01*
X144470571Y-118284380D01*
X144708666Y-118284380D01*
X144803904Y-118236761D01*
X144851523Y-118189142D01*
%TO.C,C14*%
X133484857Y-118189142D02*
X133532476Y-118236761D01*
X133675333Y-118284380D01*
X133770571Y-118284380D01*
X133913428Y-118236761D01*
X134008666Y-118141523D01*
X134056285Y-118046285D01*
X134103904Y-117855809D01*
X134103904Y-117712952D01*
X134056285Y-117522476D01*
X134008666Y-117427238D01*
X133913428Y-117332000D01*
X133770571Y-117284380D01*
X133675333Y-117284380D01*
X133532476Y-117332000D01*
X133484857Y-117379619D01*
X132532476Y-118284380D02*
X133103904Y-118284380D01*
X132818190Y-118284380D02*
X132818190Y-117284380D01*
X132913428Y-117427238D01*
X133008666Y-117522476D01*
X133103904Y-117570095D01*
X131675333Y-117617714D02*
X131675333Y-118284380D01*
X131913428Y-117236761D02*
X132151523Y-117951047D01*
X131532476Y-117951047D01*
%TO.C,C13*%
X120784857Y-118189142D02*
X120832476Y-118236761D01*
X120975333Y-118284380D01*
X121070571Y-118284380D01*
X121213428Y-118236761D01*
X121308666Y-118141523D01*
X121356285Y-118046285D01*
X121403904Y-117855809D01*
X121403904Y-117712952D01*
X121356285Y-117522476D01*
X121308666Y-117427238D01*
X121213428Y-117332000D01*
X121070571Y-117284380D01*
X120975333Y-117284380D01*
X120832476Y-117332000D01*
X120784857Y-117379619D01*
X119832476Y-118284380D02*
X120403904Y-118284380D01*
X120118190Y-118284380D02*
X120118190Y-117284380D01*
X120213428Y-117427238D01*
X120308666Y-117522476D01*
X120403904Y-117570095D01*
X119499142Y-117284380D02*
X118880095Y-117284380D01*
X119213428Y-117665333D01*
X119070571Y-117665333D01*
X118975333Y-117712952D01*
X118927714Y-117760571D01*
X118880095Y-117855809D01*
X118880095Y-118093904D01*
X118927714Y-118189142D01*
X118975333Y-118236761D01*
X119070571Y-118284380D01*
X119356285Y-118284380D01*
X119451523Y-118236761D01*
X119499142Y-118189142D01*
%TO.C,C12*%
X158884857Y-106759142D02*
X158932476Y-106806761D01*
X159075333Y-106854380D01*
X159170571Y-106854380D01*
X159313428Y-106806761D01*
X159408666Y-106711523D01*
X159456285Y-106616285D01*
X159503904Y-106425809D01*
X159503904Y-106282952D01*
X159456285Y-106092476D01*
X159408666Y-105997238D01*
X159313428Y-105902000D01*
X159170571Y-105854380D01*
X159075333Y-105854380D01*
X158932476Y-105902000D01*
X158884857Y-105949619D01*
X157932476Y-106854380D02*
X158503904Y-106854380D01*
X158218190Y-106854380D02*
X158218190Y-105854380D01*
X158313428Y-105997238D01*
X158408666Y-106092476D01*
X158503904Y-106140095D01*
X157551523Y-105949619D02*
X157503904Y-105902000D01*
X157408666Y-105854380D01*
X157170571Y-105854380D01*
X157075333Y-105902000D01*
X157027714Y-105949619D01*
X156980095Y-106044857D01*
X156980095Y-106140095D01*
X157027714Y-106282952D01*
X157599142Y-106854380D01*
X156980095Y-106854380D01*
%TO.C,C11*%
X146184857Y-106759142D02*
X146232476Y-106806761D01*
X146375333Y-106854380D01*
X146470571Y-106854380D01*
X146613428Y-106806761D01*
X146708666Y-106711523D01*
X146756285Y-106616285D01*
X146803904Y-106425809D01*
X146803904Y-106282952D01*
X146756285Y-106092476D01*
X146708666Y-105997238D01*
X146613428Y-105902000D01*
X146470571Y-105854380D01*
X146375333Y-105854380D01*
X146232476Y-105902000D01*
X146184857Y-105949619D01*
X145232476Y-106854380D02*
X145803904Y-106854380D01*
X145518190Y-106854380D02*
X145518190Y-105854380D01*
X145613428Y-105997238D01*
X145708666Y-106092476D01*
X145803904Y-106140095D01*
X144280095Y-106854380D02*
X144851523Y-106854380D01*
X144565809Y-106854380D02*
X144565809Y-105854380D01*
X144661047Y-105997238D01*
X144756285Y-106092476D01*
X144851523Y-106140095D01*
%TO.C,C10*%
X133484857Y-106759142D02*
X133532476Y-106806761D01*
X133675333Y-106854380D01*
X133770571Y-106854380D01*
X133913428Y-106806761D01*
X134008666Y-106711523D01*
X134056285Y-106616285D01*
X134103904Y-106425809D01*
X134103904Y-106282952D01*
X134056285Y-106092476D01*
X134008666Y-105997238D01*
X133913428Y-105902000D01*
X133770571Y-105854380D01*
X133675333Y-105854380D01*
X133532476Y-105902000D01*
X133484857Y-105949619D01*
X132532476Y-106854380D02*
X133103904Y-106854380D01*
X132818190Y-106854380D02*
X132818190Y-105854380D01*
X132913428Y-105997238D01*
X133008666Y-106092476D01*
X133103904Y-106140095D01*
X131913428Y-105854380D02*
X131818190Y-105854380D01*
X131722952Y-105902000D01*
X131675333Y-105949619D01*
X131627714Y-106044857D01*
X131580095Y-106235333D01*
X131580095Y-106473428D01*
X131627714Y-106663904D01*
X131675333Y-106759142D01*
X131722952Y-106806761D01*
X131818190Y-106854380D01*
X131913428Y-106854380D01*
X132008666Y-106806761D01*
X132056285Y-106759142D01*
X132103904Y-106663904D01*
X132151523Y-106473428D01*
X132151523Y-106235333D01*
X132103904Y-106044857D01*
X132056285Y-105949619D01*
X132008666Y-105902000D01*
X131913428Y-105854380D01*
%TO.C,C9*%
X120308666Y-106759142D02*
X120356285Y-106806761D01*
X120499142Y-106854380D01*
X120594380Y-106854380D01*
X120737238Y-106806761D01*
X120832476Y-106711523D01*
X120880095Y-106616285D01*
X120927714Y-106425809D01*
X120927714Y-106282952D01*
X120880095Y-106092476D01*
X120832476Y-105997238D01*
X120737238Y-105902000D01*
X120594380Y-105854380D01*
X120499142Y-105854380D01*
X120356285Y-105902000D01*
X120308666Y-105949619D01*
X119832476Y-106854380D02*
X119642000Y-106854380D01*
X119546761Y-106806761D01*
X119499142Y-106759142D01*
X119403904Y-106616285D01*
X119356285Y-106425809D01*
X119356285Y-106044857D01*
X119403904Y-105949619D01*
X119451523Y-105902000D01*
X119546761Y-105854380D01*
X119737238Y-105854380D01*
X119832476Y-105902000D01*
X119880095Y-105949619D01*
X119927714Y-106044857D01*
X119927714Y-106282952D01*
X119880095Y-106378190D01*
X119832476Y-106425809D01*
X119737238Y-106473428D01*
X119546761Y-106473428D01*
X119451523Y-106425809D01*
X119403904Y-106378190D01*
X119356285Y-106282952D01*
%TO.C,C8*%
X158408666Y-95075142D02*
X158456285Y-95122761D01*
X158599142Y-95170380D01*
X158694380Y-95170380D01*
X158837238Y-95122761D01*
X158932476Y-95027523D01*
X158980095Y-94932285D01*
X159027714Y-94741809D01*
X159027714Y-94598952D01*
X158980095Y-94408476D01*
X158932476Y-94313238D01*
X158837238Y-94218000D01*
X158694380Y-94170380D01*
X158599142Y-94170380D01*
X158456285Y-94218000D01*
X158408666Y-94265619D01*
X157837238Y-94598952D02*
X157932476Y-94551333D01*
X157980095Y-94503714D01*
X158027714Y-94408476D01*
X158027714Y-94360857D01*
X157980095Y-94265619D01*
X157932476Y-94218000D01*
X157837238Y-94170380D01*
X157646761Y-94170380D01*
X157551523Y-94218000D01*
X157503904Y-94265619D01*
X157456285Y-94360857D01*
X157456285Y-94408476D01*
X157503904Y-94503714D01*
X157551523Y-94551333D01*
X157646761Y-94598952D01*
X157837238Y-94598952D01*
X157932476Y-94646571D01*
X157980095Y-94694190D01*
X158027714Y-94789428D01*
X158027714Y-94979904D01*
X157980095Y-95075142D01*
X157932476Y-95122761D01*
X157837238Y-95170380D01*
X157646761Y-95170380D01*
X157551523Y-95122761D01*
X157503904Y-95075142D01*
X157456285Y-94979904D01*
X157456285Y-94789428D01*
X157503904Y-94694190D01*
X157551523Y-94646571D01*
X157646761Y-94598952D01*
%TO.C,C7*%
X145708666Y-95075142D02*
X145756285Y-95122761D01*
X145899142Y-95170380D01*
X145994380Y-95170380D01*
X146137238Y-95122761D01*
X146232476Y-95027523D01*
X146280095Y-94932285D01*
X146327714Y-94741809D01*
X146327714Y-94598952D01*
X146280095Y-94408476D01*
X146232476Y-94313238D01*
X146137238Y-94218000D01*
X145994380Y-94170380D01*
X145899142Y-94170380D01*
X145756285Y-94218000D01*
X145708666Y-94265619D01*
X145375333Y-94170380D02*
X144708666Y-94170380D01*
X145137238Y-95170380D01*
%TO.C,C6*%
X133008666Y-95075142D02*
X133056285Y-95122761D01*
X133199142Y-95170380D01*
X133294380Y-95170380D01*
X133437238Y-95122761D01*
X133532476Y-95027523D01*
X133580095Y-94932285D01*
X133627714Y-94741809D01*
X133627714Y-94598952D01*
X133580095Y-94408476D01*
X133532476Y-94313238D01*
X133437238Y-94218000D01*
X133294380Y-94170380D01*
X133199142Y-94170380D01*
X133056285Y-94218000D01*
X133008666Y-94265619D01*
X132151523Y-94170380D02*
X132342000Y-94170380D01*
X132437238Y-94218000D01*
X132484857Y-94265619D01*
X132580095Y-94408476D01*
X132627714Y-94598952D01*
X132627714Y-94979904D01*
X132580095Y-95075142D01*
X132532476Y-95122761D01*
X132437238Y-95170380D01*
X132246761Y-95170380D01*
X132151523Y-95122761D01*
X132103904Y-95075142D01*
X132056285Y-94979904D01*
X132056285Y-94741809D01*
X132103904Y-94646571D01*
X132151523Y-94598952D01*
X132246761Y-94551333D01*
X132437238Y-94551333D01*
X132532476Y-94598952D01*
X132580095Y-94646571D01*
X132627714Y-94741809D01*
%TO.C,C5*%
X120308666Y-95075142D02*
X120356285Y-95122761D01*
X120499142Y-95170380D01*
X120594380Y-95170380D01*
X120737238Y-95122761D01*
X120832476Y-95027523D01*
X120880095Y-94932285D01*
X120927714Y-94741809D01*
X120927714Y-94598952D01*
X120880095Y-94408476D01*
X120832476Y-94313238D01*
X120737238Y-94218000D01*
X120594380Y-94170380D01*
X120499142Y-94170380D01*
X120356285Y-94218000D01*
X120308666Y-94265619D01*
X119403904Y-94170380D02*
X119880095Y-94170380D01*
X119927714Y-94646571D01*
X119880095Y-94598952D01*
X119784857Y-94551333D01*
X119546761Y-94551333D01*
X119451523Y-94598952D01*
X119403904Y-94646571D01*
X119356285Y-94741809D01*
X119356285Y-94979904D01*
X119403904Y-95075142D01*
X119451523Y-95122761D01*
X119546761Y-95170380D01*
X119784857Y-95170380D01*
X119880095Y-95122761D01*
X119927714Y-95075142D01*
%TO.C,C4*%
X158408666Y-86693142D02*
X158456285Y-86740761D01*
X158599142Y-86788380D01*
X158694380Y-86788380D01*
X158837238Y-86740761D01*
X158932476Y-86645523D01*
X158980095Y-86550285D01*
X159027714Y-86359809D01*
X159027714Y-86216952D01*
X158980095Y-86026476D01*
X158932476Y-85931238D01*
X158837238Y-85836000D01*
X158694380Y-85788380D01*
X158599142Y-85788380D01*
X158456285Y-85836000D01*
X158408666Y-85883619D01*
X157551523Y-86121714D02*
X157551523Y-86788380D01*
X157789619Y-85740761D02*
X158027714Y-86455047D01*
X157408666Y-86455047D01*
%TO.C,C3*%
X145708666Y-86693142D02*
X145756285Y-86740761D01*
X145899142Y-86788380D01*
X145994380Y-86788380D01*
X146137238Y-86740761D01*
X146232476Y-86645523D01*
X146280095Y-86550285D01*
X146327714Y-86359809D01*
X146327714Y-86216952D01*
X146280095Y-86026476D01*
X146232476Y-85931238D01*
X146137238Y-85836000D01*
X145994380Y-85788380D01*
X145899142Y-85788380D01*
X145756285Y-85836000D01*
X145708666Y-85883619D01*
X145375333Y-85788380D02*
X144756285Y-85788380D01*
X145089619Y-86169333D01*
X144946761Y-86169333D01*
X144851523Y-86216952D01*
X144803904Y-86264571D01*
X144756285Y-86359809D01*
X144756285Y-86597904D01*
X144803904Y-86693142D01*
X144851523Y-86740761D01*
X144946761Y-86788380D01*
X145232476Y-86788380D01*
X145327714Y-86740761D01*
X145375333Y-86693142D01*
%TO.C,C2*%
X133008666Y-86693142D02*
X133056285Y-86740761D01*
X133199142Y-86788380D01*
X133294380Y-86788380D01*
X133437238Y-86740761D01*
X133532476Y-86645523D01*
X133580095Y-86550285D01*
X133627714Y-86359809D01*
X133627714Y-86216952D01*
X133580095Y-86026476D01*
X133532476Y-85931238D01*
X133437238Y-85836000D01*
X133294380Y-85788380D01*
X133199142Y-85788380D01*
X133056285Y-85836000D01*
X133008666Y-85883619D01*
X132627714Y-85883619D02*
X132580095Y-85836000D01*
X132484857Y-85788380D01*
X132246761Y-85788380D01*
X132151523Y-85836000D01*
X132103904Y-85883619D01*
X132056285Y-85978857D01*
X132056285Y-86074095D01*
X132103904Y-86216952D01*
X132675333Y-86788380D01*
X132056285Y-86788380D01*
%TO.C,C1*%
X120308666Y-86693142D02*
X120356285Y-86740761D01*
X120499142Y-86788380D01*
X120594380Y-86788380D01*
X120737238Y-86740761D01*
X120832476Y-86645523D01*
X120880095Y-86550285D01*
X120927714Y-86359809D01*
X120927714Y-86216952D01*
X120880095Y-86026476D01*
X120832476Y-85931238D01*
X120737238Y-85836000D01*
X120594380Y-85788380D01*
X120499142Y-85788380D01*
X120356285Y-85836000D01*
X120308666Y-85883619D01*
X119356285Y-86788380D02*
X119927714Y-86788380D01*
X119642000Y-86788380D02*
X119642000Y-85788380D01*
X119737238Y-85931238D01*
X119832476Y-86026476D01*
X119927714Y-86074095D01*
%TD*%
M02*
